<?xml version="1.0" encoding="utf-8"?>
<!-- Generator: Adobe Illustrator 15.0.0, SVG Export Plug-In  -->
<!DOCTYPE svg PUBLIC "-//W3C//DTD SVG 1.1//EN" "http://www.w3.org/Graphics/SVG/1.1/DTD/svg11.dtd" [
	<!ENTITY ns_flows "http://ns.adobe.com/Flows/1.0/">
]>
<svg version="1.1"
	 xmlns="http://www.w3.org/2000/svg" xmlns:xlink="http://www.w3.org/1999/xlink" xmlns:a="http://ns.adobe.com/AdobeSVGViewerExtensions/3.0/"
	 x="0px" y="0px" width="24px" height="24px" viewBox="175.273 143.639 24 24" enable-background="new 175.273 143.639 24 24"
	 xml:space="preserve">
<defs>
</defs>
<rect display="none" fill="#E0E0E0" width="2229.455" height="1311.244"/>
<rect x="175.273" y="143.639" display="none" fill="#C9C9C9" width="24" height="24"/>
<path fill="#FFFFFF" d="M187.273,145.639c5.523,0,10,4.477,10,10c0,5.523-4.477,10-10,10s-10-4.477-10-10
	C177.273,150.116,181.75,145.639,187.273,145.639L187.273,145.639z M190.588,156.472h-6.631c0.184,4.254,1.754,7.5,3.315,7.5
	C188.834,163.972,190.404,160.726,190.588,156.472L190.588,156.472z M182.29,156.472l-3.309,0c0.306,3.078,2.286,5.663,5.017,6.832
	C183.016,161.629,182.395,159.195,182.29,156.472L182.29,156.472z M195.565,156.472h-3.308c-0.105,2.724-0.727,5.157-1.708,6.832
	C193.279,162.136,195.259,159.55,195.565,156.472L195.565,156.472z M183.998,147.974l-0.093,0.04
	c-2.683,1.187-4.623,3.748-4.924,6.792h3.309C182.395,152.082,183.016,149.648,183.998,147.974L183.998,147.974z M187.273,147.305
	l-0.063,0.002c-1.54,0.085-3.071,3.301-3.253,7.499h6.631C190.404,150.552,188.834,147.305,187.273,147.305L187.273,147.305z
	 M190.548,147.974l0.061,0.106c0.947,1.67,1.544,4.059,1.647,6.726h3.309C195.259,151.727,193.279,149.143,190.548,147.974
	L190.548,147.974z M190.548,147.974"/>
</svg>
