<?xml version="1.0" encoding="utf-8"?>
<!-- Generator: Adobe Illustrator 15.0.0, SVG Export Plug-In  -->
<!DOCTYPE svg PUBLIC "-//W3C//DTD SVG 1.1//EN" "http://www.w3.org/Graphics/SVG/1.1/DTD/svg11.dtd" [
	<!ENTITY ns_flows "http://ns.adobe.com/Flows/1.0/">
]>
<svg version="1.1"
	 xmlns="http://www.w3.org/2000/svg" xmlns:xlink="http://www.w3.org/1999/xlink" xmlns:a="http://ns.adobe.com/AdobeSVGViewerExtensions/3.0/"
	 x="0px" y="0px" width="42px" height="42px" viewBox="199.273 177.639 42 42" enable-background="new 199.273 177.639 42 42"
	 xml:space="preserve">
<defs>
</defs>
<rect display="none" fill="#E0E0E0" width="2229.455" height="1311.244"/>
<rect x="199.273" y="177.639" display="none" fill="#C9C9C9" width="42" height="42"/>
<path fill="#FFFFFF" d="M209.429,215.4c-1.241,0-2.585-0.207-3.722-0.621c-2.584-0.93-3.928-2.791-4.032-5.169
	c-0.103-3.618,2.688-4.859,4.859-5.789c2.067-0.931,3.205-1.447,3.205-2.998c0-1.861-3.205-3.412-4.549-3.619
	c-0.517-0.207-0.827-0.724-0.827-1.24c0.104-0.517,0.62-0.931,1.137-0.827c1.861,0.311,6.306,2.274,6.306,5.686
	c0,2.998-2.481,4.032-4.445,4.859c-2.274,1.034-3.722,1.757-3.618,3.928c0,1.551,0.93,2.688,2.584,3.308
	c2.688,1.034,6.72,0.311,7.753-0.93c0.414-0.414,1.034-0.517,1.447-0.104s0.517,1.034,0.104,1.447
	C214.598,214.573,212.013,215.4,209.429,215.4L209.429,215.4z M209.429,215.4"/>
<path fill="#FFFFFF" d="M216.562,208.991c-0.207,0.207,0.104,0.724,0.517,1.034s0.931,0.414,1.137,0.207l4.342-3.308l-4.135-2.998
	L216.562,208.991z M236.515,183.249c-1.137-0.827-2.792-0.62-3.619,0.62l-13.336,18.402l4.135,2.998l13.439-18.401
	C237.962,185.73,237.652,184.076,236.515,183.249L236.515,183.249z M236.515,183.249"/>
</svg>
