<?xml version="1.0" encoding="utf-8"?>
<!-- Generator: Adobe Illustrator 15.0.0, SVG Export Plug-In  -->
<!DOCTYPE svg PUBLIC "-//W3C//DTD SVG 1.1//EN" "http://www.w3.org/Graphics/SVG/1.1/DTD/svg11.dtd" [
	<!ENTITY ns_flows "http://ns.adobe.com/Flows/1.0/">
]>
<svg version="1.1"
	 xmlns="http://www.w3.org/2000/svg" xmlns:xlink="http://www.w3.org/1999/xlink" xmlns:a="http://ns.adobe.com/AdobeSVGViewerExtensions/3.0/"
	 x="0px" y="0px" width="42px" height="42px" viewBox="0 0 42 42" enable-background="new 0 0 42 42" xml:space="preserve">
<defs>
</defs>
<rect display="none" fill="#C9C9C9" width="42" height="42"/>
<path fill="#FFFFFF" d="M13.434,33.619h-3.347c-0.317-0.773-0.933-1.384-1.706-1.702V10.082c0.792-0.305,1.4-0.973,1.706-1.703
	h21.727c0.488,1.155,1.644,1.947,2.922,1.947c1.765,0,3.164-1.4,3.164-3.164C37.899,5.398,36.5,4,34.736,4
	c-1.34,0-2.497,0.791-2.922,1.947H10.087c-0.5-1.175-1.649-1.938-2.925-1.945C5.398,4.002,4,5.401,4,7.164
	c0,1.338,0.791,2.493,1.947,2.919v21.834C4.762,32.4,3.99,33.557,4,34.836C4,36.602,5.4,38,7.166,38
	c1.339,0,2.494-0.792,2.921-1.948h3.347c0.671-0.003,1.213-0.545,1.216-1.216C14.647,34.165,14.105,33.621,13.434,33.619
	L13.434,33.619z M16.66,35.2c-0.121,0.426,0.304,0.851,0.729,0.733l5.052-1.4l-4.381-4.379L16.657,35.2H16.66z M35.344,15.07
	c-0.546-0.545-1.461-0.486-2.069,0.063l-2.13,2.126l4.262,4.259l2.13-2.129c0.609-0.609,0.609-1.521,0.06-2.068L35.344,15.07
	L35.344,15.07z M19.519,28.63l4.141,4.384l10.528-10.28l-4.26-4.26l-10.41,10.157h0.001V28.63z M19.519,28.63"/>
</svg>
