<?xml version="1.0" encoding="UTF-8"?>
<svg width="300px" height="400px" viewBox="0 0 300 400" version="1.1" xmlns="http://www.w3.org/2000/svg" xmlns:xlink="http://www.w3.org/1999/xlink">
    <title>机器人行走2</title>
    <defs>
        <rect id="path-1" x="0" y="0" width="88" height="93" rx="16"></rect>
        <rect id="path-3" x="0" y="0" width="88" height="93" rx="16"></rect>
    </defs>
    <g id="机器人行走2" stroke="none" stroke-width="1" fill="none" fill-rule="evenodd">
        <rect id="矩形" fill="#819E9B" x="120" y="156" width="61" height="8"></rect>
        <rect id="矩形" fill="#667B79" x="120" y="160" width="61" height="8"></rect>
        <g id="编组-3" transform="translate(183.349140, 178.401802)">
            <g id="手备份" transform="translate(41.499472, 33.765931) scale(-1, 1) rotate(53.000000) translate(-41.499472, -33.765931) translate(34.273800, -12.752103)">
                <path d="M7.73200849,2.47739048 C9.03027431,1.17912466 11.0561572,1.10010271 12.2569435,2.30088909 C12.6224447,2.66639026 12.8693714,3.10833666 12.9994317,3.5829398 C13.9259316,4.39811436 14.4674199,5.61518072 14.387924,6.92003764 C13.6464227,19.0932397 13.275672,31.9054697 13.275672,45.3567276 C13.275672,59.1457265 11.9553729,73.7854372 9.31477459,89.2758596 C8.99568756,91.1476894 7.37349891,92.5167499 5.47466676,92.5167499 C4.0314518,92.5167499 2.8614949,91.346793 2.8614949,89.903578 C2.8614949,89.7148068 2.88194951,89.5265913 2.92251528,89.3422303 C6.33225612,73.8399407 8.03712654,59.4426915 8.03712654,46.1504829 C8.03712654,33.6102889 7.95962238,20.6349052 7.80461407,7.22433188 C7.71771815,7.1553551 7.63481311,7.08163155 7.55550709,7.00232553 C7.39466186,6.8414803 7.21215372,6.68317319 7.02945128,6.52405748 L6.81148907,6.33251631 C6.20145117,5.78750292 5.6884379,5.21766693 6.11625104,4.49146894 C6.63953442,3.60321354 7.26847513,2.94092384 7.73200849,2.47739048 Z" id="形状结合" fill="#5C6C69"></path>
                <path d="M5.96684069,1.05642265 C7.47300256,-0.277940845 9.82329673,-0.359160565 11.2163697,0.875013331 C11.7071947,1.3098531 12.0137055,1.84996675 12.1389752,2.42555352 C13.0171902,3.33515758 13.4665903,4.6335367 13.2462877,5.97260467 C11.5111742,16.519979 10.6436175,28.518351 10.6436175,41.9677207 C10.6436175,56.3393184 9.36236983,72.1962246 6.79987458,89.5384394 C6.54964563,91.242879 5.2357338,92.5951432 3.53931475,92.8949617 L2.96096314,92.9971647 C1.5893124,93.2395551 0.280873511,92.3241088 0.0384830928,90.952458 C-0.00667604666,90.6969093 -0.0121241152,90.4359216 0.0223181462,90.1787092 C2.48662374,71.7825784 3.71877654,55.7122489 3.71877654,41.9677207 C3.71877654,29.2178858 4.29316132,17.0425081 5.44193089,5.44158736 C5.36297983,5.37874284 5.28198686,5.31607899 5.20067824,5.25333164 L4.96647218,5.07189402 C4.22998669,4.49551127 3.58030433,3.89653179 4.09234528,3.12650088 C4.69942389,2.21354792 5.42908005,1.53284434 5.96684069,1.05642265 Z" id="形状结合备份-2" fill="#819E9B"></path>
            </g>
            <g id="编组-2" transform="translate(81.501735, 60.959772) rotate(-40.000000) translate(-81.501735, -60.959772) translate(63.461442, 49.460658)">
                <path d="M18.1928282,-1.13686838e-13 C27.1011559,-1.15323271e-13 34.5140364,6.40277043 36.0805849,14.8574265 L26.3420874,17.0560158 C24.6322266,12.7892187 20.4583303,9.77572237 15.5805942,9.77572237 C9.18022894,9.77572237 3.99170772,14.9642436 3.99170772,21.3646089 L3.99170772,21.3646089 L3.991,22.103 L0.0293051654,22.9982289 C0.00985597836,22.6535836 4.28028748e-17,22.3063736 0,21.9568616 L0,18.1928282 C-1.23047876e-15,8.14520664 8.14520664,-1.1184112e-13 18.1928282,-1.13686838e-13 Z" id="形状结合" fill="#D8423B"></path>
                <path d="M13.2430563,2.73994268 C20.5569943,2.73994268 26.4861126,8.66906095 26.4861126,15.982999 L26.4871389,16.9693185 C25.1561686,12.880171 20.9841289,10.2896685 16.6274559,11.0578674 C11.8576076,11.8989204 8.67268971,16.4474546 9.51374266,21.2173029 L9.51374266,21.2173029 L9.798,22.8319427 L0.649920275,22.8322315 C0.228067721,21.5385915 -2.27198005e-13,20.1574006 -2.27373675e-13,18.7229417 L-2.27373675e-13,15.982999 C-2.28269375e-13,8.66906095 5.92911827,2.73994268 13.2430563,2.73994268 Z" id="形状结合" fill="#932323"></path>
            </g>
        </g>
        <g id="脚" transform="translate(126.749283, 290.437806) rotate(9.000000) translate(-126.749283, -290.437806) translate(98.365429, 215.937641)">
            <polygon id="矩形备份-4" fill="#5C6C69" points="10.8838544 0 18.8838544 0 18.8838544 144 10.8838544 144"></polygon>
            <polygon id="矩形" fill="#819E9B" points="14.8838544 0 22.8838544 0 22.8838544 144 14.8838544 144"></polygon>
            <path d="M28.3838544,129 C43.2507471,129 55.4589083,137.787173 56.7677088,149.00033 L-2.7797209e-14,149.00033 C1.30880054,137.787173 13.5169617,129 28.3838544,129 Z" id="形状结合" fill="#932323"></path>
            <path d="M31.5742874,129 C43.9129816,129 54.1311486,136.092882 55.9126733,145.344272 L7.23590163,145.344272 C9.01742627,136.092882 19.2355933,129 31.5742874,129 Z" id="形状结合备份" fill="#C33730"></path>
        </g>
        <g id="脚备份" transform="translate(196.878827, 285.500165) rotate(-15.000000) translate(-196.878827, -285.500165) translate(168.494972, 211.000000)">
            <polygon id="矩形备份-4" fill="#5C6C69" points="10.8838544 5.79536419e-14 18.8838544 5.79536419e-14 18.8838544 144 10.8838544 144"></polygon>
            <polygon id="矩形" fill="#819E9B" points="14.8838544 5.79536419e-14 22.8838544 5.79536419e-14 22.8838544 144 14.8838544 144"></polygon>
            <path d="M28.3838544,129 C43.2507471,129 55.4589083,137.787173 56.7677088,149.00033 L-2.7797209e-14,149.00033 C1.30880054,137.787173 13.5169617,129 28.3838544,129 Z" id="形状结合" fill="#932323"></path>
            <path d="M31.5742874,129 C43.9129816,129 54.1311486,136.092882 55.9126733,145.344272 L7.23590163,145.344272 C9.01742627,136.092882 19.2355933,129 31.5742874,129 Z" id="形状结合备份" fill="#C33730"></path>
        </g>
        <rect id="矩形备份-2" fill="#932323" x="63" y="161" width="123" height="100" rx="18"></rect>
        <rect id="矩形" fill="#C33730" x="99.7491373" y="161" width="123" height="100" rx="18"></rect>
        <path d="M166.044422,167.565106 C173.999831,167.565106 180.448964,174.014239 180.448964,181.969648 C180.448964,189.925056 173.999831,196.374189 166.044422,196.374189 C158.089014,196.374189 151.639881,189.925056 151.639881,181.969648 C151.639881,174.014239 158.089014,167.565106 166.044422,167.565106 Z M166.044422,169.666085 C159.249353,169.666085 153.74086,175.174578 153.74086,181.969648 C153.74086,188.764717 159.249353,194.27321 166.044422,194.27321 C172.839492,194.27321 178.347985,188.764717 178.347985,181.969648 C178.347985,175.174578 172.839492,169.666085 166.044422,169.666085 Z" id="形状结合" fill="#FFFFFF"></path>
        <polygon id="星形" fill="#FFFFFF" points="166.044422 186.698834 159.257976 191.31039 161.546699 183.431046 155.063722 178.401802 163.264677 178.143656 166.044422 170.423855 168.824168 178.143656 177.025123 178.401802 170.542146 183.431046 172.830869 191.31039"></polygon>
        <polygon id="三角形" fill="#D8D8D8" points="166.044422 170.423855 166.044422 181.514422 163.264677 178.143656"></polygon>
        <polygon id="三角形备份" fill="#D8D8D8" transform="translate(160.163849, 181.414445) rotate(-75.000000) translate(-160.163849, -181.414445) " points="161.753829 175.708371 161.589282 187.120519 158.573869 183.27211"></polygon>
        <polygon id="三角形备份-2" fill="#D8D8D8" transform="translate(171.534773, 179.958112) rotate(-315.000000) translate(-171.534773, -179.958112) " points="174.316559 174.97537 173.288615 183.115741 168.752986 184.940854"></polygon>
        <polygon id="三角形备份-3" fill="#D8D8D8" transform="translate(163.773657, 187.060457) rotate(-150.000000) translate(-163.773657, -187.060457) " points="165.559386 181.122068 164.580134 192.998847 161.987929 188.509015"></polygon>
        <polygon id="三角形备份-4" fill="#CBCBCB" transform="translate(168.315188, 187.060457) scale(-1, 1) rotate(-150.000000) translate(-168.315188, -187.060457) " points="170.100916 181.122068 169.121665 192.998847 166.529459 188.509015"></polygon>
        <g id="矩形" transform="translate(88.000000, 63.000000)">
            <mask id="mask-2" fill="white">
                <use xlink:href="#path-1"></use>
            </mask>
            <use id="蒙版" fill="#932323" xlink:href="#path-1"></use>
            <rect fill="#BFBEBE" mask="url(#mask-2)" x="-3" y="81" width="39" height="4"></rect>
        </g>
        <g id="矩形" transform="translate(118.000000, 63.000000)">
            <mask id="mask-4" fill="white">
                <use xlink:href="#path-3"></use>
            </mask>
            <use id="蒙版" fill="#C33730" xlink:href="#path-3"></use>
            <rect fill="#FFFFFF" mask="url(#mask-4)" x="0" y="81" width="101" height="4"></rect>
        </g>
        <rect id="矩形备份" fill="#5C6C69" x="147" y="49" width="4" height="14"></rect>
        <rect id="矩形备份-3" fill="#C33730" x="82" y="89" width="25" height="40" rx="10"></rect>
        <rect id="矩形" fill="#932323" x="80" y="89" width="17" height="40" rx="8.5"></rect>
        <rect id="矩形" fill="#819E9B" x="149" y="49" width="4" height="14"></rect>
        <circle id="椭圆形备份" fill="#932323" cx="149" cy="41.5" r="8.5"></circle>
        <circle id="椭圆形" fill="#C33730" cx="151.5" cy="41.5" r="8.11609508"></circle>
        <g id="手" transform="translate(61.000000, 180.382457)">
            <path d="M18.7628002,1.05642265 C20.2689621,-0.277940845 22.6192563,-0.359160565 24.0123292,0.875013331 C25.4054021,2.10918723 25.3137254,4.19139819 23.8075635,5.52576169 C23.7602922,5.56764107 23.7121894,5.60828605 23.6633108,5.64769472 L24.1328075,5.06886458 C13.9331069,17.5044506 8.83325664,30.7263494 8.83325664,44.7345611 C8.83325664,58.8771423 12.0560368,74.0045928 18.5015972,90.1169125 C19.0224439,91.4189831 18.3891688,92.8967632 17.0871095,93.4176381 C16.7871518,93.5376329 16.4670508,93.5992844 16.1439821,93.5992844 L15.1090083,93.5992844 C13.4376254,93.5991965 11.9424968,92.5599251 11.3609262,90.9929862 C5.05925254,74.0359349 1.90841571,58.6164599 1.90841571,44.7345611 C1.90841571,31.2488063 6.71078772,17.6177631 16.3155317,3.84143143 C16.4864742,3.59623978 16.6726815,3.36577282 16.8722534,3.15079776 L16.8883048,3.12650088 C17.4953834,2.21354792 18.2250396,1.53284434 18.7628002,1.05642265 Z" id="形状结合备份-2" fill="#5C6C69"></path>
            <path d="M20.527968,2.47739048 C21.8262338,1.17912466 23.8521167,1.10010271 25.0529031,2.30088909 C26.2536894,3.50167546 26.1746667,5.52755755 24.8764009,6.82582338 C24.8364945,6.86572976 24.7959007,6.90448415 24.7546644,6.9420848 C16.2303574,18.877484 11.9690027,31.5548968 11.9690027,44.9739324 C11.9690027,58.8322687 14.7867923,73.6625774 20.4223713,89.4648585 C20.8462131,90.6532395 20.2264038,91.960191 19.0380138,92.3840074 C18.7917008,92.4718501 18.5321342,92.5167499 18.2706263,92.5167499 L17.8763705,92.5167499 C16.1483668,92.5166719 14.615772,91.4069603 14.0768502,89.7651441 C8.6922834,73.3517816 6,58.4213777 6,44.9739324 C6,31.7662619 10.1944089,18.4153583 18.5832268,4.92122143 C18.7122401,4.71368769 18.8545762,4.51800935 19.0086212,4.3348648 C19.5108602,3.52394069 20.0924297,2.91292879 20.527968,2.47739048 Z" id="形状结合" fill="#819E9B"></path>
            <g id="编组" transform="translate(165.000000, 71.617543)"></g>
            <path d="M19.9195717,86.6175434 C29.6732511,86.6175434 37.7896017,93.6277811 39.5050278,102.884661 L29.0394904,105.248539 C27.3718288,100.625718 22.9459449,97.321113 17.7482289,97.321113 L17.7482289,97.321113 L16.3705743,97.321113 C9.74315733,97.321113 4.37057433,102.693696 4.37057433,109.321113 L4.37057433,109.321113 L4.37,110.820543 L0.0321961465,111.800552 C0.0108284459,111.422558 4.18330061e-16,111.041747 0,110.658406 L0,106.537115 C-1.3472677e-15,95.5358394 8.91829601,86.6175434 19.9195717,86.6175434 Z" id="形状结合" fill="#D8423B"></path>
            <path d="M14.5,89.6175434 C22.5081289,89.6175434 29,96.1094145 29,104.117543 L29.0001644,105.194532 C27.5418226,100.718971 22.974758,97.8840239 18.2056246,98.7249508 C12.9830537,99.645831 9.4958443,104.626082 10.4167245,109.848653 L10.4167245,109.848653 L10.728,111.617543 L0.711927845,111.617845 C0.249830255,110.201138 1.92388663e-16,108.688516 0,107.117543 L0,104.117543 C-9.80712939e-16,96.1094145 6.49187113,89.6175434 14.5,89.6175434 Z" id="形状结合" fill="#932323"></path>
        </g>
        <g id="眼睛" transform="translate(170.561266, 77.500000)">
            <ellipse id="椭圆形" fill="#FFFFFF" cx="12.4693672" cy="16" rx="12.4693672" ry="16"></ellipse>
            <ellipse id="椭圆形" fill="#3D3A39" cx="12.4693672" cy="16" rx="8.57268998" ry="11"></ellipse>
            <ellipse id="椭圆形" fill="#FFFFFF" cx="13.784376" cy="14" rx="3.89667726" ry="5"></ellipse>
        </g>
        <g id="眼睛" transform="translate(130.561266, 77.500000)">
            <ellipse id="椭圆形" fill="#FFFFFF" cx="12.4693672" cy="16" rx="12.4693672" ry="16"></ellipse>
            <ellipse id="椭圆形" fill="#3D3A39" cx="12.4693672" cy="16" rx="8.57268998" ry="11"></ellipse>
            <ellipse id="椭圆形" fill="#FFFFFF" cx="13.784376" cy="14" rx="3.89667726" ry="5"></ellipse>
        </g>
        <g id="上海建筑" transform="translate(141.000000, 114.600655)" fill="#FFFFFF">
            <path d="M12.9615477,28.9990798 C12.9615477,27.8864685 12.3079197,26.9241967 11.3645648,26.4751697 L11.3645648,14.3126113 L11.358591,14.3126113 C12.2745663,13.8680646 12.907784,12.9281943 12.907784,11.8424649 C12.907784,10.5929552 12.0669784,9.53659677 10.9220094,9.20804043 L10.2424951,0 L10.0936491,0 L9.41363705,9.20804043 C8.26866797,9.53659677 7.42836024,10.5929552 7.42836024,11.8424649 C7.42836024,12.9281943 8.06157791,13.8680646 8.97755318,14.3126113 L8.97108161,14.3126113 L8.97108161,26.4756675 C8.02772665,26.9246945 7.37459647,27.8869664 7.37459647,28.9995776 C7.37459647,29.7572485 7.67676874,30.4447277 8.16661638,30.9490119 L6.96838135,32.9223412 L7.09582139,33 L8.27563735,31.0560416 C8.7739478,31.5165183 9.43852768,31.7982803 10.1678232,31.7982803 C10.9289787,31.7982803 11.6199427,31.4911299 12.1242269,30.9948107 L13.2388294,32.9288128 L13.3682607,32.8541409 L12.2322522,30.8828028 C12.6852617,30.385488 12.9615477,29.723895 12.9615477,28.9990798 Z" id="路径" fill-rule="nonzero"></path>
            <path d="M0,19.17523 L1.4537497,19.17523 L3.20740685,21.5358576 L3.20740685,23.3897119 L5.71289787,23.5390557 L5.56355408,19.8432946 L7.18443204,19.8432946 L7.22748201,27.6540073 C7.73279431,28.2130945 7.68920109,29.0759609 7.13011385,29.5812731 C6.88581672,29.8020729 6.56991392,29.9270813 6.24067886,29.9332384 L0,30.0499472 L0,30.0499472 L0,19.17523 Z" id="矩形"></path>
            <polygon id="矩形" points="12.5747473 24 14.4453723 24 14.568487 28.6988837 15.8060492 28.6988837 15.8060492 15.7575652 18.3931046 16.3935152 18.6145736 18.9981335 19.9931513 20.2762106 20.2000182 28.6988837 22.2929929 26.2424117 23.5305023 27.701765 24.0887357 11.578722 25.0367778 9.86924027 26.1478956 9.86924027 26.6204254 24.5615628 27.4562528 23.0726052 29.6076935 23.0726052 29.6076935 24.8323729 32.1803892 24.9817167 33.0112385 30.0499472 12.5747473 30.0499472"></polygon>
            <rect id="矩形" x="31.5902145" y="20.5246274" width="3.60295137" height="10.8747172"></rect>
            <rect id="矩形备份-5" x="34.3916902" y="25.9613304" width="5" height="4.4"></rect>
            <rect id="矩形备份-6" x="37.3491399" y="27" width="5" height="4.39934451"></rect>
        </g>
    </g>
</svg>