<?xml version="1.0" encoding="UTF-8"?>
<svg width="332px" height="400px" viewBox="0 0 332 400" version="1.1" xmlns="http://www.w3.org/2000/svg" xmlns:xlink="http://www.w3.org/1999/xlink">
    <title>机器人行走3</title>
    <defs>
        <rect id="path-1" x="0" y="0" width="88" height="93" rx="16"></rect>
        <rect id="path-3" x="0" y="0" width="88" height="93" rx="16"></rect>
    </defs>
    <g id="机器人行走3" stroke="none" stroke-width="1" fill="none" fill-rule="evenodd">
        <rect id="矩形" fill="#819E9B" x="140" y="156" width="61" height="8"></rect>
        <rect id="矩形" fill="#667B79" x="140" y="160" width="61" height="8"></rect>
        <g id="编组-3" transform="translate(220.151887, 169.930754)">
            <g id="手备份" transform="translate(45.183575, 40.182215) scale(-1, 1) rotate(53.000000) translate(-45.183575, -40.182215) translate(27.410988, -3.001146)">
                <path d="M18.6313043,2.47739048 C19.9295702,1.17912466 21.955453,1.10010271 23.1562394,2.30088909 C23.1607841,2.30543383 23.1653105,2.30999039 23.1698186,2.31455869 C23.5448417,2.18679293 23.9432852,2.12941497 24.3433552,2.1473107 C27.9710759,2.30958417 31.1339286,4.66560055 32.3279209,8.09504263 C36.5310845,20.167465 36.6158494,32.0174425 32.5822158,43.6449751 C28.0790191,56.6260912 20.3016141,70.3437764 9.25000073,84.7980306 C8.49346761,85.7869196 7.31938566,86.3667143 6.07429781,86.3667208 L4.76936103,86.3667208 C3.9591244,86.3667208 3.30229783,85.7098942 3.30229783,84.8996576 C3.30229783,84.5439832 3.43150976,84.2004203 3.66585239,83.9328613 C16.2044648,69.6211927 24.0970708,56.4564824 27.3436703,44.4387303 C30.3504084,33.3088596 28.4912821,21.036775 21.7662914,7.62247657 C20.621915,8.06958859 19.3227956,7.87031821 18.4548029,7.00232553 C17.6827458,6.23026841 16.4115754,5.51668963 17.0155469,4.49146894 C17.5388303,3.60321354 18.167771,2.94092384 18.6313043,2.47739048 Z" id="形状结合" fill="#5C6C69"></path>
                <path d="M16.8661365,1.05642265 C18.3722984,-0.277940845 20.7225926,-0.359160565 22.1156655,0.875013331 C22.3639083,1.09494065 22.5650036,1.34179698 22.719349,1.60655187 L24.8484558,2.02522455 C33.1562858,13.5751434 34.9280928,26.8409438 30.1638767,41.8226258 C25.5491239,56.3343013 17.8889807,69.8082031 7.18344702,82.2443309 C6.5187916,83.0177859 5.58298133,83.5065768 4.56863468,83.6119208 L2.15330718,83.862718 C1.20502232,83.9611838 0.35646325,83.2722694 0.257997437,82.3239845 C0.212999801,81.8906303 0.333529647,81.4562886 0.595431587,81.1081104 C10.9992484,67.2750636 18.5471165,54.1799021 23.2390357,41.8226258 C27.584182,30.3786579 26.6181723,18.5699047 20.3410064,6.39636617 C19.0537968,6.78632081 17.6274215,6.5630303 16.6613709,5.70717102 C16.4891229,5.55457026 16.2954608,5.40419229 16.0999741,5.25333164 L15.865768,5.07189402 C15.1292825,4.49551127 14.4796002,3.89653179 14.9916411,3.12650088 C15.5987197,2.21354792 16.3283759,1.53284434 16.8661365,1.05642265 Z" id="形状结合备份-2" fill="#819E9B"></path>
            </g>
            <g id="编组-2" transform="translate(90.595657, 51.853638) rotate(-75.000000) translate(-90.595657, -51.853638) translate(72.555365, 39.184178)">
                <path d="M18.1928282,2.27373675e-13 C27.1011559,2.25737242e-13 34.5140364,6.40277043 36.0805849,14.8574265 L26.3420874,17.0560158 C24.6322266,12.7892187 20.4583303,9.77572237 15.5805942,9.77572237 C9.18022894,9.77572237 3.99170772,14.9642436 3.99170772,21.3646089 L3.99170772,21.3646089 L3.991,22.103 L0.0293051654,22.9982289 C0.00985597836,22.6535836 1.4215135e-13,22.3063736 1.42108547e-13,21.9568616 L1.42108547e-13,18.1928282 C1.40878068e-13,8.14520664 8.14520664,2.29219394e-13 18.1928282,2.27373675e-13 Z" id="形状结合" fill="#D8423B"></path>
                <path d="M13.2430563,2.73994268 C20.5569943,2.73994268 26.4861126,8.66906095 26.4861126,15.982999 L26.4871389,16.9693185 C25.1561686,12.880171 20.9841289,10.2896685 16.6274559,11.0578674 C11.8576076,11.8989204 8.67268971,16.4474546 9.51374266,21.2173029 L9.51374266,21.2173029 L9.908,23.4579427 L1.76847676,25.3389204 C0.64367491,23.3922978 2.87168306e-14,21.1327889 2.84217094e-14,18.7229417 L2.84217094e-14,15.982999 C2.75260103e-14,8.66906095 5.92911827,2.73994268 13.2430563,2.73994268 Z" id="形状结合" fill="#932323"></path>
            </g>
        </g>
        <g id="脚备份" transform="translate(180.371771, 291.617720) rotate(47.000000) translate(-180.371771, -291.617720) translate(151.987916, 217.117554)">
            <polygon id="矩形备份-4" fill="#5C6C69" points="10.8838544 5.79536419e-14 18.8838544 5.79536419e-14 18.8838544 144 10.8838544 144"></polygon>
            <polygon id="矩形" fill="#819E9B" points="14.8838544 5.79536419e-14 22.8838544 5.79536419e-14 22.8838544 144 14.8838544 144"></polygon>
            <path d="M28.3838544,129 C43.2507471,129 55.4589083,137.787173 56.7677088,149.00033 L-2.7797209e-14,149.00033 C1.30880054,137.787173 13.5169617,129 28.3838544,129 Z" id="形状结合" fill="#932323"></path>
            <path d="M31.5742874,129 C43.9129816,129 54.1311486,136.092882 55.9126733,145.344272 L7.23590163,145.344272 C9.01742627,136.092882 19.2355933,129 31.5742874,129 Z" id="形状结合备份" fill="#C33730"></path>
        </g>
        <g id="脚" transform="translate(190.550354, 284.717903) rotate(-39.000000) translate(-190.550354, -284.717903) translate(162.166499, 210.217738)">
            <polygon id="矩形备份-4" fill="#5C6C69" points="10.8838544 0 18.8838544 0 18.8838544 144 10.8838544 144"></polygon>
            <polygon id="矩形" fill="#819E9B" points="14.8838544 0 22.8838544 0 22.8838544 144 14.8838544 144"></polygon>
            <path d="M28.3838544,129 C43.2507471,129 55.4589083,137.787173 56.7677088,149.00033 L-2.7797209e-14,149.00033 C1.30880054,137.787173 13.5169617,129 28.3838544,129 Z" id="形状结合" fill="#932323"></path>
            <path d="M31.5742874,129 C43.9129816,129 54.1311486,136.092882 55.9126733,145.344272 L7.23590163,145.344272 C9.01742627,136.092882 19.2355933,129 31.5742874,129 Z" id="形状结合备份" fill="#C33730"></path>
        </g>
        <rect id="矩形备份-2" fill="#932323" x="83" y="161" width="123" height="100" rx="18"></rect>
        <rect id="矩形" fill="#C33730" x="119.749137" y="161" width="123" height="100" rx="18"></rect>
        <path d="M186.044422,167.565106 C193.999831,167.565106 200.448964,174.014239 200.448964,181.969648 C200.448964,189.925056 193.999831,196.374189 186.044422,196.374189 C178.089014,196.374189 171.639881,189.925056 171.639881,181.969648 C171.639881,174.014239 178.089014,167.565106 186.044422,167.565106 Z M186.044422,169.666085 C179.249353,169.666085 173.74086,175.174578 173.74086,181.969648 C173.74086,188.764717 179.249353,194.27321 186.044422,194.27321 C192.839492,194.27321 198.347985,188.764717 198.347985,181.969648 C198.347985,175.174578 192.839492,169.666085 186.044422,169.666085 Z" id="形状结合" fill="#FFFFFF"></path>
        <polygon id="星形" fill="#FFFFFF" points="186.044422 186.698834 179.257976 191.31039 181.546699 183.431046 175.063722 178.401802 183.264677 178.143656 186.044422 170.423855 188.824168 178.143656 197.025123 178.401802 190.542146 183.431046 192.830869 191.31039"></polygon>
        <polygon id="三角形" fill="#D8D8D8" points="186.044422 170.423855 186.044422 181.514422 183.264677 178.143656"></polygon>
        <polygon id="三角形备份" fill="#D8D8D8" transform="translate(180.163849, 181.414445) rotate(-75.000000) translate(-180.163849, -181.414445) " points="181.753829 175.708371 181.589282 187.120519 178.573869 183.27211"></polygon>
        <polygon id="三角形备份-2" fill="#D8D8D8" transform="translate(191.534773, 179.958112) rotate(-315.000000) translate(-191.534773, -179.958112) " points="194.316559 174.97537 193.288615 183.115741 188.752986 184.940854"></polygon>
        <polygon id="三角形备份-3" fill="#D8D8D8" transform="translate(183.773657, 187.060457) rotate(-150.000000) translate(-183.773657, -187.060457) " points="185.559386 181.122068 184.580134 192.998847 181.987929 188.509015"></polygon>
        <polygon id="三角形备份-4" fill="#CBCBCB" transform="translate(188.315188, 187.060457) scale(-1, 1) rotate(-150.000000) translate(-188.315188, -187.060457) " points="190.100916 181.122068 189.121665 192.998847 186.529459 188.509015"></polygon>
        <g id="矩形" transform="translate(108.000000, 63.000000)">
            <mask id="mask-2" fill="white">
                <use xlink:href="#path-1"></use>
            </mask>
            <use id="蒙版" fill="#932323" xlink:href="#path-1"></use>
            <rect fill="#BFBEBE" mask="url(#mask-2)" x="-3" y="81" width="39" height="4"></rect>
        </g>
        <g id="矩形" transform="translate(138.000000, 63.000000)">
            <mask id="mask-4" fill="white">
                <use xlink:href="#path-3"></use>
            </mask>
            <use id="蒙版" fill="#C33730" xlink:href="#path-3"></use>
            <rect fill="#FFFFFF" mask="url(#mask-4)" x="0" y="81" width="101" height="4"></rect>
        </g>
        <rect id="矩形备份" fill="#5C6C69" x="167" y="49" width="4" height="14"></rect>
        <rect id="矩形备份-3" fill="#C33730" x="102" y="89" width="25" height="40" rx="10"></rect>
        <rect id="矩形" fill="#932323" x="100" y="89" width="17" height="40" rx="8.5"></rect>
        <rect id="矩形" fill="#819E9B" x="169" y="49" width="4" height="14"></rect>
        <circle id="椭圆形备份" fill="#932323" cx="169" cy="41.5" r="8.5"></circle>
        <circle id="椭圆形" fill="#C33730" cx="171.5" cy="41.5" r="8.11609508"></circle>
        <g id="手" transform="translate(65.806643, 213.349460) rotate(45.000000) translate(-65.806643, -213.349460) translate(53.808728, 166.549818)">
            <path d="M18.6195523,2.47739048 C19.9178181,1.17912466 21.943701,1.10010271 23.1444874,2.30088909 C24.3452737,3.50167546 24.266251,5.52755755 22.9679852,6.82582338 C22.9280788,6.86572976 22.887485,6.90448415 22.8462487,6.9420848 C14.3219417,18.877484 10.060587,31.5548968 10.060587,44.9739324 C10.060587,58.8322687 12.8783766,73.6625774 18.5139556,89.4648585 C18.9377974,90.6532395 18.317988,91.960191 17.129598,92.3840074 C16.8832851,92.4718501 16.6237185,92.5167499 16.3622106,92.5167499 L15.9679548,92.5167499 C14.2399511,92.5166719 12.7073563,91.4069603 12.1684345,89.7651441 C6.78386769,73.3517816 4.09158429,58.4213777 4.09158429,44.9739324 C4.09158429,31.7662619 8.28599322,18.4153583 16.6748111,4.92122143 C16.8038244,4.71368769 16.9461605,4.51800935 17.1002055,4.3348648 C17.6024445,3.52394069 18.184014,2.91292879 18.6195523,2.47739048 Z" id="形状结合" fill="#5C6C69"></path>
            <path d="M16.8543845,1.05642265 C18.3605464,-0.277940845 20.7108405,-0.359160565 22.1039135,0.875013331 C23.4969864,2.10918723 23.4053097,4.19139819 21.8991478,5.52576169 C21.8518765,5.56764107 21.8037737,5.60828605 21.7548951,5.64769472 L22.2243918,5.06886458 C12.0246912,17.5044506 6.92484092,30.7263494 6.92484092,44.7345611 C6.92484092,58.8771423 10.1476211,74.0045928 16.5931815,90.1169125 C17.1140282,91.4189831 16.4807531,92.8967632 15.1786938,93.4176381 C14.878736,93.5376329 14.5586351,93.5992844 14.2355664,93.5992844 L13.2005926,93.5992844 C11.5292097,93.5991965 10.0340811,92.5599251 9.45251048,90.9929862 C3.15083683,74.0359349 -2.27373675e-13,58.6164599 -2.27373675e-13,44.7345611 C-2.27373675e-13,31.2488063 4.80237201,17.6177631 14.407116,3.84143143 C14.5780585,3.59623978 14.7642657,3.36577282 14.9638376,3.15079776 L14.9798891,3.12650088 C15.5869677,2.21354792 16.3166239,1.53284434 16.8543845,1.05642265 Z" id="形状结合备份-2" fill="#819E9B"></path>
        </g>
        <g id="编组" transform="translate(34.658028, 252.119658) rotate(46.000000) translate(-34.658028, -252.119658) translate(16.792987, 241.160886)">
            <path d="M33.4853484,9.91256624 L32.2065398,10.2540271 C28.0232687,7.68364379 22.8579886,6.72984924 17.738045,7.98578173 L17.3393887,8.08807832 L12.8796568,9.28305987 C7.62971667,10.6897771 3.48530055,14.1629209 1.08702625,18.5929088 L0.0449946234,18.8725382 C-0.546427248,10.6123256 4.77438157,2.82800962 13.0704906,0.605073911 C21.3668907,-1.61793981 29.8673098,2.46343565 33.4853484,9.91256624 Z" id="形状结合" fill="#932323"></path>
            <path d="M35.7300834,13.0095902 L29.8236611,14.4808496 C26.9937018,9.71038416 21.2426996,7.19743618 15.6217603,8.70356232 C10.1505051,10.1695807 6.47646655,14.9949258 6.2241863,20.3658087 L9.38658873e-14,21.9175428 C0.0475224556,13.5699661 5.63464252,5.94817158 14.0876267,3.68320129 C22.7641785,1.35832624 31.647763,5.43096972 35.7300834,13.0095902 Z" id="形状结合" fill="#D8423B"></path>
        </g>
        <g id="眼睛" transform="translate(190.561266, 77.500000)">
            <ellipse id="椭圆形" fill="#FFFFFF" cx="12.4693672" cy="16" rx="12.4693672" ry="16"></ellipse>
            <ellipse id="椭圆形" fill="#3D3A39" cx="12.4693672" cy="16" rx="8.57268998" ry="11"></ellipse>
            <ellipse id="椭圆形" fill="#FFFFFF" cx="13.784376" cy="14" rx="3.89667726" ry="5"></ellipse>
        </g>
        <g id="眼睛" transform="translate(150.561266, 77.500000)">
            <ellipse id="椭圆形" fill="#FFFFFF" cx="12.4693672" cy="16" rx="12.4693672" ry="16"></ellipse>
            <ellipse id="椭圆形" fill="#3D3A39" cx="12.4693672" cy="16" rx="8.57268998" ry="11"></ellipse>
            <ellipse id="椭圆形" fill="#FFFFFF" cx="13.784376" cy="14" rx="3.89667726" ry="5"></ellipse>
        </g>
        <g id="上海建筑" transform="translate(161.000000, 114.600655)" fill="#FFFFFF">
            <path d="M12.9615477,28.9990798 C12.9615477,27.8864685 12.3079197,26.9241967 11.3645648,26.4751697 L11.3645648,14.3126113 L11.358591,14.3126113 C12.2745663,13.8680646 12.907784,12.9281943 12.907784,11.8424649 C12.907784,10.5929552 12.0669784,9.53659677 10.9220094,9.20804043 L10.2424951,0 L10.0936491,0 L9.41363705,9.20804043 C8.26866797,9.53659677 7.42836024,10.5929552 7.42836024,11.8424649 C7.42836024,12.9281943 8.06157791,13.8680646 8.97755318,14.3126113 L8.97108161,14.3126113 L8.97108161,26.4756675 C8.02772665,26.9246945 7.37459647,27.8869664 7.37459647,28.9995776 C7.37459647,29.7572485 7.67676874,30.4447277 8.16661638,30.9490119 L6.96838135,32.9223412 L7.09582139,33 L8.27563735,31.0560416 C8.7739478,31.5165183 9.43852768,31.7982803 10.1678232,31.7982803 C10.9289787,31.7982803 11.6199427,31.4911299 12.1242269,30.9948107 L13.2388294,32.9288128 L13.3682607,32.8541409 L12.2322522,30.8828028 C12.6852617,30.385488 12.9615477,29.723895 12.9615477,28.9990798 Z" id="路径" fill-rule="nonzero"></path>
            <path d="M0,19.17523 L1.4537497,19.17523 L3.20740685,21.5358576 L3.20740685,23.3897119 L5.71289787,23.5390557 L5.56355408,19.8432946 L7.18443204,19.8432946 L7.22748201,27.6540073 C7.73279431,28.2130945 7.68920109,29.0759609 7.13011385,29.5812731 C6.88581672,29.8020729 6.56991392,29.9270813 6.24067886,29.9332384 L0,30.0499472 L0,30.0499472 L0,19.17523 Z" id="矩形"></path>
            <polygon id="矩形" points="12.5747473 24 14.4453723 24 14.568487 28.6988837 15.8060492 28.6988837 15.8060492 15.7575652 18.3931046 16.3935152 18.6145736 18.9981335 19.9931513 20.2762106 20.2000182 28.6988837 22.2929929 26.2424117 23.5305023 27.701765 24.0887357 11.578722 25.0367778 9.86924027 26.1478956 9.86924027 26.6204254 24.5615628 27.4562528 23.0726052 29.6076935 23.0726052 29.6076935 24.8323729 32.1803892 24.9817167 33.0112385 30.0499472 12.5747473 30.0499472"></polygon>
            <rect id="矩形" x="31.5902145" y="20.5246274" width="3.60295137" height="10.8747172"></rect>
            <rect id="矩形备份-5" x="34.3916902" y="25.9613304" width="5" height="4.4"></rect>
            <rect id="矩形备份-6" x="37.3491399" y="27" width="5" height="4.39934451"></rect>
        </g>
    </g>
</svg>