<?xml version="1.0" encoding="UTF-8"?>
<svg id="_图层_1" data-name="图层 1" xmlns="http://www.w3.org/2000/svg" xmlns:xlink="http://www.w3.org/1999/xlink" viewBox="0 0 311.81 340.16">
  <defs>
    <style>
      .cls-1 {
        fill: none;
      }

      .cls-2 {
        clip-path: url(#clippath);
      }

      .cls-3, .cls-4 {
        fill: #fff;
      }

      .cls-5, .cls-6 {
        fill: #932323;
      }

      .cls-7, .cls-8 {
        fill: #819e9b;
      }

      .cls-9, .cls-10 {
        fill: #c33730;
      }

      .cls-11 {
        fill: #667b79;
      }

      .cls-12 {
        fill: #d1d1d1;
      }

      .cls-13, .cls-14 {
        fill: #5c6c69;
      }

      .cls-15 {
        fill: #3d3a39;
      }

      .cls-16 {
        clip-path: url(#clippath-1);
      }

      .cls-14, .cls-17, .cls-18, .cls-19, .cls-6, .cls-8, .cls-10, .cls-4 {
        fill-rule: evenodd;
      }

      .cls-17 {
        fill: #d8423b;
      }

      .cls-18 {
        fill: #cbcbcb;
      }

      .cls-19 {
        fill: #d8d8d8;
      }
    </style>
    <clipPath id="clippath">
      <rect id="path-1-2" data-name="path-1" class="cls-1" x="93.91" y="33.08" width="88" height="93" rx="16" ry="16"/>
    </clipPath>
    <clipPath id="clippath-1">
      <rect id="path-3-2" data-name="path-3" class="cls-1" x="123.91" y="33.08" width="88" height="93" rx="16" ry="16"/>
    </clipPath>
  </defs>
  <g id="_机器人行走1" data-name="机器人行走1">
    <rect id="_矩形" data-name="矩形" class="cls-7" x="125.91" y="126.08" width="61" height="8"/>
    <rect id="_矩形-2" data-name="矩形" class="cls-11" x="125.91" y="130.08" width="61" height="8"/>
    <g id="_手备份" data-name="手备份">
      <path id="_形状结合备份-2" data-name="形状结合备份-2" class="cls-14" d="M191.82,149.52c.93-1.79,3.09-2.7,4.84-2.05,1.74,.65,2.4,2.63,1.48,4.42-.03,.06-.06,.11-.09,.17l.23-.71c-5.07,15.26-5.09,29.44-.07,42.51,5.07,13.2,13.5,26.17,25.29,38.9,.95,1.03,.89,2.64-.14,3.59-.24,.22-.51,.39-.82,.51l-.97,.37c-1.56,.6-3.33,.16-4.43-1.09-11.96-13.57-20.43-26.84-25.4-39.8s-5.23-27.04-1.2-43.34c.07-.29,.16-.57,.27-.84v-.03c.25-1.07,.68-1.97,1.01-2.6Z"/>
      <path id="_形状结合" data-name="形状结合" class="cls-8" d="M193.98,150.21c.75-1.68,2.61-2.48,4.16-1.79,1.55,.69,2.2,2.61,1.46,4.29-.02,.05-.05,.1-.07,.15-3.68,14.2-3.12,27.56,1.69,40.09,4.97,12.94,12.91,25.77,23.84,38.51,.82,.96,.71,2.4-.25,3.22-.2,.17-.42,.31-.67,.4l-.37,.14c-1.61,.62-3.44,.13-4.53-1.21-10.91-13.39-18.77-26.37-23.59-38.92-4.73-12.33-5.6-26.3-2.61-41.9,.05-.24,.11-.47,.19-.7,.18-.94,.5-1.72,.75-2.28Z"/>
      <path id="_形状结合-2" data-name="形状结合" class="cls-17" d="M223.56,228.98c9.11-3.5,19.2,.14,24.11,8.17l-8.92,5.96c-3.21-3.72-8.53-5.22-13.38-3.35h0l-1.29,.49c-6.19,2.38-9.28,9.32-6.9,15.5h0l.54,1.4-3.7,2.47c-.16-.35-.3-.7-.44-1.05l-1.48-3.85c-3.94-10.27,1.19-21.79,11.46-25.74Z"/>
      <path id="_形状结合-3" data-name="形状结合" class="cls-6" d="M219.58,233.72c7.48-2.87,15.86,.86,18.73,8.34l.39,1.01c-2.97-3.66-8.25-4.67-12.4-2.17-4.55,2.73-6.02,8.63-3.29,13.18h0l.92,1.54-9.35,3.59c-.94-1.16-1.71-2.48-2.28-3.95l-1.08-2.8c-2.87-7.48,.86-15.86,8.34-18.73Z"/>
    </g>
    <g id="_脚" data-name="脚">
      <polygon id="_矩形备份-4" data-name="矩形备份-4" class="cls-14" points="168.66 181.04 174.31 186.69 65.42 295.59 59.76 289.93 168.66 181.04"/>
      <polygon id="_矩形-3" data-name="矩形" class="cls-8" points="171.48 183.87 177.14 189.52 68.25 298.42 62.59 292.76 171.48 183.87"/>
      <path id="_形状结合-4" data-name="形状结合" class="cls-6" d="M82.74,291.7c10.51,10.51,12.93,25.36,5.93,34.21l-40.14-40.14c8.85-7,23.7-4.58,34.21,5.93Z"/>
      <path id="_形状结合备份" data-name="形状结合备份" class="cls-10" d="M85,293.96c8.72,8.72,10.93,20.97,5.65,28.77l-34.42-34.42c7.8-5.28,20.04-3.07,28.77,5.65Z"/>
    </g>
    <g id="_脚备份" data-name="脚备份">
      <polygon id="_矩形备份-4-2" data-name="矩形备份-4" class="cls-14" points="164.6 208.24 170.73 203.1 256.86 305.75 250.74 310.89 164.6 208.24"/>
      <polygon id="_矩形-4" data-name="矩形" class="cls-8" points="167.67 205.67 173.79 200.53 259.93 303.18 253.8 308.32 167.67 205.67"/>
      <path id="_形状结合-5" data-name="形状结合" class="cls-6" d="M254.5,288.15c11.39-9.56,26.39-10.67,34.6-2.92l-43.49,36.49c-6.21-9.43-2.5-24.01,8.89-33.57Z"/>
      <path id="_形状结合备份-2" data-name="形状结合备份" class="cls-10" d="M256.94,286.1c9.45-7.93,21.84-9.07,29.15-3.12l-37.29,31.29c-4.58-8.23-1.31-20.23,8.14-28.16Z"/>
    </g>
    <rect id="_矩形备份-2" data-name="矩形备份-2" class="cls-5" x="68.91" y="131.08" width="123" height="100" rx="18" ry="18"/>
    <rect id="_矩形-5" data-name="矩形" class="cls-9" x="105.65" y="131.08" width="123" height="100" rx="18" ry="18"/>
    <path id="_形状结合-6" data-name="形状结合" class="cls-4" d="M171.95,137.64c7.96,0,14.4,6.45,14.4,14.4s-6.45,14.4-14.4,14.4-14.4-6.45-14.4-14.4,6.45-14.4,14.4-14.4Zm0,2.1c-6.8,0-12.3,5.51-12.3,12.3s5.51,12.3,12.3,12.3,12.3-5.51,12.3-12.3-5.51-12.3-12.3-12.3Z"/>
    <polygon id="_星形" data-name="星形" class="cls-4" points="171.95 156.78 165.16 161.39 167.45 153.51 160.97 148.48 169.17 148.22 171.95 140.5 174.73 148.22 182.93 148.48 176.45 153.51 178.74 161.39 171.95 156.78"/>
    <polygon id="_三角形" data-name="三角形" class="cls-19" points="171.95 140.5 171.95 151.59 169.17 148.22 171.95 140.5"/>
    <polygon id="_三角形备份" data-name="三角形备份" class="cls-19" points="160.97 148.48 171.95 151.59 167.45 153.51 160.97 148.48"/>
    <polygon id="_三角形备份-2" data-name="三角形备份-2" class="cls-19" points="182.93 148.48 176.45 153.51 171.95 151.59 182.93 148.48"/>
    <polygon id="_三角形备份-3" data-name="三角形备份-3" class="cls-19" points="165.16 161.39 171.95 151.59 171.95 156.78 165.16 161.39"/>
    <polygon id="_三角形备份-4" data-name="三角形备份-4" class="cls-18" points="178.74 161.39 171.95 151.59 171.95 156.78 178.74 161.39"/>
    <g id="_矩形-6" data-name="矩形">
      <g id="_蒙版" data-name="蒙版">
        <rect id="path-1" class="cls-5" x="93.91" y="33.08" width="88" height="93" rx="16" ry="16"/>
      </g>
      <g class="cls-2">
        <rect class="cls-12" x="91.34" y="114.21" width="39.04" height="4"/>
      </g>
    </g>
    <g id="_矩形-7" data-name="矩形">
      <g id="_蒙版-2" data-name="蒙版">
        <rect id="path-3" class="cls-9" x="123.91" y="33.08" width="88" height="93" rx="16" ry="16"/>
      </g>
      <g class="cls-16">
        <rect class="cls-3" x="121.19" y="114.08" width="91.92" height="4"/>
      </g>
    </g>
    <rect id="_矩形备份" data-name="矩形备份" class="cls-13" x="152.91" y="19.08" width="4" height="14"/>
    <rect id="_矩形备份-3" data-name="矩形备份-3" class="cls-9" x="87.91" y="59.08" width="25" height="40" rx="10" ry="10"/>
    <path id="_矩形-8" data-name="矩形" class="cls-6" d="M94.41,59.08h0c4.69,0,8.5,3.81,8.5,8.5v23c0,4.69-3.81,8.5-8.5,8.5h0c-4.69,0-8.5-3.81-8.5-8.5v-23c0-4.69,3.81-8.5,8.5-8.5Z"/>
    <rect id="_矩形-9" data-name="矩形" class="cls-7" x="154.91" y="19.08" width="4" height="14"/>
    <circle id="_椭圆形备份" data-name="椭圆形备份" class="cls-5" cx="154.91" cy="11.58" r="8.5"/>
    <circle id="_椭圆形" data-name="椭圆形" class="cls-9" cx="157.41" cy="11.58" r="8.12"/>
    <g id="_手" data-name="手">
      <path id="_形状结合-7" data-name="形状结合" class="cls-14" d="M88,160.55c-.92-1.59-.47-3.57,1-4.42s3.41-.25,4.33,1.34c.15,.26,.26,.53,.34,.8,9.02,11.7,20.08,18.88,33.17,21.54,13.83,2.81,29.02,4.25,45.55,4.32,1.09,0,1.97,.89,1.97,1.99,0,.18-.03,.37-.08,.54-.44,1.53-1.8,2.61-3.39,2.69-17.35,.98-32.55-.28-45.6-3.78-12.76-3.42-24.57-10.93-35.43-22.52-.17-.18-.32-.37-.46-.56-.65-.7-1.09-1.41-1.4-1.95Z"/>
      <path id="_形状结合备份-2-2" data-name="形状结合备份-2" class="cls-8" d="M86.17,161.89c-.9-1.8-.37-4.09,1.18-5.12,1.55-1.03,3.54-.4,4.44,1.4,.18,.37,.31,.76,.38,1.16,8.64,13,19.84,20.82,33.62,23.45,14.54,2.78,30.22,3.95,47.04,3.5,1.18-.03,2.16,.9,2.19,2.08,0,.26-.03,.51-.12,.75l-.08,.22c-.56,1.62-2.09,2.71-3.8,2.7-17.23-.08-32.91-.94-47.03-2.55-13.83-1.58-25.85-9.66-36.06-24.24-.41-.59-.73-1.23-.94-1.9-.35-.53-.62-1.04-.82-1.45Z"/>
      <path id="_形状结合-8" data-name="形状结合" class="cls-6" d="M181.33,173.05v2.24c-3.24,3.33-5.27,7.85-5.38,12.84v.41s0,.6,0,.6c0,5.15,2.05,9.83,5.38,13.25v2.02c-7.36-1.42-12.93-7.9-12.93-15.68,0-7.78,5.56-14.26,12.93-15.68Z"/>
      <path id="_形状结合-9" data-name="形状结合" class="cls-17" d="M184.3,171.9v3.13c-3.24,3.34-5.27,7.86-5.38,12.85v.39s0,.6,0,.6c0,5.15,2.05,9.82,5.38,13.25v3.13c-7.43-1.9-12.93-8.65-12.93-16.67,0-8.03,5.49-14.77,12.93-16.67Z"/>
    </g>
    <g id="_眼睛" data-name="眼睛">
      <ellipse id="_椭圆形-2" data-name="椭圆形" class="cls-3" cx="188.94" cy="63.58" rx="12.47" ry="16"/>
      <ellipse id="_椭圆形-3" data-name="椭圆形" class="cls-15" cx="188.94" cy="63.58" rx="8.57" ry="11"/>
      <ellipse id="_椭圆形-4" data-name="椭圆形" class="cls-3" cx="190.25" cy="61.58" rx="3.9" ry="5"/>
    </g>
    <g id="_眼睛-2" data-name="眼睛">
      <ellipse id="_椭圆形-5" data-name="椭圆形" class="cls-3" cx="148.94" cy="63.58" rx="12.47" ry="16"/>
      <ellipse id="_椭圆形-6" data-name="椭圆形" class="cls-15" cx="148.94" cy="63.58" rx="8.57" ry="11"/>
      <ellipse id="_椭圆形-7" data-name="椭圆形" class="cls-3" cx="150.25" cy="61.58" rx="3.9" ry="5"/>
    </g>
    <g id="_上海建筑" data-name="上海建筑">
      <path id="_路径" data-name="路径" class="cls-3" d="M159.87,113.68c0-1.11-.65-2.07-1.6-2.52v-12.16h0c.92-.44,1.55-1.38,1.55-2.47,0-1.25-.84-2.31-1.99-2.63l-.68-9.21h-.15l-.68,9.21c-1.14,.33-1.99,1.38-1.99,2.63,0,1.09,.63,2.03,1.55,2.47h0v12.16c-.94,.45-1.6,1.41-1.6,2.52,0,.76,.3,1.45,.79,1.95l-1.2,1.97,.13,.08,1.18-1.94c.5,.46,1.16,.74,1.89,.74s1.45-.31,1.96-.8l1.11,1.93,.13-.07-1.14-1.97c.45-.5,.73-1.16,.73-1.88Z"/>
      <path id="_矩形-10" data-name="矩形" class="cls-4" d="M146.91,103.85h1.45l1.75,2.36v1.85l2.51,.15-.15-3.7h1.62l.04,7.81c.51,.56,.46,1.42-.1,1.93-.24,.22-.56,.35-.89,.35l-6.24,.12h0v-10.87Z"/>
      <polygon id="_矩形-11" data-name="矩形" class="cls-4" points="159.48 108.68 161.35 108.68 161.47 113.38 162.71 113.38 162.71 100.44 165.3 101.07 165.52 103.68 166.9 104.96 167.11 113.38 169.2 110.92 170.44 112.38 170.99 96.26 171.94 94.55 173.05 94.55 173.53 109.24 174.36 107.75 176.51 107.75 176.51 109.51 179.09 109.66 179.92 114.73 159.48 114.73 159.48 108.68"/>
      <rect id="_矩形-12" data-name="矩形" class="cls-3" x="178.5" y="105.2" width="3.6" height="10.87"/>
      <rect id="_矩形备份-5" data-name="矩形备份-5" class="cls-3" x="181.3" y="110.64" width="5" height="4.4"/>
      <rect id="_矩形备份-6" data-name="矩形备份-6" class="cls-3" x="184.25" y="111.68" width="5" height="4.4"/>
    </g>
  </g>
</svg>