<?xml version="1.0" encoding="UTF-8"?>
<svg width="300px" height="400px" viewBox="0 0 300 400" version="1.1" xmlns="http://www.w3.org/2000/svg" xmlns:xlink="http://www.w3.org/1999/xlink">
    <title>机器人正面</title>
    <defs>
        <rect id="path-1" x="0" y="0" width="88" height="93" rx="16"></rect>
        <rect id="path-3" x="0" y="0" width="88" height="93" rx="16"></rect>
    </defs>
    <g id="机器人正面" stroke="none" stroke-width="1" fill="none" fill-rule="evenodd">
        <rect id="矩形" fill="#819E9B" x="120" y="156" width="61" height="8"></rect>
        <rect id="矩形" fill="#667B79" x="120" y="160" width="61" height="8"></rect>
        <g id="手备份" transform="translate(215.252514, 234.422816) scale(-1, 1) translate(-215.252514, -234.422816) translate(195.500000, 178.522540)">
            <path d="M18.7628002,1.05642265 C20.2689621,-0.277940845 22.6192563,-0.359160565 24.0123292,0.875013331 C25.4054021,2.10918723 25.3137254,4.19139819 23.8075635,5.52576169 C23.7602922,5.56764107 23.7121894,5.60828605 23.6633108,5.64769472 L24.1328075,5.06886458 C13.9331069,17.5044506 8.83325664,30.7263494 8.83325664,44.7345611 C8.83325664,58.8771423 12.0560368,74.0045928 18.5015972,90.1169125 C19.0224439,91.4189831 18.3891688,92.8967632 17.0871095,93.4176381 C16.7871518,93.5376329 16.4670508,93.5992844 16.1439821,93.5992844 L15.1090083,93.5992844 C13.4376254,93.5991965 11.9424968,92.5599251 11.3609262,90.9929862 C5.05925254,74.0359349 1.90841571,58.6164599 1.90841571,44.7345611 C1.90841571,31.2488063 6.71078772,17.6177631 16.3155317,3.84143143 C16.4864742,3.59623978 16.6726815,3.36577282 16.8722534,3.15079776 L16.8883048,3.12650088 C17.4953834,2.21354792 18.2250396,1.53284434 18.7628002,1.05642265 Z" id="形状结合备份-2" fill="#5C6C69"></path>
            <path d="M20.527968,2.47739048 C21.8262338,1.17912466 23.8521167,1.10010271 25.0529031,2.30088909 C26.2536894,3.50167546 26.1746667,5.52755755 24.8764009,6.82582338 C24.8364945,6.86572976 24.7959007,6.90448415 24.7546644,6.9420848 C16.2303574,18.877484 11.9690027,31.5548968 11.9690027,44.9739324 C11.9690027,58.8322687 14.7867923,73.6625774 20.4223713,89.4648585 C20.8462131,90.6532395 20.2264038,91.960191 19.0380138,92.3840074 C18.7917008,92.4718501 18.5321342,92.5167499 18.2706263,92.5167499 L17.8763705,92.5167499 C16.1483668,92.5166719 14.615772,91.4069603 14.0768502,89.7651441 C8.6922834,73.3517816 6,58.4213777 6,44.9739324 C6,31.7662619 10.1944089,18.4153583 18.5832268,4.92122143 C18.7122401,4.71368769 18.8545762,4.51800935 19.0086212,4.3348648 C19.5108602,3.52394069 20.0924297,2.91292879 20.527968,2.47739048 Z" id="形状结合" fill="#819E9B"></path>
            <path d="M19.9195717,86.6175434 C29.6732511,86.6175434 37.7896017,93.6277811 39.5050278,102.884661 L29.0394904,105.248539 C27.3718288,100.625718 22.9459449,97.321113 17.7482289,97.321113 L17.7482289,97.321113 L16.3705743,97.321113 C9.74315733,97.321113 4.37057433,102.693696 4.37057433,109.321113 L4.37057433,109.321113 L4.37,110.820543 L0.0321961465,111.800552 C0.0108284459,111.422558 4.18330061e-16,111.041747 0,110.658406 L0,106.537115 C-1.3472677e-15,95.5358394 8.91829601,86.6175434 19.9195717,86.6175434 Z" id="形状结合" fill="#D8423B"></path>
            <path d="M14.5,89.6175434 C22.5081289,89.6175434 29,96.1094145 29,104.117543 L29.0001644,105.194532 C27.5418226,100.718971 22.974758,97.8840239 18.2056246,98.7249508 C12.9830537,99.645831 9.4958443,104.626082 10.4167245,109.848653 L10.4167245,109.848653 L10.728,111.617543 L0.711927845,111.617845 C0.249830255,110.201138 2.86140981e-14,108.688516 2.84217094e-14,107.117543 L2.84217094e-14,104.117543 C2.74409965e-14,96.1094145 6.49187113,89.6175434 14.5,89.6175434 Z" id="形状结合" fill="#932323"></path>
        </g>
        <rect id="矩形备份-2" fill="#932323" x="63" y="161" width="123" height="100" rx="18"></rect>
        <rect id="矩形" fill="#C33730" x="99.7491373" y="161" width="123" height="100" rx="18"></rect>
        <path d="M166.044422,167.565106 C173.999831,167.565106 180.448964,174.014239 180.448964,181.969648 C180.448964,189.925056 173.999831,196.374189 166.044422,196.374189 C158.089014,196.374189 151.639881,189.925056 151.639881,181.969648 C151.639881,174.014239 158.089014,167.565106 166.044422,167.565106 Z M166.044422,169.666085 C159.249353,169.666085 153.74086,175.174578 153.74086,181.969648 C153.74086,188.764717 159.249353,194.27321 166.044422,194.27321 C172.839492,194.27321 178.347985,188.764717 178.347985,181.969648 C178.347985,175.174578 172.839492,169.666085 166.044422,169.666085 Z" id="形状结合" fill="#FFFFFF"></path>
        <polygon id="星形" fill="#FFFFFF" points="166.044422 186.698834 159.257976 191.31039 161.546699 183.431046 155.063722 178.401802 163.264677 178.143656 166.044422 170.423855 168.824168 178.143656 177.025123 178.401802 170.542146 183.431046 172.830869 191.31039"></polygon>
        <polygon id="三角形" fill="#D8D8D8" points="166.044422 170.423855 166.044422 181.514422 163.264677 178.143656"></polygon>
        <polygon id="三角形备份" fill="#D8D8D8" transform="translate(160.163849, 181.414445) rotate(-75.000000) translate(-160.163849, -181.414445) " points="161.753829 175.708371 161.589282 187.120519 158.573869 183.27211"></polygon>
        <polygon id="三角形备份-2" fill="#D8D8D8" transform="translate(171.534773, 179.958112) rotate(-315.000000) translate(-171.534773, -179.958112) " points="174.316559 174.97537 173.288615 183.115741 168.752986 184.940854"></polygon>
        <polygon id="三角形备份-3" fill="#D8D8D8" transform="translate(163.773657, 187.060457) rotate(-150.000000) translate(-163.773657, -187.060457) " points="165.559386 181.122068 164.580134 192.998847 161.987929 188.509015"></polygon>
        <polygon id="三角形备份-4" fill="#CBCBCB" transform="translate(168.315188, 187.060457) scale(-1, 1) rotate(-150.000000) translate(-168.315188, -187.060457) " points="170.100916 181.122068 169.121665 192.998847 166.529459 188.509015"></polygon>
        <g id="矩形" transform="translate(88.000000, 63.000000)">
            <mask id="mask-2" fill="white">
                <use xlink:href="#path-1"></use>
            </mask>
            <use id="蒙版" fill="#932323" xlink:href="#path-1"></use>
            <rect fill="#BFBEBE" mask="url(#mask-2)" x="-3" y="81" width="39" height="4"></rect>
        </g>
        <g id="矩形" transform="translate(118.000000, 63.000000)">
            <mask id="mask-4" fill="white">
                <use xlink:href="#path-3"></use>
            </mask>
            <use id="蒙版" fill="#C33730" xlink:href="#path-3"></use>
            <rect fill="#FFFFFF" mask="url(#mask-4)" x="0" y="81" width="101" height="4"></rect>
        </g>
        <rect id="矩形备份" fill="#5C6C69" x="147" y="49" width="4" height="14"></rect>
        <rect id="矩形备份-3" fill="#C33730" x="82" y="89" width="25" height="40" rx="10"></rect>
        <rect id="矩形" fill="#932323" x="80" y="89" width="17" height="40" rx="8.5"></rect>
        <rect id="矩形" fill="#819E9B" x="149" y="49" width="4" height="14"></rect>
        <circle id="椭圆形备份" fill="#932323" cx="149" cy="41.5" r="8.5"></circle>
        <circle id="椭圆形" fill="#C33730" cx="151.5" cy="41.5" r="8.11609508"></circle>
        <g id="脚" transform="translate(105.116146, 261.000000)">
            <rect id="矩形备份-4" fill="#5C6C69" x="10.8838544" y="0" width="8" height="94"></rect>
            <rect id="矩形" fill="#819E9B" x="14.8838544" y="0" width="8" height="94"></rect>
            <path d="M28.3838544,79 C43.2507471,79 55.4589083,87.7871726 56.7677088,99.0003305 L-2.7797209e-14,99.0003305 C1.30880054,87.7871726 13.5169617,79 28.3838544,79 Z" id="形状结合" fill="#932323"></path>
            <path d="M31.5742874,79 C43.9129816,79 54.1311486,86.0928822 55.9126733,95.3442718 L7.23590163,95.3442718 C9.01742627,86.0928822 19.2355933,79 31.5742874,79 Z" id="形状结合备份" fill="#C33730"></path>
        </g>
        <g id="脚备份" transform="translate(168.494972, 261.000000)">
            <rect id="矩形备份-4" fill="#5C6C69" x="10.8838544" y="0" width="8" height="94"></rect>
            <rect id="矩形" fill="#819E9B" x="14.8838544" y="0" width="8" height="94"></rect>
            <path d="M28.3838544,79 C43.2507471,79 55.4589083,87.7871726 56.7677088,99.0003305 L-2.7797209e-14,99.0003305 C1.30880054,87.7871726 13.5169617,79 28.3838544,79 Z" id="形状结合" fill="#932323"></path>
            <path d="M31.5742874,79 C43.9129816,79 54.1311486,86.0928822 55.9126733,95.3442718 L7.23590163,95.3442718 C9.01742627,86.0928822 19.2355933,79 31.5742874,79 Z" id="形状结合备份" fill="#C33730"></path>
        </g>
        <g id="手" transform="translate(61.000000, 180.382457)">
            <path d="M18.7628002,1.05642265 C20.2689621,-0.277940845 22.6192563,-0.359160565 24.0123292,0.875013331 C25.4054021,2.10918723 25.3137254,4.19139819 23.8075635,5.52576169 C23.7602922,5.56764107 23.7121894,5.60828605 23.6633108,5.64769472 L24.1328075,5.06886458 C13.9331069,17.5044506 8.83325664,30.7263494 8.83325664,44.7345611 C8.83325664,58.8771423 12.0560368,74.0045928 18.5015972,90.1169125 C19.0224439,91.4189831 18.3891688,92.8967632 17.0871095,93.4176381 C16.7871518,93.5376329 16.4670508,93.5992844 16.1439821,93.5992844 L15.1090083,93.5992844 C13.4376254,93.5991965 11.9424968,92.5599251 11.3609262,90.9929862 C5.05925254,74.0359349 1.90841571,58.6164599 1.90841571,44.7345611 C1.90841571,31.2488063 6.71078772,17.6177631 16.3155317,3.84143143 C16.4864742,3.59623978 16.6726815,3.36577282 16.8722534,3.15079776 L16.8883048,3.12650088 C17.4953834,2.21354792 18.2250396,1.53284434 18.7628002,1.05642265 Z" id="形状结合备份-2" fill="#5C6C69"></path>
            <path d="M20.527968,2.47739048 C21.8262338,1.17912466 23.8521167,1.10010271 25.0529031,2.30088909 C26.2536894,3.50167546 26.1746667,5.52755755 24.8764009,6.82582338 C24.8364945,6.86572976 24.7959007,6.90448415 24.7546644,6.9420848 C16.2303574,18.877484 11.9690027,31.5548968 11.9690027,44.9739324 C11.9690027,58.8322687 14.7867923,73.6625774 20.4223713,89.4648585 C20.8462131,90.6532395 20.2264038,91.960191 19.0380138,92.3840074 C18.7917008,92.4718501 18.5321342,92.5167499 18.2706263,92.5167499 L17.8763705,92.5167499 C16.1483668,92.5166719 14.615772,91.4069603 14.0768502,89.7651441 C8.6922834,73.3517816 6,58.4213777 6,44.9739324 C6,31.7662619 10.1944089,18.4153583 18.5832268,4.92122143 C18.7122401,4.71368769 18.8545762,4.51800935 19.0086212,4.3348648 C19.5108602,3.52394069 20.0924297,2.91292879 20.527968,2.47739048 Z" id="形状结合" fill="#819E9B"></path>
            <path d="M19.9195717,86.6175434 C29.6732511,86.6175434 37.7896017,93.6277811 39.5050278,102.884661 L29.0394904,105.248539 C27.3718288,100.625718 22.9459449,97.321113 17.7482289,97.321113 L17.7482289,97.321113 L16.3705743,97.321113 C9.74315733,97.321113 4.37057433,102.693696 4.37057433,109.321113 L4.37057433,109.321113 L4.37,110.820543 L0.0321961465,111.800552 C0.0108284459,111.422558 4.18330061e-16,111.041747 0,110.658406 L0,106.537115 C-1.3472677e-15,95.5358394 8.91829601,86.6175434 19.9195717,86.6175434 Z" id="形状结合" fill="#D8423B"></path>
            <path d="M14.5,89.6175434 C22.5081289,89.6175434 29,96.1094145 29,104.117543 L29.0001644,105.194532 C27.5418226,100.718971 22.974758,97.8840239 18.2056246,98.7249508 C12.9830537,99.645831 9.4958443,104.626082 10.4167245,109.848653 L10.4167245,109.848653 L10.728,111.617543 L0.711927845,111.617845 C0.249830255,110.201138 2.86140981e-14,108.688516 2.84217094e-14,107.117543 L2.84217094e-14,104.117543 C2.74409965e-14,96.1094145 6.49187113,89.6175434 14.5,89.6175434 Z" id="形状结合" fill="#932323"></path>
        </g>
        <g id="眼睛" transform="translate(170.561266, 77.500000)">
            <ellipse id="椭圆形" fill="#FFFFFF" cx="12.4693672" cy="16" rx="12.4693672" ry="16"></ellipse>
            <ellipse id="椭圆形" fill="#3D3A39" cx="12.4693672" cy="16" rx="8.57268998" ry="11"></ellipse>
            <ellipse id="椭圆形" fill="#FFFFFF" cx="13.784376" cy="14" rx="3.89667726" ry="5"></ellipse>
        </g>
        <g id="眼睛" transform="translate(130.561266, 77.500000)">
            <ellipse id="椭圆形" fill="#FFFFFF" cx="12.4693672" cy="16" rx="12.4693672" ry="16"></ellipse>
            <ellipse id="椭圆形" fill="#3D3A39" cx="12.4693672" cy="16" rx="8.57268998" ry="11"></ellipse>
            <ellipse id="椭圆形" fill="#FFFFFF" cx="13.784376" cy="14" rx="3.89667726" ry="5"></ellipse>
        </g>
        <g id="上海建筑" transform="translate(141.000000, 114.600655)" fill="#FFFFFF">
            <path d="M12.9615477,28.9990798 C12.9615477,27.8864685 12.3079197,26.9241967 11.3645648,26.4751697 L11.3645648,14.3126113 L11.358591,14.3126113 C12.2745663,13.8680646 12.907784,12.9281943 12.907784,11.8424649 C12.907784,10.5929552 12.0669784,9.53659677 10.9220094,9.20804043 L10.2424951,0 L10.0936491,0 L9.41363705,9.20804043 C8.26866797,9.53659677 7.42836024,10.5929552 7.42836024,11.8424649 C7.42836024,12.9281943 8.06157791,13.8680646 8.97755318,14.3126113 L8.97108161,14.3126113 L8.97108161,26.4756675 C8.02772665,26.9246945 7.37459647,27.8869664 7.37459647,28.9995776 C7.37459647,29.7572485 7.67676874,30.4447277 8.16661638,30.9490119 L6.96838135,32.9223412 L7.09582139,33 L8.27563735,31.0560416 C8.7739478,31.5165183 9.43852768,31.7982803 10.1678232,31.7982803 C10.9289787,31.7982803 11.6199427,31.4911299 12.1242269,30.9948107 L13.2388294,32.9288128 L13.3682607,32.8541409 L12.2322522,30.8828028 C12.6852617,30.385488 12.9615477,29.723895 12.9615477,28.9990798 Z" id="路径" fill-rule="nonzero"></path>
            <path d="M0,19.17523 L1.4537497,19.17523 L3.20740685,21.5358576 L3.20740685,23.3897119 L5.71289787,23.5390557 L5.56355408,19.8432946 L7.18443204,19.8432946 L7.22748201,27.6540073 C7.73279431,28.2130945 7.68920109,29.0759609 7.13011385,29.5812731 C6.88581672,29.8020729 6.56991392,29.9270813 6.24067886,29.9332384 L0,30.0499472 L0,30.0499472 L0,19.17523 Z" id="矩形"></path>
            <polygon id="矩形" points="12.5747473 24 14.4453723 24 14.568487 28.6988837 15.8060492 28.6988837 15.8060492 15.7575652 18.3931046 16.3935152 18.6145736 18.9981335 19.9931513 20.2762106 20.2000182 28.6988837 22.2929929 26.2424117 23.5305023 27.701765 24.0887357 11.578722 25.0367778 9.86924027 26.1478956 9.86924027 26.6204254 24.5615628 27.4562528 23.0726052 29.6076935 23.0726052 29.6076935 24.8323729 32.1803892 24.9817167 33.0112385 30.0499472 12.5747473 30.0499472"></polygon>
            <rect id="矩形" x="31.5902145" y="20.5246274" width="3.60295137" height="10.8747172"></rect>
            <rect id="矩形备份-5" x="34.3916902" y="25.9613304" width="5" height="4.4"></rect>
            <rect id="矩形备份-6" x="37.3491399" y="27" width="5" height="4.39934451"></rect>
        </g>
    </g>
</svg>