<?xml version="1.0" encoding="UTF-8"?>
<svg id="_图层_1" data-name="图层 1" xmlns="http://www.w3.org/2000/svg" xmlns:xlink="http://www.w3.org/1999/xlink" viewBox="0 0 311.81 340.16">
  <defs>
    <style>
      .cls-1 {
        fill: none;
      }

      .cls-2 {
        clip-path: url(#clippath);
      }

      .cls-3, .cls-4 {
        fill: #fff;
      }

      .cls-5, .cls-6 {
        fill: #932323;
      }

      .cls-7, .cls-8 {
        fill: #819e9b;
      }

      .cls-9, .cls-10 {
        fill: #c33730;
      }

      .cls-11 {
        fill: #667b79;
      }

      .cls-12 {
        fill: #d1d1d1;
      }

      .cls-13, .cls-14 {
        fill: #5c6c69;
      }

      .cls-15 {
        fill: #3d3a39;
      }

      .cls-16 {
        clip-path: url(#clippath-1);
      }

      .cls-14, .cls-17, .cls-18, .cls-19, .cls-6, .cls-8, .cls-10, .cls-4 {
        fill-rule: evenodd;
      }

      .cls-17 {
        fill: #d8423b;
      }

      .cls-18 {
        fill: #cbcbcb;
      }

      .cls-19 {
        fill: #d8d8d8;
      }
    </style>
    <clipPath id="clippath">
      <rect id="path-1-2" data-name="path-1" class="cls-1" x="93.91" y="33.08" width="88" height="93" rx="16" ry="16"/>
    </clipPath>
    <clipPath id="clippath-1">
      <rect id="path-3-2" data-name="path-3" class="cls-1" x="123.91" y="33.08" width="88" height="93" rx="16" ry="16"/>
    </clipPath>
  </defs>
  <g id="_机器人正面" data-name="机器人正面">
    <rect id="_矩形" data-name="矩形" class="cls-7" x="125.91" y="126.08" width="61" height="8"/>
    <rect id="_矩形-2" data-name="矩形" class="cls-11" x="125.91" y="130.08" width="61" height="8"/>
    <g id="_手备份" data-name="手备份">
      <path id="_形状结合备份-2" data-name="形状结合备份-2" class="cls-14" d="M222.15,149.66c-1.51-1.33-3.86-1.42-5.25-.18-1.39,1.23-1.3,3.32,.2,4.65,.05,.04,.1,.08,.14,.12l-.47-.58c10.2,12.44,15.3,25.66,15.3,39.67s-3.22,29.27-9.67,45.38c-.52,1.3,.11,2.78,1.41,3.3,.3,.12,.62,.18,.94,.18h1.03c1.67,0,3.17-1.04,3.75-2.61,6.3-16.96,9.45-32.38,9.45-46.26s-4.8-27.12-14.41-40.89c-.17-.25-.36-.48-.56-.69l-.02-.02c-.61-.91-1.34-1.59-1.87-2.07Z"/>
      <path id="_形状结合" data-name="形状结合" class="cls-8" d="M220.38,151.08c-1.3-1.3-3.32-1.38-4.52-.18-1.2,1.2-1.12,3.23,.18,4.52,.04,.04,.08,.08,.12,.12,8.52,11.94,12.79,24.61,12.79,38.03s-2.82,28.69-8.45,44.49c-.42,1.19,.2,2.5,1.38,2.92,.25,.09,.51,.13,.77,.13h.39c1.73,0,3.26-1.11,3.8-2.75,5.38-16.41,8.08-31.34,8.08-44.79s-4.19-26.56-12.58-40.05c-.13-.21-.27-.4-.43-.59-.5-.81-1.08-1.42-1.52-1.86Z"/>
      <path id="_形状结合-2" data-name="形状结合" class="cls-17" d="M220.99,235.22c-9.75,0-17.87,7.01-19.59,16.27l10.47,2.36c1.67-4.62,6.09-7.93,11.29-7.93h1.38c6.63,0,12,5.37,12,12h0v1.5s4.34,.98,4.34,.98c.02-.38,.03-.76,.03-1.14v-4.12c0-11-8.92-19.92-19.92-19.92Z"/>
      <path id="_形状结合-3" data-name="形状结合" class="cls-6" d="M226.41,238.22c-8.01,0-14.5,6.49-14.5,14.5v1.08c1.46-4.48,6.03-7.31,10.79-6.47,5.22,.92,8.71,5.9,7.79,11.12h0l-.31,1.77h10.02c.46-1.42,.71-2.93,.71-4.5v-3c0-8.01-6.49-14.5-14.5-14.5Z"/>
    </g>
    <rect id="_矩形备份-2" data-name="矩形备份-2" class="cls-5" x="68.91" y="131.08" width="123" height="100" rx="18" ry="18"/>
    <rect id="_矩形-3" data-name="矩形" class="cls-9" x="105.65" y="131.08" width="123" height="100" rx="18" ry="18"/>
    <path id="_形状结合-4" data-name="形状结合" class="cls-4" d="M171.95,137.64c7.96,0,14.4,6.45,14.4,14.4s-6.45,14.4-14.4,14.4-14.4-6.45-14.4-14.4,6.45-14.4,14.4-14.4Zm0,2.1c-6.8,0-12.3,5.51-12.3,12.3s5.51,12.3,12.3,12.3,12.3-5.51,12.3-12.3-5.51-12.3-12.3-12.3Z"/>
    <polygon id="_星形" data-name="星形" class="cls-4" points="171.95 156.78 165.16 161.39 167.45 153.51 160.97 148.48 169.17 148.22 171.95 140.5 174.73 148.22 182.93 148.48 176.45 153.51 178.74 161.39 171.95 156.78"/>
    <polygon id="_三角形" data-name="三角形" class="cls-19" points="171.95 140.5 171.95 151.59 169.17 148.22 171.95 140.5"/>
    <polygon id="_三角形备份" data-name="三角形备份" class="cls-19" points="160.97 148.48 171.95 151.59 167.45 153.51 160.97 148.48"/>
    <polygon id="_三角形备份-2" data-name="三角形备份-2" class="cls-19" points="182.93 148.48 176.45 153.51 171.95 151.59 182.93 148.48"/>
    <polygon id="_三角形备份-3" data-name="三角形备份-3" class="cls-19" points="165.16 161.39 171.95 151.59 171.95 156.78 165.16 161.39"/>
    <polygon id="_三角形备份-4" data-name="三角形备份-4" class="cls-18" points="178.74 161.39 171.95 151.59 171.95 156.78 178.74 161.39"/>
    <g id="_矩形-4" data-name="矩形">
      <g id="_蒙版" data-name="蒙版">
        <rect id="path-1" class="cls-5" x="93.91" y="33.08" width="88" height="93" rx="16" ry="16"/>
      </g>
      <g class="cls-2">
        <rect class="cls-12" x="91.34" y="114.21" width="40.3" height="4"/>
      </g>
    </g>
    <g id="_矩形-5" data-name="矩形">
      <g id="_蒙版-2" data-name="蒙版">
        <rect id="path-3" class="cls-9" x="123.91" y="33.08" width="88" height="93" rx="16" ry="16"/>
      </g>
      <g class="cls-16">
        <rect class="cls-3" x="121.19" y="114.08" width="91.92" height="4"/>
      </g>
    </g>
    <rect id="_矩形备份" data-name="矩形备份" class="cls-13" x="152.91" y="19.08" width="4" height="14"/>
    <rect id="_矩形备份-3" data-name="矩形备份-3" class="cls-9" x="87.91" y="59.08" width="25" height="40" rx="10" ry="10"/>
    <path id="_矩形-6" data-name="矩形" class="cls-6" d="M94.41,59.08h0c4.69,0,8.5,3.81,8.5,8.5v23c0,4.69-3.81,8.5-8.5,8.5h0c-4.69,0-8.5-3.81-8.5-8.5v-23c0-4.69,3.81-8.5,8.5-8.5Z"/>
    <rect id="_矩形-7" data-name="矩形" class="cls-7" x="154.91" y="19.08" width="4" height="14"/>
    <circle id="_椭圆形备份" data-name="椭圆形备份" class="cls-5" cx="154.91" cy="11.58" r="8.5"/>
    <circle id="_椭圆形" data-name="椭圆形" class="cls-9" cx="157.41" cy="11.58" r="8.12"/>
    <g id="_脚" data-name="脚">
      <rect id="_矩形备份-4" data-name="矩形备份-4" class="cls-13" x="121.91" y="231.08" width="8" height="94"/>
      <rect id="_矩形-8" data-name="矩形" class="cls-7" x="125.91" y="231.08" width="8" height="94"/>
      <path id="_形状结合-5" data-name="形状结合" class="cls-6" d="M139.41,310.08c14.87,0,27.08,8.79,28.38,20h-56.77c1.31-11.21,13.52-20,28.38-20Z"/>
      <path id="_形状结合备份" data-name="形状结合备份" class="cls-10" d="M142.6,310.08c12.34,0,22.56,7.09,24.34,16.34h-48.68c1.78-9.25,12-16.34,24.34-16.34Z"/>
    </g>
    <g id="_脚备份" data-name="脚备份">
      <rect id="_矩形备份-4-2" data-name="矩形备份-4" class="cls-13" x="185.28" y="231.08" width="8" height="94"/>
      <rect id="_矩形-9" data-name="矩形" class="cls-7" x="189.28" y="231.08" width="8" height="94"/>
      <path id="_形状结合-6" data-name="形状结合" class="cls-6" d="M202.78,310.08c14.87,0,27.08,8.79,28.38,20h-56.77c1.31-11.21,13.52-20,28.38-20Z"/>
      <path id="_形状结合备份-2" data-name="形状结合备份" class="cls-10" d="M205.97,310.08c12.34,0,22.56,7.09,24.34,16.34h-48.68c1.78-9.25,12-16.34,24.34-16.34Z"/>
    </g>
    <g id="_手" data-name="手">
      <path id="_形状结合备份-2-2" data-name="形状结合备份-2" class="cls-14" d="M85.67,151.52c1.51-1.33,3.86-1.42,5.25-.18,1.39,1.23,1.3,3.32-.2,4.65-.05,.04-.1,.08-.14,.12l.47-.58c-10.2,12.44-15.3,25.66-15.3,39.67s3.22,29.27,9.67,45.38c.52,1.3-.11,2.78-1.41,3.3-.3,.12-.62,.18-.94,.18h-1.03c-1.67,0-3.17-1.04-3.75-2.61-6.3-16.96-9.45-32.38-9.45-46.26s4.8-27.12,14.41-40.89c.17-.25,.36-.48,.56-.69l.02-.02c.61-.91,1.34-1.59,1.87-2.07Z"/>
      <path id="_形状结合-7" data-name="形状结合" class="cls-8" d="M87.43,152.94c1.3-1.3,3.32-1.38,4.52-.18,1.2,1.2,1.12,3.23-.18,4.52-.04,.04-.08,.08-.12,.12-8.52,11.94-12.79,24.61-12.79,38.03s2.82,28.69,8.45,44.49c.42,1.19-.2,2.5-1.38,2.92-.25,.09-.51,.13-.77,.13h-.39c-1.73,0-3.26-1.11-3.8-2.75-5.38-16.41-8.08-31.34-8.08-44.79s4.19-26.56,12.58-40.05c.13-.21,.27-.4,.43-.59,.5-.81,1.08-1.42,1.52-1.86Z"/>
      <path id="_形状结合-8" data-name="形状结合" class="cls-17" d="M86.83,237.08c9.75,0,17.87,7.01,19.59,16.27l-10.47,2.36c-1.67-4.62-6.09-7.93-11.29-7.93h-1.38c-6.63,0-12,5.37-12,12h0v1.5s-4.34,.98-4.34,.98c-.02-.38-.03-.76-.03-1.14v-4.12c0-11,8.92-19.92,19.92-19.92Z"/>
      <path id="_形状结合-9" data-name="形状结合" class="cls-6" d="M81.41,240.08c8.01,0,14.5,6.49,14.5,14.5v1.08c-1.46-4.48-6.03-7.31-10.79-6.47-5.22,.92-8.71,5.9-7.79,11.12h0l.31,1.77h-10.02c-.46-1.42-.71-2.93-.71-4.5v-3c0-8.01,6.49-14.5,14.5-14.5Z"/>
    </g>
    <g id="_眼睛" data-name="眼睛">
      <ellipse id="_椭圆形-2" data-name="椭圆形" class="cls-3" cx="188.94" cy="63.58" rx="12.47" ry="16"/>
      <ellipse id="_椭圆形-3" data-name="椭圆形" class="cls-15" cx="188.94" cy="63.58" rx="8.57" ry="11"/>
      <ellipse id="_椭圆形-4" data-name="椭圆形" class="cls-3" cx="190.25" cy="61.58" rx="3.9" ry="5"/>
    </g>
    <g id="_眼睛-2" data-name="眼睛">
      <ellipse id="_椭圆形-5" data-name="椭圆形" class="cls-3" cx="148.94" cy="63.58" rx="12.47" ry="16"/>
      <ellipse id="_椭圆形-6" data-name="椭圆形" class="cls-15" cx="148.94" cy="63.58" rx="8.57" ry="11"/>
      <ellipse id="_椭圆形-7" data-name="椭圆形" class="cls-3" cx="150.25" cy="61.58" rx="3.9" ry="5"/>
    </g>
    <g id="_上海建筑" data-name="上海建筑">
      <path id="_路径" data-name="路径" class="cls-3" d="M159.87,113.68c0-1.11-.65-2.07-1.6-2.52v-12.16h0c.92-.44,1.55-1.38,1.55-2.47,0-1.25-.84-2.31-1.99-2.63l-.68-9.21h-.15l-.68,9.21c-1.14,.33-1.99,1.38-1.99,2.63,0,1.09,.63,2.03,1.55,2.47h0v12.16c-.94,.45-1.6,1.41-1.6,2.52,0,.76,.3,1.45,.79,1.95l-1.2,1.97,.13,.08,1.18-1.94c.5,.46,1.16,.74,1.89,.74s1.45-.31,1.96-.8l1.11,1.93,.13-.07-1.14-1.97c.45-.5,.73-1.16,.73-1.88Z"/>
      <path id="_矩形-10" data-name="矩形" class="cls-4" d="M146.91,103.85h1.45l1.75,2.36v1.85l2.51,.15-.15-3.7h1.62l.04,7.81c.51,.56,.46,1.42-.1,1.93-.24,.22-.56,.35-.89,.35l-6.24,.12h0v-10.87Z"/>
      <polygon id="_矩形-11" data-name="矩形" class="cls-4" points="159.48 108.68 161.35 108.68 161.47 113.38 162.71 113.38 162.71 100.44 165.3 101.07 165.52 103.68 166.9 104.96 167.11 113.38 169.2 110.92 170.44 112.38 170.99 96.26 171.94 94.55 173.05 94.55 173.53 109.24 174.36 107.75 176.51 107.75 176.51 109.51 179.09 109.66 179.92 114.73 159.48 114.73 159.48 108.68"/>
      <rect id="_矩形-12" data-name="矩形" class="cls-3" x="178.5" y="105.2" width="3.6" height="10.87"/>
      <rect id="_矩形备份-5" data-name="矩形备份-5" class="cls-3" x="181.3" y="110.64" width="5" height="4.4"/>
      <rect id="_矩形备份-6" data-name="矩形备份-6" class="cls-3" x="184.25" y="111.68" width="5" height="4.4"/>
    </g>
  </g>
</svg>