<?xml version="1.0" encoding="utf-8"?>
<!-- Generator: Adobe Illustrator 15.0.0, SVG Export Plug-In  -->
<!DOCTYPE svg PUBLIC "-//W3C//DTD SVG 1.1//EN" "http://www.w3.org/Graphics/SVG/1.1/DTD/svg11.dtd" [
	<!ENTITY ns_flows "http://ns.adobe.com/Flows/1.0/">
]>
<svg version="1.1"
	 xmlns="http://www.w3.org/2000/svg" xmlns:xlink="http://www.w3.org/1999/xlink" xmlns:a="http://ns.adobe.com/AdobeSVGViewerExtensions/3.0/"
	 x="0px" y="0px" width="152px" height="161px" viewBox="157.273 771.639 152 161" enable-background="new 157.273 771.639 152 161"
	 xml:space="preserve">
<defs>
</defs>
<rect display="none" fill="#E0E0E0" width="2229.455" height="1311.244"/>
<path fill="#C33730" d="M217.903,783.563l-0.04,0.118c0.027,0,0.053,0.004,0.08,0.004L217.903,783.563z"/>
<path fill="#819E9B" d="M284.166,859.025l15.063-0.234c-0.252,0.875-0.381,1.8-0.366,2.756s0.173,1.878,0.452,2.744l-15.063,0.233
	c-9.925,0.155-18.801-4.614-24.298-12.043c0,0-1.675-2.148,0.522-3.626c1.988-1.336,3.632,0.37,4.118,0.936
	C270.346,856.479,277.17,859.134,284.166,859.025"/>
<path fill="#D8423B" d="M298.864,861.547c0.08,5.215,4.389,9.392,9.604,9.311l-0.082-5.211c-2.342,0.037-4.275-1.839-4.313-4.18
	c-0.036-2.343,1.84-4.277,4.182-4.313l-0.082-5.21C302.958,852.024,298.782,856.332,298.864,861.547"/>
<path fill="#932323" d="M304.073,861.467c0.037,2.341,1.971,4.217,4.313,4.18l0.082,5.211c-3.138,0.049-5.939-1.45-7.697-3.783
	c-0.478-0.728-2.293-3.913-0.008-7.275c2.604-3.83,7.492-2.646,7.492-2.646C305.913,857.189,304.037,859.124,304.073,861.467z"/>
<path fill="#5C6C69" d="M296.302,864.338l3.013-0.047c-0.279-0.867-0.438-1.788-0.452-2.744c-0.001-0.049,0.003-0.097,0.003-0.146
	c-4.788,0.633-14.4,1.418-21.146-0.177c-8.559-2.022-16.358-8.579-16.743-10.753c-0.334-1.89,1.169-2.024,1.682-2.019h0
	c-0.077-0.021-0.156-0.039-0.236-0.054c-0.007-0.001-0.015-0.002-0.023-0.003c-0.208-0.036-0.429-0.044-0.656-0.021
	c-0.046,0.005-0.092,0.008-0.139,0.016c-0.048,0.008-0.098,0.021-0.147,0.031c-0.06,0.014-0.12,0.029-0.18,0.047
	c-0.044,0.015-0.089,0.029-0.135,0.046c-0.071,0.025-0.143,0.057-0.214,0.09c-0.038,0.018-0.076,0.033-0.114,0.053
	c-0.11,0.057-0.221,0.12-0.333,0.195c-0.001,0.001-0.003,0.002-0.004,0.002c-1.511,1.017-1.192,2.349-0.845,3.082
	c0.158,0.334,0.322,0.544,0.322,0.544c3.779,5.107,9.155,8.958,15.372,10.814c2.826,0.845,5.825,1.277,8.927,1.229L296.302,864.338z
	"/>
<path fill="#819E9B" d="M189.428,913.417l-3.29-4.587l35.33-25.76c0,0,2.329-2.02,4.133,0.497c1.804,2.515-0.844,4.09-0.844,4.09
	L189.428,913.417z"/>
<path fill="#5C6C69" d="M225.602,883.567c-1.804-2.517-4.133-0.497-4.133-0.497l-35.33,25.76l1.193,1.663
	c3.432-2.461,33.599-24.519,34.835-25.405c1.345-0.965,2.293-0.588,2.758,0.059c0.464,0.648,0.538,1.605-0.167,2.511
	C224.758,887.657,227.406,886.082,225.602,883.567z"/>
<path fill="#C33730" d="M193.149,932.582c4.77-3.57,4.802-11.768,0.029-18.424s-12.548-9.256-17.459-5.883L193.149,932.582z"/>
<path fill="#932323" d="M180.208,910.186c2.135-1.467,4.811-1.801,7.546-1.168c-4.116-2.566-8.726-3.016-12.036-0.742l17.43,24.307
	c0.701-0.525,1.287-1.159,1.783-1.865L180.208,910.186z"/>
<path fill="#819E9B" d="M285.528,911.96l-3.701,4.262l-33.238-28.407c0,0-2.503-1.799-0.473-4.137
	c2.03-2.337,4.174-0.125,4.174-0.125L285.528,911.96z"/>
<path fill="#5C6C69" d="M248.115,883.678c-2.03,2.338,0.473,4.137,0.473,4.137l33.238,28.407l1.342-1.546
	c-3.188-2.769-31.63-27.01-32.779-28.008c-1.25-1.085-1.103-2.095-0.581-2.696c0.522-0.603,1.438-0.895,2.48-0.419
	C252.29,883.553,250.145,881.341,248.115,883.678z"/>
<path fill="#C33730" d="M303.311,903.904c-4.576-3.814-12.561-1.947-17.93,4.236c-5.371,6.184-6.102,14.35-1.684,18.347
	L303.311,903.904z"/>
<path fill="#932323" d="M284.518,921.678c-1.92-1.738-2.866-4.264-2.883-7.07c-1.544,4.598-0.914,9.186,2.063,11.88l19.613-22.583
	c-0.673-0.561-1.426-0.984-2.227-1.303L284.518,921.678z"/>
<path fill="#C33730" d="M230.548,843.949l0.126,0.094c0.01-0.031,0.021-0.063,0.032-0.094H230.548z"/>
<path fill="#C33730" d="M230.627,839.515l-0.021,0.062c0.014,0,0.027,0.002,0.041,0.002L230.627,839.515z"/>
<path fill="#932323" d="M198.998,836.723h63.816c5.148,0,9.322,4.173,9.322,9.32v32.998c0,5.148-4.174,9.322-9.322,9.322h-63.816
	c-5.148,0-9.322-4.174-9.322-9.322v-32.998C189.676,840.896,193.85,836.723,198.998,836.723z"/>
<path fill="#C33730" d="M218.117,836.723h44.528c5.241,0,9.491,4.248,9.491,9.49v32.66c0,5.241-4.25,9.49-9.491,9.49h-44.528
	c-5.241,0-9.49-4.249-9.49-9.49v-32.66C208.627,840.971,212.875,836.723,218.117,836.723z"/>
<path fill="#6D4F4E" d="M242.765,840.229c-4.104,0-7.43,3.326-7.43,7.43s3.327,7.43,7.43,7.43s7.43-3.326,7.43-7.43
	S246.869,840.229,242.765,840.229z M242.767,854.082c-3.546,0-6.421-2.876-6.421-6.422c0-3.547,2.875-6.422,6.421-6.422
	c3.547,0,6.422,2.875,6.422,6.422C249.188,851.206,246.313,854.082,242.767,854.082z"/>
<polygon fill="#6D4F4E" points="242.771,847.664 242.771,841.238 241.271,845.564 "/>
<polygon fill="#6D4F4E" points="242.771,847.668 236.697,845.568 240.471,848.536 "/>
<polygon fill="#6D4F4E" points="242.771,847.668 236.697,845.568 241.271,845.564 "/>
<polygon fill="#6D4F4E" points="242.771,847.664 242.771,841.238 244.27,845.564 "/>
<polygon fill="#6D4F4E" points="242.771,847.668 248.844,845.568 245.07,848.536 "/>
<polygon fill="#6D4F4E" points="242.771,847.668 248.844,845.568 244.27,845.564 "/>
<polygon fill="#6D4F4E" points="240.471,848.536 239.249,853.041 242.771,847.668 "/>
<polygon fill="#6D4F4E" points="239.249,853.041 242.771,850.275 242.771,847.668 "/>
<polygon fill="#6D4F4E" points="245.07,848.536 246.292,853.041 242.771,847.668 "/>
<polygon fill="#6D4F4E" points="246.292,853.041 242.771,850.275 242.771,847.668 "/>
<path fill="#FFFFFF" d="M242.786,840.332c-4.042,0-7.317,3.275-7.317,7.316s3.276,7.318,7.317,7.318
	c4.041,0,7.317-3.277,7.317-7.318S246.827,840.332,242.786,840.332z M242.788,853.975c-3.493,0-6.324-2.832-6.324-6.324
	s2.832-6.324,6.324-6.324s6.324,2.832,6.324,6.324S246.28,853.975,242.788,853.975z"/>
<polygon fill="#BFBEBE" points="242.792,847.654 242.792,841.326 241.314,845.587 "/>
<polygon fill="#BFBEBE" points="242.792,847.658 236.81,845.592 240.526,848.514 "/>
<polygon fill="#FFFFFF" points="242.792,847.658 236.81,845.592 241.314,845.587 "/>
<polygon fill="#FFFFFF" points="242.792,847.654 242.792,841.326 244.268,845.587 "/>
<polygon fill="#BFBEBE" points="242.792,847.658 248.772,845.592 245.056,848.514 "/>
<polygon fill="#FFFFFF" points="242.792,847.658 248.772,845.592 244.268,845.587 "/>
<polygon fill="#FFFFFF" points="240.526,848.514 239.323,852.95 242.792,847.658 "/>
<polygon fill="#BFBEBE" points="239.323,852.95 242.792,850.227 242.792,847.658 "/>
<polygon fill="#FFFFFF" points="245.056,848.514 246.26,852.95 242.792,847.658 "/>
<polygon fill="#BFBEBE" points="246.26,852.95 242.792,850.227 242.792,847.658 "/>
<path fill="#932323" d="M211.478,786.556h42.549c5.135,0,9.298,4.163,9.298,9.298v30.086c0,5.135-4.163,9.297-9.298,9.297h-42.549
	c-5.135,0-9.298-4.162-9.298-9.297v-30.086C202.18,790.719,206.343,786.556,211.478,786.556z"/>
<rect x="218.815" y="835.312" fill="#819E9B" width="31.5" height="1.411"/>
<path fill="#C33730" d="M226.989,786.556h26.936c5.191,0,9.4,4.208,9.4,9.399v29.882c0,5.191-4.208,9.399-9.4,9.399h-26.936
	c-5.191,0-9.4-4.208-9.4-9.399v-29.882C217.589,790.764,221.798,786.556,226.989,786.556z"/>
<ellipse fill="#7E7E7F" cx="230.023" cy="802.639" rx="6.549" ry="8.014"/>
<ellipse fill="#FFFFFF" cx="230.378" cy="802.639" rx="6.549" ry="8.014"/>
<ellipse fill="#1C1D1D" cx="230.023" cy="802.639" rx="4.39" ry="5.371"/>
<ellipse fill="#3D3A39" cx="230.224" cy="802.639" rx="4.189" ry="5.125"/>
<ellipse fill="#9F9FA0" cx="230.733" cy="801.77" rx="2.158" ry="2.641"/>
<ellipse fill="#FFFFFF" cx="230.867" cy="801.77" rx="2.024" ry="2.477"/>
<ellipse fill="#7E7E7F" cx="251.335" cy="802.639" rx="6.55" ry="8.014"/>
<ellipse fill="#FFFFFF" cx="251.689" cy="802.639" rx="6.549" ry="8.014"/>
<ellipse fill="#1C1D1D" cx="251.334" cy="802.639" rx="4.39" ry="5.371"/>
<ellipse fill="#3D3A39" cx="251.536" cy="802.639" rx="4.188" ry="5.125"/>
<ellipse fill="#9F9FA0" cx="252.044" cy="801.77" rx="2.158" ry="2.641"/>
<ellipse fill="#FFFFFF" cx="252.178" cy="801.77" rx="2.024" ry="2.477"/>
<polygon fill="#FFFFFF" points="242.464,819.281 242.568,819.281 242.557,819.18 242.464,819.18 242.327,819.18 242.337,819.281 "/>
<polygon fill="#FFFFFF" points="242.554,819.158 242.543,819.055 242.464,819.055 242.315,819.055 242.325,819.158 242.464,819.158 
	"/>
<polygon fill="#FFFFFF" points="243.761,819.055 243.641,819.055 243.536,819.055 243.525,819.158 243.674,819.158 243.75,819.158 
	"/>
<polygon fill="#FFFFFF" points="243.498,819.416 243.497,819.427 243.485,819.529 243.713,819.529 243.724,819.427 243.726,819.406 
	243.732,819.343 243.736,819.303 243.72,819.303 243.509,819.303 "/>
<polygon fill="#FFFFFF" points="243.512,819.281 243.713,819.281 243.739,819.281 243.749,819.18 243.681,819.18 243.523,819.18 "/>
<polygon fill="#FFFFFF" points="242.313,819.506 242.305,819.427 242.26,819.427 242.26,819.49 242.26,819.529 242.314,819.529 "/>
<polygon fill="#FFFFFF" points="242.351,819.427 242.352,819.435 242.36,819.521 242.361,819.529 242.39,819.529 242.442,819.529 
	242.464,819.529 242.479,819.529 242.594,819.529 242.583,819.427 242.583,819.42 242.582,819.416 242.581,819.406 242.57,819.303 
	242.464,819.303 242.339,819.303 242.349,819.406 "/>
<path fill="#FFFFFF" d="M244.933,817.038c-0.014,0.06-0.028,0.12-0.042,0.181c-0.019,0.082-0.036,0.166-0.054,0.248
	c-0.048,0.229-0.092,0.459-0.131,0.686c-0.011,0.059-0.021,0.119-0.031,0.178c0.098-0.002,0.196-0.001,0.294,0.002
	c0.137,0.004,0.274,0.012,0.412,0.024c-0.002-0.043-0.005-0.085-0.007-0.128c-0.003-0.064-0.007-0.129-0.01-0.193
	c-0.001-0.02-0.002-0.039-0.003-0.059c-0.001-0.018-0.002-0.035-0.003-0.053c-0.015-0.287-0.03-0.572-0.047-0.858
	c-0.096-0.011-0.194-0.018-0.292-0.022C244.991,817.041,244.962,817.039,244.933,817.038z"/>
<path fill="#FFFFFF" d="M244.985,816.822c-0.003,0.017-0.007,0.031-0.011,0.048c0.109,0.004,0.219,0.011,0.328,0.021
	c-0.001-0.021-0.003-0.045-0.004-0.068c-0.007-0.112-0.014-0.227-0.021-0.34c-0.011-0.186-0.022-0.372-0.035-0.559
	c-0.051,0.153-0.102,0.322-0.152,0.501C245.054,816.553,245.019,816.686,244.985,816.822z"/>
<path fill="#FFFFFF" d="M244.872,816.867c0.003-0.015,0.007-0.03,0.011-0.045c0.008-0.032,0.016-0.064,0.024-0.098
	c0.028-0.112,0.058-0.223,0.087-0.329c0.058-0.204,0.116-0.396,0.176-0.566c0.019-0.054,0.037-0.105,0.056-0.154
	c-0.002-0.029-0.004-0.058-0.006-0.087c-0.015-0.221-0.029-0.44-0.044-0.66c-0.009-0.132-0.018-0.264-0.027-0.395
	c-0.005-0.07-0.009-0.141-0.014-0.211c-0.059-0.082-0.079-0.15-0.138-0.232c-0.041,0.147-0.082,0.295-0.123,0.443
	c-0.011,0.038-0.021,0.076-0.032,0.114c-0.071,0.017-0.142,0.033-0.213,0.049c-0.065,0.015-0.13,0.03-0.194,0.045
	c-0.047,0.011-0.096,0.022-0.144,0.034c-0.001,0.102-0.003,0.203-0.004,0.306c-0.003,0.235-0.007,0.47-0.01,0.705
	c-0.002,0.113-0.004,0.228-0.006,0.341c-0.003,0.227-0.007,0.451-0.011,0.677c0,0.007,0,0.013,0,0.019c0,0.007,0,0.012,0,0.02
	c0,0.015,0,0.029,0,0.045c0.013-0.001,0.027-0.002,0.041-0.003C244.489,816.869,244.681,816.863,244.872,816.867z"/>
<path fill="#FFFFFF" d="M244.575,818.334c0.007-0.05,0.017-0.101,0.025-0.15c0.045-0.266,0.098-0.537,0.155-0.806
	c0.013-0.061,0.026-0.121,0.039-0.181c0.012-0.055,0.024-0.107,0.037-0.162c-0.127-0.001-0.255,0.002-0.383,0.012
	c-0.064,0.004-0.129,0.008-0.193,0.016c-0.004,0.199-0.009,0.398-0.013,0.598c-0.005,0.234-0.01,0.467-0.016,0.699
	c0.005,0,0.011,0,0.016-0.001C244.353,818.347,244.464,818.338,244.575,818.334z"/>
<polygon fill="#FFFFFF" points="242.303,819.406 242.3,819.381 242.279,819.166 242.28,819.18 242.26,819.18 242.26,819.281 
	242.291,819.281 242.292,819.303 242.26,819.303 242.26,819.338 242.26,819.406 242.302,819.406 "/>
<polygon fill="#FFFFFF" points="242.26,818.96 242.26,819.033 242.267,819.033 242.269,819.055 242.26,819.055 242.26,819.158 
	242.278,819.158 "/>
<polygon fill="#FFFFFF" points="242.464,819.033 242.541,819.033 242.538,819 242.978,819 243.542,819 243.539,819.033 
	243.635,819.033 243.763,819.033 243.762,819.043 243.784,818.828 243.797,818.692 243.655,818.692 243.527,818.692 
	243.269,818.692 242.464,818.692 242.28,818.692 242.313,819.033 "/>
<polygon fill="#FFFFFF" points="243.821,819.303 243.786,819.303 243.775,819.406 243.821,819.406 "/>
<polygon fill="#FFFFFF" points="243.821,819.055 243.811,819.055 243.8,819.158 243.821,819.158 "/>
<polygon fill="#FFFFFF" points="243.821,819.281 243.821,819.18 243.799,819.18 243.788,819.281 "/>
<polygon fill="#FFFFFF" points="243.821,818.951 243.813,819.033 243.821,819.033 "/>
<polygon fill="#FFFFFF" points="243.821,819.427 243.774,819.427 243.77,819.463 243.763,819.529 243.792,819.529 243.821,819.529 
	"/>
<polygon fill="#FFFFFF" points="242.464,819.902 242.804,819.902 243.639,819.902 243.676,819.902 243.687,819.8 243.457,819.8 
	243.452,819.846 243.449,819.865 242.77,819.865 242.63,819.865 242.623,819.8 242.464,819.8 242.387,819.8 242.396,819.902 "/>
<polygon fill="#FFFFFF" points="242.464,820.026 242.923,820.026 243.664,820.026 243.674,819.924 242.825,819.924 242.464,819.924 
	242.398,819.924 242.408,820.026 "/>
<polygon fill="#FFFFFF" points="242.464,820.398 243.278,820.398 243.627,820.398 243.638,820.295 243.18,820.295 242.464,820.295 
	242.434,820.295 242.444,820.398 "/>
<polygon fill="#FFFFFF" points="242.464,820.605 242.468,820.646 242.532,820.646 243.411,820.646 243.515,820.646 243.603,820.646 
	243.612,820.544 243.508,820.544 243.417,820.544 242.464,820.544 242.458,820.544 242.463,820.591 "/>
<polygon fill="#FFFFFF" points="242.464,820.521 243.397,820.521 243.528,820.521 243.615,820.521 243.625,820.422 243.625,820.42 
	243.299,820.42 242.464,820.42 242.446,820.42 242.456,820.521 "/>
<polygon fill="#FFFFFF" points="242.464,820.274 243.16,820.274 243.64,820.274 243.65,820.168 243.649,820.172 243.062,820.172 
	242.464,820.172 242.422,820.172 242.432,820.274 "/>
<polygon fill="#FFFFFF" points="242.685,820.771 243.296,820.771 243.59,820.771 243.595,820.73 243.6,820.668 243.535,820.668 
	243.391,820.668 242.558,820.668 242.47,820.668 242.479,820.771 "/>
<polygon fill="#FFFFFF" points="242.464,820.15 243.041,820.15 243.652,820.15 243.662,820.047 242.943,820.047 242.464,820.047 
	242.41,820.047 242.42,820.15 "/>
<polygon fill="#FFFFFF" points="243.459,819.777 243.689,819.777 243.699,819.676 243.47,819.676 "/>
<polygon fill="#FFFFFF" points="242.464,819.777 242.621,819.777 242.613,819.701 242.61,819.676 242.587,819.676 242.464,819.676 
	242.375,819.676 242.373,819.656 242.384,819.777 "/>
<polygon fill="#FFFFFF" points="242.372,819.649 242.373,819.654 242.464,819.654 242.567,819.654 242.607,819.654 242.6,819.587 
	242.596,819.546 242.596,819.552 242.483,819.552 242.469,819.552 242.464,819.552 242.463,819.552 242.46,819.552 242.363,819.552 
	242.363,819.553 "/>
<polygon fill="#FFFFFF" points="243.472,819.654 243.701,819.654 243.711,819.552 243.483,819.552 "/>
<polygon fill="#FFFFFF" points="242.316,819.553 242.316,819.552 242.26,819.552 242.26,819.553 242.26,819.654 242.326,819.654 "/>
<polygon fill="#FFFFFF" points="243.268,822.879 243.38,822.879 243.391,822.776 243.365,822.776 242.672,822.776 242.682,822.879 
	"/>
<polygon fill="#FFFFFF" points="243.405,822.631 243.406,822.615 243.416,822.529 243.323,822.529 242.648,822.529 242.658,822.631 
	"/>
<polygon fill="#FFFFFF" points="243.151,823.004 243.368,823.004 243.378,822.9 243.248,822.9 242.684,822.9 242.694,823.004 "/>
<polygon fill="#FFFFFF" points="242.67,822.756 243.385,822.756 243.393,822.756 243.394,822.746 243.401,822.674 243.403,822.652 
	242.661,822.652 242.663,822.674 "/>
<polygon fill="#FFFFFF" points="243.034,823.127 243.355,823.127 243.366,823.025 243.131,823.025 242.696,823.025 242.706,823.127 
	"/>
<polygon fill="#FFFFFF" points="243.306,823.623 243.316,823.521 242.744,823.521 242.753,823.623 "/>
<polygon fill="#FFFFFF" points="242.917,823.252 243.343,823.252 243.353,823.148 243.014,823.148 242.708,823.148 242.718,823.252 
	"/>
<polygon fill="#FFFFFF" points="242.742,823.5 243.318,823.5 243.329,823.396 242.78,823.396 242.731,823.396 242.736,823.443 "/>
<polygon fill="#FFFFFF" points="242.8,823.375 243.331,823.375 243.341,823.273 242.896,823.273 242.72,823.273 242.73,823.375 "/>
<polygon fill="#FFFFFF" points="242.947,821.143 243.249,821.143 243.553,821.143 243.563,821.04 243.047,821.04 243.016,821.04 
	242.506,821.04 242.515,821.143 "/>
<polygon fill="#FFFFFF" points="242.827,821.267 243.541,821.267 243.542,821.263 243.551,821.164 243.301,821.164 242.926,821.164 
	242.517,821.164 242.527,821.267 "/>
<polygon fill="#FFFFFF" points="243.302,822.507 243.417,822.507 243.417,822.502 243.427,822.404 243.392,822.404 243.203,822.404 
	242.637,822.404 242.646,822.507 "/>
<polygon fill="#FFFFFF" points="242.575,821.764 242.583,821.764 243.224,821.764 243.492,821.764 243.501,821.66 243.197,821.66 
	242.565,821.66 242.574,821.754 "/>
<polygon fill="#FFFFFF" points="242.837,820.895 243.182,820.895 243.578,820.895 243.588,820.791 243.276,820.791 242.71,820.791 
	242.482,820.791 242.492,820.895 "/>
<polygon fill="#FFFFFF" points="242.563,821.639 243.504,821.639 243.514,821.536 242.564,821.536 242.553,821.536 242.554,821.547 
	"/>
<polygon fill="#FFFFFF" points="243.062,822.26 243.354,822.26 243.442,822.26 243.452,822.156 243.327,822.156 242.963,822.156 
	242.613,822.156 242.622,822.26 "/>
<polygon fill="#FFFFFF" points="242.703,821.887 243.257,821.887 243.479,821.887 243.489,821.784 243.23,821.784 242.604,821.784 
	242.577,821.784 242.587,821.887 "/>
<polygon fill="#FFFFFF" points="242.823,822.011 243.289,822.011 243.467,822.011 243.477,821.908 243.262,821.908 242.724,821.908 
	242.589,821.908 242.599,822.011 "/>
<polygon fill="#FFFFFF" points="242.541,821.887 242.53,821.784 242.464,821.784 242.324,821.784 242.259,821.784 242.259,821.852 
	242.259,821.887 242.464,821.887 "/>
<polygon fill="#FFFFFF" points="242.802,824.615 242.791,824.498 242.792,824.514 242.464,824.514 242.259,824.514 242.259,824.615 
	242.464,824.615 "/>
<polygon fill="#FFFFFF" points="242.464,825.98 242.615,825.98 242.933,825.98 242.922,825.862 242.923,825.878 242.515,825.878 
	242.464,825.878 242.407,825.878 242.259,825.878 242.259,825.98 242.308,825.98 "/>
<polygon fill="#FFFFFF" points="242.735,826.104 242.945,826.104 242.945,826.105 242.936,826.002 242.635,826.002 242.464,826.002 
	242.287,826.002 242.259,826.002 242.259,826.031 242.259,826.104 242.464,826.104 "/>
<polygon fill="#FFFFFF" points="242.969,826.353 242.968,826.345 242.959,826.25 242.959,826.25 242.876,826.25 242.464,826.25 
	242.259,826.25 242.259,826.353 242.464,826.353 "/>
<polygon fill="#FFFFFF" points="242.855,826.229 242.957,826.229 242.947,826.126 242.756,826.126 242.464,826.126 242.259,826.126 
	242.259,826.229 242.464,826.229 "/>
<polygon fill="#FFFFFF" points="243.821,826.126 243.268,826.126 243.104,826.126 243.094,826.229 243.295,826.229 243.821,826.229 
	"/>
<polygon fill="#FFFFFF" points="242.814,824.74 242.804,824.637 242.464,824.637 242.259,824.637 242.259,824.74 242.464,824.74 "/>
<polygon fill="#FFFFFF" points="242.874,825.36 242.864,825.258 242.464,825.258 242.259,825.258 242.259,825.36 242.464,825.36 "/>
<polygon fill="#FFFFFF" points="242.862,825.236 242.864,825.256 242.852,825.133 242.464,825.133 242.259,825.133 242.259,825.236 
	242.464,825.236 "/>
<polygon fill="#FFFFFF" points="242.981,826.477 242.983,826.494 242.971,826.374 242.464,826.374 242.259,826.374 242.259,826.477 
	242.464,826.477 "/>
<polygon fill="#FFFFFF" points="243.821,826.498 243.807,826.498 243.367,826.498 243.117,826.498 243.067,826.498 243.057,826.601 
	243.217,826.601 243.395,826.601 243.708,826.601 243.821,826.601 "/>
<polygon fill="#FFFFFF" points="243.821,826.621 243.687,826.621 243.4,826.621 243.238,826.621 243.054,826.621 243.048,826.684 
	243.048,826.725 243.337,826.725 243.428,826.725 243.587,826.725 243.821,826.725 "/>
<polygon fill="#FFFFFF" points="243.821,826.374 243.334,826.374 243.079,826.374 243.071,826.45 243.069,826.477 243.096,826.477 
	243.361,826.477 243.821,826.477 "/>
<polygon fill="#FFFFFF" points="243.821,826.25 243.301,826.25 243.091,826.25 243.081,826.353 243.328,826.353 243.821,826.353 "/>
<polygon fill="#FFFFFF" points="243.821,826.746 243.566,826.746 243.433,826.746 243.358,826.746 243.048,826.746 243.048,826.849 
	243.458,826.849 243.461,826.849 243.467,826.849 243.821,826.849 "/>
<polygon fill="#FFFFFF" points="243.77,827.051 243.77,827.041 243.77,827.017 243.77,826.994 243.595,826.994 243.507,826.994 
	243.329,826.994 243.048,826.994 243.048,827.098 243.232,827.098 243.539,827.098 243.692,827.098 243.77,827.098 "/>
<polygon fill="#FFFFFF" points="243.77,827.179 243.77,827.175 243.77,827.164 243.77,827.119 243.712,827.119 243.546,827.119 
	243.212,827.119 243.048,827.119 243.048,827.221 243.116,827.221 243.578,827.221 243.77,827.221 "/>
<polygon fill="#FFFFFF" points="243.77,826.97 243.816,826.97 243.821,826.97 243.821,826.87 243.478,826.87 243.467,826.87 
	243.446,826.87 243.048,826.87 243.048,826.973 243.349,826.973 243.5,826.973 243.575,826.973 243.77,826.973 "/>
<polygon fill="#FFFFFF" points="242.993,826.601 242.983,826.498 242.464,826.498 242.259,826.498 242.259,826.601 242.464,826.601 
	"/>
<polygon fill="#FFFFFF" points="242.778,824.368 242.78,824.387 242.769,824.266 242.464,824.266 242.259,824.266 242.259,824.368 
	242.464,824.368 "/>
<polygon fill="#FFFFFF" points="242.436,820.791 242.259,820.791 242.259,820.895 242.445,820.895 "/>
<polygon fill="#FFFFFF" points="242.464,821.764 242.528,821.764 242.522,821.7 242.519,821.66 242.484,821.66 242.464,821.66 
	242.444,821.66 242.259,821.66 242.259,821.764 242.344,821.764 "/>
<polygon fill="#FFFFFF" points="242.436,820.791 242.422,820.65 242.423,820.668 242.259,820.668 242.259,820.771 242.433,820.771 
	"/>
<polygon fill="#FFFFFF" points="242.464,821.639 242.516,821.639 242.519,821.656 242.517,821.639 242.512,821.59 242.507,821.536 
	242.464,821.536 242.364,821.536 242.259,821.536 242.259,821.639 242.464,821.639 "/>
<polygon fill="#FFFFFF" points="242.464,821.515 242.505,821.515 242.507,821.533 242.493,821.393 242.495,821.412 242.464,821.412 
	242.259,821.412 242.259,821.428 242.259,821.515 242.343,821.515 "/>
<polygon fill="#FFFFFF" points="242.352,819.924 242.259,819.924 242.259,820.026 242.362,820.026 "/>
<polygon fill="#FFFFFF" points="242.352,819.924 242.34,819.8 242.26,819.8 242.259,819.902 242.35,819.902 "/>
<polygon fill="#FFFFFF" points="242.416,820.592 242.412,820.544 242.259,820.544 242.259,820.596 242.259,820.646 242.421,820.646 
	"/>
<polygon fill="#FFFFFF" points="242.411,820.535 242.398,820.404 242.4,820.42 242.259,820.42 242.259,820.521 242.41,820.521 "/>
<polygon fill="#FFFFFF" points="242.576,822.26 242.566,822.156 242.464,822.156 242.259,822.156 242.259,822.26 242.464,822.26 "/>
<polygon fill="#FFFFFF" points="242.464,823.748 242.479,823.748 242.516,823.748 242.719,823.748 242.721,823.768 242.718,823.731 
	242.708,823.629 242.709,823.645 242.545,823.645 242.464,823.645 242.375,823.645 242.259,823.645 242.259,823.676 
	242.259,823.738 242.259,823.748 242.455,823.748 "/>
<polygon fill="#FFFFFF" points="242.767,824.244 242.756,824.132 242.757,824.141 242.464,824.141 242.259,824.141 242.259,824.244 
	242.464,824.244 "/>
<polygon fill="#FFFFFF" points="242.755,824.119 242.746,824.027 242.745,824.018 242.737,824.018 242.464,824.018 242.259,824.018 
	242.259,824.119 242.464,824.119 "/>
<polygon fill="#FFFFFF" points="242.339,819.786 242.33,819.693 242.327,819.662 242.328,819.676 242.26,819.676 242.26,819.77 
	242.26,819.777 242.338,819.777 "/>
<polygon fill="#FFFFFF" points="242.552,822.011 242.554,822.022 242.542,821.896 242.542,821.908 242.464,821.908 242.259,821.908 
	242.259,822.011 242.464,822.011 "/>
<polygon fill="#FFFFFF" points="242.564,822.135 242.566,822.154 242.555,822.032 242.464,822.032 242.259,822.032 242.259,822.135 
	242.464,822.135 "/>
<polygon fill="#FFFFFF" points="242.684,823.375 242.672,823.258 242.673,823.273 242.464,823.273 242.259,823.273 242.259,823.375 
	242.464,823.375 "/>
<polygon fill="#FFFFFF" points="243.317,823.514 243.316,823.521 243.316,823.521 "/>
<polygon fill="#FFFFFF" points="242.791,824.492 242.781,824.389 242.464,824.389 242.259,824.389 242.259,824.492 242.464,824.492 
	"/>
<polygon fill="#FFFFFF" points="242.85,825.111 242.847,825.089 242.84,825.01 242.75,825.01 242.464,825.01 242.259,825.01 
	242.259,825.111 242.464,825.111 "/>
<polygon fill="#FFFFFF" points="243.468,828.11 243.181,828.11 243.181,828.129 243.181,828.213 243.46,828.213 243.468,828.213 "/>
<rect x="243.181" y="828.234" fill="#FFFFFF" width="0.288" height="0.104"/>
<rect x="243.181" y="827.986" fill="#FFFFFF" width="0.288" height="0.103"/>
<polygon fill="#FFFFFF" points="243.468,827.911 243.468,827.863 243.181,827.863 243.181,827.911 243.181,827.965 243.468,827.965 
	"/>
<polygon fill="#FFFFFF" points="243.468,828.607 243.181,828.607 243.181,828.661 243.181,828.709 243.226,828.709 243.468,828.709 
	"/>
<rect x="243.181" y="827.738" fill="#FFFFFF" width="0.288" height="0.103"/>
<polygon fill="#FFFFFF" points="243.181,828.834 243.345,828.834 243.468,828.834 243.468,828.73 243.247,828.73 243.181,828.73 "/>
<rect x="243.181" y="828.358" fill="#FFFFFF" width="0.288" height="0.103"/>
<rect x="243.181" y="828.482" fill="#FFFFFF" width="0.288" height="0.103"/>
<polygon fill="#FFFFFF" points="243.045,826.243 243.006,826.25 243.017,826.373 243.016,826.353 243.035,826.353 "/>
<path fill="#FFFFFF" d="M242.464,827.221h0.538v-0.102h-0.538h-0.205v0.078c0.059,0.008,0.119,0.016,0.178,0.023H242.464z"/>
<polygon fill="#FFFFFF" points="243.057,826.126 242.994,826.126 243.003,826.229 243.047,826.229 "/>
<polygon fill="#FFFFFF" points="243.033,826.371 243.018,826.374 243.025,826.449 "/>
<path fill="#FFFFFF" d="M243.002,827.242h-0.412c0.137,0.02,0.274,0.041,0.412,0.063V827.242z"/>
<polygon fill="#FFFFFF" points="243.002,827.098 243.002,826.994 242.464,826.994 242.259,826.994 242.259,827.098 242.464,827.098 
	"/>
<polygon fill="#FFFFFF" points="243.77,827.422 243.77,827.412 243.77,827.366 243.625,827.366 243.181,827.366 243.181,827.373 
	243.181,827.435 243.181,827.469 243.657,827.469 243.77,827.469 "/>
<polygon fill="#FFFFFF" points="243.468,827.614 243.181,827.614 243.181,827.623 243.181,827.717 243.468,827.717 "/>
<polygon fill="#FFFFFF" points="243.468,827.557 243.468,827.511 243.515,827.511 243.67,827.511 243.77,827.511 243.77,827.49 
	243.664,827.49 243.181,827.49 243.181,827.594 243.468,827.594 "/>
<path fill="#FFFFFF" d="M243.77,827.298v-0.009v-0.047h-0.185h-0.49h-0.047v0.051v0.019c0.031,0.005,0.062,0.01,0.093,0.015
	l0.04,0.007v0.012h0.437h0.152V827.298z"/>
<path fill="#FFFFFF" d="M245.124,822.736c-0.146-0.01-0.292-0.014-0.44-0.012c-0.025,0-0.05,0.001-0.075,0.002
	c0,0.006,0.001,0.014,0.001,0.02c0.012,0.164,0.026,0.326,0.041,0.486c0.013,0.143,0.026,0.285,0.041,0.426
	c0.007,0.066,0.014,0.133,0.021,0.199c0.007,0.066,0.014,0.133,0.021,0.197c0.167,0,0.334,0.009,0.501,0.023
	c0.101,0.008,0.202,0.018,0.303,0.029c0-0.148,0-0.299-0.001-0.449l0,0c0-0.086,0-0.172-0.001-0.257
	c-0.002-0.206-0.003-0.413-0.006-0.62c-0.054-0.008-0.108-0.015-0.162-0.021C245.286,822.75,245.205,822.742,245.124,822.736z"/>
<path fill="#FFFFFF" d="M244.648,818.502c-0.01,0.066-0.02,0.131-0.029,0.195c-0.02,0.137-0.037,0.27-0.05,0.395
	c-0.005,0.046-0.01,0.09-0.014,0.134c-0.007,0.064-0.012,0.128-0.017,0.188c-0.003,0.036-0.006,0.071-0.007,0.104
	c-0.005,0.082-0.009,0.158-0.01,0.229l-0.001,0.047c0.035-0.002,0.07-0.004,0.106-0.006c0.084-0.003,0.169-0.004,0.254-0.004
	c0.188,0.002,0.378,0.013,0.567,0.031c-0.003-0.071-0.006-0.141-0.009-0.212c-0.007-0.17-0.014-0.341-0.021-0.511
	c-0.008-0.188-0.017-0.374-0.026-0.561c-0.192-0.021-0.385-0.033-0.581-0.032C244.756,818.5,244.702,818.5,244.648,818.502z"/>
<path fill="#FFFFFF" d="M244.95,821.385c-0.137-0.006-0.275-0.008-0.415-0.002c0,0.002,0,0.004,0,0.006
	c0.004,0.111,0.009,0.222,0.014,0.332c0.013,0.283,0.028,0.563,0.048,0.836c0.205-0.006,0.409,0,0.614,0.016
	c0.021,0.002,0.044,0.003,0.066,0.006c0.014,0,0.029,0.002,0.042,0.004c0.01,0,0.019,0.001,0.029,0.002
	c0.059,0.006,0.118,0.012,0.177,0.02c-0.001-0.021-0.001-0.041-0.001-0.06c-0.001-0.077-0.002-0.153-0.004-0.229
	c-0.005-0.292-0.011-0.585-0.019-0.876c-0.154-0.023-0.309-0.041-0.466-0.051C245.007,821.387,244.978,821.386,244.95,821.385z"/>
<path fill="#FFFFFF" d="M244.641,819.957c-0.041,0.002-0.082,0.005-0.123,0.008c-0.002,0.227-0.002,0.451,0,0.674
	c0.001,0.052,0.001,0.104,0.003,0.156c0.001,0.096,0.003,0.191,0.005,0.287c0.001,0.043,0.002,0.087,0.003,0.131
	c0.114-0.004,0.228-0.004,0.342-0.001c0.208,0.005,0.417,0.022,0.625,0.048c-0.001-0.049-0.003-0.097-0.004-0.145
	c-0.007-0.231-0.014-0.463-0.022-0.695c-0.001-0.057-0.004-0.113-0.006-0.171c-0.002-0.055-0.004-0.109-0.006-0.164
	c-0.001-0.032-0.002-0.063-0.003-0.095c-0.138-0.018-0.276-0.027-0.414-0.033C244.907,819.951,244.774,819.951,244.641,819.957z"/>
<polygon fill="#FFFFFF" points="248.424,828.484 248.767,828.484 249.701,828.484 250.184,828.484 250.184,828.446 250.184,828.254 
	250.184,827.193 250.184,827.113 250.184,826.965 250.184,826.559 250.184,826.154 250.184,825.424 250.184,824.673 
	250.184,824.277 250.184,824.121 250.184,823.879 250.184,823.688 250.184,823.17 250.14,823.17 249.526,823.17 249.458,823.17 
	248.469,823.17 248.424,823.17 247.759,823.17 247.759,823.576 247.759,824.277 247.759,824.896 247.759,824.984 247.759,825.427 
	247.759,825.855 247.759,826.36 247.759,826.566 247.759,827.287 247.759,827.713 247.759,828.143 247.759,828.484 248.083,828.484 
	"/>
<polygon fill="#FFFFFF" points="247.083,824.222 247.126,824.222 247.228,824.222 247.648,824.222 247.509,824.077 247.303,823.863 
	247.095,823.863 246.742,823.863 246.28,823.863 246.093,824.058 245.936,824.222 246.495,824.222 "/>
<polygon fill="#FFFFFF" points="248.424,828.528 248.125,828.528 247.852,828.528 247.852,828.706 248.294,828.706 248.424,828.706 
	248.555,828.706 250.091,828.706 250.091,828.648 250.091,828.528 249.806,828.528 248.724,828.528 "/>
<path fill="#FFFFFF" d="M245.531,825.045c0.001-0.078,0.002-0.157,0.002-0.236c0-0.084,0.001-0.166,0.001-0.25
	c0-0.076,0.001-0.154,0.002-0.232c-0.241-0.037-0.486-0.059-0.732-0.063c-0.016,0-0.031,0-0.047,0
	c0.041,0.344,0.085,0.674,0.131,0.989c0.009,0.061,0.018,0.122,0.027,0.182c0.203,0.007,0.406,0.024,0.61,0.05
	C245.527,825.338,245.529,825.192,245.531,825.045z"/>
<path fill="#FFFFFF" d="M249.471,823.112h0.04h0.624h0.049v-0.485v-0.08v-0.148v-0.068c-0.069-0.02-0.138-0.038-0.207-0.055
	c-0.34-0.082-0.671-0.119-0.993-0.108c-0.124,0.003-0.247,0.015-0.367,0.032c-0.065,0.01-0.129,0.021-0.193,0.033
	c-0.095,0.02-0.188,0.044-0.281,0.072c-0.028,0.008-0.055,0.017-0.083,0.025v0.064v0.718h0.364H249.471z"/>
<path fill="#FFFFFF" d="M244.713,825.432h0.003h0.003c0.032,0,0.063,0,0.094,0c-0.005-0.027-0.009-0.058-0.013-0.086
	c-0.05-0.344-0.099-0.705-0.144-1.082c-0.014,0-0.027,0.001-0.04,0.002c-0.171,0.004-0.345,0.018-0.521,0.041
	c-0.042,0.006-0.084,0.012-0.127,0.02c-0.001,0.017-0.003,0.033-0.003,0.05c-0.004,0.051-0.007,0.101-0.011,0.151
	c-0.014,0.194-0.028,0.387-0.042,0.58c-0.01,0.129-0.02,0.259-0.03,0.389c0.275-0.045,0.55-0.064,0.826-0.064
	C244.71,825.432,244.712,825.432,244.713,825.432z"/>
<path fill="#FFFFFF" d="M244.093,826.97h0.007h0.142h0.835c-0.01-0.048-0.019-0.098-0.028-0.147
	c-0.052-0.271-0.103-0.564-0.154-0.873c-0.011-0.064-0.021-0.128-0.031-0.192c-0.006-0.039-0.012-0.077-0.018-0.116
	c-0.011,0-0.023,0-0.035,0c-0.095-0.002-0.191,0-0.288,0.004c-0.171,0.008-0.342,0.023-0.517,0.051
	c-0.046,0.008-0.092,0.016-0.138,0.023v0.035v0.102v0.047v0.041v0.012v0.025v0.021v0.025v0.052v0.025v0.021v0.024v0.053v0.025v0.021
	v0.024v0.054v0.018v0.028v0.103v0.047v0.052v0.046v0.104v0.047v0.031v0.021v0.024v0.021v0.025v0.052v0.022h0.202H244.093z"/>
<path fill="#FFFFFF" d="M245.05,826.264c0.042,0.246,0.085,0.479,0.128,0.697c0,0.002,0,0.006,0.001,0.009h0.007h0.082h0.163h0.056
	c0.001-0.021,0.001-0.04,0.002-0.062c0.011-0.32,0.02-0.64,0.027-0.959c0.001-0.083,0.004-0.165,0.005-0.247
	c-0.189-0.028-0.381-0.048-0.574-0.058c0.016,0.104,0.032,0.204,0.049,0.305C245.014,826.056,245.032,826.161,245.05,826.264z"/>
<path fill="#FFFFFF" d="M244.571,824.057c0.009,0,0.019,0,0.028,0c0.003,0,0.007-0.001,0.011-0.001h0
	c0.007,0,0.015-0.001,0.022-0.001c-0.009-0.08-0.018-0.16-0.026-0.242c-0.005-0.051-0.011-0.103-0.016-0.154l0,0
	c-0.011-0.109-0.021-0.219-0.032-0.33c-0.017-0.183-0.033-0.366-0.047-0.554c-0.001-0.015-0.002-0.028-0.003-0.044
	c-0.088,0.006-0.177,0.014-0.267,0.023c-0.06,0.006-0.12,0.014-0.18,0.023c-0.012,0.218-0.024,0.436-0.037,0.653
	c-0.004,0.076-0.009,0.151-0.014,0.228c-0.009,0.149-0.018,0.298-0.028,0.445c0.015-0.001,0.03-0.002,0.045-0.005
	C244.209,824.075,244.39,824.063,244.571,824.057z"/>
<path fill="#FFFFFF" d="M244.421,819.744c0.001-0.055,0.003-0.111,0.007-0.172c0.004-0.081,0.01-0.168,0.018-0.258
	c0.004-0.043,0.008-0.086,0.013-0.13c0.003-0.03,0.006-0.062,0.01-0.093c0.01-0.088,0.021-0.178,0.034-0.271
	c0.013-0.102,0.028-0.207,0.044-0.313c-0.101,0.006-0.203,0.015-0.305,0.028c-0.007,0-0.013,0.001-0.02,0.002
	c-0.005,0.174-0.009,0.346-0.014,0.52c0,0.012,0,0.023-0.001,0.035c0,0.025-0.001,0.051-0.001,0.076
	c-0.005,0.177-0.011,0.354-0.016,0.531c-0.002,0.041-0.003,0.082-0.004,0.123c0.078-0.01,0.156-0.018,0.235-0.023L244.421,819.744z"
	/>
<path fill="#FFFFFF" d="M244.497,822.561c-0.021-0.313-0.04-0.63-0.053-0.953c-0.003-0.072-0.006-0.145-0.009-0.219v-0.001
	c-0.005,0-0.01,0.001-0.016,0.001c-0.055,0.004-0.109,0.008-0.164,0.014c-0.004,0-0.009,0.002-0.013,0.002
	c-0.005,0-0.011,0.001-0.016,0.002c-0.033,0.003-0.066,0.007-0.099,0.011c-0.001,0.033-0.003,0.065-0.004,0.099
	c-0.009,0.213-0.019,0.426-0.029,0.639c-0.004,0.078-0.007,0.156-0.011,0.232c-0.003,0.07-0.007,0.141-0.01,0.21
	c0.057-0.007,0.113-0.013,0.17-0.019C244.327,822.57,244.412,822.564,244.497,822.561z"/>
<path fill="#FFFFFF" d="M244.43,821.217c0-0.01,0-0.02-0.001-0.03c-0.004-0.144-0.007-0.288-0.009-0.433
	c-0.001-0.078-0.002-0.156-0.002-0.234c-0.001-0.182-0.001-0.363,0-0.547c-0.079,0.008-0.158,0.018-0.238,0.028
	c-0.002,0.075-0.005,0.151-0.008,0.227c-0.005,0.14-0.009,0.279-0.015,0.419c-0.008,0.198-0.015,0.396-0.023,0.593
	c0.088-0.009,0.177-0.017,0.265-0.021C244.41,821.217,244.42,821.217,244.43,821.217z"/>
<polygon fill="#FFFFFF" points="243.06,826.104 243.069,826.002 242.982,826.002 242.992,826.104 "/>
<polygon fill="#FFFFFF" points="243.109,825.608 243.119,825.506 242.935,825.506 242.944,825.608 "/>
<polygon fill="#FFFFFF" points="243.121,825.484 243.131,825.381 242.922,825.381 242.932,825.484 "/>
<polygon fill="#FFFFFF" points="242.92,825.36 243.133,825.36 243.141,825.285 243.144,825.258 243.075,825.258 243.017,825.258 
	242.91,825.258 242.92,825.356 "/>
<polygon fill="#FFFFFF" points="243.182,822.383 243.386,822.383 243.429,822.383 243.428,822.395 243.439,822.281 243.36,822.281 
	243.083,822.281 242.625,822.281 242.634,822.383 "/>
<polygon fill="#FFFFFF" points="243.096,825.732 243.108,825.613 243.106,825.629 242.946,825.629 242.956,825.732 "/>
<polygon fill="#FFFFFF" points="242.766,823.748 243.294,823.748 243.295,823.731 243.304,823.645 242.756,823.645 242.764,823.731 
	"/>
<polygon fill="#FFFFFF" points="243.071,825.98 243.082,825.878 242.97,825.878 242.98,825.98 "/>
<polygon fill="#FFFFFF" points="243.152,825.111 243.158,825.111 243.158,825.105 243.168,825.01 242.887,825.01 242.896,825.111 
	"/>
<polygon fill="#FFFFFF" points="242.968,825.855 243.083,825.855 243.087,825.825 243.087,825.824 243.094,825.754 242.958,825.754 
	242.965,825.824 242.965,825.825 "/>
<polygon fill="#FFFFFF" points="243.028,825.236 243.038,825.236 243.146,825.236 243.157,825.126 243.139,825.127 242.902,825.133 
	242.898,825.133 242.909,825.236 "/>
<polygon fill="#FFFFFF" points="242.801,824.119 242.834,824.119 243.257,824.119 243.267,824.018 242.792,824.018 242.797,824.081 
	"/>
<polygon fill="#FFFFFF" points="243.269,823.996 243.271,823.977 243.279,823.894 242.996,823.894 242.779,823.894 242.789,823.996 
	"/>
<polygon fill="#FFFFFF" points="242.777,823.871 242.926,823.871 243.281,823.871 243.292,823.77 242.768,823.77 242.773,823.825 
	"/>
<polygon fill="#FFFFFF" points="242.953,824.244 243.245,824.244 243.254,824.141 242.855,824.141 242.803,824.141 242.813,824.244 
	"/>
<polygon fill="#FFFFFF" points="243.19,824.492 243.22,824.492 243.23,824.389 243.092,824.389 242.827,824.389 242.837,824.492 "/>
<polygon fill="#FFFFFF" points="243.208,824.615 243.217,824.52 243.218,824.506 243.204,824.506 242.839,824.514 242.849,824.615 
	"/>
<polygon fill="#FFFFFF" points="243.195,824.74 243.207,824.619 242.851,824.637 242.861,824.74 "/>
<polygon fill="#FFFFFF" points="243.071,824.368 243.232,824.368 243.242,824.266 242.974,824.266 242.815,824.266 242.825,824.368 
	"/>
<polygon fill="#FFFFFF" points="242.873,824.863 243.183,824.863 243.191,824.777 243.193,824.762 242.863,824.762 242.864,824.777 
	"/>
<polygon fill="#FFFFFF" points="242.671,823.252 242.616,822.674 242.577,822.266 242.578,822.281 242.464,822.281 242.259,822.281 
	242.259,822.383 242.464,822.383 242.588,822.383 242.59,822.404 242.464,822.404 242.259,822.404 242.259,822.507 242.464,822.507 
	242.6,822.507 242.602,822.529 242.464,822.529 242.262,822.529 242.259,822.529 242.259,822.631 242.388,822.631 242.464,822.631 
	242.612,822.631 242.614,822.652 242.464,822.652 242.414,822.652 242.259,822.652 242.259,822.693 242.259,822.756 
	242.464,822.756 242.624,822.756 242.626,822.776 242.464,822.776 242.259,822.776 242.259,822.879 242.464,822.879 
	242.636,822.879 242.637,822.9 242.464,822.9 242.259,822.9 242.259,823.004 242.464,823.004 242.647,823.004 242.65,823.025 
	242.464,823.025 242.259,823.025 242.259,823.127 242.464,823.127 242.659,823.127 242.662,823.148 242.464,823.148 
	242.259,823.148 242.259,823.252 242.464,823.252 "/>
<polygon fill="#FFFFFF" points="242.724,824.988 242.838,824.988 242.818,824.777 242.816,824.762 242.464,824.762 242.259,824.762 
	242.259,824.781 242.259,824.863 242.464,824.863 242.571,824.863 242.826,824.863 242.828,824.885 242.597,824.885 
	242.464,824.885 242.259,824.885 242.259,824.988 242.464,824.988 "/>
<polygon fill="#FFFFFF" points="242.464,823.623 242.566,823.623 242.707,823.623 242.694,823.487 242.686,823.396 242.464,823.396 
	242.259,823.396 242.259,823.5 242.464,823.5 242.683,823.5 242.695,823.5 242.697,823.521 242.663,823.521 242.464,823.521 
	242.259,823.521 242.259,823.523 242.259,823.623 242.354,823.623 "/>
<polygon fill="#FFFFFF" points="242.716,823.996 242.743,823.996 242.725,823.811 242.721,823.77 242.587,823.77 242.5,823.77 
	242.464,823.77 242.435,823.77 242.259,823.77 242.259,823.871 242.338,823.871 242.464,823.871 242.598,823.871 242.731,823.871 
	242.733,823.894 242.618,823.894 242.464,823.894 242.318,823.894 242.259,823.894 242.259,823.955 242.259,823.996 
	242.464,823.996 "/>
<polygon fill="#FFFFFF" points="242.942,822.135 243.322,822.135 243.455,822.135 243.454,822.145 243.464,822.032 243.295,822.032 
	242.843,822.032 242.601,822.032 242.61,822.135 "/>
<polygon fill="#FFFFFF" points="242.464,825.855 242.494,825.855 242.921,825.855 242.918,825.825 242.918,825.824 242.9,825.629 
	242.654,825.629 242.464,825.629 242.274,825.629 242.259,825.629 242.259,825.732 242.374,825.732 242.464,825.732 
	242.554,825.732 242.909,825.732 242.912,825.754 242.533,825.754 242.464,825.754 242.395,825.754 242.259,825.754 
	242.259,825.824 242.259,825.855 242.428,825.855 "/>
<polygon fill="#FFFFFF" points="242.675,825.608 242.897,825.608 242.899,825.618 242.878,825.4 242.875,825.365 242.875,825.381 
	242.464,825.381 242.259,825.381 242.259,825.484 242.464,825.484 242.795,825.484 242.886,825.484 242.888,825.506 
	242.775,825.506 242.464,825.506 242.259,825.506 242.259,825.608 242.464,825.608 "/>
<polygon fill="#FFFFFF" points="242.464,826.725 243.002,826.725 243.002,826.691 243.001,826.689 242.995,826.621 242.464,826.621 
	242.259,826.621 242.259,826.705 242.259,826.725 242.282,826.725 "/>
<polygon fill="#FFFFFF" points="242.464,826.849 243.002,826.849 243.002,826.746 242.464,826.746 242.309,826.746 242.259,826.746 
	242.259,826.849 242.435,826.849 "/>
<polygon fill="#FFFFFF" points="242.493,821.391 242.464,821.088 242.445,820.896 242.447,820.916 242.259,820.916 242.259,821.019 
	242.457,821.019 242.459,821.04 242.259,821.04 242.259,821.143 242.464,821.143 242.469,821.143 242.471,821.164 242.464,821.164 
	242.259,821.164 242.259,821.267 242.464,821.267 242.481,821.267 242.483,821.288 242.464,821.288 242.259,821.288 
	242.259,821.391 242.464,821.391 "/>
<polygon fill="#FFFFFF" points="243.002,826.973 243.002,826.87 242.464,826.87 242.461,826.87 242.259,826.87 242.259,826.873 
	242.259,826.973 242.464,826.973 "/>
<polygon fill="#FFFFFF" points="242.542,821.412 242.551,821.515 242.585,821.515 243.516,821.515 243.526,821.412 242.685,821.412 
	"/>
<polygon fill="#FFFFFF" points="243.528,821.391 243.528,821.391 243.526,821.412 "/>
<polygon fill="#FFFFFF" points="242.806,821.288 242.529,821.288 242.54,821.391 242.706,821.391 243.528,821.391 243.539,821.288 
	"/>
<polygon fill="#FFFFFF" points="242.989,821.019 243.067,821.019 243.565,821.019 243.563,821.039 243.576,820.916 243.162,820.916 
	242.863,820.916 242.494,820.916 242.503,821.019 "/>
<polygon fill="#FFFFFF" points="242.363,820.031 242.364,820.047 242.259,820.047 242.259,820.15 242.374,820.15 242.375,820.172 
	242.259,820.172 242.259,820.274 242.386,820.274 242.388,820.295 242.259,820.295 242.259,820.398 242.398,820.398 "/>
<polygon fill="#FFFFFF" points="243.17,824.988 243.181,824.885 242.875,824.885 242.884,824.988 "/>
<path fill="#FFFFFF" d="M236.067,828.252c0.033-0.072,0.061-0.145,0.082-0.215c-0.094,0-0.193-0.002-0.295-0.004
	c-0.002,0.015-0.004,0.03-0.006,0.045c-0.008,0.057-0.018,0.115-0.028,0.174h0.174H236.067z"/>
<path fill="#FFFFFF" d="M235.369,828.252h0.151c0-0.025,0.001-0.053,0.001-0.08c0-0.046,0-0.094-0.001-0.145
	c-0.132-0.002-0.264-0.005-0.393-0.008c0.011,0.075,0.023,0.152,0.04,0.232H235.369z"/>
<path fill="#FFFFFF" d="M236.625,828.252c0.03-0.067,0.055-0.138,0.072-0.209c-0.039,0-0.083,0-0.132,0h-0.014
	c-0.024,0.068-0.056,0.139-0.096,0.209h0.128H236.625z"/>
<path fill="#FFFFFF" d="M236.5,828.042c-0.09-0.001-0.193-0.001-0.303-0.003c-0.021,0.069-0.046,0.141-0.079,0.213h0.282
	C236.442,828.182,236.475,828.111,236.5,828.042z"/>
<path fill="#FFFFFF" d="M235.834,827.604c0-0.104-0.004-0.202-0.012-0.294c-0.098,0.001-0.196,0-0.292-0.001
	c0.006,0.097,0.012,0.196,0.017,0.294C235.644,827.604,235.74,827.604,235.834,827.604z"/>
<path fill="#FFFFFF" d="M235.518,827.98c-0.001-0.084-0.005-0.175-0.01-0.268c-0.001-0.021-0.002-0.043-0.003-0.064
	c-0.019,0-0.038,0-0.057,0c-0.12-0.002-0.239-0.004-0.353-0.006c0.003,0.105,0.011,0.215,0.026,0.33
	C235.251,827.976,235.385,827.979,235.518,827.98z"/>
<path fill="#FFFFFF" d="M234.635,826.764c-0.005,0.008-0.01,0.016-0.016,0.023h0.021h0.017h0.03v0.033v0.014v0.097
	c0.033,0.003,0.069,0.007,0.106,0.009h0c0.036-0.09,0.077-0.172,0.119-0.243c-0.084-0.01-0.156-0.021-0.209-0.029
	C234.682,826.695,234.659,826.729,234.635,826.764z"/>
<path fill="#FFFFFF" d="M234.749,828.045c-0.004-0.012-0.008-0.022-0.012-0.033l-0.019-0.001l-0.031-0.001v0.242h0.146
	C234.798,828.182,234.771,828.112,234.749,828.045z"/>
<path fill="#FFFFFF" d="M234.884,828.252h0.051h0.141h0.043c-0.016-0.08-0.029-0.158-0.04-0.233
	c-0.001-0.001-0.003-0.001-0.003-0.001c-0.101-0.001-0.198-0.004-0.29-0.005c0.013,0.041,0.028,0.083,0.046,0.126
	C234.848,828.176,234.865,828.213,234.884,828.252z"/>
<path fill="#FFFFFF" d="M235.965,826.656c0.057-0.008,0.112-0.018,0.167-0.029c-0.089-0.057-0.186-0.104-0.288-0.138
	C235.878,826.531,235.92,826.588,235.965,826.656z"/>
<path fill="#FFFFFF" d="M229.539,827.66v-0.129c-0.051,0-0.103,0-0.154-0.002c0.005,0.098,0.009,0.193,0.012,0.285
	c0.002,0.05,0.003,0.1,0.004,0.146l0.138,0.004V827.66z"/>
<path fill="#FFFFFF" d="M229.539,828.312v-0.058v-0.207v-0.022c-0.02-0.001-0.039-0.001-0.059-0.001
	c-0.026,0-0.052-0.001-0.078-0.001c0,0.023,0,0.046,0,0.069c0.001,0.078,0,0.152-0.001,0.22H229.539z"/>
<path fill="#FFFFFF" d="M236.615,827.73L236.615,827.73c-0.006,0.088-0.021,0.176-0.049,0.266c0.053,0,0.101,0.001,0.142,0
	c0.01-0.045,0.017-0.094,0.021-0.142c0.004-0.042,0.006-0.085,0.006-0.13c0-0.032,0-0.064-0.004-0.098
	c-0.037,0.004-0.075,0.005-0.114,0.007C236.618,827.666,236.617,827.698,236.615,827.73z"/>
<path fill="#FFFFFF" d="M231.331,820.111c-0.004-0.003-0.01-0.006-0.015-0.008v0.023v0.511v0.516v0.522v0.526v0.114v0.413v0.515
	v0.377v0.154v0.537v0.4c0.139-0.078,0.298-0.123,0.469-0.123c0.013,0,0.026,0.002,0.039,0.002c0.156,0.006,0.303,0.05,0.432,0.122
	v-0.494v-0.321v-0.13v-0.457v-0.601v-0.588v-0.447v-0.442v-0.255v-0.351v-0.524c-0.101,0.061-0.214,0.102-0.335,0.119v0.273h-0.096
	h-0.173v-0.273C231.535,820.207,231.428,820.167,231.331,820.111z"/>
<path fill="#FFFFFF" d="M229.539,827.43v-0.146l-0.179-0.188c0.007,0.11,0.014,0.224,0.02,0.335c0.001,0.014,0.002,0.027,0.002,0.04
	c0.053,0.001,0.105,0.001,0.157,0.001V827.43z"/>
<path fill="#FFFFFF" d="M232.298,826.341c-0.148,0.096-0.324,0.151-0.513,0.151c-0.105,0-0.206-0.018-0.3-0.05
	c-0.076-0.025-0.147-0.059-0.212-0.102l-0.242,0.446h0.455h0.473h0.582l-0.212-0.393L232.298,826.341z"/>
<path fill="#FFFFFF" d="M232.349,825.605c-0.177-0.035-0.375-0.05-0.568-0.051c-0.063,0-0.125,0-0.186,0.002
	c-0.122,0.004-0.239,0.012-0.344,0.021c-0.15,0.014-0.279,0.03-0.37,0.043c0.015,0.174,0.079,0.333,0.177,0.465l0.112,0.125
	c0.025,0.023,0.053,0.045,0.082,0.065c0.003,0.003,0.006,0.004,0.008,0.006c0.009,0.007,0.018,0.013,0.027,0.019
	c0.143,0.095,0.314,0.15,0.498,0.15s0.355-0.057,0.498-0.15c0.016-0.01,0.03-0.021,0.044-0.031c0.008-0.006,0.016-0.012,0.024-0.018
	c0.166-0.133,0.285-0.322,0.325-0.54C232.581,825.664,232.469,825.631,232.349,825.605z"/>
<path fill="#FFFFFF" d="M231.006,819.748c0.018,0.03,0.037,0.06,0.058,0.088c0.047,0.063,0.103,0.12,0.165,0.169
	c0.089,0.07,0.193,0.124,0.305,0.156c0.079,0.023,0.164,0.036,0.25,0.036c0.156,0,0.303-0.04,0.431-0.11
	c0.03-0.016,0.059-0.034,0.086-0.054c0.223-0.156,0.371-0.41,0.383-0.699c0-0.013,0.001-0.025,0.001-0.037
	c0-0.068-0.008-0.135-0.023-0.197c-0.042-0.188-0.142-0.354-0.281-0.477c-0.037-0.033-0.077-0.063-0.12-0.09
	c-0.067-0.043-0.141-0.076-0.219-0.1c-0.013-0.004-0.024-0.008-0.036-0.01v-0.028v-0.235v-0.998v-0.182
	c0.007-0.004,0.014-0.011,0.021-0.016c0.087-0.072,0.144-0.18,0.144-0.301c0-0.08-0.024-0.152-0.065-0.215
	c-0.032-0.047-0.074-0.088-0.124-0.117c-0.021-0.012-0.042-0.023-0.065-0.031v-0.291v-0.607h-0.063v-0.425v-0.534v-0.382v-0.151
	v-0.236v-0.049v-0.411h-0.035h-0.105v0.31v0.327v0.21v0.527v0.43v0.385h-0.063v0.32v0.578c-0.023,0.008-0.045,0.02-0.065,0.031
	c-0.021,0.013-0.042,0.027-0.061,0.045c-0.079,0.07-0.128,0.173-0.128,0.287c0,0.027,0.004,0.055,0.009,0.081
	c0.02,0.097,0.077,0.181,0.156,0.235v0.054v0.885v0.427v0.078c-0.142,0.035-0.27,0.105-0.375,0.199
	c-0.106,0.094-0.189,0.213-0.242,0.348c-0.04,0.102-0.062,0.211-0.062,0.326c0,0.065,0.007,0.129,0.021,0.191
	C230.925,819.58,230.96,819.668,231.006,819.748z"/>
<path fill="#FFFFFF" d="M231.65,825.438c0.013,0,0.027,0,0.041,0c0.22-0.004,0.45,0.009,0.658,0.047
	c0.124,0.024,0.24,0.057,0.342,0.104c0.001-0.016,0.001-0.029,0.001-0.044c0-0.138-0.031-0.269-0.086-0.386
	c-0.06-0.129-0.149-0.24-0.258-0.326c-0.105-0.082-0.229-0.143-0.363-0.173c-0.064-0.015-0.13-0.022-0.199-0.022
	c-0.069,0-0.136,0.009-0.201,0.023c-0.073,0.017-0.144,0.041-0.209,0.075c-0.044,0.022-0.086,0.049-0.126,0.078
	c-0.063,0.046-0.121,0.101-0.17,0.163c-0.022,0.027-0.043,0.057-0.063,0.088c-0.054,0.086-0.094,0.183-0.116,0.285
	c-0.011,0.049-0.019,0.1-0.021,0.152c0.093-0.014,0.222-0.031,0.371-0.043C231.373,825.447,231.508,825.439,231.65,825.438z"/>
<path fill="#FFFFFF" d="M234.848,823.805v0.303v0.539v0.154v0.378v0.513v0.414v0.112v0.292c0.063-0.031,0.129-0.057,0.197-0.077
	l0.128-0.031c0.025-0.005,0.048-0.009,0.073-0.013l0.081-0.008l0.009-0.001h0c0.022-0.002,0.045-0.003,0.07-0.003h0.042h0.004h0.006
	c0.026,0,0.052,0.002,0.076,0.004c0.015,0,0.031,0.002,0.046,0.004l0.086,0.012l0,0l0.015,0.004h0l0.015,0.002
	c0.007,0.002,0.014,0.003,0.02,0.004l0.142,0.039c0.016,0.005,0.03,0.011,0.044,0.016l0.011,0.004v-0.021h0.136h0.141v0.04h-0.102
	h-0.129c0.063,0.026,0.125,0.059,0.183,0.095l0.01,0.009h0.036h0.002v0.003v0.025l0.052,0.04v-0.013v-0.373v-0.743v-0.272v-0.319
	l-0.102-0.081l-0.254-0.207l-0.29-0.234l-0.588-0.477L234.848,823.805z"/>
<path fill="#FFFFFF" d="M235.502,827.602c-0.005-0.097-0.012-0.197-0.018-0.295c-0.125-0.002-0.249-0.006-0.367-0.01
	c-0.004,0-0.01,0-0.014,0c-0.007,0.094-0.011,0.193-0.009,0.299c0.1,0.002,0.205,0.004,0.309,0.005
	C235.437,827.602,235.469,827.602,235.502,827.602z"/>
<path fill="#FFFFFF" d="M235.957,826.967c0.039-0.004,0.079-0.006,0.117-0.01c-0.042-0.094-0.087-0.178-0.132-0.25
	c-0.056,0.007-0.113,0.014-0.17,0.018c-0.003,0-0.007,0-0.01,0c0.021,0.072,0.042,0.155,0.06,0.248
	C235.868,826.973,235.912,826.969,235.957,826.967z"/>
<path fill="#FFFFFF" d="M234.938,826.652c0.043-0.07,0.084-0.129,0.12-0.174c-0.115,0.033-0.223,0.084-0.322,0.146
	C234.791,826.633,234.859,826.644,234.938,826.652z"/>
<path fill="#FFFFFF" d="M235.775,826.975c-0.018-0.093-0.04-0.176-0.061-0.246c-0.077,0.004-0.153,0.006-0.228,0.006
	c0.006,0.074,0.013,0.156,0.02,0.242C235.595,826.979,235.686,826.978,235.775,826.975z"/>
<path fill="#FFFFFF" d="M235.077,826.529c-0.027,0.037-0.058,0.08-0.088,0.129c0.028,0.004,0.058,0.007,0.088,0.01
	c0.029,0.002,0.06,0.005,0.091,0.008c0.031-0.105,0.062-0.187,0.084-0.24c-0.041,0.006-0.081,0.013-0.119,0.022
	C235.117,826.478,235.098,826.502,235.077,826.529z"/>
<path fill="#FFFFFF" d="M235.546,826.428c-0.028-0.002-0.055-0.004-0.083-0.004c-0.001,0-0.002,0-0.003,0c0,0.002,0,0.004,0,0.006
	c0.006,0.064,0.014,0.152,0.023,0.258c0.072,0.001,0.145-0.001,0.218-0.005c-0.011-0.034-0.021-0.065-0.032-0.093
	c-0.029-0.082-0.054-0.135-0.064-0.156C235.585,826.432,235.565,826.43,235.546,826.428z"/>
<path fill="#FFFFFF" d="M235.413,826.423c-0.036,0.001-0.071,0.003-0.106,0.007c-0.021,0.049-0.056,0.134-0.09,0.248
	c0.041,0.004,0.083,0.006,0.126,0.008c0.031,0.001,0.062,0.002,0.094,0.002c-0.006-0.064-0.011-0.123-0.015-0.173
	C235.417,826.48,235.415,826.449,235.413,826.423z"/>
<path fill="#FFFFFF" d="M235.301,827.256c0.059,0.002,0.12,0.004,0.18,0.004c0,0,0-0.002,0-0.004
	c-0.006-0.079-0.012-0.157-0.017-0.232c-0.094-0.002-0.185-0.006-0.273-0.01c-0.018,0-0.035-0.001-0.051-0.002
	c-0.009,0.051-0.017,0.106-0.023,0.163c-0.003,0.024-0.006,0.049-0.009,0.075C235.171,827.252,235.235,827.254,235.301,827.256z"/>
<path fill="#FFFFFF" d="M236.185,826.662c-0.003,0-0.005,0.001-0.008,0.002c-0.061,0.014-0.122,0.025-0.184,0.036
	c0.044,0.072,0.09,0.157,0.131,0.253c0.018-0.002,0.036-0.005,0.054-0.007c0.063-0.007,0.125-0.017,0.185-0.026
	c-0.059-0.104-0.121-0.191-0.169-0.253L236.185,826.662z"/>
<path fill="#FFFFFF" d="M235.321,826.73c-0.041-0.002-0.08-0.004-0.118-0.006c-0.019,0.07-0.039,0.15-0.056,0.241
	c0.021,0.001,0.043,0.002,0.064,0.003c0.081,0.004,0.164,0.006,0.249,0.008c-0.007-0.086-0.014-0.168-0.02-0.242
	C235.399,826.732,235.359,826.732,235.321,826.73z"/>
<path fill="#FFFFFF" d="M236.444,826.976c0.04,0.078,0.077,0.165,0.106,0.257c0.029-0.002,0.058-0.006,0.085-0.009
	c-0.042-0.101-0.095-0.193-0.16-0.279c0,0-0.002,0.001-0.002,0.001c-0.013,0.002-0.027,0.006-0.04,0.008
	C236.437,826.961,236.44,826.969,236.444,826.976z"/>
<path fill="#FFFFFF" d="M236.6,827.436c0.008,0.05,0.014,0.101,0.017,0.152c0.039-0.002,0.076-0.004,0.111-0.007
	c-0.003-0.033-0.009-0.065-0.015-0.097c-0.014-0.075-0.034-0.146-0.06-0.215c-0.029,0.003-0.059,0.006-0.089,0.009
	C236.579,827.329,236.59,827.383,236.6,827.436z"/>
<path fill="#FFFFFF" d="M236.443,826.903c-0.034-0.042-0.071-0.081-0.11-0.12c0.025,0.039,0.051,0.082,0.077,0.127
	C236.421,826.908,236.433,826.905,236.443,826.903z"/>
<path fill="#FFFFFF" d="M236.549,827.863c0.012-0.062,0.018-0.121,0.02-0.181c0-0.016,0.001-0.031,0.001-0.046
	c-0.014,0-0.028,0-0.042,0.001c-0.084,0.004-0.174,0.007-0.267,0.009c-0.001,0.046-0.005,0.094-0.011,0.141
	c-0.008,0.068-0.021,0.137-0.039,0.205c0.112,0.002,0.215,0.003,0.306,0.004C236.53,827.951,236.541,827.908,236.549,827.863z"/>
<path fill="#FFFFFF" d="M235.881,827.604c0.042,0,0.083,0,0.125-0.001c0.07-0.001,0.14-0.001,0.208-0.003
	c0-0.104-0.012-0.203-0.03-0.297c-0.011,0-0.022,0-0.033,0c-0.092,0.004-0.187,0.006-0.282,0.007
	C235.877,827.401,235.882,827.5,235.881,827.604z"/>
<path fill="#FFFFFF" d="M236.385,826.963c-0.066,0.012-0.136,0.022-0.208,0.03c-0.012,0.001-0.024,0.003-0.036,0.005
	c0.013,0.032,0.025,0.066,0.037,0.101c0.013,0.039,0.024,0.079,0.035,0.121c0.003,0.012,0.006,0.022,0.009,0.034
	c0.098-0.004,0.192-0.01,0.281-0.018c-0.026-0.08-0.058-0.154-0.093-0.225C236.401,826.995,236.393,826.979,236.385,826.963z"/>
<path fill="#FFFFFF" d="M236.517,827.283c-0.078,0.006-0.159,0.011-0.243,0.015c-0.014,0.001-0.027,0.002-0.042,0.003
	c0.001,0.007,0.002,0.014,0.003,0.021c0.016,0.088,0.026,0.18,0.026,0.277c0.078-0.002,0.153-0.004,0.225-0.006
	c0.028-0.002,0.056-0.003,0.083-0.004c-0.003-0.061-0.011-0.119-0.021-0.176C236.54,827.369,236.529,827.325,236.517,827.283z"/>
<path fill="#FFFFFF" d="M236.163,827.992c0.016-0.061,0.028-0.119,0.037-0.178c0.008-0.057,0.013-0.113,0.015-0.168
	c-0.075,0.002-0.152,0.002-0.23,0.003c-0.034,0.001-0.068,0.001-0.103,0.001c-0.001,0.074-0.005,0.154-0.012,0.234
	c-0.002,0.033-0.006,0.068-0.01,0.103c0.004,0,0.008,0,0.012,0.001C235.972,827.989,236.069,827.99,236.163,827.992z"/>
<path fill="#FFFFFF" d="M235.865,827.263c0.105-0.001,0.208-0.003,0.309-0.007c0-0.002-0.001-0.006-0.002-0.008
	c-0.021-0.088-0.048-0.17-0.079-0.246c-0.034,0.004-0.067,0.006-0.102,0.008c-0.053,0.004-0.106,0.008-0.16,0.01
	c0.013,0.073,0.025,0.152,0.034,0.236C235.864,827.258,235.865,827.26,235.865,827.263z"/>
<polygon fill="#FFFFFF" points="227.582,823.586 228.057,823.586 227.742,823.373 227.742,823.309 227.742,823.015 227.742,822.835 
	227.673,822.835 227.673,822.487 227.584,822.487 227.584,822.835 227.515,822.835 227.515,823.015 227.515,823.211 
	227.515,823.381 227.439,823.431 227.418,823.444 227.2,823.586 227.43,823.586 "/>
<path fill="#FFFFFF" d="M228.826,828.312c-0.021-0.104-0.038-0.204-0.051-0.302c-0.132-0.003-0.259-0.006-0.38-0.008
	c0.032,0.102,0.075,0.204,0.127,0.31H228.826z"/>
<path fill="#FFFFFF" d="M229.262,827.959c0.005,0,0.011,0,0.017,0c0.004,0,0.008,0,0.013,0c0.009,0.001,0.019,0.001,0.029,0.002
	c0.007,0,0.015,0,0.022,0c0-0.029-0.001-0.058-0.002-0.087c-0.004-0.11-0.009-0.226-0.015-0.345c-0.081,0-0.161-0.001-0.24-0.002
	c-0.099-0.002-0.196-0.004-0.292-0.005c0.002,0.089,0.008,0.182,0.017,0.276c0.005,0.05,0.01,0.101,0.016,0.152
	C228.971,827.953,229.117,827.957,229.262,827.959z"/>
<path fill="#FFFFFF" d="M228.444,828.312h0.01c-0.051-0.106-0.092-0.209-0.124-0.312l-0.182-0.004l-0.214-0.005
	c0.04,0.106,0.093,0.213,0.163,0.32H228.444z"/>
<path fill="#FFFFFF" d="M228.929,828.312h0.38h0.036c0.002-0.086,0.002-0.183,0-0.288v-0.002c-0.001,0-0.002,0-0.002,0
	c-0.02,0-0.04-0.002-0.059-0.002c-0.026,0-0.052-0.001-0.078-0.002c-0.125-0.002-0.249-0.004-0.371-0.007
	c0.014,0.098,0.031,0.198,0.052,0.301H228.929z"/>
<path fill="#FFFFFF" d="M229.698,826.777c-0.003-0.02-0.007-0.041-0.01-0.062c-0.119,0.003-0.238,0.005-0.355,0.003
	c0.003,0.037,0.005,0.074,0.008,0.11v-0.005v-0.047h0.046H229.698z"/>
<path fill="#FFFFFF" d="M227.688,828.312h0.337c-0.066-0.108-0.118-0.216-0.156-0.321l-0.25-0.006l-0.038-0.002
	c0.011,0.049,0.023,0.096,0.038,0.143C227.638,828.188,227.661,828.252,227.688,828.312z"/>
<path fill="#FFFFFF" d="M227.687,826.949c0.046,0.004,0.103,0.008,0.17,0.012c0.037-0.119,0.082-0.23,0.131-0.332
	c-0.042-0.004-0.078-0.01-0.106-0.013C227.805,826.719,227.739,826.83,227.687,826.949z"/>
<path fill="#FFFFFF" d="M227.619,827.135c-0.024,0.078-0.042,0.16-0.055,0.242c-0.001,0.014-0.005,0.027-0.006,0.041
	c0,0.004-0.001,0.007-0.002,0.01c0.012,0.001,0.026,0.001,0.04,0.002c0.006,0,0.012,0,0.017,0c0.002,0,0.004,0,0.006,0h0
	c0.001,0,0.002,0,0.003,0c0.045,0.002,0.097,0.004,0.157,0.006c0-0.002,0-0.004,0-0.006c0.001-0.065,0.007-0.129,0.016-0.192
	c0.011-0.074,0.025-0.147,0.044-0.216c-0.072-0.006-0.132-0.01-0.178-0.014C227.646,827.049,227.631,827.092,227.619,827.135z"/>
<path fill="#FFFFFF" d="M227.548,827.513c-0.002,0.038-0.004,0.077-0.004,0.116c0,0.101,0.009,0.198,0.025,0.294l0.049,0.001
	l0.23,0.006c-0.035-0.109-0.055-0.217-0.064-0.322c-0.003-0.037-0.005-0.074-0.006-0.111c-0.037-0.001-0.07-0.002-0.102-0.003
	c-0.021-0.001-0.041-0.002-0.059-0.003c-0.018,0-0.034,0-0.049-0.001c-0.006-0.001-0.014-0.001-0.02-0.001
	C227.549,827.496,227.549,827.505,227.548,827.513z"/>
<path fill="#FFFFFF" d="M230.314,826.666c-0.044,0.006-0.089,0.011-0.134,0.016c-0.01,0.002-0.019,0.004-0.029,0.004
	c0.004,0.01,0.008,0.019,0.011,0.028c0.008,0.021,0.016,0.044,0.024,0.065h0.306h0.044c-0.021-0.049-0.044-0.096-0.068-0.139
	C230.417,826.649,230.367,826.658,230.314,826.666z"/>
<polygon fill="#FFFFFF" points="241.395,821.457 241.586,821.457 241.522,821.322 241.364,820.99 240.855,820.99 240.793,821.12 
	240.633,821.457 241.108,821.457 "/>
<polygon fill="#FFFFFF" points="241.248,820.799 241.248,820.623 241.184,820.623 241.184,820.469 241.184,820.454 241.129,820.454 
	241.113,819.879 241.09,820.454 241.035,820.454 241.035,820.469 241.035,820.623 240.972,820.623 240.972,820.713 240.972,820.948 
	241.248,820.948 "/>
<path fill="#FFFFFF" d="M230.602,826.779l0.091,0.001c-0.033-0.058-0.069-0.112-0.108-0.164c-0.019,0.005-0.037,0.009-0.056,0.013
	C230.555,826.676,230.579,826.727,230.602,826.779z"/>
<path fill="#FFFFFF" d="M230.073,826.51c0.019,0.038,0.037,0.077,0.055,0.118c0.03-0.003,0.06-0.007,0.089-0.011
	c0.006-0.002,0.012-0.002,0.018-0.002c0.069-0.009,0.136-0.02,0.202-0.031c-0.077-0.135-0.156-0.247-0.22-0.327l-0.01-0.007
	c-0.082,0.02-0.165,0.036-0.25,0.049C229.997,826.363,230.036,826.434,230.073,826.51z"/>
<path fill="#FFFFFF" d="M229.752,826.653c0.105-0.004,0.209-0.011,0.312-0.021c-0.029-0.066-0.061-0.129-0.092-0.188
	c-0.027-0.049-0.053-0.095-0.079-0.137c-0.038,0.005-0.075,0.009-0.113,0.014c-0.009,0-0.019,0.001-0.028,0.002
	c-0.031,0.004-0.062,0.006-0.093,0.008c0.027,0.094,0.055,0.201,0.078,0.322C229.743,826.654,229.748,826.653,229.752,826.653z"/>
<path fill="#FFFFFF" d="M229.76,826.777l0.362,0.002c-0.01-0.03-0.021-0.059-0.033-0.088c-0.11,0.012-0.223,0.018-0.336,0.022
	c-0.001,0-0.002,0-0.003,0c0.001,0.007,0.002,0.014,0.003,0.021C229.755,826.749,229.757,826.763,229.76,826.777z"/>
<path fill="#FFFFFF" d="M230.543,826.563c-0.044-0.055-0.092-0.106-0.143-0.155c0.033,0.051,0.066,0.105,0.099,0.164
	C230.514,826.57,230.528,826.566,230.543,826.563z"/>
<path fill="#FFFFFF" d="M228.017,826.572c0.05-0.096,0.102-0.181,0.152-0.255c-0.089,0.073-0.171,0.154-0.244,0.243
	C227.952,826.564,227.982,826.568,228.017,826.572z"/>
<path fill="#FFFFFF" d="M228.591,826.238c0.008-0.014,0.017-0.025,0.024-0.037c0.013-0.021,0.025-0.039,0.037-0.057
	c0.034-0.051,0.066-0.096,0.095-0.133c-0.04,0.012-0.08,0.025-0.119,0.041c-0.037,0.014-0.073,0.029-0.109,0.047
	c-0.065,0.029-0.128,0.064-0.189,0.102C228.4,826.213,228.489,826.227,228.591,826.238z"/>
<path fill="#FFFFFF" d="M228.442,826.676c-0.038,0.098-0.07,0.203-0.095,0.315c0.125,0.007,0.261,0.014,0.403,0.019
	c0.01-0.109,0.024-0.213,0.04-0.309C228.667,826.693,228.55,826.686,228.442,826.676z"/>
<path fill="#FFFFFF" d="M228.287,826.256c-0.004,0.006-0.01,0.014-0.014,0.02c-0.06,0.082-0.127,0.185-0.191,0.304
	c0.083,0.01,0.183,0.021,0.295,0.03c0.009,0,0.018,0.001,0.026,0.002c0.008-0.02,0.016-0.038,0.024-0.057
	c0.042-0.095,0.086-0.182,0.13-0.26c-0.054-0.006-0.104-0.014-0.148-0.02C228.363,826.269,228.321,826.262,228.287,826.256z"/>
<path fill="#FFFFFF" d="M228.721,826.313c-0.008-0.001-0.017-0.001-0.024-0.003c-0.014-0.001-0.027-0.002-0.041-0.004
	c-0.011-0.001-0.023-0.002-0.034-0.004c-0.019,0.031-0.037,0.065-0.056,0.101c-0.035,0.066-0.07,0.137-0.101,0.214
	c0.103,0.008,0.214,0.016,0.333,0.023c0,0,0.001,0,0.002,0c0.014-0.068,0.027-0.134,0.042-0.195c0.01-0.041,0.02-0.08,0.031-0.118
	C228.821,826.322,228.77,826.318,228.721,826.313z"/>
<path fill="#FFFFFF" d="M229.58,826.277c-0.055-0.174-0.107-0.285-0.125-0.322c-0.062-0.008-0.125-0.014-0.189-0.015
	c0.008,0.083,0.019,0.202,0.031,0.343C229.39,826.284,229.484,826.281,229.58,826.277z"/>
<path fill="#FFFFFF" d="M227.872,827.156c-0.017,0.088-0.028,0.179-0.031,0.273c0,0.002,0,0.005,0,0.008
	c0.114,0.004,0.25,0.008,0.401,0.012c0-0.006,0-0.013,0-0.02c-0.001-0.133,0.011-0.262,0.033-0.381
	c-0.105-0.006-0.201-0.013-0.288-0.018c-0.029-0.002-0.058-0.004-0.085-0.006C227.89,827.067,227.88,827.111,227.872,827.156z"/>
<path fill="#FFFFFF" d="M227.855,827.684c0.011,0.08,0.031,0.163,0.058,0.247c0.056,0.001,0.116,0.003,0.178,0.004
	c0.07,0.001,0.145,0.003,0.221,0.005c-0.029-0.106-0.048-0.211-0.06-0.313c-0.005-0.04-0.008-0.078-0.01-0.116
	c-0.151-0.004-0.287-0.008-0.402-0.012h0C227.842,827.559,227.847,827.62,227.855,827.684z"/>
<path fill="#FFFFFF" d="M228.325,826.665c-0.104-0.01-0.197-0.02-0.273-0.028c-0.05,0.1-0.096,0.211-0.132,0.329
	c0.038,0.003,0.078,0.005,0.121,0.007c0.076,0.006,0.158,0.011,0.247,0.016c0.024-0.113,0.056-0.219,0.093-0.318
	C228.361,826.668,228.343,826.667,228.325,826.665z"/>
<path fill="#FFFFFF" d="M228.734,827.461c0-0.011,0-0.021,0-0.031c-0.001-0.127,0.003-0.246,0.012-0.359
	c-0.146-0.006-0.283-0.012-0.411-0.02c-0.022,0.119-0.034,0.246-0.034,0.379c0,0.008,0,0.014,0,0.021
	C228.437,827.455,228.582,827.458,228.734,827.461z"/>
<path fill="#FFFFFF" d="M229.273,826.719c-0.061-0.002-0.122-0.003-0.182-0.005c-0.082-0.003-0.162-0.006-0.24-0.011
	c-0.004,0.023-0.007,0.047-0.011,0.072c-0.011,0.075-0.021,0.154-0.029,0.237c0.034,0.001,0.069,0.002,0.104,0.003
	c0.124,0.004,0.251,0.009,0.381,0.011c-0.002-0.033-0.005-0.066-0.007-0.099C229.283,826.857,229.278,826.787,229.273,826.719z"/>
<path fill="#FFFFFF" d="M228.376,827.941c0.125,0.002,0.256,0.006,0.391,0.008c-0.007-0.057-0.013-0.113-0.017-0.17
	c-0.008-0.088-0.013-0.174-0.015-0.258c-0.151-0.003-0.296-0.006-0.431-0.01c0.002,0.044,0.007,0.088,0.012,0.134
	C228.329,827.742,228.347,827.84,228.376,827.941z"/>
<path fill="#FFFFFF" d="M229.752,826.264c0.035-0.003,0.07-0.007,0.104-0.012c-0.037-0.057-0.073-0.105-0.104-0.146
	c-0.037-0.048-0.068-0.085-0.091-0.11c-0.043-0.011-0.089-0.021-0.135-0.029c0.026,0.058,0.069,0.162,0.115,0.308
	C229.678,826.271,229.715,826.268,229.752,826.264z"/>
<path fill="#FFFFFF" d="M228.892,826.499c-0.01,0.046-0.02,0.095-0.03,0.146c0.056,0.002,0.113,0.005,0.171,0.008
	c0.076,0.002,0.155,0.005,0.234,0.006c-0.008-0.112-0.018-0.218-0.025-0.314c-0.106-0.002-0.21-0.006-0.308-0.013
	C228.92,826.383,228.906,826.439,228.892,826.499z"/>
<path fill="#FFFFFF" d="M229.923,826.242c0.073-0.01,0.146-0.022,0.217-0.039c-0.015-0.008-0.03-0.018-0.045-0.025
	c-0.103-0.063-0.212-0.113-0.327-0.151C229.811,826.08,229.864,826.152,229.923,826.242L229.923,826.242z"/>
<polygon fill="#FFFFFF" points="227.48,824.189 228.106,824.189 228.14,824.189 228.34,824.189 228.34,824.172 228.34,823.932 
	228.34,823.631 227.625,823.631 227.624,823.631 227.434,823.631 226.984,823.631 226.868,823.631 226.868,823.693 226.868,824.01 
	226.868,824.189 227.02,824.189 "/>
<path fill="#FFFFFF" d="M229.676,826.656c-0.024-0.121-0.051-0.229-0.078-0.32c-0.1,0.006-0.199,0.009-0.296,0.008
	c0.008,0.098,0.017,0.203,0.026,0.314C229.443,826.66,229.561,826.66,229.676,826.656z"/>
<path fill="#FFFFFF" d="M229.237,826.283c-0.013-0.143-0.023-0.261-0.031-0.343c-0.046,0.001-0.092,0.003-0.137,0.008
	c-0.028,0.063-0.072,0.174-0.117,0.323C229.042,826.277,229.138,826.281,229.237,826.283z"/>
<path fill="#FFFFFF" d="M228.658,826.245L228.658,826.245L228.658,826.245c0.007,0.003,0.014,0.003,0.021,0.003
	c0.01,0.002,0.02,0.002,0.029,0.003c0.058,0.006,0.119,0.012,0.183,0.017c0.04-0.137,0.08-0.241,0.109-0.312
	c-0.005,0.001-0.01,0.002-0.015,0.003c-0.048,0.007-0.094,0.016-0.141,0.026c-0.045,0.056-0.107,0.136-0.172,0.237
	C228.667,826.23,228.663,826.238,228.658,826.245z"/>
<path fill="#FFFFFF" d="M228.934,827.078c-0.043-0.002-0.086-0.004-0.127-0.006c-0.009,0.113-0.013,0.232-0.012,0.357
	c0,0.011,0,0.021,0,0.033c0.087,0,0.175,0.002,0.265,0.003c0.087,0.002,0.176,0.003,0.264,0.003
	c-0.001-0.012-0.001-0.025-0.002-0.039c-0.006-0.114-0.014-0.229-0.021-0.343C229.176,827.084,229.053,827.082,228.934,827.078z"/>
<polygon fill="#FFFFFF" points="243.821,821.536 243.563,821.536 243.553,821.639 243.821,821.639 "/>
<polygon fill="#FFFFFF" points="243.821,822.404 243.722,822.404 243.476,822.404 243.466,822.507 243.623,822.507 243.821,822.507 
	"/>
<polygon fill="#FFFFFF" points="243.821,822.9 243.677,822.9 243.534,822.9 243.426,822.9 243.416,823.004 243.566,823.004 
	243.774,823.004 243.821,823.004 "/>
<polygon fill="#FFFFFF" points="243.821,822.776 243.56,822.776 243.495,822.776 243.439,822.776 243.428,822.879 243.527,822.879 
	243.656,822.879 243.821,822.879 "/>
<polygon fill="#FFFFFF" points="243.821,822.529 243.602,822.529 243.463,822.529 243.454,822.631 243.503,822.631 243.821,822.631 
	"/>
<polygon fill="#FFFFFF" points="243.821,821.164 243.6,821.164 243.59,821.267 243.821,821.267 "/>
<polygon fill="#FFFFFF" points="243.821,823.054 243.821,823.025 243.793,823.025 243.573,823.025 243.414,823.025 243.403,823.127 
	243.605,823.127 243.821,823.127 "/>
<polygon fill="#FFFFFF" points="243.821,823.396 243.691,823.396 243.376,823.396 243.366,823.5 243.723,823.5 243.821,823.5 "/>
<polygon fill="#FFFFFF" points="243.821,823.273 243.651,823.273 243.389,823.273 243.378,823.375 243.684,823.375 243.821,823.375 
	"/>
<polygon fill="#FFFFFF" points="243.821,823.148 243.612,823.148 243.401,823.148 243.391,823.252 243.645,823.252 243.821,823.252 
	"/>
<polygon fill="#FFFFFF" points="243.821,821.412 243.575,821.412 243.564,821.515 243.821,821.515 "/>
<polygon fill="#FFFFFF" points="243.821,823.521 243.729,823.521 243.364,823.521 243.354,823.623 243.762,823.623 243.821,823.623 
	"/>
<polygon fill="#FFFFFF" points="243.821,826.002 243.234,826.002 243.116,826.002 243.106,826.104 243.262,826.104 243.821,826.104 
	"/>
<polygon fill="#FFFFFF" points="243.821,821.66 243.55,821.66 243.54,821.764 243.821,821.764 "/>
<polygon fill="#FFFFFF" points="243.821,821.377 243.821,821.288 243.604,821.288 243.588,821.288 243.577,821.391 243.821,821.391 
	"/>
<polygon fill="#FFFFFF" points="243.821,822.032 243.513,822.032 243.503,822.135 243.821,822.135 "/>
<polygon fill="#FFFFFF" points="243.821,822.302 243.821,822.281 243.488,822.281 243.478,822.383 243.742,822.383 243.821,822.383 
	"/>
<polygon fill="#FFFFFF" points="243.821,822.156 243.5,822.156 243.491,822.26 243.821,822.26 "/>
<polygon fill="#FFFFFF" points="243.821,821.908 243.525,821.908 243.516,822.011 243.821,822.011 "/>
<polygon fill="#FFFFFF" points="243.821,821.784 243.538,821.784 243.527,821.887 243.821,821.887 "/>
<polygon fill="#FFFFFF" points="243.821,822.683 243.821,822.652 243.482,822.652 243.457,822.652 243.451,822.652 243.45,822.661 
	243.449,822.674 243.447,822.689 243.44,822.756 243.488,822.756 243.54,822.756 243.821,822.756 "/>
<polygon fill="#FFFFFF" points="243.821,825.155 243.821,825.133 243.8,825.133 243.203,825.133 243.193,825.236 243.821,825.236 
	"/>
<polygon fill="#FFFFFF" points="243.821,825.258 243.19,825.258 243.186,825.303 243.18,825.36 243.326,825.36 243.821,825.36 "/>
<polygon fill="#FFFFFF" points="243.821,825.01 243.683,825.01 243.247,825.01 243.216,825.01 243.211,825.047 243.205,825.111 
	243.78,825.111 243.821,825.111 "/>
<polygon fill="#FFFFFF" points="243.821,824.885 243.565,824.885 243.362,824.885 243.228,824.885 243.217,824.988 243.267,824.988 
	243.663,824.988 243.821,824.988 "/>
<polygon fill="#FFFFFF" points="243.821,825.381 243.378,825.381 243.178,825.381 243.168,825.484 243.628,825.484 243.821,825.484 
	"/>
<polygon fill="#FFFFFF" points="243.821,823.731 243.821,823.645 243.769,823.645 243.352,823.645 243.343,823.731 243.341,823.748 
	243.804,823.748 243.821,823.748 "/>
<polygon fill="#FFFFFF" points="243.821,825.825 243.821,825.824 243.821,825.754 243.141,825.754 243.134,825.824 243.134,825.825 
	243.131,825.855 243.196,825.855 243.821,825.855 "/>
<polygon fill="#FFFFFF" points="243.821,825.563 243.821,825.506 243.681,825.506 243.166,825.506 243.155,825.608 243.821,825.608 
	"/>
<polygon fill="#FFFFFF" points="243.821,825.629 243.153,825.629 243.143,825.732 243.821,825.732 "/>
<polygon fill="#FFFFFF" points="243.821,825.878 243.201,825.878 243.128,825.878 243.118,825.98 243.229,825.98 243.821,825.98 "/>
<polygon fill="#FFFFFF" points="243.821,824.018 243.405,824.018 243.315,824.018 243.304,824.119 243.744,824.119 243.821,824.119 
	"/>
<polygon fill="#FFFFFF" points="243.821,823.894 243.327,823.894 243.317,823.99 243.317,823.996 243.334,823.996 243.821,823.996 
	"/>
<polygon fill="#FFFFFF" points="243.821,824.762 243.477,824.762 243.447,824.762 243.24,824.762 243.239,824.777 243.23,824.863 
	243.381,824.863 243.545,824.863 243.821,824.863 "/>
<polygon fill="#FFFFFF" points="243.821,823.785 243.821,823.77 243.814,823.77 243.339,823.77 243.329,823.871 243.821,823.871 "/>
<polygon fill="#FFFFFF" points="243.821,824.143 243.821,824.141 243.814,824.141 243.303,824.141 243.292,824.244 243.821,824.244 
	"/>
<polygon fill="#FFFFFF" points="243.821,824.266 243.29,824.266 243.279,824.368 243.821,824.368 "/>
<polygon fill="#FFFFFF" points="243.821,824.637 243.597,824.637 243.329,824.637 243.253,824.637 243.242,824.74 243.427,824.74 
	243.498,824.74 243.821,824.74 "/>
<polygon fill="#FFFFFF" points="243.821,824.514 243.717,824.514 243.265,824.514 243.26,824.564 243.255,824.615 243.309,824.615 
	243.618,824.615 243.821,824.615 "/>
<polygon fill="#FFFFFF" points="243.821,824.404 243.821,824.389 243.277,824.389 243.267,824.492 243.737,824.492 243.821,824.492 
	"/>
<path fill="#FFFFFF" d="M236.936,823.118v0.078h-0.048v0.078h0.304h0.717h0.03v-0.032v-0.046h-0.047v-0.078
	c0.084-0.045,0.136-0.101,0.136-0.162c0-0.088-0.107-0.167-0.269-0.212c-0.098-0.029-0.217-0.045-0.345-0.045
	c-0.052,0-0.102,0.002-0.15,0.007v-0.442h-0.046v0.449c-0.053,0.006-0.103,0.018-0.149,0.031c-0.004,0-0.008,0.002-0.012,0.002
	c-0.156,0.047-0.257,0.123-0.257,0.21C236.8,823.018,236.851,823.073,236.936,823.118z"/>
<polygon fill="#FFFFFF" points="236.851,826.661 236.851,826.646 236.855,826.646 236.863,826.646 236.891,826.609 236.851,826.609 
	236.851,826.559 236.929,826.559 236.958,826.521 236.851,826.521 236.851,826.471 236.996,826.471 237.024,826.434 
	236.851,826.434 236.851,826.384 237.063,826.384 237.158,826.259 237.154,826.259 237.154,826.209 237.197,826.209 
	237.225,826.172 237.154,826.172 237.154,826.166 237.154,826.121 237.264,826.121 237.281,826.098 237.292,826.084 
	237.268,826.084 237.154,826.084 237.154,826.033 237.221,826.033 237.331,826.033 237.359,825.996 237.187,825.996 
	237.154,825.996 237.154,825.962 237.154,825.947 237.397,825.947 237.425,825.909 237.154,825.909 237.154,825.859 
	237.464,825.859 237.492,825.822 237.154,825.822 237.154,825.771 237.531,825.771 237.559,825.734 237.154,825.734 
	237.154,825.684 237.598,825.684 237.626,825.646 237.154,825.646 237.154,825.597 237.664,825.597 237.752,825.482 237.76,825.473 
	237.746,825.473 237.746,825.422 237.798,825.422 237.826,825.385 237.746,825.385 237.746,825.334 237.843,825.334 
	237.977,825.334 237.977,825.385 237.878,825.385 237.907,825.422 237.977,825.422 237.977,825.473 237.945,825.473 237.97,825.504 
	237.974,825.509 237.977,825.509 237.977,825.514 238.023,825.574 238.042,825.598 238.042,825.58 238.042,825.427 238.042,825.025 
	238.042,824.893 238.042,824.648 238.042,824.625 238.042,823.89 238.042,823.533 238.042,823.314 237.872,823.314 237.202,823.314 
	236.818,823.314 236.787,823.314 236.787,823.533 236.787,823.871 236.787,824.227 236.787,824.476 236.787,824.727 
	236.787,824.893 236.787,825.025 236.787,825.184 236.787,825.569 236.787,826.166 236.787,826.589 236.787,826.615 
	236.787,826.745 236.794,826.734 "/>
<path fill="#FFFFFF" d="M235.771,828.252c0.014-0.075,0.025-0.148,0.035-0.22c-0.006,0-0.014,0-0.021,0
	c-0.073-0.001-0.147-0.003-0.223-0.004c0.001,0.042,0.001,0.082,0.001,0.12c0,0.036,0,0.07-0.001,0.104H235.771z"/>
<path fill="#FFFFFF" d="M235.834,827.65c-0.094,0-0.189,0-0.285-0.002c0.002,0.039,0.004,0.076,0.005,0.113
	c0.003,0.076,0.005,0.15,0.007,0.22c0.068,0.001,0.136,0.003,0.204,0.005c0.016,0,0.031,0,0.046,0
	C235.826,827.869,235.833,827.756,235.834,827.65z"/>
<polygon fill="#FFFFFF" points="238.573,823.166 239.377,823.166 239.463,823.166 239.666,823.078 239.666,823 239.332,823 
	238.733,823 238.297,823 238.297,823.078 238.5,823.166 "/>
<path fill="#FFFFFF" d="M238.352,826.004v-0.057h0.136h0.124v0.081h-0.047h-0.193l0.061,0.08h0.179v0.081h-0.117l0.062,0.081h0.056
	v0.072l0.076,0.099v-0.01h0.257v0.082h-0.203l0.062,0.08h0.141v0.08h-0.079l0.015,0.021l0.031,0.039l0.01,0.014v0.008h0.023v0.08
	h-0.023v0.081h0.023v0.052v0.029h-0.023v0.08h0.023v0.001v0.081h-0.023v0.031c0.069-0.012,0.138-0.021,0.207-0.031h-0.107v-0.081
	v-0.001h0.257v0.001v0.062c0.014-0.002,0.028-0.004,0.042-0.006c0.012-0.002,0.023-0.002,0.034-0.004v-0.052v-0.001h0.213h0.046
	v0.001v0.026c0.063-0.006,0.126-0.011,0.189-0.016v-0.398v-0.624v-0.423v-0.121v-0.296V824.6v-0.324v-0.095l-0.122-0.095
	l-0.001-0.001v-0.495h-1.37h-0.021v0.046v0.39v0.047l-0.125,0.108v0.429v0.376v0.618v0.041v0.016v0.053v0.044l0.04,0.052
	L238.352,826.004z"/>
<path fill="#FFFFFF" d="M235.819,827.264c0-0.004-0.001-0.006-0.001-0.008c-0.009-0.084-0.021-0.162-0.034-0.234
	c-0.091,0.003-0.184,0.004-0.274,0.002c0.005,0.076,0.011,0.153,0.017,0.232c0,0.002,0,0.004,0,0.006
	C235.624,827.263,235.721,827.264,235.819,827.264z"/>
<polygon fill="#FFFFFF" points="238.5,823.212 238.5,823.242 238.5,823.545 238.5,823.556 239.463,823.556 239.463,823.545 
	239.463,823.485 239.463,823.212 239.389,823.212 238.529,823.212 "/>
<path fill="#FFFFFF" d="M239.32,822.955h0.164c-0.042-0.082-0.12-0.152-0.218-0.199c-0.071-0.032-0.152-0.053-0.239-0.059
	c-0.008,0-0.015-0.001-0.022-0.002l-0.003-0.184l-0.003-0.209l-0.006-0.449l-0.001-0.092l-0.003,0.08l-0.013,0.436l-0.007,0.233
	l-0.005,0.185c-0.219,0.008-0.405,0.113-0.48,0.26h0.295H239.32z"/>
<path fill="#FFFFFF" d="M235.074,827.973c-0.014-0.115-0.022-0.226-0.025-0.331c-0.109-0.002-0.214-0.005-0.313-0.007
	c-0.007,0-0.013,0-0.02,0c0,0.007,0.001,0.014,0.001,0.02c0.007,0.101,0.023,0.205,0.054,0.311
	C234.868,827.968,234.97,827.971,235.074,827.973z"/>
<path fill="#FFFFFF" d="M234.687,827.963l0.037,0.002c-0.016-0.057-0.028-0.113-0.037-0.17V827.963z"/>
<path fill="#FFFFFF" d="M235.092,827.01c-0.005-0.001-0.009-0.001-0.015-0.002c-0.083-0.005-0.163-0.011-0.237-0.017
	c-0.006-0.001-0.012-0.001-0.017-0.001c-0.029,0.075-0.054,0.156-0.073,0.244c0.097,0.004,0.201,0.01,0.312,0.014
	c0-0.004,0-0.006,0.001-0.01c0.004-0.047,0.01-0.092,0.016-0.135C235.083,827.071,235.087,827.039,235.092,827.01z"/>
<path fill="#FFFFFF" d="M240.435,826.385l-0.004,0.236h-0.109l0.105,0.212l-0.004,0.234v0.002c0.116-0.001,0.232,0.001,0.347,0.004
	c0.087,0.003,0.174,0.006,0.26,0.011v-0.304v-0.361v-0.243v-0.236v-0.643v-0.262v-0.916v-0.238v-0.234v-0.629v-0.266v-0.538v-0.36
	v-0.244v-0.063h0.05v0.063v0.188v0.438v0.517v0.466v0.483v0.18v0.184v0.971v0.277v0.682v0.182v0.187v0.439v0.284
	c0.02,0.001,0.038,0.002,0.057,0.003v-0.264v-0.524v-0.125v-0.121v-0.725v-0.295v-1.031v-0.123v-0.12v-0.321v-0.688v-0.492v-0.525
	v-0.125v-0.1h-0.614l-0.002,0.1l-0.003,0.179h-0.106l0.047,0.05l0.057,0.061l-0.003,0.191h-0.105l0.104,0.109l-0.003,0.152h-0.105
	l0.082,0.086l0.022,0.023l-0.002,0.154h-0.106l0.104,0.109l-0.001,0.027l-0.003,0.188h-0.106l0.104,0.109l-0.001,0.032l-0.005,0.31
	h-0.107l0.104,0.109h0.002l-0.006,0.338h-0.108l0.028,0.043l0.077,0.117l-0.009,0.516h-0.108l0.105,0.211v0.006l-0.005,0.305
	l-0.002,0.085l-0.003,0.204l-0.003,0.15h-0.108l0.104,0.211l-0.009,0.49L240.435,826.385z"/>
<path fill="#FFFFFF" d="M234.079,826.75h0.277v0.037h0.081v-0.037h0.063c0.027-0.024,0.055-0.049,0.083-0.072l0.032-0.025
	l0.005-0.004h-0.182v-0.041h0.087h0.154l0.104-0.064c0.005-0.003,0.011-0.006,0.018-0.01l0.012-0.006v-0.422v-0.244v-0.653v-0.365
	v-0.786v-0.245v-0.007v-0.073l0.057,0.046l0.458,0.371v-0.443v-0.648l-0.065,0.04v-0.005l-0.02-0.531l-0.008-0.223l-0.003-0.072
	l-0.001,0.07l-0.003,0.225l-0.01,0.564l-0.04,0.025l-0.022-0.59l-0.01-0.26l0-0.018v0.018l-0.004,0.26l-0.011,0.619l-0.484,0.303
	l-0.089,0.055l-0.241,0.151l-0.324,0.203v0.563v0.388v0.11v0.273v0.757v0.298v0.469v0.037h0.088V826.75z"/>
<path fill="#FFFFFF" d="M235.156,826.721c-0.027-0.002-0.053-0.004-0.078-0.007c-0.04-0.003-0.079-0.007-0.115-0.011
	c-0.042,0.07-0.084,0.151-0.121,0.242c0.074,0.006,0.153,0.012,0.236,0.016c0.008,0.001,0.015,0.002,0.023,0.002
	C235.117,826.873,235.136,826.792,235.156,826.721z"/>
<path fill="#FFFFFF" d="M234.687,826.977v0.254l0.016,0.001c0.019-0.087,0.043-0.169,0.072-0.246
	C234.745,826.982,234.715,826.98,234.687,826.977z"/>
<path fill="#FFFFFF" d="M234.687,827.319c0.002-0.014,0.005-0.028,0.007-0.042h-0.007V827.319z"/>
<path fill="#FFFFFF" d="M234.565,826.787c0.012-0.021,0.025-0.04,0.038-0.059c0.003-0.005,0.006-0.01,0.01-0.015
	c-0.005,0.003-0.008,0.008-0.013,0.011c-0.024,0.021-0.048,0.041-0.071,0.063H234.565z"/>
<polygon fill="#FFFFFF" points="243.821,821.04 243.612,821.04 243.602,821.143 243.821,821.143 "/>
<path fill="#FFFFFF" d="M235.048,827.596c-0.001-0.106,0.002-0.207,0.01-0.301c-0.004,0-0.008-0.001-0.012-0.001
	c-0.108-0.004-0.21-0.009-0.305-0.015c-0.018,0.098-0.028,0.201-0.026,0.309c0.021,0,0.042,0.001,0.063,0.002
	C234.863,827.592,234.954,827.594,235.048,827.596z"/>
<polygon fill="#FFFFFF" points="243.821,820.219 243.821,820.172 243.699,820.172 243.689,820.274 243.768,820.274 243.821,820.274 
	"/>
<polygon fill="#FFFFFF" points="243.821,820.295 243.748,820.295 243.687,820.295 243.68,820.365 243.676,820.398 243.821,820.398 
	"/>
<polygon fill="#FFFFFF" points="243.821,819.957 243.821,819.924 243.724,819.924 243.723,819.928 243.714,820.026 243.821,820.026 
	"/>
<polygon fill="#FFFFFF" points="243.821,820.047 243.711,820.047 243.701,820.15 243.821,820.15 "/>
<polygon fill="#FFFFFF" points="243.821,820.42 243.674,820.42 243.664,820.521 243.821,820.521 "/>
<polygon fill="#FFFFFF" points="243.821,820.97 243.821,820.916 243.77,820.916 243.625,820.916 243.615,821.019 243.821,821.019 
	"/>
<polygon fill="#FFFFFF" points="243.821,820.791 243.653,820.791 243.637,820.791 243.627,820.895 243.75,820.895 243.821,820.895 
	"/>
<polygon fill="#FFFFFF" points="243.821,820.668 243.649,820.668 243.639,820.771 243.821,820.771 "/>
<polygon fill="#FFFFFF" points="243.821,820.544 243.662,820.544 243.652,820.646 243.821,820.646 "/>
<polygon fill="#FFFFFF" points="243.821,819.8 243.737,819.8 243.726,819.902 243.821,819.902 "/>
<path fill="#FFFFFF" d="M235.66,826.443c0.021,0.044,0.053,0.123,0.088,0.236c0.055-0.004,0.111-0.01,0.166-0.016
	c-0.063-0.095-0.119-0.163-0.15-0.199C235.73,826.457,235.695,826.449,235.66,826.443z"/>
<path fill="#FFFFFF" d="M241.189,821.51v0.033v0.066v0.068v0.604v0.471v0.887v0.176v0.066v0.066v1.088v0.311v0.764v0.066v0.067
	v0.603v0.246c0.204,0.013,0.407,0.03,0.608,0.051l0-0.042l-0.005-0.268l0.025-0.05l0.081-0.162h-0.109l-0.017-0.936l0.063-0.128
	l0.005-0.011l0.001-0.002l0.035-0.07h-0.067h-0.042l-0.002-0.096l-0.006-0.344l-0.006-0.311l0.098-0.195l0.008-0.016h-0.023h-0.086
	l-0.002-0.095l-0.007-0.421l0.067-0.103l0.038-0.058h-0.108l-0.006-0.338l0.103-0.109h-0.104v-0.016l-0.006-0.326l0.104-0.109
	h-0.106l-0.003-0.188l0-0.027l0.104-0.109h-0.106l-0.002-0.115l-0.001-0.039l0.104-0.109h-0.106l-0.002-0.152h0.001l0.045-0.048
	l0.058-0.062h-0.106l-0.003-0.191h0.03l0.104-0.11h-0.135l-0.005-0.278h-0.351H241.189z"/>
<polygon fill="#FFFFFF" points="243.821,819.676 243.749,819.676 243.739,819.777 243.821,819.777 "/>
<polygon fill="#FFFFFF" points="243.821,819.6 243.821,819.552 243.799,819.552 243.761,819.552 243.751,819.654 243.821,819.654 
	"/>
<path fill="#FFFFFF" d="M262.243,828.955h-6.772v-0.08v-0.083v-0.061v-0.024v-0.083v-0.098v-0.083v-0.035v-0.05v-0.083v-0.098
	v-0.084v-0.084v-0.002v-0.001v-0.001v-0.002v-0.001v-0.001V828v-0.001v-0.001v-0.002v-0.002l0,0v-0.002v-0.001v-0.001v-0.002v-0.001
	v-0.001v-0.001v-0.001v-0.002v-0.002v-0.001v-0.001v-0.002v-0.002l0,0v-0.002v-0.001v-0.001v-0.002v-0.001v-0.001v-0.001v-0.001
	v-0.003v-0.001v-0.002l0,0v-0.002v-0.001v-0.002v-0.001v-0.001v-0.001v-0.002l0,0v-0.002v-0.002v-0.001v-0.001v-0.002v-0.001v-0.001
	v-0.002v-0.001v-0.001v-0.002v-0.001v-0.001v-0.002l0,0v-0.002v-0.002v-0.098v-0.001v-0.001v-0.002l0,0v-0.002v-0.002l0,0v-0.002
	v-0.002l0,0v-0.002v-0.002l0,0v-0.002v-0.002v-0.001v-0.001v-0.002v-0.001v-0.001v-0.001v-0.001v-0.002v-0.001v-0.002v-0.001v-0.002
	v-0.001v-0.001v-0.002v-0.001v-0.001v-0.002v-0.001v-0.001v-0.002l0,0v-0.002v-0.002l0,0v-0.002v-0.002v-0.001v-0.001v-0.002l0,0
	v-0.002v-0.002v-0.001v-0.001v-0.002l0,0v-0.002v-0.002l0,0v-0.002v-0.002v-0.001v-0.001v-0.002v-0.001v-0.001v-0.002v-0.001v-0.048
	v-0.049v-0.084v-0.142h-0.418h-0.267h-0.267h-0.528h-0.933h-0.266h-0.214h-0.021v0.017h0.034h0.183h0.018h0.029v0.047v0.078h0.061
	v0.041v0.043h-0.041h-0.02v0.02v0.029v0.014v0.021v0.014h0.013h0.048v0.001v0.002v0.001v0.001v0.002v0.001v0.001v0.002v0.002l0,0
	v0.002v0.002l0,0v0.002v0.001v0.001v0.002v0.002l0,0v0.002v0.001v0.001v0.002v0.002l0,0v0.002v0.002l0,0v0.002v0.001v0.001v0.002
	v0.001v0.001v0.002v0.001v0.001v0.002v0.001v0.002v0.001v0.002v0.001v0.001v0.001v0.001v0.002v0.001v0.001v0.002v0.002l0,0v0.002
	l0,0v0.002l0,0v0.002v0.002l0,0v0.002v0.002l0,0v0.002v0.001v0.001h-0.061v0.098h0.061v0.002v0.002l0,0v0.002v0.001v0.001v0.002
	v0.001v0.001v0.002v0.001v0.001v0.002l0,0v0.001v0.001v0.002v0.002l0,0v0.002v0.001v0.001v0.001v0.002v0.001v0.002l0,0v0.002v0.001
	v0.003v0.001v0.001v0.001v0.001v0.002v0.001v0.001v0.002l0,0v0.002v0.002v0.001v0.001v0.002v0.002v0.001v0.001v0.001v0.001v0.002
	v0.001v0.001v0.002l0,0v0.002v0.002v0.001V828v0.002v0.001v0.001v0.002v0.001v0.001v0.002h-0.061v0.084h0.061v0.08v0.004h-0.008
	h-0.052v0.027v0.07h0.061v0.083h-0.061v0.085h0.061v0.083h-0.061v0.098h0.061v0.083h-0.061v0.085h0.061v0.083h-0.035h-0.026v0.08
	h-0.047v-0.54l0,0v-0.573v-0.355h-0.264V827.3v-0.275v-0.093h-0.248v-0.683h-0.248h-0.001h-0.001h-0.001h-0.002h-0.001h-0.001
	h-0.001h-0.002H252h-0.002h-0.002h-0.001h-0.001h-0.002h-0.001h-0.001h-0.001h-0.001h-0.001h-0.002h-0.002h-0.001h-0.001h-0.002
	h-0.002h-0.001h-0.001h-0.001h-0.001h-0.001h-0.002h-0.001h-0.002h-0.001h-0.002h-0.001h-0.002h-0.001h-0.002h-0.001h-0.002h-0.002
	h-0.001h-0.001h-0.001h-0.001h-0.002h-0.001h-0.002h-0.001h-0.002h-0.001h-0.001h0h-0.001h-0.002h-0.001h-0.001h-0.001h-0.001
	h-0.001h-0.002h-0.001h-0.001h-0.002h-0.104h-0.001h-0.001h-0.002h-0.001h-0.001h-0.002h-0.001h-0.002h-0.001h-0.001h-0.001h-0.002
	h-0.001h-0.002h-0.001h-0.002h-0.001h-0.001h-0.001h-0.002h-0.001h-0.002h-0.001h-0.002h-0.001h-0.002h-0.001h-0.002h-0.001h-0.001
	h-0.001h-0.002h-0.001h-0.001h-0.001h-0.002h-0.001h-0.002h-0.001h-0.002h-0.002h-0.001h-0.002h-0.001h-0.002h-0.001h-0.002h-0.001
	h-0.002h-0.001h-0.001h-0.001h-0.002h-0.001h-0.001h-0.001h-0.002h-0.001h-0.002h-0.001h-0.001h-0.002h-0.001h-0.001h-0.119h-0.002
	h-0.001h-0.001h-0.001h-0.002h-0.001h-0.002h-0.002h-0.001h-0.001h-0.001h-0.002h-0.001h-0.001h-0.001h-0.002h-0.001h-0.002h-0.001
	h-0.002h-0.001h-0.002h-0.001h-0.001h-0.002h-0.001h-0.001h-0.002h-0.001h-0.002h-0.001h-0.002h-0.001h-0.001h-0.001h-0.002h-0.001
	h-0.001h-0.001h-0.002h-0.001h-0.002h-0.001h-0.001h-0.002h-0.001h-0.001h-0.002h-0.001h-0.002h-0.001h-0.002h-0.001h-0.002h-0.001
	h-0.002h-0.001h-0.002h-0.001h-0.002h-0.001h-0.002h-0.002h-0.001h-0.103h-0.001h-0.002h-0.002h-0.001h-0.002h-0.001h-0.001h-0.001
	h-0.002h-0.001h-0.002h-0.001h-0.002h-0.001h-0.002h-0.001h-0.002h-0.001h-0.002h-0.001h-0.002h-0.001h-0.001h-0.001h-0.002h-0.001
	h-0.001h-0.001h-0.002h-0.001h-0.001h-0.001h-0.002h-0.002h-0.001h-0.002h-0.001h-0.002h-0.001h-0.001h-0.001h-0.001h-0.001h-0.001
	h-0.002h-0.001h-0.001h-0.002h-0.001h-0.001h-0.002H251.3h-0.001h-0.001h-0.001h-0.002h-0.001h-0.002h-0.001h-0.002h-0.001h-0.002
	l0,0h-0.001h-0.002h-0.093h-0.026h-0.001h-0.001h-0.001h-0.002h-0.002h-0.001h-0.002h-0.001h-0.001h-0.001h-0.002h-0.001h-0.002
	h-0.001h-0.001h-0.002h-0.001h-0.002h-0.001h-0.001h-0.002h-0.001h-0.002h-0.001h-0.002h-0.001h-0.001h-0.001h-0.002h-0.001h-0.001
	h-0.001h-0.001h-0.002h-0.001h-0.001h-0.002h-0.001h-0.002h-0.001h-0.002h-0.001h-0.002h-0.001h-0.001h-0.001h0h-0.002h-0.001
	h-0.002h-0.001h-0.002h-0.001h-0.002h-0.001h-0.001h-0.001h-0.002h-0.001h-0.002h-0.001h-0.002h-0.001h-0.002h-0.001h-0.104h-0.001
	h-0.002h-0.001h-0.001h-0.001h-0.002h-0.001h-0.001h-0.001h-0.002h-0.001h-0.002h-0.001h-0.002h-0.001h-0.001h-0.001h-0.002h-0.001
	h-0.001h-0.002h-0.001h-0.001h-0.001h-0.001h-0.002h-0.002h-0.001h-0.001h-0.001h-0.001h-0.002h-0.001h-0.001h-0.001H250.9h-0.002
	h-0.001h-0.001h-0.001h-0.002h-0.001h-0.002h-0.001h-0.002h-0.001h-0.001h-0.001h-0.002h-0.001h-0.001h-0.001h-0.002h-0.001h-0.002
	h-0.001h-0.002h-0.001h-0.002h-0.001h-0.002h-0.001h-0.002h-0.001h-0.119h-0.002h-0.002h-0.001h-0.002h-0.001h-0.001h-0.002h-0.001
	h-0.001h-0.002h-0.001h-0.001h-0.001h-0.001h-0.002h-0.001h-0.001h-0.001h-0.001h-0.002h-0.001h-0.001h-0.001h-0.002h-0.001h-0.002
	h-0.001h-0.002h-0.001h-0.002h-0.001h-0.002h-0.001h-0.001h-0.002h-0.001h-0.001h-0.002h-0.001h-0.002h-0.001h-0.002h-0.001h-0.002
	h-0.001h-0.002h-0.001h-0.001h-0.001h-0.001h-0.001h-0.002h-0.001h-0.002h-0.001h-0.002h-0.001h-0.002h-0.001h-0.001h-0.001h-0.002
	h-0.001h-0.001h-0.248v0.683h-0.156v0.23v0.068v0.154v0.338h0.065v0.096h-0.065v0.167h0.065v0.095h-0.065v0.166h0.049h0.016v0.095
	h-0.065v0.074v0.069v0.023h0.065v0.095h0h-0.101v-0.071h-0.01h-0.046v0.172h0.135h0.047v0.047v0.205h-0.047v-0.111v-0.001v-0.093
	h-1.76h-0.089h-0.088h-0.667v0.093v0.112h-0.046v-0.15l0,0v-0.055v-0.047h0.046h0.135v-0.172h-0.046h-0.047v-0.047v-0.178v-0.148
	v-0.168v-0.539v-0.488v-0.252v-0.093v-0.333v-0.449v-0.246v-0.648v-0.322v-0.344h-0.077h-0.122h-0.38h-0.507h-0.556h-0.177h-0.092
	h-0.038v0.039v0.305v0.306v0.729v0.744v0.313v0.09v0.169h0.307v-0.021h0.18h0.019v0.006v0.016h0.053h0.085v-0.021h0.07v0.021h0.048
	h0.008v-0.021h0.127v0.063h-0.088v0.005v0.03v0.131h0.088v0.063h-0.088v0.037v0.129h0.088v0.063h-0.088v0.042h0.129h0.125h0.047
	v0.046v0.631v0.375v0.242l0,0v0.15h-0.047v-0.335v-0.478v-0.586h-0.302v-0.279v-0.009v-0.252h-0.283h-0.549h-0.068h-0.712h-0.317
	h-0.027H244.1h-0.007h-0.276v0.249v0.155v0.136h-0.258h-0.043v0.023v0.537v0.015v0.011v0.02v0.793h-0.046v-0.005v-0.096h-0.103
	h-0.185v0.101h-0.047v-0.43v-0.18v-0.564v-0.135v-0.023v-0.109v-0.079v-0.062c-0.052-0.009-0.104-0.018-0.156-0.025
	c-0.236-0.037-0.471-0.072-0.709-0.103h-0.001c-0.003-0.001-0.005-0.001-0.008-0.002c-0.246-0.03-0.493-0.059-0.742-0.081
	c-0.092-0.007-0.184-0.014-0.276-0.021c-0.161-0.011-0.323-0.018-0.486-0.021c-0.113-0.003-0.228-0.005-0.342-0.004
	c-0.233,0.001-0.468,0.01-0.706,0.028c-0.153,0.012-0.308,0.027-0.463,0.047c-0.125,0.016-0.25,0.034-0.376,0.057
	c-0.183,0.03-0.366,0.068-0.552,0.111c-0.018,0.005-0.036,0.01-0.053,0.014v0.062v0.188v0.018v1.041v0.018v0.018v0.044v0.194h-0.047
	v-0.539v-0.388v-0.405v-0.153v-0.035v-0.062v-0.037l0.035-0.008l0.026-0.007v-0.179v-0.621v-0.402v-0.027l0.02,0.027l0.022,0.029
	v0.392v0.649v0.121c0.02-0.004,0.04-0.009,0.059-0.014c0.011-0.002,0.023-0.004,0.034-0.007c0.006-0.001,0.013-0.003,0.02-0.005
	v-0.01v-0.037v-0.65v-0.293l0.042,0.057v0.255v0.586v0.083h0.001c0,0,0,0,0.001,0c0.037-0.008,0.074-0.016,0.11-0.023v-0.185v-0.413
	v-0.155l0.042,0.056v0.118v0.349v0.222c0.038-0.007,0.075-0.014,0.113-0.021v-0.325v-0.176v-0.019l0.022,0.028l0.021,0.027v0.092
	v0.365c0.029-0.006,0.059-0.011,0.088-0.016v-0.416v-0.02l-0.004-0.006l-0.488-0.639l-0.466-0.609l-0.037-0.049v0.087v0.571v0.232
	v0.359v1.115v0.098v0.134v0.358v0.539h-0.051v-0.004v-0.535v-0.471v-0.037v-0.027v-1.226v-0.325v-0.211v-0.518v-0.141l-0.495,0.646
	l-0.004,0.006l-0.004,0.006l-0.487,0.637l-0.005,0.008v0.201v0.537v0.375v0.532v0.538v0.008h-0.079v-0.381v-0.283h-0.087h-0.08
	h-0.047h-0.049h-0.079h-0.895h-0.405h-0.425v0.092h0.244v0.159h-0.228h-0.016v0.094h0.104h0.14v0.147v0.011h-0.244v0.161h-0.046
	v-0.205v-0.231v-0.122v-1.132v-0.056v-0.064v-0.209v-0.102h-0.237h-0.05h-0.049l-1.02-0.002h-0.029h-0.016l-1.056-0.003h-0.023
	h-0.029l-1.32-0.003l-0.76-0.001h-0.025h-0.025l-0.615-0.001v0.232l0.198,0.208v0.002v0.313v0.369v0.667v0.335v0.004h-0.039v-0.021
	v-0.096h-0.229v-0.15h0.229V828.6h-0.229v-0.014v-0.136h0.133h0.096v-0.087h-0.012h-0.689h-0.392h-0.458h-0.461h-0.014v0.014v0.176
	v0.387v0.016h-0.046v-0.258v-0.334v-0.047h0.046h0.118c-0.004-0.01-0.009-0.021-0.013-0.031c-0.006-0.014-0.012-0.029-0.019-0.047
	c-0.012-0.033-0.023-0.064-0.034-0.099c-0.014-0.049-0.027-0.097-0.039-0.146l-0.005-0.024h0l-0.002-0.012l-0.005-0.021h0.001
	l-0.001-0.006l0,0c-0.002-0.014-0.004-0.027-0.007-0.041c-0.002-0.016-0.004-0.029-0.005-0.042
	c-0.003-0.025-0.005-0.051-0.007-0.076c-0.004-0.046-0.006-0.094-0.006-0.142v-0.001c0-0.017,0.001-0.031,0.001-0.047v-0.001
	c0-0.008,0-0.016,0-0.024l0,0l0-0.012v-0.001c0.001-0.021,0.002-0.041,0.004-0.059l0.001-0.012h0l0.002-0.018l0.001-0.015h0
	l0.002-0.018v-0.001c0.003-0.018,0.005-0.039,0.009-0.063c0.004-0.023,0.007-0.044,0.011-0.063c0.021-0.104,0.051-0.206,0.088-0.303
	c0.001-0.001,0.001-0.002,0.002-0.004h0l0.007-0.016l0.006-0.016h0l0.012-0.028l0-0.001c0.006-0.014,0.015-0.031,0.023-0.051
	c0.01-0.02,0.018-0.036,0.025-0.05c0.042-0.081,0.091-0.158,0.146-0.231l0.048-0.063l0.003-0.004h0
	c0.009-0.011,0.02-0.023,0.032-0.038c0.01-0.011,0.021-0.023,0.033-0.036v-0.001c0.027-0.028,0.054-0.056,0.083-0.083
	c0.015-0.014,0.03-0.027,0.045-0.041c0.02-0.018,0.038-0.034,0.058-0.051l0.065-0.053h-0.002l0.01-0.006l0.133-0.084
	c0.005-0.004,0.011-0.008,0.016-0.01c0.018-0.011,0.037-0.021,0.057-0.033c0.025-0.013,0.05-0.025,0.075-0.037v-0.747v-0.215v-0.155
	h-0.372v-0.688h-0.077h-0.559h-0.412h-0.068v0.329v0.675v0.053v0.035h-0.34v0.38v0.446v0.56v0.438v0.411v0.749v0.029v0.596H202.69
	c0.218,0.635,0.503,1.236,0.846,1.801h58.122h0.312c0.342-0.564,0.627-1.166,0.845-1.801H262.243z"/>
<path fill="#819E9B" d="M234.414,779.963c-0.548,0-1.071-0.108-1.551-0.302v6.855h3.103v-6.855
	C235.485,779.854,234.962,779.963,234.414,779.963"/>
<path fill="#C33730" d="M238.576,775.801c0,2.299-1.863,4.162-4.162,4.162s-4.162-1.863-4.162-4.162s1.863-4.162,4.162-4.162
	S238.576,773.502,238.576,775.801"/>
<path fill="#932323" d="M231.989,775.801c0-2,1.412-3.67,3.293-4.069c-0.28-0.06-0.57-0.093-0.868-0.093
	c-2.299,0-4.162,1.863-4.162,4.162s1.863,4.162,4.162,4.162c0.298,0,0.588-0.033,0.868-0.092
	C233.401,779.471,231.989,777.802,231.989,775.801z"/>
<polygon fill="#5C6C69" points="235.954,779.665 235.954,779.665 235.953,779.666 "/>
<path fill="#5C6C69" d="M235.002,779.916c-0.192,0.027-0.388,0.047-0.588,0.047c-0.548,0-1.071-0.109-1.551-0.302v6.855h0.929
	c0,0,0-3.679,0-5.145C233.792,780.58,234.422,780.148,235.002,779.916z"/>
<path fill="#C33730" d="M207.296,820.883h-4.241c-2.701,0-4.89-2.189-4.89-4.89v-10.815c0-2.701,2.189-4.891,4.89-4.891h4.241
	c2.701,0,4.89,2.189,4.89,4.891v10.815C212.186,818.693,209.997,820.883,207.296,820.883z"/>
<path fill="#932323" d="M203.326,820.883h-1.221c-2.176,0-3.939-1.764-3.939-3.939v-12.717c0-2.176,1.764-3.939,3.939-3.939h1.221
	c2.176,0,3.94,1.764,3.94,3.939v12.717C207.266,819.119,205.501,820.883,203.326,820.883z"/>
<path fill="#BFBEBE" d="M261.936,830.756h0.034c0.342-0.564,0.627-1.166,0.845-1.801h-0.022
	C262.57,829.59,262.282,830.191,261.936,830.756z"/>
<path fill="#BFBEBE" d="M218.122,828.955H202.69c0.218,0.635,0.503,1.236,0.846,1.801h15.442
	C218.632,830.191,218.344,829.59,218.122,828.955z"/>
<path fill="#819E9B" d="M170.332,877.15c0.806,0.514,1.508,1.131,2.1,1.822l8.094-12.707c4.123-6.473,11.677-10.655,17.941-11.031
	c2.558-0.154,3.659-2.042,2.873-3.615c-0.682-1.363-3.115-1.951-4.949-1.665c-8.146,1.267-15.737,5.873-20.504,13.356l-8.094,12.707
	C168.669,876.262,169.525,876.636,170.332,877.15"/>
<path fill="#C33730" d="M170.332,877.15c4.398,2.801,5.697,8.66,2.896,13.058l-4.395-2.799c1.258-1.976,0.675-4.606-1.3-5.864
	c-1.976-1.259-4.606-0.675-5.864,1.301l-4.396-2.8C160.075,875.647,165.933,874.348,170.332,877.15"/>
<path fill="#932323" d="M169.374,878.653c3.884,2.475,5.346,7.331,3.707,11.462l0.147,0.093c2.802-4.397,1.502-10.256-2.896-13.058
	c-4.399-2.803-10.257-1.503-13.059,2.896l0.147,0.094C160.471,876.907,165.49,876.18,169.374,878.653z"/>
<path fill="#5C6C69" d="M170.332,877.15c0.806,0.514,1.508,1.131,2.1,1.822l8.094-12.707c4.123-6.473,11.677-10.655,17.941-11.031
	c2.558-0.154,3.659-2.042,2.873-3.615c-0.682-1.363-3.115-1.951-4.949-1.665c-8.146,1.267-15.737,5.873-20.504,13.356l-8.094,12.707
	C168.669,876.262,169.525,876.636,170.332,877.15"/>
<path fill="#D8423B" d="M170.332,877.15c4.398,2.801,5.697,8.66,2.896,13.058l-4.395-2.799c1.258-1.976,0.675-4.606-1.3-5.864
	c-1.976-1.259-4.606-0.675-5.864,1.301l-4.396-2.8C160.075,875.647,165.933,874.348,170.332,877.15"/>
<path fill="#932323" d="M169.374,878.653c3.884,2.475,5.346,7.331,3.707,11.462l0.147,0.093c2.802-4.397,1.502-10.256-2.896-13.058
	c-4.399-2.803-10.257-1.503-13.059,2.896l0.147,0.094C160.471,876.907,165.49,876.18,169.374,878.653z"/>
<path fill="#819E9B" d="M171.542,876.393c1.552-0.168,2.559-2.769,3.608-4.95c1.048-2.182,5.396-9.688,9.397-12.838
	c3.944-3.104,8.937-5.076,12.796-4.782c3.408,0.259,3.643-1.769,3.478-2.854c-1.011-0.892-2.923-1.248-4.431-1.014
	c-8.146,1.267-15.737,5.874-20.504,13.356l-7.993,12.549C168.847,876.121,170.491,876.507,171.542,876.393z"/>
</svg>
