<?xml version="1.0" encoding="utf-8"?>
<!-- Generator: Adobe Illustrator 15.0.0, SVG Export Plug-In  -->
<!DOCTYPE svg PUBLIC "-//W3C//DTD SVG 1.1//EN" "http://www.w3.org/Graphics/SVG/1.1/DTD/svg11.dtd" [
	<!ENTITY ns_flows "http://ns.adobe.com/Flows/1.0/">
]>
<svg version="1.1"
	 xmlns="http://www.w3.org/2000/svg" xmlns:xlink="http://www.w3.org/1999/xlink" xmlns:a="http://ns.adobe.com/AdobeSVGViewerExtensions/3.0/"
	 x="0px" y="0px" width="20px" height="20px" viewBox="479.273 387.639 20 20" enable-background="new 479.273 387.639 20 20"
	 xml:space="preserve">
<defs>
</defs>
<rect display="none" fill="#E0E0E0" width="2229.455" height="1311.244"/>
<rect x="479.273" y="387.639" display="none" fill="#C9C9C9" width="20" height="20"/>
<path fill="#828699" d="M488.117,401.749c-0.596,0.596-0.596,1.528,0,2.125c0.596,0.596,1.529,0.596,2.125,0
	c0.596-0.597,0.596-1.529,0-2.125C489.607,401.15,488.675,401.15,488.117,401.749L488.117,401.749z M483.995,399.174l1.529,1.753
	c2.014-2.312,5.333-2.312,7.347,0l1.528-1.753C491.491,395.893,486.868,395.893,483.995,399.174L483.995,399.174z M481.348,396.153
	l1.566,1.791c3.468-3.991,9.062-3.991,12.53,0l1.566-1.791C492.721,391.231,485.673,391.231,481.348,396.153L481.348,396.153z
	 M481.348,396.153"/>
</svg>
