<?xml version="1.0" encoding="utf-8"?>
<!-- Generator: Adobe Illustrator 15.0.0, SVG Export Plug-In  -->
<!DOCTYPE svg PUBLIC "-//W3C//DTD SVG 1.1//EN" "http://www.w3.org/Graphics/SVG/1.1/DTD/svg11.dtd" [
	<!ENTITY ns_flows "http://ns.adobe.com/Flows/1.0/">
]>
<svg version="1.1"
	 xmlns="http://www.w3.org/2000/svg" xmlns:xlink="http://www.w3.org/1999/xlink" xmlns:a="http://ns.adobe.com/AdobeSVGViewerExtensions/3.0/"
	 x="0px" y="0px" width="28px" height="28px" viewBox="288.273 457.639 28 28" enable-background="new 288.273 457.639 28 28"
	 xml:space="preserve">
<defs>
</defs>
<rect display="none" fill="#E0E0E0" width="2229.455" height="1311.244"/>
<rect x="288.273" y="457.639" display="none" fill="#C9C9C9" width="28" height="28"/>
<path fill="#585E76" d="M301.821,463.75c-0.217-0.018-0.56,0.005-0.767,0.198c0,0-5.082,4.402-5.296,4.598h-1.708
	c-0.957,0-1.776,0.718-1.776,1.601v3.2c0,0.88,0.822,1.598,1.776,1.598h1.708c0.216,0.198,5.298,4.599,5.298,4.599
	c0.225,0.207,0.55,0.213,0.767,0.195c0.438-0.038,0.836-0.423,0.836-0.736c0.003-0.035,0.007-14.48,0-14.514
	C302.659,464.185,302.259,463.787,301.821,463.75L301.821,463.75z M306.148,467.558c-0.402-0.366-1.031-0.366-1.432,0
	c-0.188,0.172-0.296,0.41-0.296,0.66s0.108,0.49,0.296,0.662c0.818,0.745,1.281,1.781,1.281,2.864s-0.463,2.119-1.281,2.865
	c-0.189,0.172-0.297,0.412-0.297,0.66c0,0.25,0.107,0.49,0.297,0.662c0.191,0.177,0.449,0.276,0.716,0.274
	c0.258,0,0.517-0.091,0.716-0.272c1.195-1.091,1.874-2.605,1.874-4.188C308.022,470.162,307.344,468.646,306.148,467.558
	L306.148,467.558z M309.606,465.794c-0.402-0.366-1.029-0.366-1.431,0c-0.188,0.172-0.295,0.41-0.295,0.66s0.107,0.488,0.295,0.66
	c1.323,1.204,2.071,2.877,2.071,4.627c0,1.751-0.748,3.424-2.071,4.629c-0.188,0.172-0.295,0.412-0.295,0.662
	c0,0.249,0.107,0.488,0.295,0.66c0.193,0.176,0.449,0.274,0.715,0.274c0.259,0,0.517-0.092,0.716-0.273
	c1.702-1.548,2.666-3.7,2.667-5.952C312.271,469.492,311.307,467.341,309.606,465.794L309.606,465.794z M309.606,465.794"/>
</svg>
