<?xml version="1.0" encoding="utf-8"?>
<!-- Generator: Adobe Illustrator 15.0.0, SVG Export Plug-In  -->
<!DOCTYPE svg PUBLIC "-//W3C//DTD SVG 1.1//EN" "http://www.w3.org/Graphics/SVG/1.1/DTD/svg11.dtd" [
	<!ENTITY ns_flows "http://ns.adobe.com/Flows/1.0/">
]>
<svg version="1.1"
	 xmlns="http://www.w3.org/2000/svg" xmlns:xlink="http://www.w3.org/1999/xlink" xmlns:a="http://ns.adobe.com/AdobeSVGViewerExtensions/3.0/"
	 x="0px" y="0px" width="12px" height="12px" viewBox="166.273 121.639 12 12" enable-background="new 166.273 121.639 12 12"
	 xml:space="preserve">
<defs>
</defs>
<rect display="none" fill="#E0E0E0" width="2229.455" height="1311.244"/>
<rect x="166.273" y="121.639" display="none" fill="#C9C9C9" width="12" height="12"/>
<g>
	<g>
		<g>
			<path fill="#FFFFFF" d="M177.052,124.867c-0.166-0.171-0.387-0.229-0.608-0.229l-8.31,0.035
				c-0.221-0.001-0.444,0.056-0.609,0.226c-0.334,0.34-0.335,0.85-0.003,1.191l4.144,4.261c0.056,0.059,0.166,0.115,0.221,0.172
				l0.056,0.059c0.277,0.112,0.665,0.057,0.887-0.169l4.165-4.299C177.384,125.718,177.328,125.209,177.052,124.867L177.052,124.867
				z M177.052,124.867"/>
		</g>
	</g>
</g>
</svg>
