<?xml version="1.0" encoding="utf-8"?>
<!-- Generator: Adobe Illustrator 15.0.0, SVG Export Plug-In  -->
<!DOCTYPE svg PUBLIC "-//W3C//DTD SVG 1.1//EN" "http://www.w3.org/Graphics/SVG/1.1/DTD/svg11.dtd" [
	<!ENTITY ns_flows "http://ns.adobe.com/Flows/1.0/">
]>
<svg version="1.1"
	 xmlns="http://www.w3.org/2000/svg" xmlns:xlink="http://www.w3.org/1999/xlink" xmlns:a="http://ns.adobe.com/AdobeSVGViewerExtensions/3.0/"
	 x="0px" y="0px" width="18px" height="18px" viewBox="332.273 119.639 18 18" enable-background="new 332.273 119.639 18 18"
	 xml:space="preserve">
<defs>
</defs>
<rect display="none" fill="#E0E0E0" width="2229.455" height="1311.244"/>
<rect x="332.273" y="119.639" display="none" fill="#C9C9C9" width="18" height="18"/>
<path fill="#FFFFFF" d="M346.978,131.243h-8.973l0.79-0.68l0.186-0.178l-0.039-0.037c0.144-0.214,0.224-0.503,0.224-0.718
	c0-0.542-0.409-0.856-1.079-0.856c-0.186,0-0.368,0.036-0.566,0.136l-2.879,2.508c-0.225,0.213-0.368,0.504-0.368,0.795
	c0,0.214,0.08,0.427,0.185,0.605l-0.038,0.037l2.922,2.509l0.144,0.138c0.185,0.113,0.367,0.138,0.565,0.138
	c0.632,0,1.079-0.393,1.079-0.97c0-0.215-0.079-0.429-0.224-0.606l0.039-0.037l-0.936-0.819h8.973c0.631,0,1.077-0.392,1.077-0.97
	C348.058,131.67,347.611,131.243,346.978,131.243L346.978,131.243z M348.137,124.396l-2.947-2.508l-0.185-0.113
	c-0.144-0.113-0.367-0.136-0.566-0.136c-0.631,0-1.053,0.391-1.053,0.97c0,0.215,0.08,0.427,0.185,0.605h-0.038l0.936,0.856h-8.975
	c-0.631,0-1.078,0.392-1.078,0.971c0,0.566,0.447,0.97,1.078,0.97h9.011l-0.975,0.933c-0.144,0.177-0.224,0.392-0.224,0.605
	c0,0.542,0.409,0.857,1.08,0.857c0.185,0,0.366-0.037,0.565-0.139l2.921-2.471c0.224-0.214,0.367-0.504,0.367-0.795
	C348.321,124.827,348.243,124.609,348.137,124.396L348.137,124.396z M348.137,124.396"/>
</svg>
