<?xml version="1.0" encoding="utf-8"?>
<!-- Generator: Adobe Illustrator 15.0.0, SVG Export Plug-In  -->
<!DOCTYPE svg PUBLIC "-//W3C//DTD SVG 1.1//EN" "http://www.w3.org/Graphics/SVG/1.1/DTD/svg11.dtd" [
	<!ENTITY ns_flows "http://ns.adobe.com/Flows/1.0/">
]>
<svg version="1.1"
	 xmlns="http://www.w3.org/2000/svg" xmlns:xlink="http://www.w3.org/1999/xlink" xmlns:a="http://ns.adobe.com/AdobeSVGViewerExtensions/3.0/"
	 x="0px" y="0px" width="49px" height="49px" viewBox="406.273 537.639 49 49" enable-background="new 406.273 537.639 49 49"
	 xml:space="preserve">
<defs>
</defs>
<rect display="none" fill="#E0E0E0" width="2229.455" height="1311.244"/>
<rect x="406.273" y="537.639" display="none" fill="#C9C9C9" width="49" height="49"/>
<path fill="#FFFFFF" d="M441.984,580.364c-1.374,0-2.781-0.499-3.863-1.368c-0.678-0.543-1.135-1.29-1.29-2.104l-0.24-1.263
	l-1.992,0.929l0.287,0.869c0.078,0.217,0.118,0.445,0.118,0.678v0.155c0,0.528-0.214,1.044-0.587,1.416
	c-0.376,0.375-0.882,0.583-1.424,0.584l-4.226-0.012c-0.56-0.001-1.097-0.24-1.474-0.654c-0.377-0.415-0.563-0.972-0.512-1.53
	l0.009-0.106c0.014-0.168,0.046-0.328,0.098-0.481l0.309-0.925l-0.917-0.332c-0.109-0.04-0.214-0.089-0.315-0.147l-1.538-0.888
	l0.038,1.775c0.011,0.514-0.127,1.03-0.4,1.493c-0.701,1.19-2.192,1.901-3.991,1.901c-0.119,0.005-0.17,0.007-0.222,0.007
	c-0.288,0-0.594-0.05-0.909-0.106c-0.085-0.016-0.595-0.131-0.595-0.131l-0.273,0.097c-0.212,0.075-0.425,0.113-0.633,0.113h-0.191
	c-0.537,0-1.041-0.21-1.419-0.591c-0.373-0.376-0.584-0.895-0.581-1.424l0.012-1.439c0.001-0.093,0.008-0.187,0.022-0.278
	l0.03-0.203l-0.052-0.199c-0.238-0.909-0.015-1.875,0.611-2.649c1.093-1.354,3.313-1.423,3.747-1.423
	c0.366,0,0.717,0.031,1.043,0.092c0.063,0.012,0.468,0.111,0.468,0.111l0.237-0.056c0.15-0.036,0.305-0.053,0.459-0.053l0.309,0.013
	c0.632,0.028,1.197,0.339,1.557,0.852l0.824,1.174l0.817-1.179c0.188-0.27,0.442-0.492,0.736-0.643l1.183-0.605l-1.218-1.299
	c-0.09-0.096-0.167-0.197-0.234-0.303l-0.118-0.187l-0.185-0.12c-0.118-0.077-0.228-0.166-0.328-0.265l-0.868-0.895
	c-0.099-0.105-0.196-0.237-0.275-0.379l-0.135-0.241l-0.24-0.138c-0.164-0.094-0.313-0.21-0.444-0.347l-0.955-0.991
	c-0.445-0.461-0.643-1.112-0.529-1.742c0.113-0.63,0.525-1.172,1.102-1.45l1.461-0.701l-1.125-2.023
	c-1.743-3.144-3.389-6.113-6.151-8.077c-0.646-0.459-1.376-0.882-2.235-1.292l-0.102-0.042l-1.056-0.369
	c-0.716-0.219-1.243-0.769-1.412-1.447c-0.172-0.689,0.024-1.418,0.511-1.905l0.691-0.69c0.087-0.088,0.18-0.165,0.278-0.232
	l0.163-0.112l0.108-0.167c0.072-0.112,0.157-0.218,0.253-0.315l0.876-0.899c0.118-0.122,0.252-0.229,0.397-0.316l0.219-0.133
	l0.128-0.222c0.09-0.155,0.199-0.298,0.326-0.424l1.022-1.057c0.377-0.394,0.903-0.618,1.445-0.618c0.113,0,0.227,0.009,0.34,0.029
	c0.569,0.098,1.047,0.32,1.396,0.482l0.176,0.081c1.472,0.647,2.64,1.452,3.494,2.082c2.861,2.106,4.744,4.985,6.065,7.257
	l0.807,1.388l0.89-1.337c0.503-0.875,0.978-1.706,1.551-2.516c1.52-2.145,3.195-3.852,5.124-5.22
	c0.965-0.685,1.973-1.249,3.083-1.725l0.147-0.065c0.307-0.137,0.719-0.321,1.211-0.418c0.128-0.025,0.257-0.038,0.385-0.038
	c0.54,0,1.065,0.223,1.439,0.612l1.037,1.073c0.118,0.122,0.22,0.259,0.304,0.406l0.131,0.232l0.229,0.136
	c0.148,0.088,0.282,0.192,0.396,0.31l0.882,0.906c0.096,0.098,0.181,0.204,0.253,0.318l0.113,0.177l0.175,0.117
	c0.345,0.229,0.6,0.521,0.786,0.734l0.108,0.115c0.609,0.564,0.806,1.459,0.489,2.228c-0.021,0.051-0.049,0.111-0.072,0.157
	c-0.302,0.597-0.873,1.002-1.53,1.088l-0.106,0.014l-0.101,0.036c-0.121,0.043-0.339,0.144-0.491,0.215
	c-0.232,0.11-0.381,0.176-0.529,0.242l-0.097,0.042c-0.197,0.086-0.39,0.173-0.575,0.284c-0.659,0.396-1.264,0.845-1.769,1.234
	c-2.477,1.9-4.093,4.836-5.803,7.944c-1.016,1.847-2.067,3.756-3.34,5.492c-1.125,1.535-2.495,2.844-4.07,3.893l-2.135,1.42
	l2.533,0.4l0.212,0.042l0.281-0.036c0.13-0.03,0.268-0.045,0.411-0.045l2.156,0.012c0.562,0.002,1.1,0.243,1.476,0.66
	c0.117,0.129,0.216,0.273,0.296,0.428l0.612,1.192l0.968-0.926c0.646-0.618,1.546-1.058,2.674-1.307
	c0.291-0.063,0.571-0.073,0.796-0.08l0.085-0.003l0.13-0.019c0.131-0.027,0.265-0.041,0.398-0.041l0.112,0.003
	c0.494,0.028,0.887,0.094,1.207,0.156l0.255,0.049l0.247-0.081c0.249-0.082,0.506-0.124,0.764-0.124
	c0.131,0,0.329,0.019,0.457,0.042c0.958,0.177,1.646,1.012,1.637,1.986l-0.012,1.423c-0.001,0.139-0.017,0.28-0.048,0.419
	l-0.05,0.228l0.056,0.227c0.037,0.151,0.056,0.307,0.054,0.465l-0.012,1.422c-0.01,1.088-0.904,1.977-1.993,1.981
	c-0.271,0-0.54-0.041-0.794-0.12l-0.25-0.078l-0.256,0.055c-0.15,0.032-0.302,0.062-0.458,0.089
	C442.645,580.335,442.314,580.364,441.984,580.364z"/>
<g>
	<g>
		<path fill-rule="evenodd" clip-rule="evenodd" fill="#F09100" d="M430.375,561.385c3.115-4.388,4.947-10.064,9.167-13.35
			c1.016-0.791,2.045-1.469,3.322-2.02c0.433-0.188,0.948-0.421,1.47-0.49v-0.013c-0.347-0.358-0.693-0.717-1.04-1.075
			c-0.338,0.066-0.664,0.233-0.956,0.358c-1.004,0.431-1.881,0.928-2.713,1.518c-1.848,1.311-3.34,2.897-4.649,4.745
			c-0.703,0.992-1.271,2.073-1.9,3.144c-0.693,1.255-1.387,2.51-2.08,3.765c-0.02,0.004-0.04,0.008-0.06,0.012
			c-0.553-0.995-1.107-1.991-1.661-2.987c-1.746-3.195-3.588-6.178-6.431-8.271c-0.956-0.705-1.931-1.342-3.095-1.854
			c-0.34-0.148-0.729-0.362-1.124-0.43c-0.291,0.303-0.582,0.605-0.873,0.908c-0.06,0.06-0.12,0.119-0.18,0.18
			c0.348,0.051,0.686,0.181,0.98,0.299c1.008,0.402,1.859,0.821,2.689,1.374c3.06,2.037,4.991,4.98,6.789,8.282
			c0.713,1.279,1.426,2.559,2.139,3.837c-0.291,0.434-0.582,0.869-0.872,1.303h-0.048c-0.706-1.267-1.411-2.534-2.116-3.801
			c-1.851-3.408-3.911-6.394-7.063-8.497c-0.792-0.529-1.614-0.951-2.546-1.363c-0.299-0.132-0.656-0.299-1.004-0.358
			c-0.259,0.268-0.518,0.534-0.777,0.801c-0.036,0.036-0.071,0.072-0.107,0.107c1.4,0.225,2.798,1.049,3.801,1.709
			c1.74,1.147,3.175,2.603,4.374,4.291c0.287,0.414,0.574,0.829,0.86,1.243c0.472,0.827,0.944,1.652,1.435,2.486
			c0.602,1.091,1.203,2.183,1.805,3.274c0.078,0.139,0.656,1.003,0.633,1.1c-0.045,0.197-0.783,0.844-0.944,1.052
			c-0.178-0.063-0.626-1.017-0.753-1.231c-0.693-1.17-1.29-2.416-1.984-3.598c-1.873-3.186-3.639-5.8-6.681-7.828
			c-0.817-0.545-1.657-0.985-2.629-1.398c-0.214-0.091-0.474-0.233-0.729-0.263c-0.231,0.231-0.462,0.462-0.693,0.692
			c0.131,0.04,0.263,0.08,0.395,0.12c0.326,0.119,0.653,0.239,0.98,0.358c0.962,0.452,1.843,0.945,2.665,1.53
			c3.08,2.19,4.861,5.346,6.741,8.736c0.438,0.789,0.876,1.578,1.315,2.367c0.223,0.378,0.446,0.757,0.669,1.135
			c-0.124,0.164-0.336,0.284-0.502,0.407c-0.577,0.425-1.186,0.797-1.828,1.171c-0.291,0.14-0.582,0.278-0.873,0.418
			c0.319,0.331,0.637,0.661,0.956,0.992c0.164-0.03,0.297-0.136,0.43-0.203c0.474-0.241,0.914-0.494,1.338-0.776
			C428.022,564.227,429.267,562.947,430.375,561.385z M428.224,567.314c1.484-0.987,2.723-2.183,3.753-3.621
			c3.204-4.48,5.068-10.384,9.441-13.697c1.101-0.834,2.206-1.548,3.61-2.104c0.375-0.148,0.812-0.324,1.254-0.383
			c-0.294-0.302-0.59-0.605-0.884-0.908h-0.036c-0.379,0.136-0.757,0.271-1.135,0.406c-0.705,0.312-1.377,0.663-2.009,1.052
			c-2.746,1.691-4.724,4.16-6.406,6.921c-0.811,1.329-1.508,2.736-2.271,4.111c-0.649,1.171-1.349,2.31-2.08,3.394
			c-0.679,1.007-1.431,2.023-2.367,2.773c-0.317,0.254-0.612,0.545-0.944,0.789c-0.436,0.318-0.898,0.577-1.375,0.859
			c-0.285,0.169-0.657,0.433-1.004,0.503c0.127,0.135,0.254,0.271,0.382,0.406c0.144,0.144,0.287,0.287,0.43,0.431
			c0.139-0.072,0.279-0.144,0.419-0.216C427.427,567.794,427.834,567.573,428.224,567.314z M447.048,548.346
			c-0.323,0.119-0.646,0.239-0.968,0.358c-0.669,0.296-1.315,0.63-1.913,1.004c-2.323,1.456-4.165,3.434-5.665,5.713
			c-1.116,1.696-2.059,3.55-3.047,5.366c-0.516,0.947-1.098,1.865-1.662,2.762c-0.722,1.146-1.62,2.431-2.653,3.263
			c-0.312,0.25-0.594,0.549-0.92,0.788c-0.51,0.375-1.04,0.687-1.602,1.017c-0.291,0.171-0.776,0.48-1.124,0.55
			c0.18,0.191,0.359,0.383,0.538,0.573c0.036,0.036,0.072,0.072,0.107,0.108c0.128-0.064,0.255-0.128,0.382-0.191
			c0.406-0.206,0.789-0.415,1.16-0.646c1.563-0.973,2.86-2.184,3.932-3.646c3.295-4.491,5.13-10.459,9.538-13.84
			c0.626-0.48,1.263-0.945,1.96-1.363c0.41-0.245,0.844-0.41,1.291-0.621c0.384-0.182,0.9-0.435,1.375-0.479
			c0.004-0.008,0.008-0.016,0.012-0.024C447.607,548.9,447.254,548.378,447.048,548.346z M421.949,576.182
			c-0.515-0.359-1.237-0.548-1.888-0.765c-0.539-0.18-1.06-0.267-1.422-0.61c-0.005-0.108-0.02-0.192,0.036-0.263
			c0.134-0.171,0.98-0.305,1.362-0.239c0.759,0.132,1.646,0.441,1.77,1.172c0.079,0.004,0.159,0.008,0.238,0.012
			c0.004-0.418,0.008-0.837,0.013-1.255c-0.076-0.004-0.152-0.008-0.228-0.012c-0.058,0.059-0.083,0.146-0.167,0.179
			c-0.309,0.12-1.047-0.155-1.363-0.215c-1-0.187-2.441,0.092-2.868,0.621c-0.337,0.417-0.362,0.932,0.023,1.315
			c0.533,0.531,1.55,0.79,2.343,1.04c0.278,0.087,1.156,0.262,1.051,0.669c-0.081,0.319-0.848,0.413-1.314,0.334
			c-0.793-0.134-1.498-0.285-1.889-0.813c-0.091-0.123-0.115-0.271-0.191-0.418c-0.032-0.048-0.11-0.04-0.191-0.036
			c-0.004,0.479-0.008,0.956-0.012,1.435h0.191c0.056-0.06,0.112-0.119,0.167-0.18c0.378-0.243,1.287,0.061,1.686,0.132
			c1.203,0.215,2.596-0.081,3.047-0.849C422.658,576.902,422.29,576.42,421.949,576.182z M442.47,574.413
			c0.939-0.166,1.736,0.591,2.008,1.16h0.239c0.004-0.475,0.008-0.948,0.012-1.423c-0.402-0.074-0.483,0.338-0.944,0.263
			c-0.57-0.091-1.041-0.235-1.732-0.274c-0.218,0.084-0.733,0.041-0.98,0.096c-1.087,0.24-2.097,0.743-2.283,1.889
			c-0.097,0.597,0.292,1.079,0.586,1.314c0.708,0.568,1.92,1.103,3.251,0.872c0.401-0.069,0.771-0.167,1.147-0.238
			c0.458-0.088,0.532,0.264,0.944,0.263c0.004-0.474,0.008-0.948,0.012-1.423c-0.08-0.004-0.16-0.007-0.239-0.012
			c-0.31,0.529-0.687,0.938-1.338,1.124c-0.16,0.045-0.301,0.019-0.49,0.048c-0.222,0.033-0.537-0.024-0.681-0.119
			c-0.246-0.163-0.348-0.525-0.419-0.861c-0.165-0.789-0.054-2.222,0.395-2.546C442.094,574.446,442.263,574.451,442.47,574.413z
			 M432.43,574.354c0.28-0.004,0.796-0.005,0.896,0.179c0.077,0.202-0.176,0.392-0.263,0.49c-0.314,0.362-0.63,0.725-0.944,1.087
			h-0.06c-0.505-0.577-1.012-1.155-1.518-1.732v-0.012c0.227-0.005,0.454-0.008,0.681-0.012v-0.12
			c-1.414-0.004-2.829-0.008-4.243-0.012c-0.004,0.04-0.008,0.08-0.012,0.12c0.203,0.003,0.406,0.007,0.609,0.012
			c0.669,0.749,1.338,1.498,2.008,2.247v1.505h-0.801c-0.004,0.048-0.008,0.097-0.012,0.144c1.411,0.005,2.821,0.008,4.231,0.012
			v-0.155h-0.813v-1.493c0.083-0.39,0.387-0.585,0.597-0.85c0.192-0.219,0.383-0.438,0.574-0.657
			c0.306-0.382,0.553-0.734,1.231-0.752c0.004-0.04,0.008-0.08,0.012-0.12c-0.721-0.004-1.442-0.008-2.163-0.012
			C432.438,574.266,432.434,574.31,432.43,574.354z"/>
	</g>
</g>
</svg>
