<?xml version="1.0" encoding="utf-8"?>
<!-- Generator: Adobe Illustrator 15.0.0, SVG Export Plug-In  -->
<!DOCTYPE svg PUBLIC "-//W3C//DTD SVG 1.1//EN" "http://www.w3.org/Graphics/SVG/1.1/DTD/svg11.dtd" [
	<!ENTITY ns_flows "http://ns.adobe.com/Flows/1.0/">
]>
<svg version="1.1"
	 xmlns="http://www.w3.org/2000/svg" xmlns:xlink="http://www.w3.org/1999/xlink" xmlns:a="http://ns.adobe.com/AdobeSVGViewerExtensions/3.0/"
	 x="0px" y="0px" width="42px" height="42px" viewBox="308.273 229.639 42 42" enable-background="new 308.273 229.639 42 42"
	 xml:space="preserve">
<defs>
</defs>
<rect display="none" fill="#E0E0E0" width="2229.455" height="1311.244"/>
<rect x="308.273" y="229.639" display="none" fill="#C9C9C9" width="42" height="42"/>
<circle fill="#FFFFFF" stroke="#F2F2F2" stroke-width="0.9757" stroke-miterlimit="10" cx="329.273" cy="250.639" r="17"/>
<path fill="#BBBBBB" d="M337.884,258.325l-2.429-2.431c0.552-0.652,1.001-1.38,1.336-2.171c0.44-1.044,0.666-2.153,0.666-3.295
	c0-1.143-0.223-2.251-0.666-3.295c-0.427-1.009-1.036-1.911-1.814-2.689c-0.778-0.777-1.681-1.387-2.69-1.813
	c-1.044-0.438-2.153-0.662-3.294-0.662s-2.25,0.224-3.294,0.666c-1.009,0.427-1.912,1.036-2.689,1.813
	c-0.778,0.777-1.387,1.681-1.814,2.689c-0.44,1.042-0.664,2.151-0.664,3.293s0.224,2.251,0.667,3.295
	c0.427,1.009,1.036,1.911,1.813,2.689c0.778,0.777,1.681,1.387,2.689,1.813c1.044,0.441,2.153,0.667,3.295,0.667
	s2.251-0.224,3.295-0.667c0.792-0.335,1.518-0.783,2.17-1.335l2.427,2.429c0.274,0.273,0.723,0.273,0.998,0
	C338.158,259.048,338.158,258.6,337.884,258.325L337.884,258.325z M328.992,257.482c-3.894,0-7.052-3.157-7.052-7.052
	s3.158-7.052,7.052-7.052c3.895,0,7.052,3.157,7.052,7.052S332.887,257.482,328.992,257.482L328.992,257.482z M328.992,257.482"/>
<path fill="#BBBBBB" d="M331.891,249.726h-2.194v-2.194c0-0.388-0.317-0.705-0.705-0.705c-0.388,0-0.705,0.317-0.705,0.705v2.194
	h-2.194c-0.388,0-0.706,0.317-0.706,0.705s0.317,0.705,0.706,0.705h2.194v2.194c0,0.388,0.317,0.705,0.705,0.705
	c0.388,0,0.705-0.317,0.705-0.705v-2.194h2.194c0.388,0,0.706-0.317,0.706-0.705S332.279,249.726,331.891,249.726L331.891,249.726z
	 M331.891,249.726"/>
</svg>
