<?xml version="1.0" encoding="utf-8"?>
<!-- Generator: Adobe Illustrator 15.0.0, SVG Export Plug-In  -->
<!DOCTYPE svg PUBLIC "-//W3C//DTD SVG 1.1//EN" "http://www.w3.org/Graphics/SVG/1.1/DTD/svg11.dtd" [
	<!ENTITY ns_flows "http://ns.adobe.com/Flows/1.0/">
]>
<svg version="1.1"
	 xmlns="http://www.w3.org/2000/svg" xmlns:xlink="http://www.w3.org/1999/xlink" xmlns:a="http://ns.adobe.com/AdobeSVGViewerExtensions/3.0/"
	 x="0px" y="0px" width="20px" height="20px" viewBox="172.273 387.639 20 20" enable-background="new 172.273 387.639 20 20"
	 xml:space="preserve">
<defs>
</defs>
<rect display="none" fill="#E0E0E0" width="2229.455" height="1311.244"/>
<rect x="172.273" y="387.639" display="none" fill="#C9C9C9" width="20" height="20"/>
<path fill="#999999" d="M175.491,395.03c-0.142,0.144-0.219,0.332-0.218,0.529c0,0.42,0.351,0.762,0.782,0.762h4.138
	c0.159,0,0.317-0.059,0.456-0.167c0.02-0.012,0.051-0.031,0.099-0.085c0.13-0.139,0.203-0.313,0.207-0.492v-4.159
	c0-0.43-0.339-0.779-0.763-0.779c-0.42,0-0.761,0.351-0.761,0.781v2.301l-2.848-2.849c-0.15-0.15-0.349-0.233-0.559-0.233
	c-0.203,0-0.392,0.078-0.532,0.22c-0.145,0.144-0.222,0.338-0.219,0.545c0.003,0.205,0.086,0.398,0.232,0.546l2.851,2.849h-2.303
	C175.843,394.798,175.638,394.883,175.491,395.03z M175.273,403.873c-0.003,0.208,0.075,0.401,0.218,0.544
	c0.286,0.291,0.797,0.284,1.093-0.012l2.848-2.849v2.301c-0.001,0.212,0.08,0.41,0.228,0.559c0.142,0.144,0.33,0.223,0.54,0.223
	c0.417,0,0.755-0.35,0.755-0.779v-4.143c0-0.186-0.074-0.366-0.177-0.469l-0.046-0.062c-0.032-0.034-0.066-0.054-0.084-0.063
	c-0.14-0.107-0.289-0.162-0.444-0.165h-4.149c-0.431,0-0.782,0.341-0.782,0.759c-0.001,0.198,0.076,0.387,0.218,0.531
	c0.147,0.147,0.352,0.232,0.562,0.232h2.303l-2.851,2.849C175.359,403.476,175.276,403.669,175.273,403.873z M183.775,396.04
	l0.043,0.056c0.03,0.029,0.06,0.047,0.078,0.058c0.136,0.106,0.282,0.162,0.435,0.167l4.16,0.001c0.432,0,0.782-0.342,0.782-0.761
	c0.001-0.198-0.076-0.387-0.219-0.53c-0.148-0.149-0.348-0.232-0.561-0.232h-2.303l2.851-2.85c0.304-0.305,0.31-0.794,0.014-1.089
	c-0.14-0.143-0.33-0.221-0.533-0.221c-0.21,0-0.408,0.083-0.558,0.233l-2.849,2.849v-2.301c0-0.208-0.078-0.403-0.22-0.55
	c-0.144-0.149-0.336-0.231-0.546-0.231c-0.417,0-0.757,0.35-0.757,0.78v4.142C183.591,395.745,183.665,395.926,183.775,396.04z
	 M184.356,404.639c0.418,0,0.758-0.351,0.758-0.78v-2.301l2.848,2.848c0.294,0.297,0.806,0.303,1.09,0.015
	c0.296-0.297,0.291-0.786-0.013-1.091l-2.85-2.849h2.303c0.213,0,0.413-0.083,0.561-0.232c0.143-0.144,0.221-0.332,0.219-0.529
	c0-0.42-0.351-0.761-0.782-0.761h-4.137c-0.162,0-0.316,0.057-0.454,0.164c-0.02,0.012-0.053,0.032-0.102,0.087
	c-0.125,0.135-0.198,0.303-0.204,0.486l-0.002,4.164C183.591,404.289,183.93,404.639,184.356,404.639z"/>
</svg>
