<?xml version="1.0" encoding="utf-8"?>
<!-- Generator: Adobe Illustrator 15.0.0, SVG Export Plug-In  -->
<!DOCTYPE svg PUBLIC "-//W3C//DTD SVG 1.1//EN" "http://www.w3.org/Graphics/SVG/1.1/DTD/svg11.dtd" [
	<!ENTITY ns_flows "http://ns.adobe.com/Flows/1.0/">
]>
<svg version="1.1"
	 xmlns="http://www.w3.org/2000/svg" xmlns:xlink="http://www.w3.org/1999/xlink" xmlns:a="http://ns.adobe.com/AdobeSVGViewerExtensions/3.0/"
	 x="0px" y="0px" width="42px" height="42px" viewBox="0 0 42 42" enable-background="new 0 0 42 42" xml:space="preserve">
<defs>
</defs>
<rect display="none" fill="#C9C9C9" width="42" height="42"/>
<path fill="#FFFFFF" d="M6.786,19.064c0.75-0.338,1.501-0.527,2.169-0.572V8.351h12.03v11.516l0,0
	c-0.012,0.995-1.128,2.233-2.786,2.98c-1.95,0.88-3.914,0.746-4.383-0.299c-0.469-1.044,0.732-2.604,2.684-3.484
	c0.752-0.338,1.504-0.527,2.173-0.571V12.34h-7.405v7.422c0.069,1.012-1.066,2.312-2.785,3.085c-1.95,0.88-3.912,0.746-4.381-0.299
	C3.632,21.503,4.834,19.944,6.786,19.064L6.786,19.064z M18.412,28.329c-4.324,1.95-6.987,5.406-5.947,7.72
	c1.04,2.316,5.389,2.612,9.714,0.663c3.981-1.795,6.553-4.865,6.127-7.147V17.056c4.578,0.511,7.098,1.1,5.115,6.521l1.358,1.065
	c3.349-3.401,4.375-6.013,1.694-10.284C34.332,10.945,30.449,7.567,28.306,4H24.14v23.044C22.451,27,20.43,27.419,18.412,28.329
	L18.412,28.329z M18.412,28.329"/>
</svg>
