<?xml version="1.0" encoding="utf-8"?>
<!-- Generator: Adobe Illustrator 15.0.0, SVG Export Plug-In  -->
<!DOCTYPE svg PUBLIC "-//W3C//DTD SVG 1.1//EN" "http://www.w3.org/Graphics/SVG/1.1/DTD/svg11.dtd" [
	<!ENTITY ns_flows "http://ns.adobe.com/Flows/1.0/">
]>
<svg version="1.1"
	 xmlns="http://www.w3.org/2000/svg" xmlns:xlink="http://www.w3.org/1999/xlink" xmlns:a="http://ns.adobe.com/AdobeSVGViewerExtensions/3.0/"
	 x="0px" y="0px" width="42px" height="42px" viewBox="145.273 177.639 42 42" enable-background="new 145.273 177.639 42 42"
	 xml:space="preserve">
<defs>
</defs>
<rect display="none" fill="#E0E0E0" width="2229.455" height="1311.244"/>
<rect x="145.273" y="177.639" display="none" fill="#C9C9C9" width="42" height="42"/>
<path fill="#FFFFFF" d="M151.518,194.891c0,1.731,1.404,3.135,3.135,3.135c1.732,0,3.135-1.404,3.135-3.135
	c0-0.546-0.152-1.052-0.397-1.5l-2.426-6.19c-0.1-0.248,0.033-0.528,0.288-0.613l2.725-0.898c0.628-0.207,0.939-0.913,0.662-1.516
	l-0.488-1.065c-0.233-0.506-0.799-0.761-1.331-0.599l-3.989,1.216c-0.643,0.196-0.983,0.902-0.732,1.527l2.598,6.507
	c-0.015,0-0.029-0.004-0.044-0.004C152.921,191.756,151.518,193.16,151.518,194.891z M180.538,191.979l-14.383-4.443
	c-0.614-0.187-1.268,0.132-1.494,0.731l-5.251,13.892c-0.877-1.057-2.185-1.745-3.666-1.745c-2.641,0-4.783,2.141-4.783,4.783
	c0,2.641,2.142,4.782,4.783,4.782c2.038,0,3.766-1.279,4.455-3.074l0.009,0.004l4.79-12.671c0.229-0.606,0.894-0.925,1.511-0.724
	l9.614,3.14c0.662,0.215,1.005,0.946,0.752,1.594l-3.636,9.295c-0.877-1.077-2.197-1.778-3.693-1.778
	c-2.642,0-4.783,2.141-4.783,4.782c0,2.642,2.142,4.783,4.783,4.783c2.008,0,3.721-1.241,4.43-2.995l7.336-18.756
	C181.567,192.922,181.21,192.188,180.538,191.979z"/>
</svg>
