<?xml version="1.0" encoding="utf-8"?>
<!-- Generator: Adobe Illustrator 15.0.0, SVG Export Plug-In  -->
<!DOCTYPE svg PUBLIC "-//W3C//DTD SVG 1.1//EN" "http://www.w3.org/Graphics/SVG/1.1/DTD/svg11.dtd" [
	<!ENTITY ns_flows "http://ns.adobe.com/Flows/1.0/">
]>
<svg version="1.1"
	 xmlns="http://www.w3.org/2000/svg" xmlns:xlink="http://www.w3.org/1999/xlink" xmlns:a="http://ns.adobe.com/AdobeSVGViewerExtensions/3.0/"
	 x="0px" y="0px" width="18px" height="18px" viewBox="400.273 119.639 18 18" enable-background="new 400.273 119.639 18 18"
	 xml:space="preserve">
<defs>
</defs>
<rect display="none" fill="#E0E0E0" width="2229.455" height="1311.244"/>
<rect x="400.273" y="119.639" display="none" fill="#C9C9C9" width="18" height="18"/>
<path fill="#FFFFFF" d="M403.273,135.762c0,0.483,0.384,0.876,0.857,0.876h10.285c0.474,0,0.857-0.393,0.857-0.876v-9.866v-0.876
	h-12V135.762z M406.025,128.792c-0.366-0.406-0.347-1.023,0.042-1.407c0.389-0.384,1.014-0.402,1.425-0.042l1.786,1.763l1.786-1.763
	c0.412-0.361,1.036-0.342,1.427,0.042c0.389,0.384,0.408,1.001,0.041,1.407l-1.786,1.763l1.762,1.751
	c0.367,0.407,0.348,1.023-0.042,1.408c-0.39,0.384-1.014,0.402-1.427,0.042l-1.786-1.763l-1.773,1.751
	c-0.411,0.361-1.037,0.343-1.426-0.042c-0.389-0.383-0.407-1-0.042-1.407l1.786-1.763L406.025,128.792z"/>
<path fill="#FFFFFF" d="M415.273,122.391h-4.286v-0.876c0-0.484-0.383-0.876-0.857-0.876h-1.714c-0.474,0-0.857,0.392-0.857,0.876
	v0.876h-4.286c-0.474,0-0.857,0.392-0.857,0.876v0.876h13.714v-0.876C416.13,122.783,415.747,122.391,415.273,122.391z"/>
</svg>
