<?xml version="1.0" encoding="utf-8"?>
<!-- Generator: Adobe Illustrator 15.0.0, SVG Export Plug-In  -->
<!DOCTYPE svg PUBLIC "-//W3C//DTD SVG 1.1//EN" "http://www.w3.org/Graphics/SVG/1.1/DTD/svg11.dtd" [
	<!ENTITY ns_flows "http://ns.adobe.com/Flows/1.0/">
]>
<svg version="1.1"
	 xmlns="http://www.w3.org/2000/svg" xmlns:xlink="http://www.w3.org/1999/xlink" xmlns:a="http://ns.adobe.com/AdobeSVGViewerExtensions/3.0/"
	 x="0px" y="0px" width="42px" height="42px" viewBox="0 0 42 42" enable-background="new 0 0 42 42" xml:space="preserve">
<defs>
</defs>
<rect display="none" fill="#C9C9C9" width="42" height="42"/>
<path fill="#FFFFFF" d="M20.979,38C11.591,37.988,3.992,30.373,4,20.986C4.007,11.601,11.621,3.997,21.007,4
	C30.393,4.004,38,11.614,38,21c-0.003,4.51-1.798,8.836-4.991,12.025C29.818,36.214,25.49,38.003,20.979,38L20.979,38z
	 M20.979,6.718c-5.786,0-11.001,3.484-13.216,8.829c-2.214,5.344-0.99,11.496,3.1,15.587c4.09,4.091,10.243,5.315,15.587,3.101
	c5.345-2.214,8.83-7.43,8.83-13.214C35.28,13.123,28.877,6.719,20.979,6.718L20.979,6.718z M32.705,21.166v-0.002
	c0,0.011-0.002,0.021-0.002,0.032c0,0.005,0,0.011,0,0.017c0,0.007-0.002,0.015-0.004,0.022l-0.002,0.027v0.002
	c-0.03,0.198-0.115,0.381-0.247,0.53c-0.249,0.32-0.52,0.62-0.791,0.916c-1.45,1.601-3.142,2.966-5.015,4.043
	c-1.169,0.675-2.437,1.162-3.758,1.444c-1.427,0.285-2.898,0.262-4.317-0.066c-2.481-0.572-4.728-2-6.692-3.705
	c-0.939-0.792-1.797-1.673-2.564-2.632c-0.329-0.393-0.329-0.965,0-1.356c0.247-0.32,0.52-0.623,0.792-0.917
	c1.45-1.601,3.141-2.965,5.014-4.041c1.168-0.676,2.437-1.164,3.757-1.446c1.427-0.285,2.899-0.262,4.316,0.065
	c2.481,0.574,4.729,2.001,6.692,3.707c0.938,0.791,1.797,1.673,2.564,2.631c0.133,0.147,0.219,0.333,0.247,0.531c0,0,0,0,0,0.001
	l0.003,0.028l0.005,0.023v0.016c0,0.01,0,0.021,0,0.031c0,0.016,0.003,0.032,0.003,0.048L32.705,21.166L32.705,21.166z
	 M20.884,16.199c-2.448,0-4.434,2.112-4.434,4.72s1.986,4.719,4.434,4.719c2.446,0,4.435-2.112,4.435-4.719
	C25.319,18.313,23.333,16.199,20.884,16.199L20.884,16.199z M20.884,23.277c-1.224,0-2.217-1.057-2.217-2.359
	c0-1.303,0.993-2.359,2.217-2.359s2.216,1.057,2.216,2.36C23.101,22.222,22.108,23.277,20.884,23.277L20.884,23.277z M20.884,23.277
	"/>
</svg>
