<?xml version="1.0" encoding="utf-8"?>
<!-- Generator: Adobe Illustrator 15.0.0, SVG Export Plug-In  -->
<!DOCTYPE svg PUBLIC "-//W3C//DTD SVG 1.1//EN" "http://www.w3.org/Graphics/SVG/1.1/DTD/svg11.dtd" [
	<!ENTITY ns_flows "http://ns.adobe.com/Flows/1.0/">
]>
<svg version="1.1"
	 xmlns="http://www.w3.org/2000/svg" xmlns:xlink="http://www.w3.org/1999/xlink" xmlns:a="http://ns.adobe.com/AdobeSVGViewerExtensions/3.0/"
	 x="0px" y="0px" width="42px" height="42px" viewBox="253.273 177.639 42 42" enable-background="new 253.273 177.639 42 42"
	 xml:space="preserve">
<defs>
</defs>
<rect display="none" fill="#E0E0E0" width="2229.455" height="1311.244"/>
<rect x="253.273" y="177.639" display="none" fill="#C9C9C9" width="42" height="42"/>
<path fill="#FFFFFF" d="M273.851,206.691c4.7,0,8.497-3.692,8.497-8.259c0-4.566-3.812-8.259-8.497-8.259
	c-4.7,0-8.496,3.693-8.496,8.259C265.359,203.002,269.166,206.691,273.851,206.691L273.851,206.691z M287.525,195.761
	c0,6.53-4.83,11.952-11.204,13.074c2.281,0.415,4.367,1.367,6.107,2.722c1.433,1.123,0.611,3.381-1.233,3.381h-14.67
	c-1.845,0-2.667-2.259-1.233-3.381c1.726-1.366,3.822-2.322,6.107-2.722c-6.385-1.122-11.215-6.544-11.215-13.074
	c0-7.344,6.119-13.292,13.67-13.292S287.525,188.417,287.525,195.761L287.525,195.761z M268.725,200.032
	c0-2.83,2.296-5.126,5.126-5.126s5.126,2.296,5.126,5.126s-2.296,5.126-5.126,5.126S268.725,202.861,268.725,200.032
	L268.725,200.032z M268.725,200.032"/>
</svg>
