<?xml version="1.0" encoding="utf-8"?>
<!-- Generator: Adobe Illustrator 15.0.0, SVG Export Plug-In  -->
<!DOCTYPE svg PUBLIC "-//W3C//DTD SVG 1.1//EN" "http://www.w3.org/Graphics/SVG/1.1/DTD/svg11.dtd" [
	<!ENTITY ns_flows "http://ns.adobe.com/Flows/1.0/">
]>
<svg version="1.1"
	 xmlns="http://www.w3.org/2000/svg" xmlns:xlink="http://www.w3.org/1999/xlink" xmlns:a="http://ns.adobe.com/AdobeSVGViewerExtensions/3.0/"
	 x="0px" y="0px" width="42px" height="42px" viewBox="308.273 177.639 42 42" enable-background="new 308.273 177.639 42 42"
	 xml:space="preserve">
<defs>
</defs>
<rect display="none" fill="#E0E0E0" width="2229.455" height="1311.244"/>
<rect x="308.273" y="177.639" display="none" fill="#C9C9C9" width="42" height="42"/>
<path fill="#FFFFFF" d="M319.126,193.2c-0.615,0-1.115,0.5-1.115,1.115v3.113c0,0.615,0.5,1.115,1.115,1.115
	c0.615,0,1.115-0.5,1.115-1.115v-3.132C320.241,193.681,319.741,193.2,319.126,193.2 M322.701,191.413
	c-0.615,0-1.115,0.5-1.115,1.115v6.227c0,0.615,0.5,1.114,1.115,1.114c0.615,0,1.096-0.5,1.115-1.114v-6.246
	C323.815,191.894,323.316,191.413,322.701,191.413 M326.275,189.625c-0.615,0-1.115,0.5-1.115,1.115v9.801
	c0,0.615,0.5,1.115,1.115,1.115c0.615,0,1.095-0.5,1.115-1.115v-9.82C327.371,190.125,326.89,189.625,326.275,189.625
	 M329.831,191.413c-0.615,0-1.115,0.5-1.115,1.115v6.227c0,0.615,0.5,1.114,1.115,1.114c0.615,0,1.115-0.5,1.115-1.114v-6.246
	C330.926,191.894,330.446,191.413,329.831,191.413 M333.386,193.2c-0.615,0-1.115,0.5-1.115,1.115v3.113
	c0,0.615,0.5,1.115,1.115,1.115c0.615,0,1.095-0.5,1.114-1.115v-3.132C334.52,193.681,334.001,193.2,333.386,193.2"/>
<path fill="#FFFFFF" d="M323.681,203.674l-3.536,3.537v-3.594h-5.747c-0.461,0-0.846-0.385-0.846-0.846v-16.085
	c0-0.48,0.385-0.865,0.846-0.865h22.985c0.615,0,1.115,0.5,1.115,1.115v15.797c0,0.5-0.403,0.903-0.903,0.903L323.681,203.674z
	 M340.747,202.751v-15.797c0-1.845-1.499-3.363-3.363-3.363h-22.965c-1.691,0-3.075,1.384-3.094,3.094v16.047
	c0,1.71,1.384,3.075,3.094,3.094h3.517v3.978c0,0.634,0.519,1.153,1.153,1.153l0.5-0.019l5.035-5.054h13.011
	c1.71,0.019,3.113-1.365,3.132-3.075C340.747,202.771,340.747,202.771,340.747,202.751L340.747,202.751z M340.747,202.751"/>
<path fill="#FFFFFF" d="M342.092,195.987v7.399c0,2.152-1.538,3.863-3.69,3.863H327.89c0,2.671,1.691,4.458,4.805,4.458h2.671
	l3.056,3.094c0.365,0.365,0.98,0.154,0.98-0.346v-2.768h0.269c4.228,0,6.861-2.518,6.861-6.669v-5.112
	C346.531,197.621,345.205,195.987,342.092,195.987"/>
</svg>
