<?xml version="1.0" encoding="utf-8"?>
<!-- Generator: Adobe Illustrator 15.0.0, SVG Export Plug-In  -->
<!DOCTYPE svg PUBLIC "-//W3C//DTD SVG 1.1//EN" "http://www.w3.org/Graphics/SVG/1.1/DTD/svg11.dtd" [
	<!ENTITY ns_flows "http://ns.adobe.com/Flows/1.0/">
]>
<svg version="1.1"
	 xmlns="http://www.w3.org/2000/svg" xmlns:xlink="http://www.w3.org/1999/xlink" xmlns:a="http://ns.adobe.com/AdobeSVGViewerExtensions/3.0/"
	 x="0px" y="0px" width="42px" height="42px" viewBox="199.273 229.639 42 42" enable-background="new 199.273 229.639 42 42"
	 xml:space="preserve">
<defs>
</defs>
<rect display="none" fill="#E0E0E0" width="2229.455" height="1311.244"/>
<rect x="199.273" y="229.639" display="none" fill="#C9C9C9" width="42" height="42"/>
<path fill="#FFFFFF" d="M211.491,254.164c-0.26-0.606-0.953-0.953-1.559-0.779c-0.779,0.26-1.125,1.04-0.866,1.732
	c1.818,4.503,6.148,7.621,11.258,7.621c5.109,0,9.439-3.118,11.257-7.621c0.26-0.692-0.173-1.559-0.866-1.732
	c-0.606-0.173-1.299,0.173-1.559,0.779c-1.473,3.551-4.85,5.976-8.833,5.976C216.427,260.139,212.963,257.628,211.491,254.164
	L211.491,254.164z M211.491,254.164"/>
<path fill="#FFFFFF" d="M235.738,254.856c-0.606-0.173-1.299,0.173-1.559,0.78c-1.992,5.628-7.448,9.699-13.769,9.699
	c-6.322,0-11.777-4.07-13.942-9.699c-0.173-0.606-0.866-0.953-1.559-0.78c-0.693,0.26-1.125,1.039-0.866,1.732
	c2.424,6.581,8.919,11.344,16.28,11.344c7.447,0,13.855-4.763,16.193-11.344C236.777,255.809,236.344,255.03,235.738,254.856
	L235.738,254.856z M235.738,254.856"/>
<path fill="#FFFFFF" d="M220.324,257.541c2.684,0,5.022-1.559,6.148-3.81c0.433-0.693,0-1.559-0.78-1.818
	c-0.52-0.173-1.212,0.086-1.472,0.606c-0.692,1.472-2.165,2.424-3.896,2.424c-1.732,0-3.118-0.952-3.897-2.424
	c-0.26-0.52-0.866-0.779-1.472-0.606c-0.779,0.259-1.126,1.125-0.779,1.818C215.388,255.982,217.726,257.541,220.324,257.541
	L220.324,257.541z M233.313,238.403h-1.732v-1.731c0-0.953-0.779-1.732-1.732-1.732h-19.051c-0.953,0-1.732,0.78-1.732,1.732v1.731
	h-1.732c-1.905,0-3.464,1.559-3.464,3.464v3.464c0,1.905,1.559,3.464,3.464,3.464h25.979c1.905,0,3.464-1.559,3.464-3.464v-3.464
	C236.777,239.962,235.218,238.403,233.313,238.403L233.313,238.403z M210.798,245.331c-0.953,0-1.732-0.779-1.732-1.732
	s0.779-1.732,1.732-1.732s1.732,0.779,1.732,1.732S211.75,245.331,210.798,245.331L210.798,245.331z M216.86,245.331
	c-0.953,0-1.732-0.779-1.732-1.732s0.779-1.732,1.732-1.732c0.952,0,1.731,0.779,1.731,1.732S217.812,245.331,216.86,245.331
	L216.86,245.331z M222.921,245.331c-0.953,0-1.732-0.779-1.732-1.732s0.779-1.732,1.732-1.732s1.732,0.779,1.732,1.732
	S223.874,245.331,222.921,245.331L222.921,245.331z M228.983,245.331c-0.953,0-1.732-0.779-1.732-1.732s0.779-1.732,1.732-1.732
	s1.732,0.779,1.732,1.732S229.936,245.331,228.983,245.331L228.983,245.331z M228.983,245.331"/>
</svg>
