<?xml version="1.0" encoding="utf-8"?>
<!-- Generator: Adobe Illustrator 15.0.0, SVG Export Plug-In  -->
<!DOCTYPE svg PUBLIC "-//W3C//DTD SVG 1.1//EN" "http://www.w3.org/Graphics/SVG/1.1/DTD/svg11.dtd" [
	<!ENTITY ns_flows "http://ns.adobe.com/Flows/1.0/">
]>
<svg version="1.1"
	 xmlns="http://www.w3.org/2000/svg" xmlns:xlink="http://www.w3.org/1999/xlink" xmlns:a="http://ns.adobe.com/AdobeSVGViewerExtensions/3.0/"
	 x="0px" y="0px" width="18px" height="18px" viewBox="355.273 119.639 18 18" enable-background="new 355.273 119.639 18 18"
	 xml:space="preserve">
<defs>
</defs>
<rect display="none" fill="#E0E0E0" width="2229.455" height="1311.244"/>
<rect x="355.273" y="119.639" display="none" fill="#C9C9C9" width="18" height="18"/>
<path fill="#FFFFFF" d="M371.606,121.639h-14.667c-0.367,0-0.667,0.315-0.667,0.7c0,0.385,0.3,0.7,0.667,0.7h14.667
	c0.366,0,0.667-0.315,0.667-0.7C372.273,121.954,371.973,121.639,371.606,121.639L371.606,121.639z M372.273,134.938
	c0,0.182-0.067,0.357-0.193,0.497c-0.125,0.131-0.293,0.205-0.47,0.205c-0.177,0-0.346-0.073-0.47-0.205l-6.2-6.509
	c-0.174-0.182-0.42-0.287-0.667-0.287c-0.247,0-0.493,0.105-0.667,0.287l-6.193,6.502c-0.259,0.272-0.68,0.272-0.939,0
	c-0.26-0.272-0.26-0.714,0-0.986l6.193-6.502c0.426-0.456,1-0.701,1.606-0.701s1.18,0.245,1.606,0.701l6.193,6.502
	C372.206,134.581,372.273,134.755,372.273,134.938L372.273,134.938z M372.273,134.938"/>
</svg>
