<?xml version="1.0" encoding="utf-8"?>
<!-- Generator: Adobe Illustrator 15.0.0, SVG Export Plug-In  -->
<!DOCTYPE svg PUBLIC "-//W3C//DTD SVG 1.1//EN" "http://www.w3.org/Graphics/SVG/1.1/DTD/svg11.dtd" [
	<!ENTITY ns_flows "http://ns.adobe.com/Flows/1.0/">
]>
<svg version="1.1"
	 xmlns="http://www.w3.org/2000/svg" xmlns:xlink="http://www.w3.org/1999/xlink" xmlns:a="http://ns.adobe.com/AdobeSVGViewerExtensions/3.0/"
	 x="0px" y="0px" width="22px" height="22px" viewBox="307.273 144.639 22 22" enable-background="new 307.273 144.639 22 22"
	 xml:space="preserve">
<defs>
</defs>
<rect display="none" fill="#E0E0E0" width="2229.455" height="1311.244"/>
<rect x="307.273" y="144.639" display="none" fill="#C9C9C9" width="22" height="22"/>
<path fill="#FFFFFF" d="M308.273,154.443c0-0.629,0.148-1.056,0.444-1.281c0.296-0.225,0.77-0.337,1.421-0.337h1.398
	c0.637,0,1.314-0.003,2.033-0.011c0.719-0.007,1.417-0.011,2.099-0.011h1.621c0.563,0,1.011-0.056,1.344-0.168
	c0.332-0.113,0.492-0.371,0.478-0.775c0-0.299,0.006-0.655,0.021-1.067c0.015-0.412,0.023-0.776,0.023-1.09
	c0-0.524,0.14-0.857,0.422-1.001c0.281-0.142,0.644-0.04,1.088,0.304c0.444,0.36,0.969,0.783,1.577,1.27
	c0.607,0.487,1.226,0.985,1.855,1.494s1.251,1.011,1.865,1.506c0.614,0.494,1.159,0.929,1.632,1.303
	c0.444,0.36,0.67,0.701,0.677,1.023s-0.196,0.655-0.611,1c-0.415,0.36-0.91,0.776-1.487,1.247c-0.578,0.473-1.178,0.959-1.8,1.461
	c-0.621,0.501-1.232,1-1.831,1.495c-0.6,0.494-1.137,0.936-1.611,1.325c-0.518,0.42-0.943,0.58-1.277,0.483
	c-0.333-0.098-0.499-0.416-0.499-0.955v-0.562c0-0.21-0.004-0.427-0.011-0.651c-0.008-0.225-0.015-0.446-0.022-0.663
	c-0.007-0.218-0.011-0.408-0.011-0.573c-0.016-0.374-0.134-0.61-0.355-0.708c-0.223-0.097-0.526-0.147-0.911-0.147
	c-0.43,0-0.993,0.005-1.688,0.012c-0.696,0.008-1.421,0.012-2.176,0.012c-0.755,0-1.488,0.004-2.199,0.011
	c-0.71,0.007-1.288,0.011-1.732,0.011c-0.193,0-0.393-0.015-0.6-0.045c-0.208-0.029-0.396-0.101-0.566-0.213
	c-0.17-0.112-0.311-0.27-0.422-0.472c-0.111-0.203-0.167-0.469-0.167-0.797c0-0.405-0.004-0.794-0.011-1.168
	C308.277,155.326,308.273,154.907,308.273,154.443L308.273,154.443z M308.273,154.443"/>
</svg>
