<?xml version="1.0" encoding="utf-8"?>
<!-- Generator: Adobe Illustrator 15.0.0, SVG Export Plug-In  -->
<!DOCTYPE svg PUBLIC "-//W3C//DTD SVG 1.1//EN" "http://www.w3.org/Graphics/SVG/1.1/DTD/svg11.dtd" [
	<!ENTITY ns_flows "http://ns.adobe.com/Flows/1.0/">
]>
<svg version="1.1"
	 xmlns="http://www.w3.org/2000/svg" xmlns:xlink="http://www.w3.org/1999/xlink" xmlns:a="http://ns.adobe.com/AdobeSVGViewerExtensions/3.0/"
	 x="0px" y="0px" width="18px" height="18px" viewBox="377.273 119.639 18 18" enable-background="new 377.273 119.639 18 18"
	 xml:space="preserve">
<defs>
</defs>
<rect display="none" fill="#E0E0E0" width="2229.455" height="1311.244"/>
<rect x="377.273" y="119.639" display="none" fill="#C9C9C9" width="18" height="18"/>
<path fill="#FFFFFF" d="M392.398,121.639c0.251,0,0.459,0.082,0.626,0.249c0.165,0.167,0.249,0.375,0.249,0.626
	c0,0.245-0.084,0.453-0.252,0.62l-5.511,5.505l5.511,5.502c0.168,0.168,0.252,0.375,0.252,0.623c0,0.249-0.084,0.458-0.249,0.624
	c-0.167,0.167-0.375,0.251-0.626,0.251c-0.247,0-0.454-0.086-0.622-0.255l-5.503-5.508l-5.503,5.508
	c-0.168,0.169-0.375,0.255-0.623,0.255c-0.25,0-0.459-0.083-0.625-0.251c-0.166-0.166-0.249-0.375-0.249-0.624
	c0-0.247,0.084-0.455,0.252-0.623l5.51-5.502l-5.51-5.505c-0.168-0.167-0.252-0.375-0.252-0.62c0-0.251,0.083-0.459,0.249-0.626
	s0.375-0.249,0.625-0.249c0.247,0,0.455,0.083,0.623,0.253l5.503,5.508l5.503-5.508
	C391.944,121.722,392.151,121.639,392.398,121.639"/>
</svg>
