<?xml version="1.0" encoding="utf-8"?>
<!-- Generator: Adobe Illustrator 15.0.0, SVG Export Plug-In  -->
<!DOCTYPE svg PUBLIC "-//W3C//DTD SVG 1.1//EN" "http://www.w3.org/Graphics/SVG/1.1/DTD/svg11.dtd" [
	<!ENTITY ns_flows "http://ns.adobe.com/Flows/1.0/">
]>
<svg version="1.1"
	 xmlns="http://www.w3.org/2000/svg" xmlns:xlink="http://www.w3.org/1999/xlink" xmlns:a="http://ns.adobe.com/AdobeSVGViewerExtensions/3.0/"
	 x="0px" y="0px" width="24px" height="24px" viewBox="0 0 24 24" enable-background="new 0 0 24 24" xml:space="preserve">
<defs>
</defs>
<rect display="none" fill="#C9C9C9" width="24" height="24"/>
<path fill="#C33730" d="M19.086,20.684l-3.451-3.451c-3.32,2.482-7.993,1.976-10.707-1.156C2.215,12.942,2.384,8.246,5.316,5.315
	c2.93-2.931,7.626-3.1,10.761-0.386c3.132,2.712,3.639,7.387,1.157,10.706l3.449,3.451c0.428,0.444,0.422,1.147-0.013,1.583
	S19.53,21.111,19.086,20.684L19.086,20.684z M5.253,10.898c0,3.12,2.528,5.648,5.647,5.648c3.119,0,5.648-2.528,5.648-5.648
	c0-3.118-2.529-5.648-5.648-5.648c-3.12,0.001-5.646,2.53-5.647,5.646V10.898z M5.253,10.898"/>
</svg>
