<?xml version="1.0" encoding="utf-8"?>
<!-- Generator: Adobe Illustrator 15.0.0, SVG Export Plug-In  -->
<!DOCTYPE svg PUBLIC "-//W3C//DTD SVG 1.1//EN" "http://www.w3.org/Graphics/SVG/1.1/DTD/svg11.dtd" [
	<!ENTITY ns_flows "http://ns.adobe.com/Flows/1.0/">
]>
<svg version="1.1"
	 xmlns="http://www.w3.org/2000/svg" xmlns:xlink="http://www.w3.org/1999/xlink" xmlns:a="http://ns.adobe.com/AdobeSVGViewerExtensions/3.0/"
	 x="0px" y="0px" width="28px" height="28px" viewBox="339.273 143.639 28 28" enable-background="new 339.273 143.639 28 28"
	 xml:space="preserve">
<defs>
</defs>
<rect display="none" fill="#E0E0E0" width="2229.455" height="1311.244"/>
<rect x="339.273" y="143.639" display="none" fill="#C9C9C9" width="28" height="28"/>
<path fill="#FFFFFF" d="M345.903,169.625h1.104l0.015,0.014h11.987l0.014-0.014h1.62c1.17,0,2.174-0.693,2.614-1.684H343.29
	C343.729,168.932,344.732,169.625,345.903,169.625"/>
<path fill="#FFFFFF" d="M364.394,157.418l-0.899-0.083v-1.197c0-2.516-2.075-4.557-4.635-4.557h-5.003v-2.978
	c-0.043,0.018-0.09,0.026-0.134,0.04c0.644-0.192,1.115-0.771,1.115-1.466c0-0.74-0.532-1.356-1.24-1.503
	c0.001,0,0.001-0.001,0.001-0.001c-0.001,0-0.003,0-0.005,0c-0.104-0.021-0.211-0.033-0.321-0.033c-0.863,0-1.564,0.688-1.564,1.538
	c0,0.69,0.465,1.267,1.102,1.461c-0.041-0.012-0.082-0.02-0.12-0.035v2.978h-5.004c-2.551,0-4.62,2.027-4.634,4.532v1.375
	l-0.899,0.095c-0.516,0.148-0.879,0.687-0.879,1.308v3.613c0,0.623,0.364,1.162,0.879,1.309l0.897,0.256v1.631l0.001,0.001v1.121
	c0,0.156,0.017,0.307,0.04,0.454h4.824v-1.333h0.128v-0.403h0.419v0.253h0.141v0.413c-0.01,0.005-0.02,0.009-0.03,0.014
	c-0.007,0.005-0.014,0.009-0.021,0.012c-0.001,0.001-0.003,0.003-0.006,0.004l-0.049,0.031l-0.004,0.003l-0.024,0.02
	c-0.007,0.005-0.014,0.012-0.022,0.018c-0.005,0.006-0.012,0.01-0.017,0.015c-0.01,0.011-0.02,0.021-0.031,0.031
	c-0.004,0.005-0.008,0.01-0.012,0.014c-0.004,0.005-0.009,0.01-0.012,0.014l-0.001,0.002l-0.019,0.022
	c-0.021,0.027-0.038,0.056-0.055,0.086c-0.003,0.005-0.005,0.011-0.008,0.019c-0.005,0.007-0.007,0.013-0.01,0.019l-0.004,0.011
	l-0.002,0.006l-0.002,0.006h0c0,0,0,0,0,0c-0.015,0.037-0.026,0.074-0.034,0.113c-0.001,0.007-0.003,0.015-0.005,0.022
	c0,0.009-0.001,0.017-0.002,0.024l0,0l-0.001,0.006v0.006l-0.001,0.007v0.004c-0.001,0.007-0.001,0.014-0.001,0.022v0.031
	c0,0.018,0,0.035,0.001,0.053c0.001,0.009,0.002,0.019,0.003,0.027c0,0.005,0.001,0.01,0.001,0.016
	c0.001,0.006,0.001,0.011,0.003,0.015v0.003l0.002,0.007l0,0.005l0.002,0.01c0.003,0.018,0.009,0.035,0.015,0.054
	c0.003,0.013,0.007,0.024,0.012,0.036c0.003,0.006,0.005,0.012,0.007,0.017c0.001,0.005,0.004,0.009,0.004,0.012h-0.061v0.236h0.016
	v-0.218h0.762v0.032h-0.085v0.055h0.085v0.034h-0.085v0.055h0.085v0.042h0.016v-0.625l-0.075-0.076v-0.086h0.25l0.286,0.001
	l0.497,0.001h0.019l0.397,0.001h0.016l0.383,0.001h0.039l0.088,0.001v0.782h0.018v-0.059h0.093v-0.059h-0.093v-0.034h0.093v-0.059
	h-0.093v-0.033h0.775v0.244h0.03v-0.81l0.003-0.002l0.182-0.235l0.001-0.001l0.002-0.002l0.185-0.24v1.291h0.02v-1.291l0.014,0.018
	l0.175,0.226l0.184,0.236l0.002,0.001v0.162c-0.011,0.001-0.022,0.004-0.033,0.005v-0.168l-0.008-0.01l-0.009-0.011v0.192
	c-0.013,0.003-0.028,0.006-0.042,0.009v-0.255l-0.016-0.021v0.278c-0.014,0.003-0.028,0.007-0.042,0.01h-0.001v-0.342l-0.017-0.021
	v0.366c-0.001,0-0.004,0.002-0.006,0.002c-0.005,0.001-0.009,0.002-0.014,0.003c-0.006,0.001-0.015,0.004-0.022,0.005v-0.43
	l-0.008-0.011l-0.008-0.01v0.455l-0.01,0.001l-0.013,0.004v0.597h0.017v-0.584c0.007-0.001,0.015-0.001,0.021-0.005
	c0.07-0.015,0.138-0.029,0.207-0.041c0.048-0.008,0.095-0.016,0.141-0.021c0.059-0.008,0.116-0.013,0.175-0.018
	c0.089-0.007,0.177-0.01,0.265-0.011c0.044,0,0.086,0,0.128,0.001c0.062,0.002,0.123,0.005,0.183,0.009
	c0.035,0.002,0.069,0.005,0.104,0.008c0.093,0.008,0.187,0.018,0.279,0.03c0,0,0.001,0,0.002,0h0.001
	c0.09,0.012,0.178,0.025,0.267,0.038c0.019,0.003,0.038,0.007,0.059,0.009v0.584h0.018v-0.037h0.107v0.037h0.018v-0.516h0.113v-0.2
	h1.019v0.2h0.113v0.516h0.018v-0.533h-0.113v-0.016h0.034v-0.023h-0.034v-0.061h0.034v-0.023h-0.034v-0.061h0.034v-0.023h-0.048
	v0.008h-0.022v-0.008h-0.027v0.008h-0.051v-0.008h-0.075v0.008h-0.115v-0.996h0.732v1.572h0.035v0.064h-0.068v0.092h0.018v-0.074
	h0.978v0.074h0.019v-0.092h-0.069v-0.064h0.021v0.027h0.038v-0.037h-0.024v-0.061h0.024v-0.035h-0.024v-0.062h0.024v-0.035h-0.024
	v-0.061h0.024v-0.035h-0.024v-0.293h0.059v-0.251h0.705v0.251h0.093v0.205h0.1v0.543h0.016v-0.028h0.023v-0.031h-0.023v-0.031h0.023
	v-0.031h-0.023v-0.035h0.023v-0.032h-0.023v-0.03h0.023v-0.032h-0.023v-0.035h0.023v-0.031h-0.023v-0.031h0.023v-0.03h-0.023v-0.037
	h0.023v-0.031h-0.023v-0.035h0.023v-0.03h-0.023v-0.047h-0.098v-0.006h1.094v0.565h4.712c0.025-0.147,0.042-0.298,0.042-0.454
	v-2.751l0.899-0.263c0.516-0.15,0.879-0.705,0.879-1.341v-3.706C365.273,158.123,364.91,157.569,364.394,157.418z M353.293,164.197
	h0.023v-0.063h0.021l0.008-0.213l0.006,0.213h0.021v0.063h0.024v0.121h-0.104V164.197z M353.226,164.38l0.023-0.048h0.19l0.06,0.123
	l0.024,0.049h-0.359L353.226,164.38z M352.537,164.962l0.002-0.068l0.001-0.086l0.005-0.162l0.002-0.029v0.033l0.002,0.167
	l0.001,0.077l0.001,0.068c0.003,0,0.006,0,0.008,0.001c0.033,0.002,0.063,0.009,0.091,0.021c0.036,0.018,0.065,0.043,0.082,0.073
	h-0.378C352.384,165.004,352.455,164.965,352.537,164.962z M352.288,165.076h0.515v0.028l-0.077,0.032h-0.361l-0.077-0.032V165.076z
	 M352.725,165.154v0.126h-0.361v-0.126H352.725z M352.085,164.98c0.061,0.018,0.101,0.046,0.101,0.079
	c0,0.022-0.018,0.043-0.05,0.06v0.029h0.017v0.029h-0.396v-0.029h0.019v-0.029c-0.031-0.017-0.051-0.037-0.051-0.06
	c0-0.032,0.038-0.061,0.097-0.077c0.001,0,0.003-0.001,0.005-0.002c0.017-0.005,0.037-0.008,0.056-0.011v-0.167h0.017v0.164
	c0.017-0.002,0.038-0.003,0.056-0.003C352.003,164.963,352.048,164.97,352.085,164.98z M348.545,165.515h-0.554v-0.208h0.554
	V165.515z M348.32,165.014v0.199l0.119,0.078h-0.322l0.083-0.051l0.007-0.006l0.029-0.019v-0.202h0.026v-0.128h0.034v0.128H348.32z
	 M348.612,166.22c0.014-0.006,0.027-0.012,0.041-0.018c0.016-0.005,0.03-0.01,0.045-0.015c-0.011,0.014-0.023,0.03-0.035,0.049
	l-0.015,0.022c-0.001,0.004-0.005,0.009-0.008,0.014c-0.039-0.005-0.072-0.01-0.098-0.014
	C348.564,166.244,348.587,166.231,348.612,166.22z M349.081,166.193c0.043,0.015,0.084,0.033,0.123,0.055
	c0.005,0.004,0.011,0.008,0.018,0.011c-0.027,0.006-0.054,0.01-0.083,0.015v-0.001C349.118,166.24,349.098,166.213,349.081,166.193z
	 M349.115,166.277c-0.012,0.002-0.026,0.003-0.039,0.004c-0.015,0.002-0.027,0.003-0.042,0.004
	c-0.016-0.054-0.033-0.092-0.043-0.114c0.018,0.003,0.035,0.007,0.051,0.011c0.009,0.01,0.021,0.023,0.034,0.041
	C349.086,166.238,349.102,166.256,349.115,166.277z M348.524,166.549c-0.033-0.002-0.064-0.004-0.092-0.005
	c-0.016-0.001-0.032-0.003-0.046-0.003c0.014-0.045,0.031-0.085,0.05-0.123c0.028,0.004,0.063,0.008,0.103,0.011
	c0.007,0.001,0.013,0.001,0.021,0.002C348.545,166.468,348.534,166.507,348.524,166.549z M348.543,166.572
	c0.047,0.002,0.1,0.005,0.154,0.007c-0.003,0.042-0.005,0.086-0.004,0.132v0.013c-0.058-0.002-0.111-0.003-0.163-0.004
	c0-0.002,0.001-0.006,0-0.009C348.53,166.663,348.535,166.616,348.543,166.572z M348.412,166.564
	c0.033,0.002,0.069,0.005,0.108,0.007c-0.008,0.044-0.013,0.091-0.013,0.14v0.008c-0.057-0.001-0.107-0.002-0.149-0.005v-0.003
	c0-0.034,0.004-0.067,0.011-0.1c0.003-0.018,0.006-0.033,0.011-0.049C348.39,166.563,348.401,166.563,348.412,166.564z
	 M348.509,166.742c0,0.014,0.002,0.028,0.003,0.043c0.003,0.037,0.011,0.076,0.023,0.116c-0.029,0-0.057-0.001-0.083-0.001
	c-0.023-0.001-0.046-0.002-0.067-0.002c-0.01-0.032-0.018-0.062-0.022-0.092c-0.002-0.022-0.004-0.046-0.004-0.067
	C348.4,166.739,348.452,166.741,348.509,166.742z M348.532,166.742c0.05,0.002,0.104,0.003,0.161,0.004
	c0.001,0.03,0.003,0.063,0.006,0.096c0.001,0.021,0.003,0.041,0.006,0.063c-0.05-0.001-0.101-0.002-0.146-0.003
	c-0.012-0.039-0.02-0.074-0.024-0.11C348.535,166.775,348.532,166.758,348.532,166.742z M348.699,166.557
	c-0.053-0.002-0.105-0.004-0.15-0.007c0.008-0.042,0.021-0.081,0.035-0.118c0.04,0.005,0.085,0.008,0.131,0.01
	C348.709,166.477,348.703,166.517,348.699,166.557z M348.592,166.411c0.011-0.027,0.025-0.054,0.037-0.078
	c0.008-0.013,0.015-0.025,0.021-0.037c0.005,0.001,0.008,0.001,0.013,0.002c0.005,0,0.01,0.001,0.016,0.001
	c0.002,0.001,0.006,0.001,0.008,0.001c0.018,0.002,0.038,0.003,0.058,0.006c-0.004,0.014-0.007,0.027-0.011,0.043
	c-0.006,0.022-0.011,0.046-0.016,0.072c-0.001,0-0.002,0-0.002,0C348.673,166.417,348.632,166.415,348.592,166.411z
	 M348.715,166.711c0-0.046,0.002-0.089,0.005-0.131c0.015,0.001,0.031,0.001,0.047,0.001c0.046,0.002,0.092,0.004,0.137,0.004
	c0.004,0.042,0.006,0.085,0.01,0.126c0,0.006,0,0.011,0.001,0.015c-0.035,0-0.066,0-0.1-0.001c-0.034,0-0.066-0.001-0.1-0.001
	V166.711z M348.906,166.311c0.037,0.001,0.073-0.001,0.112-0.003c0.01,0.034,0.021,0.073,0.029,0.118
	c-0.044,0.001-0.087,0.001-0.131,0C348.914,166.386,348.909,166.346,348.906,166.311z M349.01,166.286
	c-0.036,0.003-0.07,0.004-0.105,0.003c-0.004-0.053-0.008-0.096-0.012-0.126c0.025,0,0.048,0.002,0.072,0.005
	C348.972,166.181,348.99,166.222,349.01,166.286z M348.896,166.449c0.001,0.024,0.002,0.051,0.004,0.079
	c0.002,0.011,0.002,0.022,0.002,0.035c-0.048,0-0.096-0.002-0.143-0.003c-0.014-0.001-0.026-0.001-0.039-0.002
	c0.003-0.03,0.006-0.06,0.011-0.087c0.001-0.01,0.002-0.018,0.004-0.028c0.029,0.002,0.059,0.004,0.09,0.004
	C348.85,166.448,348.873,166.449,348.896,166.449z M348.805,166.424c-0.021-0.001-0.042-0.002-0.064-0.003
	c0.003-0.019,0.008-0.036,0.012-0.054c0.004-0.021,0.011-0.043,0.016-0.062c0.037,0.003,0.075,0.004,0.116,0.005
	c0.002,0.035,0.006,0.074,0.008,0.115C348.863,166.426,348.834,166.426,348.805,166.424z M348.774,166.284
	c0.017-0.055,0.034-0.096,0.044-0.12c0.017-0.002,0.034-0.002,0.051-0.002c0.004,0.03,0.007,0.073,0.012,0.126
	C348.845,166.289,348.808,166.286,348.774,166.284z M348.751,166.283c-0.024-0.002-0.046-0.003-0.068-0.006
	c-0.004,0-0.008-0.001-0.011-0.001c-0.003-0.001-0.004-0.001-0.007-0.001c0.002-0.003,0.004-0.006,0.004-0.009
	c0.025-0.037,0.048-0.068,0.065-0.087c0.017-0.005,0.035-0.008,0.053-0.011c0.001,0,0.003,0,0.005,0
	C348.781,166.193,348.766,166.231,348.751,166.283z M348.519,166.286l0.005-0.007c0.013,0.002,0.028,0.004,0.046,0.007
	c0.017,0.003,0.036,0.005,0.057,0.007c-0.018,0.029-0.034,0.062-0.05,0.097c-0.004,0.007-0.006,0.013-0.009,0.02h-0.009
	c-0.043-0.004-0.081-0.008-0.112-0.011C348.472,166.354,348.498,166.315,348.519,166.286z M348.48,166.301
	c-0.019,0.027-0.039,0.059-0.057,0.094c-0.013-0.002-0.024-0.003-0.035-0.004C348.417,166.358,348.447,166.329,348.48,166.301z
	 M348.373,166.411c0.01,0.002,0.023,0.004,0.04,0.005c-0.019,0.039-0.036,0.08-0.05,0.124c-0.025-0.002-0.045-0.003-0.063-0.005
	C348.319,166.49,348.344,166.449,348.373,166.411z M348.251,166.707c0.001-0.004,0.001-0.009,0.001-0.014
	c0.005-0.031,0.012-0.061,0.021-0.09c0.004-0.016,0.01-0.031,0.015-0.046c0.019,0.001,0.042,0.003,0.068,0.004
	c-0.006,0.026-0.013,0.053-0.017,0.08c-0.003,0.023-0.005,0.048-0.006,0.07v0.003c-0.023-0.001-0.042-0.002-0.059-0.002
	c0,0,0,0-0.001,0h-0.003c-0.002,0-0.005,0-0.007-0.001c-0.004,0-0.01,0-0.014,0C348.251,166.71,348.251,166.709,348.251,166.707z
	 M348.254,166.895c-0.005-0.036-0.009-0.072-0.009-0.109c0-0.014,0-0.028,0.001-0.044c0.001-0.002,0.001-0.005,0.001-0.008
	c0.002,0,0.004,0,0.006,0.001h0.02c0.007,0,0.013,0,0.022,0.001c0.012,0,0.024,0,0.038,0.001c0,0.014,0.001,0.026,0.002,0.041
	c0.003,0.039,0.012,0.078,0.024,0.119l-0.086-0.002H348.254z M348.299,167.038c-0.01-0.022-0.019-0.046-0.025-0.069
	c-0.005-0.017-0.01-0.034-0.014-0.053l0.014,0.001l0.094,0.002c0.015,0.039,0.034,0.08,0.059,0.119H348.299z M348.453,167.038
	c-0.025-0.039-0.047-0.079-0.061-0.118l0.081,0.002l0.068,0.001c0.012,0.037,0.027,0.076,0.047,0.115H348.453z M348.613,167.038
	c-0.02-0.039-0.036-0.078-0.048-0.115c0.046,0.002,0.093,0.003,0.144,0.004c0.004,0.036,0.011,0.072,0.019,0.111H348.613z
	 M348.722,166.848c-0.002-0.035-0.005-0.069-0.006-0.103c0.036,0.001,0.073,0.002,0.11,0.002c0.029,0.001,0.06,0.001,0.09,0.001
	c0.003,0.044,0.005,0.087,0.005,0.127c0,0.012,0,0.023,0.001,0.033h-0.008c-0.005,0-0.008,0-0.011,0h-0.011
	c-0.055-0.002-0.11-0.003-0.164-0.004C348.726,166.885,348.723,166.867,348.722,166.848z M348.923,167.038h-0.172
	c-0.007-0.039-0.014-0.075-0.019-0.111c0.046,0.001,0.092,0.002,0.138,0.003c0.01,0,0.021,0,0.029,0
	c0.008,0,0.016,0.001,0.022,0.001c0,0,0.001,0,0.002,0V167.038z M348.995,167.038h-0.051c0.001-0.025,0.001-0.052,0-0.082v-0.024
	c0.01,0,0.02,0,0.029,0.001h0.022V167.038z M348.995,166.91l-0.051-0.001c0-0.018-0.001-0.037-0.002-0.055
	c-0.001-0.034-0.002-0.069-0.003-0.105c0.019,0,0.037,0.001,0.057,0.001V166.91z M348.995,166.657v0.07c-0.02,0-0.04,0-0.059-0.001
	c0-0.004-0.001-0.009-0.001-0.015c-0.003-0.04-0.004-0.083-0.007-0.123L348.995,166.657z M348.92,166.472v0.019
	c0-0.014-0.001-0.027-0.002-0.04c0.043,0,0.088,0,0.133-0.002c0.001,0.008,0.002,0.016,0.004,0.024H348.92z M349.041,166.306
	c0.011,0,0.023-0.001,0.035-0.003c0.004-0.001,0.007-0.001,0.01-0.001c0.015-0.001,0.028-0.003,0.042-0.005
	c0.01,0.016,0.021,0.033,0.03,0.051c0.012,0.021,0.024,0.044,0.034,0.069c-0.037,0.003-0.077,0.006-0.116,0.008h-0.005
	C349.061,166.38,349.05,166.341,349.041,166.306z M349.079,166.472c-0.001-0.006-0.002-0.011-0.003-0.017
	c-0.001-0.002-0.001-0.005-0.001-0.008c0,0,0,0,0.001,0c0.042-0.001,0.085-0.004,0.126-0.008c0.004,0.011,0.008,0.021,0.012,0.033
	H349.079z M349.197,166.373c-0.015-0.029-0.029-0.055-0.044-0.078c0.032-0.005,0.063-0.012,0.094-0.018l0.004,0.002
	c0.023,0.029,0.053,0.07,0.082,0.12c-0.024,0.005-0.05,0.009-0.076,0.011c-0.002,0.001-0.004,0.001-0.006,0.001
	c-0.012,0.002-0.023,0.004-0.034,0.005C349.209,166.4,349.203,166.386,349.197,166.373z M349.319,166.334
	c0.019,0.019,0.037,0.037,0.053,0.058c-0.006,0.001-0.011,0.002-0.017,0.003C349.344,166.374,349.332,166.353,349.319,166.334z
	 M349.238,166.472c-0.002-0.008-0.004-0.017-0.008-0.024c-0.001-0.004-0.002-0.007-0.004-0.01c0.004,0,0.008-0.001,0.011-0.002
	c0.018-0.002,0.035-0.004,0.051-0.006c0.02-0.003,0.039-0.006,0.057-0.009c0.01,0.017,0.018,0.034,0.027,0.051H349.238z
	 M349.395,166.472c-0.008-0.019-0.017-0.039-0.028-0.056c0.007-0.001,0.015-0.003,0.021-0.005c0.015,0.02,0.029,0.041,0.042,0.061
	H349.395z M349.556,166.473l0.091-0.163c0.024,0.016,0.052,0.028,0.08,0.037c0.035,0.012,0.074,0.019,0.113,0.019
	c0.07,0,0.137-0.021,0.192-0.056l0.012,0.02l0.08,0.144H349.556z M350.053,166.277c-0.003,0.003-0.007,0.004-0.009,0.006
	c-0.005,0.004-0.012,0.009-0.016,0.013c-0.054,0.034-0.118,0.055-0.188,0.055c-0.07,0-0.134-0.021-0.188-0.055
	c-0.003-0.003-0.007-0.005-0.011-0.007c0-0.002-0.001-0.002-0.002-0.003c-0.011-0.007-0.021-0.016-0.032-0.023l-0.042-0.046
	c-0.036-0.05-0.061-0.107-0.066-0.172c0.034-0.006,0.083-0.011,0.14-0.017c0.039-0.002,0.083-0.005,0.13-0.006
	c0.023-0.001,0.045-0.002,0.068-0.002c0.073,0.002,0.147,0.006,0.215,0.02c0.045,0.009,0.086,0.021,0.123,0.039
	C350.159,166.157,350.114,166.228,350.053,166.277z M350.18,166.031c-0.04-0.017-0.082-0.029-0.128-0.037
	c-0.079-0.015-0.166-0.019-0.249-0.019h-0.014c-0.053,0.002-0.105,0.005-0.15,0.008c-0.056,0.005-0.105,0.011-0.141,0.016
	c0.001-0.019,0.004-0.037,0.009-0.056c0.008-0.038,0.023-0.073,0.043-0.104c0.007-0.012,0.016-0.023,0.023-0.034
	c0.019-0.022,0.04-0.042,0.064-0.06c0.014-0.011,0.031-0.021,0.048-0.029c0.024-0.013,0.051-0.021,0.079-0.027
	c0.025-0.005,0.048-0.009,0.075-0.009c0.025,0,0.05,0.003,0.075,0.009c0.05,0.011,0.096,0.033,0.136,0.063
	c0.041,0.032,0.075,0.073,0.096,0.12c0.021,0.044,0.033,0.093,0.033,0.144V166.031z M349.698,162.763
	c-0.003-0.009-0.004-0.02-0.004-0.03c0-0.042,0.019-0.08,0.049-0.106c0.006-0.006,0.015-0.011,0.023-0.017
	c0.007-0.004,0.016-0.008,0.024-0.011v-0.332h0.023v-0.809h0.053v0.809h0.024v0.332c0.008,0.003,0.016,0.007,0.025,0.011
	c0.018,0.012,0.034,0.026,0.045,0.044c0.016,0.022,0.024,0.05,0.024,0.079c0,0.045-0.021,0.084-0.055,0.112
	c-0.002,0.002-0.004,0.003-0.007,0.006v0.532c0.005,0.001,0.009,0.002,0.014,0.004c0.03,0.009,0.057,0.021,0.083,0.038
	c0.015,0.01,0.031,0.021,0.043,0.033c0.052,0.045,0.09,0.106,0.105,0.175c0.006,0.023,0.009,0.048,0.009,0.073v0.014
	c-0.004,0.106-0.061,0.201-0.144,0.258c-0.011,0.008-0.023,0.014-0.033,0.02c-0.047,0.026-0.104,0.041-0.162,0.041
	c-0.033,0-0.064-0.005-0.095-0.013c-0.042-0.013-0.081-0.032-0.116-0.059c-0.023-0.018-0.042-0.038-0.061-0.062
	c-0.007-0.011-0.014-0.021-0.021-0.033c-0.017-0.03-0.03-0.062-0.038-0.096c-0.005-0.022-0.009-0.046-0.009-0.07
	c0-0.043,0.009-0.083,0.024-0.121c0.019-0.049,0.05-0.094,0.092-0.128c0.04-0.035,0.087-0.062,0.14-0.075v-0.532
	C349.727,162.831,349.705,162.8,349.698,162.763z M349.89,164.15v-0.101c0.045-0.006,0.088-0.022,0.125-0.045v1.704
	c-0.047-0.026-0.104-0.042-0.161-0.045c-0.005,0-0.01,0-0.014,0c-0.064,0-0.124,0.017-0.177,0.045v-1.704
	c0.001,0.001,0.004,0.003,0.006,0.003c0.035,0.021,0.077,0.036,0.12,0.042v0.101H349.89z M350.899,166.453
	c-0.006,0.007-0.009,0.014-0.015,0.022h-0.014c0.009-0.008,0.018-0.015,0.027-0.023c0.002-0.001,0.003-0.002,0.004-0.004
	C350.901,166.449,350.9,166.451,350.899,166.453z M350.903,166.424l-0.011,0.009c-0.011,0.01-0.021,0.019-0.032,0.027h-0.024v0.014
	h-0.03v-0.014h-0.104v0.013h-0.034v-1.068l0.123-0.076l0.09-0.056l0.033-0.021l0.183-0.112l0.004-0.229v-0.102l0.001,0.006
	l0.003,0.096l0.008,0.218l0.016-0.009l0.003-0.209l0.001-0.082v-0.026l0.001,0.026l0.004,0.082l0.006,0.197v0.002l0.024-0.016v0.403
	l-0.171-0.137l-0.021-0.017v1.034l-0.005,0.002c-0.002,0.001-0.005,0.003-0.007,0.004l-0.039,0.024h-0.091v0.015h0.068
	L350.903,166.424z M350.936,166.639l-0.005-0.001v-0.093c0.011,0,0.022,0.002,0.033,0.003
	C350.952,166.576,350.944,166.606,350.936,166.639z M350.95,166.656c0.036,0.002,0.074,0.004,0.114,0.006h0.005
	c-0.003,0.035-0.004,0.073-0.003,0.111c-0.036,0-0.071-0.001-0.102-0.002c-0.008,0-0.016,0-0.024,0
	C350.94,166.73,350.944,166.692,350.95,166.656z M350.932,166.655c0,0.006-0.001,0.011-0.002,0.016v-0.016H350.932z M350.944,166.91
	h-0.014v-0.063C350.934,166.868,350.938,166.888,350.944,166.91z M350.942,166.795v-0.008h0.007
	c0.036,0.001,0.076,0.002,0.118,0.003c0.001,0.038,0.003,0.079,0.009,0.123c-0.04-0.001-0.077-0.003-0.114-0.003
	C350.95,166.871,350.944,166.833,350.942,166.795z M351.071,166.642v0.004c-0.041-0.002-0.081-0.004-0.117-0.006
	c0.007-0.032,0.016-0.063,0.027-0.09c0.002,0,0.003,0,0.006,0c0.028,0.002,0.059,0.005,0.09,0.007c0.002,0,0.003,0,0.004,0
	c-0.001,0.012-0.002,0.023-0.004,0.035C351.076,166.607,351.073,166.624,351.071,166.642z M351.078,166.539
	c-0.031-0.002-0.062-0.004-0.09-0.006c0.015-0.034,0.03-0.064,0.046-0.09c0.013,0.001,0.028,0.003,0.044,0.004
	c0.009,0,0.019,0.001,0.029,0.003c-0.008,0.026-0.015,0.057-0.022,0.089C351.082,166.539,351.081,166.539,351.078,166.539z
	 M351.392,166.429c-0.021,0.002-0.042,0.003-0.062,0.006c-0.013-0.042-0.025-0.071-0.034-0.088c0.014,0.002,0.026,0.005,0.04,0.009
	C351.347,166.369,351.368,166.394,351.392,166.429z M351.365,166.365c0.038,0.013,0.074,0.029,0.108,0.05
	c-0.021,0.006-0.042,0.009-0.062,0.012C351.395,166.4,351.378,166.379,351.365,166.365z M351.299,166.401
	c0.004,0.011,0.009,0.022,0.012,0.035c-0.027,0.001-0.055,0.002-0.081,0.002c-0.004-0.04-0.008-0.072-0.009-0.096
	c0,0-0.001-0.001-0.001-0.002c0.001,0,0.001,0,0.001,0c0.011,0,0.021,0.001,0.032,0.002c0.006,0,0.015,0.001,0.022,0.002
	C351.279,166.352,351.288,166.372,351.299,166.401z M351.229,166.647L351.229,166.647c-0.021,0.001-0.045,0-0.067,0
	c-0.025-0.001-0.049-0.002-0.073-0.002c0.001-0.01,0.002-0.019,0.004-0.028c0.001-0.021,0.005-0.04,0.007-0.06
	c0.008,0,0.013,0.001,0.02,0.001c0.034,0.001,0.069,0.003,0.103,0.003C351.224,166.59,351.227,166.618,351.229,166.647z
	 M351.221,166.544c-0.033,0-0.063-0.001-0.093-0.003c-0.009,0-0.017,0-0.025,0c0.007-0.034,0.014-0.064,0.021-0.09
	c0.015,0.001,0.03,0.001,0.044,0.003c0.015,0,0.03,0,0.045,0.001C351.216,166.482,351.218,166.513,351.221,166.544z
	 M351.177,166.437c-0.017-0.001-0.033-0.002-0.048-0.003c0.014-0.042,0.026-0.074,0.035-0.092c0.013-0.001,0.026-0.002,0.04-0.002
	c0,0.009,0.002,0.021,0.004,0.033c0,0.019,0.003,0.04,0.004,0.063C351.199,166.437,351.188,166.437,351.177,166.437z
	 M351.111,166.432c-0.012,0-0.024-0.001-0.034-0.002c-0.012-0.001-0.024-0.002-0.034-0.004c0.011-0.018,0.023-0.033,0.034-0.047
	c0.006-0.011,0.015-0.02,0.021-0.026c0.014-0.004,0.03-0.007,0.045-0.009C351.134,166.365,351.123,166.394,351.111,166.432z
	 M351.024,166.424c-0.029-0.004-0.055-0.007-0.076-0.01c0.037-0.023,0.078-0.041,0.121-0.055
	C351.058,166.377,351.041,166.398,351.024,166.424z M351.087,166.662h0.005c0.044,0.002,0.091,0.003,0.138,0.005
	c0.002,0.035,0.005,0.072,0.006,0.107c-0.013,0-0.024,0-0.038,0c-0.039,0-0.078-0.001-0.116-0.001
	C351.082,166.735,351.084,166.698,351.087,166.662z M351.23,166.455c0.028,0,0.057-0.001,0.086-0.002
	c0.007,0.027,0.016,0.057,0.023,0.091c-0.034,0.001-0.068,0.001-0.101,0.001C351.235,166.513,351.233,166.482,351.23,166.455z
	 M351.334,166.451c0.002,0,0.003,0,0.004,0c0.022-0.001,0.043-0.004,0.063-0.007c0.017,0.028,0.035,0.059,0.05,0.094
	c-0.015,0.001-0.029,0.002-0.044,0.003c-0.016,0.001-0.033,0.002-0.051,0.003C351.35,166.51,351.342,166.477,351.334,166.451z
	 M351.42,166.557c0.013,0,0.026-0.001,0.04-0.002c0.011,0.027,0.021,0.058,0.028,0.091c0,0,0.001,0.001,0.001,0.002
	c-0.038,0.001-0.077,0.002-0.116,0.003c0-0.002,0-0.002,0-0.003c-0.003-0.031-0.007-0.06-0.012-0.087
	C351.381,166.56,351.401,166.559,351.42,166.557z M351.506,166.646c-0.001-0.004-0.001-0.008-0.002-0.012
	c-0.004-0.016-0.008-0.03-0.013-0.045c-0.004-0.013-0.009-0.025-0.014-0.037c0.005-0.001,0.01-0.002,0.014-0.003
	c0.026-0.002,0.053-0.006,0.078-0.011c0.003,0.006,0.006,0.012,0.009,0.019c0.014,0.025,0.025,0.054,0.035,0.083
	C351.579,166.644,351.544,166.646,351.506,166.646z M351.618,166.657c0.004,0.016,0.009,0.033,0.012,0.049
	c0.004,0.021,0.007,0.042,0.007,0.065c-0.01,0-0.02,0-0.031,0.001c-0.027,0-0.055,0.001-0.084,0.002c0-0.036-0.003-0.07-0.01-0.103
	c0-0.003,0-0.005-0.001-0.008c0.006,0,0.011-0.001,0.017-0.001C351.558,166.662,351.589,166.66,351.618,166.657z M351.504,166.775
	c-0.025,0-0.052,0-0.078,0c-0.015,0-0.031,0.001-0.048,0.001c0.001-0.038,0-0.074-0.003-0.107c0.036-0.001,0.071-0.001,0.105-0.003
	h0.013C351.5,166.7,351.504,166.737,351.504,166.775z M351.374,166.879c0.003-0.029,0.004-0.059,0.004-0.086
	c0.014-0.001,0.026-0.001,0.039-0.001c0.029,0,0.058,0,0.087-0.001c-0.001,0.021-0.003,0.042-0.006,0.063
	c-0.003,0.021-0.008,0.043-0.014,0.066c-0.035,0-0.072-0.001-0.11-0.001h-0.004C351.372,166.905,351.373,166.893,351.374,166.879z
	 M351.517,166.844c0.003-0.018,0.004-0.036,0.004-0.053c0.036,0,0.068-0.002,0.101-0.003c0.005,0,0.011,0,0.015,0
	c0,0.006,0,0.011-0.001,0.017c0,0.022-0.002,0.044-0.007,0.066c-0.003,0.017-0.006,0.034-0.013,0.05
	c-0.033,0-0.072-0.001-0.114-0.002C351.51,166.895,351.515,166.87,351.517,166.844z M351.635,166.656
	c0.012-0.001,0.023-0.002,0.034-0.004c0.01,0.025,0.017,0.052,0.022,0.08c0.002,0.012,0.004,0.023,0.006,0.036
	c-0.014,0.001-0.027,0.001-0.042,0.003c-0.001-0.019-0.002-0.039-0.006-0.057C351.646,166.694,351.641,166.675,351.635,166.656z
	 M351.63,166.639c-0.011-0.034-0.025-0.065-0.039-0.095c-0.002-0.003-0.004-0.006-0.005-0.008c0.006-0.001,0.01-0.003,0.016-0.003
	c0,0,0,0,0.001,0c0.024,0.031,0.043,0.065,0.06,0.103C351.653,166.637,351.641,166.638,351.63,166.639z M351.578,166.521
	c-0.009-0.017-0.018-0.032-0.028-0.047c0.014,0.014,0.028,0.029,0.041,0.044C351.585,166.518,351.582,166.52,351.578,166.521z
	 M351.56,166.523c-0.022,0.004-0.045,0.007-0.069,0.01c-0.008,0.001-0.014,0.002-0.021,0.003c-0.016-0.036-0.032-0.067-0.049-0.094
	c0.023-0.003,0.047-0.009,0.069-0.013c0.001,0,0.003-0.001,0.003-0.001l0.003,0.002C351.515,166.453,351.537,166.484,351.56,166.523
	z M351.516,166.426l-0.02-0.016V166.4h-0.015l-0.004-0.003c-0.022-0.014-0.045-0.024-0.068-0.034h0.087v-0.016h-0.104v0.009
	l-0.004-0.002c-0.005-0.002-0.01-0.004-0.017-0.006l-0.053-0.015c-0.001,0-0.004-0.001-0.007-0.001l-0.006-0.001l-0.005-0.001
	l-0.033-0.005c-0.005-0.001-0.012-0.001-0.018-0.002c-0.008,0-0.018,0-0.027-0.001h-0.02c-0.01,0.001-0.019,0.001-0.027,0.001
	h-0.003l-0.029,0.003c-0.01,0.002-0.019,0.004-0.029,0.005l-0.048,0.012c-0.024,0.008-0.05,0.018-0.074,0.029v-1l0.062,0.049
	l0.22,0.175l0.109,0.087l0.095,0.075l0.039,0.031V166.426z M350.905,166.475c0.002-0.003,0.004-0.005,0.005-0.009
	c0.008-0.013,0.018-0.024,0.025-0.035c0.021,0.002,0.048,0.007,0.079,0.011c-0.015,0.026-0.031,0.057-0.044,0.089v0.001
	c-0.015-0.001-0.027-0.003-0.04-0.004v-0.053H350.905z M350.93,167.016v-0.089h0.012h0.007c0.001,0.005,0.003,0.009,0.004,0.013
	c0.008,0.025,0.02,0.05,0.032,0.076H350.93z M351.004,167.016c-0.007-0.014-0.014-0.027-0.02-0.042
	c-0.006-0.016-0.012-0.031-0.018-0.047c0.035,0.001,0.071,0.002,0.109,0.003h0.001c0.004,0.027,0.009,0.057,0.015,0.086H351.004z
	 M351.084,166.791c0.042,0.001,0.087,0.001,0.133,0.002c0.007,0,0.014,0,0.02,0c0.002,0.009,0.002,0.016,0.002,0.023
	c0.002,0.035,0.003,0.068,0.003,0.1c-0.049-0.001-0.1-0.002-0.148-0.003C351.087,166.87,351.085,166.83,351.084,166.791z
	 M351.243,167.016h-0.132c-0.007-0.029-0.012-0.059-0.017-0.086c0.049,0.002,0.099,0.003,0.148,0.004V167.016z M351.241,166.562
	c0.034,0.001,0.068,0.001,0.102,0c0.005,0.026,0.01,0.056,0.014,0.086v0.003c-0.037,0-0.073,0-0.11-0.001v-0.002
	C351.243,166.618,351.241,166.59,351.241,166.562z M351.247,166.667c0.037,0.001,0.073,0.001,0.11,0.001
	c0.003,0.033,0.005,0.069,0.005,0.107c-0.037,0-0.073,0-0.109-0.001C351.251,166.74,351.249,166.703,351.247,166.667z
	 M351.338,167.016h-0.079c0.001-0.012,0.001-0.025,0.001-0.038v-0.044c0.027,0,0.056,0.001,0.084,0.002h0.007
	C351.348,166.96,351.344,166.988,351.338,167.016z M351.336,166.917c-0.026,0-0.051-0.001-0.077-0.001c0-0.025,0-0.054-0.002-0.081
	c0-0.015-0.002-0.028-0.002-0.043c0.036,0,0.071,0.001,0.107,0.001c-0.001,0.039-0.003,0.081-0.009,0.125
	C351.348,166.918,351.341,166.917,351.336,166.917z M351.356,167.016c0.005-0.021,0.007-0.043,0.01-0.063
	c0.001-0.006,0.001-0.012,0.002-0.017c0.038,0,0.076,0.001,0.112,0.001c-0.009,0.026-0.018,0.052-0.032,0.079H351.356z
	 M351.469,167.016c0.012-0.027,0.022-0.053,0.029-0.079c0.041,0.001,0.081,0.001,0.115,0.002c-0.011,0.025-0.023,0.051-0.039,0.077
	H351.469z M351.658,167.016h-0.063c0.014-0.026,0.026-0.052,0.035-0.077h0.055C351.679,166.966,351.669,166.99,351.658,167.016z
	 M351.699,166.87c-0.002,0.018-0.005,0.035-0.009,0.052c-0.016,0-0.034,0-0.054,0c0.011-0.034,0.017-0.067,0.019-0.098v-0.001
	c0.002-0.012,0.002-0.023,0.002-0.035c0.014-0.001,0.028-0.002,0.043-0.003c0,0.013,0.001,0.024,0.001,0.036
	C351.7,166.837,351.699,166.853,351.699,166.87z M348.905,160.512c-1.663,0-3.012-1.326-3.012-2.961
	c0-1.635,1.349-2.961,3.012-2.961c1.663,0,3.012,1.326,3.012,2.961C351.917,159.186,350.568,160.512,348.905,160.512z
	 M352.191,166.035l-0.006-0.009l-0.018-0.022v-0.002h-0.002l-0.001,0l-0.009-0.013h0.012v-0.019h-0.028l-0.009-0.013h0.037v-0.02
	h-0.087v0.02h0.029l-0.011,0.013h-0.019v0.019h0.004l-0.002,0.004l-0.034,0.042h-0.192v0.02h0.178l-0.01,0.013h-0.167v0.019h0.152
	l-0.01,0.014h-0.142v0.02h0.128l-0.011,0.014h-0.117v0.019h0.103l-0.01,0.014h-0.093v0.019h0.077l-0.011,0.013h-0.065v0.02h0.052
	l-0.004,0.004l-0.006,0.01h-0.042v0.018h0.028l-0.011,0.013h-0.017v0.02h0.002l-0.036,0.046h-0.079v0.019h0.063l-0.01,0.014h-0.054
	v0.019h0.039l-0.011,0.014h-0.028v0.019h0.013l-0.009,0.014h-0.004v0.005l-0.022,0.028l-0.002,0.005v-1.27h0.471V166.035z
	 M352.853,166.587c-0.024,0.001-0.047,0.003-0.072,0.005v-0.01h-0.097v0.02c-0.003,0.001-0.008,0.001-0.013,0.002
	c-0.005,0-0.011,0.001-0.015,0.001v-0.022h-0.096v0.029h0.041c-0.026,0.005-0.052,0.009-0.078,0.013v-0.013h0.008v-0.029h-0.008
	v-0.029h0.008v-0.03h-0.008v-0.029h0.008v-0.03h-0.008v-0.003l-0.004-0.005l-0.012-0.015l-0.005-0.008h0.029v-0.028h-0.053
	l-0.023-0.03h0.076v-0.03h-0.096v0.004l-0.028-0.037v-0.026h-0.021l-0.022-0.031h0.043v-0.029h-0.068l-0.022-0.029h0.09v-0.03
	h-0.098v0.021l-0.056-0.072l-0.015-0.018v-0.583l0.047-0.04v-0.178h0.522v0.183h0.001l0.046,0.035V166.587z M353.355,166.586
	c-0.007-0.001-0.015-0.001-0.022-0.001v-2.047h-0.019v2.045c-0.033-0.001-0.065-0.002-0.098-0.003
	c-0.043-0.001-0.087-0.002-0.13-0.002l0,0l0.001-0.087l-0.04-0.079h0.041l0.003-0.087l0.001-0.078l0.003-0.181l-0.041-0.078h0.042
	l0.001-0.056l0.001-0.075l0-0.031l0.003-0.114v-0.002l-0.039-0.077h0.04l0.003-0.191l-0.028-0.043l-0.011-0.016h0.042l0.001-0.125
	l-0.039-0.04h0.041l0.001-0.115l0.001-0.012l-0.039-0.04h0.04l0.001-0.07v-0.01l-0.04-0.042h0.041l0.001-0.057l-0.009-0.008
	l-0.031-0.032h0.041l0.001-0.056l-0.039-0.04h0.039l0.001-0.072l-0.021-0.021l-0.017-0.019h0.04l0.001-0.066v-0.037h0.232V166.586z
	 M353.609,166.473l-0.009,0.018l0.002,0.1v0.015c-0.075-0.008-0.152-0.014-0.229-0.018v-2.064h0.19l0.002,0.104h0.05l-0.038,0.04
	h-0.012l0.001,0.072h0.041l-0.022,0.022l-0.018,0.018h-0.001l0.002,0.056h0.04l-0.039,0.04v0.015l0.001,0.042h0.04l-0.039,0.042
	v0.01l0.001,0.07h0.04l-0.039,0.04l0.003,0.121v0.006h0.038l-0.037,0.04l0.001,0.125h0.042l-0.015,0.021l-0.026,0.038l0.003,0.156
	l0.001,0.035h0.041l-0.003,0.005l-0.036,0.072l0.002,0.116l0.002,0.126l0,0.036h0.042l-0.014,0.027l-0.003,0.004l-0.024,0.047
	l0.007,0.345h0.041L353.609,166.473z M354.528,162.785c0.001-0.083,0.003-0.166,0.004-0.249c0.001-0.043,0.001-0.084,0.001-0.127
	c0.002-0.086,0.003-0.173,0.004-0.26c0-0.038,0.002-0.075,0.002-0.113c0.018-0.005,0.037-0.009,0.054-0.013
	c0.025-0.006,0.049-0.011,0.073-0.016c0.027-0.007,0.053-0.014,0.08-0.019c0.005-0.015,0.009-0.028,0.012-0.042
	c0.016-0.055,0.032-0.11,0.047-0.165c0.022,0.03,0.03,0.056,0.051,0.086c0.002,0.026,0.005,0.052,0.006,0.079
	c0.003,0.048,0.006,0.097,0.01,0.145c0.006,0.081,0.012,0.163,0.017,0.244c0.001,0.012,0.002,0.021,0.003,0.032
	c-0.006,0.019-0.014,0.038-0.021,0.058c-0.022,0.063-0.045,0.134-0.067,0.208c-0.01,0.04-0.021,0.08-0.032,0.123
	c-0.003,0.012-0.006,0.024-0.009,0.036c-0.001,0.005-0.003,0.011-0.005,0.016c-0.071-0.001-0.143,0.001-0.214,0.007
	c-0.006,0.001-0.011,0.001-0.015,0.001V162.785z M354.758,164.414c-0.043-0.001-0.085-0.001-0.128,0
	c-0.001-0.016-0.001-0.032-0.001-0.048c-0.002-0.035-0.002-0.07-0.003-0.106v-0.058c-0.002-0.081-0.002-0.164,0-0.249
	c0.014,0,0.031-0.001,0.045-0.002c0.05-0.002,0.101-0.002,0.15,0c0.053,0.002,0.104,0.005,0.157,0.012c0,0.012,0,0.023,0.001,0.035
	c0.001,0.02,0.001,0.04,0.001,0.061c0.001,0.021,0.003,0.042,0.003,0.063c0.002,0.086,0.006,0.171,0.009,0.257
	c0,0.018,0,0.035,0.001,0.053C354.915,164.422,354.837,164.416,354.758,164.414z M354.995,164.498
	c0.002,0.108,0.005,0.217,0.006,0.324c0.001,0.028,0.001,0.056,0.001,0.084c0,0.008,0,0.015,0.001,0.023
	c-0.023-0.004-0.045-0.006-0.067-0.008c-0.003,0-0.007,0-0.011-0.001c-0.005-0.001-0.011-0.001-0.016-0.002
	c-0.009,0-0.016,0-0.025-0.001c-0.076-0.006-0.154-0.009-0.23-0.006c-0.008-0.101-0.014-0.205-0.018-0.309
	c-0.002-0.041-0.004-0.081-0.006-0.122v-0.002c0.053-0.002,0.104-0.002,0.156,0l0.033,0.002
	C354.878,164.483,354.937,164.489,354.995,164.498z M354.762,163.887c-0.033,0-0.063,0-0.096,0.001
	c-0.014,0.001-0.027,0.001-0.04,0.002l0-0.017c0-0.027,0.002-0.054,0.003-0.084c0.001-0.013,0.002-0.026,0.003-0.039
	c0.002-0.022,0.004-0.045,0.005-0.069c0.002-0.016,0.004-0.032,0.005-0.049c0.005-0.047,0.012-0.096,0.02-0.146
	c0.003-0.024,0.006-0.048,0.011-0.072c0.02-0.001,0.041-0.001,0.06-0.001c0.074,0,0.147,0.004,0.218,0.012
	c0.004,0.068,0.007,0.138,0.01,0.208c0.003,0.063,0.006,0.125,0.009,0.188c0.001,0.027,0.003,0.053,0.003,0.079
	C354.903,163.891,354.832,163.887,354.762,163.887z M354.795,163.35c-0.038-0.001-0.074-0.002-0.111-0.001
	c0.004-0.021,0.007-0.043,0.012-0.065c0.015-0.084,0.031-0.168,0.049-0.252c0.007-0.033,0.013-0.063,0.021-0.093
	c0.003-0.022,0.01-0.044,0.016-0.066c0.01,0,0.021,0.002,0.032,0.002c0.037,0.001,0.073,0.005,0.109,0.008
	c0.007,0.107,0.013,0.212,0.018,0.318c0.001,0.006,0.001,0.013,0.001,0.02c0.001,0.007,0.001,0.015,0.001,0.021
	c0.002,0.023,0.003,0.047,0.004,0.071c0.001,0.016,0.002,0.031,0.003,0.047C354.898,163.353,354.847,163.351,354.795,163.35z
	 M354.796,162.81c0.001-0.006,0.002-0.012,0.004-0.018c0.013-0.051,0.026-0.1,0.04-0.148c0.019-0.065,0.038-0.128,0.057-0.184
	c0.004,0.069,0.009,0.138,0.013,0.206c0.003,0.042,0.006,0.084,0.009,0.126c0,0.009,0,0.017,0.001,0.025
	C354.878,162.814,354.837,162.812,354.796,162.81z M354.521,163.102c0.002-0.073,0.003-0.147,0.005-0.221
	c0.025-0.002,0.048-0.004,0.072-0.006c0.049-0.003,0.097-0.005,0.145-0.004c-0.005,0.02-0.009,0.04-0.014,0.06
	c-0.005,0.022-0.01,0.045-0.014,0.068c-0.022,0.099-0.042,0.199-0.059,0.297c-0.004,0.018-0.007,0.037-0.01,0.056
	c-0.041,0.001-0.083,0.005-0.125,0.009c-0.002,0-0.004,0-0.005,0C354.518,163.275,354.52,163.189,354.521,163.102z M354.502,163.855
	c0.002-0.066,0.003-0.131,0.005-0.197c0-0.009,0.001-0.018,0.001-0.027c0-0.005,0-0.01,0.001-0.014
	c0.001-0.063,0.002-0.127,0.004-0.191c0.002,0,0.004-0.001,0.007-0.001c0.039-0.004,0.077-0.008,0.115-0.011
	c-0.006,0.04-0.012,0.078-0.017,0.116c-0.005,0.034-0.008,0.068-0.014,0.101c-0.001,0.011-0.002,0.023-0.003,0.033
	c0,0.017-0.004,0.032-0.005,0.048c-0.003,0.033-0.005,0.066-0.007,0.096c-0.001,0.022-0.003,0.044-0.003,0.063v0.021
	c-0.029,0.002-0.059,0.004-0.088,0.008C354.5,163.886,354.501,163.87,354.502,163.855z M354.489,164.206
	c0.003-0.052,0.005-0.104,0.005-0.155c0.002-0.028,0.002-0.056,0.004-0.083c0.029-0.004,0.059-0.008,0.088-0.011v0.202
	c0,0.03,0,0.059,0.001,0.087c0,0.054,0.002,0.108,0.003,0.16v0.012c-0.003,0-0.007,0-0.011,0c-0.033,0.003-0.067,0.005-0.1,0.008
	C354.485,164.352,354.487,164.279,354.489,164.206z M354.461,164.849c0.002-0.028,0.004-0.058,0.004-0.086
	c0.004-0.08,0.008-0.158,0.012-0.236c0-0.013,0-0.025,0.001-0.038c0.012,0,0.025-0.003,0.038-0.004c0.001,0,0.003,0,0.005,0h0.005
	c0.021-0.002,0.041-0.004,0.061-0.005h0.006c0.001,0.026,0.002,0.054,0.003,0.08c0.005,0.12,0.012,0.237,0.021,0.352
	c-0.033,0.002-0.064,0.004-0.096,0.007c-0.021,0.002-0.042,0.004-0.063,0.007C354.459,164.9,354.46,164.875,354.461,164.849z
	 M354.435,165.318c0.002-0.028,0.004-0.056,0.005-0.084c0.005-0.08,0.01-0.162,0.014-0.242c0.023-0.003,0.045-0.006,0.067-0.01
	c0.034-0.003,0.067-0.005,0.1-0.007c0.001,0.006,0.001,0.011,0.002,0.017c0.006,0.067,0.011,0.136,0.017,0.204
	c0.004,0.041,0.009,0.081,0.013,0.122c0.003,0.019,0.004,0.038,0.007,0.057c0.003,0.029,0.005,0.06,0.009,0.09h-0.023
	c-0.067,0.002-0.135,0.007-0.204,0.017c-0.005,0-0.012,0-0.016,0.001C354.428,165.428,354.432,165.374,354.435,165.318z
	 M354.398,165.853c0.005-0.071,0.011-0.141,0.016-0.213c0.001-0.019,0.002-0.037,0.003-0.056c0.001-0.006,0.001-0.012,0.001-0.019
	c0.016-0.002,0.033-0.005,0.048-0.007c0.067-0.008,0.132-0.015,0.196-0.016c0.005-0.001,0.01-0.001,0.015-0.001
	c0.017,0.14,0.036,0.274,0.055,0.4c0.002,0.01,0.002,0.021,0.003,0.031h-0.039c-0.104,0-0.208,0.008-0.312,0.024
	C354.39,165.949,354.394,165.902,354.398,165.853z M354.354,163.483l-0.004,0.049l-0.009,0.08v-0.003h-0.083l0.001-0.013h-0.378
	l0.002,0.013h-0.086l-0.012-0.126H354.354z M353.909,164.755l-0.005-0.037h0.325l-0.004,0.041v-0.004H353.909z M354.047,166.176
	l-0.004-0.037h0.041l-0.003,0.037H354.047z M354.08,166.185l-0.003,0.038h-0.025l-0.004-0.038H354.08z M354.042,166.131l0-0.012
	l-0.003-0.026h0.051l-0.003,0.026l0,0.012H354.042z M354.038,166.085l-0.003-0.038h0.06l-0.004,0.038H354.038z M354.034,166.038
	l-0.004-0.037h0.07l-0.005,0.037H354.034z M354.029,165.993l-0.003-0.038h0.079l-0.004,0.038H354.029z M354.024,165.948v-0.002
	l-0.004-0.036h0.088l-0.003,0.038H354.024z M354.02,165.902l-0.003-0.038h0.002l0.088-0.002l0.006-0.001l-0.002,0.041H354.02z
	 M354.016,165.856l-0.003-0.038h0.105l-0.003,0.035v0.003H354.016z M354.012,165.809l-0.004-0.037h0.115l-0.004,0.037H354.012z
	 M354.007,165.764l-0.004-0.032l0-0.006h0.125l-0.002,0.006l-0.003,0.032H354.007z M354.002,165.718l-0.004-0.038l0.134-0.007
	l-0.004,0.045H354.002z M353.998,165.672l-0.003-0.037l0.137-0.003h0.006l-0.001,0.005l-0.003,0.035H353.998z M353.993,165.627
	l-0.003-0.039h0.152l-0.004,0.039H353.993z M353.99,165.581l-0.004-0.038h0.16l-0.003,0.038H353.99z M353.984,165.535l-0.003-0.038
	h0.17l-0.005,0.038H353.984z M353.98,165.488l-0.001-0.014l-0.002-0.023h0.179l-0.004,0.037H353.98z M353.976,165.443l-0.004-0.038
	h0.188l-0.003,0.031l-0.001,0.007H353.976z M353.97,165.397l-0.001-0.017l-0.001-0.022h0.197l-0.005,0.039H353.97z M353.967,165.352
	l-0.001-0.007l-0.003-0.031h0.206l-0.002,0.031l-0.001,0.007H353.967z M353.962,165.305l-0.004-0.037h0.216l-0.004,0.037H353.962z
	 M353.958,165.26l-0.002-0.021l-0.002-0.018h0.225l-0.003,0.038H353.958z M353.953,165.214l-0.003-0.038h0.233l-0.003,0.038H353.953
	z M353.948,165.168l-0.003-0.039h0.242l-0.003,0.039H353.948z M353.944,165.122l-0.003-0.038h0.252l-0.004,0.038H353.944z
	 M353.94,165.077l-0.003-0.038h0.26l-0.004,0.038H353.94z M353.936,165.03l-0.005-0.037h0.271l-0.004,0.037H353.936z
	 M353.931,164.984l-0.002-0.029l-0.001-0.008h0.278v0.008l-0.003,0.027v0.002H353.931z M353.926,164.939l-0.004-0.039h0.288
	l-0.002,0.033v0.006H353.926z M353.922,164.893l-0.004-0.038h0.297l-0.004,0.037v0.001H353.922z M353.917,164.847l-0.003-0.038
	h0.306l-0.004,0.038H353.917z M353.913,164.801l-0.003-0.037h0.316l-0.004,0.037H353.913z M353.903,164.71l-0.004-0.039h0.334
	l-0.003,0.039H353.903z M353.899,164.664l-0.003-0.037h0.343l-0.005,0.037H353.899z M353.895,164.618l-0.001-0.003l-0.003-0.035
	h0.353l-0.003,0.038H353.895z M353.891,164.572l-0.003-0.034v-0.004h0.361l-0.004,0.038H353.891z M353.885,164.527l-0.002-0.038
	h0.37l-0.004,0.038H353.885z M353.882,164.48l-0.004-0.038h0.38l-0.004,0.038H353.882z M353.876,164.435l-0.003-0.038h0.389
	l-0.004,0.036v0.002H353.876z M353.872,164.389l-0.003-0.038h0.397l-0.003,0.038H353.872z M353.868,164.343l-0.002-0.038h0.406
	l-0.004,0.038H353.868z M353.863,164.297l-0.003-0.038h0.415l-0.004,0.038H353.863z M353.86,164.251l-0.004-0.039h0.425
	l-0.003,0.023l-0.001,0.016H353.86z M353.855,164.206l-0.001-0.016l-0.001-0.005l-0.002-0.018h0.434l-0.002,0.038H353.855z
	 M353.85,164.159l-0.003-0.037h0.442v0.001l-0.002,0.036H353.85z M353.846,164.114l-0.003-0.038h0.452l-0.003,0.038H353.846z
	 M353.841,164.067l-0.004-0.037h0.462l-0.004,0.037H353.841z M353.837,164.021l-0.004-0.037h0.471l-0.004,0.037H353.837z
	 M353.832,163.976l-0.004-0.037h0.48l-0.003,0.037H353.832z M353.828,163.931l-0.003-0.038h0.089l0.002,0.024h0.309v-0.008
	l0.002-0.017h0.086l-0.003,0.038H353.828z M353.81,163.747l-0.003-0.038h0.087l0.003,0.038v0.008l0.005,0.038h-0.088l0-0.003
	l-0.003-0.032v-0.003L353.81,163.747z M353.889,163.664l0.004,0.038h-0.087l-0.003-0.038H353.889z M353.801,163.656l-0.004-0.039
	h0.086l0.004,0.039H353.801z M353.902,163.8v-0.002l0.002,0.015l0.003,0.025h-0.089v-0.001l-0.003-0.036l-0.001-0.001H353.902z
	 M353.819,163.846h0.089l0.001,0.01l0.003,0.028h-0.09l-0.004-0.045L353.819,163.846z M354.228,163.885l0.003-0.039h0.086
	l-0.003,0.039H354.228z M354.232,163.838l0.004-0.038h0.086l-0.004,0.038H354.232z M354.237,163.792l0.004-0.038l0.001-0.004
	l0.003-0.042h0.085l-0.001,0.015l-0.001,0.023l-0.001,0.008l-0.005,0.038H354.237z M354.247,163.702l0.004-0.038h0.084l-0.003,0.038
	H354.247z M354.252,163.656l0.004-0.039h0.084l-0.004,0.039H354.252z M353.776,163.582l0.002,0.027h-0.002V163.582z
	 M353.776,163.617h0.003l0.004,0.039h-0.007V163.617z M353.776,163.708h0.013l-0.001-0.007h-0.012v-0.038h0.008v-0.005l0.007,0.079
	l0.002,0.009h-0.017V163.708z M353.776,163.754h0.017l0.003,0.029v0.009h-0.02V163.754z M353.776,163.8h0.021v0.001l0.004,0.037
	h-0.025V163.8z M353.776,163.846h0.026v-0.006v0.013l0.003,0.031h-0.029V163.846z M353.776,163.893h0.03l0.003,0.038h-0.034V163.893
	z M353.776,163.938h0.035l0.003,0.037h-0.038V163.938z M353.776,163.984h0.038l0.005,0.037h-0.043V163.984z M353.776,164.03h0.043
	l0.004,0.037h-0.047V164.03z M353.776,164.076h0.048l0.003,0.038h-0.052V164.076z M353.776,164.122h0.052l0.005,0.043l-0.001-0.006
	h-0.056V164.122z M353.776,164.167h0.057l0.002,0.018l0.002,0.021h-0.061V164.167z M353.776,164.212h0.061l0.004,0.039h-0.065
	V164.212z M353.776,164.259h0.066l0.004,0.038h-0.07V164.259z M353.776,164.396h0.08l-0.001-0.008h-0.079v-0.038h0.075l-0.001-0.008
	h-0.074v-0.038h0.07l0.007,0.063l0.007,0.073l0-0.007h-0.083V164.396z M353.776,164.442h0.084l0.004,0.038h-0.088V164.442z
	 M353.776,164.489h0.089l0.004,0.044l-0.001-0.006h-0.092V164.489z M353.776,164.534h0.093l0.002,0.021l0.001,0.018h-0.097V164.534z
	 M353.776,164.58h0.097l0.003,0.015l0,0.023h-0.1V164.58z M353.776,164.626h0.102l0.004,0.037h-0.106V164.626z M353.776,164.671
	h0.106l0.004,0.042l-0.001-0.004h-0.11V164.671z M353.776,164.718h0.111l0.004,0.045l-0.001-0.008h-0.114V164.718z M353.776,164.764
	h0.116l0.002,0.037h-0.119V164.764z M353.776,164.809h0.119l0.004,0.038h-0.123V164.809z M353.776,164.854h0.124l0.005,0.046
	l-0.002-0.008h-0.127V164.854z M353.776,165.039h0.142l-0.001-0.009h-0.141v-0.037h0.137v-0.009h-0.137v-0.037h0.134l-0.001-0.008
	h-0.133V164.9h0.129l0.006,0.054l0.011,0.122h-0.146V165.039z M353.776,165.129h0.151l-0.001-0.008h-0.15v-0.038h0.146l0.008,0.084
	h-0.154V165.129z M353.776,165.176h0.154l0.005,0.038h-0.159V165.176z M353.776,165.268h0.165l-0.001-0.008h-0.164v-0.038h0.16
	l0.003,0.033l0.005,0.05h-0.168V165.268z M353.776,165.313h0.169v-0.006l0.003,0.037l0.001,0.014l-0.001-0.007h-0.172V165.313z
	 M353.776,165.358h0.173l0.002,0.016l0.001,0.022h-0.176V165.358z M353.776,165.405h0.177V165.4l0.004,0.043h-0.182V165.405z
	 M353.776,165.451h0.183v0.004l0.003,0.033h-0.187V165.451z M353.776,165.497h0.187l0.004,0.038h-0.19V165.497z M353.776,165.542
	h0.191l0.004,0.045l-0.001-0.007h-0.195V165.542z M353.776,165.588h0.196l0.003,0.039h-0.199V165.588z M353.776,165.635h0.2
	l0.004,0.037h-0.205V165.635z M353.776,165.68h0.205l0.004,0.038h-0.209V165.68z M353.776,165.726h0.209l0,0.006l0.003,0.032h-0.212
	V165.726z M353.776,165.771h0.213l0.004,0.037h-0.218V165.771z M353.776,165.818h0.219l0.002,0.029l0.001,0.009h-0.222V165.818z
	 M353.776,165.864h0.222l0.004,0.044l0-0.006h-0.226V165.864z M353.776,165.91h0.227l0.005,0.038h-0.231V165.91z M353.776,165.955
	h0.231v-0.006l0,0.013l0.003,0.031h-0.235V165.955z M353.776,166.001h0.236l0.002,0.037h-0.239V166.001z M353.776,166.047h0.241
	l0.003,0.042l-0.001-0.004h-0.243V166.047z M353.776,166.093h0.245l0.003,0.026l0.001,0.012h-0.249V166.093z M353.776,166.139h0.249
	v-0.006l0.004,0.043h-0.253V166.139z M353.776,166.185h0.253l0.005,0.038h-0.258V166.185z M353.776,166.23h0.259l0.003,0.039h-0.263
	V166.23z M353.776,166.276h0.264l0.002,0.036l0.001,0.002h-0.267V166.276z M353.776,166.323h0.267l0.003,0.037h-0.27V166.323z
	 M353.776,166.368h0.272l0.003,0.038h-0.275V166.368z M354.055,166.665c-0.051-0.008-0.104-0.016-0.155-0.022h0.155V166.665z
	 M354.055,166.635h-0.212c-0.022-0.003-0.045-0.007-0.066-0.009v-0.029h0.279V166.635z M354.055,166.589h-0.279v-0.038h0.279
	V166.589z M354.055,166.543h-0.279v-0.038h0.279V166.543z M354.055,166.497h-0.279v-0.037h0.279V166.497z M354.055,166.451h-0.279
	v-0.039h0.276l0.002,0.025V166.451z M354.053,166.23h0.024l-0.004,0.039h-0.017L354.053,166.23z M354.064,166.349l-0.003-0.026
	l0.005-0.003L354.064,166.349z M354.067,166.314h-0.007l-0.003-0.038l0.014-0.002L354.067,166.314z M354.23,167.231h-0.107v-0.038
	h0.107V167.231z M354.23,167.185h-0.107v-0.038h0.107V167.185z M354.23,167.139h-0.107v-0.039h0.107V167.139z M354.23,167.093
	h-0.107v-0.038h0.107V167.093z M354.23,167.047h-0.107v-0.037h0.107V167.047z M354.23,167.002h-0.107v-0.039h0.107V167.002z
	 M354.23,166.956h-0.107v-0.038h0.107V166.956z M354.23,166.91h-0.107v-0.039h0.107V166.91z M354.23,166.864h-0.107v-0.038h0.107
	V166.864z M354.23,166.818h-0.107v-0.038h0.107V166.818z M354.344,166.742h-0.114v0.031h-0.107v-0.038h0.221V166.742z
	 M354.344,166.726h-0.221v-0.037h0.221V166.726z M354.344,166.68h-0.221v-0.003l-0.016-0.003c-0.012-0.001-0.024-0.003-0.035-0.005
	v-0.026h0.271V166.68z M354.344,166.635h-0.271v-0.038h0.271V166.635z M354.344,166.589h-0.271v-0.038h0.271V166.589z
	 M354.363,166.542h-0.019v0.001h-0.271v-0.038h0.29V166.542z M354.363,166.497h-0.29v-0.037h0.29V166.497z M354.363,166.451h-0.29
	v-0.015l0.003-0.023h0.287V166.451z M354.363,166.406h-0.286l0.003-0.038h0.283V166.406z M354.363,166.36h-0.283l0.001-0.01
	l0.002-0.027h0.279V166.36z M354.363,166.314h-0.278l0.004-0.038h0.274V166.314z M354.363,166.269h-0.272l0.004-0.039h0.269V166.269
	z M354.363,166.223h-0.268l0.004-0.038h0.264V166.223z M354.363,166.176H354.1l0.003-0.037h0.26V166.176z M354.363,166.131h-0.259
	l0.001-0.012l0.002-0.026h0.255V166.131z M354.363,166.085h-0.254l0.004-0.038h0.25V166.085z M354.363,166.038h-0.25l0.005-0.037
	h0.246V166.038z M354.363,165.993h-0.245l0.004-0.038h0.241V165.993z M354.363,165.948h-0.24l0.001-0.021l0.002-0.017h0.237V165.948
	z M354.363,165.902h-0.235l0.003-0.038h0.231V165.902z M354.363,165.856h-0.231l0.002-0.024l0.001-0.014h0.228V165.856z
	 M354.363,165.809h-0.227l0.005-0.037h0.222V165.809z M354.363,165.764h-0.221l0.003-0.032l0.001-0.006h0.217V165.764z
	 M354.363,165.718h-0.217l0.003-0.038h0.214V165.718z M354.363,165.672h-0.212l0.001-0.019l0.002-0.019h0.208V165.672z
	 M354.363,165.627h-0.208l0.003-0.039h0.204V165.627z M354.363,165.581h-0.203l0.004-0.038h0.199V165.581z M354.363,165.535h-0.198
	l0.004-0.038h0.194V165.535z M354.363,165.488h-0.194l0.004-0.037h0.19V165.488z M354.363,165.443h-0.188v-0.002l0.003-0.036h0.186
	V165.443z M354.363,165.397h-0.185l0.004-0.039h0.18V165.397z M354.363,165.352h-0.18l0.001-0.007l0.003-0.031h0.176V165.352z
	 M354.363,165.305h-0.176l0.005-0.037h0.171V165.305z M354.363,165.26h-0.17l0.004-0.038h0.166V165.26z M354.363,165.214h-0.166
	l0.003-0.038h0.163V165.214z M354.363,165.168h-0.161l0.003-0.039h0.157V165.168z M354.363,165.122h-0.156l0.003-0.038h0.153
	V165.122z M354.363,165.077h-0.152l0.004-0.038h0.147V165.077z M354.363,165.03h-0.147l0.004-0.037h0.143V165.03z M354.363,164.984
	h-0.143l0.002-0.023l0.002-0.006v-0.008h0.139V164.984z M354.363,164.939h-0.138l0.004-0.039h0.133V164.939z M354.363,164.893
	h-0.132l0.002-0.038h0.13V164.893z M354.363,164.847h-0.129l0.003-0.038h0.125V164.847z M354.363,164.801h-0.123l0.003-0.037h0.12
	V164.801z M354.363,164.755h-0.12l0.005-0.037h0.115V164.755z M354.363,164.71h-0.115l0.004-0.039h0.11V164.71z M354.363,164.664
	h-0.109l0.003-0.037h0.106V164.664z M354.363,164.618h-0.105l0.003-0.038h0.102V164.618z M354.363,164.572h-0.101l0.003-0.038h0.097
	V164.572z M354.363,164.527h-0.096l0.004-0.038h0.092V164.527z M354.363,164.48h-0.091l0.004-0.038h0.087V164.48z M354.363,164.435
	h-0.086l0.004-0.038h0.082V164.435z M354.363,164.389h-0.082l0.003-0.038h0.079V164.389z M354.363,164.343h-0.077l0.002-0.038h0.074
	V164.343z M354.363,164.297h-0.072l0.003-0.038h0.068V164.297z M354.363,164.251h-0.068l0.004-0.039h0.063V164.251z
	 M354.363,164.206h-0.063l0.004-0.038h0.059V164.206z M354.363,164.159h-0.058l0.003-0.037h0.055V164.159z M354.363,164.114h-0.054
	l0.001-0.012l0.002-0.026h0.05V164.114z M354.363,164.067h-0.049l0.005-0.037h0.044V164.067z M354.363,164.021h-0.044l0.004-0.037
	h0.041V164.021z M354.363,163.976h-0.04l0.004-0.035l0.001-0.002h0.035V163.976z M354.363,163.931h-0.034l0.002-0.038h0.032V163.931
	z M354.363,163.885h-0.031l0.003-0.039h0.027V163.885z M354.363,163.838h-0.026l0.004-0.038h0.022V163.838z M354.363,163.792h-0.021
	l0.002-0.024l0.001-0.014h0.017V163.792z M354.363,163.747h-0.016l0.004-0.038h0.012V163.747z M354.363,163.702h-0.011l0.002-0.038
	h0.009V163.702z M354.363,163.656h-0.007l0.003-0.039h0.003V163.656z M354.363,163.609h-0.002l0.002-0.031V163.609z M354.38,166.542
	v-0.462c0.018-0.003,0.035-0.006,0.052-0.009c0.066-0.01,0.13-0.016,0.194-0.019c0.037-0.002,0.073-0.003,0.108-0.002h0.014
	c0.002,0.015,0.003,0.028,0.007,0.044c0.003,0.022,0.008,0.047,0.012,0.069c0.019,0.116,0.038,0.223,0.058,0.323
	c0.003,0.019,0.007,0.037,0.01,0.055H354.38z M355,166.164c-0.003,0.119-0.005,0.237-0.01,0.355
	c-0.001,0.008-0.001,0.015-0.001,0.022h-0.116c0-0.001-0.001-0.002-0.001-0.004c-0.017-0.08-0.032-0.166-0.047-0.257
	c-0.006-0.038-0.015-0.077-0.021-0.117c-0.005-0.036-0.012-0.073-0.018-0.111c0.073,0.003,0.145,0.01,0.216,0.021
	C355.001,166.104,355.001,166.134,355,166.164z M355.007,165.651v0.179c-0.002,0.055-0.003,0.107-0.003,0.162
	c-0.077-0.01-0.153-0.016-0.23-0.018c-0.003-0.023-0.006-0.045-0.01-0.067c-0.018-0.118-0.033-0.239-0.049-0.366h0.018
	c0.093,0.002,0.185,0.01,0.275,0.025C355.008,165.593,355.007,165.622,355.007,165.651z M354.895,165.473
	c-0.063-0.005-0.126-0.008-0.189-0.008c-0.003-0.024-0.005-0.049-0.008-0.073c-0.003-0.025-0.005-0.049-0.008-0.074
	c-0.005-0.052-0.01-0.104-0.016-0.157c-0.005-0.059-0.01-0.119-0.014-0.179c0-0.003,0-0.006-0.001-0.008
	c0.01,0,0.019-0.001,0.028-0.001c0.056-0.001,0.11,0.001,0.165,0.005c0.032,0.002,0.063,0.005,0.092,0.009
	c0.02,0.002,0.041,0.005,0.06,0.008c0.002,0.076,0.003,0.151,0.003,0.229v0.095c0.001,0.056,0.001,0.111,0.001,0.167
	C354.97,165.479,354.932,165.476,354.895,165.473z M355.158,165.526l0.06-0.061l0.071-0.071h0.384l0.078,0.079l0.052,0.053H355.158z
	 M356.719,167.184h-0.842v-0.066h0.842V167.184z M356.755,167.102h-0.912v-1.963h0.912V167.102z M356.755,165.117h-0.798v-0.289
	c0.011-0.004,0.02-0.007,0.032-0.01c0.034-0.011,0.069-0.02,0.105-0.027c0.024-0.004,0.047-0.009,0.072-0.012
	c0.045-0.007,0.092-0.011,0.138-0.012c0.121-0.004,0.245,0.01,0.373,0.04c0.024,0.006,0.052,0.013,0.078,0.021V165.117z
	 M357.804,160.512c-1.664,0-3.012-1.326-3.012-2.961c0-1.635,1.349-2.961,3.012-2.961c1.663,0,3.012,1.326,3.012,2.961
	C360.815,159.186,359.466,160.512,357.804,160.512z"/>
<polygon fill="#FFFFFF" points="353.853,163.702 353.892,163.702 353.888,163.664 353.853,163.664 353.802,163.664 353.806,163.702 
	"/>
<polygon fill="#FFFFFF" points="353.887,163.656 353.883,163.617 353.853,163.617 353.796,163.617 353.8,163.656 353.853,163.656 
	"/>
<polygon fill="#FFFFFF" points="354.34,163.617 354.295,163.617 354.256,163.617 354.252,163.656 354.308,163.656 354.336,163.656 
	"/>
<polygon fill="#FFFFFF" points="354.242,163.75 354.241,163.754 354.237,163.792 354.323,163.792 354.327,163.754 354.328,163.747 
	354.33,163.723 354.331,163.708 354.325,163.708 354.246,163.708 "/>
<polygon fill="#FFFFFF" points="354.247,163.702 354.322,163.702 354.332,163.702 354.335,163.664 354.31,163.664 354.251,163.664 
	"/>
<polygon fill="#FFFFFF" points="353.796,163.784 353.793,163.754 353.776,163.754 353.776,163.778 353.776,163.792 353.796,163.792 
	"/>
<polygon fill="#FFFFFF" points="353.811,163.754 353.811,163.757 353.814,163.79 353.814,163.792 353.825,163.792 353.845,163.792 
	353.853,163.792 353.859,163.792 353.902,163.792 353.897,163.754 353.897,163.751 353.897,163.75 353.896,163.747 353.894,163.708 
	353.853,163.708 353.807,163.708 353.81,163.747 "/>
<path fill="#FFFFFF" d="M354.781,162.872c-0.005,0.022-0.011,0.044-0.015,0.066c-0.008,0.031-0.015,0.061-0.021,0.093
	c-0.018,0.084-0.034,0.168-0.049,0.252c-0.004,0.022-0.008,0.044-0.012,0.065c0.037-0.001,0.074,0,0.111,0.001
	c0.051,0.001,0.103,0.003,0.154,0.009c0-0.016-0.001-0.031-0.002-0.047c-0.001-0.024-0.002-0.048-0.004-0.071
	c0-0.007,0-0.015-0.001-0.021c0-0.007,0-0.014-0.001-0.02c-0.005-0.106-0.011-0.211-0.018-0.318
	c-0.036-0.003-0.072-0.007-0.109-0.008C354.803,162.874,354.792,162.872,354.781,162.872z"/>
<path fill="#FFFFFF" d="M354.8,162.792c-0.001,0.006-0.003,0.012-0.004,0.018c0.041,0.002,0.082,0.004,0.123,0.008
	c0-0.009,0-0.017-0.001-0.025c-0.002-0.042-0.006-0.084-0.009-0.126c-0.004-0.067-0.008-0.137-0.013-0.206
	c-0.019,0.056-0.039,0.119-0.057,0.184C354.827,162.692,354.813,162.742,354.8,162.792z"/>
<path fill="#FFFFFF" d="M354.758,162.808c0.002-0.005,0.003-0.011,0.005-0.016c0.002-0.012,0.006-0.024,0.009-0.036
	c0.011-0.042,0.021-0.083,0.032-0.123c0.022-0.074,0.045-0.146,0.067-0.208c0.007-0.02,0.015-0.039,0.021-0.058
	c0-0.011-0.002-0.021-0.002-0.032c-0.004-0.081-0.011-0.163-0.017-0.244c-0.003-0.048-0.006-0.097-0.01-0.145
	c-0.001-0.026-0.004-0.053-0.006-0.079c-0.022-0.03-0.029-0.056-0.052-0.086c-0.015,0.055-0.031,0.11-0.047,0.165
	c-0.002,0.014-0.007,0.027-0.011,0.042c-0.026,0.005-0.053,0.012-0.08,0.019c-0.024,0.005-0.049,0.01-0.073,0.016
	c-0.018,0.004-0.036,0.008-0.054,0.013c0,0.038-0.001,0.075-0.002,0.113c0,0.087-0.002,0.174-0.003,0.26
	c0,0.043-0.001,0.084-0.001,0.127c-0.001,0.083-0.003,0.166-0.005,0.249c0,0.003,0,0.005,0,0.008s0,0.004,0,0.007
	c0,0.006,0,0.011,0,0.017c0.005,0,0.009,0,0.015-0.001C354.614,162.809,354.687,162.807,354.758,162.808z"/>
<path fill="#FFFFFF" d="M354.646,163.351c0.003-0.019,0.006-0.038,0.01-0.056c0.017-0.099,0.037-0.199,0.059-0.297
	c0.004-0.022,0.009-0.045,0.014-0.068c0.005-0.02,0.009-0.04,0.015-0.06c-0.048-0.001-0.097,0.001-0.145,0.004
	c-0.024,0.002-0.048,0.004-0.072,0.006c-0.002,0.074-0.004,0.148-0.005,0.221c-0.001,0.087-0.004,0.173-0.005,0.258
	c0.001,0,0.004,0,0.005,0C354.563,163.356,354.604,163.352,354.646,163.351z"/>
<polygon fill="#FFFFFF" points="353.793,163.747 353.791,163.738 353.784,163.659 353.784,163.664 353.776,163.664 353.776,163.702 
	353.788,163.702 353.789,163.708 353.776,163.708 353.776,163.722 353.776,163.747 353.793,163.747 "/>
<polygon fill="#FFFFFF" points="353.776,163.582 353.776,163.609 353.779,163.609 353.78,163.617 353.776,163.617 353.776,163.656 
	353.784,163.656 "/>
<polygon fill="#FFFFFF" points="353.853,163.609 353.883,163.609 353.881,163.597 354.046,163.597 354.258,163.597 354.257,163.609 
	354.293,163.609 354.34,163.609 354.34,163.612 354.349,163.532 354.354,163.483 354.301,163.483 354.253,163.483 354.155,163.483 
	353.853,163.483 353.784,163.483 353.796,163.609 "/>
<rect x="354.348" y="163.708" fill="#FFFFFF" width="0.012" height="0.038"/>
<rect x="354.357" y="163.617" fill="#FFFFFF" width="0.003" height="0.039"/>
<rect x="354.354" y="163.664" fill="#FFFFFF" width="0.009" height="0.038"/>
<polygon fill="#FFFFFF" points="354.363,163.578 354.36,163.609 354.363,163.609 "/>
<polygon fill="#FFFFFF" points="354.363,163.754 354.346,163.754 354.344,163.768 354.341,163.792 354.352,163.792 354.363,163.792 
	"/>
</svg>
