<?xml version="1.0" encoding="utf-8"?>
<!-- Generator: Adobe Illustrator 15.0.0, SVG Export Plug-In  -->
<!DOCTYPE svg PUBLIC "-//W3C//DTD SVG 1.1//EN" "http://www.w3.org/Graphics/SVG/1.1/DTD/svg11.dtd" [
	<!ENTITY ns_flows "http://ns.adobe.com/Flows/1.0/">
]>
<svg version="1.1"
	 xmlns="http://www.w3.org/2000/svg" xmlns:xlink="http://www.w3.org/1999/xlink" xmlns:a="http://ns.adobe.com/AdobeSVGViewerExtensions/3.0/"
	 x="0px" y="0px" width="28px" height="28px" viewBox="0 0 28 28" enable-background="new 0 0 28 28" xml:space="preserve">
<defs>
</defs>
<rect display="none" fill="#C9C9C9" width="28" height="28"/>
<path fill="#FFFFFF" d="M6.654,25.986h1.109L7.778,26h12.05l0.014-0.014h1.629c1.175,0,2.186-0.708,2.627-1.721H4.027
	C4.468,25.278,5.477,25.986,6.654,25.986z M25.241,13.506l-0.904-0.084v-1.224c0-2.573-2.085-4.66-4.659-4.66h-5.031V4.494
	c-0.043,0.017-0.089,0.026-0.133,0.041c0.647-0.196,1.12-0.788,1.12-1.499c0-0.757-0.535-1.387-1.247-1.537
	c0.001,0,0.001-0.001,0.001-0.001h-0.004c-0.105-0.022-0.213-0.034-0.324-0.034c-0.868,0-1.572,0.704-1.572,1.572
	c0,0.706,0.467,1.295,1.106,1.495c-0.04-0.012-0.083-0.021-0.121-0.036v3.044h-5.03c-2.564,0-4.644,2.073-4.658,4.633v1.407
	l-0.904,0.096C2.365,13.826,2,14.377,2,15.012v3.694c0,0.636,0.365,1.187,0.884,1.338l0.901,0.262v1.667l0.002,0.001v1.146
	c0,0.158,0.017,0.313,0.041,0.462h4.85v-1.361h0.127v-0.413h0.423v0.259h0.141v0.422c-0.01,0.004-0.019,0.009-0.029,0.014
	c-0.008,0.005-0.015,0.009-0.023,0.011c0,0.002-0.003,0.004-0.005,0.005l-0.049,0.032l-0.004,0.002l-0.024,0.021
	c-0.006,0.005-0.014,0.012-0.023,0.018C9.207,22.6,9.2,22.603,9.194,22.608c-0.01,0.012-0.02,0.022-0.031,0.032
	c-0.004,0.005-0.007,0.009-0.012,0.014c-0.004,0.005-0.009,0.01-0.012,0.014l0,0.002L9.12,22.693
	c-0.021,0.027-0.039,0.058-0.056,0.088c-0.002,0.005-0.005,0.011-0.008,0.02c-0.005,0.007-0.007,0.013-0.011,0.018L9.041,22.83
	l0,0.006l-0.003,0.006c-0.015,0.038-0.026,0.077-0.034,0.116C9.002,22.966,9,22.973,8.998,22.981c0,0.009,0,0.017-0.001,0.024
	l-0.002,0.006v0.006l0,0.007v0.003c-0.001,0.008-0.001,0.015-0.001,0.023v0.033c0,0.017,0,0.036,0.001,0.053
	c0,0.009,0.002,0.019,0.003,0.028c0,0.005,0,0.01,0,0.016C9,23.188,9,23.192,9.002,23.197v0.002l0.001,0.007l0,0.005l0.002,0.01
	c0.003,0.019,0.009,0.037,0.015,0.055c0.004,0.013,0.007,0.025,0.011,0.038c0.004,0.005,0.006,0.012,0.009,0.017
	c0,0.004,0.004,0.009,0.004,0.012H8.982v0.24H9v-0.221h0.767v0.031H9.679v0.057h0.087v0.035H9.679v0.055h0.087v0.042h0.015v-0.637
	l-0.075-0.078v-0.089h0.251l0.287,0.001l0.499,0.001h0.018l0.399,0h0.016l0.385,0.002h0.039l0.089,0.001v0.798h0.017v-0.06H11.8
	v-0.06h-0.093v-0.034H11.8v-0.06h-0.093v-0.034h0.78v0.248h0.03v-0.827l0.002-0.002l0.184-0.24l0.001-0.002l0.002-0.002l0.186-0.246
	v1.319h0.02v-1.319l0.013,0.018l0.177,0.231l0.186,0.241l0.001,0.001v0.165c-0.01,0-0.022,0.004-0.033,0.005v-0.171l-0.008-0.011
	l-0.008-0.01v0.197c-0.014,0.002-0.029,0.005-0.042,0.008v-0.261l-0.016-0.021v0.284c-0.015,0.002-0.029,0.006-0.042,0.009h-0.001
	V22.6l-0.016-0.022v0.376c-0.002,0-0.005,0.001-0.007,0.001c-0.006,0.001-0.01,0.002-0.014,0.003
	c-0.006,0.001-0.014,0.004-0.022,0.004v-0.439l-0.007-0.01l-0.008-0.01v0.463l-0.01,0.002l-0.013,0.004v0.609h0.017v-0.596
	c0.008-0.002,0.015-0.002,0.021-0.005c0.07-0.015,0.139-0.029,0.208-0.041c0.049-0.008,0.095-0.017,0.142-0.021
	c0.06-0.008,0.117-0.014,0.176-0.02c0.089-0.005,0.178-0.009,0.266-0.01c0.045,0,0.087,0,0.129,0.001
	c0.063,0.002,0.123,0.005,0.184,0.009c0.036,0.002,0.07,0.005,0.104,0.008c0.094,0.009,0.188,0.018,0.28,0.031h0.004
	c0.09,0.011,0.18,0.024,0.267,0.039c0.02,0.003,0.039,0.007,0.06,0.009v0.596h0.018v-0.037h0.109v0.037h0.018v-0.526h0.113v-0.205
	h1.024v0.205h0.114v0.526h0.018v-0.544h-0.114v-0.017h0.033v-0.024h-0.033v-0.062h0.033v-0.024h-0.033v-0.062h0.033v-0.024h-0.048
	v0.008h-0.022v-0.008h-0.026v0.008h-0.052v-0.008h-0.075v0.008h-0.117v-1.018h0.736v1.607h0.036v0.064h-0.069v0.094h0.018v-0.074
	h0.983v0.074h0.019v-0.094h-0.07v-0.064h0.022v0.027h0.038v-0.037H17.58v-0.062h0.024v-0.036H17.58v-0.063h0.024v-0.036H17.58
	v-0.062h0.024V23.12H17.58v-0.302h0.06v-0.256h0.708v0.256h0.094v0.209h0.1v0.555h0.017v-0.028h0.023v-0.032h-0.023v-0.031h0.023
	v-0.033h-0.023v-0.036h0.023v-0.032h-0.023V23.36h0.023v-0.033h-0.023V23.29h0.023v-0.031h-0.023v-0.032h0.023v-0.031h-0.023v-0.037
	h0.023v-0.032h-0.023v-0.036h0.023V23.06h-0.023v-0.048h-0.098v-0.006h1.1v0.577h4.736c0.025-0.149,0.042-0.304,0.042-0.462v-2.813
	l0.904-0.269c0.519-0.153,0.884-0.721,0.884-1.371v-3.789C26.125,14.227,25.76,13.661,25.241,13.506z M14.082,20.437h0.023v-0.063
	h0.022l0.007-0.218l0.006,0.218h0.022v0.063h0.022v0.124h-0.104V20.437z M14.015,20.624l0.023-0.049h0.19l0.061,0.127l0.024,0.049
	h-0.36L14.015,20.624z M13.322,21.22l0.003-0.07l0.001-0.087l0.004-0.165l0.003-0.029v0.033l0.002,0.17l0.001,0.079l0.001,0.07
	c0.002,0,0.005,0,0.008,0c0.033,0.002,0.064,0.009,0.091,0.021c0.038,0.018,0.066,0.044,0.083,0.076h-0.38
	C13.169,21.263,13.24,21.223,13.322,21.22z M13.072,21.335h0.516v0.029l-0.077,0.033h-0.362l-0.077-0.033V21.335z M13.511,21.416
	v0.129h-0.362v-0.129H13.511z M12.868,21.237c0.061,0.019,0.1,0.047,0.1,0.082c0,0.023-0.018,0.044-0.049,0.061v0.029h0.017v0.03
	h-0.398v-0.03h0.02v-0.029c-0.032-0.017-0.052-0.038-0.052-0.061c0-0.032,0.039-0.063,0.097-0.079c0.001,0,0.003-0.001,0.005-0.003
	c0.017-0.004,0.036-0.007,0.057-0.01v-0.171h0.016v0.168c0.018-0.001,0.039-0.003,0.057-0.003
	C12.786,21.22,12.831,21.227,12.868,21.237z M9.31,21.785H8.753v-0.213H9.31V21.785z M9.083,21.272v0.204l0.12,0.08H8.878
	l0.083-0.051l0.007-0.007l0.029-0.018v-0.207h0.027v-0.131h0.033v0.131H9.083z M9.377,22.505c0.014-0.006,0.026-0.011,0.04-0.018
	c0.016-0.005,0.03-0.01,0.045-0.015c-0.011,0.014-0.022,0.031-0.035,0.049l-0.016,0.023c-0.001,0.003-0.005,0.009-0.008,0.014
	c-0.039-0.005-0.072-0.011-0.098-0.014C9.33,22.53,9.352,22.518,9.377,22.505z M9.848,22.477c0.044,0.017,0.086,0.035,0.124,0.058
	c0.006,0.003,0.012,0.007,0.017,0.01c-0.027,0.006-0.054,0.01-0.083,0.015v-0.001C9.886,22.526,9.865,22.499,9.848,22.477z
	 M9.883,22.562c-0.013,0.002-0.027,0.004-0.04,0.004C9.829,22.569,9.816,22.57,9.8,22.571c-0.016-0.056-0.032-0.094-0.043-0.117
	c0.018,0.003,0.035,0.008,0.051,0.012c0.009,0.01,0.021,0.024,0.034,0.042C9.854,22.523,9.869,22.542,9.883,22.562z M9.289,22.841
	c-0.033-0.002-0.064-0.004-0.093-0.005c-0.016-0.001-0.032-0.003-0.046-0.003c0.014-0.046,0.031-0.087,0.051-0.126
	c0.028,0.005,0.063,0.009,0.103,0.012c0.007,0,0.012,0,0.021,0.001C9.31,22.758,9.298,22.798,9.289,22.841z M9.309,22.865
	c0.047,0.003,0.101,0.006,0.154,0.008c-0.003,0.043-0.005,0.087-0.004,0.134v0.014c-0.058-0.002-0.111-0.003-0.163-0.004
	c0-0.002,0.001-0.006,0-0.01C9.295,22.958,9.299,22.911,9.309,22.865z M9.176,22.857c0.033,0.002,0.068,0.003,0.108,0.006
	c-0.009,0.045-0.013,0.093-0.013,0.143v0.008c-0.057-0.001-0.108-0.001-0.15-0.005v-0.003c0-0.034,0.004-0.068,0.011-0.102
	c0.003-0.018,0.006-0.034,0.011-0.049C9.154,22.856,9.165,22.856,9.176,22.857z M9.273,23.039c0,0.014,0.001,0.029,0.002,0.045
	c0.004,0.037,0.012,0.077,0.024,0.117c-0.029,0-0.057-0.002-0.084-0.002c-0.022,0-0.046-0.001-0.067-0.001
	c-0.01-0.032-0.017-0.063-0.022-0.094c-0.002-0.023-0.004-0.047-0.004-0.07C9.164,23.036,9.215,23.038,9.273,23.039z M9.296,23.039
	c0.05,0.002,0.105,0.002,0.162,0.004c0.001,0.031,0.004,0.065,0.006,0.098c0.001,0.021,0.003,0.042,0.007,0.063
	c-0.051-0.001-0.103-0.001-0.146-0.002c-0.012-0.04-0.02-0.075-0.024-0.112C9.299,23.073,9.296,23.055,9.296,23.039z M9.464,22.849
	c-0.053-0.002-0.105-0.003-0.151-0.007c0.007-0.043,0.021-0.082,0.035-0.12c0.041,0.005,0.085,0.009,0.132,0.01
	C9.475,22.768,9.469,22.809,9.464,22.849z M9.356,22.701c0.012-0.029,0.025-0.055,0.039-0.08c0.007-0.013,0.015-0.026,0.021-0.039
	c0.005,0.001,0.009,0.001,0.013,0.002c0.005,0,0.011,0.001,0.017,0.001c0,0.001,0.005,0.001,0.007,0.001
	c0.019,0.002,0.039,0.002,0.057,0.006c-0.003,0.013-0.006,0.028-0.01,0.044c-0.005,0.023-0.012,0.047-0.016,0.073H9.483
	C9.438,22.707,9.397,22.704,9.356,22.701z M9.48,23.007c0-0.047,0.002-0.09,0.005-0.134c0.016,0.001,0.032,0.001,0.047,0.001
	c0.046,0.001,0.092,0.003,0.138,0.003c0.003,0.043,0.006,0.088,0.01,0.129c0,0.007,0,0.012,0,0.015c-0.035,0-0.066,0-0.101,0
	c-0.034,0-0.066-0.001-0.101-0.001V23.007z M9.673,22.598c0.037,0.001,0.073-0.001,0.112-0.003c0.01,0.035,0.02,0.075,0.029,0.122
	c-0.044,0-0.087,0-0.13,0C9.682,22.676,9.675,22.634,9.673,22.598z M9.776,22.573c-0.035,0.002-0.07,0.003-0.105,0.002
	c-0.004-0.054-0.008-0.098-0.012-0.129c0.025,0,0.048,0.002,0.072,0.004C9.739,22.465,9.757,22.507,9.776,22.573z M9.663,22.74
	c0,0.025,0.002,0.051,0.004,0.079C9.67,22.83,9.67,22.842,9.67,22.856c-0.05,0-0.096-0.003-0.144-0.004
	c-0.014-0.001-0.027-0.001-0.039-0.001c0.003-0.032,0.007-0.062,0.01-0.089c0.002-0.01,0.004-0.018,0.005-0.028
	c0.029,0.001,0.06,0.003,0.091,0.003C9.616,22.738,9.639,22.74,9.663,22.74z M9.571,22.714c-0.021-0.001-0.042-0.002-0.064-0.004
	c0.002-0.019,0.008-0.037,0.012-0.054c0.003-0.022,0.011-0.044,0.016-0.064c0.037,0.004,0.075,0.004,0.117,0.005
	c0.001,0.036,0.005,0.076,0.008,0.119C9.629,22.717,9.601,22.717,9.571,22.714z M9.541,22.57c0.017-0.056,0.034-0.098,0.043-0.122
	c0.017-0.002,0.034-0.002,0.053-0.002c0.003,0.031,0.006,0.075,0.012,0.129C9.612,22.575,9.574,22.573,9.541,22.57z M9.518,22.569
	c-0.024-0.002-0.046-0.003-0.069-0.007H9.438c-0.003,0-0.004,0-0.009,0c0.004-0.003,0.005-0.007,0.005-0.009
	c0.025-0.038,0.049-0.069,0.066-0.089c0.018-0.005,0.035-0.008,0.053-0.011h0.005C9.547,22.477,9.532,22.518,9.518,22.569z
	 M9.284,22.573l0.005-0.008c0.014,0.002,0.029,0.004,0.046,0.008c0.016,0.002,0.036,0.005,0.057,0.005
	c-0.017,0.031-0.034,0.064-0.049,0.101c-0.003,0.006-0.006,0.012-0.009,0.02H9.325c-0.044-0.004-0.082-0.008-0.114-0.012
	C9.236,22.643,9.262,22.602,9.284,22.573z M9.245,22.588c-0.02,0.028-0.038,0.06-0.058,0.096c-0.013-0.002-0.024-0.003-0.035-0.003
	C9.181,22.647,9.211,22.616,9.245,22.588z M9.136,22.701c0.011,0.002,0.024,0.003,0.041,0.005c-0.02,0.038-0.037,0.081-0.051,0.126
	c-0.025-0.003-0.046-0.004-0.063-0.005C9.082,22.781,9.108,22.74,9.136,22.701z M9.015,23.004c0-0.006,0.001-0.011,0.001-0.015
	c0.005-0.032,0.012-0.063,0.021-0.093c0.003-0.016,0.011-0.032,0.015-0.047c0.019,0.001,0.043,0.003,0.069,0.004
	c-0.007,0.027-0.013,0.054-0.017,0.082c-0.004,0.024-0.005,0.049-0.007,0.072v0.003c-0.023-0.001-0.042-0.002-0.058-0.002
	c0,0,0,0-0.001,0H9.035c-0.004,0-0.005,0-0.008-0.001H9.014C9.015,23.006,9.015,23.005,9.015,23.004z M9.018,23.194
	c-0.005-0.036-0.009-0.074-0.009-0.11c0-0.015,0.001-0.03,0.003-0.045c0-0.002,0-0.006,0-0.008c0.002,0,0.004,0,0.006,0h0.02
	c0.007,0,0.013,0,0.022,0.001c0.012,0,0.024,0,0.038,0c0,0.015,0.002,0.028,0.003,0.042c0.004,0.041,0.012,0.082,0.024,0.123
	l-0.087-0.002H9.018z M9.063,23.341c-0.01-0.022-0.018-0.046-0.025-0.07c-0.006-0.017-0.01-0.036-0.014-0.055l0.014,0.001
	l0.095,0.001c0.015,0.041,0.033,0.083,0.059,0.123H9.063z M9.217,23.341c-0.025-0.04-0.047-0.081-0.06-0.121l0.081,0.002
	l0.068,0.001c0.012,0.038,0.028,0.078,0.047,0.118H9.217z M9.378,23.341c-0.02-0.04-0.036-0.08-0.048-0.118
	c0.046,0.002,0.093,0.004,0.145,0.004c0.004,0.037,0.011,0.074,0.019,0.114H9.378z M9.488,23.148
	c-0.002-0.036-0.005-0.072-0.006-0.105c0.036,0.001,0.073,0.002,0.11,0.002c0.029,0,0.06,0,0.09,0
	c0.003,0.045,0.005,0.089,0.006,0.13c0,0.012,0,0.023,0.001,0.033H9.659c-0.056-0.002-0.111-0.004-0.165-0.004
	C9.493,23.186,9.488,23.166,9.488,23.148z M9.689,23.341H9.517c-0.008-0.04-0.015-0.077-0.02-0.114
	c0.046,0.001,0.092,0.002,0.139,0.003h0.028c0.009,0,0.017,0.001,0.022,0.001h0.001V23.341z M9.762,23.341H9.71
	c0.001-0.025,0.001-0.052,0-0.083v-0.026c0.011,0,0.02,0,0.03,0h0.021V23.341z M9.762,23.211L9.71,23.21
	c0-0.018-0.001-0.038-0.002-0.057c-0.001-0.036-0.001-0.07-0.003-0.108c0.019,0,0.038,0,0.057,0V23.211z M9.762,22.953v0.071
	c-0.02,0-0.04,0-0.06-0.002c0-0.003,0-0.008,0-0.015c-0.002-0.041-0.004-0.085-0.007-0.126L9.762,22.953z M9.687,22.763v0.019
	c0-0.014,0-0.028-0.002-0.041c0.043,0,0.089,0,0.133-0.002c0.002,0.008,0.002,0.016,0.004,0.024H9.687z M9.807,22.593
	c0.012,0,0.024,0,0.036-0.003c0.004-0.001,0.008-0.001,0.011-0.001c0.015,0,0.028-0.002,0.042-0.005
	c0.01,0.016,0.02,0.035,0.031,0.052c0.012,0.022,0.024,0.045,0.034,0.071c-0.037,0.002-0.077,0.006-0.117,0.008H9.838
	C9.829,22.669,9.818,22.629,9.807,22.593z M9.847,22.763c-0.001-0.007-0.002-0.012-0.004-0.018c0-0.002-0.001-0.004-0.001-0.008
	h0.001c0.043,0,0.086-0.003,0.127-0.007c0.005,0.011,0.009,0.021,0.012,0.033H9.847z M9.965,22.661
	c-0.015-0.029-0.03-0.055-0.045-0.08c0.033-0.005,0.063-0.012,0.095-0.019l0.004,0.002c0.022,0.031,0.053,0.073,0.083,0.124
	c-0.025,0.004-0.05,0.009-0.076,0.011c-0.002,0.001-0.004,0.001-0.006,0.001c-0.012,0.002-0.023,0.003-0.035,0.005
	C9.979,22.689,9.971,22.676,9.965,22.661z M10.087,22.622c0.021,0.02,0.038,0.039,0.055,0.06c-0.006,0.001-0.012,0.002-0.017,0.003
	C10.112,22.662,10.101,22.641,10.087,22.622z M10.006,22.763c-0.001-0.008-0.005-0.018-0.008-0.026
	c-0.001-0.003-0.002-0.006-0.005-0.01c0.005,0,0.008,0,0.011-0.002c0.018-0.002,0.035-0.005,0.051-0.006
	c0.02-0.002,0.039-0.006,0.057-0.01c0.01,0.018,0.018,0.034,0.027,0.053H10.006z M10.164,22.763c-0.009-0.02-0.018-0.04-0.028-0.057
	c0.007-0.002,0.014-0.003,0.021-0.005c0.013,0.019,0.03,0.041,0.042,0.062H10.164z M10.325,22.765l0.092-0.168
	c0.024,0.017,0.053,0.029,0.081,0.039c0.036,0.012,0.074,0.019,0.113,0.019c0.071,0,0.139-0.021,0.194-0.058l0.012,0.021
	l0.081,0.147H10.325z M10.825,22.562c-0.004,0.004-0.007,0.004-0.009,0.007c-0.005,0.004-0.012,0.009-0.017,0.013
	c-0.055,0.036-0.118,0.056-0.189,0.056c-0.069,0-0.134-0.021-0.187-0.056c-0.004-0.003-0.007-0.004-0.012-0.006
	c0-0.002,0-0.002-0.001-0.002c-0.012-0.008-0.021-0.017-0.032-0.025l-0.042-0.046c-0.037-0.052-0.061-0.11-0.066-0.177
	c0.033-0.005,0.082-0.01,0.14-0.017c0.04-0.002,0.083-0.005,0.13-0.007c0.023,0,0.045-0.001,0.069-0.001
	c0.074,0.001,0.148,0.006,0.216,0.02c0.045,0.01,0.086,0.022,0.123,0.041C10.933,22.441,10.888,22.513,10.825,22.562z
	 M10.953,22.312c-0.039-0.017-0.082-0.03-0.128-0.038c-0.081-0.015-0.167-0.019-0.25-0.019H10.56
	c-0.053,0.002-0.106,0.004-0.15,0.008c-0.056,0.004-0.106,0.011-0.141,0.016c0.001-0.02,0.004-0.039,0.008-0.057
	c0.009-0.039,0.023-0.075,0.043-0.106c0.007-0.012,0.016-0.023,0.024-0.035c0.019-0.022,0.04-0.043,0.064-0.061
	c0.015-0.011,0.032-0.021,0.048-0.031c0.024-0.012,0.052-0.021,0.079-0.027c0.025-0.005,0.049-0.009,0.075-0.009
	s0.052,0.003,0.077,0.009c0.05,0.011,0.095,0.034,0.137,0.064c0.041,0.034,0.075,0.075,0.097,0.123
	c0.021,0.045,0.033,0.096,0.033,0.147V22.312z M10.468,18.971c-0.002-0.009-0.003-0.021-0.003-0.03c0-0.043,0.018-0.082,0.048-0.109
	c0.008-0.006,0.017-0.011,0.023-0.018c0.008-0.003,0.017-0.007,0.024-0.01v-0.34h0.024v-0.827h0.054v0.827h0.024v0.34
	c0.008,0.003,0.017,0.007,0.025,0.01c0.018,0.013,0.034,0.028,0.045,0.046c0.016,0.023,0.025,0.05,0.025,0.081
	c0,0.046-0.021,0.086-0.055,0.114c-0.001,0.001-0.004,0.001-0.008,0.006v0.544c0.006,0.001,0.009,0.001,0.015,0.004
	c0.03,0.008,0.056,0.02,0.083,0.037c0.016,0.01,0.032,0.022,0.045,0.034c0.052,0.046,0.091,0.109,0.105,0.18
	c0.005,0.024,0.01,0.049,0.01,0.075v0.014c-0.005,0.108-0.062,0.205-0.145,0.264c-0.011,0.008-0.023,0.014-0.034,0.02
	c-0.047,0.027-0.104,0.042-0.163,0.042c-0.033,0-0.063-0.005-0.094-0.013c-0.041-0.013-0.081-0.033-0.117-0.06
	c-0.022-0.018-0.042-0.04-0.062-0.063c-0.007-0.011-0.014-0.022-0.021-0.035c-0.018-0.029-0.031-0.062-0.039-0.097
	c-0.004-0.023-0.007-0.048-0.007-0.072c0-0.043,0.007-0.084,0.023-0.123c0.019-0.051,0.051-0.096,0.092-0.132
	c0.04-0.036,0.089-0.063,0.14-0.076v-0.544C10.498,19.04,10.476,19.009,10.468,18.971z M10.662,20.388v-0.103
	c0.046-0.007,0.087-0.023,0.125-0.046v1.742c-0.048-0.027-0.104-0.043-0.162-0.046H10.61c-0.063,0-0.123,0.017-0.177,0.046V20.24
	c0.001,0,0.004,0.003,0.006,0.003c0.036,0.021,0.078,0.038,0.12,0.043v0.103H10.662z M11.676,22.743
	c-0.006,0.007-0.01,0.014-0.014,0.022h-0.014c0.009-0.008,0.019-0.015,0.027-0.024c0.002,0,0.003-0.001,0.004-0.004
	C11.678,22.74,11.677,22.741,11.676,22.743z M11.68,22.714l-0.011,0.008c-0.012,0.011-0.021,0.02-0.032,0.028h-0.024v0.015h-0.03
	v-0.015h-0.105v0.014h-0.034v-1.093l0.124-0.078l0.09-0.056l0.034-0.021l0.184-0.115l0.003-0.233v-0.104l0.001,0.006l0.004,0.098
	l0.008,0.223l0.016-0.009l0.003-0.214l0.001-0.084v-0.027l0,0.027l0.005,0.084l0.007,0.2v0.002l0.023-0.016v0.413l-0.172-0.141
	l-0.021-0.016v1.056l-0.006,0.002c-0.002,0-0.005,0.002-0.007,0.004l-0.039,0.025h-0.091v0.015h0.068L11.68,22.714z M11.712,22.933
	l-0.005,0v-0.096c0.012,0,0.022,0.002,0.033,0.003C11.729,22.87,11.722,22.899,11.712,22.933z M11.727,22.952
	c0.037,0.002,0.076,0.003,0.115,0.005h0.005c-0.002,0.035-0.003,0.074-0.002,0.113c-0.036,0-0.072-0.001-0.102-0.001h-0.023
	C11.717,23.026,11.722,22.988,11.727,22.952z M11.709,22.95c0,0.007-0.001,0.012-0.002,0.017V22.95H11.709z M11.722,23.211h-0.015
	v-0.064C11.71,23.167,11.716,23.189,11.722,23.211z M11.719,23.093v-0.007h0.006c0.037,0,0.077,0.001,0.119,0.002
	c0.001,0.04,0.003,0.082,0.01,0.125c-0.041,0-0.078-0.002-0.115-0.002C11.727,23.17,11.722,23.132,11.719,23.093z M11.849,22.936
	v0.004c-0.042-0.002-0.081-0.004-0.118-0.006c0.007-0.033,0.017-0.064,0.028-0.092h0.006c0.029,0.002,0.059,0.005,0.09,0.007h0.005
	c-0.002,0.012-0.002,0.024-0.005,0.036C11.854,22.901,11.851,22.919,11.849,22.936z M11.855,22.832
	c-0.031-0.003-0.061-0.005-0.09-0.006c0.016-0.035,0.03-0.065,0.046-0.092c0.013,0,0.029,0.003,0.043,0.003
	c0.01,0.001,0.02,0.003,0.03,0.004c-0.007,0.026-0.015,0.058-0.021,0.091H11.855z M12.17,22.719c-0.02,0.001-0.04,0.003-0.062,0.006
	c-0.013-0.043-0.025-0.073-0.034-0.09c0.013,0.002,0.026,0.005,0.038,0.008C12.126,22.657,12.146,22.684,12.17,22.719z
	 M12.144,22.653c0.039,0.012,0.075,0.03,0.109,0.05c-0.021,0.006-0.042,0.01-0.063,0.013C12.174,22.689,12.157,22.668,12.144,22.653
	z M12.078,22.69c0.003,0.011,0.008,0.023,0.012,0.036c-0.027,0-0.055,0.002-0.082,0.002c-0.004-0.042-0.007-0.074-0.009-0.098
	c0,0,0-0.001,0-0.002c0,0,0,0,0,0c0.012,0,0.021,0.001,0.033,0.002c0.006,0,0.015,0.001,0.022,0.002
	C12.059,22.64,12.067,22.661,12.078,22.69z M12.007,22.943L12.007,22.943c-0.022,0-0.046,0-0.068,0
	c-0.024-0.001-0.048-0.002-0.072-0.002c0-0.01,0.001-0.02,0.003-0.029c0.002-0.021,0.005-0.041,0.007-0.061c0.007,0,0.013,0,0.019,0
	c0.034,0.001,0.069,0.003,0.103,0.003C12.003,22.883,12.005,22.912,12.007,22.943z M12,22.836c-0.033,0-0.063-0.001-0.094-0.003
	H11.88c0.008-0.035,0.016-0.066,0.021-0.092c0.016,0.002,0.03,0.002,0.046,0.002c0.014,0,0.03,0,0.044,0.001
	C11.995,22.773,11.997,22.804,12,22.836z M11.956,22.727c-0.017,0-0.033-0.002-0.049-0.002c0.015-0.043,0.026-0.077,0.036-0.094
	c0.014-0.001,0.026-0.002,0.041-0.002c0,0.009,0.001,0.02,0.003,0.033c0.001,0.02,0.004,0.042,0.005,0.065H11.956z M11.89,22.722
	c-0.012,0-0.024-0.002-0.035-0.002c-0.011,0-0.023-0.001-0.034-0.003c0.011-0.019,0.023-0.035,0.034-0.049
	c0.008-0.011,0.015-0.02,0.022-0.027c0.014-0.004,0.029-0.007,0.046-0.008C11.913,22.653,11.901,22.684,11.89,22.722z
	 M11.803,22.714c-0.031-0.005-0.055-0.007-0.077-0.011c0.038-0.023,0.078-0.042,0.121-0.056
	C11.835,22.666,11.819,22.686,11.803,22.714z M11.865,22.957h0.005c0.044,0.002,0.091,0.002,0.138,0.005
	c0.003,0.036,0.006,0.074,0.008,0.11h-0.039c-0.039,0-0.078-0.002-0.117-0.002C11.86,23.031,11.863,22.993,11.865,22.957z
	 M12.008,22.745c0.029,0,0.058-0.001,0.087-0.002c0.007,0.027,0.016,0.058,0.023,0.093c-0.035,0-0.068,0-0.101,0
	C12.014,22.804,12.012,22.773,12.008,22.745z M12.113,22.741h0.004c0.022,0,0.043-0.004,0.064-0.008
	c0.017,0.029,0.034,0.06,0.049,0.097c-0.014,0.002-0.029,0.002-0.043,0.003c-0.017,0.001-0.034,0.001-0.051,0.003
	C12.13,22.801,12.122,22.768,12.113,22.741z M12.199,22.849c0.014,0,0.026,0,0.041-0.002c0.011,0.028,0.021,0.059,0.028,0.093
	c0,0,0,0.001,0,0.002c-0.038,0-0.077,0.001-0.116,0.002c0-0.002,0-0.002,0-0.002c-0.003-0.032-0.008-0.062-0.012-0.09
	C12.16,22.852,12.181,22.851,12.199,22.849z M12.286,22.942c-0.001-0.004-0.001-0.009-0.002-0.012
	c-0.004-0.017-0.009-0.032-0.013-0.047c-0.004-0.013-0.01-0.026-0.015-0.037c0.005-0.001,0.011-0.002,0.015-0.004
	c0.026-0.002,0.053-0.006,0.078-0.01c0.003,0.005,0.006,0.012,0.01,0.019c0.013,0.025,0.025,0.055,0.034,0.084
	C12.359,22.938,12.325,22.94,12.286,22.942z M12.399,22.953c0.004,0.016,0.009,0.033,0.012,0.05
	c0.004,0.021,0.007,0.043,0.007,0.067c-0.01,0-0.021,0-0.031,0.001c-0.027,0-0.055,0-0.085,0.002c0-0.037-0.003-0.072-0.01-0.106
	c0-0.002,0-0.004-0.001-0.007c0.006,0,0.011-0.001,0.018-0.001C12.338,22.957,12.369,22.955,12.399,22.953z M12.285,23.073h-0.078
	c-0.016,0-0.032,0.001-0.049,0.001c0.001-0.04,0-0.076-0.003-0.111c0.036,0,0.07,0,0.106-0.003h0.013
	C12.28,22.995,12.285,23.033,12.285,23.073z M12.153,23.179c0.004-0.03,0.004-0.059,0.004-0.088c0.014,0,0.026,0,0.039,0
	c0.03,0,0.059,0,0.089-0.001c-0.001,0.021-0.004,0.043-0.007,0.064c-0.002,0.022-0.007,0.044-0.013,0.067
	c-0.035,0-0.072-0.001-0.11-0.001H12.15C12.152,23.205,12.152,23.192,12.153,23.179z M12.297,23.144
	c0.003-0.019,0.004-0.036,0.004-0.054c0.035,0,0.068-0.002,0.101-0.003h0.016c0,0.005,0,0.011-0.001,0.017
	c0,0.023-0.003,0.045-0.007,0.068c-0.002,0.017-0.006,0.033-0.014,0.05c-0.032,0-0.071-0.001-0.113-0.002
	C12.29,23.194,12.294,23.169,12.297,23.144z M12.417,22.952c0.012-0.002,0.022-0.003,0.034-0.005
	c0.009,0.027,0.018,0.054,0.022,0.082c0.002,0.013,0.004,0.024,0.006,0.038c-0.014,0.001-0.026,0.001-0.043,0.003
	c-0.001-0.02-0.002-0.041-0.005-0.059C12.428,22.99,12.421,22.971,12.417,22.952z M12.411,22.933
	c-0.011-0.035-0.025-0.067-0.04-0.097c-0.002-0.003-0.003-0.006-0.003-0.008c0.005-0.001,0.01-0.002,0.015-0.002c0,0,0,0,0,0
	c0.025,0.032,0.044,0.067,0.06,0.104C12.433,22.932,12.421,22.933,12.411,22.933z M12.358,22.813
	c-0.01-0.019-0.019-0.034-0.028-0.048c0.014,0.013,0.028,0.028,0.04,0.045C12.366,22.81,12.363,22.812,12.358,22.813z
	 M12.339,22.814c-0.021,0.004-0.045,0.008-0.068,0.011c-0.008,0.001-0.015,0.001-0.021,0.002c-0.016-0.037-0.033-0.068-0.05-0.096
	c0.024-0.002,0.048-0.009,0.07-0.013c0.001,0,0.002-0.001,0.002-0.001l0.003,0.001C12.294,22.743,12.318,22.775,12.339,22.814z
	 M12.296,22.717l-0.02-0.016v-0.012h-0.015l-0.003-0.003c-0.022-0.014-0.046-0.025-0.07-0.036h0.087v-0.015H12.17v0.008
	l-0.004-0.001c-0.004-0.002-0.009-0.005-0.016-0.006l-0.053-0.015c-0.002,0-0.005,0-0.008,0l-0.005-0.001l-0.005-0.001l-0.033-0.005
	c-0.005-0.001-0.012-0.001-0.017-0.002c-0.008,0-0.02,0-0.028-0.001h-0.02c-0.009,0.001-0.019,0.001-0.028,0.001h-0.003
	l-0.029,0.002c-0.01,0.002-0.019,0.005-0.029,0.006l-0.049,0.012c-0.023,0.007-0.05,0.017-0.074,0.029v-1.022l0.062,0.05
	l0.221,0.179l0.109,0.089l0.096,0.077l0.04,0.032V22.717z M11.683,22.766c0.001-0.003,0.003-0.005,0.005-0.01
	c0.009-0.013,0.017-0.025,0.024-0.036c0.022,0.002,0.049,0.007,0.08,0.011c-0.015,0.026-0.031,0.058-0.044,0.092v0
	c-0.015,0-0.027-0.003-0.041-0.005v-0.053H11.683z M11.707,23.319v-0.091h0.019c0.001,0.005,0.003,0.009,0.005,0.014
	c0.008,0.025,0.02,0.05,0.032,0.078H11.707z M11.782,23.319c-0.008-0.014-0.014-0.029-0.02-0.043
	c-0.006-0.017-0.012-0.032-0.017-0.048c0.036,0.001,0.071,0.002,0.109,0.003h0c0.003,0.028,0.01,0.059,0.016,0.088H11.782z
	 M11.863,23.088c0.042,0.001,0.086,0.001,0.133,0.003h0.021c0.001,0.008,0.001,0.017,0.001,0.024
	c0.002,0.036,0.003,0.07,0.003,0.102c-0.049,0-0.1-0.001-0.149-0.003C11.866,23.169,11.863,23.129,11.863,23.088z M12.021,23.319
	H11.89c-0.007-0.03-0.012-0.06-0.017-0.088c0.05,0.002,0.1,0.002,0.149,0.004V23.319z M12.02,22.854
	c0.034,0.002,0.068,0.002,0.102,0c0.005,0.027,0.009,0.057,0.014,0.089v0.002c-0.038,0-0.074,0-0.111-0.001v-0.001
	C12.021,22.912,12.02,22.883,12.02,22.854z M12.026,22.962c0.037,0,0.074,0,0.11,0c0.004,0.035,0.005,0.071,0.005,0.111
	c-0.036,0-0.074,0-0.109-0.001C12.03,23.036,12.028,22.998,12.026,22.962z M12.117,23.319h-0.08c0-0.013,0-0.027,0-0.039v-0.045
	c0.028,0,0.057,0,0.085,0.002h0.007C12.127,23.261,12.124,23.29,12.117,23.319z M12.115,23.218c-0.026,0-0.051-0.001-0.077-0.001
	c0-0.026,0-0.055-0.002-0.082c0-0.014-0.002-0.029-0.002-0.043c0.036,0,0.072,0,0.108,0c-0.001,0.041-0.003,0.084-0.008,0.127
	C12.127,23.218,12.12,23.218,12.115,23.218z M12.136,23.319c0.004-0.022,0.007-0.044,0.01-0.065
	c0.001-0.007,0.001-0.012,0.002-0.017c0.039,0,0.077,0,0.113,0c-0.01,0.027-0.018,0.053-0.032,0.082H12.136z M12.249,23.319
	c0.012-0.029,0.022-0.055,0.029-0.082c0.041,0.001,0.082,0.001,0.115,0.002c-0.01,0.025-0.022,0.052-0.038,0.079H12.249z
	 M12.439,23.319h-0.063c0.015-0.027,0.027-0.054,0.035-0.079h0.056C12.46,23.268,12.451,23.292,12.439,23.319z M12.48,23.169
	c-0.002,0.018-0.005,0.035-0.009,0.053h-0.054c0.011-0.033,0.016-0.068,0.018-0.1v-0.001c0.003-0.011,0.003-0.023,0.003-0.035
	c0.014-0.001,0.028-0.002,0.042-0.002c0,0.012,0,0.024,0,0.037C12.481,23.136,12.48,23.152,12.48,23.169z M12.975,22.315
	l-0.006-0.009l-0.018-0.022v-0.002h-0.001l-0.001,0l-0.01-0.014h0.012v-0.018h-0.028l-0.009-0.013h0.037v-0.021h-0.087v0.021h0.029
	l-0.01,0.013h-0.019v0.018h0.004l-0.002,0.005l-0.035,0.043h-0.192v0.021h0.179l-0.011,0.013h-0.168v0.019h0.153l-0.011,0.015
	h-0.143v0.02h0.129l-0.011,0.014h-0.118v0.019h0.103l-0.01,0.015h-0.093v0.019h0.077l-0.011,0.013h-0.066v0.02h0.052l-0.004,0.004
	l-0.006,0.01h-0.042v0.019h0.029l-0.012,0.013h-0.017v0.021h0.003l-0.038,0.047h-0.078v0.02h0.063l-0.01,0.014h-0.054v0.018h0.04
	l-0.011,0.014h-0.028v0.019h0.013l-0.009,0.014h-0.004v0.005l-0.023,0.028l-0.001,0.005v-1.298h0.473V22.315z M13.639,22.88
	c-0.023,0-0.047,0.003-0.072,0.005v-0.01H13.47v0.021c-0.003,0-0.008,0-0.013,0.002c-0.005,0-0.01,0.001-0.015,0.001v-0.023h-0.098
	v0.03h0.042c-0.026,0.005-0.054,0.009-0.079,0.014v-0.014h0.008v-0.03h-0.008v-0.029h0.008v-0.032h-0.008v-0.03h0.008v-0.031h-0.008
	V22.75l-0.004-0.005l-0.012-0.014l-0.006-0.009h0.029v-0.029h-0.053l-0.023-0.031h0.077v-0.03h-0.096v0.004l-0.029-0.039V22.57
	h-0.021l-0.022-0.031h0.043v-0.03h-0.067L13.1,22.479h0.09v-0.03h-0.098v0.02l-0.056-0.074l-0.016-0.017v-0.597l0.047-0.041v-0.183
	h0.525v0.188h0.001l0.046,0.036V22.88z M14.146,22.878c-0.008,0-0.016,0-0.023,0v-2.092h-0.019v2.09
	c-0.033-0.001-0.065-0.001-0.099-0.003c-0.043,0-0.087-0.001-0.13-0.001l0.001-0.09l-0.041-0.079h0.041l0.003-0.089l0.001-0.079
	l0.003-0.186l-0.04-0.079h0.041v-0.058l0.001-0.076l0.001-0.033l0.003-0.116v-0.002l-0.039-0.08h0.041l0.003-0.195l-0.028-0.044
	l-0.01-0.016h0.041l0-0.128l-0.039-0.041H13.9l0-0.117l0.002-0.012l-0.039-0.041h0.04l0-0.073v-0.009l-0.039-0.043h0.04l0.001-0.059
	l-0.009-0.007l-0.03-0.033h0.04l0.001-0.057l-0.04-0.041h0.04l0-0.074l-0.021-0.021l-0.018-0.02h0.041l0-0.067v-0.039h0.234V22.878z
	 M14.4,22.765l-0.009,0.017l0.003,0.103v0.015c-0.077-0.007-0.154-0.014-0.231-0.019v-2.11h0.192l0.001,0.105h0.051l-0.039,0.041
	h-0.012l0.002,0.074h0.039l-0.021,0.023l-0.018,0.018h0l0.002,0.057H14.4l-0.038,0.04v0.017l0.001,0.042h0.04l-0.04,0.043v0.009
	l0,0.073h0.041l-0.041,0.041l0.004,0.123v0.006h0.039l-0.038,0.041l0.001,0.128h0.042l-0.014,0.021l-0.025,0.039l0.002,0.16
	l0.001,0.035h0.041l-0.003,0.006l-0.037,0.074l0.003,0.118l0.001,0.129l0,0.037h0.042l-0.014,0.026l-0.003,0.004l-0.024,0.048
	l0.008,0.354h0.041L14.4,22.765z M15.338,19.023c0.073-0.005,0.145-0.007,0.217-0.006c-0.072-0.001-0.144,0.001-0.215,0.006
	c-0.007,0.002-0.011,0.002-0.016,0.002C15.329,19.025,15.333,19.025,15.338,19.023z M15.668,18.625
	c0.007-0.02,0.014-0.04,0.021-0.059c-0.001-0.011-0.002-0.021-0.002-0.033c0,0.011,0.001,0.022,0.002,0.033
	C15.683,18.585,15.675,18.605,15.668,18.625c-0.022,0.065-0.045,0.138-0.067,0.213C15.623,18.763,15.646,18.69,15.668,18.625z
	 M15.603,17.969L15.603,17.969c0.022,0.03,0.029,0.057,0.052,0.087C15.632,18.025,15.625,17.999,15.603,17.969z M15.751,19.647
	c0.003,0.07,0.007,0.14,0.01,0.211c0.002,0.065,0.005,0.128,0.008,0.192c0.001,0.028,0.004,0.054,0.004,0.08
	c-0.072-0.005-0.144-0.01-0.214-0.01c-0.033,0-0.063,0-0.097,0c-0.013,0.001-0.027,0.001-0.039,0.002v-0.018
	c0-0.026,0.001-0.055,0.003-0.086c0.001-0.012,0.002-0.026,0.003-0.04c0.001-0.022,0.004-0.046,0.005-0.07
	c0.002-0.017,0.005-0.034,0.005-0.05c0.006-0.048,0.012-0.098,0.02-0.149c0.003-0.025,0.006-0.05,0.011-0.074
	c0.02-0.001,0.041-0.001,0.06-0.001C15.606,19.634,15.678,19.638,15.751,19.647z M15.695,18.663c0.004,0.069,0.009,0.14,0.013,0.209
	c0.003,0.043,0.006,0.086,0.009,0.129c0,0.009,0,0.017,0,0.026c0-0.009,0-0.017-0.001-0.026l-0.008-0.129
	C15.704,18.803,15.699,18.731,15.695,18.663z M15.745,19.532c0.002,0.016,0.002,0.033,0.003,0.048h-0.001
	C15.747,19.564,15.747,19.547,15.745,19.532z M15.555,20.658c-0.043-0.001-0.085-0.001-0.129,0
	c-0.001-0.016-0.001-0.033-0.001-0.048c-0.001-0.037-0.001-0.073-0.001-0.109v-0.059c-0.002-0.083-0.002-0.169-0.001-0.254
	c0.014,0,0.031,0,0.045-0.001c0.05-0.002,0.102-0.002,0.151,0c0.053,0.001,0.104,0.003,0.158,0.011c0,0.013,0,0.024,0,0.036
	c0,0.019,0.001,0.041,0.001,0.062c0.001,0.022,0.004,0.042,0.004,0.064c0.002,0.088,0.004,0.176,0.007,0.263
	c0,0.019,0,0.036,0.001,0.054C15.713,20.667,15.634,20.661,15.555,20.658z M15.793,20.745c0.002,0.111,0.005,0.221,0.006,0.332
	c0.001,0.029,0.002,0.057,0.002,0.086c0,0.008,0,0.015,0,0.023c-0.023-0.004-0.045-0.006-0.067-0.009c-0.004,0-0.007,0-0.01,0
	c-0.007,0-0.012,0-0.017-0.002c-0.009,0-0.016,0-0.026,0c-0.077-0.006-0.154-0.009-0.231-0.006
	c-0.008-0.103-0.014-0.209-0.018-0.317c-0.002-0.041-0.004-0.082-0.006-0.124v-0.002c0.054-0.002,0.105-0.002,0.157,0l0.033,0.002
	C15.676,20.729,15.734,20.736,15.793,20.745z M15.443,19.573c0.002-0.021,0.006-0.04,0.009-0.058
	c0.018-0.101,0.038-0.203,0.06-0.304c0.005-0.023,0.008-0.047,0.014-0.068c0.004-0.021,0.008-0.042,0.014-0.063
	c-0.006,0.02-0.009,0.042-0.014,0.063c-0.005,0.021-0.009,0.045-0.014,0.068c-0.022,0.102-0.042,0.204-0.059,0.304
	C15.449,19.533,15.446,19.553,15.443,19.573c-0.042,0-0.084,0.003-0.125,0.008l0,0C15.359,19.577,15.401,19.574,15.443,19.573z
	 M15.298,20.087c0.001-0.067,0.004-0.133,0.005-0.201c0-0.008,0-0.017,0-0.027c0-0.005,0-0.011,0.001-0.014
	c0.001-0.065,0.002-0.13,0.005-0.197c0.001,0,0.005-0.001,0.007-0.001c0.039-0.003,0.077-0.007,0.116-0.011
	c-0.007,0.041-0.012,0.081-0.017,0.12c-0.005,0.035-0.009,0.07-0.014,0.103c-0.001,0.01-0.002,0.024-0.002,0.034
	c0,0.018-0.003,0.034-0.005,0.049c-0.004,0.034-0.005,0.068-0.007,0.098c0,0.023-0.003,0.045-0.003,0.065v0.021
	c-0.03,0.003-0.059,0.004-0.089,0.008C15.296,20.118,15.297,20.103,15.298,20.087z M15.285,20.445
	c0.002-0.052,0.006-0.105,0.006-0.159c0.001-0.028,0.001-0.057,0.003-0.085c0.03-0.004,0.06-0.008,0.089-0.012v0.207
	c0,0.031,0,0.06,0.001,0.089c0,0.055,0.002,0.11,0.003,0.163v0.012h-0.011c-0.033,0.003-0.066,0.006-0.099,0.009
	C15.281,20.594,15.282,20.521,15.285,20.445z M15.256,21.103c0.002-0.028,0.004-0.059,0.004-0.087
	c0.004-0.081,0.009-0.16,0.012-0.241c0-0.012,0-0.024,0.001-0.038c0.012,0,0.025-0.003,0.038-0.004h0.01
	c0.021-0.003,0.042-0.004,0.062-0.005h0.007c0,0.026,0.001,0.055,0.003,0.083c0.006,0.123,0.013,0.242,0.021,0.36
	c-0.034,0.001-0.064,0.004-0.097,0.007c-0.021,0.001-0.042,0.003-0.064,0.006C15.256,21.156,15.256,21.129,15.256,21.103z
	 M15.23,21.583c0.002-0.029,0.005-0.056,0.005-0.086c0.006-0.082,0.011-0.165,0.014-0.247c0.023-0.004,0.046-0.006,0.068-0.011
	c0.034-0.003,0.067-0.005,0.101-0.006c0,0.006,0,0.011,0.001,0.017c0.006,0.069,0.012,0.138,0.017,0.208
	c0.004,0.041,0.009,0.083,0.013,0.124c0.002,0.019,0.003,0.04,0.006,0.058c0.004,0.031,0.006,0.062,0.009,0.093h-0.022
	c-0.068,0.001-0.137,0.008-0.206,0.017c-0.005,0-0.012,0-0.016,0C15.224,21.696,15.227,21.639,15.23,21.583z M15.192,22.13
	c0.006-0.072,0.011-0.144,0.018-0.218c0-0.02,0.001-0.038,0.002-0.058c0.001-0.005,0.001-0.012,0.001-0.019
	c0.016-0.003,0.033-0.005,0.047-0.008c0.068-0.009,0.133-0.015,0.198-0.016c0.005-0.001,0.011-0.001,0.015-0.001
	c0.017,0.144,0.035,0.281,0.055,0.411c0.001,0.009,0.001,0.021,0.004,0.031h-0.039c-0.105,0-0.209,0.008-0.314,0.025
	C15.185,22.228,15.188,22.18,15.192,22.13z M15.144,19.758l0.005-0.05h0.001L15.144,19.758l-0.007,0.082L15.144,19.758z
	 M15.136,19.845l-0.005,0.04h0L15.136,19.845z M15.122,19.984l0.001-0.008l0.001-0.024l0-0.015l0,0.015l-0.001,0.024L15.122,19.984
	l-0.005,0.039L15.122,19.984z M15.03,20.032h0.086l-0.004,0.039h-0.086L15.03,20.032z M15.026,20.079h0.086l-0.003,0.039h-0.087
	L15.026,20.079z M14.708,20.151h0.31v-0.009l0.003-0.017h0.086l-0.003,0.04h-0.483l-0.003-0.04h0.089L14.708,20.151z M14.702,21.007
	l-0.005-0.039h0.328l-0.005,0.043v-0.004H14.702z M14.841,22.46l-0.004-0.039h0.042l-0.003,0.039H14.841z M14.873,22.468
	l-0.001,0.04h-0.025l-0.005-0.04H14.873z M14.836,22.414l0-0.012l-0.002-0.027h0.051l-0.002,0.027l-0.001,0.012H14.836z
	 M14.831,22.367l-0.003-0.038h0.06l-0.003,0.038H14.831z M14.826,22.319l-0.003-0.038h0.071l-0.005,0.038H14.826z M14.822,22.273
	l-0.003-0.039h0.079l-0.004,0.039H14.822z M14.817,22.227v-0.002l-0.004-0.036h0.089l-0.003,0.038H14.817z M14.813,22.18
	l-0.003-0.038h0.002l0.088-0.002l0.006-0.001l-0.002,0.042H14.813z M14.81,22.133l-0.004-0.04h0.105l-0.003,0.037v0.003H14.81z
	 M14.805,22.084l-0.004-0.038h0.116l-0.004,0.038H14.805z M14.8,22.039l-0.004-0.033l0-0.006h0.126l-0.002,0.006l-0.003,0.033H14.8z
	 M14.795,21.991l-0.004-0.039l0.135-0.007l-0.005,0.045H14.795z M14.791,21.944l-0.004-0.038l0.138-0.002h0.005l-0.001,0.005
	l-0.003,0.035H14.791z M14.787,21.898l-0.005-0.039h0.154l-0.005,0.039H14.787z M14.782,21.852l-0.003-0.04h0.161l-0.003,0.04
	H14.782z M14.777,21.805l-0.003-0.039h0.17l-0.005,0.039H14.777z M14.772,21.757l-0.001-0.014l-0.002-0.024h0.18l-0.003,0.039
	H14.772z M14.769,21.71l-0.004-0.039h0.188l-0.002,0.032l-0.001,0.007H14.769z M14.763,21.664l-0.001-0.017l-0.002-0.023h0.198
	l-0.006,0.04H14.763z M14.759,21.618l0-0.007l-0.002-0.032h0.207l-0.002,0.032l-0.002,0.007H14.759z M14.755,21.569l-0.003-0.038
	h0.216l-0.004,0.038H14.755z M14.752,21.523l-0.004-0.021l-0.001-0.019h0.226l-0.003,0.04H14.752z M14.746,21.476l-0.003-0.039
	h0.234l-0.003,0.039H14.746z M14.741,21.429l-0.002-0.039h0.244l-0.003,0.039H14.741z M14.736,21.383l-0.002-0.041h0.253
	l-0.004,0.041H14.736z M14.733,21.337l-0.004-0.04h0.263l-0.004,0.04H14.733z M14.728,21.289l-0.004-0.038h0.271l-0.003,0.038
	H14.728z M14.724,21.241l-0.002-0.029l-0.002-0.008H15v0.008l-0.003,0.028v0.001H14.724z M14.719,21.195l-0.003-0.04h0.29
	l-0.003,0.033v0.007H14.719z M14.715,21.148l-0.005-0.039h0.3l-0.004,0.038v0H14.715z M14.709,21.102l-0.003-0.04h0.308l-0.004,0.04
	H14.709z M14.705,21.054l-0.003-0.038h0.317l-0.003,0.038H14.705z M14.696,20.961l-0.003-0.039h0.335l-0.003,0.039H14.696z
	 M14.693,20.914l-0.005-0.038h0.345l-0.005,0.038H14.693z M14.688,20.868l-0.001-0.004l-0.004-0.035h0.354l-0.003,0.04H14.688z
	 M14.683,20.82l-0.003-0.035v-0.005h0.363l-0.004,0.04H14.683z M14.678,20.774l-0.003-0.039h0.372l-0.004,0.039H14.678z
	 M14.674,20.726l-0.003-0.038h0.382l-0.005,0.038H14.674z M14.669,20.681l-0.003-0.039h0.391l-0.005,0.037v0.002H14.669z
	 M14.664,20.633l-0.003-0.039h0.398l-0.002,0.039H14.664z M14.66,20.586l-0.001-0.04h0.407l-0.004,0.04H14.66z M14.655,20.539
	L14.653,20.5h0.417l-0.004,0.039H14.655z M14.652,20.492l-0.004-0.039h0.429l-0.004,0.024l-0.001,0.015H14.652z M14.647,20.445
	l-0.001-0.016l0-0.005l-0.003-0.018h0.436l-0.002,0.039H14.647z M14.643,20.398l-0.003-0.039h0.444v0.001l-0.002,0.038H14.643z
	 M14.638,20.352l-0.003-0.039h0.456l-0.004,0.039H14.638z M14.633,20.305l-0.003-0.038h0.463l-0.003,0.038H14.633z M14.628,20.257
	l-0.003-0.037h0.473l-0.005,0.037H14.628z M14.625,20.21l-0.004-0.038h0.482L15.1,20.21H14.625z M14.702,20.088l0.003,0.029h-0.09
	l-0.004-0.046l0.001,0.007h0.089L14.702,20.088z M14.689,19.976v0.004V19.976l-0.003-0.039L14.689,19.976z M14.695,20.023
	L14.695,20.023l-0.005-0.039L14.695,20.023z M14.681,19.892l0.004,0.038h0L14.681,19.892L14.681,19.892z M14.675,19.845l0.005,0.04
	l0,0L14.675,19.845L14.675,19.845z M14.695,20.032V20.03l0.002,0.014l0.003,0.027h-0.089v-0.002l-0.003-0.037v0H14.695z
	 M14.583,19.967l0.002,0.009h0L14.583,19.967l-0.003-0.029h0L14.583,19.967z M14.589,20.014v0.009l-0.001-0.009l-0.001-0.03
	L14.589,20.014z M14.577,19.892v-0.006l0.003,0.044l0,0L14.577,19.892L14.577,19.892z M14.568,20.032h0.021v0l0.005,0.039h-0.026
	V20.032z M14.568,20.079h0.027v0.007l0.004,0.032h-0.031V20.079z M14.568,20.125h0.031l0.003,0.04h-0.034V20.125z M14.568,20.172
	h0.035l0.004,0.038h-0.04V20.172z M14.568,20.22h0.04l0.004,0.037h-0.044V20.22z M14.568,20.267h0.044l0.004,0.038h-0.048V20.267z
	 M14.568,20.313h0.049l0.003,0.039h-0.053V20.313z M14.568,20.359h0.053l0.004,0.039h-0.057V20.359z M14.568,20.407h0.057
	l0.002,0.018l0.002,0.021h-0.062V20.407z M14.568,20.453h0.062l0.003,0.039h-0.065V20.453z M14.568,20.5h0.066l0.005,0.039h-0.071
	V20.5z M14.568,20.642h0.08l0-0.008h-0.079v-0.039h0.076l-0.001-0.008h-0.075v-0.04h0.071l0.007,0.064l0.007,0.076l-0.001-0.006
	h-0.084V20.642z M14.568,20.688h0.085l0.003,0.038h-0.089V20.688z M14.568,20.735h0.09l0.004,0.045l-0.001-0.006h-0.093V20.735z
	 M14.568,20.781h0.094l0.002,0.021l0.002,0.019h-0.098V20.781z M14.568,20.828h0.098l0.003,0.015v0.024h-0.101V20.828z
	 M14.568,20.876h0.104l0.004,0.038h-0.107V20.876z M14.568,20.922h0.107l0.005,0.043l-0.001-0.004h-0.111V20.922z M14.568,20.969
	h0.112l0.004,0.046l-0.001-0.008h-0.115V20.969z M14.568,21.016h0.117l0.003,0.038h-0.12V21.016z M14.568,21.062h0.12l0.005,0.04
	h-0.125V21.062z M14.568,21.297h0.142l0-0.008h-0.142V21.25h0.138v-0.01h-0.138v-0.038h0.135l0-0.008h-0.134v-0.04h0.13
	l-0.001-0.008h-0.128v-0.039h0.125l0.005,0.046l0.007,0.056l0.01,0.125h-0.147V21.297z M14.568,21.342h0.147l0.003,0.041h-0.151
	V21.342z M14.568,21.39h0.151l0.004,0.039h-0.156V21.39z M14.568,21.438h0.156l0.004,0.039h-0.16V21.438z M14.568,21.484h0.161
	l0.004,0.035l0,0.011l0-0.006h-0.165V21.484z M14.568,21.531h0.166l0.004,0.038h-0.17V21.531z M14.568,21.624h0.175l-0.002-0.006
	h-0.173v-0.039h0.17v-0.007l0.002,0.039l0.002,0.013l0.001,0.016l0.002,0.024h-0.178V21.624z M14.568,21.672h0.179v-0.006
	l0.005,0.045h-0.184V21.672z M14.568,21.718h0.185v0.004l0.004,0.034h-0.188V21.718z M14.568,21.766h0.188l0.003,0.039h-0.191
	V21.766z M14.568,21.812h0.192l0.005,0.046l0-0.006h-0.197V21.812z M14.568,21.859h0.197l0.004,0.039h-0.201V21.859z M14.568,21.906
	h0.202l0.005,0.038h-0.207V21.906z M14.568,21.953h0.207l0.004,0.039h-0.21V21.953z M14.568,22h0.21l0,0.006l0.003,0.033h-0.214V22z
	 M14.568,22.046h0.214l0.005,0.038h-0.219V22.046z M14.568,22.093h0.22l0.003,0.031l0,0.009h-0.224V22.093z M14.568,22.142h0.224
	l0.004,0.038h-0.228V22.142z M14.568,22.188h0.228l0.005,0.038h-0.233V22.188z M14.568,22.234h0.233v-0.006l0,0.012l0.003,0.033
	h-0.237V22.234z M14.568,22.281h0.238l0.002,0.038h-0.24V22.281z M14.568,22.329h0.243l0.002,0.042l0-0.003h-0.245V22.329z
	 M14.568,22.375h0.247l0.002,0.027l0.001,0.012h-0.251V22.375z M14.568,22.422h0.251v-0.006l0.004,0.044h-0.255V22.422z
	 M14.568,22.468h0.255l0.005,0.04h-0.26V22.468z M14.568,22.515h0.261l0.004,0.04h-0.265V22.515z M14.568,22.562h0.266l0.002,0.038
	l0,0.002h-0.269V22.562z M14.568,22.61h0.269l0.003,0.038h-0.271V22.61z M14.568,22.657h0.274l0.004,0.039h-0.278V22.657z
	 M14.849,22.959c-0.051-0.007-0.104-0.015-0.156-0.022h0.156V22.959z M14.849,22.93h-0.214c-0.022-0.004-0.045-0.009-0.067-0.01
	v-0.03h0.281V22.93z M14.849,22.883h-0.281v-0.039h0.281V22.883z M14.849,22.835h-0.281v-0.039h0.281V22.835z M14.849,22.789h-0.281
	V22.75h0.281V22.789z M14.849,22.741h-0.281v-0.039h0.278l0.002,0.026V22.741z M14.846,22.515h0.024l-0.005,0.04H14.85
	L14.846,22.515z M14.858,22.637l-0.003-0.027l0.005-0.002L14.858,22.637z M14.86,22.602h-0.007l-0.003-0.04l0.014-0.002
	L14.86,22.602z M15.025,23.539h-0.109v-0.04h0.109V23.539z M15.025,23.492h-0.109v-0.039h0.109V23.492z M15.025,23.444h-0.109
	v-0.039h0.109V23.444z M15.025,23.398h-0.109v-0.039h0.109V23.398z M15.025,23.351h-0.109v-0.038h0.109V23.351z M15.025,23.305
	h-0.109v-0.041h0.109V23.305z M15.025,23.258h-0.109v-0.04h0.109V23.258z M15.025,23.211h-0.109v-0.039h0.109V23.211z
	 M15.025,23.163h-0.109v-0.039h0.109V23.163z M15.025,23.117h-0.109v-0.04h0.109V23.117z M15.139,23.039h-0.113v0.032h-0.109v-0.039
	h0.222V23.039z M15.139,23.022h-0.222v-0.038h0.222V23.022z M15.139,22.976h-0.222v-0.003l-0.016-0.003
	c-0.012-0.002-0.024-0.003-0.035-0.007v-0.025h0.273V22.976z M15.139,22.93h-0.273v-0.04h0.273V22.93z M15.139,22.883h-0.273v-0.039
	h0.273V22.883z M15.158,22.834h-0.02v0h-0.273v-0.039h0.292V22.834z M15.158,22.789h-0.292V22.75h0.292V22.789z M15.158,22.741
	h-0.292v-0.015l0.003-0.024h0.289V22.741z M15.158,22.695h-0.288l0.002-0.039h0.285V22.695z M15.158,22.648h-0.285l0.002-0.01
	l0.002-0.028h0.281V22.648z M15.158,22.602h-0.28l0.004-0.04h0.276V22.602z M15.158,22.555h-0.274l0.003-0.04h0.271V22.555z
	 M15.158,22.508h-0.27l0.004-0.04h0.266V22.508z M15.158,22.46h-0.265l0.003-0.039h0.261V22.46z M15.158,22.414h-0.26l0.001-0.012
	l0.002-0.027h0.257V22.414z M15.158,22.367h-0.256l0.004-0.038h0.252V22.367z M15.158,22.319h-0.252l0.004-0.038h0.248V22.319z
	 M15.158,22.273h-0.247l0.004-0.039h0.243V22.273z M15.158,22.227h-0.242l0.001-0.022l0.002-0.016h0.238V22.227z M15.158,22.18
	h-0.236l0.003-0.038h0.233V22.18z M15.158,22.133h-0.233l0.002-0.025l0-0.015h0.23V22.133z M15.158,22.084H14.93l0.005-0.038h0.224
	V22.084z M15.158,22.039h-0.223l0.003-0.033L14.939,22h0.219V22.039z M15.158,21.991h-0.219l0.004-0.039h0.215V21.991z
	 M15.158,21.944h-0.213l0.001-0.018l0.002-0.02h0.209V21.944z M15.158,21.898h-0.209l0.003-0.039h0.206V21.898z M15.158,21.852
	h-0.206l0.005-0.04h0.2V21.852z M15.158,21.805h-0.2l0.003-0.039h0.196V21.805z M15.158,21.757h-0.195l0.003-0.039h0.192V21.757z
	 M15.158,21.71h-0.19v-0.002l0.003-0.037h0.187V21.71z M15.158,21.664h-0.186l0.004-0.04h0.182V21.664z M15.158,21.618h-0.182
	l0.002-0.007l0.003-0.032h0.176V21.618z M15.158,21.569h-0.176l0.004-0.038h0.172V21.569z M15.158,21.523h-0.171l0.004-0.04h0.167
	V21.523z M15.158,21.476h-0.167l0.002-0.039h0.164V21.476z M15.158,21.429h-0.162L15,21.39h0.159V21.429z M15.158,21.383H15
	l0.004-0.041h0.153V21.383z M15.158,21.337h-0.152l0.004-0.04h0.148V21.337z M15.158,21.289H15.01l0.004-0.038h0.145V21.289z
	 M15.158,21.241h-0.144l0.002-0.023l0.001-0.006v-0.008h0.14V21.241z M15.158,21.195h-0.139l0.005-0.04h0.134V21.195z
	 M15.158,21.148h-0.133l0.002-0.039h0.131V21.148z M15.158,21.102h-0.13l0.003-0.04h0.127V21.102z M15.158,21.054h-0.124
	l0.003-0.038h0.121V21.054z M15.158,21.007h-0.121l0.005-0.039h0.115V21.007z M15.158,20.961h-0.115l0.004-0.039h0.111V20.961z
	 M15.158,20.914h-0.111l0.005-0.038h0.106V20.914z M15.158,20.868h-0.106l0.004-0.04h0.102V20.868z M15.158,20.82h-0.101l0.002-0.04
	h0.099V20.82z M15.158,20.774h-0.098l0.004-0.039h0.093V20.774z M15.158,20.726h-0.092l0.004-0.038h0.088V20.726z M15.158,20.681
	h-0.087l0.005-0.039h0.082V20.681z M15.158,20.633h-0.082l0.002-0.039h0.08V20.633z M15.158,20.586h-0.077l0.002-0.04h0.075V20.586z
	 M15.158,20.539h-0.072L15.09,20.5h0.068V20.539z M15.158,20.492H15.09l0.003-0.039h0.065V20.492z M15.158,20.445h-0.065
	l0.005-0.039h0.06V20.445z M15.158,20.398H15.1l0.003-0.039h0.055V20.398z M15.158,20.352h-0.054l0.001-0.012l0.002-0.027h0.051
	V20.352z M15.158,20.305h-0.05l0.004-0.038h0.045V20.305z M15.158,20.257h-0.045l0.004-0.037h0.042V20.257z M15.158,20.21h-0.042
	l0.005-0.036l0.001-0.002h0.036V20.21z M15.158,20.165h-0.035l0.001-0.04h0.033V20.165z M15.158,20.118h-0.03l0.002-0.039h0.028
	V20.118z M15.158,20.071h-0.027l0.005-0.039h0.022V20.071z M15.175,22.834v-0.473c0.017-0.002,0.035-0.006,0.052-0.009
	c0.066-0.01,0.131-0.017,0.196-0.019c0.037-0.002,0.074-0.003,0.108-0.002h0.015c0.002,0.015,0.004,0.029,0.007,0.045
	c0.003,0.023,0.007,0.047,0.012,0.071c0.019,0.117,0.038,0.228,0.058,0.329c0.003,0.02,0.007,0.038,0.009,0.057H15.175z
	 M15.798,22.449c-0.003,0.12-0.005,0.242-0.009,0.363c-0.001,0.007-0.001,0.015-0.001,0.023h-0.117c0-0.001-0.001-0.002-0.001-0.004
	c-0.016-0.082-0.031-0.169-0.047-0.264c-0.007-0.038-0.015-0.077-0.021-0.118c-0.006-0.038-0.013-0.076-0.019-0.115
	c0.073,0.002,0.146,0.01,0.217,0.022C15.8,22.386,15.8,22.417,15.798,22.449z M15.806,21.924v0.183
	c-0.003,0.057-0.004,0.11-0.004,0.166c-0.077-0.01-0.153-0.016-0.231-0.018c-0.003-0.024-0.006-0.046-0.01-0.069
	c-0.018-0.12-0.033-0.245-0.05-0.375h0.018c0.093,0.002,0.186,0.011,0.277,0.026C15.807,21.865,15.806,21.894,15.806,21.924z
	 M15.692,21.742c-0.063-0.005-0.127-0.008-0.189-0.008c-0.003-0.025-0.005-0.05-0.007-0.075c-0.003-0.024-0.006-0.05-0.008-0.076
	c-0.005-0.052-0.011-0.107-0.017-0.16c-0.005-0.06-0.009-0.122-0.014-0.183c0-0.004,0-0.006-0.002-0.009c0.011,0,0.019,0,0.029,0
	c0.056-0.001,0.11,0,0.166,0.003c0.033,0.002,0.063,0.005,0.092,0.01c0.02,0.002,0.042,0.005,0.061,0.008
	c0.002,0.078,0.004,0.155,0.004,0.234v0.097c0.001,0.057,0.001,0.113,0.001,0.171C15.769,21.747,15.729,21.745,15.692,21.742z
	 M15.956,21.795l0.061-0.062l0.071-0.073h0.385l0.079,0.081l0.052,0.054H15.956z M17.526,23.491h-0.845v-0.068h0.845V23.491z
	 M17.563,23.407h-0.917V21.4h0.917V23.407z M17.563,21.377H16.76v-0.295c0.012-0.004,0.02-0.007,0.032-0.011
	c0.035-0.011,0.069-0.02,0.105-0.028c0.024-0.003,0.048-0.009,0.073-0.012c0.044-0.007,0.092-0.011,0.139-0.012
	c0.123-0.004,0.246,0.009,0.375,0.041c0.024,0.007,0.052,0.013,0.078,0.021V21.377z"/>
<circle fill="#7E7E7F" cx="9.39" cy="14.177" r="3.407"/>
<circle fill="#FFFFFF" cx="9.383" cy="14.177" r="3.227"/>
<circle fill="#1C1D1D" cx="9.208" cy="14.177" r="2.163"/>
<circle fill="#3D3A39" cx="9.307" cy="14.177" r="2.064"/>
<circle fill="#9F9FA0" cx="9.558" cy="13.826" r="1.063"/>
<circle fill="#FFFFFF" cx="9.623" cy="13.826" r="0.998"/>
<circle fill="#7E7E7F" cx="18.902" cy="14.177" r="3.387"/>
<circle fill="#FFFFFF" cx="18.917" cy="14.177" r="3.227"/>
<circle fill="#1C1D1D" cx="18.742" cy="14.177" r="2.163"/>
<circle fill="#3D3A39" cx="18.841" cy="14.177" r="2.064"/>
<path fill="#9F9FA0" d="M18.028,13.826c0-0.587,0.474-1.062,1.064-1.062c0.587,0,1.062,0.475,1.062,1.062
	c0,0.588-0.475,1.064-1.062,1.064C18.502,14.89,18.028,14.414,18.028,13.826z"/>
<circle fill="#FFFFFF" cx="19.156" cy="13.826" r="0.997"/>
</svg>
