<?xml version="1.0" encoding="utf-8"?>
<!-- Generator: Adobe Illustrator 15.0.0, SVG Export Plug-In  -->
<!DOCTYPE svg PUBLIC "-//W3C//DTD SVG 1.1//EN" "http://www.w3.org/Graphics/SVG/1.1/DTD/svg11.dtd" [
	<!ENTITY ns_flows "http://ns.adobe.com/Flows/1.0/">
]>
<svg version="1.1"
	 xmlns="http://www.w3.org/2000/svg" xmlns:xlink="http://www.w3.org/1999/xlink" xmlns:a="http://ns.adobe.com/AdobeSVGViewerExtensions/3.0/"
	 x="0px" y="0px" width="42px" height="42px" viewBox="145.273 229.639 42 42" enable-background="new 145.273 229.639 42 42"
	 xml:space="preserve">
<defs>
</defs>
<rect display="none" fill="#E0E0E0" width="2229.455" height="1311.244"/>
<rect x="145.273" y="229.639" display="none" fill="#C9C9C9" width="42" height="42"/>
<path fill="#FFFFFF" d="M163.453,235.455c0.378-1.391,1.77-2.272,3.157-2.272c1.515,0,2.778,1.012,3.157,2.399
	c0.378,1.515-0.251,2.778-1.894,3.535c-0.378,0.128-0.757,0.506-0.757,0.885v2.654h-1.012v-2.906c0-0.251-0.506-0.506-0.757-0.63
	C163.704,238.233,163.074,236.969,163.453,235.455L163.453,235.455z M151.58,255.032c-2.272,0-4.169-1.769-4.297-3.917
	c0-2.272,1.77-4.042,4.297-4.169V255.032z M180.125,255.032v-8.083c2.272-0.127,4.296,1.77,4.296,3.918
	C184.422,253.139,182.401,255.16,180.125,255.032L180.125,255.032z M177.981,244.044v13.771c0,1.263-0.251,1.515-1.77,1.642h-5.56
	c-0.127,0-0.127,0-0.378,0.127v1.893h2.021c0.757,0,1.264,0.379,1.264,1.136v3.917c0,0.758-0.506,1.136-1.264,1.136h-13.009
	c-0.758,0-1.264-0.378-1.264-1.263v-3.791c0-0.885,0.378-1.136,1.264-1.264h1.769l0.127-0.127v-1.893h-6.189
	c-1.012,0-1.391-0.379-1.391-1.264v-14.149c0-1.012,0.379-1.264,1.515-1.264h21.224C177.726,242.529,177.981,242.78,177.981,244.044
	L177.981,244.044z M162.568,250.864c0-1.136-1.012-2.021-2.272-2.021c-1.136,0-2.148,0.885-2.148,2.021v0.127
	c0,1.136,1.012,2.148,2.272,2.148C161.683,253.012,162.568,252.127,162.568,250.864L162.568,250.864z M160.42,263.498v2.148h10.989
	v-2.148H160.42z M173.684,250.991c0-1.136-0.884-2.148-2.148-2.148h-0.127c-1.264,0-2.272,0.885-2.272,2.021
	c0,1.136,1.012,2.148,2.272,2.148C172.672,253.139,173.684,252.127,173.684,250.991L173.684,250.991z M173.684,250.991"/>
</svg>
