<?xml version="1.0" encoding="utf-8"?>
<!-- Generator: Adobe Illustrator 15.0.0, SVG Export Plug-In  -->
<!DOCTYPE svg PUBLIC "-//W3C//DTD SVG 1.1//EN" "http://www.w3.org/Graphics/SVG/1.1/DTD/svg11.dtd" [
	<!ENTITY ns_flows "http://ns.adobe.com/Flows/1.0/">
]>
<svg version="1.1"
	 xmlns="http://www.w3.org/2000/svg" xmlns:xlink="http://www.w3.org/1999/xlink" xmlns:a="http://ns.adobe.com/AdobeSVGViewerExtensions/3.0/"
	 x="0px" y="0px" width="24px" height="24px" viewBox="143.273 492.639 24 24" enable-background="new 143.273 492.639 24 24"
	 xml:space="preserve">
<defs>
</defs>
<rect display="none" fill="#E0E0E0" width="2229.455" height="1311.244"/>
<rect x="143.273" y="492.639" display="none" fill="#C9C9C9" width="24" height="24"/>
<path fill="#C963D1" d="M155.021,504.605c0,0.241-0.102,0.471-0.28,0.633l-5.826,5.311c-0.156,0.144-0.361,0.225-0.574,0.225
	c-0.12,0-0.239-0.026-0.35-0.075c-0.312-0.135-0.513-0.443-0.511-0.783v-10.621c0-0.339,0.201-0.646,0.511-0.784
	c0.311-0.137,0.672-0.078,0.923,0.151l5.826,5.311C154.919,504.135,155.021,504.365,155.021,504.605L155.021,504.605z
	 M162.281,503.973l-5.826-5.311c-0.251-0.229-0.613-0.288-0.923-0.151s-0.511,0.444-0.511,0.784v10.621
	c-0.003,0.34,0.198,0.649,0.511,0.784c0.11,0.049,0.229,0.075,0.35,0.075c0.212,0,0.417-0.081,0.574-0.225l5.826-5.311
	c0.178-0.162,0.28-0.392,0.28-0.633C162.561,504.365,162.459,504.135,162.281,503.973L162.281,503.973z M162.281,503.973"/>
</svg>
