<?xml version="1.0" encoding="utf-8"?>
<!-- Generator: Adobe Illustrator 15.0.0, SVG Export Plug-In  -->
<!DOCTYPE svg PUBLIC "-//W3C//DTD SVG 1.1//EN" "http://www.w3.org/Graphics/SVG/1.1/DTD/svg11.dtd" [
	<!ENTITY ns_flows "http://ns.adobe.com/Flows/1.0/">
]>
<svg version="1.1"
	 xmlns="http://www.w3.org/2000/svg" xmlns:xlink="http://www.w3.org/1999/xlink" xmlns:a="http://ns.adobe.com/AdobeSVGViewerExtensions/3.0/"
	 x="0px" y="0px" width="24px" height="24px" viewBox="295.273 492.639 24 24" enable-background="new 295.273 492.639 24 24"
	 xml:space="preserve">
<defs>
</defs>
<rect display="none" fill="#E0E0E0" width="2229.455" height="1311.244"/>
<rect x="295.273" y="492.639" display="none" fill="#C9C9C9" width="24" height="24"/>
<path fill="#C963D1" d="M310.285,511.182c-0.4,0-0.667-0.4-0.667-0.667v-10.138c0-0.4,0.267-0.667,0.667-0.667
	s0.666,0.267,0.666,0.667v10.138C310.951,510.915,310.685,511.182,310.285,511.182L310.285,511.182z M304.554,509.044
	c-0.267,0-0.667-0.267-0.667-0.667v-5.997c0-0.4,0.267-0.667,0.667-0.667s0.667,0.267,0.667,0.667v5.997
	C305.22,508.778,304.954,509.044,304.554,509.044L304.554,509.044z M313.083,514.114c-0.399,0-0.667-0.267-0.667-0.533v-16.269
	c0-0.399,0.267-0.666,0.667-0.666c0.4,0,0.667,0.267,0.667,0.666v16.136C313.75,513.847,313.483,514.114,313.083,514.114
	L313.083,514.114z M301.755,507.712c-0.399,0-0.666-0.267-0.666-0.533v-3.465c0-0.399,0.267-0.666,0.666-0.666
	c0.4,0,0.667,0.267,0.667,0.666v3.332C302.421,507.445,302.155,507.712,301.755,507.712L301.755,507.712z M298.823,506.379
	c-0.4,0-0.667-0.267-0.667-0.667v-0.666c0-0.4,0.267-0.667,0.667-0.667c0.399,0,0.667,0.267,0.667,0.667v0.666
	C299.49,506.112,299.223,506.379,298.823,506.379L298.823,506.379z M307.353,506.779c-0.267,0-0.667-0.4-0.667-0.667v-1.333
	c0-0.4,0.267-0.667,0.667-0.667s0.666,0.267,0.666,0.667v1.333C308.019,506.512,307.752,506.779,307.353,506.779L307.353,506.779z
	 M307.353,506.779"/>
</svg>
