<?xml version="1.0" encoding="utf-8"?>
<!-- Generator: Adobe Illustrator 15.0.0, SVG Export Plug-In  -->
<!DOCTYPE svg PUBLIC "-//W3C//DTD SVG 1.1//EN" "http://www.w3.org/Graphics/SVG/1.1/DTD/svg11.dtd" [
	<!ENTITY ns_flows "http://ns.adobe.com/Flows/1.0/">
]>
<svg version="1.1"
	 xmlns="http://www.w3.org/2000/svg" xmlns:xlink="http://www.w3.org/1999/xlink" xmlns:a="http://ns.adobe.com/AdobeSVGViewerExtensions/3.0/"
	 x="0px" y="0px" width="24px" height="24px" viewBox="174.273 492.639 24 24" enable-background="new 174.273 492.639 24 24"
	 xml:space="preserve">
<defs>
</defs>
<rect display="none" fill="#E0E0E0" width="2229.455" height="1311.244"/>
<rect x="174.273" y="492.639" display="none" fill="#C9C9C9" width="24" height="24"/>
<path fill="#C963D1" d="M186.119,504.605c0-0.241,0.102-0.47,0.279-0.633l5.826-5.311c0.25-0.229,0.612-0.288,0.923-0.151
	s0.511,0.444,0.511,0.784v10.621c0.002,0.34-0.199,0.648-0.511,0.783c-0.11,0.049-0.229,0.075-0.35,0.075
	c-0.212,0-0.417-0.081-0.574-0.225l-5.826-5.311C186.221,505.076,186.119,504.847,186.119,504.605L186.119,504.605z
	 M178.859,503.973c-0.178,0.162-0.279,0.392-0.279,0.633c0,0.241,0.102,0.471,0.279,0.633l5.826,5.311
	c0.156,0.144,0.361,0.225,0.574,0.225c0.12,0,0.239-0.026,0.35-0.075c0.312-0.135,0.513-0.444,0.511-0.784v-10.621
	c0-0.339-0.201-0.646-0.511-0.784c-0.311-0.137-0.672-0.078-0.923,0.151L178.859,503.973L178.859,503.973z M178.859,503.973"/>
</svg>
