<?xml version="1.0" encoding="utf-8"?>
<!-- Generator: Adobe Illustrator 15.0.0, SVG Export Plug-In  -->
<!DOCTYPE svg PUBLIC "-//W3C//DTD SVG 1.1//EN" "http://www.w3.org/Graphics/SVG/1.1/DTD/svg11.dtd" [
	<!ENTITY ns_flows "http://ns.adobe.com/Flows/1.0/">
]>
<svg version="1.1"
	 xmlns="http://www.w3.org/2000/svg" xmlns:xlink="http://www.w3.org/1999/xlink" xmlns:a="http://ns.adobe.com/AdobeSVGViewerExtensions/3.0/"
	 x="0px" y="0px" width="28px" height="28px" viewBox="178.273 457.639 28 28" enable-background="new 178.273 457.639 28 28"
	 xml:space="preserve">
<defs>
</defs>
<rect display="none" fill="#E0E0E0" width="2229.455" height="1311.244"/>
<rect x="178.273" y="457.639" display="none" fill="#C9C9C9" width="28" height="28"/>
<path fill="#F0423B" d="M198.01,480.748h-2.469c-0.375,0-0.679,0.304-0.679,0.679c0,0.375,0.304,0.679,0.679,0.679h2.469
	c0.375,0,0.679-0.304,0.679-0.679C198.688,481.052,198.385,480.748,198.01,480.748z M188.135,480.748h-2.172
	c-0.058,0-0.115-0.005-0.171-0.016c-0.369-0.068-0.723,0.175-0.792,0.544c-0.068,0.369,0.176,0.723,0.544,0.792
	c0.137,0.025,0.278,0.038,0.419,0.038h2.171c0.375,0,0.679-0.304,0.679-0.679C188.814,481.052,188.51,480.748,188.135,480.748z
	 M193.072,480.748h-2.468c-0.375,0-0.679,0.304-0.679,0.679c0,0.375,0.304,0.679,0.679,0.679h2.468c0.375,0,0.679-0.304,0.679-0.679
	C193.751,481.052,193.447,480.748,193.072,480.748z M202.702,464.909c-0.069-0.369-0.423-0.612-0.792-0.544
	c-0.369,0.069-0.612,0.423-0.543,0.792c0.01,0.057,0.016,0.115,0.016,0.173v2.169c0,0.375,0.304,0.679,0.679,0.679
	s0.679-0.304,0.679-0.679v-2.169C202.741,465.188,202.728,465.047,202.702,464.909z M200.902,463.7c0-0.375-0.304-0.679-0.679-0.679
	H199v-0.752c0-0.896-0.733-1.63-1.63-1.63h-14.468c-0.896,0-1.629,0.734-1.629,1.63v14.468c0,0.896,0.733,1.63,1.629,1.63h0.753
	v1.222c0,0.375,0.304,0.679,0.679,0.679s0.679-0.304,0.679-0.679v-1.222h12.357c0.896,0,1.63-0.734,1.63-1.63v-12.358h1.222
	C200.598,464.379,200.902,464.075,200.902,463.7z M194.966,470.435l-4.137,4.095c-0.26,0.25-0.674,0.25-0.935,0l-4.153-4.095
	c-0.19-0.192-0.248-0.479-0.142-0.729c0.103-0.249,0.347-0.414,0.621-0.417h2.797v-3.795c-0.002-0.309,0.155-0.462,0.467-0.462
	h1.739c0.313,0,0.468,0.153,0.468,0.462v3.795h2.798c0.273,0.003,0.515,0.168,0.621,0.417
	C195.212,469.956,195.156,470.243,194.966,470.435z M202.062,469.289c-0.375,0-0.679,0.304-0.679,0.679v2.469
	c0,0.375,0.304,0.679,0.679,0.679s0.679-0.304,0.679-0.679v-2.469C202.741,469.593,202.437,469.289,202.062,469.289z
	 M202.079,479.164c-0.375-0.011-0.687,0.286-0.697,0.66c-0.014,0.504-0.419,0.91-0.923,0.924c-0.375,0.01-0.67,0.323-0.66,0.698
	c0.011,0.368,0.313,0.66,0.679,0.66c0.006,0,0.013,0,0.02,0c1.224-0.035,2.209-1.021,2.242-2.245
	C202.75,479.486,202.454,479.174,202.079,479.164z M202.062,474.226c-0.375,0-0.679,0.304-0.679,0.679v2.468
	c0,0.375,0.304,0.679,0.679,0.679s0.679-0.304,0.679-0.679v-2.468C202.741,474.53,202.437,474.226,202.062,474.226z"/>
</svg>
