<?xml version="1.0" encoding="utf-8"?>
<!-- Generator: Adobe Illustrator 15.0.0, SVG Export Plug-In  -->
<!DOCTYPE svg PUBLIC "-//W3C//DTD SVG 1.1//EN" "http://www.w3.org/Graphics/SVG/1.1/DTD/svg11.dtd" [
	<!ENTITY ns_flows "http://ns.adobe.com/Flows/1.0/">
]>
<svg version="1.1"
	 xmlns="http://www.w3.org/2000/svg" xmlns:xlink="http://www.w3.org/1999/xlink" xmlns:a="http://ns.adobe.com/AdobeSVGViewerExtensions/3.0/"
	 x="0px" y="0px" width="28px" height="28px" viewBox="143.273 457.639 28 28" enable-background="new 143.273 457.639 28 28"
	 xml:space="preserve">
<defs>
</defs>
<rect display="none" fill="#E0E0E0" width="2229.455" height="1311.244"/>
<rect x="143.273" y="457.639" display="none" fill="#C9C9C9" width="28" height="28"/>
<path fill="#F0423B" d="M163.974,463.389h-14.181c-0.277,0-0.532,0.148-0.671,0.387c-0.138,0.24-0.138,0.535,0,0.775
	c0.139,0.24,0.394,0.387,0.671,0.387h14.181v14.181c0,0.277,0.148,0.532,0.388,0.67c0.24,0.139,0.535,0.139,0.774,0
	c0.24-0.138,0.387-0.394,0.387-0.67v-14.181C165.523,464.082,164.83,463.389,163.974,463.389z"/>
<path fill="#F0423B" d="M161.224,466.139h-13.401c-0.411,0-0.805,0.163-1.096,0.454c-0.291,0.29-0.454,0.684-0.454,1.095v13.401
	c0,0.411,0.163,0.805,0.454,1.096c0.291,0.291,0.685,0.454,1.096,0.454h13.401c0.411,0,0.805-0.163,1.096-0.454
	c0.291-0.291,0.454-0.685,0.454-1.096v-13.401c0-0.411-0.163-0.805-0.454-1.095C162.029,466.302,161.635,466.139,161.224,466.139z
	 M159.977,472.745c0,0.533-0.531,0.899-1.032,0.715c-0.834-0.306-1.553-0.992-2.117-2.02c0,0-1.751,6.34-1.755,6.352
	c-0.4,1.236-1.551,2.024-2.785,2.024c-0.306,0-0.609-0.049-0.9-0.144c-0.744-0.241-1.348-0.757-1.704-1.453
	c-0.354-0.696-0.418-1.489-0.177-2.232c0.498-1.534,2.15-2.378,3.685-1.881c0.419,0.136,0.795,0.359,1.107,0.654l1.454-5.263
	c0.12-0.43,0.499-0.725,0.945-0.735c0.445-0.01,0.838,0.27,0.975,0.695c0.161,0.501,0.444,1.217,0.875,1.784
	c0.289,0.379,0.592,0.628,0.919,0.753c0.303,0.115,0.509,0.396,0.509,0.719V472.745z"/>
<path fill="#F0423B" d="M167.819,461.093c-0.291-0.291-0.685-0.454-1.096-0.454H154c-0.428,0-0.774,0.347-0.774,0.775
	c0,0.427,0.347,0.774,0.774,0.774h12.723v12.833c0,0.277,0.148,0.533,0.388,0.671c0.239,0.139,0.535,0.139,0.774,0
	c0.24-0.138,0.387-0.394,0.387-0.671v-12.833C168.273,461.777,168.11,461.383,167.819,461.093z"/>
</svg>
