<?xml version="1.0" encoding="utf-8"?>
<!-- Generator: Adobe Illustrator 15.0.0, SVG Export Plug-In  -->
<!DOCTYPE svg PUBLIC "-//W3C//DTD SVG 1.1//EN" "http://www.w3.org/Graphics/SVG/1.1/DTD/svg11.dtd" [
	<!ENTITY ns_flows "http://ns.adobe.com/Flows/1.0/">
]>
<svg version="1.1"
	 xmlns="http://www.w3.org/2000/svg" xmlns:xlink="http://www.w3.org/1999/xlink" xmlns:a="http://ns.adobe.com/AdobeSVGViewerExtensions/3.0/"
	 x="0px" y="0px" width="24px" height="24px" viewBox="383.273 492.639 24 24" enable-background="new 383.273 492.639 24 24"
	 xml:space="preserve">
<defs>
</defs>
<rect display="none" fill="#E0E0E0" width="2229.455" height="1311.244"/>
<rect x="383.273" y="492.639" display="none" fill="#C9C9C9" width="24" height="24"/>
<path fill="#C963D1" d="M401.004,500.521l1.022-1.296c0.145,0.046,0.299,0.078,0.46,0.078c0.841,0,1.521-0.68,1.521-1.521
	c0-0.841-0.68-1.521-1.521-1.521c-0.841,0-1.521,0.68-1.521,1.521c0,0.29,0.085,0.556,0.225,0.786l-1.043,1.321
	c-1.283-0.825-2.799-1.312-4.431-1.312c-1.629,0-3.148,0.487-4.431,1.312l-1.043-1.321c0.14-0.23,0.225-0.497,0.225-0.786
	c0-0.841-0.68-1.521-1.521-1.521c-0.841,0-1.521,0.68-1.521,1.521c0,0.841,0.68,1.521,1.521,1.521c0.161,0,0.315-0.032,0.46-0.078
	l1.022,1.296c-1.79,1.512-2.935,3.766-2.935,6.278v5.628c0,0.193,0.016,0.381,0.03,0.572h16.385c0.014-0.19,0.03-0.379,0.03-0.572
	v-5.628C403.938,504.287,402.794,502.032,401.004,500.521L401.004,500.521z M402.555,507.297c0,1.103-0.901,2.004-2.004,2.004h-9.67
	c-1.103,0-2.004-0.901-2.004-2.004s0.901-2.004,2.004-2.004h9.67C401.654,505.293,402.555,506.194,402.555,507.297L402.555,507.297z
	 M402.555,507.297"/>
<path fill="#C963D1" d="M391.876,505.801c-0.459,0-0.836,0.377-0.836,0.836v1.317c0,0.459,0.377,0.836,0.836,0.836
	s0.836-0.377,0.836-0.836v-1.317C392.715,506.178,392.338,505.801,391.876,505.801L391.876,505.801z M399.556,505.787
	c-0.459,0-0.836,0.377-0.836,0.837v1.317c0,0.459,0.377,0.836,0.836,0.836s0.836-0.377,0.836-0.836v-1.317
	C400.393,506.164,400.016,505.787,399.556,505.787L399.556,505.787z M399.556,505.787"/>
</svg>
