<?xml version="1.0" encoding="utf-8"?>
<!-- Generator: Adobe Illustrator 15.0.0, SVG Export Plug-In  -->
<!DOCTYPE svg PUBLIC "-//W3C//DTD SVG 1.1//EN" "http://www.w3.org/Graphics/SVG/1.1/DTD/svg11.dtd" [
	<!ENTITY ns_flows "http://ns.adobe.com/Flows/1.0/">
]>
<svg version="1.1"
	 xmlns="http://www.w3.org/2000/svg" xmlns:xlink="http://www.w3.org/1999/xlink" xmlns:a="http://ns.adobe.com/AdobeSVGViewerExtensions/3.0/"
	 x="0px" y="0px" width="24px" height="24px" viewBox="325.273 492.639 24 24" enable-background="new 325.273 492.639 24 24"
	 xml:space="preserve">
<defs>
</defs>
<rect display="none" fill="#E0E0E0" width="2229.455" height="1311.244"/>
<rect x="325.273" y="492.639" display="none" fill="#C9C9C9" width="24" height="24"/>
<path fill="#C963D1" d="M333.562,511.182c-0.399,0-0.666-0.267-0.666-0.667v-10.138c0-0.4,0.267-0.667,0.666-0.667
	c0.4,0,0.667,0.267,0.667,0.667v10.138C334.228,510.782,333.961,511.182,333.562,511.182L333.562,511.182z M339.292,509.044
	c-0.4,0-0.667-0.267-0.667-0.667v-5.997c0-0.4,0.267-0.667,0.667-0.667s0.666,0.267,0.666,0.667v5.997
	C339.958,508.778,339.559,509.044,339.292,509.044L339.292,509.044z M330.763,514.114c-0.4,0-0.667-0.267-0.667-0.667v-16.136
	c0-0.399,0.267-0.666,0.667-0.666c0.399,0,0.666,0.267,0.666,0.666v16.269C331.429,513.847,331.163,514.114,330.763,514.114
	L330.763,514.114z M342.091,507.712c-0.4,0-0.667-0.267-0.667-0.667v-3.332c0-0.399,0.267-0.666,0.667-0.666
	c0.399,0,0.666,0.267,0.666,0.666v3.465C342.757,507.445,342.491,507.712,342.091,507.712L342.091,507.712z M345.023,506.379
	c-0.399,0-0.666-0.267-0.666-0.667v-0.666c0-0.4,0.267-0.667,0.666-0.667c0.4,0,0.667,0.267,0.667,0.667v0.666
	C345.689,506.112,345.423,506.379,345.023,506.379L345.023,506.379z M336.494,506.779c-0.4,0-0.666-0.267-0.666-0.667v-1.333
	c0-0.4,0.266-0.667,0.666-0.667s0.667,0.267,0.667,0.667v1.333C337.16,506.379,336.76,506.779,336.494,506.779L336.494,506.779z
	 M336.494,506.779"/>
</svg>
