<?xml version="1.0" encoding="utf-8"?>
<!-- Generator: Adobe Illustrator 15.0.0, SVG Export Plug-In  -->
<!DOCTYPE svg PUBLIC "-//W3C//DTD SVG 1.1//EN" "http://www.w3.org/Graphics/SVG/1.1/DTD/svg11.dtd" [
	<!ENTITY ns_flows "http://ns.adobe.com/Flows/1.0/">
]>
<svg version="1.1"
	 xmlns="http://www.w3.org/2000/svg" xmlns:xlink="http://www.w3.org/1999/xlink" xmlns:a="http://ns.adobe.com/AdobeSVGViewerExtensions/3.0/"
	 x="0px" y="0px" width="28px" height="28px" viewBox="249.273 457.639 28 28" enable-background="new 249.273 457.639 28 28"
	 xml:space="preserve">
<defs>
</defs>
<rect display="none" fill="#E0E0E0" width="2229.455" height="1311.244"/>
<rect x="249.273" y="457.639" display="none" fill="#C9C9C9" width="28" height="28"/>
<path fill="#F0423B" d="M265.349,475.066l-0.424-0.189c-0.701-0.315-1.434-0.532-2.151-0.811l-0.485,0.279l0.051,0.081l5.996,3.625
	c3.294,1.257,5.405-0.081,6.778-1.801l-5.97-3.248l-3.384,1.843L265.349,475.066z M261.432,469.07
	c0.49-0.951,0.426-2.063-0.072-3.092c-0.514-1.004-1.307-1.821-2.273-2.345c-0.95-0.553-2.038-0.793-3.121-0.688
	c-1.106,0.134-2.025,0.691-2.516,1.642c-0.49,0.951-0.423,2.066,0.075,3.094c0.417,0.824,1.028,1.524,1.775,2.032l0.2,0.123
	c0.096,0.061,0.194,0.12,0.296,0.178l2.052,1.263l3.563-2.163L261.432,469.07z M256.781,468.114
	c-0.592-0.313-1.08-0.804-1.402-1.411c-0.198-0.324-0.234-0.728-0.096-1.084c0.206-0.314,0.544-0.506,0.909-0.516
	c0.662-0.053,1.325,0.101,1.903,0.443c0.592,0.313,1.081,0.804,1.402,1.411c0.196,0.325,0.231,0.728,0.096,1.084
	c-0.208,0.316-0.55,0.507-0.917,0.513C258.016,468.609,257.356,468.456,256.781,468.114L256.781,468.114z M259.294,480.216
	c0.967-0.524,1.759-1.343,2.273-2.348c0.488-1.015,0.562-2.13,0.075-3.091c-0.236-0.457-0.582-0.84-1.002-1.115
	c0.851-0.479,1.631-0.917,2.066-1.143c0.948,0.432,1.628,0.566,2.582,0.99l9.802-5.333c-1.37-1.712-3.48-3.067-6.774-1.781
	l-12.323,7.435c-0.102,0.056-0.2,0.114-0.296,0.178l-0.2,0.12c-0.747,0.51-1.357,1.209-1.775,2.032
	c-0.499,1.032-0.562,2.144-0.072,3.095s1.413,1.511,2.513,1.642C257.248,481.004,258.339,480.767,259.294,480.216L259.294,480.216z
	 M256.408,478.744c-0.366-0.008-0.707-0.199-0.917-0.513c-0.135-0.358-0.1-0.762,0.096-1.087c0.685-1.214,1.959-1.927,3.305-1.851
	c0.366,0.008,0.707,0.199,0.917,0.513c0.139,0.357,0.103,0.762-0.096,1.087C259.027,478.106,257.753,478.82,256.408,478.744
	L256.408,478.744z M256.408,478.744"/>
</svg>
