<?xml version="1.0" encoding="utf-8"?>
<!-- Generator: Adobe Illustrator 15.0.0, SVG Export Plug-In  -->
<!DOCTYPE svg PUBLIC "-//W3C//DTD SVG 1.1//EN" "http://www.w3.org/Graphics/SVG/1.1/DTD/svg11.dtd" [
	<!ENTITY ns_flows "http://ns.adobe.com/Flows/1.0/">
]>
<svg version="1.1"
	 xmlns="http://www.w3.org/2000/svg" xmlns:xlink="http://www.w3.org/1999/xlink" xmlns:a="http://ns.adobe.com/AdobeSVGViewerExtensions/3.0/"
	 x="0px" y="0px" width="28px" height="28px" viewBox="213.273 457.639 28 28" enable-background="new 213.273 457.639 28 28"
	 xml:space="preserve">
<defs>
</defs>
<rect display="none" fill="#E0E0E0" width="2229.455" height="1311.244"/>
<rect x="213.273" y="457.639" display="none" fill="#C9C9C9" width="28" height="28"/>
<path fill="#F0423B" d="M228.121,479.854h-8.813c-0.108,0-0.211-0.043-0.288-0.119c-0.077-0.077-0.12-0.18-0.12-0.288v-15.773
	c0-0.225,0.182-0.407,0.407-0.407h15.773c0.225,0,0.407,0.183,0.407,0.407v8.629c0,0.45,0.364,0.814,0.814,0.814
	s0.814-0.364,0.814-0.814v-8.629c0-0.54-0.214-1.058-0.596-1.439c-0.382-0.382-0.9-0.596-1.439-0.596h-15.773
	c-0.54,0-1.058,0.214-1.439,0.596c-0.382,0.381-0.596,0.899-0.596,1.439v15.773c0,0.54,0.214,1.058,0.596,1.439
	c0.381,0.381,0.899,0.596,1.439,0.596h8.813c0.45,0,0.814-0.365,0.814-0.814S228.57,479.854,228.121,479.854z M236.938,479.474
	l-0.444-1.916c-0.729-3.215-3.441-5.598-6.723-5.907v-2.519c0.003-0.283-0.162-0.541-0.419-0.657
	c-0.258-0.115-0.561-0.066-0.769,0.124l-5.144,4.594c-0.151,0.138-0.235,0.333-0.231,0.537c0.003,0.204,0.094,0.396,0.249,0.528
	l5.144,4.399c0.209,0.179,0.504,0.221,0.755,0.106s0.413-0.363,0.416-0.639v-2.27c1.664,0.179,3.194,0.992,4.275,2.27l1.649,1.969
	c0.137,0.161,0.339,0.251,0.55,0.248c0.216,0,0.421-0.098,0.556-0.267C236.936,479.906,236.986,479.685,236.938,479.474z"/>
</svg>
