<?xml version="1.0" encoding="utf-8"?>
<!-- Generator: Adobe Illustrator 15.0.0, SVG Export Plug-In  -->
<!DOCTYPE svg PUBLIC "-//W3C//DTD SVG 1.1//EN" "http://www.w3.org/Graphics/SVG/1.1/DTD/svg11.dtd" [
	<!ENTITY ns_flows "http://ns.adobe.com/Flows/1.0/">
]>
<svg version="1.1"
	 xmlns="http://www.w3.org/2000/svg" xmlns:xlink="http://www.w3.org/1999/xlink" xmlns:a="http://ns.adobe.com/AdobeSVGViewerExtensions/3.0/"
	 x="0px" y="0px" width="42px" height="42px" viewBox="414.273 177.639 42 42" enable-background="new 414.273 177.639 42 42"
	 xml:space="preserve">
<defs>
</defs>
<rect display="none" fill="#E0E0E0" width="2229.455" height="1311.244"/>
<rect x="414.273" y="177.639" display="none" fill="#C9C9C9" width="42" height="42"/>
<path fill="#FFFFFF" d="M451.684,197.539c-1.694-7.617-4.087-9.497-5.542-10.249c-2.331-1.208-5.036-0.505-5.931-0.05
	c-1.019,0.513-1.706,1.494-2.74,1.918c-1.196,0.49-2.825,0.621-4.048,0.031c-0.976-0.471-1.837-1.478-3.018-1.925
	c-1.497-0.567-3.994-1.358-6.459,0.374c-0.586,0.413-4.75,3.832-5.996,14.521c-0.772,6.591,2.913,8.709,2.778,8.613
	c0.949,0.667,3.072,1.79,5.95,0.027c1.922-1.177,3.484-3.507,3.484-3.507s0.695-1.297,1.621-1.845
	c0.652-0.39,1.632-0.092,1.632-0.092h3.461c0,0,1.1-0.135,1.868,0.197c0.749,0.32,1.173,1.111,1.173,1.111s2.281,2.891,4.465,4.361
	c0.93,0.625,4.669,1.346,6.602-0.965C452.24,208.548,453.1,203.898,451.684,197.539L451.684,197.539z M433.201,196.864
	c0,0.579-0.471,1.045-1.05,1.045h-2.62v2.624c0,0.579-0.471,1.05-1.049,1.05h-0.787c-0.579,0-1.05-0.467-1.05-1.05v-2.624h-2.62
	c-0.579,0-1.049-0.467-1.049-1.045v-0.787c0-0.579,0.471-1.05,1.049-1.05h2.62v-2.62c0-0.579,0.471-1.049,1.05-1.049h0.787
	c0.579,0,1.049,0.47,1.049,1.049v2.62h2.62c0.579,0,1.05,0.467,1.05,1.05V196.864z M440.586,200.533
	c-1.084,0-1.964-0.88-1.964-1.968c0-1.084,0.88-1.964,1.964-1.964c1.084,0,1.964,0.88,1.964,1.964
	C442.55,199.653,441.67,200.533,440.586,200.533L440.586,200.533z M444.19,196.165c-1.073,0-1.945-0.872-1.945-1.945
	s0.872-1.941,1.945-1.941c1.072,0,1.945,0.872,1.945,1.941C446.131,195.293,445.263,196.165,444.19,196.165L444.19,196.165z
	 M444.19,196.165"/>
</svg>
