<?xml version="1.0" encoding="utf-8"?>
<!-- Generator: Adobe Illustrator 15.0.0, SVG Export Plug-In  -->
<!DOCTYPE svg PUBLIC "-//W3C//DTD SVG 1.1//EN" "http://www.w3.org/Graphics/SVG/1.1/DTD/svg11.dtd" [
	<!ENTITY ns_flows "http://ns.adobe.com/Flows/1.0/">
]>
<svg version="1.1"
	 xmlns="http://www.w3.org/2000/svg" xmlns:xlink="http://www.w3.org/1999/xlink" xmlns:a="http://ns.adobe.com/AdobeSVGViewerExtensions/3.0/"
	 x="0px" y="0px" width="20px" height="20px" viewBox="339.273 387.639 20 20" enable-background="new 339.273 387.639 20 20"
	 xml:space="preserve">
<defs>
</defs>
<rect display="none" fill="#E0E0E0" width="2229.455" height="1311.244"/>
<rect x="339.273" y="387.639" display="none" fill="#C9C9C9" width="20" height="20"/>
<path fill="#999999" d="M349.281,405.639c0.275,0,0.517-0.148,0.647-0.371l2.146-2.379c0.125-0.138,0.2-0.313,0.2-0.499
	c0-0.414-0.338-0.751-0.752-0.751c-0.213,0-0.413,0.1-0.551,0.25l-0.939,1.036v-10.586l0.939,1.05c0.138,0.15,0.326,0.25,0.551,0.25
	c0.414,0,0.752-0.338,0.752-0.75c0-0.188-0.075-0.362-0.2-0.5l-2.19-2.428c-0.09-0.129-0.22-0.229-0.371-0.281
	c-0.007-0.003-0.014-0.004-0.02-0.006c-0.001-0.001-0.002-0.001-0.002-0.002c-0.066-0.021-0.137-0.033-0.21-0.033
	c-0.002,0-0.003,0-0.005,0c-0.002,0-0.005,0-0.007,0c-0.274,0-0.516,0.149-0.647,0.371l-2.146,2.379
	c-0.125,0.138-0.201,0.313-0.201,0.5c0,0.412,0.338,0.75,0.752,0.75c0.213,0,0.413-0.1,0.551-0.25l0.94-1.036v10.587l-0.94-1.051
	c-0.138-0.15-0.326-0.25-0.551-0.25c-0.414,0-0.752,0.337-0.752,0.751c0,0.187,0.076,0.361,0.201,0.499l2.19,2.429
	c0.09,0.129,0.22,0.228,0.371,0.28c0.007,0.003,0.014,0.004,0.02,0.006c0.001,0.001,0.001,0.001,0.002,0.001
	c0.067,0.022,0.136,0.034,0.209,0.034c0.002,0,0.004,0,0.006,0C349.277,405.639,349.279,405.639,349.281,405.639z"/>
</svg>
