<?xml version="1.0" encoding="utf-8"?>
<!-- Generator: Adobe Illustrator 15.0.0, SVG Export Plug-In  -->
<!DOCTYPE svg PUBLIC "-//W3C//DTD SVG 1.1//EN" "http://www.w3.org/Graphics/SVG/1.1/DTD/svg11.dtd" [
	<!ENTITY ns_flows "http://ns.adobe.com/Flows/1.0/">
]>
<svg version="1.1"
	 xmlns="http://www.w3.org/2000/svg" xmlns:xlink="http://www.w3.org/1999/xlink" xmlns:a="http://ns.adobe.com/AdobeSVGViewerExtensions/3.0/"
	 x="0px" y="0px" width="20px" height="20px" viewBox="306.273 387.639 20 20" enable-background="new 306.273 387.639 20 20"
	 xml:space="preserve">
<defs>
</defs>
<rect display="none" fill="#E0E0E0" width="2229.455" height="1311.244"/>
<rect x="306.273" y="387.639" display="none" fill="#C9C9C9" width="20" height="20"/>
<path fill="#999999" d="M324.114,397.632c0-0.274-0.148-0.517-0.371-0.647l-2.379-2.146c-0.138-0.125-0.313-0.2-0.5-0.2
	c-0.414,0-0.75,0.338-0.75,0.752c0,0.213,0.1,0.412,0.25,0.551l1.037,0.939h-10.586l1.05-0.939c0.151-0.139,0.25-0.326,0.25-0.551
	c0-0.414-0.338-0.752-0.75-0.752c-0.187,0-0.362,0.075-0.5,0.2l-2.428,2.189c-0.129,0.091-0.228,0.221-0.281,0.371
	c-0.003,0.007-0.004,0.014-0.006,0.021c-0.001,0.001-0.001,0.002-0.002,0.002c-0.022,0.066-0.034,0.137-0.034,0.21
	c0,0.002,0,0.004,0,0.006s0,0.005,0,0.007c0,0.274,0.149,0.516,0.372,0.647l2.379,2.146c0.137,0.125,0.313,0.201,0.5,0.201
	c0.413,0,0.75-0.339,0.75-0.752c0-0.213-0.1-0.413-0.25-0.551l-1.036-0.94h10.586l-1.051,0.94c-0.15,0.138-0.25,0.325-0.25,0.551
	c0,0.413,0.336,0.752,0.75,0.752c0.187,0,0.361-0.076,0.5-0.201l2.428-2.189c0.129-0.091,0.228-0.22,0.281-0.371
	c0.003-0.007,0.004-0.014,0.006-0.021c0.001-0.001,0.001-0.001,0.001-0.002c0.022-0.067,0.034-0.137,0.034-0.21
	c0-0.002,0-0.004,0-0.006C324.114,397.636,324.114,397.635,324.114,397.632z"/>
</svg>
