<?xml version="1.0" encoding="utf-8"?>
<!-- Generator: Adobe Illustrator 15.0.0, SVG Export Plug-In  -->
<!DOCTYPE svg PUBLIC "-//W3C//DTD SVG 1.1//EN" "http://www.w3.org/Graphics/SVG/1.1/DTD/svg11.dtd" [
	<!ENTITY ns_flows "http://ns.adobe.com/Flows/1.0/">
]>
<svg version="1.1"
	 xmlns="http://www.w3.org/2000/svg" xmlns:xlink="http://www.w3.org/1999/xlink" xmlns:a="http://ns.adobe.com/AdobeSVGViewerExtensions/3.0/"
	 x="0px" y="0px" width="20px" height="20px" viewBox="511.273 352.639 20 20" enable-background="new 511.273 352.639 20 20"
	 xml:space="preserve">
<defs>
</defs>
<rect display="none" fill="#E0E0E0" width="2229.455" height="1311.244"/>
<rect x="511.273" y="352.639" display="none" fill="#C9C9C9" width="20" height="20"/>
<path fill="#C33730" d="M529.27,362.59c-0.017-0.688-0.268-1.363-0.722-1.95c-0.338-0.436-1.28-1.552-2.759-2.521
	c-1.491-0.98-3.013-1.479-4.516-1.479c-1.279,0-2.572,0.383-3.85,1.094l1.594,1.232c0.764-0.327,1.519-0.511,2.256-0.511
	c1.14,0,2.322,0.396,3.513,1.18c1.284,0.842,2.1,1.831,2.316,2.111c0.215,0.28,0.334,0.583,0.344,0.884
	c-0.01,0.31-0.129,0.621-0.344,0.898c-0.122,0.158-0.436,0.538-0.906,0.986l1.456,1.126c0.433-0.432,0.736-0.799,0.897-1.007
	c0.456-0.588,0.705-1.27,0.723-1.968v-0.038L529.27,362.59z M514.779,357.085c-0.328-0.253-0.799-0.193-1.052,0.135
	s-0.193,0.799,0.135,1.052l1.362,1.049c-0.607,0.562-1.034,1.063-1.233,1.318l-0.002,0.004l-0.002,0.004
	c-0.45,0.589-0.697,1.268-0.714,1.965v0.071c0.017,0.683,0.264,1.356,0.714,1.945l0.002,0.004l0.002,0.004
	c0.336,0.434,1.278,1.55,2.758,2.521c1.496,0.981,3.018,1.48,4.521,1.48c1.424,0,2.858-0.461,4.276-1.338l1.383,1.055
	c0.137,0.105,0.298,0.157,0.458,0.157c0.225,0,0.446-0.101,0.594-0.292c0.253-0.328,0.193-0.799-0.135-1.052L514.779,357.085z
	 M521.27,366.818c-1.14,0-2.323-0.396-3.514-1.18c-1.284-0.841-2.098-1.828-2.316-2.111c-0.214-0.281-0.332-0.585-0.342-0.883
	c0.01-0.311,0.128-0.619,0.342-0.9c0.15-0.194,0.583-0.715,1.246-1.293l1.676,1.296c-0.09,0.281-0.15,0.577-0.15,0.89
	c0,1.086,0.583,2.09,1.531,2.633c0.946,0.543,2.113,0.543,3.06,0c0.021-0.013,0.037-0.031,0.059-0.045l1.13,0.874
	C523.07,366.571,522.158,366.818,521.27,366.818z"/>
</svg>
