<?xml version="1.0" encoding="utf-8"?>
<!-- Generator: Adobe Illustrator 15.0.0, SVG Export Plug-In  -->
<!DOCTYPE svg PUBLIC "-//W3C//DTD SVG 1.1//EN" "http://www.w3.org/Graphics/SVG/1.1/DTD/svg11.dtd" [
	<!ENTITY ns_flows "http://ns.adobe.com/Flows/1.0/">
]>
<svg version="1.1"
	 xmlns="http://www.w3.org/2000/svg" xmlns:xlink="http://www.w3.org/1999/xlink" xmlns:a="http://ns.adobe.com/AdobeSVGViewerExtensions/3.0/"
	 x="0px" y="0px" width="20px" height="20px" viewBox="479.273 352.639 20 20" enable-background="new 479.273 352.639 20 20"
	 xml:space="preserve">
<defs>
</defs>
<rect display="none" fill="#E0E0E0" width="2229.455" height="1311.244"/>
<rect x="479.273" y="352.639" display="none" fill="#C9C9C9" width="20" height="20"/>
<path fill="#C33730" d="M497.271,362.59c-0.017-0.688-0.268-1.363-0.722-1.95c-0.338-0.436-1.28-1.552-2.759-2.521
	c-1.491-0.98-3.013-1.479-4.516-1.479c-1.504,0-3.028,0.499-4.523,1.479c-1.48,0.97-2.422,2.087-2.76,2.521l-0.002,0.004
	l-0.002,0.004c-0.45,0.589-0.697,1.268-0.714,1.965v0.071c0.017,0.683,0.264,1.356,0.714,1.945l0.002,0.004l0.002,0.004
	c0.336,0.434,1.278,1.55,2.758,2.521c1.496,0.981,3.017,1.48,4.521,1.48c1.506,0,3.026-0.499,4.524-1.48
	c1.479-0.976,2.42-2.091,2.756-2.525c0.456-0.588,0.705-1.27,0.723-1.968v-0.038L497.271,362.59z M495.104,363.527
	c-0.219,0.283-1.032,1.271-2.316,2.111c-1.191,0.782-2.375,1.18-3.517,1.18c-1.14,0-2.323-0.396-3.514-1.18
	c-1.284-0.841-2.098-1.828-2.316-2.111c-0.214-0.281-0.333-0.585-0.342-0.883c0.01-0.311,0.128-0.619,0.342-0.9
	c0.22-0.285,1.035-1.271,2.318-2.112c1.191-0.781,2.375-1.178,3.516-1.178c1.14,0,2.322,0.396,3.513,1.18
	c1.284,0.842,2.099,1.831,2.316,2.111c0.214,0.28,0.334,0.583,0.343,0.884C495.438,362.938,495.318,363.25,495.104,363.527z
	 M489.273,359.596c-1.69,0-3.061,1.361-3.061,3.041c0,1.086,0.583,2.09,1.531,2.633c0.947,0.543,2.113,0.543,3.06,0
	s1.53-1.547,1.53-2.633C492.333,360.957,490.963,359.596,489.273,359.596z"/>
</svg>
