<?xml version="1.0" encoding="utf-8"?>
<!-- Generator: Adobe Illustrator 15.0.0, SVG Export Plug-In  -->
<!DOCTYPE svg PUBLIC "-//W3C//DTD SVG 1.1//EN" "http://www.w3.org/Graphics/SVG/1.1/DTD/svg11.dtd" [
	<!ENTITY ns_flows "http://ns.adobe.com/Flows/1.0/">
]>
<svg version="1.1"
	 xmlns="http://www.w3.org/2000/svg" xmlns:xlink="http://www.w3.org/1999/xlink" xmlns:a="http://ns.adobe.com/AdobeSVGViewerExtensions/3.0/"
	 x="0px" y="0px" width="20px" height="20px" viewBox="140.273 352.639 20 20" enable-background="new 140.273 352.639 20 20"
	 xml:space="preserve">
<defs>
</defs>
<rect display="none" fill="#E0E0E0" width="2229.455" height="1311.244"/>
<rect x="140.273" y="352.639" display="none" fill="#C9C9C9" width="20" height="20"/>
<path fill="#C33730" d="M146.249,366.884c0.201,0.344,0.078,0.782-0.275,0.978c-0.353,0.196-0.801,0.076-1.002-0.269l-2.776-4.764
	c-0.129-0.221-0.128-0.491,0-0.711l2.777-4.719c0.208-0.33,0.647-0.439,0.992-0.246s0.47,0.619,0.282,0.96l-2.566,4.364
	L146.249,366.884L146.249,366.884z M153.95,366.884l2.568-4.405l-2.566-4.363c-0.187-0.342-0.063-0.769,0.282-0.961
	c0.345-0.193,0.784-0.084,0.992,0.246l2.777,4.719c0.129,0.22,0.129,0.49,0.001,0.711l-2.776,4.763
	c-0.2,0.345-0.649,0.465-1.002,0.269C153.872,367.666,153.75,367.228,153.95,366.884L153.95,366.884z M150.999,357.574
	c0.125-0.377,0.538-0.584,0.925-0.463c0.386,0.121,0.598,0.525,0.473,0.903l-3.139,9.521c-0.073,0.253-0.281,0.446-0.543,0.505
	c-0.262,0.06-0.536-0.027-0.713-0.225c-0.179-0.195-0.232-0.473-0.141-0.718L150.999,357.574L150.999,357.574z M150.999,357.574"/>
</svg>
