<?xml version="1.0" encoding="utf-8"?>
<!-- Generator: Adobe Illustrator 15.0.0, SVG Export Plug-In  -->
<!DOCTYPE svg PUBLIC "-//W3C//DTD SVG 1.1//EN" "http://www.w3.org/Graphics/SVG/1.1/DTD/svg11.dtd" [
	<!ENTITY ns_flows "http://ns.adobe.com/Flows/1.0/">
]>
<svg version="1.1"
	 xmlns="http://www.w3.org/2000/svg" xmlns:xlink="http://www.w3.org/1999/xlink" xmlns:a="http://ns.adobe.com/AdobeSVGViewerExtensions/3.0/"
	 x="0px" y="0px" width="20px" height="20px" viewBox="146.273 143.639 20 20" enable-background="new 146.273 143.639 20 20"
	 xml:space="preserve">
<defs>
</defs>
<rect display="none" fill="#E0E0E0" width="2229.455" height="1311.244"/>
<rect x="146.273" y="143.639" display="none" fill="#C9C9C9" width="20" height="20"/>
<path fill="#FFFFFF" d="M157.856,150.263h1.569v1.569c0,0.56,0.459,1.018,1.019,1.018h0.002c0.56,0,1.019-0.458,1.019-1.018v-1.569
	h1.57c0.561,0,1.019-0.458,1.019-1.018v-0.002c0-0.56-0.458-1.018-1.019-1.018h-1.57v-1.568c0-0.56-0.459-1.018-1.019-1.018h-0.002
	c-0.56,0-1.019,0.458-1.019,1.018v1.568h-1.569c-0.561,0-1.019,0.458-1.019,1.018v0.002
	C156.837,149.805,157.296,150.263,157.856,150.263z M153.899,154.079h-3.686c-1.074,0-1.94,0.866-1.94,1.938v3.684
	c0,1.07,0.868,1.938,1.94,1.938h3.686c1.071,0,1.94-0.87,1.94-1.938v-3.684C155.84,154.948,154.97,154.079,153.899,154.079z
	 M163.705,154.646c-0.364-0.363-0.858-0.567-1.372-0.567h-3.687c-1.072,0-1.94,0.868-1.94,1.938v3.684
	c0,1.068,0.87,1.938,1.94,1.938h3.687c1.073,0,1.939-0.87,1.939-1.938v-3.684C164.273,155.503,164.069,155.01,163.705,154.646z
	 M153.903,145.653h-3.687c-1.069,0-1.939,0.87-1.939,1.938v3.684c0,1.07,0.869,1.938,1.939,1.938h3.687
	c1.071,0,1.94-0.868,1.94-1.938v-3.684c0-0.514-0.205-1.007-0.568-1.371C154.911,145.858,154.417,145.653,153.903,145.653z"/>
</svg>
