<?xml version="1.0" encoding="utf-8"?>
<!-- Generator: Adobe Illustrator 15.0.0, SVG Export Plug-In  -->
<!DOCTYPE svg PUBLIC "-//W3C//DTD SVG 1.1//EN" "http://www.w3.org/Graphics/SVG/1.1/DTD/svg11.dtd" [
	<!ENTITY ns_flows "http://ns.adobe.com/Flows/1.0/">
]>
<svg version="1.1"
	 xmlns="http://www.w3.org/2000/svg" xmlns:xlink="http://www.w3.org/1999/xlink" xmlns:a="http://ns.adobe.com/AdobeSVGViewerExtensions/3.0/"
	 x="0px" y="0px" width="20px" height="20px" viewBox="278.273 352.639 20 20" enable-background="new 278.273 352.639 20 20"
	 xml:space="preserve">
<defs>
</defs>
<rect display="none" fill="#E0E0E0" width="2229.455" height="1311.244"/>
<rect x="278.273" y="352.639" display="none" fill="#C9C9C9" width="20" height="20"/>
<path fill="#C33730" d="M288.125,356.596c-0.163-0.014-0.42,0.004-0.575,0.148c0,0-3.811,3.302-3.972,3.448h-1.281
	c-0.718,0-1.333,0.538-1.333,1.2v2.4c0,0.66,0.616,1.198,1.333,1.198h1.281c0.162,0.148,3.974,3.449,3.974,3.449
	c0.169,0.155,0.413,0.16,0.575,0.146c0.329-0.028,0.627-0.317,0.627-0.552c0.003-0.026,0.005-10.86,0-10.886
	C288.754,356.922,288.454,356.624,288.125,356.596L288.125,356.596z M291.371,359.452c-0.302-0.274-0.773-0.274-1.074,0
	c-0.142,0.129-0.222,0.308-0.222,0.495s0.081,0.367,0.222,0.496c0.613,0.559,0.961,1.336,0.961,2.148s-0.348,1.589-0.961,2.148
	c-0.142,0.129-0.223,0.309-0.223,0.495c0,0.188,0.081,0.367,0.223,0.496c0.144,0.133,0.336,0.207,0.537,0.206
	c0.194,0,0.388-0.068,0.537-0.204c0.896-0.818,1.405-1.954,1.405-3.141C292.776,361.405,292.268,360.269,291.371,359.452
	L291.371,359.452z M293.964,358.129c-0.301-0.274-0.772-0.274-1.073,0c-0.141,0.129-0.221,0.308-0.221,0.495s0.08,0.366,0.221,0.495
	c0.992,0.903,1.553,2.158,1.553,3.471c0,1.313-0.561,2.568-1.553,3.472c-0.141,0.129-0.221,0.309-0.221,0.496
	c0,0.187,0.08,0.366,0.221,0.495c0.145,0.132,0.337,0.206,0.536,0.206c0.194,0,0.388-0.069,0.537-0.205c1.276-1.161,2-2.775,2-4.464
	C295.963,360.902,295.24,359.289,293.964,358.129L293.964,358.129z M293.964,358.129"/>
</svg>
