<?xml version="1.0" encoding="utf-8"?>
<!-- Generator: Adobe Illustrator 15.0.0, SVG Export Plug-In  -->
<!DOCTYPE svg PUBLIC "-//W3C//DTD SVG 1.1//EN" "http://www.w3.org/Graphics/SVG/1.1/DTD/svg11.dtd" [
	<!ENTITY ns_flows "http://ns.adobe.com/Flows/1.0/">
]>
<svg version="1.1"
	 xmlns="http://www.w3.org/2000/svg" xmlns:xlink="http://www.w3.org/1999/xlink" xmlns:a="http://ns.adobe.com/AdobeSVGViewerExtensions/3.0/"
	 x="0px" y="0px" width="20px" height="20px" viewBox="207.273 352.639 20 20" enable-background="new 207.273 352.639 20 20"
	 xml:space="preserve">
<defs>
</defs>
<rect display="none" fill="#E0E0E0" width="2229.455" height="1311.244"/>
<rect x="207.273" y="352.639" display="none" fill="#C9C9C9" width="20" height="20"/>
<path fill="#C33730" d="M216.725,364.545c0.354,0.315,0.815,0.491,1.295,0.496c0.092,0.008,0.184-0.025,0.249-0.088l5.403-4.987
	c0.4-0.38,0.618-0.906,0.599-1.449c-0.019-0.543-0.273-1.053-0.7-1.408c-0.413-0.344-0.953-0.51-1.496-0.462
	s-1.042,0.308-1.384,0.718l-4.448,5.875c-0.056,0.074-0.077,0.167-0.058,0.256C216.25,363.891,216.438,364.258,216.725,364.545
	L216.725,364.545z M210.468,367.354c0.372,0.099,0.768-0.035,0.996-0.334c0.366-0.513,0.474-1.602,1.262-2.274
	c0.586-0.524,1.38-0.778,2.174-0.697c0.094,0.012,0.171,0.079,0.191,0.169c0.076,0.525,0.347,1.006,0.764,1.353
	c0.482,0.295,1.017,0.504,1.576,0.616c0.102,0.017,0.176,0.1,0.174,0.2c0.05,0.704,0,3.36-3.635,3.249
	C209.803,369.572,210.103,367.226,210.468,367.354L210.468,367.354z M210.468,367.354"/>
</svg>
