<?xml version="1.0" encoding="utf-8"?>
<!-- Generator: Adobe Illustrator 15.0.0, SVG Export Plug-In  -->
<!DOCTYPE svg PUBLIC "-//W3C//DTD SVG 1.1//EN" "http://www.w3.org/Graphics/SVG/1.1/DTD/svg11.dtd" [
	<!ENTITY ns_flows "http://ns.adobe.com/Flows/1.0/">
]>
<svg version="1.1"
	 xmlns="http://www.w3.org/2000/svg" xmlns:xlink="http://www.w3.org/1999/xlink" xmlns:a="http://ns.adobe.com/AdobeSVGViewerExtensions/3.0/"
	 x="0px" y="0px" width="28px" height="28px" viewBox="0 0 28 28" enable-background="new 0 0 28 28" xml:space="preserve">
<defs>
</defs>
<rect display="none" fill="#C9C9C9" width="28" height="28"/>
<path fill="#FFFFFF" d="M6.997,25.987H8.08L8.094,26h11.761l0.014-0.013h1.589c1.148,0,2.133-0.691,2.565-1.68H4.434
	C4.864,25.295,5.849,25.987,6.997,25.987z M18.798,12.347c-0.854,0-1.546,0.693-1.546,1.547c0,0.854,0.692,1.546,1.546,1.546
	c0.854,0,1.547-0.691,1.547-1.546C20.345,13.04,19.652,12.347,18.798,12.347z M25.138,13.807l-0.883-0.083V12.53
	c0-2.511-2.035-4.547-4.547-4.547h-4.909V5.011c-0.042,0.018-0.087,0.026-0.131,0.04c0.632-0.191,1.095-0.77,1.095-1.463
	c0-0.739-0.522-1.354-1.217-1.5c0.001,0,0.001-0.001,0.002-0.001h-0.005c-0.103-0.022-0.208-0.034-0.316-0.034
	c-0.847,0-1.533,0.687-1.533,1.535c0,0.688,0.455,1.264,1.08,1.458c-0.039-0.012-0.08-0.02-0.118-0.035v2.971H8.746
	c-2.503,0-4.532,2.023-4.546,4.521v1.373l-0.882,0.094c-0.506,0.148-0.863,0.686-0.863,1.305v3.605c0,0.621,0.357,1.159,0.863,1.306
	l0.88,0.256v1.627L4.2,22.071v1.118c0,0.155,0.016,0.306,0.039,0.453h4.732v-1.33h0.126V21.91h0.411v0.252h0.138v0.413
	c-0.01,0.004-0.02,0.008-0.028,0.014C9.61,22.593,9.604,22.597,9.597,22.6c-0.001,0.001-0.004,0.003-0.006,0.004l-0.048,0.031
	l-0.004,0.003l-0.024,0.02c-0.006,0.004-0.014,0.012-0.021,0.017c-0.005,0.006-0.012,0.01-0.017,0.015
	c-0.01,0.011-0.02,0.022-0.03,0.031c-0.004,0.005-0.008,0.01-0.012,0.014c-0.004,0.005-0.009,0.01-0.012,0.014L9.422,22.75
	l-0.018,0.022c-0.021,0.027-0.038,0.056-0.054,0.086c-0.004,0.005-0.006,0.011-0.009,0.019c-0.005,0.007-0.007,0.013-0.01,0.018
	l-0.005,0.012l-0.001,0.005l-0.003,0.006c-0.015,0.037-0.025,0.074-0.033,0.113c-0.001,0.007-0.003,0.015-0.005,0.022
	c-0.001,0.008-0.001,0.017-0.002,0.024l-0.002,0.005v0.006L9.28,23.096V23.1c0,0.007,0,0.014-0.001,0.023v0.031
	c0,0.018,0,0.035,0.001,0.053c0.001,0.009,0.003,0.018,0.004,0.027c0,0.005,0,0.01,0.001,0.016s0.001,0.011,0.003,0.015v0.002
	l0.002,0.007v0.005l0.003,0.01c0.003,0.018,0.009,0.035,0.014,0.054c0.004,0.012,0.007,0.024,0.012,0.036
	c0.003,0.006,0.005,0.012,0.008,0.017c0,0.004,0.004,0.009,0.004,0.012H9.27v0.235h0.017v-0.217h0.748v0.032H9.95v0.055h0.084v0.034
	H9.95V23.6h0.084v0.042h0.015v-0.623l-0.073-0.076v-0.086h0.245l0.28,0.001l0.487,0.001h0.018l0.39,0.001h0.016l0.376,0.001h0.038
	l0.087,0.001v0.78h0.018v-0.059h0.09v-0.059h-0.09v-0.034h0.09v-0.059h-0.09v-0.033h0.76v0.243h0.03v-0.807l0.003-0.003l0.179-0.234
	l0.001-0.002l0.003-0.002l0.181-0.239v1.288h0.02v-1.288l0.014,0.018l0.172,0.226l0.181,0.235l0.002,0.002v0.161
	C13.463,22.997,13.451,23,13.44,23v-0.167l-0.007-0.01l-0.009-0.011v0.191c-0.014,0.003-0.027,0.006-0.041,0.009v-0.255
	l-0.016-0.021v0.277c-0.014,0.002-0.028,0.006-0.041,0.009h-0.001v-0.341l-0.017-0.021v0.365c-0.001,0-0.004,0.002-0.006,0.002
	c-0.006,0.001-0.01,0.002-0.014,0.003c-0.006,0.001-0.014,0.004-0.021,0.005v-0.429l-0.008-0.01l-0.008-0.01v0.453l-0.01,0.002
	l-0.013,0.004v0.595h0.017v-0.583c0.007-0.002,0.014-0.002,0.021-0.005c0.068-0.015,0.136-0.029,0.203-0.041
	c0.047-0.008,0.093-0.016,0.139-0.021c0.058-0.008,0.113-0.013,0.171-0.018c0.088-0.006,0.174-0.009,0.26-0.01
	c0.044,0,0.085,0,0.126,0.001c0.061,0.002,0.12,0.005,0.18,0.009c0.034,0.002,0.068,0.005,0.102,0.007
	c0.092,0.008,0.183,0.018,0.274,0.031h0.003c0.089,0.011,0.176,0.024,0.262,0.038c0.019,0.003,0.037,0.007,0.058,0.009v0.583h0.018
	v-0.037h0.105v0.037h0.018v-0.514h0.11v-0.199h0.999v0.199h0.111v0.514h0.018V23.11h-0.11v-0.016h0.032v-0.023h-0.032V23.01h0.032
	v-0.023h-0.032v-0.061h0.032v-0.023h-0.047v0.008h-0.021v-0.008H16.25v0.008H16.2v-0.008h-0.074v0.008h-0.112v-0.993h0.718v1.568
	h0.035v0.064h-0.068v0.092h0.019v-0.074h0.959v0.074h0.018V23.55h-0.067v-0.064h0.021v0.027h0.037v-0.036H17.66v-0.061h0.024v-0.035
	H17.66V23.32h0.024v-0.035H17.66v-0.061h0.024v-0.035H17.66v-0.294h0.058v-0.25h0.691v0.25h0.092V23.1h0.098v0.542h0.016v-0.028
	h0.023v-0.031h-0.023v-0.031h0.023V23.52h-0.023v-0.035h0.023v-0.031h-0.023v-0.03h0.023v-0.032h-0.023v-0.036h0.023v-0.031h-0.023
	v-0.031h0.023v-0.03h-0.023v-0.036h0.023v-0.031h-0.023v-0.035h0.023v-0.03h-0.023v-0.047h-0.096v-0.005h1.074v0.564h4.622
	c0.024-0.147,0.04-0.297,0.04-0.453v-2.745l0.883-0.263C25.644,20.031,26,19.478,26,18.843v-3.698
	C26,14.51,25.644,13.958,25.138,13.807z M14.247,20.571h0.022v-0.063h0.021l0.007-0.213l0.007,0.213h0.021v0.063h0.023v0.12h-0.102
	V20.571z M14.181,20.753l0.023-0.048h0.187l0.059,0.123l0.023,0.049h-0.352L14.181,20.753z M13.506,21.334l0.003-0.068l0.001-0.085
	l0.005-0.161l0.002-0.029v0.033l0.002,0.166l0.001,0.077l0.002,0.068c0.002,0,0.006,0,0.008,0.001
	c0.032,0.002,0.063,0.009,0.089,0.021c0.036,0.018,0.064,0.043,0.08,0.074h-0.37C13.355,21.376,13.425,21.337,13.506,21.334z
	 M13.261,21.448h0.505v0.028l-0.076,0.032h-0.354l-0.075-0.032V21.448z M13.689,21.526v0.126h-0.354v-0.126H13.689z M13.063,21.352
	c0.06,0.018,0.098,0.045,0.098,0.079c0,0.022-0.018,0.043-0.049,0.06v0.028h0.017v0.029H12.74v-0.029h0.019v-0.028
	c-0.031-0.017-0.051-0.037-0.051-0.06c0-0.032,0.038-0.061,0.095-0.077c0.002,0,0.003-0.001,0.005-0.002
	c0.018-0.005,0.036-0.008,0.056-0.011v-0.167h0.016v0.164c0.018-0.002,0.038-0.003,0.056-0.003
	C12.981,21.335,13.026,21.342,13.063,21.352z M9.59,21.886H9.046v-0.208H9.59V21.886z M9.368,21.386v0.198l0.116,0.078H9.168
	l0.082-0.05l0.007-0.006l0.028-0.018v-0.201h0.025v-0.128h0.033v0.128H9.368z M9.655,22.589c0.014-0.006,0.026-0.012,0.039-0.018
	c0.016-0.005,0.029-0.01,0.044-0.015c-0.011,0.014-0.021,0.03-0.034,0.048l-0.015,0.022c-0.001,0.004-0.005,0.009-0.008,0.014
	c-0.038-0.005-0.07-0.01-0.097-0.014C9.608,22.614,9.63,22.601,9.655,22.589z M10.115,22.562c0.043,0.016,0.083,0.034,0.12,0.056
	c0.006,0.004,0.012,0.007,0.018,0.011c-0.026,0.006-0.053,0.01-0.081,0.015v-0.001C10.151,22.61,10.131,22.583,10.115,22.562z
	 M10.148,22.645c-0.013,0.002-0.026,0.004-0.039,0.004c-0.014,0.002-0.026,0.003-0.041,0.004c-0.016-0.054-0.032-0.092-0.042-0.113
	c0.017,0.003,0.034,0.007,0.05,0.011c0.009,0.01,0.021,0.023,0.033,0.041C10.121,22.606,10.135,22.625,10.148,22.645z M9.569,22.917
	c-0.032-0.002-0.063-0.004-0.091-0.005c-0.016,0-0.031-0.002-0.045-0.002c0.014-0.045,0.03-0.085,0.05-0.123
	c0.027,0.004,0.062,0.008,0.101,0.011c0.007,0.001,0.013,0.001,0.02,0.001C9.59,22.836,9.578,22.875,9.569,22.917z M9.588,22.94
	c0.046,0.002,0.098,0.005,0.15,0.007c-0.003,0.042-0.005,0.085-0.004,0.131v0.013c-0.057-0.002-0.109-0.003-0.159-0.004
	c0-0.002,0.001-0.006,0-0.009C9.575,23.032,9.579,22.985,9.588,22.94z M9.459,22.933c0.032,0.002,0.067,0.004,0.105,0.006
	c-0.008,0.044-0.013,0.091-0.013,0.14v0.008c-0.055-0.001-0.104-0.002-0.146-0.005v-0.003c0-0.034,0.005-0.067,0.012-0.1
	c0.002-0.017,0.006-0.033,0.01-0.048C9.438,22.931,9.447,22.932,9.459,22.933z M9.554,23.11c0,0.014,0.002,0.028,0.003,0.043
	c0.003,0.037,0.011,0.076,0.022,0.115c-0.028,0-0.056-0.001-0.082-0.001c-0.021,0-0.045-0.001-0.065-0.001
	c-0.01-0.031-0.018-0.062-0.021-0.092c-0.002-0.022-0.005-0.046-0.005-0.068C9.447,23.106,9.497,23.109,9.554,23.11z M9.576,23.11
	c0.049,0.002,0.103,0.002,0.158,0.004c0.001,0.03,0.003,0.063,0.006,0.096c0.002,0.02,0.003,0.041,0.006,0.062
	c-0.049-0.001-0.099-0.001-0.143-0.002C9.592,23.23,9.585,23.196,9.58,23.16C9.579,23.143,9.576,23.126,9.576,23.11z M9.74,22.925
	c-0.052-0.001-0.103-0.003-0.147-0.006c0.008-0.042,0.021-0.08,0.034-0.117c0.039,0.005,0.083,0.008,0.129,0.01
	C9.75,22.846,9.744,22.885,9.74,22.925z M9.636,22.78c0.011-0.027,0.024-0.054,0.036-0.078c0.008-0.013,0.016-0.025,0.021-0.037
	c0.004,0.001,0.008,0.001,0.012,0.002c0.005,0,0.011,0.001,0.017,0.001c0.001,0.001,0.005,0.001,0.008,0.001
	c0.018,0.002,0.037,0.003,0.056,0.006c-0.004,0.013-0.007,0.027-0.01,0.043C9.77,22.74,9.764,22.763,9.76,22.79
	c-0.001,0-0.002,0-0.002,0C9.715,22.787,9.674,22.783,9.636,22.78z M9.756,23.079c0-0.046,0.002-0.088,0.005-0.13
	c0.016,0.001,0.031,0.001,0.046,0.001c0.045,0.002,0.091,0.004,0.136,0.004c0.004,0.042,0.006,0.085,0.009,0.125
	c0,0.006,0,0.011,0.001,0.015c-0.034,0-0.064,0-0.098-0.001c-0.033,0-0.065-0.001-0.099-0.001V23.079z M9.943,22.68
	c0.037,0.001,0.072-0.001,0.109-0.003c0.011,0.034,0.021,0.073,0.029,0.118c-0.043,0.001-0.086,0.001-0.128,0
	C9.951,22.755,9.946,22.715,9.943,22.68z M10.045,22.655c-0.035,0.003-0.068,0.003-0.103,0.003
	c-0.005-0.053-0.008-0.096-0.012-0.126c0.024,0,0.046,0.001,0.07,0.005C10.008,22.55,10.025,22.591,10.045,22.655z M9.935,22.818
	c0,0.024,0.002,0.051,0.004,0.077c0.002,0.012,0.002,0.023,0.002,0.036c-0.047,0-0.094-0.002-0.14-0.003
	c-0.013-0.001-0.025-0.001-0.037-0.002c0.003-0.031,0.006-0.06,0.01-0.087c0.002-0.01,0.003-0.018,0.004-0.027
	c0.028,0.001,0.059,0.003,0.09,0.003C9.889,22.816,9.91,22.818,9.935,22.818z M9.844,22.793c-0.021-0.001-0.041-0.002-0.063-0.003
	c0.003-0.019,0.008-0.037,0.012-0.054c0.004-0.021,0.011-0.043,0.016-0.062c0.035,0.003,0.073,0.004,0.113,0.005
	c0.002,0.035,0.006,0.074,0.009,0.115C9.901,22.795,9.873,22.795,9.844,22.793z M9.814,22.653c0.016-0.055,0.033-0.096,0.043-0.12
	c0.016-0.001,0.033-0.001,0.051-0.001c0.003,0.03,0.007,0.073,0.011,0.126C9.884,22.658,9.848,22.655,9.814,22.653z M9.792,22.652
	c-0.023-0.002-0.046-0.003-0.067-0.007H9.714c-0.003-0.001-0.004-0.001-0.008-0.001c0.003-0.003,0.004-0.006,0.005-0.009
	c0.024-0.037,0.047-0.067,0.064-0.087c0.017-0.005,0.034-0.008,0.052-0.011h0.005C9.821,22.562,9.806,22.601,9.792,22.652z
	 M9.563,22.655l0.006-0.007c0.013,0.002,0.027,0.004,0.045,0.007c0.016,0.003,0.035,0.005,0.056,0.007
	c-0.018,0.029-0.033,0.062-0.049,0.097c-0.003,0.007-0.006,0.012-0.009,0.02H9.604c-0.043-0.004-0.079-0.008-0.11-0.011
	C9.518,22.723,9.543,22.684,9.563,22.655z M9.526,22.67c-0.02,0.027-0.038,0.059-0.057,0.094c-0.013-0.002-0.023-0.003-0.034-0.004
	C9.463,22.727,9.493,22.698,9.526,22.67z M9.42,22.78c0.011,0.002,0.023,0.003,0.04,0.005c-0.02,0.038-0.036,0.079-0.05,0.123
	c-0.024-0.002-0.045-0.003-0.063-0.005C9.367,22.859,9.393,22.818,9.42,22.78z M9.301,23.076c0.001-0.005,0.001-0.01,0.001-0.015
	c0.006-0.03,0.012-0.061,0.021-0.09c0.004-0.015,0.01-0.031,0.015-0.046c0.019,0.001,0.041,0.003,0.067,0.004
	c-0.007,0.027-0.013,0.053-0.017,0.081c-0.004,0.023-0.005,0.048-0.007,0.07v0.003c-0.022-0.001-0.041-0.002-0.057-0.002
	c0,0,0,0-0.002,0H9.32c-0.002,0-0.005,0-0.007-0.001H9.3C9.301,23.079,9.301,23.078,9.301,23.076z M9.305,23.262
	c-0.006-0.035-0.01-0.072-0.01-0.108c0-0.014,0.001-0.029,0.002-0.044c0.001-0.002,0.001-0.005,0.001-0.008
	c0.002,0,0.004,0,0.007,0.001h0.019c0.007,0,0.013,0,0.021,0.001c0.012,0,0.023,0,0.037,0c0,0.014,0.002,0.027,0.003,0.041
	c0.003,0.04,0.012,0.079,0.023,0.119l-0.085-0.002H9.305z M9.348,23.406c-0.01-0.022-0.018-0.046-0.024-0.069
	c-0.005-0.017-0.01-0.034-0.014-0.053l0.014,0.001l0.092,0.002c0.016,0.039,0.033,0.08,0.058,0.119H9.348z M9.499,23.406
	c-0.025-0.04-0.046-0.079-0.06-0.119l0.079,0.002l0.066,0.001c0.012,0.037,0.027,0.076,0.046,0.115H9.499z M9.656,23.406
	c-0.02-0.04-0.035-0.078-0.047-0.115c0.045,0.002,0.091,0.003,0.141,0.004c0.004,0.036,0.011,0.072,0.019,0.111H9.656z
	 M9.764,23.216c-0.003-0.035-0.006-0.07-0.007-0.103c0.035,0.001,0.071,0.002,0.107,0.002c0.029,0,0.059,0,0.088,0
	c0.003,0.044,0.005,0.087,0.006,0.127c0,0.012,0,0.022,0.001,0.032H9.93c-0.054-0.002-0.107-0.003-0.16-0.004
	C9.768,23.253,9.764,23.235,9.764,23.216z M9.96,23.406H9.791c-0.007-0.04-0.015-0.075-0.019-0.111
	c0.045,0.001,0.09,0.002,0.136,0.003h0.028c0.008,0,0.016,0.001,0.021,0.001c0,0,0.001,0,0.002,0V23.406z M10.03,23.406H9.98
	c0.001-0.025,0.001-0.052,0-0.082v-0.024c0.01,0,0.02,0,0.029,0h0.021V23.406z M10.03,23.278l-0.05-0.001
	c0-0.018-0.001-0.036-0.003-0.055c-0.001-0.035-0.001-0.069-0.003-0.106c0.019,0,0.036,0.001,0.056,0.001V23.278z M10.03,23.026
	v0.069c-0.02,0-0.038,0-0.057-0.001c0-0.004-0.001-0.009-0.001-0.015c-0.003-0.04-0.005-0.083-0.008-0.123L10.03,23.026z
	 M9.957,22.84v0.019c0-0.014-0.001-0.027-0.002-0.04c0.043,0,0.087,0,0.131-0.002c0.001,0.008,0.002,0.016,0.004,0.024H9.957z
	 M10.075,22.675c0.011,0,0.022,0,0.034-0.002c0.004-0.001,0.008-0.001,0.011-0.001c0.015-0.001,0.027-0.003,0.041-0.005
	c0.01,0.016,0.02,0.033,0.029,0.051c0.012,0.021,0.023,0.044,0.033,0.069c-0.036,0.003-0.075,0.006-0.114,0.008h-0.005
	C10.096,22.75,10.085,22.71,10.075,22.675z M10.113,22.84c-0.002-0.006-0.003-0.011-0.004-0.017c0-0.002-0.001-0.005-0.001-0.008
	h0.001c0.042-0.001,0.084-0.003,0.125-0.007c0.004,0.011,0.008,0.021,0.012,0.032H10.113z M10.229,22.741
	c-0.015-0.029-0.028-0.054-0.043-0.078c0.031-0.005,0.062-0.012,0.092-0.019l0.004,0.002c0.023,0.03,0.053,0.071,0.081,0.121
	c-0.024,0.004-0.049,0.009-0.074,0.011c-0.002,0.001-0.004,0.001-0.007,0.001c-0.012,0.002-0.021,0.003-0.033,0.005
	C10.241,22.769,10.234,22.755,10.229,22.741z M10.349,22.704c0.02,0.019,0.036,0.037,0.053,0.058
	c-0.006,0.001-0.012,0.002-0.017,0.003C10.373,22.743,10.361,22.722,10.349,22.704z M10.269,22.84
	c-0.001-0.008-0.004-0.017-0.008-0.025c-0.001-0.003-0.002-0.006-0.005-0.009c0.005,0,0.009-0.001,0.012-0.002
	c0.017-0.001,0.033-0.004,0.05-0.005c0.019-0.003,0.038-0.006,0.056-0.009c0.009,0.017,0.017,0.033,0.026,0.051H10.269z
	 M10.423,22.84c-0.009-0.019-0.018-0.038-0.027-0.056c0.007-0.001,0.015-0.003,0.021-0.005c0.014,0.02,0.028,0.04,0.04,0.061H10.423
	z M10.58,22.842l0.09-0.164c0.023,0.016,0.051,0.029,0.078,0.038c0.035,0.012,0.073,0.019,0.111,0.019
	c0.068,0,0.135-0.021,0.188-0.056l0.012,0.02l0.078,0.144H10.58z M11.068,22.645c-0.004,0.004-0.007,0.004-0.009,0.007
	c-0.005,0.004-0.012,0.009-0.017,0.013c-0.053,0.034-0.115,0.055-0.184,0.055s-0.132-0.021-0.184-0.055
	c-0.004-0.003-0.007-0.005-0.011-0.007c-0.001-0.002-0.001-0.002-0.002-0.003c-0.012-0.007-0.021-0.016-0.031-0.023l-0.041-0.046
	c-0.035-0.05-0.06-0.107-0.064-0.172c0.033-0.006,0.08-0.011,0.137-0.017c0.038-0.002,0.081-0.005,0.127-0.006
	c0.022-0.001,0.044-0.002,0.067-0.002c0.072,0.002,0.145,0.006,0.211,0.02c0.043,0.009,0.084,0.021,0.12,0.039
	C11.173,22.527,11.129,22.597,11.068,22.645z M11.193,22.401c-0.038-0.017-0.08-0.029-0.125-0.037
	c-0.078-0.015-0.163-0.019-0.244-0.019H10.81c-0.052,0.002-0.104,0.004-0.146,0.008c-0.055,0.004-0.104,0.011-0.138,0.016
	c0.001-0.019,0.004-0.037,0.008-0.057c0.008-0.038,0.022-0.072,0.042-0.104c0.007-0.011,0.016-0.022,0.023-0.033
	c0.019-0.022,0.039-0.042,0.063-0.059c0.015-0.011,0.031-0.021,0.048-0.029c0.023-0.013,0.05-0.021,0.076-0.027
	c0.024-0.005,0.048-0.009,0.074-0.009c0.025,0,0.05,0.003,0.074,0.009c0.049,0.011,0.094,0.033,0.134,0.063
	c0.04,0.032,0.073,0.072,0.094,0.119c0.021,0.044,0.032,0.093,0.032,0.144V22.401z M10.721,19.14
	c-0.003-0.009-0.004-0.02-0.004-0.029c0-0.042,0.018-0.08,0.047-0.107c0.007-0.005,0.016-0.01,0.022-0.017
	c0.007-0.003,0.017-0.008,0.023-0.01v-0.332h0.023v-0.807h0.052v0.807h0.024v0.332c0.008,0.002,0.016,0.007,0.024,0.01
	c0.018,0.012,0.033,0.027,0.044,0.044c0.016,0.022,0.024,0.05,0.024,0.079c0,0.045-0.021,0.084-0.054,0.111
	c-0.002,0.002-0.005,0.002-0.008,0.006v0.531c0.006,0.001,0.01,0.002,0.015,0.004c0.029,0.008,0.055,0.02,0.081,0.037
	c0.015,0.01,0.031,0.021,0.043,0.033c0.051,0.045,0.089,0.106,0.104,0.175c0.006,0.023,0.009,0.048,0.009,0.073v0.014
	c-0.004,0.106-0.06,0.2-0.141,0.258c-0.011,0.008-0.022,0.013-0.033,0.02c-0.046,0.026-0.101,0.041-0.158,0.041
	c-0.032,0-0.063-0.005-0.093-0.013c-0.04-0.013-0.079-0.032-0.113-0.059c-0.022-0.018-0.042-0.039-0.061-0.062
	c-0.007-0.011-0.014-0.021-0.021-0.033c-0.017-0.029-0.029-0.062-0.037-0.096c-0.005-0.023-0.009-0.046-0.009-0.07
	c0-0.043,0.009-0.083,0.024-0.12c0.018-0.049,0.049-0.094,0.089-0.128c0.039-0.035,0.087-0.062,0.138-0.074v-0.531
	C10.748,19.208,10.727,19.177,10.721,19.14z M10.909,20.523v-0.1c0.045-0.007,0.086-0.022,0.122-0.045v1.7
	c-0.047-0.026-0.101-0.042-0.158-0.045h-0.014c-0.063,0-0.121,0.017-0.174,0.045v-1.7c0.002,0,0.005,0.003,0.007,0.003
	c0.034,0.021,0.075,0.036,0.117,0.042v0.1H10.909z M11.898,22.822c-0.006,0.007-0.009,0.014-0.014,0.021h-0.014
	c0.009-0.008,0.018-0.015,0.026-0.023c0.002-0.001,0.003-0.002,0.004-0.004C11.9,22.818,11.899,22.82,11.898,22.822z M11.902,22.793
	l-0.011,0.009c-0.011,0.01-0.021,0.019-0.031,0.027h-0.023v0.014h-0.028v-0.014h-0.104v0.013h-0.033v-1.066l0.121-0.075l0.088-0.056
	l0.033-0.021l0.179-0.111l0.004-0.229v-0.102l0.001,0.006l0.004,0.096l0.008,0.218l0.016-0.009l0.003-0.209l0.001-0.082v-0.026
	l0.001,0.026l0.005,0.082l0.007,0.196v0.002l0.022-0.015v0.402l-0.167-0.137l-0.021-0.016v1.031l-0.006,0.002
	c-0.002,0-0.005,0.003-0.007,0.004l-0.038,0.024h-0.089v0.015h0.067L11.902,22.793z M11.935,23.007l-0.005-0.001v-0.093
	c0.01,0,0.021,0.002,0.032,0.003C11.951,22.945,11.943,22.975,11.935,23.007z M11.948,23.024c0.036,0.002,0.073,0.004,0.112,0.006
	h0.005c-0.002,0.034-0.003,0.072-0.002,0.11c-0.036,0-0.07-0.001-0.101-0.002h-0.023C11.938,23.098,11.943,23.06,11.948,23.024z
	 M11.931,23.023c0,0.006,0,0.011-0.001,0.016L11.931,23.023L11.931,23.023z M11.943,23.278H11.93v-0.063
	C11.933,23.236,11.938,23.256,11.943,23.278z M11.94,23.164v-0.008h0.007c0.036,0.001,0.074,0.002,0.116,0.002
	c0,0.039,0.003,0.079,0.009,0.123c-0.039-0.001-0.075-0.003-0.112-0.003C11.948,23.239,11.943,23.201,11.94,23.164z M12.067,23.01
	v0.004c-0.041-0.002-0.079-0.004-0.115-0.006c0.008-0.032,0.017-0.063,0.027-0.09h0.006c0.028,0.002,0.058,0.005,0.088,0.006h0.005
	c-0.002,0.012-0.002,0.024-0.005,0.036C12.072,22.976,12.069,22.993,12.067,23.01z M12.073,22.908
	c-0.03-0.002-0.06-0.004-0.088-0.006c0.015-0.034,0.03-0.063,0.045-0.09c0.014,0,0.028,0.002,0.043,0.003
	c0.01,0.001,0.019,0.002,0.029,0.003c-0.007,0.026-0.015,0.056-0.021,0.089H12.073z M12.382,22.798
	c-0.021,0.001-0.04,0.003-0.061,0.005c-0.013-0.042-0.025-0.071-0.033-0.087c0.013,0.002,0.025,0.004,0.038,0.008
	C12.338,22.737,12.358,22.763,12.382,22.798z M12.355,22.734c0.038,0.013,0.073,0.029,0.106,0.049
	c-0.021,0.006-0.04,0.009-0.061,0.012C12.385,22.769,12.368,22.749,12.355,22.734z M12.291,22.77
	c0.004,0.011,0.008,0.022,0.012,0.035c-0.026,0.001-0.054,0.002-0.08,0.002c-0.004-0.041-0.007-0.072-0.008-0.096
	c0,0-0.001-0.001-0.001-0.002c0.001,0,0.001,0,0.001,0c0.011,0,0.021,0.001,0.031,0.002c0.006,0,0.015,0.001,0.021,0.002
	C12.271,22.721,12.28,22.741,12.291,22.77z M12.222,23.016L12.222,23.016c-0.021,0-0.045,0-0.066,0
	c-0.024-0.001-0.047-0.002-0.07-0.002c0-0.01,0.001-0.019,0.003-0.028c0.002-0.021,0.005-0.04,0.008-0.06
	c0.007,0,0.013,0.001,0.019,0.001c0.033,0.001,0.067,0.003,0.101,0.003C12.218,22.958,12.221,22.987,12.222,23.016z M12.215,22.912
	c-0.032,0-0.063,0-0.092-0.002h-0.025c0.008-0.035,0.015-0.064,0.021-0.09c0.015,0.002,0.029,0.002,0.044,0.003
	c0.014,0,0.029,0,0.043,0.001C12.21,22.851,12.212,22.881,12.215,22.912z M12.171,22.806c-0.016-0.001-0.032-0.002-0.047-0.003
	c0.014-0.042,0.025-0.074,0.034-0.092c0.013-0.001,0.025-0.002,0.039-0.002c0,0.009,0.001,0.02,0.004,0.033
	c0,0.019,0.003,0.04,0.004,0.063H12.171z M12.106,22.801c-0.011,0-0.022-0.001-0.033-0.002c-0.011-0.001-0.022-0.002-0.033-0.004
	c0.011-0.018,0.023-0.033,0.033-0.047c0.007-0.011,0.015-0.02,0.021-0.026c0.015-0.004,0.029-0.007,0.045-0.009
	C12.129,22.734,12.118,22.763,12.106,22.801z M12.021,22.793c-0.028-0.004-0.054-0.007-0.074-0.01
	c0.037-0.023,0.076-0.041,0.118-0.054C12.055,22.747,12.038,22.767,12.021,22.793z M12.083,23.031h0.005
	c0.043,0.002,0.089,0.002,0.136,0.005c0.002,0.035,0.005,0.072,0.007,0.107h-0.037c-0.038,0-0.076-0.001-0.114-0.001
	C12.078,23.103,12.08,23.065,12.083,23.031z M12.224,22.824c0.027,0,0.056-0.001,0.085-0.002c0.007,0.026,0.015,0.057,0.021,0.09
	c-0.033,0.001-0.066,0.001-0.099,0.001C12.229,22.881,12.227,22.851,12.224,22.824z M12.325,22.82h0.004
	c0.021-0.001,0.042-0.004,0.063-0.008c0.017,0.028,0.034,0.06,0.049,0.095c-0.015,0.001-0.029,0.001-0.043,0.003
	c-0.016,0.001-0.033,0.002-0.05,0.002C12.342,22.878,12.334,22.846,12.325,22.82z M12.409,22.925c0.013,0,0.025,0,0.039-0.001
	c0.011,0.027,0.021,0.057,0.028,0.091c0,0,0,0.001,0,0.002c-0.036,0-0.075,0.002-0.113,0.003c0-0.002,0-0.002,0-0.003
	c-0.003-0.031-0.008-0.06-0.012-0.087C12.371,22.928,12.392,22.927,12.409,22.925z M12.494,23.015
	c-0.001-0.004-0.001-0.008-0.002-0.012c-0.004-0.016-0.009-0.03-0.013-0.045c-0.005-0.012-0.009-0.025-0.015-0.037
	c0.006-0.001,0.01-0.002,0.015-0.003c0.025-0.002,0.052-0.006,0.076-0.011c0.003,0.006,0.006,0.012,0.009,0.019
	c0.013,0.025,0.024,0.053,0.034,0.083C12.565,23.012,12.531,23.014,12.494,23.015z M12.604,23.026
	c0.004,0.016,0.009,0.032,0.011,0.049c0.005,0.021,0.007,0.042,0.007,0.065c-0.009,0-0.02,0-0.029,0.001
	c-0.027,0-0.055,0-0.083,0.002c0-0.037-0.004-0.07-0.01-0.103c0-0.003,0-0.005-0.002-0.008c0.006,0,0.011-0.001,0.017-0.001
	C12.545,23.031,12.575,23.029,12.604,23.026z M12.493,23.143h-0.077c-0.015,0-0.03,0.001-0.047,0.001
	c0.001-0.039-0.001-0.074-0.004-0.107c0.036-0.001,0.069-0.001,0.104-0.003h0.013C12.488,23.068,12.493,23.104,12.493,23.143z
	 M12.364,23.248c0.004-0.029,0.004-0.059,0.005-0.086c0.014-0.001,0.025-0.001,0.038-0.001c0.028,0,0.057,0,0.086-0.001
	c-0.001,0.021-0.004,0.042-0.007,0.063c-0.003,0.021-0.007,0.043-0.013,0.065c-0.034,0-0.071,0-0.108,0h-0.004
	C12.362,23.272,12.363,23.26,12.364,23.248z M12.505,23.212c0.003-0.018,0.004-0.036,0.005-0.053c0.034,0,0.066-0.002,0.099-0.003
	h0.015c0,0.005,0,0.011-0.001,0.017c0,0.022-0.002,0.044-0.007,0.066c-0.002,0.017-0.006,0.033-0.013,0.05
	c-0.031,0-0.069-0.001-0.11-0.002C12.498,23.262,12.502,23.237,12.505,23.212z M12.621,23.024c0.012-0.001,0.022-0.002,0.033-0.004
	c0.01,0.026,0.018,0.053,0.021,0.08c0.002,0.012,0.005,0.024,0.006,0.037c-0.014,0.001-0.026,0.001-0.041,0.003
	c-0.001-0.019-0.002-0.04-0.006-0.057C12.632,23.062,12.626,23.043,12.621,23.024z M12.616,23.007
	c-0.011-0.034-0.024-0.066-0.039-0.095c-0.002-0.002-0.003-0.005-0.004-0.007c0.006-0.001,0.01-0.003,0.015-0.003c0,0,0,0,0.001,0
	c0.024,0.031,0.043,0.065,0.059,0.102C12.639,23.005,12.626,23.006,12.616,23.007z M12.564,22.889
	c-0.009-0.017-0.019-0.033-0.028-0.047c0.014,0.013,0.028,0.028,0.04,0.044C12.572,22.886,12.568,22.888,12.564,22.889z
	 M12.546,22.892c-0.021,0.003-0.044,0.007-0.066,0.01c-0.008,0.001-0.015,0.002-0.021,0.003c-0.016-0.036-0.031-0.066-0.049-0.094
	c0.023-0.003,0.046-0.009,0.067-0.013c0.002,0,0.003-0.001,0.003-0.001l0.004,0.002C12.502,22.822,12.525,22.853,12.546,22.892z
	 M12.503,22.795l-0.019-0.016v-0.011h-0.014l-0.004-0.003c-0.022-0.014-0.045-0.025-0.068-0.035h0.086v-0.015h-0.103v0.008
	l-0.005-0.001c-0.004-0.002-0.009-0.004-0.016-0.006l-0.052-0.015c-0.002,0-0.005-0.001-0.008-0.001l-0.006-0.001L12.291,22.7
	l-0.032-0.005c-0.006-0.001-0.012-0.001-0.017-0.002c-0.008,0-0.019,0-0.027-0.001h-0.02c-0.01,0.001-0.019,0.001-0.026,0.001
	h-0.004l-0.028,0.003c-0.01,0.002-0.019,0.004-0.028,0.005l-0.048,0.012c-0.023,0.008-0.049,0.017-0.072,0.029v-0.998l0.061,0.049
	l0.216,0.175l0.107,0.086l0.093,0.075l0.038,0.032V22.795z M11.905,22.843c0.001-0.003,0.004-0.005,0.005-0.009
	c0.008-0.013,0.017-0.024,0.024-0.035c0.021,0.002,0.047,0.007,0.077,0.011c-0.015,0.025-0.03,0.056-0.043,0.089v0
	c-0.015,0-0.026-0.003-0.039-0.004v-0.052H11.905z M11.93,23.383v-0.089h0.018c0.001,0.005,0.004,0.009,0.004,0.013
	c0.009,0.025,0.02,0.049,0.032,0.076H11.93z M12.002,23.383c-0.008-0.014-0.014-0.028-0.019-0.042
	c-0.007-0.016-0.013-0.031-0.018-0.047c0.034,0.001,0.069,0.002,0.106,0.003h0.001c0.004,0.027,0.01,0.057,0.016,0.086H12.002z
	 M12.08,23.158c0.042,0.001,0.085,0.001,0.13,0.002h0.021c0.001,0.009,0.001,0.016,0.001,0.023c0.003,0.035,0.004,0.068,0.004,0.099
	c-0.048,0-0.098-0.001-0.146-0.002C12.084,23.237,12.081,23.198,12.08,23.158z M12.236,23.383h-0.13
	c-0.006-0.029-0.011-0.059-0.016-0.086c0.048,0.002,0.098,0.002,0.146,0.004V23.383z M12.234,22.93c0.033,0.001,0.066,0.001,0.1,0
	c0.005,0.026,0.009,0.056,0.013,0.086v0.003c-0.036,0-0.071,0-0.107-0.001v-0.002C12.236,22.987,12.234,22.958,12.234,22.93z
	 M12.24,23.036c0.036,0.001,0.072,0.001,0.108,0.001c0.003,0.033,0.004,0.069,0.004,0.107c-0.035,0-0.071,0-0.106-0.001
	C12.244,23.107,12.242,23.071,12.24,23.036z M12.329,23.383h-0.078c0.001-0.012,0.001-0.026,0.001-0.038v-0.044
	c0.027,0,0.056,0.001,0.083,0.002h0.008C12.339,23.328,12.335,23.355,12.329,23.383z M12.327,23.285
	c-0.025,0-0.051-0.001-0.076-0.001c0-0.025,0-0.054-0.002-0.08c0-0.015-0.002-0.029-0.002-0.043c0.035,0,0.07,0.001,0.105,0.001
	c-0.001,0.039-0.003,0.081-0.009,0.124C12.339,23.286,12.332,23.285,12.327,23.285z M12.347,23.383
	c0.005-0.021,0.008-0.043,0.01-0.063c0.002-0.006,0.002-0.012,0.003-0.017c0.037,0,0.075,0,0.109,0
	c-0.009,0.027-0.018,0.052-0.031,0.08H12.347z M12.457,23.383c0.012-0.028,0.022-0.053,0.029-0.08
	c0.04,0.001,0.079,0.001,0.112,0.002c-0.011,0.025-0.022,0.05-0.038,0.077H12.457z M12.644,23.383h-0.063
	c0.015-0.027,0.026-0.052,0.035-0.077h0.054C12.664,23.333,12.654,23.357,12.644,23.383z M12.684,23.237
	c-0.003,0.018-0.006,0.034-0.009,0.052h-0.053c0.01-0.033,0.017-0.066,0.018-0.098V23.19c0.002-0.012,0.002-0.023,0.002-0.035
	c0.014-0.001,0.027-0.002,0.042-0.003c0,0.013,0.001,0.024,0.001,0.036C12.685,23.206,12.684,23.221,12.684,23.237z M9.943,16.894
	c-1.632,0-2.955-1.323-2.955-2.956c0-1.63,1.323-2.954,2.955-2.954c1.631,0,2.954,1.323,2.954,2.954
	C12.897,15.571,11.574,16.894,9.943,16.894z M13.166,22.405l-0.006-0.01l-0.018-0.021v-0.002h-0.001l-0.002-0.001l-0.009-0.013
	h0.012v-0.018h-0.027l-0.009-0.013h0.036v-0.02h-0.085v0.02h0.028l-0.01,0.013h-0.019v0.018h0.005l-0.003,0.004l-0.033,0.042h-0.188
	v0.02h0.175l-0.01,0.013h-0.165v0.018h0.149l-0.01,0.014h-0.14v0.019h0.126l-0.011,0.014h-0.115v0.019h0.101l-0.009,0.013h-0.092
	v0.019h0.076l-0.012,0.012h-0.064v0.02h0.052l-0.004,0.004l-0.007,0.01h-0.041v0.018h0.028l-0.011,0.013h-0.018v0.02h0.002
	l-0.034,0.046h-0.078v0.019h0.063l-0.01,0.014h-0.053v0.019h0.039l-0.011,0.014h-0.028v0.019h0.014l-0.009,0.014h-0.005v0.005
	l-0.021,0.027l-0.002,0.005v-1.267h0.462V22.405z M13.814,22.956c-0.022,0.001-0.046,0.002-0.07,0.005v-0.01h-0.095v0.02
	c-0.003,0-0.008,0-0.013,0.002c-0.006,0-0.011,0.001-0.015,0.001v-0.022h-0.095v0.029h0.04c-0.026,0.005-0.052,0.009-0.077,0.013
	v-0.013h0.008v-0.029H13.49v-0.029h0.008v-0.03H13.49v-0.029h0.008v-0.03H13.49v-0.003l-0.004-0.005l-0.011-0.015l-0.006-0.008
	h0.028v-0.029h-0.052l-0.022-0.03h0.074v-0.03h-0.094v0.004l-0.028-0.038v-0.026h-0.021l-0.021-0.03h0.042v-0.029H13.31l-0.021-0.03
	h0.088v-0.03H13.28v0.021l-0.055-0.072l-0.015-0.017v-0.582l0.046-0.04v-0.178h0.512v0.183h0.001l0.045,0.035V22.956z
	 M14.309,22.954c-0.008,0-0.016,0-0.022,0v-2.043h-0.018v2.041c-0.032-0.001-0.063-0.002-0.097-0.003
	c-0.042-0.001-0.085-0.002-0.127-0.002l0.001-0.087l-0.039-0.078h0.039l0.003-0.087l0.002-0.077l0.003-0.181l-0.04-0.077h0.041
	l0.001-0.056l0.001-0.075v-0.031l0.003-0.113v-0.002l-0.038-0.077h0.039l0.004-0.191l-0.028-0.043l-0.01-0.015h0.04l0.001-0.125
	l-0.038-0.04h0.039l0.001-0.114l0.002-0.012l-0.038-0.041h0.039v-0.07v-0.009l-0.038-0.042h0.039l0.002-0.056l-0.009-0.008
	l-0.03-0.032h0.04l0.001-0.056l-0.038-0.04h0.038l0.001-0.071l-0.021-0.021L14.04,21h0.04v-0.066v-0.038h0.229V22.954z
	 M14.558,22.842l-0.009,0.018l0.002,0.1v0.015c-0.074-0.008-0.149-0.014-0.225-0.018v-2.06h0.188L14.516,21h0.049l-0.037,0.041
	h-0.012l0.002,0.071h0.039l-0.021,0.022l-0.018,0.018l0,0l0.001,0.056h0.039l-0.038,0.04v0.015l0.002,0.042h0.039l-0.038,0.042
	v0.009v0.07h0.04l-0.039,0.041l0.003,0.12v0.006h0.037l-0.036,0.04l0.001,0.125h0.041l-0.014,0.021l-0.025,0.038l0.003,0.156
	l0.001,0.035h0.039L14.57,22.01l-0.035,0.072l0.002,0.115l0.002,0.126v0.036h0.041l-0.013,0.026l-0.004,0.004l-0.023,0.047
	l0.008,0.345h0.039L14.558,22.842z M15.474,19.191c0.069-0.005,0.141-0.007,0.211-0.006C15.614,19.184,15.544,19.186,15.474,19.191
	c-0.006,0.001-0.011,0.001-0.015,0.001C15.464,19.193,15.468,19.193,15.474,19.191z M15.794,18.803
	c0.007-0.02,0.015-0.039,0.021-0.058c0-0.011-0.001-0.021-0.002-0.032c0.001,0.011,0.002,0.021,0.003,0.032
	C15.81,18.764,15.802,18.783,15.794,18.803c-0.021,0.063-0.043,0.134-0.064,0.208C15.751,18.937,15.772,18.866,15.794,18.803z
	 M15.73,18.162L15.73,18.162c0.021,0.029,0.029,0.055,0.051,0.085C15.76,18.217,15.752,18.192,15.73,18.162z M15.876,19.799
	c0.003,0.068,0.007,0.138,0.009,0.207c0.004,0.063,0.007,0.125,0.009,0.188c0.001,0.027,0.003,0.053,0.003,0.078
	c-0.069-0.006-0.14-0.01-0.208-0.01c-0.032,0-0.063,0-0.095,0.001c-0.013,0.001-0.026,0.001-0.039,0.002l0.001-0.017
	c0-0.027,0.002-0.054,0.003-0.084c0.001-0.013,0.002-0.026,0.004-0.039c0.001-0.022,0.003-0.045,0.005-0.069
	c0.002-0.016,0.005-0.033,0.005-0.049c0.006-0.047,0.013-0.096,0.02-0.146c0.004-0.024,0.006-0.049,0.011-0.072
	c0.02-0.001,0.04-0.001,0.059-0.001C15.734,19.787,15.806,19.792,15.876,19.799z M15.821,18.838
	c0.004,0.068,0.009,0.138,0.013,0.205c0.003,0.042,0.006,0.084,0.009,0.126c0,0.009,0,0.017,0,0.025c0-0.009,0-0.017-0.001-0.025
	l-0.009-0.126C15.83,18.976,15.825,18.907,15.821,18.838z M15.87,19.687c0.001,0.017,0.002,0.032,0.003,0.048h-0.001
	C15.872,19.719,15.871,19.704,15.87,19.687z M15.685,20.787c-0.042,0-0.084,0-0.126,0c-0.001-0.016-0.001-0.032-0.001-0.047
	c-0.002-0.036-0.002-0.07-0.003-0.106v-0.058c-0.002-0.081-0.002-0.164,0-0.248c0.014,0,0.03-0.001,0.044-0.002
	c0.05-0.002,0.099-0.002,0.147,0c0.052,0.002,0.103,0.005,0.154,0.012c0,0.012,0,0.023,0.001,0.035c0,0.019,0.001,0.04,0.001,0.061
	c0.001,0.021,0.003,0.042,0.003,0.063c0.003,0.086,0.005,0.171,0.009,0.257c0,0.018,0,0.035,0.001,0.053
	C15.838,20.795,15.762,20.79,15.685,20.787z M15.917,20.872c0.002,0.107,0.005,0.216,0.006,0.323
	c0.001,0.028,0.002,0.055,0.002,0.084c0,0.008,0,0.015,0.001,0.022c-0.022-0.004-0.044-0.006-0.065-0.008
	c-0.004,0-0.008,0-0.011-0.001c-0.006-0.001-0.011-0.001-0.016-0.002c-0.009,0-0.016,0-0.024-0.001
	c-0.075-0.006-0.151-0.009-0.226-0.006c-0.008-0.1-0.014-0.204-0.019-0.309c-0.002-0.041-0.003-0.081-0.006-0.122v-0.002
	c0.053-0.002,0.104-0.002,0.153,0l0.032,0.002C15.803,20.855,15.859,20.862,15.917,20.872z M15.575,19.727
	c0.002-0.019,0.006-0.038,0.009-0.056c0.018-0.099,0.037-0.198,0.058-0.297c0.005-0.022,0.009-0.045,0.014-0.067
	c0.005-0.02,0.009-0.041,0.015-0.06c-0.006,0.019-0.009,0.04-0.014,0.06c-0.005,0.022-0.01,0.045-0.014,0.067
	c-0.021,0.099-0.041,0.198-0.058,0.297C15.581,19.689,15.578,19.708,15.575,19.727c-0.041,0.001-0.082,0.004-0.123,0.009l0,0
	C15.493,19.731,15.534,19.728,15.575,19.727z M15.434,20.229c0.002-0.065,0.004-0.13,0.005-0.196c0-0.009,0.001-0.017,0.001-0.027
	c0-0.005,0-0.01,0.001-0.014c0.002-0.064,0.003-0.127,0.005-0.191c0.002,0,0.005-0.001,0.007-0.001
	c0.038-0.003,0.075-0.007,0.112-0.01c-0.006,0.04-0.012,0.078-0.016,0.116c-0.005,0.034-0.009,0.068-0.014,0.101
	c-0.001,0.01-0.002,0.023-0.003,0.033c-0.001,0.017-0.003,0.032-0.005,0.048c-0.003,0.033-0.005,0.066-0.006,0.096
	c-0.002,0.022-0.004,0.044-0.004,0.063v0.02c-0.028,0.002-0.058,0.003-0.086,0.008C15.432,20.26,15.433,20.245,15.434,20.229z
	 M15.421,20.579c0.003-0.051,0.005-0.103,0.005-0.155c0.002-0.028,0.002-0.056,0.005-0.083c0.028-0.004,0.058-0.008,0.087-0.011
	v0.201c0,0.03,0,0.059,0,0.087c0,0.054,0.002,0.107,0.004,0.159v0.012h-0.011c-0.032,0.003-0.065,0.005-0.098,0.008
	C15.417,20.725,15.418,20.653,15.421,20.579z M15.393,21.221c0.002-0.028,0.005-0.057,0.005-0.085
	c0.004-0.079,0.008-0.157,0.012-0.236c0-0.012,0-0.024,0.001-0.037c0.012,0,0.024-0.002,0.037-0.003h0.01
	c0.021-0.003,0.04-0.005,0.061-0.006h0.006c0.001,0.026,0.002,0.054,0.003,0.08c0.005,0.12,0.013,0.236,0.021,0.352
	c-0.032,0.002-0.063,0.004-0.095,0.007c-0.021,0.002-0.041,0.004-0.062,0.007C15.392,21.272,15.393,21.248,15.393,21.221z
	 M15.367,21.689c0.002-0.028,0.005-0.055,0.005-0.084c0.006-0.08,0.01-0.161,0.014-0.241c0.023-0.003,0.045-0.006,0.066-0.01
	c0.033-0.002,0.065-0.005,0.099-0.006c0,0.006,0,0.011,0.001,0.017c0.006,0.067,0.012,0.135,0.017,0.203
	c0.004,0.041,0.009,0.081,0.013,0.122c0.003,0.019,0.004,0.039,0.006,0.057c0.004,0.029,0.006,0.06,0.01,0.09h-0.023
	c-0.066,0.002-0.133,0.007-0.2,0.017c-0.005,0-0.012,0-0.016,0.001C15.36,21.799,15.364,21.745,15.367,21.689z M15.331,22.223
	c0.005-0.07,0.011-0.141,0.016-0.213c0.001-0.019,0.002-0.037,0.004-0.056c0.001-0.005,0.001-0.011,0.001-0.018
	c0.016-0.003,0.032-0.005,0.047-0.007c0.065-0.008,0.129-0.014,0.192-0.015c0.006-0.001,0.01-0.001,0.015-0.001
	c0.017,0.14,0.034,0.274,0.054,0.4c0.002,0.01,0.002,0.021,0.004,0.031h-0.038c-0.103,0-0.204,0.008-0.306,0.024
	C15.323,22.319,15.327,22.271,15.331,22.223z M15.283,19.908l0.005-0.049l0,0L15.283,19.908l-0.008,0.08L15.283,19.908z
	 M15.275,19.993l-0.004,0.038h-0.001L15.275,19.993z M15.262,20.129l0.001-0.007l0.001-0.023l0.002-0.015l-0.001,0.015l-0.001,0.023
	L15.262,20.129l-0.005,0.039L15.262,20.129z M15.172,20.175h0.085l-0.004,0.039h-0.085L15.172,20.175z M15.168,20.221h0.084
	l-0.004,0.039h-0.084L15.168,20.221z M14.858,20.292h0.302v-0.008l0.003-0.017h0.084l-0.003,0.039h-0.472l-0.004-0.039h0.087
	L14.858,20.292z M14.852,21.127l-0.005-0.037h0.319l-0.005,0.041v-0.004H14.852z M14.987,22.545l-0.004-0.037h0.04l-0.003,0.037
	H14.987z M15.02,22.554l-0.003,0.039h-0.024l-0.005-0.039H15.02z M14.982,22.5l-0.001-0.011l-0.002-0.026h0.05l-0.003,0.026V22.5
	H14.982z M14.978,22.454l-0.003-0.038h0.059l-0.004,0.038H14.978z M14.974,22.408l-0.003-0.037h0.068l-0.005,0.037H14.974z
	 M14.969,22.362l-0.003-0.038h0.077l-0.004,0.038H14.969z M14.965,22.318v-0.002l-0.004-0.036h0.086l-0.003,0.038H14.965z
	 M14.96,22.271l-0.004-0.038h0.003l0.086-0.002l0.007-0.001l-0.003,0.041H14.96z M14.956,22.226l-0.003-0.039h0.103l-0.003,0.036
	v0.003H14.956z M14.952,22.179l-0.004-0.037h0.113l-0.005,0.037H14.952z M14.947,22.134l-0.004-0.032v-0.006h0.123l-0.002,0.006
	l-0.003,0.032H14.947z M14.943,22.088l-0.004-0.039l0.132-0.006l-0.005,0.045H14.943z M14.938,22.042l-0.004-0.037l0.135-0.003
	h0.006l-0.001,0.005l-0.003,0.035H14.938z M14.935,21.998l-0.004-0.038h0.149l-0.005,0.038H14.935z M14.931,21.952l-0.005-0.038
	h0.158l-0.004,0.038H14.931z M14.926,21.906l-0.004-0.038h0.167l-0.005,0.038H14.926z M14.921,21.859l-0.001-0.014l-0.002-0.023
	h0.175l-0.004,0.037H14.921z M14.917,21.813l-0.004-0.038h0.185l-0.004,0.031l-0.001,0.006H14.917z M14.911,21.768l-0.001-0.017
	l-0.001-0.022h0.192l-0.004,0.039H14.911z M14.908,21.723l-0.001-0.007l-0.003-0.031h0.202l-0.002,0.031l-0.002,0.007H14.908z
	 M14.904,21.676L14.9,21.639h0.211l-0.004,0.037H14.904z M14.9,21.631l-0.003-0.021l-0.002-0.018h0.22l-0.002,0.038H14.9z
	 M14.895,21.585l-0.003-0.038h0.229l-0.003,0.038H14.895z M14.89,21.54l-0.002-0.038h0.237l-0.004,0.038H14.89z M14.886,21.494
	l-0.003-0.038h0.247l-0.004,0.038H14.886z M14.882,21.449l-0.004-0.038h0.256l-0.004,0.038H14.882z M14.877,21.402l-0.004-0.037
	h0.266l-0.004,0.037H14.877z M14.873,21.355l-0.002-0.029l-0.002-0.008h0.273v0.008l-0.004,0.027v0.001H14.873z M14.868,21.311
	l-0.004-0.039h0.283l-0.003,0.033v0.006H14.868z M14.864,21.265l-0.004-0.038h0.292l-0.005,0.037v0.001H14.864z M14.859,21.219
	l-0.004-0.038h0.301l-0.004,0.038H14.859z M14.855,21.173l-0.004-0.037h0.31l-0.003,0.037H14.855z M14.847,21.083l-0.004-0.038
	h0.327l-0.003,0.038H14.847z M14.843,21.037L14.839,21h0.336l-0.005,0.037H14.843z M14.838,20.991l-0.001-0.003l-0.003-0.035h0.346
	l-0.003,0.038H14.838z M14.834,20.945l-0.004-0.034v-0.004h0.354l-0.004,0.038H14.834z M14.828,20.899l-0.002-0.038h0.362
	l-0.004,0.038H14.828z M14.825,20.853l-0.004-0.038h0.372l-0.004,0.038H14.825z M14.819,20.808l-0.003-0.038h0.382l-0.005,0.036
	v0.002H14.819z M14.815,20.762l-0.003-0.038h0.389l-0.003,0.038H14.815z M14.811,20.716l-0.002-0.038h0.397l-0.004,0.038H14.811z
	 M14.807,20.67l-0.003-0.038h0.407l-0.004,0.038H14.807z M14.803,20.625l-0.004-0.039h0.418l-0.004,0.023l-0.001,0.015H14.803z
	 M14.798,20.579l-0.001-0.016l-0.001-0.004l-0.002-0.018h0.426l-0.002,0.038H14.798z M14.794,20.533l-0.004-0.037h0.434v0.001
	l-0.002,0.036H14.794z M14.789,20.487l-0.003-0.038h0.443l-0.003,0.038H14.789z M14.785,20.441l-0.004-0.037h0.453l-0.004,0.037
	H14.785z M14.78,20.395l-0.004-0.036h0.462l-0.004,0.036H14.78z M14.776,20.35l-0.004-0.038h0.471l-0.004,0.038H14.776z
	 M14.852,20.23l0.004,0.029h-0.088l-0.005-0.045l0.001,0.006h0.087L14.852,20.23z M14.84,20.122v0.003V20.122l-0.004-0.039
	L14.84,20.122z M14.846,20.167L14.846,20.167l-0.006-0.039L14.846,20.167z M14.831,20.039l0.004,0.038l0,0L14.831,20.039
	L14.831,20.039z M14.826,19.993l0.004,0.038l0,0L14.826,19.993L14.826,19.993z M14.846,20.175v-0.001l0.001,0.014l0.003,0.026
	h-0.087v-0.002l-0.003-0.035l-0.001-0.001H14.846z M14.736,20.112l0.002,0.009l0,0L14.736,20.112l-0.003-0.029l0,0L14.736,20.112z
	 M14.741,20.158v0.009V20.158l-0.003-0.029L14.741,20.158z M14.729,20.039v-0.005l0.004,0.043h-0.001L14.729,20.039L14.729,20.039z
	 M14.722,20.175h0.021v0.001l0.004,0.037h-0.024V20.175z M14.722,20.221h0.025v0.007l0.003,0.031h-0.028V20.221z M14.722,20.267
	h0.029l0.003,0.039h-0.032V20.267z M14.722,20.312h0.033l0.004,0.038h-0.037V20.312z M14.722,20.359h0.037l0.005,0.036h-0.042
	V20.359z M14.722,20.405h0.042l0.004,0.037h-0.046V20.405z M14.722,20.45h0.047l0.004,0.038h-0.051V20.45z M14.722,20.496h0.051
	l0.004,0.037h-0.055V20.496z M14.722,20.542h0.055l0.003,0.018l0.002,0.02h-0.06V20.542z M14.722,20.586h0.06l0.004,0.039h-0.063
	V20.586z M14.722,20.632h0.064l0.004,0.038h-0.068V20.632z M14.722,20.77h0.077l-0.001-0.008h-0.076v-0.038h0.073l-0.001-0.008
	h-0.072v-0.038h0.068l0.007,0.063l0.007,0.073l-0.001-0.006h-0.081V20.77z M14.722,20.815h0.082l0.004,0.038h-0.086V20.815z
	 M14.722,20.862h0.087l0.005,0.044l-0.001-0.006h-0.091V20.862z M14.722,20.907h0.092l0.002,0.021l0.001,0.018h-0.095V20.907z
	 M14.722,20.953h0.095l0.003,0.015v0.023h-0.098V20.953z M14.722,21h0.101l0.004,0.037h-0.104V21z M14.722,21.044h0.104l0.004,0.042
	l-0.001-0.004h-0.107V21.044z M14.722,21.09h0.108l0.005,0.045l-0.001-0.008h-0.112V21.09z M14.722,21.136h0.113l0.003,0.037h-0.116
	V21.136z M14.722,21.181h0.116l0.005,0.038h-0.121V21.181z M14.722,21.411h0.139l-0.001-0.009h-0.138v-0.037h0.134v-0.009h-0.134
	v-0.037h0.131l-0.001-0.008h-0.13v-0.039h0.126l-0.001-0.007h-0.125v-0.038h0.121l0.005,0.045l0.006,0.054l0.011,0.122h-0.143
	V21.411z M14.722,21.456h0.143l0.004,0.038h-0.146V21.456z M14.722,21.501h0.147l0.004,0.038h-0.151V21.501z M14.722,21.547h0.151
	l0.004,0.038h-0.155V21.547z M14.722,21.593h0.156l0.004,0.033l0.001,0.01l-0.001-0.005h-0.16V21.593z M14.722,21.639h0.161
	l0.004,0.037h-0.165V21.639z M14.722,21.729h0.17l-0.002-0.006h-0.168v-0.038h0.166v-0.006l0.002,0.038l0.002,0.013l0.001,0.016
	l0.002,0.022h-0.173V21.729z M14.722,21.776h0.174V21.77l0.005,0.043h-0.179V21.776z M14.722,21.822h0.18v0.004l0.003,0.033h-0.183
	V21.822z M14.722,21.868h0.183l0.004,0.038h-0.187V21.868z M14.722,21.914h0.188l0.005,0.044l-0.001-0.006h-0.191V21.914z
	 M14.722,21.959h0.192l0.003,0.038h-0.195V21.959z M14.722,22.005h0.196l0.004,0.037h-0.2V22.005z M14.722,22.05h0.2l0.004,0.039
	h-0.204V22.05z M14.722,22.096h0.204l0.001,0.006l0.003,0.032h-0.208V22.096z M14.722,22.142h0.209l0.004,0.037h-0.213V22.142z
	 M14.722,22.187h0.214l0.003,0.03l0.001,0.009h-0.218V22.187z M14.722,22.234h0.218l0.004,0.038h-0.222V22.234z M14.722,22.28h0.222
	l0.005,0.038h-0.227V22.28z M14.722,22.325h0.227v-0.006l0.001,0.013l0.003,0.031h-0.23V22.325z M14.722,22.371h0.231l0.002,0.037
	h-0.233V22.371z M14.722,22.417h0.235l0.004,0.042l-0.001-0.004h-0.238V22.417z M14.722,22.462h0.24l0.003,0.026l0.001,0.011h-0.244
	V22.462z M14.722,22.508h0.244v-0.006l0.005,0.043h-0.249V22.508z M14.722,22.554h0.249l0.004,0.039h-0.253V22.554z M14.722,22.599
	h0.254l0.004,0.039h-0.258V22.599z M14.722,22.645h0.259l0.002,0.036l0.001,0.002h-0.262V22.645z M14.722,22.691h0.262l0.003,0.038
	h-0.265V22.691z M14.722,22.737h0.267l0.004,0.038h-0.271V22.737z M14.995,23.033c-0.051-0.007-0.102-0.015-0.152-0.022h0.152
	V23.033z M14.995,23.003h-0.209c-0.021-0.003-0.043-0.007-0.064-0.009v-0.029h0.273V23.003z M14.995,22.958h-0.273v-0.038h0.273
	V22.958z M14.995,22.912h-0.273v-0.038h0.273V22.912z M14.995,22.866h-0.273v-0.037h0.273V22.866z M14.995,22.82h-0.273v-0.038
	h0.271l0.002,0.025V22.82z M14.993,22.599h0.023l-0.004,0.039h-0.017L14.993,22.599z M15.003,22.718l-0.002-0.027l0.005-0.002
	L15.003,22.718z M15.007,22.683H15l-0.003-0.038l0.014-0.002L15.007,22.683z M15.167,23.598h-0.105V23.56h0.105V23.598z
	 M15.167,23.552h-0.105v-0.038h0.105V23.552z M15.167,23.506h-0.105v-0.038h0.105V23.506z M15.167,23.46h-0.105v-0.038h0.105V23.46z
	 M15.167,23.415h-0.105v-0.037h0.105V23.415z M15.167,23.37h-0.105v-0.039h0.105V23.37z M15.167,23.324h-0.105v-0.038h0.105V23.324z
	 M15.167,23.278h-0.105V23.24h0.105V23.278z M15.167,23.231h-0.105v-0.038h0.105V23.231z M15.167,23.186h-0.105v-0.039h0.105V23.186
	z M15.278,23.11h-0.111v0.031h-0.105v-0.038h0.217V23.11z M15.278,23.094h-0.217v-0.037h0.217V23.094z M15.278,23.048h-0.217v-0.003
	l-0.016-0.003c-0.012-0.002-0.023-0.004-0.033-0.006v-0.025h0.266V23.048z M15.278,23.003h-0.266v-0.038h0.266V23.003z
	 M15.278,22.958h-0.266v-0.038h0.266V22.958z M15.297,22.911h-0.019v0.001h-0.266v-0.038h0.284V22.911z M15.297,22.866h-0.284
	v-0.037h0.284V22.866z M15.297,22.82h-0.284v-0.015l0.002-0.023h0.282V22.82z M15.297,22.774h-0.28l0.003-0.038h0.277V22.774z
	 M15.297,22.729H15.02l0.001-0.01l0.002-0.028h0.274V22.729z M15.297,22.683h-0.273l0.004-0.038h0.27V22.683z M15.297,22.638h-0.268
	l0.004-0.039h0.264V22.638z M15.297,22.592h-0.263l0.004-0.039h0.259V22.592z M15.297,22.545h-0.258l0.003-0.037h0.255V22.545z
	 M15.297,22.5h-0.254l0.001-0.011l0.002-0.026h0.251V22.5z M15.297,22.454h-0.25l0.004-0.038h0.246V22.454z M15.297,22.408h-0.246
	l0.005-0.037h0.241V22.408z M15.297,22.362h-0.241l0.004-0.038h0.237V22.362z M15.297,22.318h-0.235l0.001-0.021l0.002-0.017h0.232
	V22.318z M15.297,22.271h-0.23l0.003-0.038h0.228V22.271z M15.297,22.226h-0.228l0.003-0.024l0.001-0.015h0.224V22.226z
	 M15.297,22.179h-0.223l0.005-0.037h0.218V22.179z M15.297,22.134H15.08l0.002-0.032l0.002-0.006h0.213V22.134z M15.297,22.088
	h-0.213l0.003-0.039h0.21V22.088z M15.297,22.042h-0.208l0.001-0.019l0.003-0.018h0.204V22.042z M15.297,21.998h-0.204l0.004-0.038
	h0.2V21.998z M15.297,21.952h-0.199l0.004-0.038h0.195V21.952z M15.297,21.906h-0.195l0.004-0.038h0.191V21.906z M15.297,21.859
	h-0.19l0.004-0.037h0.187V21.859z M15.297,21.813h-0.186v-0.001l0.003-0.036h0.183V21.813z M15.297,21.768h-0.182l0.005-0.039h0.177
	V21.768z M15.297,21.723H15.12l0.001-0.007l0.004-0.031h0.172V21.723z M15.297,21.676h-0.172l0.004-0.037h0.168V21.676z
	 M15.297,21.631H15.13l0.004-0.038h0.163V21.631z M15.297,21.585h-0.163l0.004-0.038h0.159V21.585z M15.297,21.54h-0.158
	l0.004-0.038h0.154V21.54z M15.297,21.494h-0.153l0.004-0.038h0.149V21.494z M15.297,21.449h-0.149l0.005-0.038h0.145V21.449z
	 M15.297,21.402h-0.145l0.004-0.037h0.141V21.402z M15.297,21.355h-0.141l0.003-0.023l0.001-0.006v-0.008h0.137V21.355z
	 M15.297,21.311h-0.136l0.005-0.039h0.131V21.311z M15.297,21.265h-0.13l0.002-0.038h0.128V21.265z M15.297,21.219H15.17
	l0.004-0.038h0.123V21.219z M15.297,21.173h-0.121l0.004-0.037h0.117V21.173z M15.297,21.127H15.18l0.005-0.037h0.112V21.127z
	 M15.297,21.083h-0.112l0.004-0.038h0.108V21.083z M15.297,21.037h-0.107L15.193,21h0.104V21.037z M15.297,20.991h-0.104
	l0.004-0.038h0.1V20.991z M15.297,20.945h-0.099l0.003-0.038h0.096V20.945z M15.297,20.899h-0.095l0.004-0.038h0.091V20.899z
	 M15.297,20.853h-0.09l0.004-0.038h0.086V20.853z M15.297,20.808h-0.085l0.005-0.038h0.08V20.808z M15.297,20.762h-0.08l0.003-0.038
	h0.077V20.762z M15.297,20.716h-0.075l0.002-0.038h0.073V20.716z M15.297,20.67h-0.07l0.003-0.038h0.067V20.67z M15.297,20.625
	H15.23l0.004-0.039h0.063V20.625z M15.297,20.579h-0.063l0.004-0.038h0.059V20.579z M15.297,20.533h-0.058l0.004-0.037h0.054V20.533
	z M15.297,20.487h-0.053l0.001-0.011l0.002-0.026h0.05V20.487z M15.297,20.441h-0.049l0.005-0.037h0.044V20.441z M15.297,20.395
	h-0.044l0.004-0.036h0.04V20.395z M15.297,20.35h-0.04l0.004-0.035l0.002-0.002h0.034V20.35z M15.297,20.305h-0.033l0.002-0.039
	h0.031V20.305z M15.297,20.259h-0.03l0.003-0.039h0.027V20.259z M15.297,20.213h-0.025l0.004-0.039h0.021V20.213z M15.313,22.911
	V22.45c0.018-0.003,0.034-0.006,0.052-0.009c0.065-0.009,0.128-0.016,0.19-0.018c0.036-0.002,0.071-0.003,0.105-0.002h0.015
	c0.001,0.015,0.003,0.028,0.006,0.044c0.003,0.022,0.008,0.047,0.012,0.069c0.019,0.116,0.037,0.223,0.057,0.322
	c0.003,0.019,0.007,0.038,0.01,0.055H15.313z M15.922,22.533c-0.003,0.119-0.005,0.237-0.009,0.355
	c-0.002,0.007-0.002,0.015-0.002,0.022h-0.113c0-0.001-0.001-0.002-0.001-0.004c-0.016-0.08-0.03-0.166-0.046-0.257
	c-0.007-0.037-0.015-0.076-0.021-0.116c-0.006-0.036-0.013-0.073-0.019-0.111c0.071,0.002,0.143,0.01,0.212,0.021
	C15.923,22.473,15.923,22.503,15.922,22.533z M15.929,22.021v0.179c-0.002,0.055-0.003,0.107-0.003,0.162
	c-0.075-0.009-0.149-0.015-0.226-0.017c-0.003-0.023-0.006-0.045-0.01-0.067c-0.018-0.117-0.032-0.238-0.048-0.366h0.018
	c0.091,0.002,0.181,0.01,0.27,0.025C15.93,21.964,15.929,21.993,15.929,22.021z M15.818,21.844
	c-0.062-0.005-0.124-0.008-0.185-0.008c-0.004-0.024-0.006-0.049-0.008-0.073c-0.003-0.024-0.005-0.049-0.008-0.074
	c-0.006-0.051-0.01-0.104-0.016-0.157c-0.006-0.059-0.01-0.118-0.015-0.179c0-0.003,0-0.006-0.001-0.008c0.01,0,0.019,0,0.028,0
	c0.055-0.001,0.108,0,0.161,0.004c0.032,0.002,0.062,0.005,0.091,0.009c0.019,0.002,0.04,0.005,0.059,0.007
	c0.002,0.077,0.003,0.152,0.003,0.229v0.094c0.001,0.056,0.001,0.11,0.001,0.166C15.893,21.85,15.855,21.847,15.818,21.844z
	 M16.076,21.896l0.059-0.06l0.07-0.071h0.376l0.076,0.079l0.052,0.052H16.076z M17.608,23.551h-0.825v-0.066h0.825V23.551z
	 M17.644,23.469h-0.895V21.51h0.895V23.469z M17.644,21.489H16.86v-0.288c0.011-0.004,0.02-0.007,0.031-0.01
	c0.033-0.01,0.067-0.019,0.104-0.027c0.023-0.004,0.047-0.009,0.07-0.012c0.044-0.007,0.09-0.011,0.136-0.012
	c0.119-0.004,0.24,0.009,0.366,0.04c0.024,0.006,0.051,0.013,0.076,0.021V21.489z M18.672,16.894c-1.632,0-2.954-1.323-2.954-2.956
	c0-1.63,1.322-2.954,2.954-2.954s2.955,1.323,2.955,2.954C21.627,15.571,20.304,16.894,18.672,16.894z M9.97,12.347
	c-0.854,0-1.546,0.693-1.546,1.547c0,0.854,0.692,1.546,1.546,1.546s1.546-0.691,1.546-1.546
	C11.516,13.04,10.823,12.347,9.97,12.347z"/>
</svg>
