<?xml version="1.0" encoding="utf-8"?>
<!-- Generator: Adobe Illustrator 15.0.0, SVG Export Plug-In  -->
<!DOCTYPE svg PUBLIC "-//W3C//DTD SVG 1.1//EN" "http://www.w3.org/Graphics/SVG/1.1/DTD/svg11.dtd" [
	<!ENTITY ns_flows "http://ns.adobe.com/Flows/1.0/">
]>
<svg version="1.1"
	 xmlns="http://www.w3.org/2000/svg" xmlns:xlink="http://www.w3.org/1999/xlink" xmlns:a="http://ns.adobe.com/AdobeSVGViewerExtensions/3.0/"
	 x="0px" y="0px" width="18px" height="18px" viewBox="184.273 119.639 18 18" enable-background="new 184.273 119.639 18 18"
	 xml:space="preserve">
<defs>
</defs>
<rect display="none" fill="#E0E0E0" width="2229.455" height="1311.244"/>
<rect x="184.273" y="119.639" display="none" fill="#C9C9C9" width="18" height="18"/>
<path fill="#FFFFFF" d="M190.754,125.908l1.644-1.586v6.94c0,0.563,0.292,0.844,0.875,0.844c0.584,0,0.875-0.28,0.875-0.844v-6.855
	l1.555,1.501c0.22,0.22,0.545,0.308,0.852,0.23c0.306-0.077,0.545-0.308,0.625-0.603c0.079-0.295-0.012-0.608-0.238-0.821
	l-3.095-2.985c-0.34-0.329-0.894-0.329-1.236,0l-3.094,2.985c-0.333,0.331-0.328,0.857,0.01,1.184
	C189.864,126.223,190.41,126.228,190.754,125.908z M199.398,127.042c-0.483,0-0.875,0.378-0.875,0.844v3.972
	c0,1.071-0.89,1.936-1.984,1.936h-6.533c-1.094,0-1.984-0.865-1.984-1.936v-3.972c0-0.302-0.166-0.581-0.437-0.732
	c-0.271-0.15-0.604-0.15-0.875,0c-0.271,0.151-0.438,0.43-0.438,0.732v3.972c0,2,1.669,3.625,3.733,3.625h6.533
	c2.063,0,3.734-1.624,3.734-3.625v-3.972C200.273,127.419,199.881,127.042,199.398,127.042z"/>
</svg>
