<?xml version="1.0" encoding="utf-8"?>
<!-- Generator: Adobe Illustrator 15.0.0, SVG Export Plug-In  -->
<!DOCTYPE svg PUBLIC "-//W3C//DTD SVG 1.1//EN" "http://www.w3.org/Graphics/SVG/1.1/DTD/svg11.dtd" [
	<!ENTITY ns_flows "http://ns.adobe.com/Flows/1.0/">
]>
<svg version="1.1"
	 xmlns="http://www.w3.org/2000/svg" xmlns:xlink="http://www.w3.org/1999/xlink" xmlns:a="http://ns.adobe.com/AdobeSVGViewerExtensions/3.0/"
	 x="0px" y="0px" width="28px" height="28px" viewBox="375.273 143.639 28 28" enable-background="new 375.273 143.639 28 28"
	 xml:space="preserve">
<defs>
</defs>
<rect display="none" fill="#E0E0E0" width="2229.455" height="1311.244"/>
<rect x="375.273" y="143.639" display="none" fill="#C9C9C9" width="28" height="28"/>
<path fill="#FFFFFF" d="M384.113,149.688h-2.25v-2.25c0-0.414-0.336-0.75-0.75-0.75s-0.75,0.336-0.75,0.75v2.25h-2.25
	c-0.414,0-0.75,0.336-0.75,0.75c0,0.415,0.336,0.75,0.75,0.75h2.25v2.25c0,0.415,0.336,0.75,0.75,0.75s0.75-0.335,0.75-0.75v-2.25
	h2.25c0.414,0,0.75-0.335,0.75-0.75C384.863,150.024,384.527,149.688,384.113,149.688z"/>
<path fill="#FFFFFF" d="M399.023,149.639h-12.564v1.416h11.797c0.308,0,0.558,0.227,0.575,0.531l0.014,11.528l-4.425-4.723h0.002
	c-0.142-0.17-0.35-0.27-0.571-0.275c-0.228,0-0.388,0.106-0.571,0.253l-0.835,0.699c-0.174,0.125-0.313,0.208-0.513,0.208
	c-0.181,0.001-0.355-0.063-0.491-0.182c-0.066-0.06-0.13-0.119-0.192-0.182l-2.401-2.576c-0.188-0.213-0.46-0.334-0.745-0.333
	c-0.3,0-0.577,0.147-0.75,0.346l-5.649,6.756v-6.982h-1.429v9.263c0,0.69,0.555,1.253,1.251,1.253h17.499
	c0.696,0,1.25-0.563,1.25-1.253v-14.494C400.273,150.2,399.719,149.639,399.023,149.639z"/>
<path fill="#FFFFFF" d="M395.274,156.721c0.774,0.015,1.497-0.387,1.889-1.051c0.392-0.663,0.392-1.484,0-2.147
	c-0.392-0.664-1.114-1.065-1.889-1.052c-1.169,0.021-2.104,0.966-2.104,2.125S394.105,156.701,395.274,156.721z"/>
</svg>
