<?xml version="1.0" encoding="utf-8"?>
<!-- Generator: Adobe Illustrator 15.0.0, SVG Export Plug-In  -->
<!DOCTYPE svg PUBLIC "-//W3C//DTD SVG 1.1//EN" "http://www.w3.org/Graphics/SVG/1.1/DTD/svg11.dtd" [
	<!ENTITY ns_flows "http://ns.adobe.com/Flows/1.0/">
]>
<svg version="1.1"
	 xmlns="http://www.w3.org/2000/svg" xmlns:xlink="http://www.w3.org/1999/xlink" xmlns:a="http://ns.adobe.com/AdobeSVGViewerExtensions/3.0/"
	 x="0px" y="0px" width="18px" height="18px" viewBox="234.273 119.639 18 18" enable-background="new 234.273 119.639 18 18"
	 xml:space="preserve">
<defs>
</defs>
<rect display="none" fill="#E0E0E0" width="2229.455" height="1311.244"/>
<rect x="234.273" y="119.639" display="none" fill="#C9C9C9" width="18" height="18"/>
<path fill="#FFFFFF" d="M248.697,135.378l-2.022-2.022c-2.734,2.043-6.581,1.627-8.814-0.952c-2.234-2.58-2.095-6.447,0.318-8.859
	c2.412-2.413,6.279-2.553,8.859-0.319c2.579,2.233,2.996,6.082,0.952,8.814l2.021,2.023c0.352,0.365,0.347,0.944-0.012,1.303
	C249.643,135.725,249.063,135.73,248.697,135.378L248.697,135.378z M238.127,128.141c0,2.568,2.082,4.65,4.65,4.65
	c2.567,0,4.649-2.082,4.649-4.65c0-2.567-2.083-4.649-4.649-4.649c-2.568,0-4.648,2.082-4.65,4.647V128.141z M238.127,128.141"/>
</svg>
