<?xml version="1.0" encoding="utf-8"?>
<!-- Generator: Adobe Illustrator 15.0.0, SVG Export Plug-In  -->
<!DOCTYPE svg PUBLIC "-//W3C//DTD SVG 1.1//EN" "http://www.w3.org/Graphics/SVG/1.1/DTD/svg11.dtd" [
	<!ENTITY ns_flows "http://ns.adobe.com/Flows/1.0/">
]>
<svg version="1.1"
	 xmlns="http://www.w3.org/2000/svg" xmlns:xlink="http://www.w3.org/1999/xlink" xmlns:a="http://ns.adobe.com/AdobeSVGViewerExtensions/3.0/"
	 x="0px" y="0px" width="18px" height="18px" viewBox="209.273 119.639 18 18" enable-background="new 209.273 119.639 18 18"
	 xml:space="preserve">
<defs>
</defs>
<rect display="none" fill="#E0E0E0" width="2229.455" height="1311.244"/>
<rect x="209.273" y="119.639" display="none" fill="#C9C9C9" width="18" height="18"/>
<path fill="#FFFFFF" d="M222.644,135.639c-0.232,0.001-0.456-0.103-0.622-0.291c-0.165-0.188-0.258-0.443-0.258-0.709
	c0-0.268,0.093-0.522,0.258-0.71l0.262-0.29h-2.265c-0.302,0-0.583-0.177-0.744-0.47l-4.111-7.526h-3.017
	c-0.483,0-0.875-0.448-0.875-1c0-0.553,0.392-1,0.875-1h3.498c0.303-0.001,0.583,0.177,0.744,0.47l1.453,2.648l1.434-2.648
	c0.161-0.293,0.442-0.472,0.744-0.47h2.265l-0.262-0.291c-0.343-0.391-0.343-1.027,0-1.418c0.343-0.393,0.899-0.393,1.242,0
	l1.75,1.999c0.165,0.188,0.259,0.443,0.259,0.711c0,0.266-0.094,0.521-0.259,0.709l-1.75,1.999c-0.343,0.392-0.899,0.392-1.242,0
	c-0.343-0.391-0.343-1.028,0-1.419l0.262-0.29h-1.749l-1.662,2.999l1.626,2.999h1.749l-0.262-0.29c-0.342-0.392-0.342-1.027,0-1.418
	c0.344-0.393,0.899-0.393,1.242,0l1.75,1.999c0.166,0.187,0.259,0.444,0.259,0.71c0,0.266-0.094,0.522-0.259,0.708l-1.75,2
	C223.073,135.527,222.863,135.63,222.644,135.639L222.644,135.639z M215.646,133.639h-3.498c-0.483,0-0.875-0.448-0.875-0.999
	c0-0.552,0.392-1,0.875-1h3.025l0.308-0.549c0.263-0.465,0.805-0.596,1.211-0.295c0.406,0.301,0.522,0.92,0.258,1.384l-0.568,1
	C216.22,133.465,215.944,133.639,215.646,133.639L215.646,133.639z M215.646,133.639"/>
</svg>
