<?xml version="1.0" encoding="UTF-8"?>
<svg id="_图层_1" data-name="图层 1" xmlns="http://www.w3.org/2000/svg" viewBox="0 0 100 160">
  <defs>
    <style>
      .cls-1, .cls-2, .cls-3, .cls-4, .cls-5, .cls-6, .cls-7, .cls-8, .cls-9, .cls-10, .cls-11, .cls-12, .cls-13, .cls-14, .cls-15, .cls-16, .cls-17, .cls-18, .cls-19, .cls-20, .cls-21, .cls-22, .cls-23, .cls-24, .cls-25, .cls-26, .cls-27, .cls-28 {
        stroke-miterlimit: 22.93;
      }

      .cls-1, .cls-2, .cls-3, .cls-4, .cls-6, .cls-7, .cls-8, .cls-9, .cls-10, .cls-11, .cls-12, .cls-13, .cls-14, .cls-15, .cls-16, .cls-17, .cls-18, .cls-19, .cls-20, .cls-21, .cls-22, .cls-24, .cls-25, .cls-26, .cls-27, .cls-29, .cls-30, .cls-31, .cls-32, .cls-33, .cls-34, .cls-35, .cls-36, .cls-37, .cls-38 {
        fill-rule: evenodd;
      }

      .cls-1, .cls-2, .cls-3, .cls-5 {
        fill: none;
      }

      .cls-1, .cls-3, .cls-4, .cls-5, .cls-8, .cls-9, .cls-10, .cls-11, .cls-12, .cls-13, .cls-14, .cls-16, .cls-17, .cls-18, .cls-19, .cls-20, .cls-21, .cls-22, .cls-23, .cls-24, .cls-25, .cls-26, .cls-27, .cls-38, .cls-28 {
        stroke: #0c0d0d;
      }

      .cls-1, .cls-6, .cls-9, .cls-10, .cls-11, .cls-12, .cls-13, .cls-14, .cls-17, .cls-18, .cls-19, .cls-20, .cls-21, .cls-22, .cls-24, .cls-25, .cls-26, .cls-27, .cls-38, .cls-28 {
        stroke-width: .12px;
      }

      .cls-2 {
        stroke: #030000;
        stroke-width: .23px;
      }

      .cls-3, .cls-7 {
        stroke-width: .09px;
      }

      .cls-39 {
        fill: #203245;
      }

      .cls-40, .cls-16, .cls-32 {
        fill: #0c0d0d;
      }

      .cls-4, .cls-23 {
        stroke-width: .14px;
      }

      .cls-4, .cls-23, .cls-37 {
        fill: #fff;
      }

      .cls-5 {
        stroke-width: .05px;
      }

      .cls-6 {
        fill: #f9d9cf;
      }

      .cls-6, .cls-7 {
        stroke: #231815;
      }

      .cls-7 {
        fill: #edc3b4;
      }

      .cls-8 {
        fill: #465a79;
        stroke-width: .09px;
      }

      .cls-9 {
        fill: #465874;
      }

      .cls-10, .cls-38 {
        fill: #9a9b9a;
      }

      .cls-11 {
        fill: #505150;
      }

      .cls-12 {
        fill: #47597c;
      }

      .cls-13 {
        fill: #485e7c;
      }

      .cls-14 {
        fill: #455b74;
      }

      .cls-15 {
        stroke: #000;
        stroke-width: .16px;
      }

      .cls-15, .cls-35 {
        fill: #9d9c9d;
      }

      .cls-16 {
        stroke-width: 0px;
      }

      .cls-17 {
        fill: #78beea;
      }

      .cls-18 {
        fill: #efc766;
      }

      .cls-19 {
        fill: #f3c245;
      }

      .cls-20 {
        fill: #7bbfea;
      }

      .cls-21 {
        fill: #8f9bb5;
      }

      .cls-22 {
        fill: #c1c0c4;
      }

      .cls-24 {
        fill: #d2d2d2;
      }

      .cls-25 {
        fill: #d2d3d6;
      }

      .cls-26, .cls-33 {
        fill: #d1d1d4;
      }

      .cls-27 {
        fill: #ced0d3;
      }

      .cls-29 {
        fill: #5cb0e3;
      }

      .cls-30 {
        fill: #282929;
      }

      .cls-31 {
        fill: #213348;
      }

      .cls-34 {
        fill: #969696;
      }

      .cls-36 {
        fill: #98a4bd;
      }

      .cls-38 {
        stroke-linejoin: round;
      }

      .cls-28 {
        fill: #7ac1eb;
      }
    </style>
  </defs>
  <g id="_身体" data-name="身体">
    <g id="_身体-2" data-name="身体">
      <path class="cls-26" d="M42.05,84.75s4.07-2.92,8.6-2.64c0,0,3.85-.14,7.37,1.85,0,0,1.4,.59,1.36,1.54-.04,.96-.28,11.88-.28,11.88l-.98,4.23-5.08,4.89h-4.5l-3.68-3.2-1.83-1.59-1.01-4.09-.25-12.47s.15-.41,.28-.39Z"/>
      <path class="cls-3" d="M41.96,89.18s3.28,5.8,6.49,6.97c0,0,4.7,1.96,8.29-3.52l2.54-3.36"/>
      <path class="cls-18" d="M50.57,93.91c1.43,0,2.59-1.16,2.59-2.59s-1.16-2.59-2.59-2.59-2.59,1.16-2.59,2.59,1.16,2.59,2.59,2.59Z"/>
    </g>
    <path class="cls-16" d="M46.76,83.45s5.94-.37,7.61,.04c0,0,1.22,.32,.64,1.44-.99,2.5-8.67,2.42-9.04-.46,0,0-.1-.71,.79-1.02Z"/>
  </g>
  <g id="_脖子" data-name="脖子">
    <path class="cls-8" d="M47.13,78.92c1.02-2.39,6.12-2.16,6.88,.13l-.08,4.82s-.97,1.78-3.22,1.58c0,0-2.84-.01-3.48-1.55l-.14-4.84,.04-.13Z"/>
    <rect class="cls-39" x="47.32" y="81.64" width="6.49" height=".87"/>
  </g>
  <g>
    <g>
      <g>
        <path class="cls-6" d="M31.67,70.46c.84,2.3,3.05,7.6,4.88,9.11l.04,.04,.03,.05c.16,.24,.68,.57,.92,.7,1.23,.66,2.84,.96,4.21,1.11h17.5c1.14-.11,3.38-.49,4.29-1.16h.02s.02-.02,.02-.02c.51-.3,1.09-.82,1.49-1.23,1.14-1.15,2.04-2.55,2.66-4.05,1.07-2.57,2.32-6.05,2.6-8.83,.25-1.88,.47-3.76,.66-5.65,.14-1.39,.28-2.83,.3-4.23v-.02s0-.02,0-.02c.17-1.2,.11-2.71-.04-3.89-.32-2.59-1.23-5.13-3.03-7.07l-.02-.03-.02-.03c-.59-.94-1.68-2.01-2.5-2.72-2.48-2.17-5.49-3.75-8.6-4.82h-.02s-.02-.01-.02-.01c-1.03-.47-2.5-.8-3.61-.97-3-.46-6.06-.2-8.96,.71-1.15,.32-2.39,.84-3.46,1.34-2.23,1.05-4.46,2.46-6.13,4.29l-.02,.02-.02,.02c-.8,.66-1.64,1.65-2.24,2.48-1.39,1.9-2.36,4.11-2.57,6.47-.07,.85-.1,1.73-.11,2.57-.03,1.83,.02,3.69,.21,5.51h0s0,.03,0,.03c.04,1.43,.18,2.93,.35,4.35,.24,1.98,.58,4.05,1.16,5.97Z"/>
        <path class="cls-7" d="M33.62,75.06c.92,1.89,1.98,3.72,2.93,4.51l.04,.04,.03,.05c.16,.24,.68,.57,.92,.7,.93,.5,2.09,.8,3.19,.97l.2-3.24c-5.48,.71-5.14-3.07-5.14-3.07,0,0-1.11,.03-2.18,.06Z"/>
        <path class="cls-7" d="M67.67,75.06c-.92,1.89-1.98,3.72-2.93,4.51l-.04,.04-.03,.05c-.16,.24-.68,.57-.92,.7-.93,.5-2.09,.8-3.19,.97l-.2-3.24c5.48,.71,5.14-3.07,5.14-3.07,0,0,1.11,.03,2.18,.06Z"/>
      </g>
      <circle class="cls-5" cx="39.76" cy="78.92" r=".39"/>
    </g>
    <circle class="cls-5" cx="61.23" cy="78.92" r=".39"/>
  </g>
  <g id="_右大臂" data-name="右大臂">
    <path class="cls-13" d="M66.03,101.9c1.02,0,1.85-.83,1.85-1.85s-.83-1.85-1.85-1.85-1.85,.83-1.85,1.85,.83,1.85,1.85,1.85Z"/>
    <g>
      <path class="cls-27" d="M68.61,106.98c-.82-.62-2.7-2.69-3.06-3.67,0,0-.17-1.06,.48-1.41,0,0,1.18,.05,1.7-1.13,0,0,1.07-.25,2.03,1.15l1.99,3.1s.67,.95-.64,1.94c0,0-1.78,.59-2.52,.02Z"/>
      <path class="cls-36" d="M66.04,102.12l3.14,4.23c-.1,.2-.16,.41-.17,.63-.1-.03-.2-.08-.28-.14-.82-.63-2.63-2.62-2.99-3.57-.05-.36,0-.9,.31-1.15Z"/>
    </g>
  </g>
  <g id="_左小臂" data-name="左小臂">
    <path class="cls-13" d="M35.02,101.9c1.02,0,1.85-.83,1.85-1.85s-.83-1.85-1.85-1.85-1.85,.83-1.85,1.85,.83,1.85,1.85,1.85Z"/>
    <g>
      <path class="cls-27" d="M32.45,106.98c.82-.62,2.7-2.69,3.06-3.67,0,0,.17-1.06-.48-1.41,0,0-1.18,.05-1.7-1.13,0,0-1.07-.25-2.03,1.15l-1.99,3.1s-.67,.95,.64,1.94c0,0,1.78,.59,2.52,.02Z"/>
      <path class="cls-36" d="M35.02,102.12l-3.14,4.23c.1,.2,.16,.41,.17,.63,.1-.03,.2-.08,.28-.14,.82-.63,2.63-2.62,2.99-3.57,.05-.36,0-.9-.31-1.15Z"/>
    </g>
  </g>
  <g id="_左手腕_手掌" data-name="左手腕+手掌">
    <path class="cls-9" d="M30.45,108.51c.79,0,1.43-.64,1.43-1.43s-.64-1.43-1.43-1.43-1.43,.64-1.43,1.43,.64,1.43,1.43,1.43Z"/>
    <path class="cls-25" d="M28.24,108.05s-1.07,2.41-.62,4.19c0,0,1.31,2.33,3.21,1.13,0,0,.37-.42,.59-1.81,0,0,.56-3.03-.25-3.25,0,0-.57,.4-1.31,.07,0,0-.7-.34-.82-1.04,0,0-.57,.2-.8,.69Z"/>
  </g>
  <g id="_左大臂" data-name="左大臂">
    <path class="cls-20" d="M41.31,90.91c1.8,0,3.27-1.47,3.27-3.27s-1.47-3.27-3.27-3.27-3.27,1.47-3.27,3.27,1.47,3.27,3.27,3.27Z"/>
    <path class="cls-12" d="M41.45,88.77c.59,0,1.07-.48,1.07-1.07s-.48-1.07-1.07-1.07-1.07,.48-1.07,1.07,.48,1.07,1.07,1.07Z"/>
    <path class="cls-13" d="M37.72,90.15c-.02-.18,.07-.52,.7-.99,0,0,.92,1.71,2.73,1.74,0,0-.07,.82-.62,1.07-.35,.16-.53,.12-.91,.06-.91-.15-1.81-.88-1.9-1.89Z"/>
    <path class="cls-21" d="M40.4,92.2s.94,.68-.08,2.57l-2.4,4.68s-.84,.94-1.82,.26l.34-.3,.59-1.39s-.84-.37-.31-1.06l.92-1.59h.81s.85-1.54,.85-1.54l.62-1.11s.31-.38-.18-.66c0,0,.28,.06,.49,.02,0,0,.14,.1,.16,.13Z"/>
    <path class="cls-33" d="M36.98,97.97l1.41-2.62h-.74s-.92,1.6-.92,1.6v.02c-.06,.06-.09,.11-.12,.16-.14,.3-.01,.53,.14,.67,.08,.07,.17,.13,.23,.16Z"/>
    <path class="cls-26" d="M36.6,90.64l-3.96,7.46s-1.2,2.47,1.47,2.55c0,0,1.57-.42,2.35-1.24l.6-1.4s-.85-.33-.33-1.02l.8-1.44,.13-.18h.81s1.56-2.81,1.56-2.81c0,0,.09-.3-.27-.5,0,0-1.62-.08-2.02-1.81,0,0-.64-.33-1.14,.39Z"/>
  </g>
  <g id="_左食指" data-name="左食指">
    <path class="cls-14" d="M28.34,111.54s.19-.5,.96-.41c0,0,.38,.04,.43,.52,0,0,.36,1.27,.32,2.36,0,0-.03,.55-.61,.61,0,0-.61,.04-1.09-.57l-.05-1.92s-.06-.41,.03-.59Z"/>
    <path class="cls-14" d="M30.28,117.42s.49,.52,1.08,.17c0,0,.59-.31,.34-1.26,0,0-.17-.5-.61-.88l-1.15-1.11s-.31,.54-1.09,.14c0,0-.31,.29-.09,.64l.26,.25,1.05,1.85s.21,.21,.21,.21Z"/>
    <path class="cls-31" d="M29.21,111.31c-.02,.62-.16,1.39-.69,1.74l.03,.85s0,.06,0,.09c.11,.13,.24,.24,.4,.32,.14,.07,.33,.13,.49,.13,0,0,0,0,0,0,.15-.02,.27-.08,.36-.2,.05-.07,.08-.15,.08-.23,0-.1,0-.21,0-.31-.02-.63-.14-1.38-.32-1.99h0s0-.03,0-.03c-.02-.15-.1-.34-.27-.36-.02,0-.05,0-.07,0Z"/>
    <path class="cls-31" d="M31.52,117.14c.1-.23,.08-.51,.02-.76-.1-.28-.33-.6-.56-.8l-1.01-.98c-.07,.06-.16,.11-.25,.15,.46,.9,1.06,1.7,1.81,2.39Z"/>
  </g>
  <g id="_左中指" data-name="左中指">
    <path class="cls-14" d="M27.3,111.47s-.77,.19-.69,1.56c0,0-.06,1.29,.33,1.65,0,0,.31,.53,.96,.28,0,0,.47-.15,.47-1.06l-.06-1.86s-.03-.46-.53-.55c0,0-.19-.05-.48-.02Z"/>
    <path class="cls-14" d="M27.52,116.05s.14,1.42,1.91,2.1c0,0,.26,.09,.48-.13,0,0,.33-.3,.17-.81l-1.02-1.82s-.49-.6-.97-.58c0,0-.25,.28-.71,.19,0,0,.06,.67,.14,1.04Z"/>
    <path class="cls-31" d="M28.42,115.1c.03,.98,.42,1.95,.88,2.8,.06,.03,.13,.06,.19,.08,.11,.03,.22,0,.3-.09,.16-.15,.18-.4,.12-.6l-1.02-1.81-.23-.23c-.07-.06-.15-.11-.23-.16Z"/>
    <path class="cls-31" d="M28.08,114.48c.02-.15,.05-.3,.09-.45l-.05-1.88s-.01-.11-.01-.16c-.05-.18-.18-.29-.36-.32h0s0,0,0,0c-.05-.01-.12-.02-.17-.02,.06,1.01,.08,2.19-.11,3.18,.07,.02,.15,.02,.23,0,.09-.02,.21-.06,.27-.13,0,0,0,0,0,0,.06-.06,.1-.14,.13-.22Z"/>
  </g>
  <path class="cls-15" d="M48.19,132.87s.77-.65,.69-1.02c-.08-.37-1.22-1.53-1.24-2.84,0,0-.65-1.65-2.45-.93,0,0-1.16,.49-1.44,1.35v.18s1.79-.33,3.05,1.54l1.25,1.82,.15-.11Z"/>
  <g id="_左小腿" data-name="左小腿">
    <path class="cls-11" d="M45.52,121.72c1.38,0,2.5-1.13,2.5-2.5s-1.13-2.5-2.5-2.5-2.5,1.13-2.5,2.5,1.13,2.5,2.5,2.5Z"/>
    <path class="cls-24" d="M43.05,122.2s-.06,4.58,.5,7.23c0,0,.34,1.82,2.09,1.29,0,0,1.98-.96,2.59-3.56l.37-5s.02-1.48-1.05-1.45c0,0-1.18,1.58-3.08,.78,0,0-.7-.34-.97-.79,0,0-.55,.8-.45,1.5Z"/>
    <path class="cls-35" d="M47.91,120.98c-1.07,1.41-.48,3.22-.6,5.26-.13,1.5-1.84,3.52-3.19,2.64-.2-.13-.39-.28-.56-.44,.05,.32,.1,.64,.17,.96,0,.02,0,.05,.02,.07,.86-.07,1.7,.18,2.39,.7,.5-.39,.93-.89,1.26-1.43,.3-.5,.52-1.04,.65-1.61l.37-4.97c0-.4-.21-1.05-.5-1.18Z"/>
  </g>
  <g id="_左脚" data-name="左脚">
    <path class="cls-24" d="M42.61,129.93s-2.22,.83-3.59,4.01c0,0-1.19,1.46-.23,1.8,0,0,5.11,1.88,10.06-.18,0,0,.57-.17,.24-.78,0,0-1.81-3.12-2.71-4.15,0,0-1.44-1.64-3.77-.7Z"/>
    <path class="cls-34" d="M45.92,130.47s.02,.03,.03,.04c.82,1.07,1.43,2.38,1.7,3.71,.03,.15,.06,.33,.08,.48h0s0,.02,0,.02c-.03,.68-2.01,1.2-2.6,1.34-.13,.06-.24,.14-.32,.24,1.36-.1,2.7-.39,3.97-.92h0s0,0,0,0c.26-.08,.24-.31,.13-.51-.56-.98-1.16-1.96-1.79-2.89l-.36-.53c-.17-.24-.34-.48-.53-.7-.02-.03-.05-.05-.07-.08-.05-.05-.1-.09-.15-.13-.03-.03-.06-.05-.1-.08Z"/>
    <path class="cls-1" d="M48.33,133.83s-1.05,.79-3.71,.97m-1.79,.02c-1.13-.04-2.46-.19-4.01-.5"/>
  </g>
  <g id="_左大腿" data-name="左大腿">
    <circle class="cls-28" cx="44.61" cy="104.84" r="3.75"/>
    <path class="cls-11" d="M42.19,109s2.32,2.92,5.8-.43c0,0,.15-1.4-.4-1.44,0,0-.87,1.24-2.49,1.42,0,0-1.26,.31-2.81-.79,0,0-.16,.54-.09,1.24Z"/>
    <path class="cls-24" d="M42.68,118.46s-.83-1.64-.94-4.77c-.11-3.12-.23-3.56-.23-3.56,0,0,0-1.09,.66-1.28l.04,.18s1.46,1.82,3.9,.84c0,0,1.18-.55,1.89-1.31,0,0,.68-.42,.78,.51,0,0-.11,5.79,.01,9.33,0,0,.08,1.36-1.99,1.73l-.1-1.7s-.74-1.73-1.72-2.14c0,0-1.62,.05-2.03,2.29l-.26-.14Z"/>
    <path class="cls-20" d="M42.97,118.87l-.4,1.82s-.45,1.39,2.29,2.18c0,0,1.53,.59,1.95-1.61l-.03-1.12-.1-1.7s-.84-1.83-1.72-2.14c0,0-1.64,.15-2.03,2.29l.03,.27Z"/>
    <path class="cls-34" d="M41.79,111.05c1.51-.5,5.03-1.46,5.41,.6h0s.28,6.1,.28,6.1h0c-.04,.49-.29,1.07-.57,1.47l.04,.69c.32-.07,.64-.19,.91-.36,.37-.23,.74-.68,.72-1.14-.11-3.08-.08-6.24-.01-9.33-.03-.31-.16-.55-.48-.37-.21,.22-.44,.41-.68,.59-.39,.3-.8,.56-1.25,.75-.8,.34-1.63,.42-2.47,.16-.57-.17-1.26-.58-1.65-1.06l-.02-.02c-.25,.22-.34,.69-.35,.98,.06,.23,.08,.63,.1,.93Z"/>
    <path class="cls-20" d="M44.88,103.2s.55-1.4,1.44-1.79c0,0,.59,.08,.39,.54,0,0-1.11,1.54-1.12,1.91v.06s-.76-.65-.76-.65l.05-.07Z"/>
    <path class="cls-29" d="M41.35,103.41c-.2,.45-.3,.93-.3,1.43,0,1.09,.49,2.11,1.34,2.78,.51,.36,1.09,.63,1.7,.74,.17,.03,.35,.04,.53,.04,.15,0,.3,0,.46-.03,.4-.05,.78-.17,1.14-.35,.32-.16,.61-.37,.87-.62,.36-.34,.64-.75,.83-1.21l-1.57-1.36v.72s-.09,.05-.09,.05c-.94,.62-2.11,1.05-3.17,.44-.89-.52-1.42-1.63-1.72-2.63Z"/>
  </g>
  <path class="cls-15" d="M52.84,132.87s-.77-.65-.69-1.02c.08-.37,1.22-1.53,1.24-2.84,0,0,.65-1.65,2.45-.93,0,0,1.16,.49,1.44,1.35v.18s-1.79-.33-3.05,1.54l-1.25,1.82-.15-.11Z"/>
  <g id="_右小腿" data-name="右小腿">
    <path class="cls-11" d="M55.52,121.72c1.38,0,2.5-1.13,2.5-2.5s-1.13-2.5-2.5-2.5-2.5,1.13-2.5,2.5,1.13,2.5,2.5,2.5Z"/>
    <path class="cls-24" d="M57.99,122.2s.06,4.58-.5,7.23c0,0-.34,1.82-2.09,1.29,0,0-1.98-.96-2.59-3.56l-.37-5s-.02-1.48,1.05-1.45c0,0,1.18,1.58,3.08,.78,0,0,.7-.34,.97-.79,0,0,.55,.8,.45,1.5Z"/>
    <path class="cls-35" d="M53.12,120.98c1.07,1.41,.48,3.22,.6,5.26,.13,1.5,1.84,3.52,3.19,2.64,.2-.13,.39-.28,.56-.44-.05,.32-.1,.64-.17,.96,0,.02,0,.05-.02,.07-.86-.07-1.7,.18-2.39,.7-.5-.39-.93-.89-1.26-1.43-.3-.5-.52-1.04-.65-1.61l-.37-4.97c0-.4,.21-1.05,.5-1.18Z"/>
  </g>
  <g id="_右脚" data-name="右脚">
    <path class="cls-24" d="M58.43,129.93s2.22,.83,3.59,4.01c0,0,1.19,1.46,.23,1.8,0,0-5.11,1.88-10.06-.18,0,0-.57-.17-.24-.78,0,0,1.81-3.12,2.71-4.15,0,0,1.44-1.64,3.77-.7Z"/>
    <path class="cls-34" d="M55.12,130.47s-.02,.03-.03,.04c-.82,1.07-1.43,2.38-1.7,3.71-.03,.15-.06,.33-.08,.48h0s0,.02,0,.02c.03,.68,2.01,1.2,2.6,1.34,.13,.06,.24,.14,.32,.24-1.36-.1-2.7-.39-3.97-.92h0s0,0,0,0c-.26-.08-.24-.31-.13-.51,.56-.98,1.16-1.96,1.79-2.89l.36-.53c.17-.24,.34-.48,.53-.7,.02-.03,.05-.05,.07-.08,.05-.05,.1-.09,.15-.13,.03-.03,.06-.05,.1-.08Z"/>
    <path class="cls-1" d="M52.71,133.83s1.05,.79,3.71,.97m1.79,.02c1.13-.04,2.46-.19,4.01-.5"/>
  </g>
  <g id="_右大腿" data-name="右大腿">
    <circle class="cls-28" cx="56.42" cy="104.84" r="3.75"/>
    <path class="cls-11" d="M58.85,109s-2.32,2.92-5.8-.43c0,0-.15-1.4,.4-1.44,0,0,.87,1.24,2.49,1.42,0,0,1.26,.31,2.81-.79,0,0,.16,.54,.09,1.24Z"/>
    <path class="cls-24" d="M58.36,118.46s.83-1.64,.94-4.77c.11-3.12,.23-3.56,.23-3.56,0,0,0-1.09-.66-1.28l-.04,.18s-1.46,1.82-3.9,.84c0,0-1.18-.55-1.89-1.31,0,0-.68-.42-.78,.51,0,0,.11,5.79-.01,9.33,0,0-.08,1.36,1.99,1.73l.1-1.7s.74-1.73,1.72-2.14c0,0,1.62,.05,2.03,2.29l.26-.14Z"/>
    <path class="cls-20" d="M58.07,118.87l.4,1.82s.45,1.39-2.29,2.18c0,0-1.53,.59-1.95-1.61l.03-1.12,.1-1.7s.84-1.83,1.72-2.14c0,0,1.64,.15,2.03,2.29l-.03,.27Z"/>
    <path class="cls-34" d="M59.25,111.05c-1.51-.5-5.03-1.46-5.41,.6h0s-.28,6.1-.28,6.1h0c.04,.49,.29,1.07,.57,1.47l-.04,.69c-.32-.07-.64-.19-.91-.36-.37-.23-.74-.68-.72-1.14,.11-3.08,.08-6.24,.01-9.33,.03-.31,.16-.55,.48-.37,.21,.22,.44,.41,.68,.59,.39,.3,.8,.56,1.25,.75,.8,.34,1.63,.42,2.47,.16,.57-.17,1.26-.58,1.65-1.06l.02-.02c.25,.22,.34,.69,.35,.98-.06,.23-.08,.63-.1,.93Z"/>
    <path class="cls-20" d="M56.16,103.2s-.55-1.4-1.44-1.79c0,0-.59,.08-.39,.54,0,0,1.11,1.54,1.12,1.91v.06s.76-.65,.76-.65l-.05-.07Z"/>
    <path class="cls-29" d="M59.69,103.41c.2,.45,.3,.93,.3,1.43,0,1.09-.49,2.11-1.34,2.78-.51,.36-1.09,.63-1.7,.74-.17,.03-.35,.04-.53,.04-.15,0-.3,0-.46-.03-.4-.05-.78-.17-1.14-.35-.32-.16-.61-.37-.87-.62-.36-.34-.64-.75-.83-1.21l1.57-1.36v.72s.09,.05,.09,.05c.94,.62,2.11,1.05,3.17,.44,.89-.52,1.42-1.63,1.72-2.63Z"/>
  </g>
  <g id="_左大拇指" data-name="左大拇指">
    <path class="cls-14" d="M32.25,108.94c.01,.08-.27,2.21-.11,3.21,0,0,.13,.79-.93,.66,0,0-1.34-.69-1.34-2.26l.1-.87s.45-1.36,1.52-1.6c0,0,.73-.02,.77,.85Z"/>
    <path class="cls-31" d="M32.06,108.87c-.08,.3-.17,.6-.28,.87-.25,.61-.76,1.37-1.49,.87-.09-.05-.16-.12-.22-.2l-.02,.15c0,.84,.46,1.6,1.17,2.04,.01,0,.02,.02,.04,.02,.32,.03,.75-.03,.69-.46-.07-.44-.05-.95-.03-1.39,.02-.41,.05-.81,.09-1.22,.02-.19,.06-.43,.06-.62h0s0-.05,0-.08Z"/>
  </g>
  <g id="_右手腕_手掌" data-name="右手腕+手掌">
    <path class="cls-9" d="M70.61,108.51c.79,0,1.43-.64,1.43-1.43s-.64-1.43-1.43-1.43-1.43,.64-1.43,1.43,.64,1.43,1.43,1.43Z"/>
    <path class="cls-25" d="M72.81,108.05s1.07,2.41,.62,4.19c0,0-1.31,2.33-3.21,1.13,0,0-.37-.42-.59-1.81,0,0-.56-3.03,.25-3.25,0,0,.57,.4,1.31,.07,0,0,.7-.34,.82-1.04,0,0,.57,.2,.8,.69Z"/>
  </g>
  <g id="_右大臂-2" data-name="右大臂">
    <path class="cls-20" d="M59.75,90.91c1.8,0,3.27-1.47,3.27-3.27s-1.47-3.27-3.27-3.27-3.27,1.47-3.27,3.27,1.47,3.27,3.27,3.27Z"/>
    <path class="cls-12" d="M59.61,88.77c.59,0,1.07-.48,1.07-1.07s-.48-1.07-1.07-1.07-1.07,.48-1.07,1.07,.48,1.07,1.07,1.07Z"/>
    <path class="cls-13" d="M63.34,90.15c.02-.18-.07-.52-.7-.99,0,0-.92,1.71-2.73,1.74,0,0,.07,.82,.62,1.07,.35,.16,.53,.12,.91,.06,.91-.15,1.81-.88,1.9-1.89Z"/>
    <path class="cls-21" d="M60.65,92.2s-.94,.68,.08,2.57l2.4,4.68s.84,.94,1.82,.26l-.34-.3-.59-1.39s.84-.37,.31-1.06l-.92-1.59h-.81s-.85-1.54-.85-1.54l-.62-1.11s-.31-.38,.18-.66c0,0-.28,.06-.49,.02,0,0-.14,.1-.16,.13Z"/>
    <path class="cls-33" d="M64.08,97.97l-1.41-2.62h.74s.92,1.6,.92,1.6v.02c.06,.06,.09,.11,.12,.16,.14,.3,.01,.53-.14,.67-.08,.07-.17,.13-.23,.16Z"/>
    <path class="cls-26" d="M64.46,90.64l3.96,7.46s1.2,2.47-1.47,2.55c0,0-1.57-.42-2.35-1.24l-.6-1.4s.85-.33,.33-1.02l-.8-1.44-.13-.18h-.81s-1.56-2.81-1.56-2.81c0,0-.09-.3,.27-.5,0,0,1.62-.08,2.02-1.81,0,0,.64-.33,1.14,.39Z"/>
  </g>
  <g id="_右食指" data-name="右食指">
    <path class="cls-14" d="M72.72,111.54s-.19-.5-.96-.41c0,0-.38,.04-.43,.52,0,0-.36,1.27-.32,2.36,0,0,.03,.55,.61,.61,0,0,.61,.04,1.09-.57l.05-1.92s.06-.41-.03-.59Z"/>
    <path class="cls-31" d="M71.84,111.31c.02,.62,.16,1.39,.69,1.74l-.03,.85s0,.06,0,.09c-.11,.13-.24,.24-.4,.32-.14,.07-.33,.13-.49,.13,0,0,0,0,0,0-.15-.02-.27-.08-.36-.2-.05-.07-.08-.15-.08-.23,0-.1,0-.21,0-.31,.02-.63,.14-1.38,.32-1.99h0s0-.03,0-.03c.02-.15,.1-.34,.27-.36,.02,0,.05,0,.07,0Z"/>
    <g>
      <path class="cls-14" d="M70.77,117.42s-.49,.52-1.08,.17c0,0-.59-.31-.34-1.26,0,0,.17-.5,.61-.88l1.15-1.11s.31,.54,1.09,.14c0,0,.31,.29,.09,.64l-.26,.25-1.05,1.85s-.21,.21-.21,.21Z"/>
      <path class="cls-31" d="M69.54,117.14c-.1-.23-.08-.51-.02-.76,.1-.28,.33-.6,.56-.8l1.01-.98c.07,.06,.16,.11,.25,.15-.46,.9-1.06,1.7-1.81,2.39Z"/>
    </g>
  </g>
  <g id="_右中指" data-name="右中指">
    <g>
      <path class="cls-14" d="M73.54,116.05s-.14,1.42-1.91,2.1c0,0-.26,.09-.48-.13,0,0-.33-.3-.17-.81l1.02-1.82s.49-.6,.97-.58c0,0,.25,.28,.71,.19,0,0-.06,.67-.14,1.04Z"/>
      <path class="cls-31" d="M72.64,115.1c-.03,.98-.42,1.95-.88,2.8-.06,.03-.13,.06-.19,.08-.11,.03-.22,0-.3-.09-.16-.15-.18-.4-.12-.6l1.02-1.81,.23-.23c.07-.06,.15-.11,.23-.16Z"/>
    </g>
    <g>
      <path class="cls-14" d="M73.76,111.47s.77,.19,.69,1.56c0,0,.06,1.29-.33,1.65,0,0-.31,.53-.96,.28,0,0-.47-.15-.47-1.06l.06-1.86s.03-.46,.53-.55c0,0,.19-.05,.48-.02Z"/>
      <path class="cls-31" d="M72.97,114.48c-.02-.15-.05-.3-.09-.45l.05-1.88s.01-.11,.01-.16c.05-.18,.18-.29,.36-.32h0s0,0,0,0c.05-.01,.12-.02,.17-.02-.06,1.01-.08,2.19,.11,3.18-.07,.02-.15,.02-.23,0-.09-.02-.21-.06-.27-.13,0,0,0,0,0,0-.06-.06-.1-.14-.13-.22Z"/>
    </g>
  </g>
  <g id="_右大拇指" data-name="右大拇指">
    <path class="cls-14" d="M68.8,108.94c-.01,.08,.27,2.21,.11,3.21,0,0-.13,.79,.93,.66,0,0,1.34-.69,1.34-2.26l-.1-.87s-.45-1.36-1.52-1.6c0,0-.73-.02-.77,.85Z"/>
    <path class="cls-31" d="M68.99,108.87c.08,.3,.17,.6,.28,.87,.25,.61,.76,1.37,1.49,.87,.09-.05,.16-.12,.22-.2l.02,.15c0,.84-.46,1.6-1.17,2.04-.01,0-.02,.02-.04,.02-.32,.03-.75-.03-.69-.46,.07-.44,.05-.95,.03-1.39-.02-.41-.05-.81-.09-1.22-.02-.19-.06-.43-.06-.62h0s0-.05,0-.08Z"/>
  </g>
  <g id="_耳机" data-name="耳机">
    <g>
      <path class="cls-17" d="M76.74,67.25c0-.08,1.4-5.52,.82-7.97,0,0-.14-.65-.52,.75,0,0-.65,3.42-1.25,3.99,0,0,.58,.71,.31,2.36,0,0-.18,.61,.15,.75,0,0,.17,.09,.5,.11Z"/>
      <path class="cls-19" d="M77.37,69.62s-.53,3.12-2.45,5.16c0,0-1.47,1.98-3.3,1.41,0,0,2.84-3.95,3.73-6.5,0,0,.59-1.71,.66-2.49,0,0,.1-.45,.99,.46,0,0,.77,.52,.36,1.95Z"/>
      <path class="cls-26" d="M74.22,62.35s1.27,.93,1.57,1.68c0,0,.57,.6,.26,2.79,0,0-.35,2.55-1.33,4.33,0,0-3.36,7.26-6.74,7.18h-.11s1.71-2.45,2.23-4.21c0,0,.04-.2,.53,0l.39,.15s2.45-4.11,2.32-5.03c0,0,.24-.1-.87-.79,0,0,1.61-4.08,1.26-5.7,0,0-.06-.65,.5-.41Z"/>
      <path class="cls-38" d="M72.93,74.31c-.74,1.12-1.66,2.29-2.65,3.08-1.09,.81-1.96,.94-2.41,.94h0s1.71-2.44,2.23-4.2c0,0,.04-.2,.53,0l.39,.15s.22-.37,.52-.91l1.39,.93h0Zm.8-10.37h0s0,0,0,0h0Zm-.01-1.18s0-.05,0-.08v.08Z"/>
      <path class="cls-22" d="M67.23,78.19s-.62-.12-.91-.41c0,0,1.23-2.08,1.73-3.31,0,0,1.28-1.46,2.69-9.1,0,0,.95-1.76,2.79-2.85,0,0,.16-.07,.18,.12,0,0,.3,2.29-1.26,5.82,0,0,.7,.34,.89,.72,0,0,.07,.9-1.31,3.27l-1.03,1.83s-.76-.37-.9-.19c0,0,.12,.7-2.25,4.24l-.63-.14Z"/>
      <path class="cls-10" d="M67.23,78.19s-.39-.07-.69-.25c-.08-.06-.14-.12-.19-.2,.17-.28,1.17-2.01,1.66-3.15l.06-.14c.07-.09,.4-.56,.87-1.84h0s0,0,0,0c.37-1.01,.82-2.53,1.31-4.78h0s0-.02,0-.02h0c.16-.74,.32-1.54,.48-2.43h0s0,0,0,0c0,0,.83-1.24,1.69-2.05,.19-.17,.39-.33,.61-.48,.14-.09,.28-.15,.41-.18h.25s0,1.01,0,1.01c0,.12-.02,.25-.03,.39l-.13,.47-.33,.24s-2.63,3.77-1.71,8.6l-.51,.91s-.76-.37-.9-.19c0,0,.12,.7-2.25,4.24l-.63-.14Z"/>
    </g>
    <g>
      <path class="cls-17" d="M24.26,67.25c0-.08-1.4-5.52-.82-7.97,0,0,.14-.65,.52,.75,0,0,.65,3.42,1.25,3.99,0,0-.58,.71-.31,2.36,0,0,.18,.61-.15,.75,0,0-.17,.09-.5,.11Z"/>
      <path class="cls-19" d="M23.63,69.62s.53,3.12,2.45,5.16c0,0,1.47,1.98,3.3,1.41,0,0-2.84-3.95-3.73-6.5,0,0-.59-1.71-.66-2.49,0,0-.1-.45-.99,.46,0,0-.77,.52-.36,1.95Z"/>
      <path class="cls-26" d="M26.78,62.35s-1.27,.93-1.57,1.68c0,0-.57,.6-.26,2.79,0,0,.35,2.55,1.33,4.33,0,0,3.36,7.26,6.74,7.18h.11s-1.71-2.45-2.23-4.21c0,0-.04-.2-.53,0l-.39,.15s-2.45-4.11-2.32-5.03c0,0-.24-.1,.87-.79,0,0-1.61-4.08-1.26-5.7,0,0,.06-.65-.5-.41Z"/>
      <path class="cls-38" d="M28.07,74.31c.74,1.12,1.66,2.29,2.65,3.08,1.09,.81,1.96,.94,2.41,.94h0s-1.71-2.44-2.23-4.2c0,0-.04-.2-.53,0l-.39,.15s-.22-.37-.52-.91l-1.39,.93h0Zm-.8-10.37h0s0,0,0,0h0Zm.01-1.18s0-.05,0-.08v.08Z"/>
      <path class="cls-22" d="M33.76,78.19s.62-.12,.91-.41c0,0-1.23-2.08-1.73-3.31,0,0-1.28-1.46-2.69-9.1,0,0-.95-1.76-2.79-2.85,0,0-.16-.07-.18,.12,0,0-.3,2.29,1.26,5.82,0,0-.7,.34-.89,.72,0,0-.07,.9,1.31,3.27l1.03,1.83s.76-.37,.9-.19c0,0-.12,.7,2.25,4.24l.63-.14Z"/>
      <path class="cls-10" d="M33.76,78.19s.39-.07,.69-.25c.08-.06,.14-.12,.19-.2-.17-.28-1.17-2.01-1.66-3.15l-.06-.14c-.07-.09-.4-.56-.87-1.84h0s0,0,0,0c-.37-1.01-.82-2.53-1.31-4.78h0s0-.02,0-.02h0c-.16-.74-.32-1.54-.48-2.43h0s0,0,0,0c0,0-.83-1.24-1.69-2.05-.19-.17-.39-.33-.61-.48-.14-.09-.28-.15-.41-.18h-.25s0,1.01,0,1.01c0,.12,.02,.25,.03,.39l.13,.47,.33,.24s2.63,3.77,1.71,8.6l.51,.91s.76-.37,.9-.19c0,0-.12,.7,2.25,4.24l.63-.14Z"/>
    </g>
  </g>
  <path id="_嘴巴" data-name="嘴巴" class="cls-1" d="M48.78,76.63s1.27,.79,3.7-.01"/>
  <path class="cls-32" d="M63.45,60.29c-1.3-.5-3.28-.73-4.43-.14-.43,.22-1.2,.72-1.35,1.49,0,0,.03,.58,.75,.65,.51,.05,.56-.05,.94-.28,1.5-.89,3.8-1.27,4.37-.89,.23,.15,.72,.02,.5-.36-.15-.25-.51-.37-.77-.47Z"/>
  <path class="cls-32" d="M37.69,60.29c1.3-.5,3.28-.73,4.43-.14,.43,.22,1.2,.72,1.35,1.49,0,0-.03,.58-.75,.65-.51,.05-.56-.05-.94-.28-1.5-.89-3.8-1.27-4.37-.89-.23,.15-.72,.02-.5-.36,.15-.25,.51-.37,.77-.47Z"/>
  <path class="cls-4" d="M40.61,75.32c2.62,0,4.75-2.14,4.75-4.75s-2.14-4.75-4.75-4.75-4.75,2.14-4.75,4.75,2.14,4.75,4.75,4.75Z"/>
  <path class="cls-32" d="M40.65,73.89c1.8,0,3.27-1.47,3.27-3.27s-1.47-3.27-3.27-3.27-3.27,1.47-3.27,3.27,1.47,3.27,3.27,3.27Z"/>
  <path class="cls-37" d="M39.05,70.6c.59,0,1.08-.48,1.08-1.08s-.48-1.08-1.08-1.08-1.08,.48-1.08,1.08,.48,1.08,1.08,1.08Z"/>
  <g>
    <circle class="cls-23" cx="60.68" cy="70.47" r="4.75"/>
    <circle class="cls-40" cx="60.73" cy="70.53" r="3.27"/>
    <path class="cls-37" d="M59.12,70.51c.59,0,1.08-.48,1.08-1.08s-.48-1.08-1.08-1.08-1.08,.48-1.08,1.08,.48,1.08,1.08,1.08Z"/>
  </g>
  <g id="_头发" data-name="头发">
    <path class="cls-30" d="M77.11,53.39c-.04-.53-.04-1.04,.01-1.54h0c0-.12,0-.24,0-.34l-.08-1.71,1.47,.87c.27,.16,.54,.31,.81,.45,0,0,0,0,.01,0-.46-.62-1.01-1.53-1.22-1.85-.45-.71-.89-1.41-1.33-2.12l-.03-.05-.03-.06c-.86-1.93-2.25-3.98-3.61-5.61h0c-.43-.42-.89-.81-1.37-1.18l-2.25-1.74,2.84,.08s.05,0,.07,0c-1.11-.57-2.67-1.78-3.42-2.34-1.25-.95-2.49-1.93-3.69-2.92l-.02-.02c-1.66-1.18-3.56-1.59-5.56-1.45l-2.59,.17,1.89-1.77c1.17-1.09,3.58-3.52,3.92-5.27-1.2,.94-2.67,1.84-4.21,2.52,.18-.3,.3-.5,.3-.5l-7.04,1.8s.14,.14,.35,.32c-.17,.05-.34,.1-.53,.16-1.43,.46-3.02,1.12-4.21,2.04-.57,.44-1.11,.99-1.42,1.64l-.35,.73-.77-.25c-1.94-.62-3.94-.16-5.72,.7l1.89-.09-5.15,2.05c-.33,.13-.65,.27-.96,.43-3,1.49-5.4,4.12-7.12,6.95-.1,.16-.19,.32-.29,.49-.06-.28-.1-.47-.1-.47-.08,.13-2.81,4.26-2.81,4.26,0,0,.08,.03,.19,.07-.6,.58-1.26,1.14-1.94,1.58-.68,.44-1.56,.9-2.41,.84,.06,.05,.12,.09,.18,.12,.67,.37,1.52,.22,2.2-.02l1.87-.67-.69,1.86c-.2,.54-.32,1.11-.27,1.68l1.95-2.63-.56,3.68c-.1,.66-.14,1.4-.02,2.08-.48,1.18-.76,2.79,.04,4.5l.21-.07c.79,2.43,1.06,5.45,.37,7.85,.46-.38,.92-.82,1.28-1.24l1.01-1.17,.55,1.44c.35,.9,.78,1.77,1.28,2.59-.18-1.63-.2-3.44-.06-5.01l.29-3.26c.28,.11,.56,.2,.79,.27l.74,2.84c.46,1.76,1.25,3.39,2.28,4.88-.1-.72-.12-1.51-.1-2.18,.07-2.19,.66-4.32,1.74-6.23,.01-.08,.03-.16,.05-.24l.04-.17,1.41-2.13c.89-1.37,2.32-2.81,3.68-3.69,.68-.71,1.35-1.44,1.97-2.2l1.55-1.88,.09,2.43c.08,2.12,.68,4.24,1.52,6.18,.28,.64,.62,1.34,.99,1.98l-.51-3.18,2.21,2.81c.65,.82,1.47,1.52,2.45,1.91,.25,.1,.6,.21,.91,.26-.02-.25,0-.55-.01-.77,0-.56-.01-1.12-.01-1.67v-2.72s1.66,2.14,1.66,2.14c.14,.19,.44,.53,.72,.7-.17-.53-.34-1.1-.43-1.64-.09-.58-.06-1.21,.47-1.59,.79-.57,2.02,.16,2.84,.41,1.07,.34,2.09,.41,3.16,.09,0,0-.02-.02-.03-.03l-.55-.6,1.04-1.25,.69,.44c1.5,.95,3.04,2.73,4.08,4.28l-.03-2.19,1.76,2.8c1.49,2.36,3.62,4.29,6.57,4.07,.96-.07,2.11-.42,2.99-.92-.43-.1-.88-.3-1.21-.48l-.74-.41,.34-.78c.65-1.48,.8-3.76,.83-5.36l.02-1.47-.58-.56-.52-.52h.3l1.51,1.39h1.45s-1.19-3.58-1.19-3.58l-.07-.03Z"/>
    <g>
      <g>
        <path class="cls-2" d="M47.96,47.55s-2.55,4.28-.76,14.89c0,0-3.6-5.38-2.85-10.96,.37-2.76,1.82-5.57,5.3-7.8"/>
        <path class="cls-2" d="M49.69,42.02s-12.49,3.93-12.44,16.93c0,0,1.4-2.19,3.65-3.65,0,0,3.19-3.26,3.59-4.65"/>
        <path class="cls-2" d="M36.36,48.93s-10.25,10.6-2.09,21.57c0,0-1.1-4.44,1.5-9.02,0,0,1.07-5.45,2.14-7.52"/>
        <path class="cls-2" d="M34.01,48.29s-11.47,10.91-3.82,22.48c0,0-.91-6.58,.96-9.79"/>
        <path class="cls-2" d="M39.62,44.46s-16.21,7.75-14.63,15.35c0,0,2.01,4.95,.54,9.1,0,0,2.28-1.67,2.51-2.95"/>
        <path class="cls-2" d="M25.25,56.92c-1.06-2.65,1.25-7.18,1.25-7.18l-2.75,3.72c-.48-2.29,1.76-4.56,1.76-4.56-4.21,3.16-5.4,.94-5.4,.94,3.1,1.12,6.37-4.42,7.69-6.59,2.66-4.38,9.46-12.34,21.09-5.88"/>
        <path class="cls-2" d="M48.67,36.03s-3.21-5.63-10.12-1.84c0,0,3.39-.18,4,.97"/>
        <path class="cls-2" d="M56.81,32.14s6.19-4.78,6.25-7.66c-4.47,3.72-6.85,3.06-11.37,4.51-2.21,.71-5.63,2.18-5.99,4.62"/>
        <path class="cls-2" d="M50.1,35.34s8.95-6.76,15.19-2.29c0,0,4.44,4.25,7.03,5.13,.49,.17,.58,.15,1.03,.26,.76,.18,1.6,.18-.75,.17-1.24,0-3.27-.17-4.98-1.03"/>
        <path class="cls-2" d="M58.46,35.77s8.67-.41,14.68,5.4c0,0,2.37,2.8,3.65,5.68,0,0,2.7,4.36,3.08,4.56,.38,.2-3.19-1.12-6.93-5.25,0,0-11.04-9.38-22.15-6.07"/>
        <path class="cls-2" d="M51.45,42.04s10.6-2.65,22.03,11.62c0,0,4.67,4.89,5.61,4.77,0,0-2.31-3.13-1.91-6.73,0,0,.18-2.18-1.4-2.75"/>
        <path class="cls-2" d="M57.34,43.52s5.66,3.21,11.06,12.34c5.4,9.13,8.92,9.08,8.92,9.08,0,0-7.28,5.18-11.82-6.34"/>
        <path class="cls-2" d="M53.26,43.11s12.24,2.55,12.49,18.71c0,0-3.52-5.61-6.78-5.46"/>
        <path class="cls-2" d="M51.94,44.95s3.11,3.57,4.64,6.53c0,0,3.01,6.17,4.08,7.04,0,0-4.38,1.63-8.41-3.26"/>
        <path class="cls-2" d="M50.87,46.28s2.04,7.65,1.22,11.78c0,0,0,5.25,.05,5.61,0,0-3.91-.1-5.53-6.27"/>
        <path class="cls-2" d="M52.31,58.5s1.13,2.82,2.26,2.92c0,0-1.16-3.63-.92-4.82"/>
        <path class="cls-2" d="M76.22,56.22s.36,5.99-1.25,7.96"/>
      </g>
      <path class="cls-2" d="M32.58,43.58s5.92-5.27,15.19-3.31"/>
    </g>
  </g>
</svg>