<?xml version="1.0" encoding="UTF-8"?>
<svg id="_图层_3" data-name="图层 3" xmlns="http://www.w3.org/2000/svg" viewBox="0 0 100 160">
  <defs>
    <style>
      .cls-1, .cls-2, .cls-3, .cls-4, .cls-5, .cls-6, .cls-7, .cls-8, .cls-9, .cls-10, .cls-11, .cls-12, .cls-13, .cls-14, .cls-15, .cls-16, .cls-17, .cls-18, .cls-19, .cls-20, .cls-21, .cls-22, .cls-23, .cls-24, .cls-25 {
        stroke-miterlimit: 22.93;
      }

      .cls-1, .cls-2, .cls-3, .cls-5 {
        fill: none;
      }

      .cls-1, .cls-2, .cls-4, .cls-6, .cls-7, .cls-8, .cls-9, .cls-10, .cls-11, .cls-12, .cls-26, .cls-13, .cls-14, .cls-15, .cls-16, .cls-17, .cls-19, .cls-27, .cls-28, .cls-29, .cls-30, .cls-31, .cls-32, .cls-33, .cls-34, .cls-35, .cls-36 {
        fill-rule: evenodd;
      }

      .cls-1, .cls-4, .cls-6, .cls-7, .cls-8, .cls-9, .cls-10, .cls-11, .cls-12, .cls-13, .cls-14, .cls-15, .cls-16, .cls-17, .cls-19, .cls-21, .cls-22, .cls-23, .cls-24, .cls-36 {
        stroke: #0c0d0d;
      }

      .cls-1, .cls-7, .cls-8, .cls-9, .cls-10, .cls-12, .cls-13, .cls-14, .cls-15, .cls-16, .cls-17, .cls-19, .cls-20, .cls-21, .cls-22, .cls-23, .cls-24 {
        stroke-width: .12px;
      }

      .cls-2, .cls-5, .cls-26, .cls-25 {
        stroke: #030000;
        stroke-width: .23px;
      }

      .cls-37 {
        fill: #030000;
      }

      .cls-38 {
        fill: #203245;
      }

      .cls-39, .cls-11, .cls-30 {
        fill: #0c0d0d;
      }

      .cls-40 {
        fill: #47597c;
      }

      .cls-3, .cls-18 {
        stroke: #000;
      }

      .cls-3, .cls-18, .cls-36 {
        stroke-width: .11px;
      }

      .cls-4 {
        stroke-width: .14px;
      }

      .cls-4, .cls-35 {
        fill: #fff;
      }

      .cls-6 {
        fill: #465a79;
        stroke-width: .09px;
      }

      .cls-7 {
        fill: #465874;
      }

      .cls-8 {
        fill: #505150;
      }

      .cls-9 {
        fill: #485e7c;
      }

      .cls-10 {
        fill: #455b74;
      }

      .cls-11 {
        stroke-width: 0px;
      }

      .cls-12 {
        fill: #78beea;
      }

      .cls-26 {
        stroke-linejoin: round;
      }

      .cls-26, .cls-28, .cls-25 {
        fill: #282929;
      }

      .cls-13 {
        fill: #7bbfea;
      }

      .cls-14 {
        fill: #8f9bb5;
      }

      .cls-15, .cls-18, .cls-32 {
        fill: #d2d2d2;
      }

      .cls-16 {
        fill: #d2d3d6;
      }

      .cls-17, .cls-31, .cls-24 {
        fill: #d1d1d4;
      }

      .cls-19 {
        fill: #ced0d3;
      }

      .cls-20 {
        fill: #f9d9cf;
        stroke: #231815;
      }

      .cls-27 {
        fill: #5cb0e3;
      }

      .cls-29 {
        fill: #213348;
      }

      .cls-33 {
        fill: #9d9c9d;
      }

      .cls-34 {
        fill: #98a4bd;
      }

      .cls-21 {
        fill: #efc766;
      }

      .cls-22 {
        fill: #f3c245;
      }

      .cls-23 {
        fill: #7ac1eb;
      }

      .cls-36 {
        fill: #969696;
        stroke-miterlimit: 10;
      }
    </style>
  </defs>
  <path class="cls-8" d="M51.38,120.57c-.2,.3-.67,.91-1.41,1.16-1.44,.49-2.6-.81-2.72-.95-.06-.19-.12-.46-.15-.79-.03-.33-.01-.61,0-.82,.27,.2,.51,.33,.7,.43,.14,.07,.37,.18,.69,.26,.18,.05,.4,.1,.68,.09,.15,0,.35-.03,.65-.14,.68-.24,1.34-.71,1.62-.91,0,.05,0,.11,0,.17,0,0,0,.08,0,.17,0,.09-.03,.61-.07,1.33Z"/>
  <g>
    <path class="cls-18" d="M56.11,85.22c-.1-.07-.5-.32-.62-.39-.12-.07-.23-.13-.3-.17,0,0,0,0,0,0-.24-.13-.42-.22-.42-.22-.41-.2-.76-.35-1-.44,0,0,0,0,0,0-2.59-.83-7.06-1.75-11.24,.28-.38,.19-.75,.39-1.09,.61-.14,.1-.34,.26-.54,.47-.63,.7-.79,1.49-.88,1.94-.17,.86-.05,1.6,.06,2.05h0c.32,2.51,.65,4.71,.95,6.56,.06,.35,.38,2.22,1.01,3.82,.13,.33,.27,.66,.44,1,.13,.26,.59,1.2,1.05,1.82,2.41,3.25,8.07,4.6,9.39,3.6,.21-.16,.55-.56,.63-.65,0,0,0,0,.01-.02,.75-.88,1.3-1.82,1.3-1.82,.51-.86,.84-1.67,1.05-2.29,.22-.72,.49-1.67,.75-2.81,.4-1.77,.61-2.65,.67-3.83,0,0,.21-2.32-.18-6.14-.03-.26-.06-.51-.06-.51-.01-.08-.08-.54-.18-.96-.21-.92-.37-1.59-.82-1.91Z"/>
    <path class="cls-3" d="M41.1,96.72c.43,.13,1.1,.28,1.8,.12,3.44-.8,2.58-7.99,4.95-8.3,1.49-.2,3.44,2.43,3.52,2.55,.38,.52,.2,.44,1.05,1.96,1.3,2.32,1.86,2.76,2.4,3.03,.74,.37,1.52,.46,2.1,.47"/>
  </g>
  <g>
    <path class="cls-15" d="M45.94,108.7c.35-.2,.62,.24,2.07,.65,.45,.13,1.04,.27,1.75,.15,.04,0,.09-.01,.16-.03,1.2-.25,1.58-1.24,1.99-1.12,.37,.11,.44,1.05,.51,2.1,.04,.61-.24,6.45-.23,6.68,.02,.75,.04,.98-.08,1.25-.09,.2-.21,.32-.37,.49-.61,.62-1.36,.86-1.84,.99-.43,.12-.67,.18-1.01,.2-.2,.01-2.18,.13-3.01-1.08-.29-.42-.33-.85-.37-1.51-.05-.74-.08-1.21-.07-2.13,.03-2.56,.04-3.85,.02-4.16,0-.09-.05-.55,.03-1.16,.09-.69,.15-1.16,.45-1.33Z"/>
    <path class="cls-33" d="M50.04,119.62c.38-.85,.81-2.11,.91-3.69,.05-.76,.01-1.45-.06-2.03,0,0-.05-.47-.22-1.06-.26-.94-.71-1.56-.9-1.8-.16-.19-.34-.38-.34-.38-.17-.17-.43-.37-.52-.46-.03-.03-.04-.05-.06-.07,0,0-.01-.02-.02-.04-.03-.04-.08-.19-.12-.4,.31,.04,.57,.03,.77,.02,.15-.01,.41-.04,.74-.14,.36-.12,.59-.27,.65-.31,.02-.01,.04-.03,.06-.04,.09-.07,.26-.19,.42-.34,.19-.19,.23-.3,.39-.34,.04-.01,.07-.02,.1-.02,0,0,.02,0,.04,.01,.15,.06,.19,.28,.26,.67,.06,.33,.09,.5,.09,.51,.04,.31,.06,.56,.07,.74,0,.19,.01,.36,.01,.55,0,.16-.28,3.93-.28,5.95,0,.42,0,.76,0,.99-.03,.17-.11,.44-.3,.7-.23,.31-.51,.46-.82,.62-.2,.1-.49,.24-.87,.33Z"/>
  </g>
  <path class="cls-11" d="M47.13,83.5c.69-.05,1.03-.07,1.52-.07,.68,0,1.62,.04,2.75,.21,.28,.01,.64,.06,1.01,.17,.16,.05,.17,.07,.46,.18,.41,.15,.5,.15,.57,.23,.16,.2-.02,.52-.09,.63-.07,.12-.18,.28-.7,.65-.26,.19-.47,.34-.72,.47-.86,.47-1.81,.58-2.1,.61-.51,.06-2.54,.22-4.17-.88-.21-.14-1.25-.84-1.06-1.38,.07-.19,.26-.29,.54-.43,.5-.25,.99-.33,1.99-.4Z"/>
  <g id="_脖子" data-name="脖子">
    <path class="cls-6" d="M45.66,80.13c1-1.87,6-1.69,6.76,.1l-.08,3.76s-.95,1.39-3.17,1.23c0,0-2.79,0-3.42-1.21l-.14-3.77,.04-.1Z"/>
    <rect class="cls-38" x="45.85" y="82.24" width="6.37" height=".68"/>
  </g>
  <path class="cls-20" d="M29.63,68.45c.16,2.57,.51,4.79,1.55,7.07,.71,1.55,1.41,2.42,1.94,2.97,.26,.27,1.16,1.17,2.67,1.96,3.46,1.8,7.91,1.83,8.63,1.83,7.3,0,10.95,0,13.05-.94,7.75-3.43,12.4-16.39,8.87-25.89-5.9-15.87-32.83-17.44-36.91-11.4-1.97,2.91,1.24,6.81,.24,17.45-.01,.12-.29,3.06-.04,6.95Z"/>
  <g>
    <path class="cls-4" d="M35.07,75.06c.08,.07,1.18,.71,2.4,.35,2.44-.73,3.48-5.01,2.25-7.54-.2-.42-.84-1.73-2.14-2.05-.18-.04-.63-.13-1.16,0-1.21,.3-1.81,1.5-2.09,2.05-1.08,2.13-1.19,5.65,.74,7.19Z"/>
    <path class="cls-30" d="M36.08,74.74c1.24,.43,2.45-.98,2.7-3.14s-.55-4.28-1.79-4.72c-1.24-.43-2.45,.98-2.7,3.14-.25,2.16,.55,4.28,1.79,4.72Z"/>
    <path class="cls-35" d="M35,69.33c.17,.15,.43,.01,.59-.31s.16-.71-.01-.86-.43-.01-.59,.31-.16,.71,.01,.86Z"/>
  </g>
  <path id="_嘴巴" data-name="嘴巴" class="cls-1" d="M35.79,80.08c.12,.09,.37,.26,.73,.31,.58,.08,1.01-.2,1.14-.28,.53-.36,.69-.9,.73-1.04"/>
  <g>
    <g>
      <g>
        <g>
          <g>
            <g>
              <g>
                <path class="cls-28" d="M54.39,82.66c-.11,0-.16-.02-.17-.04-.04-.08,.28-.37,.57-.62,.5-.44,1.26-1.12,1.96-2.14,1.04-1.53,1.53-3.19,1.73-4.05,.03-.11,.06-.2-.04-.24,0,0,0,0-.01,0-.03,0-.07,.03-.09,.04-.03,.02-.06,.08-.07,.11-.04,.13-.09,.31-.17,.5-.62,1.5-2.05,2.52-2.38,2.52,0-.05,.22-.35,.43-.63,.64-.89,1.84-2.55,2.16-4.87,.29-2.13-.28-3.87-.32-3.93-.02-.02-.05-.04-.09-.04h0s-.07,.02-.09,.05c-.02,.03,0,.16,0,.19,.49,2.2,.13,2.66-.04,2.76-.05,.03-.11,.04-.18,.04-.85,0-2.64-1.93-3.57-3.07-.84-1.04-2.81-3.46-3.19-6.85-.03-.28-.05-.55-.07-.78-.04-.57-.05-.77-.22-.78-.45,0-.73,3.71-.75,5.29-.03,2.6,.32,3.68,.59,4.26,.21,.46,.43,.81,.6,1.06,.1,.16,.21,.33,.21,.38-.26-.05-1.82-1.46-3.1-2.78-.31-.32-.74-.76-.89-1.43-.11-.48-.06-.94-.03-1.16,.02-.14,.03-.25-.09-.26h0c-.12,0-.13,.04-.22,.54-.04,.22-.09,.5-.15,.76-.29,1.28-.82,2.18-1.56,3.42-.5,.85-.8,1.23-.94,1.36,.02-.05,.03-.13,.04-.21,.02-.17,.05-.4,.07-.7,0-.02,.02-.44-.03-1.25-.14-2.11-.97-4.49-.98-4.51-.1-.29-2.55-7.2-2.88-7.2-.19,.06-.18,.1,.23,1.31,.29,.87,.89,2.67,.75,2.89,.01-.03-.1-.19-.22-.33-.2-.27-.5-.67-.97-1.14-.5-.5-.83-.72-1.17-.96-.33-.22-.66-.45-1.17-.94-.42-.41-.72-.8-.94-1.09-.25-.33-.38-.5-.53-.5-.26,.1-.27,.4-.11,1.09,.19,.82,.64,1.62,1.33,2.37,.15,.17,.3,.31,.43,.43-.63-.36-1.59-.96-2.58-1.79-1.11-.92-2.11-1.75-2.99-3.2-.3-.49-.99-1.63-1.31-3.25-.07-.34-.12-.69-.16-.96-.08-.54-.08-.6-.21-.6-.1,0-.22,.02-.12,1.5,.07,1.09,.25,1.74,.55,2.82,.1,.38,.22,.81,.36,1.33,.27,1.04,.37,1.59,.45,1.98,.09,.47,.14,.73,.36,1.31,.28,.73,.59,1.38,.82,1.84,.03,.06,.06,.12,.08,.17-.06-.07-.11-.15-.17-.22-.49-.67-.81-1.07-1.03-1.07-.49,.24,.19,2.04,.27,2.24,.13,.33,.23,.52,.31,.68,.1,.2,.19,.36,.28,.7,.04,.15,.07,.29,.09,.41,.06,.3,.11,.54,.31,.84,.12,.19,.26,.33,.37,.43-.38-.12-1.07-.4-1.82-.8-1.16-.62-2.02-1.08-2.82-1.99-.51-.58-1.02-1.36-1.36-1.88l-.35-.54q-.31-.49-.39-.49c-.05,0-.1,.04-.11,.09-.01,.05,0,.07,.09,.2,.23,.33,.92,1.34,1.28,2.65,.33,1.21,.27,2.35,.16,2.93-.04-.48-.16-1.27-.67-1.93l-.14-.17c-.12-.15-.29-.36-.52-.68,0,0-.3-.42-.56-.86-1.11-1.86-1.65-5.02-1.66-5.05-.49-2.91-.25-5.2-.12-6.05,.18-1.25,.49-2.41,.77-3.42,.01-.05,.28-1.04,.76-2.35,.52-1.44,.92-2.27,1.67-2.76l.41-.25c1.77-1.09,1.74-1.15,1.68-1.25-.02-.03-.06-.05-.1-.05h0s-.06,.01-.19,.1c-.31,.21-1.13,.76-2.25,1.17-.81,.29-1.66,.44-2.09,.45,.08-.03,.18-.07,.27-.1,.75-.28,2.15-.79,3.51-1.97,.33-.28,.49-.46,.68-.67,.22-.24,.47-.51,1.05-1.03,.18-.16,1.12-.97,2.45-1.9,.21-.15,.38-.26,.56-.37,.16-.1,.34-.2,.56-.32l.22-.12s2.79-1.56,4.61-1.86l.21-.04c.12-.02,.24-.04,.36-.06l.25-.03c.14-.01,.21-.02,.27-.1,.14-.21-.11-.52-.55-1.02-.02-.02-.04-.05-.06-.07,.24,.16,.58,.35,1.01,.48,.16,.05,.28,.08,.39,.09,.17,.02,.32,.03,.45,.03h.16c.25-.02,.4-.04,.55-.07,.1-.02,.2-.03,.34-.05,.22-.02,.39-.03,.54-.03h.29c.23,0,.43-.01,.71-.09,.15-.04,.27-.09,.35-.12,.05-.04,.11-.13,1.29-1.96,.97-1.5,2.52-2.2,3.03-2.43,.44-.2,.81-.33,1.17-.42,.4-.1,.68-.12,.93-.15,.28-.03,.52-.05,.84-.16,.45-.15,.77-.4,1.4-.89,.7-.54,1.41-1.11,2.04-2.04,.4-.59,.62-1.12,.75-1.44,0-.01,0-.02,.01-.04-.02,.33-.12,.91-.29,1.58-.19,.73-.48,1.63-1.37,3.28-.42,.78-.8,1.42-1.11,1.93-.63,1.06-.92,1.54-.68,1.79,.06,.06,.13,.09,.23,.09,.08,0,.16-.02,.27-.04,.09-.02,.2-.04,.33-.06,.12-.02,.24-.02,.36-.02,.59,0,1.13,.19,1.96,.51,2.7,1.04,4.04,1.56,5.3,2.32,1.21,.73,2.08,1.26,2.94,2.04,.19,.17,.71,.65,1.48,1.15,.39,.26,.73,.48,1.22,.66,.35,.13,.62,.19,.81,.24,.1,.02,.21,.05,.23,.06-.07,.01-.61,.21-1.28,.21h-.17c-.19-.01-.33-.04-.43-.06-.07-.01-.13-.02-.16-.02-.04,0-.13,.04-.15,.08-.1,.18,.11,.34,1.24,1.09,.58,.39,1.24,.83,1.78,1.26,2.37,1.88,3.39,4.33,4.21,6.31,1.19,2.85,1.46,5.29,1.59,6.47,.12,1.05,.39,4.14,.51,6.08,.04,.59,.07,1.22,.22,2.07,.16,.94,.32,1.68,.32,1.68,.1,.69,.12,1.04,.12,1.21-.02-.03-.03-.07-.04-.1-.13-.29-.29-.66-.57-.69h0c-.39,0-.59,.59-.91,1.57-.27,.82-.61,1.85-1.16,2.91-1.33,2.57-3.66,4.9-5.54,5.54-.34,.11-.83,.28-1.4,.65-.55,.36-.84,.68-1.2,1.1-.17,.2-.36,.41-.61,.67-.22,.23-.29,.28-.55,.49-.24,.19-.64,.51-1.46,1.2-.36,.3-.64,.54-.87,.74-.74,.63-.96,.83-1.46,1.06-.72,.34-1.37,.47-1.68,.49,0,0,0,0,0,0,.17-.12,.44-.31,.72-.64,.36-.43,.6-.96,.58-1.09,0-.03-.03-.07-.06-.09-.02,0-.04,0-.05,0-.1,0-.13,.05-.22,.17-.08,.1-.19,.26-.34,.41-.45,.45-.95,.63-1.44,.78-1.45,.45-2.42,.75-2.84,.75Z"/>
                <path class="cls-37" d="M55.75,25.63c-.04,.23-.1,.48-.17,.75-.19,.72-.48,1.62-1.36,3.26-.41,.77-.8,1.41-1.11,1.93-.67,1.11-.97,1.61-.66,1.93,.08,.08,.18,.12,.31,.12,.08,0,.17-.02,.29-.04,.09-.02,.19-.04,.32-.06,.12-.02,.23-.02,.35-.02,.57,0,1.1,.19,1.91,.5,2.68,1.04,4.03,1.56,5.28,2.32,1.2,.73,2.07,1.25,2.94,2.04,.18,.16,.71,.64,1.48,1.15,.4,.26,.74,.48,1.25,.67,.23,.09,.44,.15,.6,.19-.21,.05-.49,.1-.79,.1-.05,0-.11,0-.16,0-.18,0-.32-.03-.42-.05-.08-.01-.14-.02-.18-.02-.16,0-.23,.1-.25,.14-.16,.29,.15,.49,1.28,1.24,.58,.39,1.23,.82,1.78,1.25,2.34,1.86,3.36,4.3,4.19,6.28,1.17,2.81,1.44,5.24,1.58,6.41,.12,1.05,.39,4.14,.51,6.08v.08c.04,.51,.08,1.15,.22,2,.15,.89,.3,1.6,.32,1.67,.04,.26,.06,.47,.08,.64-.12-.18-.27-.32-.49-.34-.45,0-.64,.59-.99,1.65-.27,.82-.6,1.84-1.15,2.9-1.3,2.5-3.65,4.86-5.47,5.49l-.07,.02c-.27,.09-.77,.26-1.36,.64-.56,.36-.86,.7-1.23,1.12-.17,.19-.36,.41-.61,.66-.21,.22-.27,.26-.54,.48-.24,.19-.65,.52-1.47,1.21-.36,.3-.64,.54-.87,.74-.73,.63-.95,.82-1.43,1.05-.45,.21-.88,.34-1.2,.41,.12-.1,.26-.23,.39-.39,.31-.37,.64-.97,.61-1.18-.01-.07-.05-.13-.11-.17-.04-.02-.08-.04-.13-.04-.13,0-.2,.09-.3,.23-.08,.11-.19,.25-.33,.39-.43,.43-.92,.61-1.39,.75-1.44,.45-2.4,.74-2.8,.74,0,0,0,0-.01,0,.09-.11,.3-.29,.48-.46,.51-.45,1.27-1.13,1.98-2.17,1.05-1.54,1.55-3.22,1.75-4.08,.03-.09,.09-.31-.12-.38-.02,0-.05-.01-.08-.01-.18,0-.22,.16-.25,.27-.03,.1-.09,.28-.16,.47-.5,1.2-1.48,2.04-1.99,2.34,.07-.1,.16-.22,.24-.34,.65-.9,1.86-2.57,2.18-4.93,.29-2.12-.26-3.92-.35-4.02-.04-.05-.11-.08-.17-.08,0,0,0,0-.01,0-.07,0-.14,.04-.18,.1-.06,.09-.05,.15-.02,.28,.5,2.24,.1,2.59,.01,2.64-.03,.02-.08,.03-.13,.03-.7,0-2.3-1.57-3.48-3.03-.83-1.03-2.79-3.43-3.17-6.79-.03-.28-.05-.55-.07-.77-.04-.61-.06-.87-.34-.88-.73,0-.85,5.35-.85,5.4-.03,2.63,.33,3.72,.6,4.31,.19,.41,.39,.74,.54,.98-.61-.46-1.71-1.49-2.65-2.44-.3-.31-.72-.73-.86-1.37-.1-.46-.05-.91-.03-1.12,.01-.13,.04-.36-.22-.39-.21,0-.23,.11-.33,.64-.04,.22-.09,.5-.15,.76-.29,1.26-.82,2.16-1.55,3.39-.28,.47-.49,.8-.65,1.01,.02-.14,.03-.3,.04-.49,0-.02,.02-.45-.03-1.26-.14-2.12-.95-4.44-.99-4.54-2.57-7.27-2.87-7.27-2.99-7.27-.03,0-.06,0-.09,.02-.25,.1-.22,.17,.2,1.45,.21,.64,.61,1.83,.73,2.45-.2-.27-.51-.67-.98-1.14-.51-.51-.85-.74-1.19-.97-.32-.22-.66-.45-1.15-.93-.42-.4-.71-.79-.93-1.07-.27-.36-.41-.54-.62-.54-.03,0-.1,.01-.13,.03-.28,.13-.25,.54-.09,1.2,.18,.77,.58,1.52,1.19,2.23-.53-.34-1.16-.78-1.83-1.33l-.06-.05c-1.05-.87-2.03-1.69-2.9-3.12-.29-.48-.98-1.62-1.3-3.21-.07-.33-.12-.68-.15-.95-.08-.57-.1-.7-.34-.7h0c-.2,.02-.32,.03-.21,1.63,.07,1.1,.26,1.75,.55,2.84,.1,.38,.22,.81,.36,1.33,.27,1.03,.37,1.58,.45,1.97,.09,.48,.14,.74,.37,1.33,.14,.37,.29,.72,.43,1.03-.26-.32-.45-.46-.62-.46-.04,0-.11,.02-.14,.04-.44,.23,0,1.58,.31,2.36,.13,.33,.23,.53,.32,.69,.1,.2,.18,.35,.27,.68,.04,.15,.07,.28,.09,.4,.06,.3,.12,.56,.32,.88,.02,.04,.05,.07,.07,.11-.36-.14-.85-.36-1.37-.64l-.07-.04c-1.08-.58-1.93-1.03-2.71-1.93-.5-.57-1.02-1.36-1.36-1.87-.12-.18-.24-.37-.34-.53-.34-.53-.35-.55-.47-.55h-.01c-.11,0-.2,.08-.22,.18-.02,.1,.01,.16,.1,.29,.23,.33,.91,1.32,1.26,2.61,.21,.76,.26,1.48,.24,2.04-.1-.37-.27-.77-.55-1.14-.04-.05-.08-.11-.14-.17-.12-.15-.29-.36-.51-.67,0,0-.3-.42-.56-.85-1.1-1.84-1.64-4.98-1.64-5.01-.48-2.89-.25-5.17-.12-6.02,.18-1.25,.49-2.4,.77-3.41,.01-.04,.28-1.04,.75-2.34,.51-1.42,.9-2.23,1.63-2.71,.03-.02,.05-.03,.08-.05,.05-.03,.13-.08,.32-.2,1.7-1.05,1.73-1.16,1.75-1.24,.01-.06,0-.13-.03-.18-.04-.07-.12-.11-.2-.11s-.12,.03-.26,.12c-.3,.21-1.11,.76-2.23,1.15-.36,.13-.72,.23-1.06,.3,.78-.32,1.83-.84,2.86-1.72,.33-.29,.5-.47,.69-.68,.22-.24,.46-.51,1.04-1.02,.04-.04,1.03-.91,2.44-1.9,.2-.14,.37-.26,.55-.36,.16-.09,.34-.2,.57-.32l.21-.12c.11-.06,2.79-1.55,4.57-1.85l.21-.04c.12-.02,.24-.04,.36-.06,.1-.01,.18-.02,.24-.03,.15-.02,.27-.03,.36-.15,.14-.2,.02-.45-.21-.74,.14,.07,.3,.13,.47,.18,.16,.05,.29,.08,.41,.09,.18,.02,.33,.03,.46,.03,.06,0,.12,0,.17,0,.26-.01,.41-.04,.57-.06,.1-.02,.2-.03,.33-.05,.21-.02,.38-.03,.53-.03h.15s.14,0,.14,0c.24,0,.45-.02,.74-.1,.16-.05,.28-.09,.36-.13,.04-.02,.08-.05,.1-.08,0,0,.11-.16,1.24-1.92,.95-1.47,2.47-2.16,3.02-2.41,.39-.18,.76-.31,1.11-.39,.4-.09,.67-.12,.92-.15,.27-.03,.53-.05,.86-.16,.47-.15,.8-.41,1.44-.92,.7-.55,1.42-1.12,2.06-2.07,.18-.26,.32-.51,.44-.74m.3-1.15c-.11,0-.28,.8-.93,1.77-.62,.92-1.33,1.48-2.02,2.02-.62,.49-.94,.73-1.37,.88-.59,.19-.91,.1-1.76,.31-.32,.08-.7,.2-1.15,.4-.48,.22-2.1,.92-3.11,2.49-1.18,1.83-1.24,1.92-1.24,1.92-.07,.03-.19,.08-.34,.12-.28,.08-.47,.09-.68,.09-.09,0-.18,0-.29,0-.15,0-.33,0-.55,.03-.36,.04-.48,.09-.89,.11-.05,0-.1,0-.16,0-.12,0-.27,0-.43-.03-.1-.01-.22-.04-.37-.08-.8-.24-1.29-.72-1.4-.72,0,0-.01,0-.02,0-.1,.12,1.06,1.12,.89,1.36-.03,.05-.1,.03-.43,.08-.19,.03-.38,.07-.57,.1-1.86,.31-4.65,1.88-4.65,1.88-.33,.18-.57,.32-.78,.44-.18,.11-.35,.23-.56,.37-1.45,1.02-2.46,1.91-2.46,1.91-1.09,.97-1.03,1.09-1.73,1.7-1.99,1.71-4.07,2.02-4.01,2.21,.01,.04,.11,.06,.26,.06,.42,0,1.29-.15,2.17-.46,1.42-.51,2.37-1.26,2.41-1.26,0,0,0,0,0,0,.01,.02-.76,.55-1.64,1.09-.34,.21-.33,.2-.41,.25-.77,.51-1.18,1.35-1.72,2.82-.47,1.31-.74,2.31-.76,2.36-.28,1.03-.59,2.18-.77,3.44-.07,.49-.4,2.93,.12,6.09,0,0,.53,3.19,1.67,5.09,.27,.45,.57,.87,.57,.87,.32,.46,.53,.68,.66,.85,.78,1.03,.61,2.34,.72,2.34h0c.12,0,.5-1.6,0-3.44-.44-1.6-1.39-2.78-1.36-2.79,0,0,0,0,0,0,.02,0,.34,.52,.63,.97,.34,.53,.86,1.32,1.38,1.9,.83,.95,1.72,1.41,2.85,2.02,.97,.52,1.9,.88,2.14,.88,.03,0,.05,0,.06-.02,.03-.06-.31-.21-.59-.65-.26-.4-.25-.69-.39-1.22-.17-.63-.31-.66-.59-1.39-.28-.72-.64-1.96-.42-2.08,.01,0,.02,0,.04,0,.32,0,1.32,1.67,1.5,1.67,0,0,0,0,.01,0,.1-.06-.57-1.15-1.1-2.55-.4-1.07-.23-1.02-.81-3.28-.51-2-.8-2.67-.9-4.12-.04-.63-.05-1.38,0-1.38h0s.11,.76,.25,1.47c.32,1.6,1,2.74,1.32,3.28,.91,1.5,1.95,2.35,3.02,3.23,1.74,1.44,3.31,2.19,3.39,2.19,0,0,0,0,0,0,.03-.04-.46-.32-1.08-1-.9-.99-1.19-1.85-1.3-2.32-.05-.22-.2-.86-.04-.94,.01,0,.02,0,.03,0,.2,0,.55,.74,1.39,1.55,1.04,1,1.37,.92,2.34,1.9,.86,.87,1.16,1.49,1.31,1.49,0,0,.02,0,.02,0,.41-.19-1.16-4.13-1.04-4.18,0,0,0,0,0,0,.14,0,1.7,4.09,2.78,7.12,0,0,.83,2.36,.97,4.48,.05,.81,.03,1.23,.03,1.23-.04,.69-.15,1.04-.06,1.08,0,0,0,0,.01,0,.1,0,.46-.42,1.09-1.47,.75-1.26,1.27-2.16,1.57-3.46,.13-.56,.22-1.22,.25-1.22h0s-.13,.64,.03,1.33c.15,.69,.58,1.13,.92,1.48,.72,.74,2.78,2.76,3.22,2.76,.02,0,.04,0,.06-.02,.12-.12-.37-.6-.8-1.54-.2-.44-.61-1.46-.58-4.21,.03-2.53,.41-5.18,.62-5.18h0c.1,0,.09,.67,.18,1.45,.39,3.42,2.38,5.87,3.22,6.91,.21,.25,2.55,3.11,3.66,3.11,.09,0,.17-.02,.24-.06,.75-.42,.06-2.98,.08-2.99h0s.59,1.71,.3,3.84c-.47,3.42-2.85,5.36-2.55,5.62,.02,.02,.05,.02,.08,.02,.41,0,1.86-1.08,2.49-2.59,.08-.2,.14-.38,.17-.49,.02-.07,.02-.1,.03-.1h0s0,.04-.03,.1c-.1,.45-.55,2.31-1.71,4.01-1.28,1.87-2.72,2.53-2.53,2.89,.04,.07,.13,.1,.27,.1,.44,0,1.37-.29,2.87-.75,.45-.14,1-.33,1.48-.81,.27-.27,.43-.55,.47-.55,0,0,0,0,0,0,.04,.02-.16,.54-.55,1.01-.46,.55-.91,.7-.87,.79,.01,.03,.08,.05,.18,.05,.33,0,1.05-.16,1.78-.5,.67-.32,.86-.56,2.35-1.82,1.74-1.46,1.6-1.27,2.02-1.7,.78-.8,1.01-1.24,1.79-1.75,.62-.4,1.14-.55,1.38-.64,1.96-.68,4.31-3.12,5.6-5.6,1.17-2.26,1.4-4.42,1.93-4.42,0,0,.01,0,.02,0,.34,.03,.53,.94,.67,.94,0,0,0,0,0,0,.13-.03,.04-.85-.06-1.5,0,0-.16-.74-.32-1.68-.15-.89-.19-1.54-.22-2.06-.12-1.9-.39-4.99-.51-6.09-.14-1.25-.43-3.69-1.59-6.48-.84-2.01-1.86-4.47-4.26-6.38-1.24-.99-3.09-2.02-2.99-2.21,0-.01,.02-.02,.05-.02,.08,0,.27,.06,.59,.07,.06,0,.12,0,.17,0,.72,0,1.38-.23,1.37-.38,0-.12-.41-.09-1.1-.36-.47-.18-.79-.38-1.2-.65-.79-.51-1.32-1-1.47-1.14-.87-.79-1.73-1.31-2.96-2.05-1.27-.77-2.62-1.29-5.32-2.33-.83-.32-1.39-.52-2-.52-.12,0-.25,0-.38,.02-.28,.04-.46,.1-.58,.1-.06,0-.11-.01-.14-.05-.29-.29,.64-1.4,1.81-3.59,.82-1.53,1.16-2.46,1.38-3.31,.23-.91,.38-1.92,.25-1.96,0,0,0,0,0,0h0Z"/>
              </g>
              <path class="cls-25" d="M48.24,37.26c-.48-.54-1.34-1.34-2.61-1.9-.69-.3-1.33-.46-1.84-.54"/>
              <path class="cls-25" d="M45.4,37.69c-1.57-.23-3.33-.83-4.48-2.26-.05-.07-.11-.14-.16-.21"/>
            </g>
            <path class="cls-26" d="M38.04,50.34c1.05,1.83,2.12,4.38,2.25,7.47,.02,.46,.02,.91,0,1.33"/>
            <path class="cls-26" d="M32.85,53.1c.4,1.25,1.3,3.32,3.26,4.21,.13,.06,.27,.12,.42,.17"/>
          </g>
          <path class="cls-25" d="M43.36,45.47c.37,1.49,.93,2.57,1.38,3.28,1.4,2.22,4.14,4.71,7.32,5.89,.75,.28,2.18,.73,3.28,2.06,.58,.7,.83,1.36,.87,1.34,.06-.03-.73-2.09-2.21-4.19-.41-.58-.79-1.05-1.31-1.68-.93-1.13-1.51-1.75-2.01-2.31-1.89-2.14-2.89-4.03-2.89-4.03,0,0,1.98,5.02,6.76,8.07,3.3,2.11,6.92,2.61,6.96,2.49,.02-.06-1.03-.31-2.06-1.23-1.16-1.03-1.57-2.3-1.78-2.89-1.24-3.58-3.15-6.94-3.64-7.75-.85-1.42-2.38-3.35-5.26-5.14"/>
          <path class="cls-25" d="M48.5,38.7c.34-.08,.85-.16,1.46-.12,1.35,.08,2.44,.69,3.44,1.46,1.21,.93,1.75,1.69,3.72,4.23,2.46,3.18,3.05,3.87,4.03,4.67,1.55,1.26,3.03,1.94,3.08,1.86,.06-.09-1.69-.91-3.01-2.73-.71-.97-.76-1.51-1.78-5.06-.95-3.29-1.43-4.66-2.25-6.21-.84-1.57-1.41-2.16-2.06-2.57-.35-.22-1.99-1.28-3.8-.59-1.27,.49-1.88,1.56-2.06,1.9"/>
        </g>
        <path class="cls-5" d="M26.33,54.8c-.1,1.72,.04,3.71,.78,5.67,.06,.16,.12,.32,.19,.47"/>
        <path class="cls-2" d="M29.45,55.37c.71,1.76,1.04,2.88,1.22,3.59,.07,.28,.28,1.2,.74,2.37,.08,.22,.16,.39,.21,.5"/>
      </g>
      <path class="cls-37" d="M64.1,76.64c2.99-1.72,5.5-4.12,7.39-7.01-1.61,3.05-4.25,5.58-7.39,7.01h0Z"/>
    </g>
    <path class="cls-37" d="M75.27,66.57c-.8-1.35-1.54-2.74-2.22-4.16,.8,1.35,1.54,2.74,2.22,4.16,0,0-.68-1.42,0,0Z"/>
  </g>
  <g>
    <ellipse class="cls-24" cx="50.4" cy="68.08" rx="7.81" ry="5.08" transform="translate(-26.7 103.16) rotate(-77.95)"/>
    <ellipse class="cls-22" cx="50.39" cy="68.32" rx="4.69" ry="2.56" transform="translate(-26.94 103.34) rotate(-77.95)"/>
  </g>
  <path class="cls-12" d="M48.98,66.12s.15,.26,.53,.42c1.01,.41,2.62-.03,3.03-1.01,.09-.22,.04-.26,.06-1.07,.02-.72,.07-.91,.18-2.08,.12-1.34,.19-2.01,.18-2.37-.03-1.39-.37-2.49-.59-3.2-.19-.61-.17-1.32-.53-1.42-.2-.06-.43,.09-.47,.12-.31,.2-.41,.57-.44,.71-1.72,6.89-1.32,7.6-1.81,8.69-.08,.18-.37,.77-.12,1.22Z"/>
  <path class="cls-40" d="M51.14,56.17s0,.4-.03,.65c-.04,.36-.09,.65-.13,.85,0,0-.14,.48-.24,1.02-.19,1.01-.37,3.21-.37,3.21-.21,2.88-.49,3.82-.04,4.06,.2,.11,.52,.02,1.15-.16,.34-.1,.58-.16,.82-.34,.03-.02,.09-.07,.1-.06,.02,.02-.26,.45-.65,.73-.55,.39-1.27,.5-1.88,.31-.19-.06-.65-.2-.77-.56-.09-.26,.03-.52,.09-.64,.54-1.2,.48-2.59,.72-3.89,.02-.1,.07-.35,.13-.69,.08-.38,.14-.69,.19-.93,.28-1.3,.5-2.18,.58-2.5,.24-.96,.3-1.08,.32-1.08Z"/>
  <path class="cls-30" d="M37.6,62.62c-.29-.15-.56-.22-.78-.26-.53-.1-1.22-.22-1.96,.07-.2,.08-.44,.18-.65,.43-.23,.28-.29,.58-.31,.73-.01,.03-.1,.27,.03,.48,.11,.18,.3,.22,.39,.24,.12,.03,.25,.03,.5-.04,.31-.08,.48-.19,.69-.29,.24-.11,.43-.17,.81-.28,.78-.22,1.17-.34,1.5-.22,.13,.05,.28,.13,.36,.06,.09-.07,.06-.28,.01-.4-.1-.29-.38-.44-.59-.55Z"/>
  <path class="cls-20" d="M40.99,79.46c.14-.09,.29,0,.53,.06,.44,.1,.78-.05,1.43-.33,.73-.31,1.17-.71,1.63-1.13,0,0,.71-.64,.7-1.13,0-.08-.01-.14-.01-.14-.02-.05-.03-.11,0-.16,.07-.11,.31,.02,.8,.05,.35,.02,.6-.03,.78,.16,.01,.01,.02,.03,.03,.03,.16,.2,.08,.43,.06,.83,0,.01,0,.14,0,.41,0,0,0,.4,.03,.87,.05,1.16,.74,2.71,.22,3.26-.08,.09-3.17-.08-4.18-.15-1.54-.1-2.15-.03-2.3-.36-.07-.15-.01-.33,.03-.44,0-.02,0-.03-.01-.04,0-.06,.02-.14,.07-.67,.07-.78,.04-1.02,.2-1.13Z"/>
  <circle class="cls-20" cx="41.64" cy="80.32" r=".38"/>
  <path class="cls-21" d="M40.37,89.6c-.25,.18-.14,.59,.07,2,.29,1.91,.28,2.47,.62,2.57,.37,.11,.84-.44,.94-.56,.77-.92,.41-2.22,.34-2.48-.1-.34-.23-.8-.66-1.16-.35-.29-.99-.6-1.31-.37Z"/>
  <path class="cls-8" d="M51.77,108.31s-1.85,2.68-5.64,.6c0,0-.33-1.08,.2-1.2,0,0,1,.83,2.59,.72,0,0,1.25,.04,2.6-1.08,0,0,.23,.4,.25,.96Z"/>
  <g>
    <path class="cls-15" d="M46.62,122.48c-.02,.49-.03,1.02,0,1.59,.08,1.63,.4,3.02,.75,4.11,0,0,.3,1.52,1.85,1.08,.3-.02,.71-.1,1.09-.37,.44-.32,.63-.75,.91-1.39,.14-.33,.29-.74,.41-1.23,.12-.62,.23-1.33,.29-2.11,.06-.74,.06-1.42,.04-2.03,.01-.17,.01-.42-.06-.72-.05-.18-.14-.55-.32-.57-.1-.01-.16,.09-.32,.24,0,0-.14,.13-.59,.42-.27,.17-.79,.41-1.42,.37-.46-.03-.82-.19-1.05-.34-.08-.07-.2-.14-.34-.19-.21-.07-.4-.06-.5-.05-.16,.02-.29,.07-.38,.12-.1,.11-.27,.34-.33,.67-.03,.15-.03,.29-.02,.39Z"/>
    <path class="cls-33" d="M51.56,121.05c.12,1.14,.08,2.8-.77,4.42-.33,.62-1.27,2.41-2.49,2.33-.43-.03-.77-.28-.99-.5,.03,.11,.09,.28,.15,.5,.02,.08,.05,.17,.07,.25,.11,.39,.12,.46,.2,.54,.04,.04,.12,.09,.25,.11,.28,.38,.58,.44,.68,.46,.15,.02,.27,0,.52-.04,.28-.05,.51-.12,.66-.18,.19-.24,.37-.44,.51-.58,.3-.31,.4-.36,.56-.59,.18-.26,.27-.48,.35-.67,.08-.21,.18-.5,.24-.86,.12-.72,.21-1.53,.25-2.4,.03-.62,.04-1.21,.02-1.76,0-.16,0-.29-.02-.39-.02-.11-.04-.26-.11-.45-.03-.08-.06-.14-.09-.18Z"/>
  </g>
  <g>
    <g>
      <path class="cls-15" d="M47.33,128.66c-.1,0-.24-.02-.41,0-.32,.02-.55,.1-.74,.15-.17,.04-.65,.17-1.23,.43-.3,.13-1.01,.46-1.86,1.12-.92,.71-1.54,1.19-1.94,2.07-.18,.39-.6,1.24-.22,1.91,.14,.25,.43,.58,1.18,.88,1.65,.66,5.63,1.24,6.76-.46,.49-1.09,.69-2.19,.63-3.14-.04-.62-.18-1.59-.98-2.31-.43-.39-.91-.56-1.21-.63Z"/>
      <g>
        <path class="cls-32" d="M40.79,133.85c.57,.29,1.26,.58,2.05,.8,.46,.13,.9,.22,1.3,.28"/>
        <path class="cls-39" d="M40.81,133.8c1.04,.57,2.17,.89,3.33,1.13-1.16-.2-2.32-.48-3.38-1.02,0,0,.05-.1,.05-.1h0Z"/>
      </g>
      <g>
        <path class="cls-32" d="M49.1,134.46c-1.52,.21-2.63,.36-2.94,.4-.05,0-.14,.02-.27,.03-.1,0-.3,.03-.56,.03-.21,0-.46,0-.75-.02"/>
        <path class="cls-39" d="M49.11,134.52c-1.33,.13-3.2,.5-4.53,.38,1.32,.08,3.19-.33,4.51-.49,0,0,.02,.11,.02,.11h0Z"/>
      </g>
    </g>
    <path class="cls-36" d="M49.8,129.52c-.15,.17-.36,.45-.49,.83-.07,.21-.11,.43-.04,1.59,.05,.83,.09,1.14,.03,1.68-.03,.29-.05,.44-.12,.64-.17,.5-.43,.67-.36,.9,.07,.2,.32,.27,.44,.31,.27,.08,.41,0,.92-.06,.46-.06,.48,0,.96-.07,.44-.06,.66-.1,.77-.24,.1-.13,.1-.29,.04-.77-.08-.66-.15-1.05-.15-1.05-.2-1.09-.26-1.36-.33-1.8-.02-.09-.04-.22-.07-.39-.07-.31-.11-.42-.17-.89-.05-.43-.08-.64-.09-.94-.02-.38-.11-.75-.14-1.13,0-.04-.01-.13-.08-.19-.07-.06-.17-.06-.22-.06-.16,0-.36,0-.45,.14-.05,.07-.04,.14-.04,.27-.01,.14-.05,.28-.13,.55-.06,.19-.14,.43-.27,.7Z"/>
  </g>
  <path class="cls-13" d="M46.41,118.86c0,.42-.01,.84-.02,1.26,0,.43,.05,.65,.13,.87,.08,.21,.28,.63,.85,.99,.11,.08,.28,.2,.51,.3,.27,.12,.41,.18,.49,.14,.22-.1,.08-.72,.04-1.82-.02-.4-.02-.73-.01-.94l-.05-1.42s-.4-1.53-.82-1.79c-.14,.07-.28,.16-.41,.29-.63,.57-.66,1.37-.66,1.63-.02,.16-.03,.33-.05,.49Z"/>
  <path class="cls-11" d="M50.64,105.22c-.58-.26-1.01-.06-1.65-.06-.66,0-1.63-.2-2.85-1.19-.28-.04-.64-.11-1-.27-.03-.01-.06-.03-.08-.04-.12-.06-.14-.1-.18-.1-.1-.01-.13,.17-.24,.19-.16,.04-.44-.28-.51-.61-.08-.37,.1-.7,.14-.76,.08-.14,.21-.32,.76-.73,.28-.21,.5-.37,.76-.52,.9-.5,1.87-.57,2.16-.59,.52-.03,2.58-.09,4.13,1.33,.26,.24,.79,.83,.96,1.72,.26,1.37-.47,2.86-1.05,2.87-.44,0-.48-.85-1.35-1.24Z"/>
  <g id="_右大腿" data-name="右大腿">
    <circle class="cls-23" cx="48.53" cy="104.66" r="3.68"/>
    <path class="cls-27" d="M51.74,103.26c.19,.44,.29,.91,.29,1.4,0,1.07-.48,2.07-1.31,2.73-.5,.36-1.07,.62-1.67,.73-.17,.03-.34,.04-.52,.04-.15,0-.29,0-.45-.03-.39-.05-.77-.16-1.11-.34-.31-.16-.6-.36-.86-.6-.35-.33-.63-.74-.81-1.19l1.54-1.34v.7s.09,.05,.09,.05c.93,.61,2.07,1.03,3.11,.43,.88-.51,1.39-1.6,1.69-2.58Z"/>
  </g>
  <g>
    <g id="_右大拇指" data-name="右大拇指">
      <path class="cls-10" d="M45.8,109.43c-.06,.05-1.27,1.83-2,2.47,0,0-.58,.5,.11,1.13,0,0,1.22,.41,2.23-.76l.5-.71s.62-1.32,.15-2.24c0,0-.41-.51-.99,.11Z"/>
      <path class="cls-29" d="M45.95,109.51c-.15,.28-.29,.56-.4,.85-.25,.63-.44,1.54,.3,1.67,.08,.02,.17,.02,.26,0l-.09,.13c-.55,.63-1.3,.88-1.99,.72-.01,0-.02,0-.04,0-.2-.2-.41-.54-.11-.81,.32-.28,.64-.67,.92-1.02,.25-.32,.49-.64,.73-.97,.11-.15,.25-.36,.36-.5h0s.03-.04,.05-.05Z"/>
    </g>
    <g>
      <g id="_右大臂" data-name="右大臂">
        <path class="cls-9" d="M49.57,101.84c-.89,.45-1.99,.1-2.44-.79s-.1-1.99,.79-2.44,1.99-.1,2.44,.79,.1,1.99-.79,2.44Z"/>
        <g>
          <path class="cls-19" d="M49.59,107.44c.43-.91,1.16-3.56,1.04-4.57,0,0-.32-1-1.05-1.02,0,0-1.01,.57-1.99-.23,0,0-1.05,.26-1.26,1.91l-.36,3.6s-.16,1.13,1.42,1.42c0,0,1.82-.28,2.21-1.11Z"/>
          <path class="cls-34" d="M49.67,102.04l-.86,5.1c.18,.13,.32,.29,.43,.47,.07-.07,.14-.15,.18-.25,.43-.91,1.13-3.47,1.02-4.46-.11-.34-.4-.79-.78-.87Z"/>
        </g>
      </g>
      <g id="_右手腕_手掌" data-name="右手腕+手掌">
        <path class="cls-7" d="M48.52,109.67c-.69,.35-1.53,.08-1.89-.61s-.08-1.53,.61-1.89,1.53-.08,1.89,.61,.08,1.53-.61,1.89Z"/>
        <path class="cls-16" d="M49.45,110.07s.14,2.58-.9,4.06c0,0-2.02,1.68-3.34-.09,0,0-.19-.52,.1-1.86,0,0,.55-2.98,1.36-2.89,0,0,.38,.57,1.18,.53,0,0,.76-.07,1.11-.66,0,0,.45,.38,.49,.92Z"/>
      </g>
      <g id="_右大臂-2" data-name="右大臂">
        <path class="cls-13" d="M50.16,90.24c-1.57,.8-3.51,.17-4.32-1.4s-.17-3.51,1.4-4.32c1.57-.8,3.51-.17,4.32,1.4s.17,3.51-1.4,4.32Z"/>
        <path class="cls-9" d="M46.68,91.18c-.09-.15-.17-.48,.17-1.17,0,0,1.57,1.08,3.17,.3,0,0,.3,.75-.07,1.21-.24,.3-.41,.34-.77,.46-.86,.28-1.97,.04-2.5-.8Z"/>
        <path class="cls-14" d="M50.1,91.59c.17-.04,.31,.03,.35,.05,.13,.07,.21,.18,.28,.33,.23,.51,.38,1.69,.39,1.78l-.03,5.4s-.34,1.25-1.56,1.09l.18-.44-.1-1.55s-.95,.06-.78-.82l.11-1.89,.74-.39,.07-1.81,.05-1.3s-.04-.21,.09-.35c.08-.09,.18-.11,.22-.12Z"/>
        <path class="cls-31" d="M49.53,98.36l.06-2.92-.64,.34-.1,1.81v.03c-.01,.07-.02,.13-.02,.19,.01,.33,.22,.47,.42,.53,.11,.03,.21,.03,.27,.03Z"/>
        <path class="cls-17" d="M45.92,92.11l-.14,8.29s.06,2.7,2.42,1.57c0,0,1.18-1.07,1.5-2.13l-.1-1.49s-.89,.09-.74-.74l.06-1.62,.04-.22,.7-.37,.11-3.15s-.06-.31-.46-.32c0,0-1.46,.65-2.57-.68,0,0-.71,0-.82,.85Z"/>
      </g>
    </g>
    <g>
      <g id="_右食指" data-name="右食指">
        <path class="cls-10" d="M46.7,112.91s-.08-.4-.6-.41c0,0-.25,0-.34,.36,0,0-.36,.95-.44,1.79,0,0-.03,.43,.35,.54,0,0,.4,.09,.78-.34l.22-1.49s.08-.31,.03-.46Z"/>
        <path class="cls-29" d="M46.14,112.64c-.05,.49-.03,1.09,.29,1.42l-.1,.66s0,.05,0,.07c-.09,.09-.19,.16-.29,.21-.1,.04-.23,.07-.33,.05,0,0,0,0,0,0-.1-.03-.17-.09-.22-.19-.03-.06-.04-.13-.03-.19,0-.08,.02-.16,.03-.24,.07-.48,.23-1.05,.4-1.51h0s0-.02,0-.02c.03-.11,.1-.25,.21-.25,.02,0,.03,0,.05,0Z"/>
        <g>
          <path class="cls-10" d="M44.85,117.27s-.37,.35-.74,.02c0,0-.36-.3-.11-1.01,0,0,.16-.37,.49-.62l.87-.75s.15,.45,.71,.22c0,0,.18,.26,0,.51l-.2,.17-.87,1.33s-.16,.14-.16,.14Z"/>
          <path class="cls-29" d="M44.06,116.93c-.05-.19,0-.41,.06-.59,.09-.21,.28-.43,.45-.57l.77-.66c.04,.06,.09,.1,.15,.14-.39,.65-.87,1.21-1.43,1.67Z"/>
        </g>
      </g>
      <g id="_右中指" data-name="右中指">
        <g>
          <path class="cls-10" d="M46.96,116.51s-.22,1.09-1.41,1.45c0,0-.17,.04-.3-.15,0,0-.18-.26-.03-.64l.82-1.31s.37-.42,.67-.36c0,0,.13,.24,.43,.22,0,0-.1,.51-.19,.79Z"/>
          <path class="cls-29" d="M46.47,115.68c-.11,.75-.45,1.47-.82,2.08-.04,.02-.09,.03-.13,.04-.07,.02-.14-.03-.18-.1-.09-.13-.08-.33-.02-.48l.82-1.3,.17-.15s.1-.07,.16-.1Z"/>
        </g>
        <g>
          <path class="cls-10" d="M47.53,112.98s.47,.22,.29,1.27c0,0-.09,1.01-.37,1.25,0,0-.24,.38-.63,.13,0,0-.28-.16-.2-.86l.21-1.44s.06-.36,.39-.38c0,0,.13-.02,.31,.03Z"/>
          <path class="cls-29" d="M46.75,115.23c0-.12,0-.24-.01-.35l.21-1.45s.02-.08,.02-.12c.05-.13,.14-.21,.26-.21h0s0,0,0,0c.03,0,.07,0,.11,0-.14,.78-.26,1.69-.23,2.48-.05,0-.1,0-.14-.02-.06-.02-.13-.07-.16-.13,0,0,0,0,0,0-.03-.05-.05-.12-.06-.18Z"/>
        </g>
      </g>
      <g id="_右中指-2" data-name="右中指">
        <g>
          <path class="cls-10" d="M48.14,116.74s-.22,1.09-1.41,1.45c0,0-.17,.04-.3-.15,0,0-.18-.26-.03-.64l.82-1.31s.37-.42,.67-.36c0,0,.13,.24,.43,.22,0,0-.1,.51-.19,.79Z"/>
          <path class="cls-29" d="M47.66,115.92c-.11,.75-.45,1.47-.82,2.08-.04,.02-.09,.03-.13,.04-.07,.02-.14-.03-.18-.1-.09-.13-.08-.33-.02-.48l.82-1.3,.17-.15s.1-.07,.16-.1Z"/>
        </g>
        <g>
          <path class="cls-10" d="M48.72,113.21s.47,.22,.29,1.27c0,0-.09,1.01-.37,1.25,0,0-.24,.38-.63,.13,0,0-.28-.16-.2-.86l.21-1.44s.06-.36,.39-.38c0,0,.13-.02,.31,.03Z"/>
          <path class="cls-29" d="M47.93,115.47c0-.12,0-.24-.01-.35l.21-1.45s.02-.08,.02-.12c.05-.13,.14-.21,.26-.21h0s0,0,0,0c.03,0,.07,0,.11,0-.14,.78-.26,1.69-.23,2.48-.05,0-.1,0-.14-.02-.06-.02-.13-.07-.16-.13,0,0,0,0,0,0-.03-.05-.05-.12-.06-.18Z"/>
        </g>
      </g>
    </g>
  </g>
</svg>