<?xml version="1.0" encoding="UTF-8"?>
<svg id="_图层_1" data-name="图层 1" xmlns="http://www.w3.org/2000/svg" xmlns:xlink="http://www.w3.org/1999/xlink" viewBox="0 0 311.81 340.16">
  <defs>
    <style>
      .cls-1 {
        fill: none;
      }

      .cls-2 {
        clip-path: url(#clippath);
      }

      .cls-3, .cls-4 {
        fill: #fff;
      }

      .cls-5, .cls-6 {
        fill: #932323;
      }

      .cls-7, .cls-8 {
        fill: #819e9b;
      }

      .cls-9, .cls-10 {
        fill: #c33730;
      }

      .cls-11 {
        fill: #667b79;
      }

      .cls-12 {
        fill: #d1d1d1;
      }

      .cls-13, .cls-14 {
        fill: #5c6c69;
      }

      .cls-15 {
        fill: #3d3a39;
      }

      .cls-16 {
        clip-path: url(#clippath-1);
      }

      .cls-14, .cls-17, .cls-18, .cls-19, .cls-6, .cls-8, .cls-10, .cls-4 {
        fill-rule: evenodd;
      }

      .cls-17 {
        fill: #d8423b;
      }

      .cls-18 {
        fill: #cbcbcb;
      }

      .cls-19 {
        fill: #d8d8d8;
      }
    </style>
    <clipPath id="clippath">
      <rect id="path-1-2" data-name="path-1" class="cls-1" x="93.91" y="32.95" width="88" height="93" rx="16" ry="16"/>
    </clipPath>
    <clipPath id="clippath-1">
      <rect id="path-3-2" data-name="path-3" class="cls-1" x="123.91" y="33.08" width="88" height="93" rx="16" ry="16"/>
    </clipPath>
  </defs>
  <g id="_机器人行走3" data-name="机器人行走3">
    <rect id="_矩形" data-name="矩形" class="cls-7" x="125.91" y="126.08" width="61" height="8"/>
    <rect id="_矩形-2" data-name="矩形" class="cls-11" x="125.91" y="130.08" width="61" height="8"/>
    <g id="_编组-3" data-name="编组-3">
      <g id="_手备份" data-name="手备份">
        <path id="_形状结合" data-name="形状结合" class="cls-14" d="M218.21,156.38c-1.82,.26-3.1,1.83-2.86,3.51,0,0,0,.01,0,.02-.33,.22-.61,.51-.84,.84-2.05,2.99-2.08,6.94-.06,9.96,7.11,10.62,16.52,17.82,28.24,21.6,13.08,4.22,28.71,6.26,46.91,6.13,1.25,0,2.41-.6,3.16-1.59l.79-1.04c.49-.65,.36-1.57-.29-2.05-.28-.21-.64-.32-.99-.29-18.98,1.4-34.24-.22-45.79-4.86-10.7-4.3-19.38-13.17-26.05-26.61,1.05-.64,1.67-1.8,1.5-3.02-.15-1.08,.04-2.53-1.14-2.66-1.02-.12-1.93-.01-2.58,.08Z"/>
        <path id="_形状结合备份-2" data-name="形状结合备份-2" class="cls-8" d="M218.14,154.12c-1.97,.4-3.45,2.23-3.3,4.08,.03,.33,.1,.64,.22,.92l-.95,1.95c4.22,13.59,13.75,22.98,28.58,28.2,14.37,5.05,29.74,7.04,46.11,5.97,1.02-.07,1.97-.52,2.67-1.27l1.65-1.78c.65-.7,.61-1.79-.09-2.44-.32-.3-.74-.46-1.17-.46-17.31-.02-32.31-1.87-45-5.56-11.75-3.42-20.6-11.3-26.55-23.63,1.09-.79,1.77-2.07,1.66-3.35-.02-.23-.02-.47-.02-.72v-.3c-.02-.94-.11-1.81-1.03-1.87-1.09-.06-2.08,.11-2.78,.25Z"/>
      </g>
      <g id="_编组-2" data-name="编组-2">
        <path id="_形状结合-2" data-name="形状结合" class="cls-17" d="M284.45,188.44c2.31-8.6,10.41-14.11,18.98-13.43l-.4,9.98c-4.56,.55-8.56,3.8-9.82,8.51-1.66,6.18,2.01,12.54,8.19,14.19h0l.71,.19-.16,4.06c-.34-.07-.68-.15-1.01-.24l-3.64-.97c-9.71-2.6-15.46-12.58-12.86-22.28Z"/>
        <path id="_形状结合-3" data-name="形状结合" class="cls-6" d="M285.82,193.93c1.89-7.06,9.15-11.26,16.22-9.36l.95,.25c-4.29,.23-7.88,3.59-8.26,7.99-.42,4.83,3.15,9.08,7.97,9.5h0l2.27,.2-.29,8.35c-2.17,.58-4.52,.62-6.85,0l-2.65-.71c-7.06-1.89-11.26-9.15-9.36-16.22Z"/>
      </g>
    </g>
    <g id="_脚备份" data-name="脚备份">
      <polygon id="_矩形备份-4" data-name="矩形备份-4" class="cls-14" points="208.83 198.09 214.28 203.94 108.97 302.15 103.51 296.3 208.83 198.09"/>
      <polygon id="_矩形-3" data-name="矩形" class="cls-8" points="211.56 201.01 217.01 206.87 111.7 305.07 106.24 299.22 211.56 201.01"/>
      <path id="_形状结合-4" data-name="形状结合" class="cls-6" d="M126.42,298.87c10.14,10.87,12.04,25.79,4.73,34.4l-38.72-41.52c9.09-6.69,23.85-3.75,33.99,7.12Z"/>
      <path id="_形状结合备份" data-name="形状结合备份" class="cls-10" d="M128.59,301.2c8.41,9.02,10.2,21.33,4.65,28.95l-33.2-35.6c7.98-5.01,20.14-2.37,28.55,6.65Z"/>
    </g>
    <g id="_脚" data-name="脚">
      <polygon id="_矩形备份-4-2" data-name="矩形备份-4" class="cls-14" points="115.97 207.91 122.19 202.88 212.81 314.79 206.59 319.82 115.97 207.91"/>
      <polygon id="_矩形-4" data-name="矩形" class="cls-8" points="119.08 205.39 125.3 200.36 215.92 312.27 209.7 317.3 119.08 205.39"/>
      <path id="_形状结合-5" data-name="形状结合" class="cls-6" d="M210.75,297.15c11.55-9.36,26.57-10.21,34.65-2.32l-44.12,35.73c-6.04-9.54-2.08-24.05,9.47-33.41Z"/>
      <path id="_形状结合备份-2" data-name="形状结合备份" class="cls-10" d="M213.23,295.14c9.59-7.76,21.99-8.68,29.2-2.61l-37.83,30.63c-4.44-8.31-.96-20.25,8.63-28.02Z"/>
    </g>
    <rect id="_矩形备份-2" data-name="矩形备份-2" class="cls-5" x="68.91" y="131.08" width="123" height="100" rx="18" ry="18"/>
    <rect id="_矩形-5" data-name="矩形" class="cls-9" x="105.65" y="131.08" width="123" height="100" rx="18" ry="18"/>
    <path id="_形状结合-6" data-name="形状结合" class="cls-4" d="M171.95,137.64c7.96,0,14.4,6.45,14.4,14.4s-6.45,14.4-14.4,14.4-14.4-6.45-14.4-14.4,6.45-14.4,14.4-14.4Zm0,2.1c-6.8,0-12.3,5.51-12.3,12.3s5.51,12.3,12.3,12.3,12.3-5.51,12.3-12.3-5.51-12.3-12.3-12.3Z"/>
    <polygon id="_星形" data-name="星形" class="cls-4" points="171.95 156.78 165.16 161.39 167.45 153.51 160.97 148.48 169.17 148.22 171.95 140.5 174.73 148.22 182.93 148.48 176.45 153.51 178.74 161.39 171.95 156.78"/>
    <polygon id="_三角形" data-name="三角形" class="cls-19" points="171.95 140.5 171.95 151.59 169.17 148.22 171.95 140.5"/>
    <polygon id="_三角形备份" data-name="三角形备份" class="cls-19" points="160.97 148.48 171.95 151.59 167.45 153.51 160.97 148.48"/>
    <polygon id="_三角形备份-2" data-name="三角形备份-2" class="cls-19" points="182.93 148.48 176.45 153.51 171.95 151.59 182.93 148.48"/>
    <polygon id="_三角形备份-3" data-name="三角形备份-3" class="cls-19" points="165.16 161.39 171.95 151.59 171.95 156.78 165.16 161.39"/>
    <polygon id="_三角形备份-4" data-name="三角形备份-4" class="cls-18" points="178.74 161.39 171.95 151.59 171.95 156.78 178.74 161.39"/>
    <g id="_矩形-6" data-name="矩形">
      <g id="_蒙版" data-name="蒙版">
        <rect id="path-1" class="cls-5" x="93.91" y="33.08" width="88" height="93" rx="16" ry="16"/>
      </g>
      <g class="cls-2">
        <rect class="cls-12" x="91.34" y="114.08" width="45.75" height="4"/>
      </g>
    </g>
    <g id="_矩形-7" data-name="矩形">
      <g id="_蒙版-2" data-name="蒙版">
        <rect id="path-3" class="cls-9" x="123.91" y="33.08" width="88" height="93" rx="16" ry="16"/>
      </g>
      <g class="cls-16">
        <rect class="cls-3" x="121.19" y="114.08" width="91.92" height="4"/>
      </g>
    </g>
    <rect id="_矩形备份" data-name="矩形备份" class="cls-13" x="152.91" y="19.08" width="4" height="14"/>
    <rect id="_矩形备份-3" data-name="矩形备份-3" class="cls-9" x="87.91" y="59.08" width="25" height="40" rx="10" ry="10"/>
    <path id="_矩形-8" data-name="矩形" class="cls-6" d="M94.41,59.08h0c4.69,0,8.5,3.81,8.5,8.5v23c0,4.69-3.81,8.5-8.5,8.5h0c-4.69,0-8.5-3.81-8.5-8.5v-23c0-4.69,3.81-8.5,8.5-8.5Z"/>
    <rect id="_矩形-9" data-name="矩形" class="cls-7" x="154.91" y="19.08" width="4" height="14"/>
    <circle id="_椭圆形备份" data-name="椭圆形备份" class="cls-5" cx="154.91" cy="11.58" r="8.5"/>
    <circle id="_椭圆形" data-name="椭圆形" class="cls-9" cx="157.41" cy="11.58" r="8.12"/>
    <g id="_手" data-name="手">
      <path id="_形状结合-7" data-name="形状结合" class="cls-14" d="M87.73,156.77c1.84,0,3.32,1.38,3.32,3.07s-1.49,3.07-3.32,3.07c-.06,0-.11,0-.17,0-14.47,2.41-26.44,8.36-35.93,17.85-9.8,9.8-18.29,22.28-25.48,37.44-.54,1.14-1.9,1.63-3.04,1.09-.24-.11-.45-.26-.64-.45l-.28-.28c-1.22-1.22-1.52-3.09-.74-4.63,7.8-15.41,16.45-27.87,25.96-37.38s21.75-15.81,37.22-19.42c.24-.06,.48-.09,.72-.11,.93-.22,1.77-.24,2.39-.24Z"/>
      <path id="_形状结合备份-2-2" data-name="形状结合备份-2" class="cls-8" d="M87.49,154.52c2.01,.12,3.73,1.73,3.84,3.58,.11,1.86-1.42,3.27-3.43,3.14-.06,0-.13,0-.19-.02l.74-.08c-16.01,1.58-28.96,7.32-38.87,17.23-10,10-18.42,22.98-25.25,38.93-.55,1.29-2.05,1.89-3.33,1.33-.3-.13-.57-.31-.8-.54l-.73-.73c-1.18-1.18-1.5-2.97-.81-4.49,7.53-16.45,16.21-29.58,26.03-39.39s22.57-15.78,39.1-18.73c.29-.05,.59-.08,.88-.09h.03c1.07-.22,2.07-.19,2.79-.14Z"/>
    </g>
    <g id="_编组" data-name="编组">
      <path id="_形状结合-8" data-name="形状结合" class="cls-6" d="M32.17,232.71l-1.13-.68c-1.06-4.79-3.96-9.17-8.42-11.98l-.35-.22-3.96-2.38c-4.66-2.8-10.04-3.37-14.89-2.02l-.93-.56c5.53-6.16,14.83-7.74,22.19-3.32,7.36,4.42,10.33,13.37,7.49,21.15Z"/>
      <path id="_形状结合-9" data-name="形状结合" class="cls-17" d="M31.5,236.47l-5.16-3.23c1.47-5.35-.72-11.23-5.71-14.23-4.86-2.92-10.88-2.21-14.92,1.34l-5.44-3.4c6.04-5.76,15.4-7.04,22.9-2.53,7.7,4.63,10.94,13.85,8.33,22.05Z"/>
    </g>
    <g id="_眼睛" data-name="眼睛">
      <ellipse id="_椭圆形-2" data-name="椭圆形" class="cls-3" cx="188.94" cy="63.58" rx="12.47" ry="16"/>
      <ellipse id="_椭圆形-3" data-name="椭圆形" class="cls-15" cx="188.94" cy="63.58" rx="8.57" ry="11"/>
      <ellipse id="_椭圆形-4" data-name="椭圆形" class="cls-3" cx="190.25" cy="61.58" rx="3.9" ry="5"/>
    </g>
    <g id="_眼睛-2" data-name="眼睛">
      <ellipse id="_椭圆形-5" data-name="椭圆形" class="cls-3" cx="148.94" cy="63.58" rx="12.47" ry="16"/>
      <ellipse id="_椭圆形-6" data-name="椭圆形" class="cls-15" cx="148.94" cy="63.58" rx="8.57" ry="11"/>
      <ellipse id="_椭圆形-7" data-name="椭圆形" class="cls-3" cx="150.25" cy="61.58" rx="3.9" ry="5"/>
    </g>
    <g id="_上海建筑" data-name="上海建筑">
      <path id="_路径" data-name="路径" class="cls-3" d="M159.87,113.68c0-1.11-.65-2.07-1.6-2.52v-12.16h0c.92-.44,1.55-1.38,1.55-2.47,0-1.25-.84-2.31-1.99-2.63l-.68-9.21h-.15l-.68,9.21c-1.14,.33-1.99,1.38-1.99,2.63,0,1.09,.63,2.03,1.55,2.47h0v12.16c-.94,.45-1.6,1.41-1.6,2.52,0,.76,.3,1.45,.79,1.95l-1.2,1.97,.13,.08,1.18-1.94c.5,.46,1.16,.74,1.89,.74s1.45-.31,1.96-.8l1.11,1.93,.13-.07-1.14-1.97c.45-.5,.73-1.16,.73-1.88Z"/>
      <path id="_矩形-10" data-name="矩形" class="cls-4" d="M146.91,103.85h1.45l1.75,2.36v1.85l2.51,.15-.15-3.7h1.62l.04,7.81c.51,.56,.46,1.42-.1,1.93-.24,.22-.56,.35-.89,.35l-6.24,.12h0v-10.87Z"/>
      <polygon id="_矩形-11" data-name="矩形" class="cls-4" points="159.48 108.68 161.35 108.68 161.47 113.38 162.71 113.38 162.71 100.44 165.3 101.07 165.52 103.68 166.9 104.96 167.11 113.38 169.2 110.92 170.44 112.38 170.99 96.26 171.94 94.55 173.05 94.55 173.53 109.24 174.36 107.75 176.51 107.75 176.51 109.51 179.09 109.66 179.92 114.73 159.48 114.73 159.48 108.68"/>
      <rect id="_矩形-12" data-name="矩形" class="cls-3" x="178.5" y="105.2" width="3.6" height="10.87"/>
      <rect id="_矩形备份-5" data-name="矩形备份-5" class="cls-3" x="181.3" y="110.64" width="5" height="4.4"/>
      <rect id="_矩形备份-6" data-name="矩形备份-6" class="cls-3" x="184.25" y="111.68" width="5" height="4.4"/>
    </g>
  </g>
</svg>