<?xml version="1.0" encoding="UTF-8"?>
<svg id="_图层_4" data-name="图层 4" xmlns="http://www.w3.org/2000/svg" viewBox="0 0 100 160">
  <defs>
    <style>
      .cls-1, .cls-2, .cls-3 {
        fill: none;
      }

      .cls-1, .cls-2, .cls-3, .cls-4, .cls-5, .cls-6, .cls-7, .cls-8, .cls-9, .cls-10, .cls-11, .cls-12, .cls-13, .cls-14, .cls-15, .cls-16, .cls-17, .cls-18, .cls-19, .cls-20, .cls-21, .cls-22, .cls-23, .cls-24, .cls-25, .cls-26, .cls-27, .cls-28, .cls-29, .cls-30, .cls-31, .cls-32, .cls-33, .cls-34, .cls-35, .cls-36, .cls-37, .cls-38, .cls-39, .cls-40 {
        fill-rule: evenodd;
      }

      .cls-1, .cls-2, .cls-3, .cls-4, .cls-5, .cls-6, .cls-7, .cls-8, .cls-9, .cls-10, .cls-11, .cls-12, .cls-13, .cls-14, .cls-15, .cls-16, .cls-17, .cls-18, .cls-19, .cls-20, .cls-21, .cls-22, .cls-23, .cls-24, .cls-25, .cls-26, .cls-27, .cls-41, .cls-42, .cls-43 {
        stroke-miterlimit: 22.93;
      }

      .cls-1, .cls-3, .cls-4, .cls-6, .cls-8, .cls-9, .cls-11, .cls-13, .cls-14, .cls-15, .cls-17, .cls-18, .cls-22, .cls-24, .cls-25, .cls-26, .cls-27, .cls-41, .cls-43, .cls-40 {
        stroke: #0b0d0d;
      }

      .cls-1, .cls-8, .cls-9, .cls-10, .cls-11, .cls-12, .cls-13, .cls-14, .cls-17, .cls-18, .cls-19, .cls-20, .cls-21, .cls-22, .cls-23, .cls-24, .cls-25, .cls-26, .cls-27, .cls-39, .cls-41, .cls-42, .cls-43 {
        stroke-width: .12px;
      }

      .cls-2 {
        stroke-width: .05px;
      }

      .cls-2, .cls-10, .cls-12, .cls-16, .cls-19, .cls-21, .cls-23, .cls-39, .cls-42 {
        stroke: #0c0d0d;
      }

      .cls-3, .cls-7 {
        stroke-width: .09px;
      }

      .cls-44 {
        fill: #050001;
      }

      .cls-45 {
        fill: #1f3144;
      }

      .cls-46, .cls-15, .cls-31 {
        fill: #0b0d0d;
      }

      .cls-47 {
        fill: #6e5713;
      }

      .cls-48, .cls-8 {
        fill: #455778;
      }

      .cls-49, .cls-50 {
        fill: #272828;
      }

      .cls-4 {
        stroke-width: .14px;
      }

      .cls-4, .cls-38 {
        fill: #fff;
      }

      .cls-5 {
        stroke: #040000;
      }

      .cls-5, .cls-25, .cls-34 {
        fill: #d1d1d1;
      }

      .cls-5, .cls-40 {
        stroke-width: .11px;
      }

      .cls-6 {
        fill: #445876;
        stroke-width: .09px;
      }

      .cls-7 {
        fill: #edc3b4;
        stroke: #231815;
      }

      .cls-9 {
        fill: #465c79;
      }

      .cls-10 {
        fill: #9a9b9a;
      }

      .cls-11, .cls-12 {
        fill: #505150;
      }

      .cls-13 {
        fill: #7ab6de;
      }

      .cls-14 {
        fill: #445671;
      }

      .cls-15, .cls-16 {
        stroke-width: 0px;
      }

      .cls-16, .cls-30 {
        fill: #0c0d0d;
      }

      .cls-17 {
        fill: #76b5de;
      }

      .cls-18 {
        fill: #425972;
      }

      .cls-19 {
        fill: #efc766;
      }

      .cls-20 {
        fill: #f6d6cc;
        stroke: #221714;
      }

      .cls-21 {
        fill: #7bbfea;
      }

      .cls-22, .cls-37 {
        fill: #8b97b0;
      }

      .cls-23, .cls-39 {
        fill: #d2d2d2;
      }

      .cls-24 {
        fill: #d1d2d5;
      }

      .cls-26, .cls-33, .cls-43 {
        fill: #d0cfd2;
      }

      .cls-27 {
        fill: #cccfd2;
      }

      .cls-28 {
        fill: #5cb0e3;
      }

      .cls-29 {
        fill: #95a0b8;
      }

      .cls-32 {
        fill: #1f3247;
      }

      .cls-35 {
        fill: #969696;
      }

      .cls-36 {
        fill: #9d9c9d;
      }

      .cls-39 {
        stroke-linejoin: round;
      }

      .cls-41 {
        fill: #e9bc46;
      }

      .cls-42 {
        fill: #7ac1eb;
      }

      .cls-50 {
        stroke: #050001;
        stroke-linecap: square;
        stroke-linejoin: bevel;
        stroke-width: .23px;
      }

      .cls-40 {
        fill: #959595;
        stroke-miterlimit: 10;
      }
    </style>
  </defs>
  <g id="_右大拇指" data-name="右大拇指">
    <path class="cls-18" d="M67.56,108.62c-.03,.07-.36,2.16-.75,3.05,0,0-.31,.69,.57,.97,0,0,1.25-.15,1.66-1.62l.15-.85s0-1.44-.8-2.06c0,0-.58-.29-.84,.51Z"/>
    <path class="cls-32" d="M67.73,108.63c-.02,.31-.02,.62,0,.92,.04,.66,.25,1.56,.97,1.37,.08-.02,.16-.06,.23-.11l-.03,.15c-.22,.79-.79,1.33-1.48,1.48-.01,0-.02,0-.04,0-.26-.09-.6-.31-.43-.68,.17-.39,.29-.87,.39-1.29,.09-.39,.17-.78,.25-1.17,.04-.18,.07-.42,.12-.6h0s.01-.05,.02-.07Z"/>
  </g>
  <g id="_右大臂" data-name="右大臂">
    <g>
      <path class="cls-27" d="M69.46,105.43c-.37-.8-.66-1.65-1.01-2.46-.23-.52-.55-1.28-.94-2.23,0,0-.8-.67-1.46-.21,0,0-.59,1.15-1.87,1.08,0,0-.79,.9-.12,2.48l1.56,3.37s.45,1.09,1.99,.32c.64-.11,2.05-.43,2.22-1.22,.06-.28-.06-.47-.37-1.13Z"/>
      <path class="cls-29" d="M64.29,101.8c.27,.91,.64,1.96,1.18,3.09,.54,1.14,1.13,2.1,1.67,2.89-.14,.03-.27,.06-.41,.09-.15,.01-.44,.01-.69-.17-.18-.13-.27-.3-.38-.5-.02-.04-.04-.09-.06-.12-.06-.13-.1-.24-.11-.28,0-.01,0-.01,0-.02-.13-.39-.79-1.62-.79-1.62-.37-.68-.52-1.24-.61-1.6-.09-.38-.13-.66-.08-.98,.05-.34,.18-.61,.28-.77Z"/>
    </g>
    <path class="cls-9" d="M66.05,100.54c-.55,.97-1.69,1.36-2.56,.88-.86-.48-1.12-1.67-.57-2.63,.55-.97,1.69-1.36,2.56-.88,.86,.48,1.12,1.67,.57,2.63Z"/>
  </g>
  <g id="_右手腕_手掌" data-name="右手腕+手掌">
    <path class="cls-14" d="M69.73,108.31c-.47,.6-1.34,.71-1.94,.24s-.71-1.34-.24-1.94,1.34-.71,1.94-.25,.71,1.34,.24,1.94Z"/>
    <path class="cls-24" d="M70.59,107.49s1.21,2.25,.9,4c0,0-1.1,2.35-3.02,1.33,0,0-.39-.38-.7-1.71,0,0-.76-2.89,0-3.16,0,0,.58,.35,1.27-.02,0,0,.65-.38,.71-1.06,0,0,.56,.15,.82,.61Z"/>
  </g>
  <g>
    <g id="_右食指" data-name="右食指">
      <path class="cls-18" d="M69.31,111.29s-.18-.38-.67-.26c0,0-.24,.05-.23,.44,0,0-.1,1.02,.04,1.86,0,0,.08,.43,.46,.44,0,0,.4,0,.65-.52l-.17-1.51s0-.33-.08-.46Z"/>
      <path class="cls-32" d="M68.72,111.17c.08,.49,.25,1.07,.64,1.32l.07,.67s0,.05,.01,.07c-.06,.11-.13,.2-.23,.28-.08,.06-.2,.13-.3,.13,0,0,0,0,0,0-.1,0-.19-.04-.25-.14-.04-.05-.07-.11-.08-.18-.01-.08-.02-.16-.03-.24-.05-.49-.05-1.09,0-1.57h0s0-.02,0-.02c0-.12,.03-.27,.14-.3,.01,0,.03,0,.04,0Z"/>
      <g>
        <path class="cls-18" d="M68.66,116.01s-.27,.43-.69,.2c0,0-.42-.21-.36-.96,0,0,.06-.4,.31-.73l.64-.94s.26,.41,.73,.04c0,0,.24,.21,.13,.5l-.14,.21-.49,1.51s-.11,.18-.11,.17Z"/>
        <path class="cls-32" d="M67.83,115.87c-.09-.18-.11-.4-.09-.59,.03-.23,.15-.49,.28-.66l.56-.83c.05,.04,.12,.08,.18,.1-.21,.74-.51,1.4-.93,1.98Z"/>
      </g>
    </g>
    <g id="_右中指" data-name="右中指">
      <g>
        <path class="cls-18" d="M70.46,114.75s.06,1.12-.97,1.76c0,0-.15,.09-.32-.07,0,0-.24-.21-.19-.62l.45-1.48s.25-.5,.55-.51c0,0,.18,.2,.47,.11,0,0,.04,.53,.02,.82Z"/>
        <path class="cls-32" d="M69.8,114.06c.09,.76-.06,1.55-.25,2.24-.04,.03-.07,.05-.11,.07-.06,.03-.14,0-.2-.05-.11-.11-.15-.3-.14-.46l.45-1.47,.12-.19s.08-.1,.13-.14Z"/>
      </g>
      <g>
        <path class="cls-18" d="M70.11,111.16s.5,.1,.6,1.17c0,0,.17,1.01-.03,1.31,0,0-.14,.43-.57,.28,0,0-.31-.09-.41-.8l-.16-1.46s-.03-.36,.27-.46c0,0,.12-.05,.3-.04Z"/>
        <path class="cls-32" d="M69.94,113.55c-.03-.12-.06-.23-.1-.34l-.17-1.47s0-.09,0-.12c.01-.14,.08-.24,.19-.27h0s0,0,0,0c.03-.01,.07-.02,.11-.03,.07,.8,.18,1.72,.41,2.48-.04,.02-.09,.02-.14,.02-.06,0-.14-.04-.18-.09,0,0,0,0,0,0-.04-.05-.08-.1-.1-.16Z"/>
      </g>
    </g>
    <g id="_右中指-2" data-name="右中指">
      <g>
        <path class="cls-18" d="M71.65,114.7s.06,1.12-.97,1.76c0,0-.15,.09-.32-.07,0,0-.24-.21-.19-.62l.45-1.48s.25-.5,.55-.51c0,0,.18,.2,.47,.11,0,0,.04,.53,.02,.82Z"/>
        <path class="cls-32" d="M70.98,114.01c.09,.76-.06,1.55-.25,2.24-.04,.03-.07,.05-.11,.07-.06,.03-.14,0-.2-.05-.11-.11-.15-.3-.14-.46l.45-1.47,.12-.19s.08-.1,.13-.14Z"/>
      </g>
      <g>
        <path class="cls-18" d="M71.3,111.1s.5,.1,.6,1.17c0,0,.17,1.01-.03,1.31,0,0-.14,.43-.57,.28,0,0-.31-.09-.41-.8l-.16-1.46s-.03-.36,.27-.46c0,0,.12-.05,.3-.04Z"/>
        <path class="cls-32" d="M71.13,113.5c-.03-.12-.06-.23-.1-.34l-.17-1.47s0-.09,0-.12c.01-.14,.08-.24,.19-.27h0s0,0,0,0c.03-.01,.07-.02,.11-.03,.07,.8,.18,1.72,.41,2.48-.04,.02-.09,.02-.14,.02-.06,0-.14-.04-.18-.09,0,0,0,0,0,0-.04-.05-.08-.1-.1-.16Z"/>
      </g>
    </g>
  </g>
  <g>
    <g id="_右大臂-2" data-name="右大臂">
      <path class="cls-13" d="M61.94,89.02c-1.07,1.38-3.06,1.63-4.44,.56s-1.63-3.06-.56-4.44c1.07-1.38,3.06-1.63,4.44-.56s1.63,3.06,.56,4.44Z"/>
      <path class="cls-8" d="M60.39,87.65c-.35,.45-1,.53-1.45,.18s-.53-1-.18-1.45,1-.53,1.45-.18,.53,1,.18,1.45Z"/>
      <path class="cls-9" d="M59.23,91.32c-.14-.09-.36-.36-.34-1.12,0,0,1.85,.31,2.95-1.06,0,0,.58,.54,.45,1.11-.09,.37-.22,.48-.49,.73-.65,.61-1.74,.86-2.57,.33Z"/>
      <path class="cls-26" d="M62.4,90.49c.09-.05,.23-.1,.4-.09,.49,.01,.77,.49,.8,.53,.73,1.56,1.33,2.82,1.75,3.69,.46,.95,.69,1.43,1.01,2.15,.57,1.27,.97,2.33,1.23,3.03,0,.16-.01,.33-.02,.49-.33,.53-.59,.57-.71,.57-.53-.01-1.03-1.06-1.27-2.63l-.03-.44-.71-1.28s-.78,.43-.99-.39l-.67-1.65,.47-.62-.67-1.57c-.21-.34-.42-.69-.63-1.03-.05-.06-.12-.13-.22-.2-.09-.07-.18-.11-.25-.14,.04-.04,.08-.08,.12-.11,.13-.12,.26-.22,.38-.3Z"/>
      <path class="cls-33" d="M64.78,96.53l-1.16-2.63-.43,.57,.67,1.65v.02c.03,.07,.05,.12,.07,.17,.15,.29,.4,.32,.6,.29,.11-.02,.2-.06,.26-.08Z"/>
      <path class="cls-26" d="M59.11,92.91c.26,1.15,.8,2,.8,2,.84,1.35,1.48,2.83,2.25,4.23,.41,.75,.73,1.34,.91,1.68,.41-.08,.82-.16,1.23-.25,.66,.25,1.33,.49,1.99,.74,.24-.16,.47-.32,.71-.48-.45-1.02-.89-2.04-1.34-3.06-.23-.43-.46-.85-.69-1.28,.15-.03,.31-.05,.46-.08-.18-.49-.4-1.02-.68-1.58-.19-.38-.38-.73-.58-1.05-.18,.02-.35,.03-.53,.05-.48-.96-.96-1.92-1.44-2.88-.03,0-.06,0-.09-.02-.08-.01-.16-.03-.23-.05,0,0-1.03,1.19-2.58,.47-.08,.14-.19,.38-.24,.69-.06,.36,0,.66,.04,.86Z"/>
    </g>
    <path class="cls-37" d="M59.45,91.58c-.25,.06-.21,1.04-.21,1.09,.04,.77,.35,1.32,.54,1.65,.13,.23,1.45,2.57,2.03,3.76,.08,.16,.48,.99,.8,1.52,.03,.05,.14,.23,.27,.47,.13,.23,.23,.43,.29,.55,.1-.02,.21-.04,.31-.06,.19-.04,.38-.07,.57-.11-.52-.87-1.33-2.28-2.19-4.08-1.3-2.72-2.02-4.87-2.41-4.78Z"/>
  </g>
  <g>
    <g>
      <path class="cls-25" d="M56.93,126.77c.21,.05,.52,.15,.83,.38,.26,.19,.28,.27,.64,.63,.34,.35,.62,.56,1.17,.95,1.03,.74,1.23,.66,1.9,1.2,1.46,1.18,1.99,2.21,1.99,2.21,.38,.8,.43,1.46,.48,2.18,.03,.44,.01,.73-.14,1.01-.18,.32-.47,.52-.86,.68-1.49,.59-3.6,.13-3.6,.13-.91-.2-2.26-.6-3.77-1.51-.47-1.39-.61-2.57-.64-3.36-.05-1.34-.12-2.97,.82-3.89,.41-.4,.88-.54,1.19-.6Z"/>
      <g>
        <path class="cls-34" d="M63.72,134.78c-.57,.15-1.25,.27-2.03,.33-.45,.03-.87,.04-1.25,.03"/>
        <path class="cls-46" d="M63.73,134.84c-1.08,.28-2.19,.32-3.29,.31,1.1-.02,2.2-.11,3.26-.42,0,0,.03,.11,.03,.11h0Z"/>
      </g>
      <g>
        <path class="cls-34" d="M55.95,133.87c1.44,.53,2.5,.9,2.59,.93,.04,.01,.08,.02,.08,.02,.05,.01,.11,.03,.17,.04,.26,.06,.53,.11,.53,.11,.19,.03,.43,.07,.71,.09"/>
        <path class="cls-46" d="M55.97,133.82c1.33,.47,2.64,1.12,4.06,1.24-1.43-.09-2.75-.7-4.1-1.14,0,0,.04-.11,.04-.11h0Z"/>
      </g>
    </g>
    <path class="cls-40" d="M54.79,128.49c.07,.26,.19,.65,.33,1.15,.03,.1,.03,.1,.03,.11,.05,.21,.07,.55,.01,1.58-.05,.89-.09,1.21-.03,1.79,.03,.31,.05,.47,.12,.68,.18,.54,.44,.72,.36,.97-.07,.21-.33,.29-.45,.33-.28,.09-.42,0-.94-.06-.47-.06-.49,0-.99-.08-.45-.07-.68-.11-.79-.25-.11-.14-.1-.31-.05-.82,.08-.7,.15-1.13,.15-1.13,.2-1.17,.27-1.46,.34-1.92,.02-.1,.04-.23,.07-.42,.07-.33,.12-.45,.18-.95,.05-.46,.08-.68,.09-1.01,.02-.41,.11-.8,.15-1.21,0-.05,.04-.12,.08-.21,.11-.2,.27-.31,.37-.37,.13,.1,.29,.25,.43,.44,.38,.51,.48,1.08,.51,1.36Z"/>
  </g>
  <path class="cls-11" d="M44.9,119.57c.35,.27,.9,.61,1.63,.75,1.59,.3,2.82-.6,3.17-.87,0-.25,0-.51,.01-.76,0-.36,0-.71,0-1.06-.15,.2-.44,.53-.79,.69-.1,.05-.29,.12-.5,.18-.08,.02-.17,.05-.27,.07-.2,.04-.44,.1-.76,.09-.17,0-.39-.03-.72-.13-.75-.23-1.49-.66-1.8-.86,0,.04,0,.09,0,.16,0,.13,.01,.43,.02,.78,0,.25,0,.58,0,.97Z"/>
  <path class="cls-11" d="M53.77,119.18c.33,.29,.86,.66,1.55,.81,1.51,.32,2.69-.64,3.02-.94,0-.27,0-.54,.01-.82,0-.39,0-.77,0-1.14-.15,.21-.42,.57-.75,.74-.09,.05-.28,.13-.47,.19-.08,.03-.17,.05-.26,.07-.19,.05-.42,.1-.72,.09-.16,0-.37-.03-.69-.14-.72-.24-1.42-.71-1.72-.92,0,.04,0,.1,0,.17,0,.14,.01,.46,.02,.84,0,.27,0,.62,0,1.05Z"/>
  <g id="_左小腿" data-name="左小腿">
    <path class="cls-23" d="M44.47,120.89s-.07,4.68,.51,7.39c0,0,.35,1.86,2.14,1.32,0,0,2.02-.98,2.64-3.63l.38-5.11s.02-1.51-1.07-1.49c0,0-1.2,1.61-3.14,.8,0,0-.72-.34-.99-.81,0,0-.57,.82-.46,1.53Z"/>
  </g>
  <g id="_左小腿-2" data-name="左小腿">
    <path class="cls-23" d="M58.88,120.41s.07,4.68-.51,7.39c0,0-.35,1.86-2.14,1.32,0,0-2.02-.98-2.64-3.63l-.38-5.11s-.02-1.51,1.07-1.49c0,0,1.2,1.61,3.14,.8,0,0,.72-.34,.99-.81,0,0,.57,.82,.46,1.53Z"/>
    <path class="cls-36" d="M53.91,119.17c1.1,1.44,.49,3.29,.61,5.38,.14,1.53,1.88,3.59,3.26,2.69,.2-.13,.4-.28,.58-.45-.05,.33-.1,.65-.17,.98,0,.02-.01,.05-.02,.07-.88-.07-1.74,.19-2.44,.72-.26-.2-.49-.43-.71-.67-.11-.12-.34-.4-.58-.79-.21-.34-.49-.89-.66-1.64-.13-1.69-.25-3.39-.38-5.08,0-.41,.21-1.08,.51-1.2Z"/>
    <path class="cls-36" d="M44.97,119.68c1.12,1.68,.5,3.83,.62,6.25,.14,1.78,1.92,4.18,3.32,3.13,.21-.15,.4-.33,.59-.52-.05,.38-.1,.76-.17,1.14,0,.03-.01,.05-.02,.08-.9-.08-1.77,.22-2.49,.84-.26-.23-.5-.5-.72-.78-.13-.17-.36-.47-.59-.92-.07-.14-.3-.62-.46-1.32-.09-.39-.1-.64-.14-1.2-.03-.44-.09-1.1-.17-1.92-.03-.59-.05-1.11-.06-1.54-.08-2.21-.02-1.55-.04-1.74,0-.05-.02-.29,0-.6,.03-.33,.1-.52,.16-.64,.05-.11,.11-.2,.15-.26Z"/>
  </g>
  <g id="_右大腿" data-name="右大腿">
    <circle class="cls-42" cx="56.26" cy="103.54" r="3.83"/>
    <path class="cls-12" d="M58.75,107.8s-2.37,2.98-5.93-.44c0,0-.15-1.43,.41-1.47,0,0,.89,1.26,2.55,1.46,0,0,1.29,.32,2.87-.81,0,0,.17,.56,.09,1.27Z"/>
    <g>
      <path class="cls-39" d="M58.65,117.76c.24-1.72,.44-3.53,.58-5.43,.09-1.18,.16-2.33,.21-3.45,0,0,0-1.06-.59-1.24l-.04,.18s-1.3,1.77-3.49,.81c0,0-1.06-.54-1.69-1.27-.25-.25-.61-.29-.84-.13-.22,.15-.23,.43-.24,.47,0,1.07,0,2.18,.03,3.3,.05,2.06,.17,4.03,.33,5.91,0,0-.07,1.32,1.78,1.68,.14-.45,.28-.9,.42-1.35,.12-.33,.27-.7,.45-1.08,.25-.5,.51-.93,.76-1.3,.25,.05,.51,.15,.77,.3,1.27,.73,1.5,2.29,1.54,2.59Z"/>
      <path class="cls-35" d="M59.19,109.76c-1.33-.48-4.45-1.42-4.79,.59h0s-.25,5.93-.25,5.93h0c.02,.21,.07,.47,.17,.75,.09,.24,.19,.44,.28,.6,0,.25,0,.5,.01,.75-.22-.06-.52-.17-.81-.35-.07-.04-.19-.12-.32-.25,0,0-.11-.11-.19-.22-.21-.29-.19-.87-.22-1.46,0,0-.03-.58-.1-1.34-.03-.37-.04-.42-.06-.84-.05-1-.02-1.23-.09-2.14-.12-1.48-.09-2.07-.12-3.26,0-.36-.02-1.07,.29-1.2,.18-.07,.43,.07,.6,.17,.31,.18,.41,.41,.6,.57,.34,.29,.71,.54,1.11,.73,.7,.33,1.45,.4,2.18,.16,.51-.17,1.12-.56,1.46-1.03l.02-.02c.22,.21,.3,.67,.31,.95-.05,.23-.07,.61-.09,.91Z"/>
    </g>
    <path class="cls-21" d="M56.46,101.37s-1.27-.59-2.23-.25c0,0-.44,.46,0,.64,0,0,1.81,.31,2.03,.55l.04,.04,.23-.97h-.08Z"/>
    <path class="cls-28" d="M59.6,102.08c.2,.46,.3,.95,.3,1.46,0,1.11-.5,2.15-1.36,2.84-.52,.37-1.11,.65-1.74,.76-.18,.03-.36,.04-.54,.04-.15,0-.31,0-.47-.03-.4-.05-.8-.17-1.16-.35-.32-.16-.63-.38-.89-.63-.37-.35-.65-.77-.85-1.24l1.6-1.39v.73s.1,.05,.1,.05c.97,.63,2.16,1.08,3.24,.45,.91-.53,1.45-1.66,1.76-2.69Z"/>
  </g>
  <g id="_左大腿" data-name="左大腿">
    <path class="cls-12" d="M44.02,108.45s2.37,2.98,5.93-.44c0,0,.15-1.43-.41-1.47,0,0-.89,1.26-2.55,1.46,0,0-1.29,.32-2.87-.81,0,0-.17,.56-.09,1.27Z"/>
    <path class="cls-23" d="M44.52,118.11s-.85-1.68-.96-4.87c-.12-3.19-.23-3.64-.23-3.64,0,0,0-1.11,.67-1.31l.04,.19s1.49,1.86,3.99,.86c0,0,1.21-.56,1.93-1.34,0,0,.7-.43,.8,.52,0,0-.12,5.91,.01,9.54,0,0-3.49,1.31-4.39,1.23-1.18-.1-1.78-1.08-1.84-1.18Z"/>
    <path class="cls-35" d="M50.51,110.97c-2.29-1.01-4.34-1.09-5.1-.13-.13,.16-.25,.38-.31,.69h0s-.25,5.93-.25,5.93h0c-.01,.06-.09,.44,.17,.75,.15,.18,.34,.24,.42,.26,.29,.21,.59,.42,.88,.63-.14-.03-.32-.08-.53-.17-.33-.14-.54-.31-.6-.36-.13-.11-.31-.25-.46-.49-.07-.11-.11-.2-.14-.28-.03-.06-.05-.12-.17-.5-.08-.26-.12-.38-.13-.42,0,0-.05-.15-.08-.28-.1-.37-.2-.84-.27-1.38-.08-.67-.14-1.37-.2-2.08-.09-1.14-.15-2.25-.18-3.3-.03-.15-.07-.47,.05-.82,.06-.18,.15-.32,.23-.41,.11,.08,.28,.21,.48,.35,.17,.12,.41,.29,.56,.38,.14,.09,.62,.38,1.26,.47,.54,.08,.95-.03,1.3-.11,.57-.14,.98-.37,1.37-.59,.38-.21,.6-.38,.67-.43,.28-.22,.49-.43,.64-.6,.08,0,.21,0,.31,.08,.12,.1,.13,.27,.13,.38,.02,.65-.01,1.32-.02,1.58,0,.23-.02,.49-.02,.49,0,.12,0,.23,0,.35Z"/>
  </g>
  <path class="cls-5" d="M56.82,81.78c.81,.26,2.02,.64,3.02,1.5,1.44,1.24,1.11,2.3,1.18,9.55,0,0,.03,3.04-.9,6.17-.3,1.02-.63,1.51-1.02,1.89-.52,.51-.88,.57-1.4,1.18-.52,.6-.43,.86-.82,1.47-.67,1.06-1.78,1.64-2.17,1.83-.39,.2-1.61,.81-3.34,.79-1.59-.02-2.76-.55-3.4-.84-.92-.42-1.55-.9-1.78-1.08-1.01-.77-1.11-1.19-1.59-1.69-.04-.05-.25-.25-.55-.46-.55-.4-.85-.44-1.26-.66-.57-.32-1.11-1.09-2.17-2.63-.08-.11-.11-.16-.14-.2-.29-.48-.73-1.61-1.51-6.58-.07-.43-.14-.87-.2-1.3-.6-2.45-.35-3.58,.02-4.15,0,0,.23-1.39,1.07-2.39,0,0,.1-.63,.47-1.07,0,0,1.13-1.47,6.24-1.83,.02,0,.29-.02,.68-.05,.07,0,.08,0,.09,0,.26-.02,.8-.05,1.76-.04,3.39,.02,5.33-.16,7.7,.6Z"/>
  <path class="cls-16" d="M46.17,81.21s6.07-.28,7.78,.03c0,0,1.25,.24,.65,1.09-1.01,1.89-8.86,1.84-9.24-.35,0,0-.1-.54,.81-.77Z"/>
  <g id="_脖子" data-name="脖子">
    <path class="cls-6" d="M46.57,77.86c1.04-1.94,6.25-1.76,7.04,.1l-.08,3.92s-.99,1.45-3.3,1.28c0,0-2.91-.01-3.56-1.26l-.14-3.93,.04-.11Z"/>
    <rect class="cls-45" x="46.75" y="80.06" width="6.63" height=".71"/>
  </g>
  <path class="cls-20" d="M57.81,80.46s4.07-.22,6.9-1.75c.7-.38,2.22-1.64,2.22-1.64,0,0,0,0,0,0,0,0,0,0,0,0,.05-.05,.09-.08,.12-.11,.34-.32,1.51-1.5,2.5-3.95,1.79-4.42,1.39-10.33,1.39-10.33-.11-2.11-.45-5.38-1.96-10.61-2.15-7.44-3.23-11.17-5.34-13.07-6.24-5.64-22.66-3.37-28.79,6.72-7.16,11.77,2.8,25.44,4.43,27.58,.07,.09,.14,.18,.15,.2,0,0,0,0,0,0,.22,.28,.09,.84,.09,.84,.78,1.25,2.23,3.13,4.66,4.37,3.95,2.02,7.43,2.09,13.64,1.75Z"/>
  <g>
    <g>
      <g>
        <g>
          <g>
            <g>
              <path class="cls-49" d="M43.31,80.3c-.41,0-1.62-.58-2.69-1.42-.93-.72-1.55-1.47-1.96-1.97-.35-.42-.53-.64-.71-.64l-.1,.03c-.07,.04-.12,.11-.14,.22-.08,.37,.11,1.11,.51,1.63,.06,.08,.12,.14,.17,.2-.54-.27-1.76-.92-2.89-1.83-.79-.64-1.4-1.29-2.49-2.68-2.37-3-3.55-4.51-4.52-6.59-.67-1.46-1.1-2.83-1.39-3.74-.31-.98-.39-1.21-.56-1.21-.23,.05-.21,.34-.13,1.19,.04,.41,.1,1.08,.03,1.19-.17-.1-.99-1.89-1.48-4.02-.18-.8-.34-1.48-.37-2.44-.03-.99,.1-1.8,.19-2.38,.1-.64,.15-.96-.07-1.07l-.1-.02c-.26,0-.59,.38-1.02,.93-.04,.04-.07,.09-.11,.14,.15-.33,.39-.8,.56-1.12l.24-.46c1.44-2.84,2.58-6.64,1.87-7.04l-.12-.03c-.09,0-.18,.05-.34,.15-.13,.08-.3,.18-.57,.32-.78,.4-1.61,.67-2.05,.75,.04-.02,.08-.05,.12-.07,.23-.14,.55-.33,.88-.59,1.46-1.12,2.14-2.61,2.55-3.5,.37-.81,.47-1.27,.58-1.75,.09-.39,.18-.79,.41-1.42,.62-1.67,1.43-2.73,2.37-3.97,1.12-1.47,2.8-3.67,5.57-5.24,1.8-1.01,3.71-1.56,4.75-1.86,.82-.24,.99-.29,.95-.46-.03-.12-.16-.12-.24-.12,0,0-.36,.01-.48,.01-.38,0-.73-.04-1.1-.11-.12-.02-.23-.05-.33-.08,.17,0,.33-.02,.48-.06,.37-.09,.59-.25,.82-.42,.08-.06,.17-.12,.27-.19,.77-.5,1.65-.61,2.25-.61s1.12,.11,1.37,.2c.48,.18,.86,.33,.86,.33l.29,.12c.11,.05,.14,.06,.2,.07,.09,.02,.17,.03,.27,.03,.33,0,.71-.14,1.14-.43,.69-.46,1.08-.99,1.33-1.35l.11-.15c1.11-1.46,3.22-1.66,3.91-1.72h.01c.61,0,1.96,.29,4.19,.76l.83,.18c1.24,.27,1.62,.35,2.3,.41,.57,.05,1.11,.1,1.62,.1,.67,0,1.24-.08,1.81-.26,1.2-.38,2.03-1.08,2.47-1.45,.04-.03,.08-.07,.11-.1-.2,.36-.75,1.09-1.58,1.76-1.14,.91-2.32,1.32-3.11,1.58-.61,.21-.94,.32-.92,.57,.03,.23,.35,.29,.85,.39,.14,.03,.29,.06,.45,.09,1.23,.28,2.02,.81,3.21,1.61l.11,.08c.63,.42,1.12,.82,1.56,1.18,.83,.67,1.43,1.16,2.28,1.28-.08,0-.16,0-.24,0-.08,0-.15,0-.23,0-.88-.04-1.57-.35-1.87-.48-.12-.05-.17-.08-.21-.08l-.11,.07c-.06,.12,0,.15,.45,.39,.47,.26,1.27,.68,2.04,1.25,.95,.7,1.63,1.5,3.07,3.25,1.21,1.47,1.82,2.21,2.3,3.08,.5,.9,1.19,2.13,1.5,3.79,.06,.34,.15,.68,.24,1.02,.13,.49,.26,.99,.31,1.5,.02,.17,.04,.46,.16,.78-.13-.12-.25-.25-.36-.37-1.07-1.13-1.7-2.34-1.93-2.8-.12-.24-.14-.27-.22-.27-.17,.07-.13,.14,.02,.44,.26,.51,.88,1.72,1.25,3.21,.33,1.32,.33,2.35,.34,3.19,.02,3.85,.12,5.5,.18,6.39,.05,.82,.06,1.02-.06,1.68-.59,3.22-2.22,5.68-3.05,6.72,.11-.26,.23-.58,.34-.98,.15-.56,.51-1.88,.17-3.38-.2-.86-.52-1.28-.81-1.65-.3-.4-.57-.74-.67-1.54l-.02-.15c-.05-.45-.12-1.06-.59-1.56-.28-.29-.57-.42-.72-.48-1.6-.68-3-3-3.26-3.46-.55-.96-.77-1.77-.91-2.3-.12-.45-.18-.67-.38-.67-.28,.02-.31,.41-.37,1.45-.05,.81-.13,2.03-.37,3.57-.08,.5-.15,.92-.22,1.29-.23,1.28-.36,1.98-.02,2.97,.12,.37,.29,.71,.43,1.01,.13,.27,.32,.67,.26,.72-.09,0-.36-.09-1.14-.52-.7-.39-1.04-.57-1.47-.88-1.48-1.05-2.75-1.96-3.8-3.59-.52-.81-1.72-3-1.63-5.75,.03-.79,.15-1.39,.21-1.68,.04-.2,.05-.23,.02-.28l-.1-.05c-.23,.18-.94,2.7-.82,5.55,.09,2.1,.56,3.03,.97,3.6,.26,.37,.55,.67,.81,.89-.54-.35-1.34-.93-2.07-1.75-.48-.54-1.48-1.68-1.87-3.53-.29-1.4-.02-2.67,.12-3.28,.06-.28,.08-.36,.04-.42,0,0-.1-.06-.1-.06-.12,0-.14,.09-.21,.39-.11,.47-.35,1.45-1,2.36-.65,.92-1.47,1.4-2.19,1.82-.95,.55-1.6,.73-2.18,.89-.63,.17-1.17,.32-1.87,.89-.82,.67-1.38,1.48-1.68,2.41-.32,1-.34,2.12-.04,3.35,.02,.06,.03,.12,.05,.18-.25-.5-.57-1.2-.81-1.93-.51-1.52-.55-2.89-.56-3.62-.01-.54-.02-.74-.2-.75h0c-.35,0-.53,1.53-.57,2-.13,1.26-.01,2.21,.08,2.97,.41,3.38,.61,4.91,1,5.84,.29,.71,.6,1.26,.83,1.67,.15,.26,.29,.52,.29,.59-.12-.05-.99-.78-1.83-1.79-.88-1.05-2.42-3.27-2.86-6.35-.09-.63-.11-1.15-.13-1.49-.02-.48-.03-.62-.18-.63l-.13,.06c-.21,.25-.65,2.1-.32,4.11,.2,1.19,.66,2.4,1.07,3.47,.15,.38,.27,.69,.37,.93,0,0,0,.02,.01,.03-.32-.49-.85-1.38-1.32-2.39-.19-.42-.35-.79-.47-1.08-.26-.62-.32-.75-.45-.75-.2,.05-.17,.23-.07,.91,.04,.24,.08,.52,.11,.82,.06,.52,.06,.75,.04,2.89v.51s0,.98,.08,3.92c0,.17,.02,.56,.13,1.07,.09,.43,.23,.85,.42,1.25,.14,.6,.33,1.22,.57,1.81,.8,1.95,1.94,3.26,2.62,4.04,.28,.32,.56,.65,.56,.74h-.06Z"/>
              <path class="cls-44" d="M52.49,25.2c.5,0,1.85,.29,4.09,.76l.84,.18c1.24,.27,1.62,.35,2.31,.41,.57,.05,1.11,.1,1.63,.1,.68,0,1.26-.08,1.84-.27,.83-.26,1.49-.67,1.96-1.03-.26,.32-.62,.69-1.07,1.04-1.12,.9-2.3,1.3-3.08,1.57-.67,.23-1.03,.35-.99,.69,.04,.32,.42,.39,.94,.49,.14,.03,.29,.05,.44,.09,1.21,.27,1.99,.8,3.17,1.59l.12,.08c.62,.42,1.12,.82,1.55,1.17,.52,.42,.98,.79,1.48,1.04-.66-.1-1.17-.32-1.41-.43-.14-.06-.19-.09-.26-.09l-.22,.13c-.11,.22,.03,.3,.5,.55,.47,.25,1.26,.68,2.02,1.24,.94,.69,1.61,1.49,3.05,3.23,1.21,1.47,1.81,2.2,2.29,3.06,.5,.89,1.18,2.12,1.49,3.75,.07,.35,.16,.69,.25,1.03,.13,.51,.26,.98,.31,1.5,0,.09,.02,.21,.05,.36-.02-.02-.03-.04-.05-.05-1.06-1.12-1.68-2.32-1.91-2.77-.13-.25-.17-.34-.33-.34l-.11,.03c-.21,.11-.12,.29,.03,.58,.26,.51,.88,1.71,1.25,3.19,.32,1.3,.33,2.33,.33,3.2,.02,3.81,.12,5.47,.18,6.36,.05,.81,.06,1-.05,1.65-.48,2.64-1.69,4.79-2.55,6.03,.02-.07,.04-.15,.07-.23,.14-.52,.52-1.91,.17-3.44-.2-.88-.54-1.31-.83-1.7-.29-.38-.55-.72-.65-1.48l-.02-.15c-.05-.44-.13-1.1-.62-1.62-.3-.32-.62-.45-.78-.52-1.55-.66-2.92-2.95-3.18-3.4-.55-.95-.76-1.74-.9-2.27-.13-.47-.2-.76-.52-.76h0c-.36,.03-.39,.45-.46,1.56-.05,.8-.13,2.02-.37,3.56-.08,.49-.15,.92-.22,1.29-.23,1.3-.36,2.01-.02,3.03,.13,.38,.3,.74,.44,1.02,.08,.18,.18,.38,.23,.52-.14-.05-.42-.17-.95-.47-.69-.38-1.03-.57-1.46-.87-1.53-1.08-2.73-1.94-3.77-3.56-.52-.8-1.7-2.97-1.61-5.68,.03-.78,.15-1.37,.21-1.66,.04-.21,.06-.28,0-.37l-.19-.1-.17,.07c-.19,.2-.88,2.78-.76,5.6,.09,2.13,.58,3.08,.99,3.66,.02,.02,.03,.04,.05,.06-.37-.29-.76-.65-1.12-1.07-.47-.54-1.46-1.65-1.84-3.48-.29-1.38-.01-2.63,.12-3.23,.07-.31,.09-.41,.02-.51l-.15-.11h-.05s0,0,0,0c-.21,0-.25,.17-.32,.47-.11,.46-.34,1.43-.98,2.32-.64,.9-1.44,1.37-2.15,1.79-.94,.55-1.58,.72-2.15,.87-.64,.17-1.19,.32-1.91,.92-.83,.69-1.41,1.52-1.72,2.47-.26,.8-.33,1.68-.19,2.63-.14-.32-.27-.67-.4-1.03-.51-1.5-.54-2.86-.56-3.59-.01-.58-.02-.85-.32-.87h0c-.12,0-.47,.01-.68,2.1-.13,1.27-.01,2.23,.08,3,.41,3.39,.61,4.93,1,5.87,.29,.72,.61,1.27,.84,1.68,.02,.04,.04,.07,.06,.11-.36-.29-.89-.81-1.41-1.44-.87-1.04-2.39-3.24-2.83-6.29-.09-.62-.11-1.14-.13-1.48-.02-.5-.03-.73-.31-.74l-.21,.11c-.27,.31-.67,2.23-.34,4.21,.18,1.06,.56,2.13,.93,3.11-.19-.34-.39-.73-.58-1.14-.19-.41-.35-.79-.47-1.08-.28-.67-.34-.82-.56-.82h-.07c-.25,.08-.22,.31-.11,1.05,.04,.24,.08,.52,.11,.81,.06,.52,.06,.75,.04,2.91v.47s0,.98,.08,3.93c0,.17,.02,.57,.13,1.09,.09,.44,.24,.87,.41,1.23,.15,.63,.34,1.25,.59,1.85,.81,1.97,1.96,3.29,2.65,4.08,.16,.18,.34,.38,.44,.52-.46-.1-1.49-.61-2.48-1.38-.92-.71-1.53-1.46-1.94-1.95-.37-.45-.56-.68-.79-.68l-.16,.04c-.1,.06-.16,.16-.19,.3-.07,.34,.07,.96,.37,1.48-.62-.32-1.52-.85-2.39-1.55-.79-.63-1.39-1.28-2.48-2.66-2.36-2.99-3.54-4.49-4.5-6.57-.67-1.45-1.1-2.82-1.38-3.72-.33-1.05-.41-1.3-.67-1.3h-.06c-.3,.08-.27,.44-.18,1.31,.02,.23,.05,.56,.06,.8-.33-.59-.91-2.05-1.28-3.66-.18-.79-.34-1.47-.36-2.42-.03-.98,.1-1.78,.19-2.36,.11-.68,.16-1.05-.14-1.19-.05-.02-.1-.03-.15-.03-.19,0-.38,.14-.61,.37,.05-.1,.1-.19,.14-.27l.23-.45c1.32-2.61,2.69-6.71,1.82-7.19-.06-.03-.11-.05-.18-.05-.13,0-.23,.06-.4,.17-.12,.08-.3,.18-.57,.32-.46,.23-.9,.41-1.28,.54,.11-.08,.23-.16,.35-.25,1.48-1.14,2.17-2.64,2.58-3.54,.37-.82,.48-1.28,.59-1.77,.09-.38,.18-.78,.41-1.4,.61-1.65,1.42-2.71,2.36-3.94,1.17-1.54,2.78-3.65,5.53-5.2,1.79-1.01,3.7-1.56,4.72-1.85,.89-.26,1.1-.32,1.03-.6-.05-.2-.27-.2-.36-.2-.04,0-.1,0-.16,0-.09,0-.19,0-.31,0-.26,0-.52-.02-.77-.05,.31-.1,.51-.24,.71-.4,.08-.06,.17-.12,.26-.19,.74-.48,1.6-.59,2.18-.59s1.09,.1,1.33,.19c.46,.17,.83,.32,.86,.33h0s0,0,0,0l.29,.12c.12,.05,.15,.06,.22,.08,.1,.02,.19,.04,.3,.04,.35,0,.76-.15,1.21-.45,.7-.47,1.1-1.01,1.36-1.37l.11-.15c1.09-1.42,3.15-1.62,3.83-1.68,.02,0,.05,0,.08,0m13.43-.72c-.18,0-1.12,1.16-2.79,1.68-.61,.19-1.18,.26-1.77,.26-.51,0-1.03-.05-1.61-.1-.8-.07-1.16-.17-3.12-.58-2.36-.5-3.62-.77-4.14-.77-.04,0-.07,0-.1,0-.69,.06-2.85,.27-3.99,1.77-.24,.32-.64,.96-1.42,1.47-.49,.32-.84,.41-1.08,.41-.1,0-.17-.01-.24-.03-.09-.02-.11-.04-.47-.19,0,0-.39-.16-.86-.34-.27-.1-.79-.21-1.41-.21-.72,0-1.58,.15-2.31,.62-.37,.24-.57,.48-1.05,.59-.18,.04-.35,.06-.51,.06-.37,0-.65-.08-.73-.08-.01,0-.02,0-.02,0-.01,.05,.46,.25,1.11,.38,.45,.09,.83,.11,1.12,.11,.21,0,.37-.01,.48-.01,.08,0,.13,0,.13,.03,.05,.19-2.89,.64-5.64,2.19-2.79,1.57-4.45,3.76-5.6,5.27-.95,1.24-1.76,2.32-2.39,4-.53,1.44-.33,1.73-.99,3.16-.44,.96-1.1,2.37-2.51,3.45-.67,.52-1.28,.77-1.24,.86,0,.02,.04,.03,.1,.03,.32,0,1.33-.29,2.31-.79,.58-.3,.75-.46,.86-.46,.02,0,.04,0,.06,.02,.57,.32-.39,3.88-1.91,6.89-.36,.72-1.04,1.95-.93,2.02,0,0,0,0,.01,0,.15,0,.99-1.34,1.36-1.34,.02,0,.04,0,.05,.01,.3,.14-.24,1.4-.19,3.35,.03,.97,.19,1.66,.37,2.46,.46,2.02,1.33,4.09,1.63,4.09,0,0,.01,0,.02,0,.28-.08-.18-2.31,.04-2.36,0,0,0,0,0,0,.23,0,.65,2.31,1.85,4.89,.97,2.1,2.16,3.6,4.53,6.61,1.1,1.39,1.7,2.04,2.51,2.7,1.49,1.2,3.11,1.94,3.31,1.94,.01,0,.02,0,.02,0,.02-.03-.21-.15-.45-.46-.48-.63-.62-1.57-.41-1.69,.01,0,.03-.01,.05-.01,.3,0,.98,1.32,2.59,2.58,1.08,.84,2.31,1.44,2.77,1.44,.08,0,.13-.02,.16-.05,.24-.32-1.9-1.78-3.17-4.89-.3-.74-.47-1.37-.58-1.81-.12-.26-.3-.68-.41-1.22-.1-.49-.12-.87-.12-1.05-.09-2.97-.08-3.92-.08-3.92,.02-2.63,.03-2.84-.04-3.41-.1-.87-.26-1.57-.16-1.6,0,0,0,0,0,0,.1,0,.35,.76,.82,1.77,.73,1.56,1.61,2.87,1.72,2.87,0,0,0,0,0,0,.05-.03-.21-.57-.58-1.52-.41-1.07-.87-2.27-1.07-3.45-.35-2.11,.16-4.04,.33-4.04h0c.1,0,.03,.8,.21,2.02,.44,3.08,1.96,5.3,2.88,6.4,.76,.91,1.71,1.78,1.97,1.78,.02,0,.03,0,.04-.01,.15-.12-.53-.95-1.11-2.36-.39-.94-.59-2.58-.99-5.81-.1-.81-.21-1.74-.08-2.95,.09-.89,.3-1.9,.45-1.9,0,0,0,0,0,0,.21,.01-.14,1.94,.66,4.3,.47,1.39,1.19,2.7,1.27,2.7,0,0,0,0,0,0,.04-.02-.15-.42-.29-1.01-.1-.4-.44-1.82,.04-3.29,.44-1.34,1.35-2.12,1.65-2.36,1.31-1.08,2.03-.6,4.04-1.77,.77-.45,1.57-.93,2.22-1.85,.91-1.29,1.02-2.7,1.11-2.7,0,0,0,0,0,0,.1,.02-.57,1.73-.16,3.66,.39,1.84,1.38,3,1.89,3.58,1.27,1.44,2.75,2.15,2.91,2.15,0,0,.01,0,.01,0,.03-.05-.82-.48-1.48-1.43-.41-.59-.86-1.52-.95-3.54-.13-2.97,.64-5.43,.7-5.43h0s-.21,.76-.25,1.9c-.1,2.98,1.31,5.28,1.65,5.81,1.06,1.66,2.32,2.55,3.83,3.62,.44,.31,.79,.5,1.48,.88,.79,.43,1.08,.53,1.2,.53,.04,0,.06-.01,.08-.03,.21-.19-.36-.94-.66-1.85-.42-1.25-.09-2.04,.25-4.21,.49-3.19,.3-4.9,.62-4.93,0,0,0,0,0,0,.26,0,.23,1.23,1.19,2.91,.15,.25,1.59,2.77,3.29,3.5,.12,.05,.42,.17,.7,.46,.5,.53,.52,1.21,.58,1.64,.21,1.61,1.08,1.48,1.48,3.2,.34,1.48-.02,2.79-.16,3.33-.28,1.04-.69,1.63-.66,1.64,0,0,0,0,0,0,.1,0,2.81-3.02,3.59-7.34,.26-1.42-.09-.8-.12-8.06,0-.86,0-1.91-.34-3.25-.5-2-1.43-3.48-1.39-3.51,0,0,0,0,0,0,.05,0,.68,1.56,2.07,3.03,.39,.41,1.03,1.01,1.05,1.01,0,0,0,0,0,0,0,0-.11-.12-.22-.25-.37-.48-.41-1.05-.43-1.26-.08-.86-.4-1.68-.56-2.53-.31-1.67-1.01-2.92-1.51-3.82-.49-.88-1.1-1.62-2.32-3.1-1.39-1.69-2.11-2.55-3.09-3.27-1.2-.88-2.48-1.44-2.46-1.5,0,0,0,0,0,0,.09,0,.91,.5,2.08,.56,.08,0,.15,0,.23,0,.48,0,.93-.06,.93-.12,0-.05-.47-.09-.6-.11-1.31-.15-2.03-1.22-3.86-2.45-1.25-.84-2.08-1.42-3.37-1.71-.62-.14-1.18-.18-1.2-.38-.04-.39,2.06-.51,3.98-2.05,1.13-.91,1.8-1.98,1.7-2.09,0,0-.01,0-.02,0h0Z"/>
            </g>
            <path class="cls-50" d="M45.06,51.69c-.29,.38-.63,.9-.93,1.55-.26,.57-.42,1.1-.52,1.54"/>
          </g>
          <path class="cls-50" d="M47.98,29.56c-.15-.2-.4-.48-.78-.7-.89-.51-1.85-.29-2.35-.17-2.75,.67-4.79,3.77-4.61,3.96,.05,.05,.22-.14,.82-.48,.55-.32,1.83-.98,3.5-1.22,1.52-.22,2.81-.02,3.69,.21"/>
        </g>
        <path class="cls-50" d="M53.35,30.13c.43,.04,.93,.06,1.48,.02,.96-.06,1.68-.27,2.29-.44,.15-.04,.27-.08,2.14-.74,.31-.11,.69-.24,.99-.35"/>
      </g>
      <path class="cls-50" d="M71.12,40.54c.44,.96,1.06,2.01,1.95,3.03,.17,.19,.34,.38,.5,.55"/>
    </g>
    <path class="cls-50" d="M66.18,42.08c1.12,.58,1.69,1.26,2.01,1.77,.35,.57,.4,.96,1.02,1.99,.5,.84,.58,.77,.77,1.2,.38,.84,.19,1.32,.25,2.78,.05,1.31,.26,2.3,.4,2.94,.22,1.04,.35,1.65,.71,2.4,.69,1.44,1.58,2.08,1.42,2.31-.18,.26-1.45-.38-1.64-.47-.91-.46-2.88-1.49-4.35-3.85-.41-.66-1.23-1.96-1.42-3.6-.03-.24-.09-.84-.22-1.93-.16-1.37-.22-1.59-.28-1.8-.15-.49-.47-1.23-1.24-2.02"/>
    <path class="cls-50" d="M55.37,46.23c-.2,.2-.62,.69-.79,1.44-.12,.51-.08,.94-.03,1.2"/>
  </g>
  <path class="cls-31" d="M68.72,58.34c-.13-.03-.46-.09-.99-.05-.85,.06-1.44,.32-1.56,.37-.26,.12-.48,.22-.73,.43-.29,.26-.46,.55-.54,.74-.02,.05-.15,.45,.08,.76,.18,.25,.5,.28,.74,.31,.07,0,.29,.03,.57-.05,.17-.04,.24-.09,.59-.28,.51-.28,.46-.23,.78-.41,.52-.29,.44-.3,.66-.39,.36-.16,.46-.11,.94-.29,.35-.14,.53-.21,.56-.35,.04-.23-.34-.48-.45-.55-.1-.07-.29-.17-.65-.25Z"/>
  <path class="cls-30" d="M48.44,57.36c1.45-.38,3.56-.33,4.65,.56,.41,.34,1.12,1.05,1.13,1.99,0,0-.14,.69-.9,.66-.54-.02-.57-.15-.93-.49-1.4-1.31-3.73-2.13-4.39-1.77-.27,.14-.76-.1-.45-.51,.2-.27,.6-.35,.89-.43Z"/>
  <g>
    <path class="cls-7" d="M39.62,74.34c.41,.79,1.11,1.92,2.29,3,.87,.79,1.73,1.32,2.4,1.66,.57,.19,1.18,.37,1.81,.54,1.74,.46,3.37,.72,4.83,.85-.14-1.42-.27-2.84-.41-4.26-1.12-.03-2.02-.21-2.64-.37-1.24-.32-2.81-.72-3.91-2.08-.38-.47-.61-.93-.73-1.23-.35,.23-.72,.46-1.12,.69-.88,.5-1.73,.9-2.52,1.2Z"/>
    <path class="cls-2" d="M49.93,77.14c.2,0,.36-.17,.36-.37s-.16-.37-.36-.37-.36,.17-.36,.37,.16,.37,.36,.37Z"/>
  </g>
  <g>
    <ellipse class="cls-43" cx="36.26" cy="64.97" rx="5.82" ry="8.56" transform="translate(-28.54 28.4) rotate(-31.4)"/>
    <ellipse class="cls-41" cx="36.43" cy="65.17" rx="2.93" ry="5.14" transform="translate(-28.61 28.52) rotate(-31.4)"/>
    <path class="cls-47" d="M33.06,62.15c-.12,.01-.13,.81-.06,1.45,.03,.23,.14,1.1,.79,2.39,.36,.72,.96,1.88,2.17,2.82,.66,.52,1.15,.69,1.57,.76,.48,.08,.99,.03,1-.02,0-.04-.3-.06-.61-.14-.65-.17-1.08-.51-1.54-.88-.89-.72-1.41-1.48-1.51-1.62-1.53-2.26-1.59-4.79-1.8-4.77Z"/>
  </g>
  <g>
    <path class="cls-17" d="M34.92,61.72c-.12,.33-.33,.52-.45,.62-.86,.67-2.52,.62-3.55-.25-.54-.45-.81-1.33-1.36-3.09-.22-.69-.51-1.64-.74-2.94-.32-1.8-.4-1.35-.33-3.74,.02-.73-.21-1.53,.14-1.74,.2-.12,.49-.02,.55,0,.4,.13,.61,.51,.69,.66,.55,1.02,1.26,2.7,1.59,3.35,.74,1.5,1.2,1.12,2.22,3.02,0,.02,.31,.77,.91,2.26,.33,.81,.52,1.32,.33,1.85Z"/>
    <path class="cls-48" d="M30.12,51.93s-.04-.07-.04-.07c-.03-.06-.06-.1-.09-.14-.11-.18-.22-.32-.22-.32-.24-.33-.36-.5-.56-.59-.08-.04-.21-.09-.4-.08,.07,.06,.16,.16,.28,.28,.43,.46,.68,.89,.83,1.14,.48,.77,.54,1.18,1.04,2.21,.32,.65,.6,1.22,1.05,1.9,.15,.22,.46,.67,.84,1.32,.17,.29,.26,.44,.32,.58,.27,.57,.28,.87,.57,1.38,.11,.19,.21,.33,.27,.42,0,0,.21,.35,.63,.55,0,0,0,0,0,0,0,0,0,0,0,0,0,0,0,0,0-.02,0-.02-.01-.04-.03-.07-.02-.06-.03-.08-.07-.16-.04-.08-.33-.73-.58-1.37-.29-.74-.28-.8-.47-1.19-.03-.06-.15-.3-.34-.61-.59-.98-1.06-1.33-1.9-2.57-.03-.04-.05-.08-.07-.1-.23-.52-.91-2.15-1.09-2.48Z"/>
  </g>
  <path class="cls-10" d="M29.64,61.34c-.04,.38-.07,.94-.03,1.61,0,.08,.02,.23,.04,.49,.07,.71,.18,1.37,.32,1.99,.16,.42,.35,.87,.58,1.34,.34,.7,.7,1.32,1.05,1.85,.32,.62,.95,1.62,2.06,2.5,1.59,1.26,3.26,1.54,3.99,1.61,.35-.08,.7-.15,1.05-.23-.53-.22-1.13-.51-1.77-.91-.72-.45-1.3-.91-1.76-1.33-.05-.03-.38-.21-.69-.05-.05,.02-.1,.06-.16,.13l-.12,.17c-.34-.52-.69-1.05-1.05-1.58-.53-.77-1.05-1.51-1.58-2.23-.03-.12-.05-.25-.06-.4-.02-.29,0-.55,.05-.74-.13-.28-.33-.71-.53-1.25-.8-2.16-.84-3.83-1.09-3.83-.07,0-.17,.15-.29,.84Z"/>
  <path class="cls-21" d="M54.92,118.35c-.06-.13-.08-.19-.1-.24-.21-.61-.03-1.17,.52-2.45,.53-1.22,.89-1.91,1.22-1.92,.35-.01,.62,.15,.62,.15s.03,.02,.06,.04c.8,.57,1.12,2.1,1.12,2.1,.16,.79,.1,1.45-.04,2.75-.14,1.32-.32,1.73-.65,1.88-.21,.09-.44,.06-.59,.03-.27-.05-.58-.18-1.05-.65-.61-.6-.92-1.26-1.11-1.69Z"/>
  <path class="cls-29" d="M41.03,82.8c-.08,.07-.17,.17-.35,.34-.29,.27-.32,.29-.41,.43-.11,.17-.31,.51-.41,.65-.08,.11-.1,.13-.17,.26-.39,.73-.22,.83-.68,1.92-.09,.21-.21,.49-.3,.91,0,0-.06,.3-.08,.62-.07,1.09,.25,2.21,.25,2.21,.24,.85,.5,2.31,.81,4.81-.5,1.52-.24,2.43,0,2.91,.31,.64,.6,.58,2.05,2.33,.41,.5,.56,.7,.91,.95,.81,.59,1.64,.67,2,.7,.45,.04,1.16,.09,1.76-.33,.12-.08,.19-.13,.22-.21,.2-.54-1.52-1.19-2.22-2.51-.54-1-3.05-8.58-2.47-12.62,.31-2.16,1.55-3.75,1.06-4.1-.39-.28-1.63,.44-1.95,.74Z"/>
  <path class="cls-21" d="M46.2,118.75c-.03-.33,.07-.34,.37-1.42,.24-.87,.22-1.03,.46-1.79,.38-1.2,.61-1.37,.8-1.42,.25-.06,.49,.08,.62,.15,.18,.11,.65,.45,.99,2.01,.07,.33,.29,1.41,.15,2.9-.14,1.61-.52,1.83-.65,1.88-.21,.09-.44,.05-.59,.03-.27-.05-.58-.18-1.05-.65-.61-.6-1.05-1.05-1.11-1.7Z"/>
  <g>
    <g>
      <path class="cls-25" d="M48.3,127.51c.23,.05,.57,.15,.93,.37,.29,.18,.31,.26,.71,.62,.38,.34,.69,.54,1.3,.92,1.15,.72,1.37,.64,2.11,1.17,1.05,.74,1.75,1.23,2.21,2.15,.16,.32,.55,1.14,.25,1.99-.28,.8-1.02,1.18-1.4,1.37-2.47,1.27-7.09-.69-7.64-.94-.55-1.37-.69-2.53-.72-3.27-.05-1.3-.13-2.89,.92-3.79,.45-.39,.97-.53,1.33-.59Z"/>
      <g>
        <path class="cls-34" d="M55.99,134.23c-.65,.3-1.43,.6-2.34,.83-.53,.13-1.02,.23-1.48,.29"/>
        <path class="cls-46" d="M56.02,134.28c-1.22,.57-2.52,.86-3.84,1.07,1.31-.24,2.6-.57,3.79-1.17,0,0,.05,.1,.05,.1h0Z"/>
      </g>
      <g>
        <path class="cls-34" d="M46.53,134.87c1.73,.22,3,.37,3.34,.41,.05,0,.16,.02,.31,.03,.11,0,.34,.03,.64,.03,.24,0,.52,0,.85-.02"/>
        <path class="cls-46" d="M46.54,134.81c1.51,.17,3.63,.6,5.13,.51-1.5,.12-3.64-.26-5.15-.4,0,0,.01-.11,.01-.11h0Z"/>
      </g>
    </g>
    <path class="cls-40" d="M45.93,129.46c.08,.25,.21,.63,.36,1.12,.03,.09,.03,.1,.04,.11,.05,.21,.08,.54,.02,1.54-.05,.87-.1,1.18-.03,1.74,.04,.31,.06,.46,.14,.66,.2,.52,.49,.7,.4,.94-.08,.2-.36,.28-.51,.32-.31,.09-.47,0-1.05-.06-.52-.06-.54,0-1.1-.08-.5-.07-.76-.1-.88-.25-.12-.14-.11-.31-.05-.8,.09-.69,.17-1.1,.17-1.1,.23-1.14,.3-1.42,.38-1.87,.02-.1,.04-.23,.08-.4,.08-.32,.13-.44,.2-.93,.06-.44,.09-.67,.1-.98,.02-.4,.12-.78,.16-1.18,0-.05,.04-.12,.09-.2,.12-.2,.3-.3,.42-.36,.15,.1,.32,.24,.48,.43,.43,.5,.53,1.05,.57,1.33Z"/>
  </g>
  <g>
    <path class="cls-4" d="M51.64,73.12c1.67,.09,2.89-1.19,3.06-1.37,1.4-1.51,1.37-3.56,1.32-4.23-.19-2.69-2.21-5.33-4.56-5.48-1.51-.1-2.63,.86-2.79,1-1.32,1.16-1.57,2.85-1.62,3.41-.29,3.01,1.94,6.52,4.6,6.66Z"/>
    <ellipse class="cls-46" cx="51.51" cy="67.59" rx="3.13" ry="3.99"/>
    <path class="cls-38" d="M49.22,66.38c.28,.3,.86,.12,1.29-.4s.55-1.19,.27-1.49-.86-.12-1.29,.4-.55,1.19-.27,1.49Z"/>
  </g>
  <g>
    <path class="cls-7" d="M69.77,72.07c-.08,.42-.22,.98-.49,1.61-.33,.77-.69,1.3-.91,1.6-.51,.71-1.08,1.26-1.34,1.51-.83,.78-1.67,1.36-2.33,1.76-.24-.95-.48-1.91-.72-2.86,.4-.12,.91-.31,1.43-.64,.37-.24,1.21-.79,1.76-1.85,.29-.56,.4-1.08,.45-1.43,.31,.09,.66,.17,1.07,.22,.4,.06,.77,.07,1.08,.07Z"/>
    <path class="cls-2" d="M64.64,76.4c-.11,.07-.25,.05-.31-.04s-.01-.23,.1-.3,.25-.05,.31,.04,.01,.23-.1,.3Z"/>
  </g>
  <path id="_嘴巴" data-name="嘴巴" class="cls-1" d="M57.57,75.69c.4,.19,1.02,.4,1.78,.4,.36,0,.85,0,1.41-.28,.4-.2,.67-.45,.83-.63"/>
  <path class="cls-15" d="M49.09,104.57c-.57-.28-.9-.18-1.61-.27-.65-.08-1.58-.39-2.66-1.46-.27-.07-.61-.19-.95-.38-.03-.02-.05-.03-.07-.04-.03-.02-.06-.04-.07-.05-.08-.08,.22-.39,.14-.53-.06-.1-.28-.02-.33-.1-.07-.12,.27-.44,.46-.61,.36-.32,.62-.55,1.06-.77,.32-.16,.93-.46,1.71-.4,.03,0,.05,0,.06,0,.48,.03,1.47,.22,2.28,.68,.24,.14,1.78,1.01,2.19,2.73,.32,1.34-.13,2.82-.59,2.87-.41,.05-.5-1.12-1.61-1.67Z"/>
  <g id="_左大腿-2" data-name="左大腿">
    <circle class="cls-42" cx="46.74" cy="104.26" r="3.83"/>
    <path class="cls-21" d="M49.09,101.31c-.2-.05-.45-.09-.74-.09-.74,.01-1.29,.32-1.55,.5,0,0-.24,.62,.31,.66,0,0,2.06-.3,2.41-.12,.12,.04,.25,.07,.37,.11-.26-.35-.53-.71-.79-1.06Z"/>
  </g>
  <g>
    <path class="cls-4" d="M64.75,71.4c.88,.78,1.98,.33,2.13,.26,1.28-.56,1.96-2.13,2.16-2.66,.82-2.14,.61-5.01-.61-6.13-.79-.72-1.72-.47-1.86-.43-1.11,.32-1.83,1.5-2.05,1.91-1.18,2.17-1.17,5.81,.23,7.05Z"/>
    <ellipse class="cls-46" cx="66.7" cy="66.99" rx="3.73" ry="2.08" transform="translate(-8.42 124.39) rotate(-82.51)"/>
    <path class="cls-38" d="M65.54,65.45c.07,.45,.47,.6,.9,.32s.72-.88,.65-1.33-.47-.6-.9-.32-.72,.88-.65,1.33Z"/>
  </g>
  <path class="cls-19" d="M53.5,92.38c1.91-.1,3.4-1.53,3.29-3-.13-1.58-2.06-2.58-3.72-2.44-1.28,.11-2.11,.86-2.23,.98-.08,.07-.96,.93-.8,2.05,.18,1.21,1.54,2.52,3.47,2.42Z"/>
  <path class="cls-3" d="M42.45,85.32c.68,1.8,2.25,5.13,5.72,7.54,1.68,1.17,4.51,3.13,7.58,2.22,2.32-.68,3.6-2.66,3.94-3.19,1.32-2.05,1.34-4.09,1.31-4.86"/>
  <g id="_右大拇指-2" data-name="右大拇指">
    <path class="cls-18" d="M38.07,109.78c.05,.06,1.05,2.07,1.71,2.84,0,0,.53,.6-.27,1.15,0,0-1.31,.25-2.19-1.11l-.42-.81s-.45-1.45,.16-2.33c0,0,.5-.47,1.01,.25Z"/>
    <path class="cls-32" d="M37.9,109.85c.11,.31,.22,.62,.29,.93,.17,.68,.24,1.66-.55,1.68-.09,0-.18,0-.26-.04l.07,.14c.47,.72,1.21,1.09,1.95,1.03,.01,0,.03,0,.04,0,.24-.17,.5-.5,.22-.82-.29-.34-.57-.78-.8-1.18-.21-.36-.42-.73-.62-1.1-.09-.17-.2-.41-.3-.57h0s-.03-.04-.04-.06Z"/>
  </g>
  <g id="_右大臂-3" data-name="右大臂">
    <path class="cls-9" d="M38.47,101.56c.6,.9,1.86,1.13,2.79,.5s1.2-1.87,.6-2.77-1.86-1.13-2.79-.5-1.2,1.87-.6,2.77Z"/>
    <g>
      <path class="cls-27" d="M35.34,106.96c.09-1.11,.86-4.04,1.55-4.96,0,0,.87-.8,1.58-.44,0,0,.66,1.08,2.04,.82,0,0,.87,.79,.15,2.5l-1.66,3.67s-.47,1.17-2.16,.63c0,0-1.6-1.22-1.51-2.22Z"/>
      <path class="cls-29" d="M37.47,109.1c.53-1.11,1.05-2.22,1.58-3.32,.86-2.58,1.24-3.2,1.42-3.16,.14,.03,.25,.49,.28,.79,.02,.2,0,.35-.01,.43-.1,.7-.42,1.35-.43,1.38-.07,.13-.39,.86-1.05,2.32-.21,.47-.37,.85-.47,1.09-.08,.1-.25,.28-.54,.4-.34,.14-.65,.11-.78,.09Z"/>
    </g>
  </g>
  <g id="_右手腕_手掌-2" data-name="右手腕+手掌">
    <path class="cls-14" d="M35.49,109.68c.57,.57,1.49,.57,2.06,0s.57-1.49,0-2.06-1.49-.57-2.06,0-.57,1.49,0,2.06Z"/>
    <path class="cls-24" d="M34.43,109.77s-.97,2.51-.43,4.31c0,0,1.46,2.32,3.34,1,0,0,.36-.45,.51-1.88,0,0,.42-3.12-.41-3.31,0,0-.56,.44-1.34,.14,0,0-.73-.31-.88-1.02,0,0-.57,.23-.78,.75Z"/>
  </g>
  <g id="_右大臂-4" data-name="右大臂">
    <path class="cls-13" d="M43.28,90.52c-1.7,.41-3.42-.67-3.84-2.41s.62-3.49,2.32-3.9c1.7-.41,3.42,.67,3.84,2.41s-.62,3.49-2.32,3.9Z"/>
    <path class="cls-8" d="M42.91,88.43c-.56,.13-1.12-.22-1.26-.79s.2-1.14,.76-1.28,1.12,.22,1.26,.79-.2,1.14-.76,1.28Z"/>
    <path class="cls-9" d="M39.72,90.61c-.06-.17-.06-.51,.43-1.11,0,0,1.27,1.44,2.98,1.06,0,0,.12,.81-.34,1.17-.3,.24-.47,.24-.84,.27-.89,.06-1.91-.44-2.23-1.39Z"/>
    <path class="cls-22" d="M42.73,91.98s1.04,.44,.52,2.5l-1.17,5.06s-.58,1.1-1.66,.66l.25-.37,.24-1.48s-.88-.16-.54-.95l.5-1.75,.76-.19,.45-1.68,.32-1.21s.2-.44-.32-.59c0,0,.28,0,.47-.1,0,0,.15,.07,.18,.09Z"/>
    <path class="cls-33" d="M40.85,98.33l.72-2.84-.7,.17-.5,1.75v.03c-.03,.06-.05,.12-.07,.18-.06,.32,.11,.51,.29,.62,.1,.05,.19,.08,.25,.1Z"/>
    <path class="cls-26" d="M38.77,91.34l-2,8.09s-.55,2.66,1.98,2.12c0,0,1.38-.76,1.92-1.73l.24-1.49s-.88-.13-.55-.91l.42-1.57,.08-.2,.76-.19,.81-3.06s.02-.32-.37-.42c0,0-1.55,.29-2.32-1.28,0,0-.68-.17-.98,.63Z"/>
  </g>
  <g>
    <g id="_右食指-2" data-name="右食指">
      <path class="cls-18" d="M36.45,112.75s.08-.42,.62-.43c0,0,.26,0,.35,.37,0,0,.38,.99,.47,1.87,0,0,.03,.45-.36,.56,0,0-.42,.1-.81-.35l-.23-1.55s-.08-.33-.04-.48Z"/>
      <path class="cls-32" d="M37.03,112.47c.05,.51,.03,1.14-.3,1.48l.11,.68s0,.05,0,.07c.09,.09,.19,.17,.31,.22,.1,.04,.24,.07,.35,.05,0,0,0,0,0,0,.1-.03,.18-.09,.23-.2,.03-.07,.04-.13,.03-.2,0-.08-.02-.17-.03-.25-.08-.5-.24-1.1-.42-1.57h0s0-.02,0-.02c-.03-.12-.11-.26-.22-.26-.02,0-.03,0-.05,0Z"/>
      <g>
        <path class="cls-18" d="M38.4,117.28s.39,.36,.77,.02c0,0,.38-.32,.11-1.05,0,0-.17-.39-.51-.64l-.91-.77s-.16,.47-.74,.23c0,0-.19,.27,0,.53l.21,.17,.91,1.38s.17,.15,.16,.14Z"/>
        <path class="cls-32" d="M39.22,116.92c.05-.2,0-.42-.06-.61-.1-.22-.29-.45-.47-.59l-.8-.68c-.04,.06-.1,.11-.16,.15,.41,.68,.91,1.26,1.49,1.73Z"/>
      </g>
    </g>
    <g id="_右中指-3" data-name="右中指">
      <g>
        <path class="cls-18" d="M36.21,116.49s.24,1.13,1.48,1.5c0,0,.18,.05,.31-.15,0,0,.19-.28,.03-.67l-.86-1.36s-.39-.43-.7-.37c0,0-.14,.25-.45,.23,0,0,.11,.53,.2,.83Z"/>
        <path class="cls-32" d="M36.7,115.63c.12,.78,.48,1.53,.87,2.17,.05,.02,.09,.03,.13,.04,.07,.02,.14-.03,.19-.1,.09-.14,.08-.34,.02-.5l-.86-1.35-.18-.16c-.05-.04-.11-.08-.17-.1Z"/>
      </g>
      <g>
        <path class="cls-18" d="M35.59,112.82s-.49,.23-.3,1.33c0,0,.1,1.05,.39,1.3,0,0,.26,.4,.66,.13,0,0,.29-.17,.2-.9l-.23-1.5s-.07-.37-.4-.39c0,0-.13-.02-.32,.03Z"/>
        <path class="cls-32" d="M36.42,115.16c0-.12,0-.25,.01-.37l-.23-1.51s-.02-.09-.03-.13c-.05-.14-.15-.21-.27-.22h0s0,0,0,0c-.03,0-.08,0-.12,0,.15,.81,.28,1.76,.25,2.58,.05,0,.1,0,.15-.02,.06-.02,.13-.07,.17-.13,0,0,0,0,0,0,.03-.06,.05-.12,.06-.19Z"/>
      </g>
    </g>
    <g id="_右中指-4" data-name="右中指">
      <g>
        <path class="cls-18" d="M34.97,116.75s.24,1.13,1.48,1.5c0,0,.18,.05,.31-.15,0,0,.19-.28,.03-.67l-.86-1.36s-.39-.43-.7-.37c0,0-.14,.25-.45,.23,0,0,.11,.53,.2,.83Z"/>
        <path class="cls-32" d="M35.47,115.89c.12,.78,.48,1.53,.87,2.17,.05,.02,.09,.03,.13,.04,.07,.02,.14-.03,.19-.1,.09-.14,.08-.34,.02-.5l-.86-1.35-.18-.16c-.05-.04-.11-.08-.17-.1Z"/>
      </g>
      <g>
        <path class="cls-18" d="M34.36,113.07s-.49,.23-.3,1.33c0,0,.1,1.05,.39,1.3,0,0,.26,.4,.66,.13,0,0,.29-.17,.2-.9l-.23-1.5s-.07-.37-.4-.39c0,0-.13-.02-.32,.03Z"/>
        <path class="cls-32" d="M35.18,115.42c0-.12,0-.25,.01-.37l-.23-1.51s-.02-.09-.03-.13c-.05-.14-.15-.21-.27-.22h0s0,0,0,0c-.03,0-.08,0-.12,0,.15,.81,.28,1.76,.25,2.58,.05,0,.1,0,.15-.02,.06-.02,.13-.07,.17-.13,0,0,0,0,0,0,.03-.06,.05-.12,.06-.19Z"/>
      </g>
    </g>
  </g>
</svg>