<?xml version="1.0" encoding="UTF-8"?>
<svg id="_图层_2" data-name="图层 2" xmlns="http://www.w3.org/2000/svg" viewBox="0 0 100 160">
  <defs>
    <style>
      .cls-1 {
        fill: #203245;
      }

      .cls-1, .cls-2 {
        stroke-width: .08px;
      }

      .cls-1, .cls-2, .cls-3, .cls-4, .cls-5, .cls-6, .cls-7, .cls-8, .cls-9, .cls-10, .cls-11, .cls-12, .cls-13, .cls-14, .cls-15, .cls-16, .cls-17, .cls-18, .cls-19, .cls-20 {
        stroke-miterlimit: 22.93;
      }

      .cls-1, .cls-4 {
        stroke: #000;
      }

      .cls-2, .cls-3, .cls-5, .cls-6, .cls-7, .cls-8, .cls-9, .cls-10, .cls-11, .cls-12, .cls-13, .cls-14, .cls-15, .cls-16, .cls-17, .cls-18, .cls-19, .cls-21, .cls-20, .cls-22 {
        stroke: #0c0d0d;
      }

      .cls-2, .cls-13 {
        fill: #7bbfea;
      }

      .cls-3 {
        fill: none;
        stroke-width: .09px;
      }

      .cls-3, .cls-4, .cls-5, .cls-6, .cls-7, .cls-8, .cls-9, .cls-10, .cls-11, .cls-12, .cls-13, .cls-14, .cls-15, .cls-16, .cls-17, .cls-18, .cls-19, .cls-23, .cls-24, .cls-25, .cls-26, .cls-27, .cls-28, .cls-29, .cls-21, .cls-22 {
        fill-rule: evenodd;
      }

      .cls-30 {
        fill: #030000;
      }

      .cls-4, .cls-16 {
        fill: #d2d2d2;
      }

      .cls-4, .cls-22 {
        stroke-width: .11px;
      }

      .cls-5 {
        fill: #465874;
      }

      .cls-5, .cls-6, .cls-7, .cls-8, .cls-9, .cls-10, .cls-11, .cls-12, .cls-13, .cls-14, .cls-15, .cls-16, .cls-17, .cls-18, .cls-19, .cls-21, .cls-20 {
        stroke-width: .12px;
      }

      .cls-6, .cls-21 {
        fill: #9a9b9a;
      }

      .cls-7 {
        fill: #505150;
      }

      .cls-8 {
        fill: #47597c;
      }

      .cls-9 {
        fill: #485e7c;
      }

      .cls-10 {
        fill: #455b74;
      }

      .cls-11 {
        fill: #78beea;
      }

      .cls-12 {
        fill: #f3c245;
      }

      .cls-14 {
        fill: #8f9bb5;
      }

      .cls-15 {
        fill: #c1c0c4;
      }

      .cls-17 {
        fill: #d2d3d6;
      }

      .cls-18, .cls-26 {
        fill: #d1d1d4;
      }

      .cls-19 {
        fill: #ced0d3;
      }

      .cls-23 {
        fill: #5cb0e3;
      }

      .cls-24 {
        fill: #282929;
      }

      .cls-25 {
        fill: #213348;
      }

      .cls-27, .cls-22 {
        fill: #969696;
      }

      .cls-28 {
        fill: #9d9c9d;
      }

      .cls-29 {
        fill: #98a4bd;
      }

      .cls-21 {
        stroke-linejoin: round;
      }

      .cls-20 {
        fill: #7ac1eb;
      }

      .cls-22 {
        stroke-miterlimit: 10;
      }
    </style>
  </defs>
  <g id="_右大腿" data-name="右大腿">
    <circle class="cls-20" cx="42.94" cy="104.57" r="3.81"/>
    <path class="cls-7" d="M40.37,108.52s2.36,2.33,5.89-.35c0,0,.15-1.12-.41-1.15,0,0-.89,.99-2.53,1.14,0,0-1.28,.25-2.85-.63,0,0-.16,.43-.09,.99Z"/>
    <path class="cls-23" d="M39.62,103.12c-.2,.46-.3,.95-.3,1.45,0,1.11,.5,2.14,1.36,2.83,.52,.37,1.1,.64,1.73,.75,.18,.03,.36,.04,.54,.04,.15,0,.31,0,.46-.03,.4-.05,.79-.17,1.15-.35,.32-.16,.62-.38,.89-.63,.36-.35,.65-.77,.84-1.23l-1.59-1.39v.73s-.1,.05-.1,.05c-.96,.63-2.15,1.07-3.22,.45-.91-.53-1.44-1.65-1.75-2.67Z"/>
  </g>
  <g id="_右大腿-2" data-name="右大腿">
    <circle class="cls-20" cx="54.34" cy="104.53" r="3.81"/>
    <path class="cls-7" d="M56.91,108.48s-2.36,2.33-5.89-.35c0,0-.15-1.12,.41-1.15,0,0,.89,.99,2.53,1.14,0,0,1.28,.25,2.85-.63,0,0,.16,.43,.09,.99Z"/>
    <path class="cls-23" d="M57.66,103.09c.2,.46,.3,.95,.3,1.45,0,1.11-.5,2.14-1.36,2.83-.52,.37-1.1,.64-1.73,.75-.18,.03-.36,.04-.54,.04-.15,0-.31,0-.46-.03-.4-.05-.79-.17-1.15-.35-.32-.16-.62-.38-.89-.63-.36-.35-.65-.77-.84-1.23l1.59-1.39v.73s.1,.05,.1,.05c.96,.63,2.15,1.07,3.22,.45,.91-.53,1.44-1.65,1.75-2.67Z"/>
  </g>
  <rect class="cls-1" x="45.18" y="79.2" width="6.75" height="3.57"/>
  <g>
    <path class="cls-24" d="M47.06,81.71c-.61,0-1.53-.36-2.33-.68-.64-.25-1.19-.47-1.49-.47-.13,0-.22,.04-.28,.12-.09,.14,0,.31,.09,.46,.03,.06,.09,.16,.09,.19-.35,0-1.17-.42-1.91-.77-.75-.37-1.4-.69-1.67-.69l-.19,.08c-.09,.13,.02,.28,.14,.45,.05,.07,.13,.19,.13,.23-.3-.03-.97-.31-1.54-.74-.63-.48-1.03-1.04-1.27-1.37-.18-.26-.26-.37-.38-.37-.23,.09-.15,.32,0,.78,.1,.31,.31,.95,.18,1.05h-.01c-.66,0-2.55-1.47-4-3.5-1.14-1.6-1.65-3.09-1.98-4.08l-.05-.15c-.4-1.18-.57-2.1-.75-3.07-.21-1.15-.43-2.33-1.05-4.05-.19-.52-.63-1.75-1.76-2.4-.03-.02-.72-.41-1.34-.41-.25,0-.46,.06-.62,.19-.12,.09-.26,.28-.43,1-.15,.62-.19,1.08-.21,1.35,0,.03,0,.06,0,.09-.25-.51-.76-2.24-.94-4.29-.13-1.55-.19-2.26-.02-2.95l.07-.27c.21-.81,.33-1.39,.06-1.54l-.14-.03c-.46,0-1.3,.85-1.39,.95-.61,.64-1.19,1.19-1.48,1.41,.04-.07,.08-.16,.13-.24,.22-.41,.6-1.08,.88-1.95,.19-.59,.32-1.47,.57-3.23,.09-.64,.14-1.01,.17-1.27,.05-.44,.07-.57,.17-.9l.08-.26c.12-.4,.2-.66,.04-.77l-.11-.03c-.12,0-.26,.1-.51,.29-.2,.15-.46,.35-.82,.56-.55,.33-.89,.5-1.02,.5,.03-.05,.33-.42,.56-.71,.17-.21,.35-.44,.53-.69,.56-.76,.76-1.23,1.03-1.87,.19-.45,.43-1.01,.86-1.83,.44-.83,1.03-1.96,2.04-3.26,.34-.43,1.12-1.45,2.36-2.52,.76-.66,1.45-1.14,1.96-1.5,.64-.45,.86-.6,.77-.77-.03-.07-.1-.1-.2-.1-.12,0-.3,.04-.58,.11-.32,.07-.75,.17-1.3,.26-.5,.08-1.33,.21-1.85,.21-.34,0-.4-.06-.4-.06,.04-.15,.98-.65,2.08-1.23,1.02-.54,2.41-1.27,4.02-2.22,1.12-.66,1.88-1.15,2.45-1.51,1.08-.7,1.48-.96,2.43-1.17,.66-.15,1.34-.23,2.08-.23s1.4,.08,1.92,.14c.34,.04,.62,.07,.83,.07s.43-.03,.5-.23c.09-.28-.23-.49-.81-.88-.51-.34-1.21-.81-1.92-1.53-1.89-1.88-2.71-4.26-2.71-4.76,.02,.06,.09,.15,.15,.24,.26,.35,.69,.94,1.42,1.58,1.65,1.44,3.48,1.96,4.47,2.23,.68,.19,1,.22,1.45,.26,.45,.04,1,.08,2.16,.32,1.38,.28,2.45,.5,3.46,.99,.94,.46,1.42,.95,1.85,1.37,.48,.48,.89,.9,1.78,1.06,.17,.03,.3,.04,.41,.04,.15,0,.28-.02,.42-.05,.19-.03,.4-.07,.79-.07,.15,0,.31,0,.51,.02,1.41,.1,2.32,.45,3.21,.8,1.38,.54,1.48,.74,1.49,.77-.05,0-.38,.01-.56,.02-.16,0-.31,.01-.41,.03-.29,.05-.59,.07-.9,.07-.47,0-.84-.06-1.03-.09-.08-.01-.13-.02-.15-.02l-.12,.09c-.03,.13,0,.13,.55,.28,.84,.22,2.59,.68,4.41,1.47,1.1,.48,1.87,.94,2.77,1.47,2.27,1.34,3.39,2,4.48,3.17,.94,1.01,1.52,2.04,2.69,4.07,.37,.65,.91,1.59,1.83,2.7,.52,.63,.79,.94,1.19,1.25,1.18,.9,2.53,1.05,3.25,1.14,.2,.02,.43,.05,.48,.08-.08,.01-.76,.24-1.69,.24-.11,0-.22,0-.33,0-.44-.03-.81-.1-1.1-.17-.22-.05-.4-.09-.55-.09-.16,0-.27,.05-.34,.14-.14,.18-.06,.38,.09,.78,.06,.17,.14,.37,.23,.63,.3,.92,.45,1.69,.39,1.8,.01-.04-.15-.23-.31-.42-.21-.24-.5-.58-.9-1-.57-.6-.69-.64-.78-.64-.27,.12-.18,.44,.04,1.15,.17,.55,.4,1.31,.54,2.15,.05,.29,.14,.9-.04,3.35-.28,3.72-.72,5.51-.9,5.64,.02-.02-.02-.14-.04-.22-.08-.25-.21-.63-.58-.9-.2-.14-.39-.19-.5-.22-.17-.05-.36-.07-.55-.07-.73,0-1.55,.34-2.14,.9-.6,.56-.84,1.21-.97,1.65-.51,1.7-.84,3.21-1.12,4.54-.22,1.01-.42,1.96-.68,2.85-.25,.88-.54,1.73-.54,1.74-.2,.5-.67,1.57-1.16,2.35-.87,1.36-1.99,2.51-3.34,3.4-1.15,.76-2.2,1.29-2.56,1.35,.01-.02,.02-.04,.04-.06,.06-.11,.15-.28,.27-.54,.22-.5,.32-.73,.18-.84l-.1-.03c-.11,0-.22,.1-.45,.3-.27,.24-.67,.59-1.2,.89-.55,.3-1.22,.53-1.58,.53-.12,0-.14-.03-.14-.03-.02-.09,.3-.44,.44-.59,.26-.29,.39-.43,.29-.55l-.12-.05c-.09,0-.21,.07-.5,.25-.41,.26-1.1,.68-1.93,.93l-.31,.1c-.38,.12-.85,.28-1.2,.28-.19,0-.31-.04-.39-.13-.13-.15-.09-.41-.06-.64,.03-.22,.07-.43-.09-.52l-.11-.03c-.19,0-.43,.23-.79,.6-.33,.34-.73,.75-.99,.75-.22-.07-.28-.37-.34-.62-.06-.28-.11-.52-.31-.54h0c-.22,0-.33,.25-.46,.57-.1,.23-.25,.57-.37,.57-.12,0-.26-.29-.36-.47-.13-.25-.23-.45-.4-.45-.2,.03-.22,.23-.23,.45-.02,.21-.03,.46-.17,.6-.1,.1-.26,.16-.49,.16Z"/>
    <path class="cls-30" d="M36.89,24.6h0m.1,.57c.27,.36,.67,.85,1.27,1.37,1.67,1.46,3.52,1.98,4.51,2.26,.69,.2,1.04,.22,1.47,.26,.44,.04,.99,.08,2.17,.32,1.34,.27,2.4,.49,3.41,.98,.92,.45,1.4,.93,1.81,1.35,.49,.5,.91,.92,1.84,1.09,.17,.03,.3,.04,.43,.04,.17,0,.3-.02,.44-.05,.18-.03,.39-.07,.77-.07,.14,0,.31,0,.51,.02,1.39,.09,2.3,.45,3.18,.79,.66,.26,1.02,.44,1.21,.55-.09,0-.18,0-.24,.01-.16,0-.32,.01-.42,.03-.28,.05-.58,.07-.88,.07-.46,0-.82-.06-1.01-.09-.09-.01-.15-.02-.17-.02l-.24,.18c-.06,.24,.07,.27,.63,.42,.84,.22,2.58,.67,4.39,1.47,1.09,.48,1.86,.93,2.79,1.48,2.23,1.31,3.35,1.97,4.42,3.13,.93,1,1.51,2.02,2.67,4.05l.05,.09c.32,.57,.86,1.52,1.8,2.63,.53,.63,.8,.95,1.2,1.26,1.12,.86,2.4,1.05,3.16,1.14-.27,.06-.63,.1-1.05,.1-.1,0-.21,0-.32,0-.43-.03-.79-.1-1.08-.17-.23-.05-.41-.09-.57-.09-.19,0-.34,.06-.43,.19-.18,.23-.09,.48,.07,.9,.06,.17,.14,.37,.23,.63,.18,.54,.3,1.05,.36,1.37-.03-.03-.06-.07-.09-.1-.21-.25-.5-.58-.91-1.01-.59-.61-.72-.68-.86-.68l-.13,.03c-.29,.15-.18,.5,.06,1.27,.17,.55,.4,1.3,.53,2.13,.05,.29,.14,.89-.04,3.32-.21,2.84-.53,4.64-.74,5.31-.09-.26-.23-.61-.6-.87-.22-.16-.43-.21-.54-.24-.18-.05-.37-.07-.58-.07-.76,0-1.61,.36-2.22,.93-.62,.58-.87,1.25-1,1.7-.51,1.7-.84,3.21-1.13,4.54-.22,1.01-.42,1.96-.68,2.85-.25,.87-.54,1.72-.54,1.72-.18,.47-.66,1.56-1.16,2.33-.86,1.35-1.97,2.48-3.31,3.37-.95,.63-1.8,1.08-2.25,1.25,.05-.09,.11-.21,.17-.35,.24-.54,.36-.81,.15-.98l-.17-.06c-.15,0-.28,.11-.53,.33-.26,.23-.66,.58-1.18,.87-.59,.32-1.2,.5-1.5,.51,.09-.13,.26-.32,.36-.43,.28-.3,.46-.5,.29-.71l-.21-.1c-.13,0-.26,.08-.56,.27-.41,.25-1.09,.68-1.91,.92-.1,.03-.2,.06-.31,.1-.37,.12-.84,.27-1.17,.27-.15,0-.25-.03-.31-.09-.1-.11-.06-.35-.03-.54,.04-.24,.08-.51-.15-.64-.05-.03-.11-.04-.17-.04h0c-.24,0-.48,.23-.87,.63-.28,.29-.7,.72-.93,.72,0,0,0,0,0,0-.1-.04-.16-.35-.2-.52-.06-.3-.13-.6-.44-.63-.27,0-.4,.29-.55,.64-.07,.16-.2,.46-.26,.5-.07-.03-.21-.29-.27-.41-.14-.27-.26-.51-.5-.51h-.05c-.26,.05-.28,.33-.3,.55-.01,.19-.03,.42-.14,.53-.07,.08-.21,.12-.4,.12-.59,0-1.49-.36-2.29-.67-.67-.26-1.21-.47-1.53-.47-.21,0-.32,.09-.37,.17-.13,.2-.02,.41,.07,.57-.37-.1-1.07-.44-1.66-.73-.88-.43-1.43-.7-1.72-.7-.16,0-.24,.07-.28,.13-.13,.19,0,.39,.12,.56-.29-.09-.77-.31-1.23-.65-.62-.46-1.01-1.02-1.25-1.35-.2-.28-.3-.42-.47-.42l-.11,.02c-.26,.12-.16,.42,0,.91,.09,.26,.27,.81,.22,.91-.47,0-2.33-1.35-3.84-3.47-1.13-1.59-1.63-3.07-1.97-4.05l-.05-.15c-.4-1.17-.57-2.09-.75-3.06-.21-1.15-.44-2.34-1.05-4.07-.19-.54-.64-1.79-1.81-2.46-.08-.04-.77-.43-1.4-.43-.28,0-.51,.07-.69,.21-.13,.1-.28,.27-.47,1.07-.09,.39-.14,.72-.17,.98-.26-.74-.61-2.16-.76-3.82-.13-1.53-.18-2.24-.03-2.92,.02-.08,.04-.17,.07-.27,.23-.89,.35-1.48,0-1.66l-.07-.03s-.08-.02-.12-.02c-.49,0-1.25,.76-1.48,.99-.36,.38-.71,.73-.99,.99,.22-.41,.5-.98,.72-1.66,.2-.6,.32-1.49,.57-3.25v-.06c.09-.58,.14-.95,.17-1.21,.05-.43,.07-.56,.16-.89l.08-.25c.13-.43,.23-.74,0-.9l-.18-.05c-.16,0-.31,.11-.58,.31-.19,.15-.46,.34-.81,.55-.27,.16-.47,.27-.61,.34,.09-.12,.2-.26,.3-.39,.17-.21,.35-.44,.53-.69,.57-.77,.77-1.24,1.04-1.89,.19-.45,.43-1,.86-1.82,.43-.83,1.03-1.96,2.02-3.24,.33-.43,1.12-1.44,2.34-2.51,.75-.65,1.45-1.14,1.95-1.49,.7-.49,.94-.65,.8-.92-.03-.06-.11-.16-.31-.16-.13,0-.32,.04-.61,.11-.31,.07-.74,.17-1.3,.26-.53,.08-1.33,.21-1.83,.21-.06,0-.12,0-.16,0,.3-.23,1.08-.64,1.89-1.07,1.02-.54,2.41-1.27,4.02-2.23,1.12-.66,1.89-1.16,2.45-1.52,1.07-.69,1.47-.94,2.4-1.16,.65-.15,1.32-.22,2.05-.22s1.39,.08,1.9,.14c.35,.04,.62,.07,.84,.07,.14,0,.51,0,.61-.3,.12-.36-.25-.61-.85-1.02-.51-.34-1.2-.81-1.91-1.51-1.45-1.44-2.29-3.22-2.57-4.14m-.28-.69s-.01,0-.02,0c-.25,.15,.61,2.91,2.7,4.99,1.45,1.45,2.83,1.91,2.7,2.29-.04,.11-.17,.15-.39,.15-.52,0-1.5-.21-2.75-.21-.64,0-1.35,.06-2.1,.23-1.48,.34-1.68,.79-4.91,2.7-3.81,2.25-6.28,3.23-6.14,3.6,.03,.09,.23,.13,.5,.13,.52,0,1.33-.13,1.87-.21,1.02-.16,1.63-.36,1.86-.36,.05,0,.09,.01,.1,.04,.09,.18-1.21,.83-2.7,2.13-1.22,1.06-2,2.05-2.37,2.54-.99,1.27-1.58,2.38-2.05,3.27-1.05,2-.94,2.4-1.88,3.68-.56,.77-1.18,1.42-1.06,1.56,.01,.02,.04,.02,.07,.02,.23,0,.84-.37,1.08-.51,.74-.45,1.1-.83,1.26-.83,.02,0,.03,0,.05,.01,.12,.08-.03,.45-.16,.9-.16,.54-.11,.58-.33,2.13-.25,1.79-.38,2.69-.57,3.27-.48,1.47-1.21,2.35-1.08,2.44,0,0,.01,0,.02,0,.21,0,1.3-1.1,1.72-1.54,0,0,.88-.92,1.31-.92,.02,0,.04,0,.06,0,0,0,.01,0,.02,0,.25,.13-.07,1.17-.18,1.68-.17,.72-.11,1.48,.02,2.99,.21,2.42,.91,4.53,1.11,4.53,0,0,0,0,0,0,.1-.02,.02-.58,.28-1.66,.18-.75,.31-.88,.39-.94,.15-.12,.35-.16,.55-.16,.58,0,1.23,.37,1.29,.4,1.07,.61,1.49,1.73,1.71,2.34,1.13,3.16,.92,4.55,1.8,7.12,.34,.99,.84,2.56,2.05,4.26,1.43,2.01,3.39,3.56,4.03,3.56,.06,0,.11-.01,.15-.04,.33-.26-.44-1.72-.27-1.8,0,0,0,0,.01,0,.16,0,.56,.96,1.58,1.72,.6,.45,1.29,.74,1.58,.74,.06,0,.11-.01,.13-.04,.1-.13-.36-.53-.28-.65,.02-.02,.05-.03,.09-.03,.53,0,2.9,1.45,3.54,1.45,.06,0,.11-.02,.14-.05,.11-.14-.28-.48-.17-.65,.03-.05,.09-.07,.18-.07,.65,0,2.71,1.14,3.82,1.14,.25,0,.44-.06,.57-.19,.3-.32,.12-.98,.31-1.01,0,0,0,0,.01,0,.21,0,.42,.92,.75,.92h0c.37,0,.55-1.14,.82-1.14,0,0,0,0,0,0,.25,.02,.16,.99,.55,1.14,.03,.01,.07,.02,.1,.02,.55,0,1.43-1.35,1.78-1.35,.02,0,.04,0,.05,.01,.2,.11-.18,.8,.12,1.14,.11,.12,.28,.17,.48,.17,.47,0,1.12-.25,1.55-.38,1.29-.38,2.21-1.18,2.4-1.18,.01,0,.02,0,.03,.01,.09,.11-.88,.89-.74,1.14,.03,.05,.12,.08,.24,.08,.36,0,1.04-.22,1.63-.54,.92-.51,1.44-1.18,1.6-1.18,.01,0,.02,0,.03,0,.07,.06-.05,.34-.21,.71-.23,.54-.38,.67-.34,.74,.01,.02,.04,.03,.08,.03,.32,0,1.49-.59,2.68-1.38,.73-.48,2.17-1.56,3.38-3.44,.49-.77,.96-1.83,1.18-2.37,0,0,0,0,0,0,0,0,.29-.85,.54-1.74,.59-2.09,.91-4.42,1.8-7.39,.15-.48,.39-1.08,.94-1.6,.56-.52,1.34-.87,2.06-.87,.18,0,.35,.02,.52,.07,.11,.03,.28,.08,.47,.21,.58,.41,.51,1.14,.72,1.14,.27,0,.72-2.28,.98-5.74,.18-2.37,.1-3.02,.04-3.38-.27-1.7-.94-3.05-.72-3.16,0,0,.01,0,.02,0,.05,0,.19,.08,.69,.61,.89,.93,1.21,1.44,1.35,1.44,0,0,.02,0,.02,0,.18-.08-.11-1.22-.35-1.92-.28-.84-.48-1.13-.34-1.31,.06-.07,.14-.1,.25-.1,.31,0,.85,.21,1.64,.25,.11,0,.22,0,.33,0,.97,0,1.79-.24,1.79-.4,0-.25-2.06,.04-3.76-1.26-.39-.3-.65-.61-1.17-1.23-.97-1.16-1.51-2.14-1.82-2.68-1.15-2.02-1.76-3.07-2.7-4.09-1.1-1.19-2.24-1.86-4.5-3.19-.93-.55-1.69-.99-2.78-1.47-2.5-1.09-4.91-1.56-4.89-1.62,0,0,0,0,.01,0,.08,0,.54,.11,1.19,.11,.28,0,.59-.02,.92-.08,.29-.05,1.06,0,1.06-.17,0-.23-1.02-.65-1.56-.86-.9-.35-1.82-.71-3.24-.81-.2-.01-.37-.02-.52-.02-.68,0-.85,.12-1.2,.12-.11,0-.23-.01-.39-.04-1.61-.29-1.56-1.43-3.59-2.43-1.04-.51-2.1-.72-3.49-1-2.31-.47-2.25-.19-3.6-.57-1.07-.3-2.82-.82-4.42-2.21-1.14-1-1.56-1.89-1.7-1.89h0Z"/>
  </g>
  <g id="_耳机" data-name="耳机">
    <g>
      <path class="cls-11" d="M74.5,66.69c0-.08,1.42-5.61,.83-8.09,0,0-.14-.66-.53,.76,0,0-.66,3.47-1.27,4.05,0,0,.59,.72,.32,2.4,0,0-.19,.62,.15,.76,0,0,.17,.09,.51,.11Z"/>
      <path class="cls-12" d="M75.13,69.09s-.54,3.17-2.49,5.25c0,0-1.49,2.01-3.35,1.44,0,0,2.89-4.02,3.79-6.61,0,0,.6-1.74,.67-2.53,0,0,.1-.45,1.01,.47,0,0,.78,.53,.36,1.98Z"/>
      <path class="cls-18" d="M71.93,61.71s1.29,.95,1.59,1.71c0,0,.58,.61,.27,2.84,0,0-.36,2.59-1.35,4.4,0,0-3.41,7.37-6.84,7.3h-.12s1.74-2.49,2.27-4.27c0,0,.04-.21,.54,0l.39,.16s2.49-4.18,2.36-5.11c0,0,.24-.1-.89-.8,0,0,1.63-4.14,1.28-5.79,0,0-.07-.66,.5-.42Z"/>
      <path class="cls-21" d="M70.63,73.86c-.75,1.13-1.68,2.33-2.69,3.13-1.1,.82-1.99,.96-2.45,.95h0s1.74-2.48,2.27-4.27c0,0,.04-.21,.54,0l.39,.16s.22-.37,.53-.92l1.41,.95h0Zm.81-10.54h0s0,0,0,0h0Zm-.01-1.2s0-.05,0-.09v.09Z"/>
      <path class="cls-6" d="M64.84,77.81s-.39-.08-.7-.25c-.08-.06-.15-.13-.2-.2,.17-.29,1.19-2.05,1.69-3.2l.07-.14c.07-.09,.41-.57,.88-1.87h0s0,0,0,0c.37-1.03,.84-2.57,1.34-4.86h0s0-.02,0-.02h0c.16-.75,.32-1.56,.49-2.46h0s0,0,0,0c0,0,.85-1.26,1.72-2.08,.19-.17,.4-.33,.62-.49,.15-.09,.29-.15,.42-.18h.26s0,1.03,0,1.03c0,.12-.02,.25-.03,.39l-.14,.48-.33,.24s-2.67,3.83-1.73,8.74l-.52,.93s-.77-.38-.92-.19c0,0,.12,.71-2.28,4.31l-.65-.14Z"/>
      <path class="cls-15" d="M64.84,77.81s-.63-.12-.92-.41c0,0,1.25-2.11,1.76-3.36,0,0,1.3-1.49,2.73-9.25,0,0,.97-1.79,2.84-2.89,0,0,.17-.07,.18,.12,0,0,.31,2.33-1.28,5.91,0,0,.71,.34,.9,.73,0,0,.07,.91-1.33,3.32l-1.04,1.86s-.77-.38-.92-.19c0,0,.12,.71-2.28,4.31l-.65-.14Z"/>
    </g>
    <g>
      <path class="cls-11" d="M22.9,67.18c0-.08-1.42-5.61-.83-8.09,0,0,.14-.66,.53,.76,0,0,.66,3.47,1.27,4.05,0,0-.59,.72-.32,2.4,0,0,.19,.62-.15,.76,0,0-.17,.09-.51,.11Z"/>
      <path class="cls-12" d="M22.27,69.59s.54,3.17,2.49,5.25c0,0,1.49,2.01,3.35,1.44,0,0-2.89-4.02-3.79-6.61,0,0-.6-1.74-.67-2.53,0,0-.1-.45-1.01,.47,0,0-.78,.53-.36,1.98Z"/>
      <path class="cls-18" d="M25.47,62.2s-1.29,.95-1.59,1.71c0,0-.58,.61-.27,2.84,0,0,.36,2.59,1.35,4.4,0,0,3.41,7.37,6.84,7.3h.12s-1.74-2.49-2.27-4.27c0,0-.04-.21-.54,0l-.39,.16s-2.49-4.18-2.36-5.11c0,0-.24-.1,.89-.8,0,0-1.63-4.14-1.28-5.79,0,0,.07-.66-.5-.42Z"/>
      <path class="cls-21" d="M26.78,74.36c.75,1.13,1.68,2.33,2.69,3.13,1.1,.82,1.99,.96,2.45,.95h0s-1.74-2.48-2.27-4.27c0,0-.04-.21-.54,0l-.39,.16s-.22-.37-.53-.92l-1.41,.95h0Zm-.81-10.54h0s0,0,0,0h0Zm.01-1.2s0-.05,0-.09v.09Z"/>
      <path class="cls-6" d="M32.56,78.3s.39-.08,.7-.25c.08-.06,.15-.13,.2-.2-.17-.29-1.19-2.05-1.69-3.2l-.07-.14c-.07-.09-.41-.57-.88-1.87h0s0,0,0,0c-.37-1.03-.84-2.57-1.34-4.86h0s0-.02,0-.02h0c-.16-.75-.32-1.56-.49-2.46h0s0,0,0,0c0,0-.85-1.26-1.72-2.08-.19-.17-.4-.33-.62-.49-.15-.09-.29-.15-.42-.18h-.26s0,1.03,0,1.03c0,.12,.02,.25,.03,.39l.14,.48,.33,.24s2.67,3.83,1.73,8.74l.52,.93s.77-.38,.92-.19c0,0-.12,.71,2.28,4.31l.65-.14Z"/>
      <path class="cls-15" d="M32.56,78.3s.63-.12,.92-.41c0,0-1.25-2.11-1.76-3.36,0,0-1.3-1.49-2.73-9.25,0,0-.97-1.79-2.84-2.89,0,0-.17-.07-.18,.12,0,0-.31,2.33,1.28,5.91,0,0-.71,.34-.9,.73,0,0-.07,.91,1.33,3.32l1.04,1.86s.77-.38,.92-.19c0,0-.12,.71,2.28,4.31l.65-.14Z"/>
    </g>
  </g>
  <g>
    <path class="cls-4" d="M54.26,82.89c.91,.33,1.82,.66,2.6,1.45,1.65,1.67,.76,3.38,.63,11.22-.05,2.95,.05,4.87-1.27,5.87-.74,.56-1.36,.41-2.46,1.35-1.05,.9-.99,1.49-2.09,2.27-.27,.19-1.06,.72-2.21,.92-.46,.08-1.59,.27-2.82-.25-.63-.26-1.02-.6-1.53-1.04-1.12-.97-.93-1.36-1.84-2.09-.96-.77-1.42-.55-2.09-1.29-.57-.63-.74-1.34-.86-1.9-.6-2.86-.7-5.85-.74-7.12,0,0-.04-1.39,0-4.85,.02-1.93,.06-2.6,.31-3.02,.07-.11,.14-.18,.18-.24,0,0,1.22-1.44,5.37-1.78,.01,0,.25-.02,.58-.05,.06,0,.07,0,.08,0,.22-.02,.69-.05,1.52-.04,2.92,.02,4.59-.16,6.63,.58Z"/>
    <path class="cls-3" d="M39.59,87.44s3.45,6.69,6.84,8.05c0,0,4.95,2.27,8.74-4.06l2.68-3.88"/>
  </g>
  <g id="_右大臂" data-name="右大臂">
    <path class="cls-9" d="M63.85,101.42c1.03,0,1.88-.84,1.88-1.88s-.84-1.88-1.88-1.88-1.88,.84-1.88,1.88,.84,1.88,1.88,1.88Z"/>
    <g>
      <path class="cls-19" d="M66.46,106.59c-.83-.63-2.75-2.73-3.11-3.73,0,0-.17-1.07,.49-1.44,0,0,1.2,.05,1.73-1.15,0,0,1.09-.26,2.06,1.17l2.03,3.15s.68,.97-.65,1.98c0,0-1.81,.6-2.56,.02Z"/>
      <path class="cls-29" d="M63.85,101.64l3.19,4.3c-.1,.2-.16,.42-.18,.64-.1-.03-.2-.08-.28-.14-.83-.64-2.68-2.66-3.04-3.63-.06-.37,0-.92,.31-1.17Z"/>
    </g>
  </g>
  <g id="_左小臂" data-name="左小臂">
    <path class="cls-9" d="M32.34,101.42c1.03,0,1.88-.84,1.88-1.88s-.84-1.88-1.88-1.88-1.88,.84-1.88,1.88,.84,1.88,1.88,1.88Z"/>
    <g>
      <path class="cls-19" d="M29.72,106.59c.83-.63,2.75-2.73,3.11-3.73,0,0,.17-1.07-.49-1.44,0,0-1.2,.05-1.73-1.15,0,0-1.09-.26-2.06,1.17l-2.03,3.15s-.68,.97,.65,1.98c0,0,1.81,.6,2.56,.02Z"/>
      <path class="cls-29" d="M32.33,101.64l-3.19,4.3c.1,.2,.16,.42,.18,.64,.1-.03,.2-.08,.28-.14,.83-.64,2.68-2.66,3.04-3.63,.06-.37,0-.92-.31-1.17Z"/>
    </g>
  </g>
  <g id="_左大拇指" data-name="左大拇指">
    <path class="cls-10" d="M29.52,108.57c.01,.08-.27,2.24-.12,3.26,0,0,.13,.8-.95,.67,0,0-1.36-.7-1.36-2.29l.1-.88s.46-1.38,1.55-1.63c0,0,.74-.02,.78,.86Z"/>
    <path class="cls-25" d="M29.33,108.51c-.08,.3-.17,.6-.29,.89-.26,.62-.77,1.39-1.51,.88-.09-.05-.16-.12-.22-.21l-.02,.16c0,.86,.47,1.63,1.19,2.08,.01,0,.03,.02,.04,.02,.32,.03,.77-.04,.7-.46-.07-.45-.05-.96-.03-1.42,.02-.41,.05-.82,.09-1.23,.02-.19,.06-.44,.06-.63h0s0-.05,0-.08Z"/>
  </g>
  <g id="_左手腕_手掌" data-name="左手腕+手掌">
    <path class="cls-5" d="M27.69,108.14c.8,0,1.45-.65,1.45-1.45s-.65-1.45-1.45-1.45-1.45,.65-1.45,1.45,.65,1.45,1.45,1.45Z"/>
    <path class="cls-17" d="M25.45,107.67s-1.09,2.45-.63,4.26c0,0,1.33,2.37,3.26,1.15,0,0,.38-.43,.6-1.84,0,0,.57-3.08-.25-3.3,0,0-.58,.41-1.33,.08,0,0-.71-.34-.83-1.05,0,0-.57,.2-.81,.7Z"/>
  </g>
  <g id="_左大臂" data-name="左大臂">
    <path class="cls-13" d="M38.72,90.58c1.83,0,3.32-1.49,3.32-3.32s-1.49-3.32-3.32-3.32-3.32,1.49-3.32,3.32,1.49,3.32,3.32,3.32Z"/>
    <path class="cls-8" d="M38.87,88.41c.6,0,1.09-.49,1.09-1.09s-.49-1.09-1.09-1.09-1.09,.49-1.09,1.09,.49,1.09,1.09,1.09Z"/>
    <path class="cls-9" d="M35.08,89.81c-.02-.18,.07-.52,.71-1,0,0,.94,1.74,2.78,1.77,0,0-.07,.83-.63,1.09-.36,.17-.54,.12-.92,.06-.93-.15-1.84-.89-1.93-1.92Z"/>
    <path class="cls-14" d="M37.8,91.9s.95,.69-.08,2.61l-2.43,4.75s-.86,.95-1.85,.26l.35-.31,.6-1.41s-.86-.37-.32-1.07l.94-1.62h.82s.87-1.57,.87-1.57l.62-1.13s.31-.39-.18-.67c0,0,.29,.06,.5,.02,0,0,.14,.1,.16,.14Z"/>
    <path class="cls-26" d="M34.32,97.76l1.43-2.66h-.75s-.94,1.63-.94,1.63v.02c-.06,.06-.09,.11-.12,.16-.14,.31-.01,.54,.14,.68,.08,.08,.18,.13,.23,.16Z"/>
    <path class="cls-18" d="M33.93,90.3l-4.03,7.58s-1.22,2.51,1.49,2.59c0,0,1.59-.43,2.38-1.26l.61-1.43s-.87-.34-.34-1.04l.82-1.46,.14-.18h.82s1.58-2.86,1.58-2.86c0,0,.09-.31-.27-.51,0,0-1.65-.09-2.05-1.84,0,0-.65-.33-1.15,.39Z"/>
  </g>
  <g id="_左食指" data-name="左食指">
    <path class="cls-10" d="M25.54,111.22s.19-.51,.98-.41c0,0,.38,.04,.44,.53,0,0,.37,1.3,.33,2.4,0,0-.03,.56-.62,.62,0,0-.62,.04-1.11-.58l-.05-1.96s-.06-.42,.03-.59Z"/>
    <path class="cls-10" d="M27.52,117.2s.5,.52,1.1,.17c0,0,.6-.32,.35-1.28,0,0-.17-.51-.62-.89l-1.17-1.13s-.31,.55-1.11,.14c0,0-.32,.29-.09,.65l.27,.25,1.06,1.88s.21,.21,.21,.21Z"/>
    <path class="cls-25" d="M26.43,110.99c-.02,.63-.16,1.41-.7,1.77l.03,.86s0,.06,0,.09c.11,.13,.25,.25,.4,.33,.14,.07,.34,.14,.49,.13,0,0,0,0,0,0,.15-.02,.28-.08,.36-.21,.05-.08,.08-.16,.09-.24,0-.11,0-.21,0-.32-.02-.64-.15-1.4-.32-2.02h0s0-.03,0-.03c-.02-.15-.1-.35-.28-.37-.02,0-.05,0-.07,0Z"/>
    <path class="cls-25" d="M28.77,116.91c.11-.24,.08-.52,.02-.77-.1-.29-.34-.61-.57-.82l-1.03-1c-.07,.06-.16,.11-.25,.15,.47,.92,1.08,1.73,1.84,2.43Z"/>
  </g>
  <g id="_左中指" data-name="左中指">
    <path class="cls-10" d="M24.49,111.15s-.78,.19-.71,1.58c0,0-.06,1.31,.34,1.68,0,0,.31,.54,.97,.29,0,0,.47-.15,.48-1.07l-.06-1.89s-.03-.47-.53-.56c0,0-.2-.05-.49-.02Z"/>
    <path class="cls-10" d="M24.71,115.8s.14,1.44,1.94,2.14c0,0,.27,.09,.49-.13,0,0,.34-.3,.17-.82l-1.04-1.85s-.5-.61-.99-.59c0,0-.25,.28-.72,.19,0,0,.06,.68,.15,1.06Z"/>
    <path class="cls-25" d="M25.62,114.84c.03,.99,.43,1.98,.89,2.84,.07,.03,.13,.06,.19,.08,.11,.03,.22,0,.31-.09,.16-.15,.18-.41,.12-.61l-1.04-1.84-.24-.23c-.07-.06-.15-.11-.23-.16Z"/>
    <path class="cls-25" d="M25.28,114.2c.02-.15,.05-.3,.09-.45l-.05-1.91s-.01-.11-.02-.16c-.05-.18-.18-.29-.37-.33h0s0,0,0,0c-.05-.01-.12-.02-.18-.02,.06,1.03,.08,2.23-.11,3.23,.07,.02,.15,.02,.23,0,.1-.02,.21-.07,.28-.13,0,0,0,0,0,0,.06-.06,.1-.14,.13-.22Z"/>
  </g>
  <g id="_右大拇指" data-name="右大拇指">
    <path class="cls-10" d="M66.66,108.57c-.01,.08,.27,2.24,.12,3.26,0,0-.13,.8,.95,.67,0,0,1.36-.7,1.36-2.29l-.1-.88s-.46-1.38-1.55-1.63c0,0-.74-.02-.78,.86Z"/>
    <path class="cls-25" d="M66.85,108.51c.08,.3,.17,.6,.29,.89,.26,.62,.77,1.39,1.51,.88,.09-.05,.16-.12,.22-.21l.02,.16c0,.86-.47,1.63-1.19,2.08-.01,0-.03,.02-.04,.02-.32,.03-.77-.04-.7-.46,.07-.45,.05-.96,.03-1.42-.02-.41-.05-.82-.09-1.23-.02-.19-.06-.44-.06-.63h0s0-.05,0-.08Z"/>
  </g>
  <g id="_右手腕_手掌" data-name="右手腕+手掌">
    <path class="cls-5" d="M68.5,108.14c.8,0,1.45-.65,1.45-1.45s-.65-1.45-1.45-1.45-1.45,.65-1.45,1.45,.65,1.45,1.45,1.45Z"/>
    <path class="cls-17" d="M70.73,107.67s1.09,2.45,.63,4.26c0,0-1.33,2.37-3.26,1.15,0,0-.38-.43-.6-1.84,0,0-.57-3.08,.25-3.3,0,0,.58,.41,1.33,.08,0,0,.71-.34,.83-1.05,0,0,.57,.2,.81,.7Z"/>
  </g>
  <g id="_右大臂-2" data-name="右大臂">
    <path class="cls-13" d="M57.46,90.58c1.83,0,3.32-1.49,3.32-3.32s-1.49-3.32-3.32-3.32-3.32,1.49-3.32,3.32,1.49,3.32,3.32,3.32Z"/>
    <path class="cls-8" d="M57.32,88.41c.6,0,1.09-.49,1.09-1.09s-.49-1.09-1.09-1.09-1.09,.49-1.09,1.09,.49,1.09,1.09,1.09Z"/>
    <path class="cls-9" d="M61.11,89.81c.02-.18-.07-.52-.71-1,0,0-.94,1.74-2.78,1.77,0,0,.07,.83,.63,1.09,.36,.17,.54,.12,.92,.06,.93-.15,1.84-.89,1.93-1.92Z"/>
    <path class="cls-14" d="M58.38,91.9s-.95,.69,.08,2.61l2.43,4.75s.86,.95,1.85,.26l-.35-.31-.6-1.41s.86-.37,.32-1.07l-.94-1.62h-.82s-.87-1.57-.87-1.57l-.62-1.13s-.31-.39,.18-.67c0,0-.29,.06-.5,.02,0,0-.14,.1-.16,.14Z"/>
    <path class="cls-26" d="M61.86,97.76l-1.43-2.66h.75s.94,1.63,.94,1.63v.02c.06,.06,.09,.11,.12,.16,.14,.31,.01,.54-.14,.68-.08,.08-.18,.13-.23,.16Z"/>
    <path class="cls-18" d="M62.25,90.3l4.03,7.58s1.22,2.51-1.49,2.59c0,0-1.59-.43-2.38-1.26l-.61-1.43s.87-.34,.34-1.04l-.82-1.46-.14-.18h-.82s-1.58-2.86-1.58-2.86c0,0-.09-.31,.27-.51,0,0,1.65-.09,2.05-1.84,0,0,.65-.33,1.15,.39Z"/>
  </g>
  <g id="_右食指" data-name="右食指">
    <path class="cls-10" d="M70.64,111.22s-.19-.51-.98-.41c0,0-.38,.04-.44,.53,0,0-.37,1.3-.33,2.4,0,0,.03,.56,.62,.62,0,0,.62,.04,1.11-.58l.05-1.96s.06-.42-.03-.59Z"/>
    <path class="cls-25" d="M69.75,110.99c.02,.63,.16,1.41,.7,1.77l-.03,.86s0,.06,0,.09c-.11,.13-.25,.25-.4,.33-.14,.07-.34,.14-.49,.13,0,0,0,0,0,0-.15-.02-.28-.08-.36-.21-.05-.08-.08-.16-.09-.24,0-.11,0-.21,0-.32,.02-.64,.15-1.4,.32-2.02h0s0-.03,0-.03c.02-.15,.1-.35,.28-.37,.02,0,.05,0,.07,0Z"/>
    <g>
      <path class="cls-10" d="M68.66,117.2s-.5,.52-1.1,.17c0,0-.6-.32-.35-1.28,0,0,.17-.51,.62-.89l1.17-1.13s.31,.55,1.11,.14c0,0,.32,.29,.09,.65l-.27,.25-1.06,1.88s-.21,.21-.21,.21Z"/>
      <path class="cls-25" d="M67.41,116.91c-.11-.24-.08-.52-.02-.77,.1-.29,.34-.61,.57-.82l1.03-1c.07,.06,.16,.11,.25,.15-.47,.92-1.08,1.73-1.84,2.43Z"/>
    </g>
  </g>
  <g id="_右中指" data-name="右中指">
    <g>
      <path class="cls-10" d="M71.47,115.8s-.14,1.44-1.94,2.14c0,0-.27,.09-.49-.13,0,0-.34-.3-.17-.82l1.04-1.85s.5-.61,.99-.59c0,0,.25,.28,.72,.19,0,0-.06,.68-.15,1.06Z"/>
      <path class="cls-25" d="M70.56,114.84c-.03,.99-.43,1.98-.89,2.84-.07,.03-.13,.06-.19,.08-.11,.03-.22,0-.31-.09-.16-.15-.18-.41-.12-.61l1.04-1.84,.24-.23c.07-.06,.15-.11,.23-.16Z"/>
    </g>
    <g>
      <path class="cls-10" d="M71.69,111.15s.78,.19,.71,1.58c0,0,.06,1.31-.34,1.68,0,0-.31,.54-.97,.29,0,0-.47-.15-.48-1.07l.06-1.89s.03-.47,.53-.56c0,0,.2-.05,.49-.02Z"/>
      <path class="cls-25" d="M70.9,114.2c-.02-.15-.05-.3-.09-.45l.05-1.91s.01-.11,.02-.16c.05-.18,.18-.29,.37-.33h0s0,0,0,0c.05-.01,.12-.02,.18-.02-.06,1.03-.08,2.23,.11,3.23-.07,.02-.15,.02-.23,0-.1-.02-.21-.07-.28-.13,0,0,0,0,0,0-.06-.06-.1-.14-.13-.22Z"/>
    </g>
  </g>
  <g>
    <path class="cls-16" d="M46.27,108.43c-.4-.2-.72,.44-2.24,.88-.42,.12-1.06,.27-1.82,.15-.07-.01-.13-.02-.17-.03-1.2-.23-1.61-.91-2.08-.68-.33,.17-.46,.67-.52,1.66-.11,1.76,.12,2.71,.28,4.29,.21,2.18,.01,2.97,.3,3.65,.09,.21,.19,.35,.27,.45,.51,.67,1.26,.9,1.78,1.05,.23,.07,.58,.17,1.05,.2,.21,.01,2.26,.13,3.13-1.08,.3-.42,.35-.85,.39-1.51,.2-2.99-.06-4.02-.04-6.37,.01-1.56,.12-2.44-.31-2.66Z"/>
    <path class="cls-28" d="M41.97,119.63c-.39-.85-.84-2.12-.95-3.7-.05-.77-.01-1.45,.06-2.03,0,0,.05-.47,.23-1.06,.27-.94,.74-1.57,.94-1.8,.16-.19,.35-.38,.35-.38,.17-.17,.45-.37,.54-.46,.04-.04,.06-.07,.09-.1,.1-.16,.12-.33,.12-.43-.35,.04-.91,.07-1.57-.09-.63-.15-1.1-.42-1.39-.61-.05-.02-.13-.06-.24-.05-.19,.02-.3,.2-.34,.26-.07,.11-.08,.26-.12,.54-.04,.31-.06,.56-.07,.74-.01,.19-.01,.36-.01,.55,0,.16,0,.65,.03,1.17,.05,.94,.21,2.22,.27,2.68,.08,.69,.16,1.71,.12,2.98,.07,.23,.26,.76,.78,1.21,.46,.4,.93,.53,1.17,.58Z"/>
  </g>
  <g>
    <path class="cls-16" d="M50.74,108.25c.4-.2,.72,.44,2.24,.88,.42,.12,1.06,.27,1.82,.15,.07-.01,.13-.02,.17-.03,1.2-.23,1.61-.91,2.08-.68,.33,.17,.46,.67,.52,1.66,.11,1.76-.12,2.71-.28,4.29-.21,2.18-.01,2.97-.3,3.65-.09,.21-.19,.35-.27,.45-.51,.67-1.26,.9-1.78,1.05-.23,.07-.58,.17-1.05,.2-.21,.01-2.26,.13-3.13-1.08-.3-.42-.35-.85-.39-1.51-.2-2.99,.06-4.02,.04-6.37-.01-1.56-.12-2.44,.31-2.66Z"/>
    <path class="cls-28" d="M55.1,119.43c.39-.85,.84-2.12,.95-3.7,.05-.77,.01-1.45-.06-2.03,0,0-.05-.47-.23-1.06-.27-.94-.74-1.57-.94-1.8-.16-.19-.35-.38-.35-.38-.17-.17-.45-.37-.54-.46-.04-.04-.06-.07-.09-.1-.1-.16-.12-.33-.12-.43,.74,.14,1.24,.04,1.57-.09,.19-.08,.49-.23,1.19-.54,.13-.06,.24-.1,.31-.13,.13,.03,.34,.09,.46,.27,.05,.07,.06,.14,.12,.54,.04,.31,.06,.56,.07,.74,.01,.19,.01,.36,.01,.55,0,.16,0,.65-.03,1.17-.05,.94-.21,2.22-.27,2.68-.08,.69-.16,1.71-.12,2.98-.07,.23-.26,.76-.78,1.21-.46,.4-.93,.53-1.17,.58Z"/>
  </g>
  <g>
    <g>
      <path class="cls-7" d="M41.95,120.51c.22,.31,.68,.85,1.37,1.07,1.37,.45,2.46-.74,2.62-.92,.05-.15,.12-.37,.14-.65,.04-.36,0-.67-.04-.85-.26,.13-.48,.23-.65,.29-.39,.16-.82,.3-1.37,.39-.19,.03-.4,.04-.63,.02-.72-.07-1.27-.47-1.59-.75,0,.09,0,.18,0,.28,.02,.41,.07,.79,.13,1.12Z"/>
      <path class="cls-2" d="M40.81,118.03c-.13,.05-.17,.31-.26,.82-.04,.26-.1,.59-.05,1.02,.02,.23,.07,.38,.14,.65,.14,.51,.21,.77,.34,.83,.22,.11,.57-.25,.73-.64,.25-.62,.01-1.31-.09-1.6-.17-.48-.55-1.18-.81-1.08Z"/>
    </g>
    <g id="_右小腿" data-name="右小腿">
      <path class="cls-16" d="M46.33,121.71c.04,.68,.03,1.45-.04,2.29-.12,1.43-.41,2.66-.73,3.64-.13,.67-.37,.91-.58,1-.22,.1-.39,.02-.8,.03-.42,.01-.77,.11-1,.19-.3-.12-.73-.35-1.13-.76-.77-.78-.93-1.71-.98-2.06l-.38-4.37s-.02-1.29,1.06-1.27c0,0,1.19,1.38,3.13,.68,0,0,.71-.29,.99-.69,0,0,.56,.7,.46,1.31Z"/>
      <path class="cls-28" d="M41.39,120.64c-.17,1.01-.3,2.81,.61,4.6,.27,.52,1.27,2.5,2.58,2.41,.4-.03,.71-.24,.92-.42,0,.1,.04,.83-.44,1.18-.06,.05-.14,.09-.25,.12-.15-.03-.33-.05-.53-.05-.45,0-.83,.1-1.08,.2-.22-.09-.48-.24-.75-.45-.34-.28-.54-.55-.58-.61-.19-.27-.28-.49-.36-.7-.08-.21-.18-.52-.24-.89l-.37-4.35c0-.35,.21-.92,.5-1.03Z"/>
    </g>
  </g>
  <g>
    <g>
      <path class="cls-7" d="M55.34,120.44c-.22,.31-.68,.85-1.37,1.07-1.37,.45-2.46-.74-2.62-.92-.05-.15-.12-.37-.14-.65-.04-.36,0-.67,.04-.85,.26,.13,.48,.23,.65,.29,.39,.16,.82,.3,1.37,.39,.19,.03,.4,.04,.63,.02,.72-.07,1.27-.47,1.59-.75,0,.09,0,.18,0,.28-.02,.41-.07,.79-.13,1.12Z"/>
      <path class="cls-2" d="M56.61,117.94c.13,.05,.17,.31,.26,.82,.04,.26,.1,.59,.05,1.02-.02,.23-.07,.38-.14,.65-.14,.51-.21,.77-.34,.83-.22,.11-.57-.25-.73-.64-.25-.62-.01-1.31,.09-1.6,.17-.48,.55-1.18,.81-1.08Z"/>
    </g>
    <g id="_右小腿-2" data-name="右小腿">
      <path class="cls-16" d="M50.7,121.98c-.04,.68-.03,1.45,.04,2.29,.12,1.43,.41,2.66,.73,3.64,.13,.67,.37,.91,.58,1,.22,.1,.39,.02,.8,.03,.42,.01,.77,.11,1,.19,.3-.12,.73-.35,1.13-.76,.77-.78,.93-1.71,.98-2.06l.38-4.37s.02-1.29-1.06-1.27c0,0-1.19,1.38-3.13,.68,0,0-.71-.29-.99-.69,0,0-.56,.7-.46,1.31Z"/>
      <path class="cls-28" d="M55.64,120.92c.17,1.01,.3,2.81-.61,4.6-.27,.52-1.27,2.5-2.58,2.41-.4-.03-.71-.24-.92-.42,0,.1-.04,.83,.44,1.18,.06,.05,.14,.09,.25,.12,.15-.03,.33-.05,.53-.05,.45,0,.83,.1,1.08,.2,.22-.09,.48-.24,.75-.45,.34-.28,.54-.55,.58-.61,.19-.27,.28-.49,.36-.7,.08-.21,.18-.52,.24-.89l.37-4.35c0-.35-.21-.92-.5-1.03Z"/>
    </g>
  </g>
  <g>
    <g>
      <path class="cls-16" d="M41.84,129.12c-.28-.13-.55-.12-.88-.1-.46,.02-.81,.11-.92,.14-.9,.25-1.55,.68-1.68,.78-.57,.43-1.36,1.04-1.82,2.16-.23,.55-.6,1.45-.21,2.27,.14,.3,.43,.69,1.17,1.04,1.63,.79,5.54,1.48,6.66-.55,0,0,1.04-1.9-1.81-5.34-.23-.28-.5-.4-.5-.4Z"/>
      <path class="cls-22" d="M42.83,130.13c-.42,.2-.98,.52-1.53,1.04-.37,.35-.66,.62-.86,1.07-.11,.26-.15,.47-.15,1.9,0,1.36,.03,1.47,.12,1.6,.17,.23,.46,.38,2.24,.43,2.11,.06,2.68-.12,3.1-.34,.73-.37,.93-.78,.98-.92,.06-.14,.12-.36,.06-.98-.05-.51-.12-1.2-.49-2.09-.33-.79-.5-.77-.74-1.5-.16-.5-.24-.75-.28-1.11-.06-.52,0-.92-.21-1.04-.1-.06-.21-.03-.34,0-.96,.21-1.31-.13-1.63,.17-.16,.15-.19,.39-.26,.86-.05,.37-.04,.69-.02,.91Z"/>
      <path class="cls-16" d="M36.15,133.32c.3,.24,.87,.61,1.6,.61,.11,0,.21,0,.31-.02"/>
      <path class="cls-16" d="M40.2,134.33c-.45-.03-.92-.1-1.41-.2-.09-.02-.18-.04-.27-.06"/>
    </g>
    <path class="cls-27" d="M39.53,134.71h0s0,.02,0,.02c-.25,.07-.84,.2-1.55,.02-.77-.21-1.24-.67-1.42-.87-.11-.12-.18-.18-.2-.16-.02,.01-.01,.06,.01,.14,0,.07,.03,.18,.07,.3,0,0,.09,.24,.28,.45,.49,.54,1.35,.89,1.35,.89,.64,.25,2.1,.76,2.25,.46,.05-.09-.05-.15-.16-.48-.15-.43,.03-.68-.12-.81-.07-.05-.2-.09-.5,.04Z"/>
  </g>
  <g>
    <g>
      <path class="cls-16" d="M55.13,128.79c.28-.13,.55-.12,.88-.1,.46,.02,.81,.11,.92,.14,.9,.25,1.55,.68,1.68,.78,.57,.43,1.36,1.04,1.82,2.16,.23,.55,.6,1.45,.21,2.27-.14,.3-.43,.69-1.17,1.04-1.63,.79-5.54,1.48-6.66-.55,0,0-1.04-1.9,1.81-5.34,.23-.28,.5-.4,.5-.4Z"/>
      <path class="cls-22" d="M54.14,129.8c.42,.2,.98,.52,1.53,1.04,.37,.35,.66,.62,.86,1.07,.11,.26,.15,.47,.15,1.9,0,1.36-.03,1.47-.12,1.6-.17,.23-.46,.38-2.24,.43-2.11,.06-2.68-.12-3.1-.34-.73-.37-.93-.78-.98-.92-.06-.14-.12-.36-.06-.98,.05-.51,.12-1.2,.49-2.09,.33-.79,.5-.77,.74-1.5,.16-.5,.24-.75,.28-1.11,.06-.52,0-.92,.21-1.04,.1-.06,.21-.03,.34,0,.96,.21,1.31-.13,1.63,.17,.16,.15,.19,.39,.26,.86,.05,.37,.04,.69,.02,.91Z"/>
      <path class="cls-16" d="M60.81,132.99c-.3,.24-.87,.61-1.6,.61-.11,0-.21,0-.31-.02"/>
      <path class="cls-16" d="M56.76,133.99c.45-.03,.92-.1,1.41-.2,.09-.02,.18-.04,.27-.06"/>
    </g>
    <path class="cls-27" d="M57.48,134.32h0s0,.02,0,.02c.25,.07,.84,.2,1.55,.02,.77-.21,1.24-.67,1.42-.87,.11-.12,.18-.18,.2-.16,.02,.01,.01,.06-.01,.14,0,.07-.03,.18-.07,.3,0,0-.09,.24-.28,.45-.49,.54-1.35,.89-1.35,.89-.64,.25-2.1,.76-2.25,.46-.05-.09,.05-.15,.16-.48,.15-.43-.03-.68,.12-.81,.07-.05,.2-.09,.5,.04Z"/>
  </g>
</svg>