<?xml version="1.0" encoding="utf-8"?>
<!-- Generator: Adobe Illustrator 15.0.0, SVG Export Plug-In  -->
<!DOCTYPE svg PUBLIC "-//W3C//DTD SVG 1.1//EN" "http://www.w3.org/Graphics/SVG/1.1/DTD/svg11.dtd" [
	<!ENTITY ns_flows "http://ns.adobe.com/Flows/1.0/">
]>
<svg version="1.1"
	 xmlns="http://www.w3.org/2000/svg" xmlns:xlink="http://www.w3.org/1999/xlink" xmlns:a="http://ns.adobe.com/AdobeSVGViewerExtensions/3.0/"
	 x="0px" y="0px" width="42px" height="42px" viewBox="516.273 177.639 42 42" enable-background="new 516.273 177.639 42 42"
	 xml:space="preserve">
<defs>
</defs>
<rect display="none" fill="#E0E0E0" width="2229.455" height="1311.244"/>
<rect x="516.273" y="177.639" display="none" fill="#C9C9C9" width="42" height="42"/>
<path fill="#FFFFFF" d="M544.787,202.781c-0.394,0.04-0.748,0.052-1.063-0.315c-0.579-0.71-1.378-0.906-2.257-0.828
	c-0.315,0.027-0.669,0.171-0.918-0.117c-0.549-0.657-1.27-0.789-2.071-0.696c-0.511,0.066-0.667-0.144-0.655-0.657
	c0.039-1.078,0.054-1.93,0.027-2.81c-0.039-1.654-0.97-2.309-1.967-2.296c-1.063,0-2.047,0.735-2.047,2.717
	c0,2.821,0.027,4.79,0.027,7.6v1.05c-0.591-0.393-1.023-0.682-1.468-0.967c-0.958-0.655-2.125-0.55-2.86,0.237
	c-0.604,0.645-0.735,2.062,0.051,2.836c0.799,0.787,1.456,1.666,2.176,2.506c1.534,1.786,2.663,3.818,3.305,6.09
	c0.171,0.579,0.486,0.918,1.168,0.907c2.348-0.027,4.71-0.054,7.057,0.012c1.429,0.051,1.901-0.645,2.387-1.89
	c0.615-1.603,1.219-3.218,1.456-4.911c0.225-1.642,0.147-3.308,0.198-4.95c0.024-0.837,0.117-1.797-0.342-2.545
	C546.531,202.991,545.627,202.703,544.787,202.781z"/>
<path fill="#FFFFFF" d="M551.145,183.148h1.374c0.49,0,0.886-0.397,0.886-0.886c0-0.49-0.396-0.886-0.886-0.886h-3.324
	c-0.235,0-0.46,0.093-0.627,0.26c-0.166,0.166-0.259,0.391-0.259,0.626v3.324c0,0.489,0.396,0.887,0.886,0.887
	s0.886-0.397,0.886-0.887V184.7c4.32,5.923,3.677,14.112-1.516,19.287c-0.168,0.167-0.262,0.393-0.262,0.629
	c0,0.237,0.094,0.463,0.262,0.629c0.167,0.168,0.393,0.262,0.629,0.262s0.463-0.094,0.629-0.262
	C555.804,199.28,556.372,189.784,551.145,183.148z"/>
<path fill="#FFFFFF" d="M526.868,200.388c-0.489,0-0.886,0.397-0.886,0.887v0.886c-4.328-5.923-3.688-14.117,1.507-19.296
	c0.348-0.347,0.348-0.911,0-1.258c-0.348-0.348-0.911-0.348-1.258,0c-6,5.97-6.569,15.491-1.321,22.132h-1.365
	c-0.317,0-0.609,0.169-0.768,0.443c-0.159,0.274-0.159,0.612,0,0.887c0.158,0.274,0.451,0.443,0.768,0.443h3.324
	c0.49,0,0.887-0.397,0.887-0.887v-3.35C527.754,200.785,527.357,200.388,526.868,200.388z"/>
<path fill="#FFFFFF" d="M531.654,200.331c0.385-0.337,0.424-0.921,0.088-1.306c-1.368-1.567-2.123-3.578-2.123-5.662
	c0-4.748,3.862-8.611,8.61-8.611s8.61,3.863,8.61,8.611c0,2.088-0.756,4.102-2.13,5.669c-0.336,0.385-0.297,0.969,0.087,1.306
	c0.175,0.154,0.393,0.229,0.609,0.229c0.258,0,0.514-0.107,0.697-0.316c1.669-1.906,2.588-4.352,2.588-6.889
	c0-5.768-4.693-10.461-10.461-10.461s-10.461,4.693-10.461,10.461c0,2.531,0.917,4.975,2.58,6.878
	C530.685,200.627,531.27,200.667,531.654,200.331z"/>
</svg>
