<?xml version="1.0" encoding="utf-8"?>
<!-- Generator: Adobe Illustrator 15.0.0, SVG Export Plug-In  -->
<!DOCTYPE svg PUBLIC "-//W3C//DTD SVG 1.1//EN" "http://www.w3.org/Graphics/SVG/1.1/DTD/svg11.dtd" [
	<!ENTITY ns_flows "http://ns.adobe.com/Flows/1.0/">
]>
<svg version="1.1"
	 xmlns="http://www.w3.org/2000/svg" xmlns:xlink="http://www.w3.org/1999/xlink" xmlns:a="http://ns.adobe.com/AdobeSVGViewerExtensions/3.0/"
	 x="0px" y="0px" width="42px" height="42px" viewBox="253.273 229.639 42 42" enable-background="new 253.273 229.639 42 42"
	 xml:space="preserve">
<defs>
</defs>
<rect display="none" fill="#E0E0E0" width="2229.455" height="1311.244"/>
<rect x="253.273" y="229.639" display="none" fill="#C9C9C9" width="42" height="42"/>
<path fill="#FFFFFF" d="M270.962,241.753c0.235,0.676,0.596,1.3,1.063,1.842c-0.23,0.472-0.382,0.978-0.451,1.499
	c0.75,0.684,1.64,1.197,2.607,1.505c0.417-0.319,0.779-0.705,1.073-1.14c0.703,0.134,1.424,0.134,2.127,0
	c0.293,0.435,0.656,0.82,1.073,1.14c0.967-0.308,1.857-0.822,2.607-1.505c-0.068-0.521-0.22-1.027-0.45-1.499
	c0.467-0.542,0.828-1.166,1.063-1.842c0.524-0.037,1.039-0.158,1.523-0.359c0.217-0.992,0.217-2.019,0-3.01
	c-0.485-0.202-1-0.323-1.523-0.359c-0.235-0.676-0.596-1.3-1.063-1.842c0.23-0.472,0.382-0.978,0.45-1.499
	c-0.75-0.684-1.64-1.197-2.607-1.505c-0.417,0.319-0.779,0.705-1.073,1.14c-0.703-0.134-1.424-0.134-2.127,0
	c-0.293-0.436-0.656-0.821-1.073-1.14c-0.968,0.308-1.857,0.822-2.607,1.505c0.068,0.521,0.221,1.027,0.451,1.499
	c-0.467,0.542-0.828,1.166-1.063,1.842c-0.524,0.037-1.038,0.158-1.523,0.359c-0.217,0.992-0.217,2.019,0,3.01
	C269.924,241.596,270.438,241.717,270.962,241.753z M276.318,237.165c1.503,0,2.724,1.221,2.724,2.724
	c0,1.503-1.22,2.724-2.724,2.724c-1.503,0-2.724-1.221-2.724-2.724C273.595,238.386,274.815,237.165,276.318,237.165z
	 M293.36,254.537c-0.524-0.217-1.08-0.349-1.646-0.388c-0.254-0.73-0.644-1.405-1.149-1.99c0.249-0.51,0.413-1.057,0.487-1.62
	c-0.811-0.739-1.772-1.293-2.817-1.626c-0.451,0.345-0.842,0.761-1.16,1.231c-0.759-0.145-1.539-0.145-2.298,0
	c-0.317-0.47-0.708-0.886-1.159-1.231c-1.045,0.333-2.006,0.888-2.817,1.626c0.074,0.563,0.238,1.11,0.487,1.62
	c-0.505,0.585-0.895,1.26-1.149,1.99c-0.566,0.04-1.122,0.171-1.646,0.388c-0.234,1.072-0.234,2.181,0,3.253
	c0.524,0.217,1.08,0.348,1.646,0.388c0.254,0.73,0.644,1.405,1.149,1.99c-0.249,0.51-0.413,1.057-0.487,1.62
	c0.811,0.739,1.772,1.294,2.817,1.627c0.451-0.345,0.842-0.761,1.159-1.232c0.759,0.145,1.539,0.145,2.298,0
	c0.317,0.471,0.709,0.887,1.16,1.232c1.045-0.333,2.006-0.888,2.817-1.627c-0.074-0.563-0.238-1.109-0.487-1.62
	c0.505-0.585,0.895-1.26,1.149-1.99c0.566-0.04,1.122-0.17,1.646-0.388C293.595,256.718,293.595,255.608,293.36,254.537z
	 M288.476,257.635c-0.812,1.407-2.614,1.89-4.02,1.077c-1.407-0.812-1.89-2.614-1.078-4.021c0.813-1.406,2.614-1.889,4.021-1.077
	C288.805,254.427,289.288,256.228,288.476,257.635z M278.317,252.489c-0.53-1.665-1.413-3.194-2.589-4.485
	c-0.896,0.117-1.767,0.379-2.578,0.775c-0.931-0.804-2.006-1.424-3.168-1.829c-0.063-0.901-0.271-1.786-0.618-2.621
	c-1.706-0.374-3.472-0.374-5.178,0c-0.346,0.834-0.555,1.719-0.618,2.621c-1.162,0.404-2.237,1.025-3.168,1.829
	c-0.812-0.396-1.683-0.658-2.578-0.775c-1.177,1.291-2.06,2.82-2.589,4.485c0.549,0.717,1.211,1.34,1.96,1.845
	c-0.231,1.208-0.231,2.45,0,3.658c-0.749,0.505-1.411,1.128-1.96,1.845c0.529,1.664,1.413,3.194,2.589,4.485
	c0.896-0.117,1.766-0.379,2.578-0.775c0.931,0.804,2.006,1.425,3.168,1.83c0.063,0.901,0.271,1.786,0.618,2.62
	c1.706,0.373,3.472,0.373,5.178,0c0.347-0.834,0.555-1.719,0.618-2.62c1.162-0.405,2.237-1.025,3.168-1.83
	c0.812,0.396,1.683,0.658,2.578,0.775c1.176-1.291,2.06-2.821,2.589-4.485c-0.549-0.717-1.211-1.34-1.961-1.845
	c0.231-1.208,0.231-2.45,0-3.658C277.106,253.83,277.768,253.206,278.317,252.489z M266.775,260.848
	c-2.586,0-4.685-2.099-4.685-4.685c0-2.585,2.099-4.685,4.685-4.685c2.585,0,4.685,2.099,4.685,4.685
	C271.459,258.749,269.36,260.848,266.775,260.848z"/>
</svg>
