<?xml version="1.0" encoding="utf-8"?>
<!-- Generator: Adobe Illustrator 15.0.0, SVG Export Plug-In  -->
<!DOCTYPE svg PUBLIC "-//W3C//DTD SVG 1.1//EN" "http://www.w3.org/Graphics/SVG/1.1/DTD/svg11.dtd" [
	<!ENTITY ns_flows "http://ns.adobe.com/Flows/1.0/">
]>
<svg version="1.1"
	 xmlns="http://www.w3.org/2000/svg" xmlns:xlink="http://www.w3.org/1999/xlink" xmlns:a="http://ns.adobe.com/AdobeSVGViewerExtensions/3.0/"
	 x="0px" y="0px" width="42px" height="42px" viewBox="466.273 177.639 42 42" enable-background="new 466.273 177.639 42 42"
	 xml:space="preserve">
<defs>
</defs>
<rect display="none" fill="#E0E0E0" width="2229.455" height="1311.244"/>
<rect x="466.273" y="177.639" display="none" fill="#C9C9C9" width="42" height="42"/>
<path fill="#FFFFFF" d="M476.355,189.046h-4.605v7.26l1.754,1.754v2.406h5.096v-2.406l1.754-1.754v-7.26H476.355z M472.417,183.193
	v5.28h7.27v-5.28H472.417z M475.194,186.447h-1.223v-1.226h1.223V186.447z M478.132,186.447h-1.222v-1.226h1.222V186.447z
	 M499.706,213.226v2.922h4.021v-2.922H499.706z M502.331,215.268h-1.222v-0.613h1.222V215.268z M498.732,205.466v7.208h5.973v-7.208
	c0-0.758-0.616-1.374-1.374-1.374h-3.225C499.345,204.096,498.732,204.708,498.732,205.466L498.732,205.466z M498.732,205.466"/>
<path fill="#FFFFFF" d="M482.141,213.155c-3.886,0-7.05-3.161-7.05-7.047v-5.102h1.922v5.102c0,2.826,2.3,5.125,5.125,5.125
	s5.125-2.299,5.125-5.125v-10.975c0-3.887,3.161-7.047,7.05-7.047h1.316c3.886,0,7.047,3.161,7.047,7.047v8.344h-1.922v-8.344
	c0-2.826-2.3-5.125-5.125-5.125h-1.316c-2.826,0-5.125,2.299-5.125,5.125v10.975C489.188,209.995,486.028,213.155,482.141,213.155
	L482.141,213.155z M482.141,213.155"/>
</svg>
